<?xml version="1.0" encoding="UTF-8"?>
<svg id="Outline" xmlns="http://www.w3.org/2000/svg" version="1.1" viewBox="0 0 42.5 66.7">
  <!-- Generator: Adobe Illustrator 29.3.1, SVG Export Plug-In . SVG Version: 2.1.0 Build 151)  -->
  <defs>
    <style>
      .st0 {
        fill: #1e2e3a;
      }
    </style>
  </defs>
  <g>
    <path class="st0" d="M37.4,66.7H5.1c-2.8,0-5.1-2.3-5.1-5.1V29.3c0-2.8,2.3-5.1,5.1-5.1h32.3c2.8,0,5.1,2.3,5.1,5.1v32.3c0,2.8-2.3,5.1-5.1,5.1M5.2,28.3c-.6,0-1,.5-1,1v32.3c0,.6.5,1,1,1h32.3c.6,0,1-.5,1-1V29.4c0-.6-.5-1-1-1H5.2Z"/>
    <path class="st0" d="M32.7,56.9H9.9v-22.8h22.8v22.8ZM34,32H8.6c-.4,0-.8.3-.8.8v25.4c0,.4.3.8.8.8h25.4c.4,0,.8-.3.8-.8v-25.4c0-.4-.3-.8-.8-.8Z"/>
    <rect class="st0" x="12.7" y="52.7" width="2.4" height=".5"/>
    <rect class="st0" x="19.7" y="53.9" width="3.2" height=".5"/>
    <rect class="st0" x="19.7" y="52.7" width="3.2" height=".5"/>
    <rect class="st0" x="19.7" y="51.6" width="3.2" height=".5"/>
    <rect class="st0" x="27.5" y="52.7" width="2.4" height=".5"/>
    <rect class="st0" x="28.4" y="51.8" width=".5" height="2.4"/>
    <rect class="st0" x="8.7" y="40.5" width="24.9" height="9"/>
  </g>
  <g>
    <path class="st0" d="M21.2,3.4c4.1,0,7.9,1.7,10.6,4.4l1.7-1.7c-3.2-3.2-7.4-5-12.3-5s-9.1,1.9-12.3,5l1.7,1.7c2.7-2.7,6.5-4.4,10.6-4.4"/>
    <path class="st0" d="M21.2,8.3c2.7,0,5.2,1.1,6.9,2.8l1.7-1.7c-2.2-2.2-5.4-3.6-8.8-3.6s-6.5,1.4-8.8,3.6l1.7,1.7c1.7-1.7,4.3-2.8,6.9-2.8,0,0,.4,0,.4,0Z"/>
    <path class="st0" d="M21.2,13.3c1.4,0,2.7.5,3.5,1.4l1.7-1.7c-1.4-1.3-3.2-2.2-5.2-2.2s-3.9.8-5.2,2.2l1.7,1.7c.9-.9,2.2-1.4,3.5-1.4"/>
    <path class="st0" d="M22.9,16.5c-.5-.5-1.1-.8-1.7-.8s-1.3.3-1.7.8l1.7,1.7,1.7-1.7Z"/>
  </g>
</svg>