<?xml version="1.0" encoding="UTF-8"?><svg id="Layer_1" xmlns="http://www.w3.org/2000/svg" viewBox="0 0 141.73 141.73"><defs><style>.cls-1{stroke-linejoin:round;}.cls-1,.cls-2{stroke:#000;stroke-linecap:round;stroke-width:.25px;}.cls-1,.cls-2,.cls-3{fill:none;}.cls-2{stroke-linejoin:bevel;}.cls-3{stroke:#00aeef;stroke-miterlimit:10;stroke-width:2px;}.cls-4{fill:#231f20;}</style></defs><polygon points="57.71 71.16 57.46 70.72 56.52 70.18 55.84 69.79 55.04 69.33 54.78 69.49 55.04 69.93 55.84 70.39 56.52 70.77 57.46 71.31 57.71 71.16"/><polygon points="57.71 78.88 57.46 78.44 56.52 77.89 55.84 77.51 55.04 77.05 54.78 77.2 55.04 77.64 55.84 78.1 56.52 78.49 57.46 79.03 57.71 78.88"/><polygon points="57.67 75.01 57.42 74.57 56.51 74.04 56.25 74.19 56.5 74.64 57.42 75.16 57.67 75.01"/><polygon points="56.25 74.19 56 73.75 55.08 73.23 54.82 73.37 55.08 73.82 55.99 74.34 56.25 74.19"/><polygon points="57.51 71.41 57.51 72.05 57.51 73.98 57.51 74.61 57.77 75.06 58.02 74.91 58.02 74.27 58.02 72.34 58.02 71.71 57.77 71.26 57.51 71.41"/><polygon points="54.47 73.47 54.47 74.1 54.47 76.04 54.47 76.67 54.73 77.12 54.98 76.97 54.98 76.33 54.98 74.4 54.98 73.76 54.73 73.32 54.47 73.47"/><polygon points="61.79 73.49 61.54 73.05 60.59 72.51 59.92 72.12 59.12 71.67 58.86 71.82 59.12 72.26 59.92 72.72 60.59 73.11 61.54 73.64 61.79 73.49"/><polygon points="61.79 81.21 61.54 80.77 60.59 80.23 59.92 79.84 59.12 79.38 58.86 79.54 59.12 79.98 59.92 80.43 60.59 80.82 61.54 81.36 61.79 81.21"/><polygon points="61.75 77.34 61.5 76.9 60.59 76.38 60.33 76.53 60.58 76.97 61.5 77.49 61.75 77.34"/><polygon points="60.33 76.53 60.08 76.08 59.16 75.56 58.9 75.71 59.16 76.15 60.07 76.68 60.33 76.53"/><polygon points="61.59 73.75 61.59 74.38 61.59 76.32 61.59 76.95 61.85 77.39 62.1 77.24 62.1 76.61 62.1 74.67 62.1 74.04 61.85 73.6 61.59 73.75"/><polygon points="58.55 75.8 58.55 76.44 58.55 78.37 58.55 79 58.81 79.45 59.06 79.3 59.06 78.66 59.06 76.73 59.06 76.1 58.8 75.65 58.55 75.8"/><polygon points="65.87 75.83 65.62 75.38 64.67 74.84 63.99 74.46 63.2 74 62.94 74.15 63.2 74.59 63.99 75.05 64.67 75.44 65.62 75.98 65.87 75.83"/><polygon points="65.87 83.54 65.62 83.1 64.67 82.56 63.99 82.17 63.2 81.72 62.94 81.87 63.2 82.31 63.99 82.77 64.67 83.15 65.62 83.69 65.87 83.54"/><polygon points="65.83 79.67 65.58 79.23 64.67 78.71 64.41 78.86 64.66 79.3 65.58 79.82 65.83 79.67"/><polygon points="64.41 78.86 64.16 78.42 63.24 77.89 62.98 78.04 63.23 78.48 64.15 79.01 64.41 78.86"/><polygon points="62.63 74.34 62.63 74.97 62.63 76.91 62.63 77.54 62.89 77.99 63.14 77.84 63.14 77.2 63.14 75.27 63.14 74.64 62.89 74.19 62.63 74.34"/><polygon points="65.67 79.87 65.67 80.51 65.67 82.44 65.67 83.08 65.93 83.52 66.18 83.37 66.18 82.74 66.18 80.8 66.18 80.17 65.93 79.72 65.67 79.87"/><path d="m62.14,81.42c0-.16.11-.23.26-.15.14.08.26.28.26.44s-.11.23-.26.15c-.14-.08-.26-.28-.26-.44"/><polygon points="70.13 83.04 70.03 82.86 69.64 82.65 69.37 82.49 69.05 82.3 68.95 82.37 69.05 82.54 69.37 82.73 69.64 82.89 70.03 83.1 70.13 83.04"/><polygon points="70.13 86.16 70.03 85.98 69.64 85.76 69.37 85.61 69.05 85.42 68.95 85.48 69.05 85.66 69.37 85.85 69.64 86 70.03 86.22 70.13 86.16"/><polygon points="70.11 84.6 70.01 84.42 69.64 84.21 69.54 84.27 69.64 84.45 70.01 84.66 70.11 84.6"/><polygon points="69.54 84.27 69.44 84.09 69.06 83.88 68.96 83.94 69.06 84.12 69.43 84.33 69.54 84.27"/><polygon points="70.15 83.08 70.05 83.14 70.05 83.4 70.05 84.18 70.05 84.44 70.15 84.62 70.25 84.56 70.25 84.3 70.25 83.52 70.25 83.26 70.15 83.08"/><polygon points="68.92 83.91 68.82 83.98 68.82 84.23 68.82 85.01 68.82 85.27 68.92 85.45 69.03 85.39 69.03 85.13 69.03 84.35 69.03 84.09 68.92 83.91"/><polygon points="71.78 83.98 71.68 83.81 71.29 83.59 71.02 83.43 70.7 83.25 70.59 83.31 70.7 83.49 71.02 83.67 71.29 83.83 71.67 84.05 71.78 83.98"/><polygon points="71.78 87.1 71.68 86.92 71.29 86.71 71.02 86.55 70.7 86.37 70.59 86.43 70.7 86.6 71.02 86.79 71.29 86.95 71.67 87.16 71.78 87.1"/><polygon points="71.76 85.54 71.66 85.36 71.29 85.15 71.19 85.21 71.29 85.39 71.66 85.6 71.76 85.54"/><polygon points="71.19 85.21 71.08 85.03 70.71 84.82 70.61 84.88 70.71 85.06 71.08 85.27 71.19 85.21"/><polygon points="70.57 83.32 70.47 83.38 70.47 83.64 70.47 84.42 70.47 84.68 70.57 84.86 70.67 84.8 70.67 84.54 70.67 83.76 70.67 83.5 70.57 83.32"/><polygon points="71.8 85.56 71.7 85.62 71.7 85.88 71.7 86.66 71.7 86.91 71.8 87.09 71.9 87.03 71.9 86.78 71.9 86 71.9 85.74 71.8 85.56"/><polygon points="73.43 84.93 73.32 84.75 72.94 84.53 72.67 84.37 72.35 84.19 72.24 84.25 72.34 84.43 72.67 84.61 72.94 84.77 73.32 84.99 73.43 84.93"/><polygon points="73.43 88.05 73.32 87.87 72.94 87.65 72.67 87.49 72.35 87.31 72.24 87.37 72.34 87.55 72.67 87.73 72.94 87.89 73.32 88.11 73.43 88.05"/><polygon points="72.22 84.27 72.12 84.33 72.12 84.58 72.12 85.37 72.12 85.62 72.22 85.8 72.32 85.74 72.32 85.48 72.32 84.7 72.32 84.45 72.22 84.27"/><polygon points="73.45 84.97 73.34 85.03 73.34 85.29 73.34 86.07 73.34 86.32 73.45 86.5 73.55 86.44 73.55 86.19 73.55 85.4 73.55 85.15 73.45 84.97"/><polygon points="73.45 86.5 73.35 86.56 73.35 86.82 73.35 87.6 73.35 87.86 73.45 88.04 73.55 87.98 73.55 87.72 73.55 86.94 73.55 86.68 73.45 86.5"/><polygon points="72.22 85.8 72.12 85.86 72.12 86.12 72.12 86.9 72.12 87.15 72.22 87.33 72.32 87.27 72.32 87.02 72.32 86.23 72.32 85.98 72.22 85.8"/><path d="m71.92,87.19c0-.07.05-.09.1-.06.06.03.1.11.1.18s-.05.09-.1.06c-.06-.03-.1-.11-.1-.18"/><path d="m72.01,80.53c.34.2.65.53.88.92l.15-.09c-.26-.45-.62-.85-1.02-1.08-.4-.23-.76-.25-1.02-.09l.15.25c.22-.13.53-.12.88.08"/><path d="m72.01,81.01c.23.13.43.36.58.62l.15-.09c-.19-.32-.45-.61-.73-.77-.29-.16-.54-.18-.73-.07l.15.25c.15-.09.36-.08.58.05"/><path d="m72.01,81.49c.11.07.22.18.29.31l.15-.09c-.11-.19-.27-.36-.44-.46-.17-.1-.33-.11-.44-.04l.15.25c.08-.04.18-.04.29.03"/><path d="m72.16,81.88c-.04-.06-.09-.12-.15-.15-.06-.03-.11-.03-.15-.01l.15.25.15-.09Z"/><polygon points="48.97 73.17 47.11 72.11 47.11 71.91 48.97 72.97 48.97 73.17"/><path d="m47.82,70.8c0-.17-.07-.37-.19-.55l-.11.09c.08.12.13.25.13.36,0,.13-.04.22-.13.27-.13.07-.19.21-.19.39,0,.17.07.37.19.55l.11-.09c-.08-.12-.13-.25-.13-.36,0-.13.04-.22.13-.27.13-.07.19-.21.19-.39"/><path d="m48.35,71.1c0-.17-.07-.37-.19-.55l-.11.09c.08.12.13.25.13.36,0,.13-.04.22-.13.27-.13.07-.19.21-.19.39,0,.17.07.37.19.55l.11-.09c-.08-.12-.13-.25-.13-.37,0-.13.04-.22.13-.27.13-.07.19-.21.19-.39"/><path d="m48.87,71.4c0-.17-.07-.37-.19-.55l-.11.09c.08.12.13.25.13.36,0,.13-.04.22-.13.27-.13.07-.19.21-.19.39,0,.17.07.37.19.55l.11-.09c-.08-.12-.13-.25-.13-.37,0-.13.04-.22.13-.27.13-.07.19-.21.19-.39"/><polygon points="52.95 84.37 50.74 83.11 50.74 82.76 52.95 84.03 52.95 84.37"/><polygon points="69.86 94.04 67.65 92.77 67.65 92.43 69.86 93.69 69.86 94.04"/><polygon points="61.34 89.32 59.14 88.06 59.14 87.71 61.34 88.98 61.34 89.32"/><polygon points="61.34 88.21 59.14 86.94 59.14 86.6 61.34 87.86 61.34 88.21"/><polygon points="61.34 90.43 59.14 89.17 59.14 88.83 61.34 90.09 61.34 90.43"/><polygon points="68.6 94.43 68.6 91.86 68.9 92.03 68.9 94.6 68.6 94.43"/><path class="cls-4" d="m47.23,53.02s-.01-.05-.03-.06l-.06-.04v-.15l.15.09c.07.04.1.09.1.17v.36s0,.07,0,.07h0c.03-.07.14-.13.3-.04.19.11.27.27.27.51v.4s.01.05.03.06l.06.04v.15l-.15-.09c-.07-.04-.1-.09-.1-.17v-.44c0-.13-.02-.25-.15-.32-.12-.07-.22-.03-.25.08-.01.03-.01.07-.01.11v.43l-.15-.09v-1.1Z"/><path class="cls-4" d="m48.53,53.92c.22.13.34.39.34.63,0,.02,0,.07,0,.07l-.58-.33c0,.2.13.38.27.46.14.08.23.03.23.03l.07.16s-.12.07-.31-.04c-.25-.14-.42-.45-.42-.73,0-.29.17-.39.4-.26m.19.48c0-.16-.09-.29-.19-.34-.12-.07-.21-.04-.23.1l.42.24Z"/><path class="cls-4" d="m49.48,54.83l.03.02h0c0-.17-.05-.26-.18-.33-.04-.02-.13-.06-.13,0v.05l-.14-.08v-.09c0-.15.2-.06.27-.02.26.15.33.34.33.55v.39s.01.05.03.06l.06.04v.15l-.14-.08c-.07-.04-.1-.1-.1-.16,0-.03,0-.05,0-.05h0s-.06.14-.25.04c-.14-.08-.27-.25-.27-.44,0-.3.35-.12.48-.04m-.18.35c.13.07.21-.04.21-.17v-.03l-.04-.02c-.11-.07-.32-.18-.32,0,0,.08.05.18.15.23"/><path class="cls-4" d="m49.94,54.89l-.1-.06v-.14l.11.06v-.25l.15.09v.25l.19.11v.14l-.19-.11v.42c0,.18.11.27.17.3.02.01.04.02.04.02v.16s-.02,0-.05-.03c-.1-.06-.3-.21-.3-.52v-.44Z"/><path class="cls-4" d="m50.47,55.22s0-.03-.03-.04l-.05-.03v-.14l.11.06c.05.03.08.09.08.15v.45s0,.04.03.05l.05.03v.12l-.11-.06c-.05-.03-.08-.07-.08-.13v-.45Zm0-.42l.1.06v.14l-.1-.06v-.14Z"/><path class="cls-4" d="m50.8,55.36l-.08-.05v-.12l.08.05v-.19l.11.06v.19l.14.08v.12l-.14-.08v.31c0,.14.08.21.13.23.02,0,.03.01.03.01v.03s-.02.09-.04.07c-.08-.04-.23-.16-.23-.39v-.33Z"/><path class="cls-4" d="m46.73,52.69h0c0,.05-.02.09-.05.1-.02,0-.03.03-.03.06s.01.06.03.09c.03.05.05.11.05.16s-.02.09-.05.1c-.02,0-.03.03-.03.06s.01.06.03.09c.03.05.05.11.05.16s-.02.09-.05.1c-.02,0-.03.03-.03.06s.01.06.03.09c.02.02.02.05,0,.06-.01,0-.03,0-.05-.02-.03-.05-.05-.11-.05-.16s.02-.09.05-.1c.02,0,.03-.03.03-.06s0-.06-.03-.09c-.03-.05-.05-.11-.05-.16s.02-.09.05-.1c.02,0,.03-.03.03-.06s0-.06-.03-.09c-.03-.05-.05-.11-.05-.16s.02-.09.05-.1c.02,0,.03-.03.03-.06s0-.06-.03-.09c-.02-.02-.02-.05,0-.06.01-.01.03,0,.05.02.03.05.05.11.05.16"/><path class="cls-4" d="m46.87,52.77h0c0,.05-.02.09-.05.1-.02,0-.03.03-.03.06s.01.06.03.09c.03.05.05.11.05.16s-.02.09-.05.1c-.02,0-.03.03-.03.06s.01.06.03.09c.03.05.05.11.05.16s-.02.09-.05.1c-.02,0-.03.03-.03.06s.01.06.03.09c.02.02.02.05,0,.06-.01,0-.03,0-.05-.02-.03-.05-.05-.11-.05-.16s.02-.09.05-.1c.02,0,.03-.03.03-.06s0-.06-.03-.09c-.03-.05-.05-.11-.05-.16s.02-.09.05-.1c.02,0,.03-.03.03-.06s0-.06-.03-.09c-.03-.05-.05-.11-.05-.16s.02-.09.05-.1c.02,0,.03-.03.03-.06s0-.06-.03-.09c-.02-.02-.02-.05,0-.06.01-.01.03,0,.05.02.03.05.05.11.05.16"/><path class="cls-4" d="m47,52.85h0c0,.05-.02.09-.05.1-.02,0-.03.03-.03.06s.01.06.03.09c.03.05.05.11.05.16s-.02.09-.05.1c-.02,0-.03.03-.03.06s.01.06.03.09c.03.05.05.11.05.16s-.02.09-.05.1c-.02,0-.03.03-.03.06s.01.06.03.09c.02.02.02.05,0,.06-.01.01-.03,0-.05-.02-.03-.05-.05-.11-.05-.16s.02-.09.05-.1c.02,0,.03-.03.03-.06s0-.06-.03-.09c-.03-.05-.05-.11-.05-.16s.02-.09.05-.1c.02,0,.03-.03.03-.06s0-.06-.03-.09c-.03-.05-.05-.11-.05-.16s.02-.09.05-.1c.02,0,.03-.03.03-.06s0-.06-.03-.09c-.02-.02-.02-.05,0-.06.01-.01.03,0,.05.02.03.05.05.11.05.16"/><polygon points="48.84 68.07 48.76 67.86 48.49 67.89 48.17 67.49 48.49 67.46 48.76 67.81 48.84 67.69 48.65 67.45 48.9 67.42 48.82 67.21 48.58 67.24 48.58 66.95 48.42 66.86 48.42 67.25 48.09 67.28 48.09 66.82 48.38 66.8 48.31 66.59 48.09 66.6 48.09 66.33 47.92 66.24 47.92 66.51 47.7 66.24 47.63 66.37 47.92 66.73 47.92 67.19 47.59 66.78 47.59 66.39 47.43 66.3 47.43 66.58 47.19 66.28 47.11 66.4 47.36 66.71 47.17 66.73 47.25 66.94 47.52 66.91 47.84 67.31 47.52 67.34 47.25 66.99 47.17 67.11 47.36 67.35 47.11 67.38 47.19 67.59 47.43 67.56 47.43 67.85 47.59 67.94 47.59 67.55 47.92 67.52 47.92 67.98 47.63 68 47.7 68.21 47.92 68.2 47.92 68.47 48.09 68.56 48.09 68.29 48.31 68.56 48.38 68.43 48.09 68.07 48.09 67.61 48.42 68.02 48.42 68.41 48.58 68.5 48.58 68.22 48.82 68.52 48.9 68.4 48.65 68.09 48.84 68.07"/><polyline class="cls-1" points="42.58 86.34 89.03 113.18 89.03 59.49 42.58 32.68 42.58 86.34"/><path class="cls-1" d="m81.46,100.45c.22.13.39.02.39-.23"/><line class="cls-1" x1="81.45" y1="100.49" x2="80.7" y2="100.05"/><line class="cls-1" x1="49.76" y1="46.46" x2="49.76" y2="45.58"/><path class="cls-1" d="m50.18,45.34c-.22-.13-.39-.02-.39.23"/><line class="cls-1" x1="50.16" y1="45.37" x2="81.45" y2="63.42"/><path class="cls-1" d="m81.86,64.1c0-.25-.18-.56-.39-.68"/><line class="cls-1" x1="81.85" y1="64.13" x2="81.85" y2="100.25"/><path class="cls-1" d="m95.67,110.26c.05-.03.09-.09.08-.18"/><path class="cls-1" d="m48.59,28.38c-.08-.04-.15-.05-.2-.02"/><line class="cls-1" x1="95.46" y1="55.46" x2="48.57" y2="28.38"/><path class="cls-1" d="m95.75,55.94c0-.17-.12-.39-.28-.48"/><line class="cls-1" x1="95.73" y1="110.1" x2="95.73" y2="55.97"/><polyline class="cls-1" points="80.94 99.91 81.55 100.28 81.78 100.15"/><path class="cls-1" d="m89.08,113.16c0,.08.03.15.08.18"/><path class="cls-1" d="m42.6,86.31c0,.08.03.15.08.18"/><path class="cls-1" d="m81.56,100.28c-.06.04-.1.12-.11.19"/><polyline class="cls-1" points="50.23 45.44 50 45.58 50 46.32"/><path class="cls-1" d="m42.48,32.49c0,.06.04.11.11.16"/><path class="cls-1" d="m42.48,86.15c0,.06.04.11.11.16"/><path class="cls-1" d="m49.77,45.55c.06.03.15.03.21,0"/><polyline class="cls-1" points="48.57 28.38 42.85 32.17 89.3 59.02 95.46 55.46"/><path class="cls-1" d="m42.86,32.18c-.15.09-.26.3-.27.47"/><path class="cls-1" d="m89.34,59.03c-.15.09-.26.3-.27.47"/><path class="cls-1" d="m50.18,45.35s.01.06.03.07"/><path class="cls-1" d="m81.46,63.4s.01.06.03.07"/><path class="cls-1" d="m50.09,45.39c-.05.03-.08.09-.08.18"/><path class="cls-1" d="m42.86,32.18c-.08-.04-.15-.05-.2-.01"/><polyline class="cls-1" points="95.73 55.97 89.6 59.52 89.6 113.18 95.73 110.1"/><path class="cls-1" d="m89.07,113.15c.15.08.39.09.54,0"/><path class="cls-1" d="m89.07,59.49c.15.08.39.09.54,0"/><path class="cls-1" d="m81.82,100.17s.02.04.04.06"/><path class="cls-1" d="m81.82,64.04s.02.04.04.06"/><path class="cls-1" d="m81.56,100.28c.07.04.14.05.19.02"/><path class="cls-1" d="m89.52,113.34c.05-.03.09-.09.09-.18"/><path class="cls-1" d="m89.62,59.5c0-.17-.12-.39-.28-.48"/><line class="cls-1" x1="42.65" y1="86.54" x2="89.13" y2="113.35"/><line class="cls-1" x1="42.45" y1="32.51" x2="42.45" y2="86.17"/><path class="cls-1" d="m42.48,86.15c0,.14.07.27.19.34"/><line class="cls-1" x1="81.48" y1="63.52" x2="50.2" y2="45.44"/><line class="cls-1" x1="42.62" y1="32.17" x2="48.37" y2="28.38"/><path class="cls-1" d="m42.65,32.17c-.11.07-.17.19-.17.32"/><polyline class="cls-1" points="50.2 45.44 50.16 45.41 50.13 45.41 50.1 45.41 50.06 45.41"/><line class="cls-1" x1="81.78" y1="100.18" x2="81.78" y2="64.06"/><line class="cls-1" x1="89.5" y1="113.39" x2="95.66" y2="110.31"/><path class="cls-1" d="m89.16,113.33c.11.07.25.07.37.01"/><polyline class="cls-1" points="81.75 100.32 81.75 100.28 81.78 100.28 81.78 100.25 81.78 100.22 81.78 100.18"/><polyline class="cls-1" points="81.78 64.06 81.78 64.03 81.78 63.99 81.78 63.96 81.78 63.89 81.75 63.86 81.75 63.82 81.72 63.79 81.68 63.76 81.68 63.69 81.65 63.65 81.61 63.62 81.58 63.59 81.58 63.55 81.55 63.55 81.51 63.52 81.48 63.52"/><line class="cls-1" x1="97.66" y1="78.42" x2="97.66" y2="78.11"/><path class="cls-1" d="m97.49,77.89c.06.07.12.14.19.19"/><line class="cls-1" x1="96.04" y1="72.83" x2="96.04" y2="72.49"/><path class="cls-1" d="m95.89,72.32c.05.06.1.1.16.14"/><path class="cls-1" d="m96.84,63.18c-.3-.03-.55.11-.68.37"/><line class="cls-1" x1="97.66" y1="62.74" x2="97.66" y2="62.44"/><path class="cls-1" d="m97.49,62.21c.06.07.12.14.19.19"/><path class="cls-1" d="m96.28,57.11s-.03-.05-.04-.08"/><polyline class="cls-1" points="96.24 57.02 96.21 57.02 96.17 56.99 96.14 56.95 96.1 56.92 96.07 56.88 96.04 56.85 96.04 56.82"/><path class="cls-1" d="m96.04,56.79c-.09-.17-.18-.34-.28-.51"/><path class="cls-1" d="m94.7,54.5c-.22-.35-.45-.69-.68-1.03"/><polyline class="cls-1" points="94 53.47 94 53.43 93.97 53.4 93.94 53.36 93.94 53.33 93.94 53.3 93.9 53.26 93.9 53.23 93.9 53.16"/><path class="cls-1" d="m93.9,53.17s-.04-.06-.06-.09"/><path class="cls-1" d="m90.82,50.54c.02.1.05.21.1.32"/><line class="cls-1" x1="90.79" y1="50.55" x2="90.52" y2="50.38"/><path class="cls-1" d="m87.44,48.57c.02.1.05.21.1.32"/><line class="cls-1" x1="87.4" y1="48.59" x2="87.1" y2="48.42"/><path class="cls-1" d="m84.02,46.61c.02.1.05.21.1.32"/><line class="cls-1" x1="84.02" y1="46.63" x2="83.71" y2="46.49"/><path class="cls-1" d="m80.63,44.65c.02.1.05.21.1.32"/><line class="cls-1" x1="80.6" y1="44.7" x2="80.33" y2="44.53"/><path class="cls-1" d="m77.25,42.72c.02.1.05.21.1.32"/><line class="cls-1" x1="77.21" y1="42.73" x2="76.98" y2="42.56"/><line class="cls-1" x1="76.98" y1="42.9" x2="76.98" y2="42.56"/><line class="cls-1" x1="72.98" y1="42.5" x2="76.37" y2="40.7"/><path class="cls-1" d="m76.35,40.65c-.32.05-.64.11-.95.19"/><line class="cls-1" x1="75.42" y1="40.87" x2="72.68" y2="42.29"/><line class="cls-1" x1="72.47" y1="42.19" x2="72.85" y2="41.99"/><path class="cls-1" d="m72.88,41.99c-.11.05-.22.1-.32.16"/><polyline class="cls-1" points="75.42 40.87 75.45 40.87 75.52 40.84"/><path class="cls-1" d="m76.54,40.61c-.06,0-.11.03-.17.05"/><path class="cls-1" d="m99,59.78c-.41-.99-.86-1.97-1.35-2.93"/><line class="cls-1" x1="97.63" y1="56.88" x2="95.73" y2="57.9"/><line class="cls-1" x1="95.26" y1="55.36" x2="95.29" y2="55.33"/><path class="cls-1" d="m95.34,55.3c-.11-.19-.22-.37-.33-.55"/><line class="cls-1" x1="94.95" y1="54.75" x2="94.58" y2="54.95"/><line class="cls-1" x1="92.18" y1="53.57" x2="94.68" y2="52.01"/><path class="cls-1" d="m94.7,51.98c-.31-.44-.63-.87-.95-1.29"/><line class="cls-1" x1="93.73" y1="50.72" x2="90.42" y2="52.55"/><line class="cls-1" x1="95.73" y1="61.76" x2="98.98" y2="59.83"/><polyline class="cls-1" points="97.63 56.88 97.66 56.85 97.69 56.85 97.73 56.82 97.76 56.82 97.8 56.78 97.83 56.75 97.86 56.75 97.9 56.72"/><path class="cls-1" d="m98.99,59.81c.17-.1.26-.19.24-.23"/><polyline class="cls-1" points="94.68 52.01 94.72 52.01 94.75 51.98 94.78 51.98 94.82 51.94 94.85 51.94 94.89 51.91 94.92 51.91 94.92 51.87 94.95 51.87 94.99 51.87"/><path class="cls-1" d="m94.08,50.63s-.15,0-.32.09"/><polyline class="cls-1" points="96.34 57.09 96.31 57.09 96.31 57.05 96.27 57.05 96.24 57.02"/><polyline class="cls-1" points="93.9 53.16 93.9 53.13 93.9 53.09 93.9 53.06"/><path class="cls-1" d="m97.69,62.75c.1-.06.14-.14.09-.22"/><polyline class="cls-1" points="97.76 62.54 97.73 62.5 97.73 62.47 97.69 62.44 97.66 62.44"/><line class="cls-1" x1="95.73" y1="63.79" x2="97.66" y2="62.74"/><path class="cls-1" d="m76.96,42.56s0-.03,0-.04"/><polyline class="cls-1" points="77.21 42.73 77.21 42.7 77.21 42.63 77.18 42.63 77.18 42.6"/><path class="cls-1" d="m77.2,42.57c-.04-.08-.14-.09-.24-.03"/><line class="cls-1" x1="76.94" y1="42.56" x2="75.05" y2="43.68"/><line class="cls-1" x1="80.33" y1="44.53" x2="78.43" y2="45.61"/><line class="cls-1" x1="83.71" y1="46.46" x2="81.82" y2="47.57"/><line class="cls-1" x1="87.1" y1="48.42" x2="85.2" y2="49.54"/><line class="cls-1" x1="90.52" y1="50.38" x2="88.62" y2="51.5"/><polyline class="cls-1" points="90.04 52.35 93.43 50.45 92.75 50.05 89.23 51.87"/><polyline class="cls-1" points="87.57 50.93 90.92 49 89.33 48.08 85.85 49.91"/><polyline class="cls-1" points="84.19 48.96 87.54 47.07 85.95 46.12 82.43 47.95"/><polyline class="cls-1" points="80.8 47 84.15 45.1 82.56 44.19 79.04 45.98"/><polyline class="cls-1" points="77.42 45.04 80.73 43.14 79.18 42.23 75.66 44.02"/><polyline class="cls-1" points="74 43.07 77.35 41.18 76.64 40.77 73.19 42.6"/><path class="cls-1" d="m81.14,43.07c-.1-.06-.24-.05-.38.03"/><line class="cls-1" x1="81.14" y1="43.07" x2="81.14" y2="43.07"/><line class="cls-1" x1="79.56" y1="42.17" x2="79.56" y2="42.17"/><path class="cls-1" d="m79.56,42.17c-.1-.06-.24-.05-.38.03"/><path class="cls-1" d="m84.53,45.04c-.1-.06-.24-.05-.38.03"/><line class="cls-1" x1="84.53" y1="45.04" x2="84.53" y2="45.04"/><line class="cls-1" x1="82.95" y1="44.13" x2="82.95" y2="44.13"/><path class="cls-1" d="m82.95,44.13c-.1-.06-.24-.05-.38.03"/><path class="cls-1" d="m77.76,41.11c-.1-.06-.24-.05-.38.03"/><line class="cls-1" x1="77.76" y1="41.11" x2="77.76" y2="41.11"/><path class="cls-1" d="m77.05,40.71c-.1-.06-.24-.05-.38.03"/><polyline class="cls-1" points="80.6 44.7 80.6 44.63 80.6 44.6 80.6 44.56 80.57 44.56"/><path class="cls-1" d="m80.59,44.53c-.04-.08-.14-.09-.24-.03"/><polyline class="cls-1" points="84.02 46.63 83.98 46.59 83.98 46.56 83.98 46.53 83.95 46.49"/><path class="cls-1" d="m83.97,46.49c-.04-.08-.14-.09-.24-.03"/><path class="cls-1" d="m76.67,40.74c-.1-.06-.2-.09-.29-.08"/><polyline class="cls-1" points="77.18 42.6 77.89 42.16 77.89 41.82"/><path class="cls-1" d="m77.91,41.81c0-.17-.12-.24-.26-.16"/><line class="cls-1" x1="77.62" y1="41.65" x2="74.57" y2="43.41"/><path class="cls-1" d="m77.91,42.12c0,.16.05.35.13.53"/><polyline class="cls-1" points="83.95 46.49 84.7 46.05 84.7 45.75"/><path class="cls-1" d="m84.71,45.74c0-.17-.12-.24-.26-.16"/><line class="cls-1" x1="84.42" y1="45.58" x2="81.38" y2="47.34"/><path class="cls-1" d="m84.68,46.04c0,.16.05.35.13.53"/><polyline class="cls-1" points="80.57 44.56 81.31 44.12 81.31 43.78"/><path class="cls-1" d="m81.29,43.77c0-.17-.12-.24-.26-.16"/><line class="cls-1" x1="81.04" y1="43.61" x2="77.96" y2="45.37"/><path class="cls-1" d="m81.3,44.08c0,.16.05.35.13.53"/><path class="cls-1" d="m84.69,46.05c.07-.04.11-.1.11-.15"/><path class="cls-1" d="m84.69,45.71c.07-.04.11-.1.11-.15"/><path class="cls-1" d="m84.43,45.54c.01-.18-.11-.39-.27-.48"/><path class="cls-1" d="m82.58,44.16c-.07-.04-.13-.05-.18-.03"/><path class="cls-1" d="m81.3,44.09c.07-.04.11-.1.11-.15"/><path class="cls-1" d="m81.3,43.75c.07-.04.11-.1.11-.15"/><path class="cls-1" d="m81.04,43.61c.01-.18-.11-.39-.27-.48"/><path class="cls-1" d="m79.17,42.19c-.07-.04-.13-.05-.18-.03"/><path class="cls-1" d="m77.92,42.12c.07-.04.11-.1.11-.15"/><path class="cls-1" d="m77.92,41.79c.07-.04.11-.1.11-.15"/><path class="cls-1" d="m77.66,41.65c.01-.18-.11-.39-.27-.48"/><line class="cls-1" x1="99.08" y1="64.33" x2="99.08" y2="63.08"/><path class="cls-1" d="m99.07,64.32c.14-.08.22-.2.22-.31"/><line class="cls-1" x1="99.29" y1="62.77" x2="99.29" y2="62.77"/><path class="cls-1" d="m99.07,63.08c.14-.08.22-.19.22-.31"/><path class="cls-1" d="m99.07,75.46c.14-.08.22-.2.22-.31"/><line class="cls-1" x1="99.08" y1="76.72" x2="99.08" y2="75.47"/><path class="cls-1" d="m99.07,76.71c.14-.09.22-.2.22-.31"/><line class="cls-1" x1="99.29" y1="76.39" x2="99.29" y2="76.39"/><path class="cls-1" d="m91.33,48.96c-.1-.06-.24-.05-.38.03"/><line class="cls-1" x1="91.33" y1="48.96" x2="91.33" y2="48.96"/><line class="cls-1" x1="89.75" y1="48.06" x2="89.75" y2="48.06"/><path class="cls-1" d="m89.75,48.06c-.1-.06-.24-.05-.38.03"/><path class="cls-1" d="m87.91,47c-.1-.06-.24-.05-.38.03"/><line class="cls-1" x1="87.91" y1="47" x2="87.91" y2="47"/><line class="cls-1" x1="86.37" y1="46.09" x2="86.37" y2="46.09"/><path class="cls-1" d="m86.37,46.09c-.1-.06-.24-.05-.38.03"/><path class="cls-1" d="m93.84,50.42c-.1-.06-.24-.05-.38.03"/><line class="cls-1" x1="93.14" y1="50.02" x2="93.14" y2="50.02"/><path class="cls-1" d="m93.14,50.02c-.1-.06-.24-.05-.38.03"/><line class="cls-1" x1="97.32" y1="71.24" x2="97.32" y2="71.2"/><path class="cls-1" d="m97.34,71.22c.06-.03.1-.07.14-.12"/><line class="cls-1" x1="97.32" y1="67.11" x2="97.32" y2="66.57"/><path class="cls-1" d="m97.34,67.07c.14-.08.22-.2.22-.31"/><line class="cls-1" x1="97.56" y1="66.75" x2="97.56" y2="66.75"/><line class="cls-1" x1="97.56" y1="66.22" x2="97.56" y2="66.22"/><path class="cls-1" d="m97.34,66.53c.14-.08.22-.19.22-.31"/><polyline class="cls-1" points="90.76 50.42 90.76 50.45 90.79 50.49 90.79 50.52 90.79 50.55"/><path class="cls-1" d="m90.78,50.42c-.04-.08-.14-.09-.24-.03"/><polyline class="cls-1" points="87.37 48.45 87.37 48.49 87.37 48.52 87.4 48.56 87.4 48.59"/><path class="cls-1" d="m87.36,48.46c-.04-.08-.14-.09-.24-.03"/><polyline class="cls-1" points="95.73 63.25 99.08 61.05 99.08 60.2 95.73 62.23"/><line class="cls-1" x1="95.73" y1="66.46" x2="99.08" y2="64.33"/><line class="cls-1" x1="99.08" y1="63.08" x2="95.73" y2="64.98"/><polyline class="cls-1" points="95.73 71.98 98.2 70.36 98.2 68.46 95.73 69.92"/><line class="cls-1" x1="95.73" y1="78.92" x2="99.08" y2="76.72"/><line class="cls-1" x1="99.08" y1="75.47" x2="95.73" y2="77.43"/><polyline class="cls-1" points="95.73 81.67 99.08 79.6 99.08 78.79 95.73 80.65"/><path class="cls-1" d="m99.07,60.19c.14-.08.22-.2.22-.31"/><path class="cls-1" d="m99.07,61c.14-.09.22-.2.22-.31"/><line class="cls-1" x1="99.29" y1="60.68" x2="99.29" y2="60.68"/><path class="cls-1" d="m98.22,68.45c.14-.08.22-.2.22-.31"/><path class="cls-1" d="m98.22,70.35c.14-.08.22-.2.22-.31"/><path class="cls-1" d="m99.07,79.59c.14-.08.22-.2.22-.31"/><line class="cls-1" x1="99.29" y1="78.44" x2="99.29" y2="78.44"/><path class="cls-1" d="m99.07,78.75c.14-.08.22-.19.22-.31"/><line class="cls-1" x1="95.73" y1="79.46" x2="97.66" y2="78.42"/><path class="cls-1" d="m96.93,81.75c.78-.49,1.47-1.12,2.07-1.88"/><line class="cls-1" x1="98.98" y1="79.9" x2="95.73" y2="81.94"/><path class="cls-1" d="m93.77,50.72c-.09-.12-.19-.21-.3-.27"/><path class="cls-1" d="m99.08,60.19c0-.12-.03-.26-.08-.39"/><path class="cls-1" d="m98.98,79.89c.05-.07.08-.17.08-.29"/><path class="cls-1" d="m98.99,79.89c.05-.03.09-.07.13-.12"/><line class="cls-1" x1="95.73" y1="72.96" x2="96.04" y2="72.83"/><line class="cls-1" x1="97.49" y1="73.91" x2="95.73" y2="74.93"/><polyline class="cls-1" points="95.73 76.11 98.51 74.52 97.49 73.91"/><path class="cls-1" d="m95.77,73.83c.1,0,.21-.02.32-.08"/><path class="cls-1" d="m96.08,72.06c-.11.07-.22.18-.32.3"/><line class="cls-1" x1="96.07" y1="72.08" x2="97.32" y2="71.24"/><polyline class="cls-1" points="95.73 74.56 97.32 73.64 97.32 73.1 96.07 73.78"/><path class="cls-1" d="m97.35,73.61c0,.11.09.25.18.31"/><path class="cls-1" d="m95.77,67.29c.1,0,.21-.02.32-.08"/><line class="cls-1" x1="95.73" y1="68.02" x2="97.32" y2="67.11"/><line class="cls-1" x1="97.32" y1="66.57" x2="96.07" y2="67.24"/><line class="cls-1" x1="97.49" y1="67.38" x2="95.73" y2="68.39"/><polyline class="cls-1" points="95.73 68.6 97.66 67.48 97.49 67.38"/><path class="cls-1" d="m97.35,67.08c0,.11.09.25.18.31"/><path class="cls-1" d="m99.07,75.46c0-.36-.24-.8-.57-.97"/><path class="cls-1" d="m98.89,74.46c-.1-.06-.24-.05-.38.03"/><path class="cls-1" d="m97.91,73.88c-.1-.06-.24-.05-.38.03"/><line class="cls-1" x1="97.91" y1="73.88" x2="97.91" y2="73.88"/><path class="cls-1" d="m97.34,73.6c.14-.08.22-.2.22-.31"/><line class="cls-1" x1="97.56" y1="73.29" x2="97.56" y2="73.29"/><line class="cls-1" x1="97.56" y1="72.76" x2="97.56" y2="72.76"/><path class="cls-1" d="m97.34,73.07c.14-.08.22-.19.22-.31"/><path class="cls-1" d="m98.08,70.7c.1-.06.15-.19.15-.35"/><path class="cls-1" d="m98.23,68.45c0-.36-.24-.8-.57-.97"/><path class="cls-1" d="m98.04,67.45c-.1-.06-.24-.05-.38.03"/><path class="cls-1" d="m97.91,67.35c-.1-.06-.24-.05-.38.03"/><line class="cls-1" x1="97.91" y1="67.35" x2="97.91" y2="67.35"/><path class="cls-1" d="m98.92,64.68c.1-.06.15-.19.15-.35"/><line class="cls-1" x1="96.07" y1="72.52" x2="96.04" y2="72.49"/><path class="cls-1" d="m96.06,72.81c.13-.07.15-.19.04-.28"/><polyline class="cls-1" points="97.76 78.21 97.73 78.18 97.73 78.14 97.69 78.14 97.66 78.11"/><path class="cls-1" d="m97.69,78.42c.1-.06.14-.14.09-.22"/><path class="cls-1" d="m98.81,78.25c.14-.08.14-.22,0-.31"/><polyline class="cls-1" points="98.78 77.98 98.51 77.81 97.76 78.21"/><line class="cls-1" x1="95.73" y1="80.01" x2="98.78" y2="78.28"/><path class="cls-1" d="m98.17,77.44c.1.15.23.27.36.34"/><path class="cls-1" d="m95.76,73.29s.03-.01.04-.02"/><line class="cls-1" x1="95.73" y1="73.27" x2="95.8" y2="73.27"/><path class="cls-1" d="m97.05,72.57c.15-.08.14-.22,0-.31"/><polyline class="cls-1" points="97.05 72.29 96.81 72.15 96.07 72.52"/><line class="cls-1" x1="95.8" y1="73.27" x2="97.05" y2="72.59"/><path class="cls-1" d="m96.56,71.88c.08.11.18.2.28.26"/><line class="cls-1" x1="95.8" y1="66.77" x2="95.77" y2="66.74"/><path class="cls-1" d="m95.76,66.76s.03-.01.04-.02"/><line class="cls-1" x1="97.05" y1="66.06" x2="95.8" y2="66.77"/><path class="cls-1" d="m97.05,66.07c.1-.06.14-.15.08-.23"/><path class="cls-1" d="m98.81,62.58c.14-.08.14-.22,0-.31"/><polyline class="cls-1" points="98.78 62.3 98.51 62.13 97.76 62.54"/><line class="cls-1" x1="95.73" y1="64.3" x2="98.78" y2="62.61"/><path class="cls-1" d="m98.17,61.76c.1.15.23.27.36.34"/><polyline class="cls-1" points="91.47 49.67 91.47 49.98 90.76 50.42"/><path class="cls-1" d="m91.48,49.66c0-.17-.12-.24-.26-.16"/><line class="cls-1" x1="91.2" y1="49.5" x2="88.15" y2="51.23"/><path class="cls-1" d="m91.49,49.97c0,.16.05.35.13.53"/><polyline class="cls-1" points="88.08 47.71 88.08 48.01 87.37 48.45"/><path class="cls-1" d="m88.1,47.7c0-.17-.12-.24-.26-.16"/><line class="cls-1" x1="87.81" y1="47.54" x2="84.76" y2="49.27"/><path class="cls-1" d="m88.1,48.01c0,.16.05.35.13.53"/><line class="cls-2" x1="98.98" y1="76.86" x2="98.98" y2="76.86"/><path class="cls-1" d="m99.01,76.86s.07-.09.07-.17"/><path class="cls-1" d="m98.69,77.79s-.11-.02-.18.01"/><path class="cls-1" d="m98.99,77.96s-.11-.02-.18.01"/><path class="cls-1" d="m99.09,78.75c.01-.18-.11-.4-.27-.48"/><path class="cls-1" d="m85.97,46.12c-.07-.04-.13-.05-.18-.03"/><path class="cls-1" d="m87.85,47.5c.01-.18-.11-.39-.27-.48"/><path class="cls-1" d="m88.11,47.68c.07-.04.11-.1.11-.15"/><path class="cls-1" d="m88.11,48.01c.07-.04.11-.1.11-.15"/><path class="cls-1" d="m89.36,48.08c-.07-.04-.13-.05-.18-.03"/><path class="cls-1" d="m91.23,49.47c.01-.18-.11-.39-.27-.48"/><path class="cls-1" d="m91.49,49.64c.07-.04.11-.1.11-.15"/><path class="cls-1" d="m91.49,49.98c.07-.04.11-.1.11-.15"/><path class="cls-1" d="m92.74,50.05c-.07-.04-.13-.05-.18-.03"/><line class="cls-2" x1="98.98" y1="61.18" x2="98.98" y2="61.18"/><path class="cls-1" d="m99.01,61.19s.07-.09.07-.17"/><path class="cls-1" d="m98.69,62.12s-.11-.02-.18.01"/><path class="cls-1" d="m98.99,62.29s-.11-.02-.18.01"/><path class="cls-1" d="m99.09,63.08c.01-.18-.11-.4-.27-.48"/><path class="cls-1" d="m96.99,72.14s-.11-.02-.18.01"/><path class="cls-1" d="m97.23,72.27s-.11-.02-.18.01"/><path class="cls-1" d="m97.32,73.06c.01-.18-.11-.4-.27-.48"/><path class="cls-1" d="m96.07,73.74c.01-.18-.11-.4-.27-.48"/><line class="cls-2" x1="97.22" y1="71.37" x2="97.22" y2="71.37"/><path class="cls-1" d="m97.25,71.38s.07-.09.07-.17"/><path class="cls-1" d="m96,72.22s.07-.09.07-.17"/><path class="cls-1" d="m96.07,67.21c.01-.18-.11-.4-.27-.48"/><path class="cls-1" d="m97.32,66.53c.01-.18-.11-.4-.27-.48"/><line class="cls-1" x1="76.98" y1="42.9" x2="75.28" y2="43.82"/><line class="cls-1" x1="96.04" y1="56.82" x2="96.71" y2="56.44"/><path class="cls-1" d="m96.74,56.42c-.62-1.16-1.31-2.29-2.04-3.37"/><line class="cls-1" x1="94.65" y1="53.09" x2="94" y2="53.47"/><line class="cls-1" x1="95.73" y1="57.39" x2="97.22" y2="56.61"/><line class="cls-1" x1="94.72" y1="52.55" x2="92.65" y2="53.84"/><line class="cls-1" x1="94.21" y1="54.75" x2="94.58" y2="54.55"/><polyline class="cls-1" points="97.02 56.72 96.98 56.72 96.95 56.72 96.92 56.68 96.88 56.65 96.85 56.65 96.85 56.61 96.81 56.61 96.78 56.58 96.78 56.55 96.75 56.51 96.71 56.48 96.71 56.44"/><polyline class="cls-1" points="94.65 53.09 94.65 53.06 94.61 53.03 94.61 52.99 94.58 52.96 94.58 52.92 94.58 52.89 94.55 52.86 94.55 52.82 94.55 52.79 94.55 52.75 94.55 52.72 94.55 52.69 94.55 52.65 94.55 52.62"/><path class="cls-1" d="m72.87,41.99s0,0-.01,0"/><path class="cls-1" d="m73.13,42.06c-.09-.08-.19-.1-.27-.07"/><line class="cls-2" x1="75.39" y1="40.91" x2="75.39" y2="40.91"/><path class="cls-1" d="m75.42,40.87s-.02,0-.03.01"/><path class="cls-1" d="m94.98,54.76c-.1-.18-.28-.26-.39-.2"/><path class="cls-1" d="m94.58,54.56s0,0,0,0"/><path class="cls-1" d="m95.1,54.7s-.05.02-.14.07"/><path class="cls-1" d="m94.73,52.49s0,0,0,0"/><path class="cls-1" d="m94.74,52.49c.06-.04.1-.12.09-.21,0-.1-.04-.21-.11-.29"/><path class="cls-1" d="m95.44,55.25s-.05.02-.14.07"/><path class="cls-1" d="m95.36,55.38s-.02-.05-.04-.07"/><path class="cls-1" d="m94.78,53.03s-.05,0-.11.03"/><path class="cls-1" d="m96.71,56.44c.06-.04.1-.06.09-.06"/><path class="cls-1" d="m97.22,56.63s0,0,0,0"/><path class="cls-1" d="m97.64,56.87c-.05-.1-.12-.18-.2-.23-.08-.05-.16-.05-.22-.02"/><line class="cls-1" x1="72.54" y1="42.16" x2="72.47" y2="42.19"/><polyline class="cls-1" points="76.54 40.63 76.27 40.67 76.03 40.74 75.76 40.77 75.52 40.84"/><polyline class="cls-1" points="99.22 59.59 99.08 59.22 98.91 58.85 98.74 58.51 98.61 58.14 98.44 57.8 98.27 57.43 98.07 57.09 97.9 56.71"/><polyline class="cls-1" points="94.99 51.87 94.75 51.57 94.51 51.26 94.28 50.93 94.07 50.62"/><line class="cls-1" x1="79.55" y1="42.19" x2="81.14" y2="43.11"/><line class="cls-1" x1="82.93" y1="44.16" x2="84.53" y2="45.07"/><line class="cls-1" x1="77.04" y1="40.74" x2="77.72" y2="41.14"/><path class="cls-1" d="m77.05,40.71c-.15-.09-.33-.12-.51-.1"/><polyline class="cls-1" points="84.53 45.07 84.56 45.07 84.59 45.1 84.63 45.14 84.63 45.17 84.66 45.17 84.7 45.2 84.7 45.24 84.73 45.27 84.76 45.31 84.76 45.34 84.76 45.41 84.8 45.44 84.8 45.48 84.8 45.51 84.8 45.54 84.8 45.58 84.8 45.92 84.8 45.95 84.8 45.98 84.8 46.02 84.8 46.05 84.83 46.09 84.83 46.12 84.83 46.15 84.83 46.19 84.86 46.22 84.86 46.29 84.86 46.32 84.9 46.36 84.9 46.39 84.93 46.42 84.93 46.49 84.97 46.53"/><polyline class="cls-1" points="78.94 45.92 82.36 44.16 82.43 44.12 82.49 44.09 82.56 44.09 82.63 44.09 82.7 44.09 82.77 44.09 82.83 44.09 82.9 44.12"/><polyline class="cls-1" points="81.14 43.11 81.17 43.11 81.17 43.14 81.21 43.17 81.24 43.21 81.28 43.24 81.31 43.28 81.34 43.31 81.34 43.38 81.38 43.41 81.38 43.44 81.38 43.48 81.41 43.51 81.41 43.55 81.41 43.58 81.41 43.61 81.41 43.95 81.41 43.99 81.41 44.02 81.41 44.05 81.41 44.09 81.41 44.12 81.45 44.16 81.45 44.19 81.45 44.22 81.45 44.26 81.48 44.32 81.48 44.36 81.51 44.39 81.51 44.43 81.55 44.49 81.55 44.53 81.58 44.56"/><polyline class="cls-1" points="75.55 43.95 78.97 42.19 79.04 42.16 79.11 42.12 79.18 42.12 79.24 42.12 79.31 42.12 79.38 42.12 79.45 42.16 79.48 42.16"/><polyline class="cls-1" points="77.72 41.14 77.76 41.18 77.79 41.18 77.82 41.21 77.86 41.24 77.89 41.28 77.89 41.31 77.92 41.35 77.96 41.38 77.96 41.41 77.96 41.45 77.99 41.48 77.99 41.51 77.99 41.55 78.03 41.58 78.03 41.62 78.03 41.65 78.03 41.99 78.03 42.02 78.03 42.06 78.03 42.09 78.03 42.12 78.03 42.16 78.03 42.19 78.06 42.23 78.06 42.26 78.06 42.33 78.09 42.36 78.09 42.4 78.09 42.43 78.13 42.46 78.13 42.53 78.16 42.56 78.2 42.6"/><line class="cls-1" x1="99.29" y1="64.03" x2="99.29" y2="62.77"/><line class="cls-1" x1="99.29" y1="76.38" x2="99.29" y2="75.17"/><line class="cls-1" x1="91.3" y1="48.96" x2="89.74" y2="48.08"/><line class="cls-1" x1="87.91" y1="47.03" x2="86.35" y2="46.12"/><line class="cls-1" x1="93.84" y1="50.42" x2="93.12" y2="50.01"/><line class="cls-1" x1="97.53" y1="66.77" x2="97.53" y2="66.26"/><line class="cls-1" x1="99.29" y1="60.71" x2="99.29" y2="59.9"/><line class="cls-1" x1="98.44" y1="70.05" x2="98.44" y2="68.16"/><line class="cls-1" x1="99.29" y1="79.3" x2="99.29" y2="78.45"/><polyline class="cls-1" points="99.12 79.77 98.98 79.94 98.88 80.07 98.74 80.21 98.61 80.34 98.51 80.48 98.37 80.62 98.24 80.75 98.1 80.89 97.97 81.02 97.8 81.12 97.66 81.26 97.53 81.36 97.36 81.46 97.22 81.56 97.09 81.67 96.92 81.77 95.73 82.51"/><path class="cls-1" d="m99.12,79.77c.11-.14.17-.31.17-.49"/><path class="cls-1" d="m99.29,59.88c0-.1-.02-.21-.06-.3"/><path class="cls-1" d="m94.08,50.63c-.06-.08-.14-.15-.23-.2"/><path class="cls-1" d="m99.29,75.15c0-.28-.15-.55-.4-.69"/><polyline class="cls-1" points="98.88 74.49 97.86 73.88 97.83 73.88 97.83 73.84 97.8 73.84 97.8 73.81 97.76 73.81 97.76 73.78 97.73 73.78 97.73 73.74 97.69 73.71 97.69 73.68 97.66 73.68 97.66 73.64 97.63 73.61 97.63 73.57 97.59 73.54 97.59 73.51 97.59 73.47 97.56 73.47 97.56 73.44 97.56 73.4 97.56 73.37 97.56 73.34 97.53 73.34 97.53 73.3 97.53 72.8"/><line class="cls-1" x1="98.07" y1="70.73" x2="95.73" y2="72.22"/><path class="cls-1" d="m98.08,70.7c.23-.15.36-.4.36-.67"/><path class="cls-1" d="m98.44,68.14c0-.28-.15-.55-.4-.69"/><polyline class="cls-1" points="98.03 67.45 97.86 67.35 97.83 67.35 97.83 67.31 97.8 67.31 97.8 67.28 97.76 67.28 97.76 67.24 97.73 67.24 97.73 67.21 97.69 67.18 97.69 67.14 97.66 67.14 97.66 67.11 97.63 67.07 97.63 67.04 97.59 67.01 97.59 66.97 97.59 66.94 97.56 66.94 97.56 66.9 97.56 66.87 97.56 66.84 97.56 66.8 97.53 66.8 97.53 66.77"/><line class="cls-1" x1="98.91" y1="64.67" x2="95.73" y2="66.74"/><path class="cls-1" d="m98.92,64.68c.23-.15.36-.4.36-.67"/><polyline class="cls-1" points="99.29 76.45 99.25 76.52 99.25 76.59 99.22 76.65 99.18 76.69 99.15 76.76 99.12 76.79 99.05 76.86 98.98 76.89 95.73 79.06"/><polyline class="cls-1" points="98.27 77.37 98.3 77.43 98.37 77.5 98.41 77.57 98.47 77.64 98.51 77.67 98.54 77.67 98.54 77.7 98.58 77.74 98.61 77.74 98.64 77.77 98.68 77.77 98.68 77.81 98.98 77.98 99.02 77.98 99.05 78.01 99.05 78.04 99.08 78.04 99.12 78.08 99.15 78.11 99.18 78.14 99.18 78.18 99.22 78.21 99.22 78.25 99.25 78.28 99.25 78.31 99.25 78.35 99.29 78.38 99.29 78.42 99.29 78.45"/><polyline class="cls-1" points="82.33 47.88 85.74 46.12 85.81 46.09 85.88 46.05 85.95 46.05 86.02 46.05 86.08 46.05 86.15 46.05 86.22 46.05 86.29 46.09"/><polyline class="cls-1" points="87.91 47.03 87.95 47.03 87.98 47.07 88.01 47.1 88.05 47.1 88.05 47.13 88.08 47.17 88.11 47.2 88.11 47.24 88.15 47.27 88.15 47.3 88.18 47.34 88.18 47.41 88.18 47.44 88.18 47.47 88.18 47.51 88.18 47.54 88.18 47.88 88.18 47.91 88.18 47.95 88.18 47.98 88.22 48.01 88.22 48.05 88.22 48.08 88.22 48.12 88.25 48.15 88.25 48.18 88.25 48.22 88.28 48.29 88.28 48.32 88.32 48.35 88.32 48.39 88.35 48.42 88.35 48.49"/><polyline class="cls-1" points="85.71 49.84 89.16 48.08 89.2 48.05 89.27 48.01 89.33 48.01 89.4 47.98 89.47 47.98 89.54 48.01 89.6 48.01 89.67 48.05"/><polyline class="cls-1" points="91.3 49 91.33 49 91.36 49.03 91.4 49.06 91.43 49.06 91.47 49.1 91.47 49.13 91.5 49.17 91.5 49.2 91.53 49.23 91.53 49.27 91.57 49.3 91.57 49.33 91.57 49.4 91.57 49.44 91.6 49.47 91.6 49.5 91.6 49.84 91.6 49.88 91.6 49.91 91.6 49.94 91.6 50.01 91.6 50.05 91.6 50.08 91.64 50.11 91.64 50.15 91.64 50.18 91.67 50.25 91.67 50.28 91.7 50.32 91.7 50.35 91.74 50.38 91.74 50.45"/><polyline class="cls-1" points="89.1 51.81 92.55 50.05 92.62 50.01 92.68 49.98 92.75 49.98 92.82 49.94 92.89 49.94 92.96 49.98 93.02 49.98 93.06 50.01"/><polyline class="cls-1" points="99.29 60.78 99.25 60.85 99.25 60.91 99.22 60.98 99.18 61.01 99.15 61.08 99.12 61.12 99.05 61.18 98.98 61.22 95.73 63.38"/><polyline class="cls-1" points="98.27 61.69 98.3 61.76 98.37 61.83 98.41 61.89 98.47 61.96 98.51 62 98.54 62 98.54 62.03 98.58 62.06 98.61 62.06 98.64 62.1 98.68 62.1 98.68 62.13 98.98 62.27 99.02 62.3 99.05 62.33 99.08 62.37 99.12 62.4 99.15 62.44 99.18 62.47 99.18 62.5 99.22 62.54 99.22 62.57 99.25 62.61 99.25 62.64 99.25 62.67 99.29 62.71 99.29 62.74 99.29 62.77"/><polyline class="cls-1" points="96.65 71.81 96.68 71.88 96.75 71.92 96.78 71.98 96.81 72.02 96.85 72.05 96.92 72.08 96.95 72.12 96.98 72.15 97.22 72.29 97.25 72.29 97.29 72.32 97.32 72.36 97.36 72.39 97.39 72.39 97.39 72.42 97.42 72.46 97.46 72.49 97.46 72.52 97.49 72.56 97.49 72.59 97.53 72.63 97.53 72.66 97.53 72.69 97.53 72.76 97.53 72.8"/><polyline class="cls-1" points="97.53 71.1 97.49 71.14 97.46 71.17 97.42 71.24 97.42 71.27 97.39 71.31 97.32 71.34 97.29 71.37 97.25 71.41 96 72.25 95.97 72.29 95.93 72.29 95.9 72.32 95.87 72.36 95.83 72.39 95.8 72.42 95.77 72.46 95.73 72.52"/><polyline class="cls-1" points="97.25 65.75 97.32 65.82 97.36 65.86 97.39 65.89 97.42 65.92 97.46 65.96 97.46 65.99 97.49 66.02 97.49 66.06 97.53 66.09 97.53 66.13 97.53 66.19 97.53 66.23 97.53 66.26"/><polyline class="cls-1" points="72.54 42.16 72.68 42.06 72.85 41.99"/><path class="cls-1" d="m73.23,42.01c-.11-.07-.25-.07-.36-.02"/><polyline class="cls-1" points="72.68 42.29 75.39 40.91 75.42 40.87 75.49 40.84"/><path class="cls-1" d="m95.1,54.7c-.11-.18-.33-.24-.52-.14"/><polyline class="cls-1" points="95.09 54.68 95.26 54.95 95.43 55.26"/><polyline class="cls-1" points="94.99 51.87 94.99 51.91 94.99 51.94 95.02 51.94 95.02 51.98 95.02 52.01 95.05 52.04 95.05 52.08 95.05 52.11 95.05 52.14 95.02 52.18 95.02 52.21 95.02 52.25 95.02 52.28 94.99 52.31 94.95 52.35 94.95 52.38 94.92 52.38 94.92 52.42 94.89 52.42 94.89 52.45 94.85 52.45 94.82 52.48 94.78 52.48 94.75 52.52 94.72 52.52"/><path class="cls-1" d="m95.49,55.48c0-.08-.01-.16-.05-.23"/><polyline class="cls-1" points="94.61 52.58 94.61 52.62 94.61 52.65 94.61 52.69 94.65 52.69 94.65 52.72 94.65 52.75 94.65 52.79 94.65 52.82 94.68 52.86 94.68 52.89 94.72 52.92 94.72 52.96 94.72 52.99 94.75 52.99 94.78 53.03 94.92 53.23 95.05 53.43 95.19 53.63 95.29 53.84 95.43 54.04 95.56 54.28 95.7 54.48 95.83 54.68 95.93 54.89 96.07 55.09 96.21 55.29 96.31 55.53 96.44 55.73 96.54 55.94 96.68 56.17 96.78 56.38 96.81 56.41 96.81 56.44 96.85 56.48 96.88 56.51 96.92 56.55 96.95 56.58 96.95 56.61 96.98 56.61 97.02 56.65 97.05 56.65 97.05 56.68 97.09 56.68"/><polyline class="cls-1" points="97.22 56.61 97.25 56.58 97.29 56.58 97.32 56.58 97.36 56.55 97.39 56.55 97.39 56.51 97.42 56.51 97.46 56.51 97.49 56.51 97.53 56.51 97.56 56.51 97.59 56.51 97.63 56.51 97.66 56.51 97.7 56.51 97.7 56.55 97.73 56.55 97.76 56.58 97.8 56.58 97.8 56.61 97.83 56.61 97.86 56.65 97.86 56.68 97.9 56.68 97.9 56.72"/><polyline class="cls-1" points="50.98 45.88 44.99 49.33 75.52 66.97 81.51 63.52"/><path class="cls-1" d="m75.62,67.46c0-.12-.08-.26-.18-.31"/><line class="cls-1" x1="75.42" y1="67.18" x2="44.88" y2="49.54"/><path class="cls-1" d="m44.9,49.51c-.1-.06-.18,0-.19.11"/><line class="cls-1" x1="44.71" y1="49.64" x2="44.71" y2="84.91"/><path class="cls-1" d="m44.72,84.9c0,.12.08.26.18.31"/><line class="cls-1" x1="44.88" y1="85.22" x2="75.42" y2="102.86"/><path class="cls-1" d="m75.43,102.85c.1.06.18,0,.19-.11"/><line class="cls-1" x1="75.59" y1="102.76" x2="75.59" y2="67.48"/><polyline class="cls-1" points="45.46 61.49 74.81 78.42 74.81 90.91 45.46 73.95 45.46 61.49"/><path class="cls-1" d="m75.43,102.84s.01.06.03.07"/><path class="cls-1" d="m44.9,85.2s.01.06.03.07"/><path class="cls-1" d="m75.54,66.97c-.06.03-.11.12-.11.19"/><path class="cls-1" d="m45,49.33c-.06.03-.11.12-.11.19"/><line class="cls-1" x1="45.49" y1="73.95" x2="45.46" y2="73.95"/><path class="cls-1" d="m45,49.34c-.07-.04-.14-.05-.19-.02"/><path class="cls-1" d="m44.68,84.83s.02.04.04.06"/><path class="cls-1" d="m44.68,49.56s.02.04.04.06"/><polyline class="cls-1" points="81.78 64.03 75.83 67.48 75.83 102.76 81.78 99.3"/><path class="cls-1" d="m78.14,100.13c0,.07.05.09.1.06"/><line class="cls-1" x1="78.09" y1="100.15" x2="78.09" y2="92.9"/><path class="cls-1" d="m78.25,92.7c-.06.03-.11.12-.11.19"/><line class="cls-1" x1="78.23" y1="92.7" x2="78.84" y2="92.33"/><path class="cls-1" d="m78.96,92.38c0-.07-.05-.09-.1-.06"/><line class="cls-1" x1="78.94" y1="92.4" x2="78.94" y2="99.64"/><path class="cls-1" d="m78.85,99.82c.06-.03.11-.12.11-.19"/><line class="cls-1" x1="78.84" y1="99.84" x2="78.23" y2="100.22"/><path class="cls-1" d="m78.25,75.7c-.06.03-.11.12-.11.19"/><line class="cls-1" x1="78.23" y1="75.71" x2="78.84" y2="75.37"/><path class="cls-1" d="m78.96,75.42c0-.07-.05-.09-.1-.06"/><line class="cls-1" x1="78.94" y1="75.44" x2="78.94" y2="82.68"/><path class="cls-1" d="m78.85,82.85c.06-.03.11-.12.11-.19"/><line class="cls-1" x1="78.84" y1="82.88" x2="78.23" y2="83.22"/><path class="cls-1" d="m78.14,83.13c0,.07.05.09.1.06"/><line class="cls-1" x1="78.09" y1="83.15" x2="78.09" y2="75.91"/><path class="cls-1" d="m78.96,83.89c0-.07-.05-.09-.1-.06"/><line class="cls-1" x1="78.94" y1="83.9" x2="78.94" y2="91.18"/><path class="cls-1" d="m78.85,91.35c.06-.03.11-.12.11-.19"/><line class="cls-1" x1="78.84" y1="91.35" x2="78.23" y2="91.72"/><path class="cls-1" d="m78.14,91.63c0,.07.05.09.1.06"/><line class="cls-1" x1="78.09" y1="91.65" x2="78.09" y2="84.41"/><path class="cls-1" d="m78.25,84.2c-.06.03-.11.12-.11.19"/><line class="cls-1" x1="78.23" y1="84.2" x2="78.84" y2="83.83"/><path class="cls-1" d="m78.96,66.93c0-.07-.05-.09-.1-.06"/><line class="cls-1" x1="78.94" y1="66.94" x2="78.94" y2="74.18"/><path class="cls-1" d="m78.85,74.36c.06-.03.11-.12.11-.19"/><line class="cls-1" x1="78.84" y1="74.39" x2="78.23" y2="74.73"/><path class="cls-1" d="m78.14,74.64c0,.07.05.09.1.06"/><line class="cls-1" x1="78.09" y1="74.66" x2="78.09" y2="67.41"/><path class="cls-1" d="m78.25,67.21c-.06.03-.11.12-.11.19"/><line class="cls-1" x1="78.23" y1="67.21" x2="78.84" y2="66.87"/><path class="cls-1" d="m75.81,67.45c0-.17-.12-.39-.28-.48"/><path class="cls-1" d="m75.73,102.91c.05-.03.08-.09.08-.18"/><path class="cls-1" d="m75.6,102.73c.06.03.16.03.22,0"/><path class="cls-1" d="m75.6,67.46c.06.03.16.03.22,0"/><line class="cls-1" x1="78.94" y1="66.94" x2="78.8" y2="66.87"/><line class="cls-1" x1="78.09" y1="73.68" x2="78.94" y2="74.18"/><line class="cls-1" x1="78.84" y1="74.39" x2="78.09" y2="73.95"/><line class="cls-1" x1="78.09" y1="74.66" x2="78.23" y2="74.73"/><line class="cls-1" x1="78.84" y1="99.84" x2="78.09" y2="99.44"/><line class="cls-1" x1="78.09" y1="100.12" x2="78.23" y2="100.22"/><line class="cls-1" x1="78.94" y1="92.4" x2="78.8" y2="92.36"/><line class="cls-1" x1="78.09" y1="99.17" x2="78.94" y2="99.64"/><line class="cls-1" x1="78.09" y1="91.41" x2="78.53" y2="91.18"/><line class="cls-1" x1="78.09" y1="91.62" x2="78.23" y2="91.72"/><line class="cls-1" x1="78.84" y1="91.35" x2="78.53" y2="91.18"/><line class="cls-1" x1="78.94" y1="83.9" x2="78.8" y2="83.87"/><line class="cls-1" x1="78.64" y1="90.97" x2="78.64" y2="83.97"/><line class="cls-1" x1="78.64" y1="90.97" x2="78.94" y2="91.18"/><path class="cls-1" d="m78.55,91.15c.06-.03.11-.12.11-.19"/><line class="cls-1" x1="78.94" y1="75.44" x2="78.8" y2="75.37"/><line class="cls-1" x1="78.64" y1="82.51" x2="78.64" y2="75.47"/><line class="cls-1" x1="78.64" y1="82.51" x2="78.94" y2="82.68"/><line class="cls-1" x1="78.09" y1="82.95" x2="78.53" y2="82.68"/><line class="cls-1" x1="78.09" y1="83.15" x2="78.23" y2="83.22"/><line class="cls-1" x1="78.84" y1="82.88" x2="78.53" y2="82.68"/><path class="cls-1" d="m78.55,82.65c.06-.03.11-.12.11-.19"/><line class="cls-1" x1="44.92" y1="85.29" x2="75.45" y2="102.93"/><line class="cls-1" x1="44.78" y1="49.33" x2="50.84" y2="45.81"/><polyline class="cls-1" points="44.92 85.29 44.88 85.25 44.85 85.25 44.82 85.22 44.82 85.19 44.78 85.19 44.75 85.15 44.75 85.12 44.71 85.08 44.71 85.05 44.68 85.02 44.68 84.98 44.68 84.95 44.65 84.92 44.65 84.88 44.65 84.85 44.65 49.57 44.65 49.54 44.68 49.5 44.68 49.47 44.68 49.44 44.71 49.4 44.71 49.37 44.75 49.34 44.78 49.34"/><polyline class="cls-1" points="75.45 102.93 75.49 102.93 75.52 102.96 75.55 102.96 75.59 102.96 75.62 102.96 75.66 102.96 75.69 102.96 75.72 102.93 81.78 99.44"/><polyline class="cls-1" points="45.49 73.95 45.49 61.52 45.53 61.52"/><polyline class="cls-1" points="45.49 61.52 74.78 78.45 74.81 78.42"/><polyline class="cls-1" points="74.78 78.45 74.78 90.84 74.81 90.84"/><line class="cls-1" x1="74.78" y1="90.84" x2="45.49" y2="73.95"/><path class="cls-1" d="m50.26,45.95s.05,0,.07-.02"/><polyline class="cls-1" points="50.33 45.92 50.33 45.88 50.33 45.81 50.37 45.78 50.37 45.75 50.4 45.68 50.4 45.64 50.44 45.61 50.47 45.58"/><polyline class="cls-1" points="50.33 45.51 50.3 45.54 50.27 45.58 50.23 45.61 50.23 45.64"/><path class="cls-1" d="m50.27,46.02s.05-.01.06-.02"/><polyline class="cls-1" points="50.33 46.12 50.33 45.98 50.33 45.92"/><polyline class="cls-1" points="81.78 99.98 81.75 99.98 81.68 99.98"/><line class="cls-1" x1="50.33" y1="45.98" x2="50.74" y2="45.75"/><polyline class="cls-1" points="81.78 99.91 81.68 99.98 81.65 100.01 81.68 100.05 81.72 100.08 81.72 100.12 81.75 100.12 81.78 100.15"/><line class="cls-1" x1="50.27" y1="46.15" x2="50.27" y2="46.02"/><polyline class="cls-1" points="50.27 46.02 50.27 45.95 50.23 45.88 50.23 45.81 50.23 45.71 50.23 45.68 50.23 45.64 50.23 45.48"/><circle class="cls-3" cx="60.33" cy="88.52" r="7.66"/></svg>