<?xml version="1.0" encoding="utf-8"?>
<!-- Generator: Adobe Illustrator 24.0.0, SVG Export Plug-In . SVG Version: 6.00 Build 0)  -->
<svg version="1.1" id="Layer_1" xmlns="http://www.w3.org/2000/svg" xmlns:xlink="http://www.w3.org/1999/xlink" x="0px" y="0px"
	 viewBox="0 0 1012.3 1010" style="enable-background:new 0 0 1012.3 1010;" xml:space="preserve">
<path d="M472.6,495.3c1.1-0.9,2.6,1,1.5,1.9C472.9,498.2,471.4,496.2,472.6,495.3z"/>
<path d="M353.5,408c17.8-1.3,35.8-0.8,53.8-0.5c3.6,0,4.9,4.4,7.1,6.6c0.6,0.9,1.1,2.7,0,3.5c-3.8,3-7.8,7.1-13.1,6.5
	c-16.4,0.7-32.9,0.5-49.3,0.3c-4.6,0.2-6.6-5.1-9.1-8C345.1,412.2,349.3,409.3,353.5,408z"/>
<path d="M332,432.7c0.3-6.8,6.3-10.4,11-14.1c2.4,2.7,4.8,5.4,7.3,8c-2.1,16-5.5,31.8-8.6,47.7c0,7.3-7.1,10.2-12.2,13.5
	c-2.2-4.3-7.2-8.1-4.7-13.5C327,460.4,329.5,446.6,332,432.7z"/>
<path d="M470.7,490.9c3-5.1,8.1-9.7,14.4-8.8c16.7-0.5,33.5-0.6,50.2,0c3.3,1.2,5,5.2,7.2,7.8c-1.8,3.7-5.4,6-8.9,7.8
	c-19.1,2.2-38.4,0.5-57.6,1c1.8,10.6-1.5,21.1-3.1,31.5c-1.6,8-2.1,16.4-4.8,24.1c-2.5,3.6-6.4,5.8-9.7,8.5c-2.6-2.9-5-5.9-7.6-8.7
	c2.9-15.6,5.1-31.4,8.1-47C459.4,499.6,467.4,496.9,470.7,490.9 M472.6,495.3c-1.1,0.9,0.3,2.8,1.5,1.9
	C475.1,496.4,473.7,494.4,472.6,495.3z"/>
<path d="M622.4,482.5c17.9-1.3,35.8-0.8,53.8-0.5c4,0.3,5.7,5.2,8.1,7.9c-1.7,3.9-5.8,6.5-9.6,8.1c-17.9,1.4-35.8,0.7-53.8,0.6
	c-4.6,0.2-6.6-5.1-9.1-8C613.9,486.6,618.1,483.8,622.4,482.5z"/>
<path d="M319.2,507.3c0.4-6.8,6.2-10.5,11-14.1c2.2,2.9,4.3,5.8,6.5,8.6c-1.8,13.8-4.5,27.4-6.6,41.1c-1,4-1.1,8.3-3.1,12
	c-2.8,3-6.2,5.4-9.4,7.9c-2.6-2.9-5-5.9-7.6-8.7C313.4,538.6,315.8,522.8,319.2,507.3z"/>
<path d="M600.8,507.2c0.3-6.8,6.3-10.4,11-14.1c2.4,2.7,4.8,5.4,7.3,8c-2,16-5.5,31.8-8.6,47.7c0,7.3-7.1,10.2-12.2,13.5
	c-2.2-4.3-7.2-8.1-4.7-13.6C595.9,534.9,598.3,521.1,600.8,507.2z"/>
<path d="M531.1,502.2c3.2-3.9,7.8-6.3,12.2-8.3c2.4,4.3,6.6,8.2,5.5,13.7c-2.4,14.1-5.2,28.2-8.1,42.3c0,6.6-6,9.5-10.2,13
	c-3-2.8-5.8-5.7-8.7-8.5C525.2,537,527.2,519.4,531.1,502.2z"/>
<path d="M672.9,502.2c2.6-3.5,6.4-5.6,9.7-8c2.5,2.3,4.9,4.6,7.4,6.9c-1.6,16.1-4.9,31.9-7.6,47.8c-0.2,6.3-5.3,10.6-10.4,13.3
	c-3.9-0.8-5.7-5.4-8.6-7.8C667.1,537.1,668.9,519.4,672.9,502.2z"/>
<path d="M316.1,564.7c4.9-2.7,9.4-7.3,15.4-7.1c17.1-0.9,34.3-0.1,51.3-0.3c1.9,3.3,6.3,5.6,6.5,9.6c-3.3,3.3-7.4,7-12.5,6.2
	c-18.4,0.6-36.8,0-55.2,0.2C319.7,570.4,317.9,567.6,316.1,564.7z"/>
<path d="M456.9,564.7c4.9-2.7,9.4-7.3,15.4-7c13.1-0.8,26.3-0.5,39.4-0.5c4.1,0.8,9.5-1.3,13,1.9c2.2,1.8,4.3,3.9,5.7,6.4
	c-1,3.8-5.1,5.7-8.3,7.2c-19.9,1.4-39.9,0.2-59.8,0.6C460.5,570.4,458.7,567.6,456.9,564.7z"/>
<g>
	<path d="M915.5,1001H96.8c-47.8,0-86.7-38.9-86.7-86.7V95.7C10.1,47.9,49,9,96.8,9h818.7c47.8,0,86.7,38.9,86.7,86.7v818.7
		C1002.1,962.1,963.3,1001,915.5,1001z M96.8,21c-41.2,0-74.7,33.5-74.7,74.7v818.7c0,41.2,33.5,74.7,74.7,74.7h818.7
		c41.2,0,74.7-33.5,74.7-74.7V95.7c0-41.2-33.5-74.7-74.7-74.7H96.8z"/>
</g>
<g>
	<path d="M838.9,887H173.4c-27.1,0-49.2-22.1-49.2-49.2V172.2c0-27.1,22.1-49.2,49.2-49.2H839c27.1,0,49.2,22.1,49.2,49.2v665.6
		C888.1,864.9,866.1,887,838.9,887z M173.4,129c-23.8,0-43.2,19.4-43.2,43.2v665.6c0,23.8,19.4,43.2,43.2,43.2H839
		c23.8,0,43.2-19.4,43.2-43.2V172.2c0-23.8-19.4-43.2-43.2-43.2H173.4z"/>
</g>
<g>
	<path d="M803.5,837.2H208.7c-19.2,0-34.8-15.6-34.8-34.8V207.6c0-19.2,15.6-34.8,34.8-34.8h594.8c19.2,0,34.8,15.6,34.8,34.8v594.8
		C838.3,821.6,822.7,837.2,803.5,837.2z M208.7,178.8c-15.9,0-28.8,12.9-28.8,28.8v594.8c0,15.9,12.9,28.8,28.8,28.8h594.8
		c15.9,0,28.8-12.9,28.8-28.8V207.6c0-15.9-12.9-28.8-28.8-28.8H208.7z"/>
</g>
<g>
	<path d="M787.4,805.4H234.3c-15.7,0-28.5-12.8-28.5-28.5V223.7c0-15.7,12.8-28.5,28.5-28.5h553.2c15.7,0,28.5,12.8,28.5,28.5v553.2
		C816,792.6,803.2,805.4,787.4,805.4z M234.3,201.2c-12.4,0-22.5,10.1-22.5,22.5v553.2c0,12.4,10.1,22.5,22.5,22.5h553.2
		c12.4,0,22.5-10.1,22.5-22.5V223.7c0-12.4-10.1-22.5-22.5-22.5H234.3z"/>
</g>
<g>
	<polygon points="342.2,695.7 332.6,695.7 364.6,670.1 395,695.3 353.1,695.7 359.8,689.3 378.4,689.3 364.6,677.8 	"/>
</g>
<polygon points="673.3,670.1 682.9,670.1 650.9,695.7 620.5,670.5 662.4,670.1 655.7,676.5 637.1,676.5 650.9,688 "/>
<polygon points="504.3,697.8 490.7,684.1 508.1,666.7 525.5,684.1 511.8,697.8 511.8,706.2 534,684.1 508.1,658.2 482.2,684.1 
	504.3,706.2 "/>
</svg>
