<?xml version="1.0" encoding="UTF-8"?>
<svg id="Layer_1" data-name="Layer 1" xmlns="http://www.w3.org/2000/svg" width="960" height="960" viewBox="0 0 960 960">
  <defs>
    <style>
      .cls-1 {
        stroke-width: 40px;
      }

      .cls-1, .cls-2 {
        fill: none;
        stroke: #000;
        stroke-linecap: round;
        stroke-linejoin: round;
      }

      .cls-2 {
        stroke-width: 20px;
      }
    </style>
  </defs>
  <path class="cls-2" d="m939,188.701v582.6c0,45.288-34.796,82.975-79.941,86.582-178.711,14.278-594.988,47.396-594.988,47.396-2.139.173-4.299.26-6.438.26-43.896,0-79.616-35.785-79.616-79.757V134.22c0-43.972,35.72-79.757,79.616-79.757,2.139,0,4.299.087,6.438.261,0,0,416.277,33.117,594.988,47.396,45.144,3.607,79.941,41.294,79.941,86.582Z"/>
  <path class="cls-2" d="m152.926,77.013c-24.754,13.42-41.909,36.871-47.555,63.743v.011"/>
  <path class="cls-2" d="m105.339,819.256c5.298,25.59,20.944,47.859,44.069,61.723,13.311,7.98,25.894,14.929,56.316,31.703"/>
  <path class="cls-2" d="m222.289,62.749c-29.242,17.03-46.238,26.412-59.008,33.344-23.572,12.796-38.216,37.379-38.216,64.155v639.506c0,25.873,13.273,49.277,35.504,62.607,12.975,7.779,25.465,14.668,55.642,31.312l9.124,5.033"/>
  <path class="cls-2" d="m118.814,134.051l-59.131,29.527c-23.634,11.28-38.684,35.138-38.684,61.326v509.486c0,26.152,15.008,49.983,38.593,61.283l58.746,30.276"/>
  <g>
    <path class="cls-1" d="m208.363,901.75c3.615,1.987,7.502,4.137,11.682,6.438l.04.02c13.551,6.212,28.85,9.165,44.855,7.895,0,0,415.568-33.043,594.11-47.284,45.149-3.601,79.95-41.291,79.95-86.583V177.766c0-45.292-34.801-82.981-79.95-86.583-178.542-14.241-594.11-47.284-594.11-47.284-17.328-1.381-33.829,2.202-48.173,9.495l-.109.06c-2.975,1.737-5.83,3.398-8.566,4.972-22.822,13.213-37.772,21.486-49.987,28.12-18.653,10.119-33.115,27.132-39.803,47.75v.011"/>
    <path class="cls-1" d="m118.302,134.307l-58.618,29.271c-23.636,11.281-38.684,35.134-38.684,61.332v509.475c0,26.155,15.005,49.987,38.597,61.289l58.738,30.281"/>
    <line class="cls-1" x1="118.813" y1="134.046" x2="118.302" y2="134.296"/>
  </g>
</svg>