<?xml version="1.0" encoding="UTF-8"?><svg id="Layer_1" xmlns="http://www.w3.org/2000/svg" viewBox="0 0 141.73 141.73"><defs><style>.cls-1{fill:none;stroke:#000;stroke-miterlimit:10;stroke-width:.33px;}</style></defs><path class="cls-1" d="m80.7,120.28l-36.06-21.01c-2.57-1.5-4.66-5.61-4.66-9.18v-50.01c0-3.56,2.09-5.25,4.66-3.75l36.06,21.01c2.57,1.5,4.66,5.61,4.66,9.18v50.01c0,3.56-2.09,5.24-4.66,3.74Z"/><path class="cls-1" d="m47.21,34.06c2.33-.89,2.41-1.52,4.35-.51l36.06,21.01c2.57,1.5,4.66,5.61,4.66,9.18v50.01"/><path class="cls-1" d="m82.78,120.81c23.73-9.44,24.21-9.63,24.21-9.63"/><path class="cls-1" d="m83.92,120.36c4.6-1.83,8.35-2.68,8.35-6.6"/><path class="cls-1" d="m41.46,36.24c12.67-4.68,24.08-9.72,24.08-9.72"/><path class="cls-1" d="m65.54,26.52c1-.44,2.53.43,2.53.43l36.06,21.01c2.57,1.5,4.66,5.61,4.66,9.18v50.01"/><path class="cls-1" d="m106.99,111.18c2.02-.91,1.8-4.04,1.8-4.04"/></svg>