<?xml version="1.0" encoding="UTF-8"?>
<svg id="Layer_1" data-name="Layer 1" xmlns="http://www.w3.org/2000/svg" width="960" height="960" viewBox="0 0 960 960">
  <defs>
    <style>
      .cls-1 {
        stroke-width: 40px;
      }

      .cls-1, .cls-2, .cls-3 {
        fill: none;
        stroke: #000;
      }

      .cls-1, .cls-3 {
        stroke-linecap: round;
        stroke-linejoin: round;
      }

      .cls-2, .cls-3 {
        stroke-width: 20px;
      }
    </style>
  </defs>
  <path class="cls-3" d="m406.724,885.104c-50.778,0-101.151-2.609-149.717-7.756-27.8-2.946-53.399-14.442-74.031-33.246-20.659-18.829-34.403-43.236-39.747-70.583-19.029-97.387-28.676-196.14-28.676-293.515.001-97.375,9.65-196.128,28.68-293.515,5.342-27.344,19.085-51.749,39.74-70.577,20.628-18.803,46.224-30.3,74.021-33.25,48.635-5.16,99.076-7.777,149.926-7.777,143.247,0,239.759,8.323,405.588,49.252,50.673,12.507,88.71,53.875,96.903,105.391,25.21,158.505,25.215,342.47.014,500.966-8.191,51.516-46.226,92.886-96.898,105.396-165.93,40.963-262.512,49.215-405.803,49.215Z"/>
  <path class="cls-3" d="m205.299,871.648c-21.59-11.611-85.798-45.727-100.027-53.78-30.133-17.054-52.348-46.589-59.284-82.088-33.318-170.517-33.317-341.035.002-511.552,7.228-36.992,31.049-67.51,63.131-84.174,13.238-6.876,67.721-36.377,99.29-53.355"/>
  <path class="cls-1" d="m919.88,732.152c-8.839,55.583-50.174,100.528-104.816,114.014-209.875,51.804-360.818,62.723-559.176,41.711-23.69-2.519-45.718-10.871-64.496-23.669-27.68-14.809-74.266-39.631-86.122-46.342-30.126-17.053-52.344-46.586-59.278-82.089-33.323-170.519-33.323-341.038,0-511.546,7.23-36.996,31.047-67.513,63.131-84.174,11.03-5.737,50.693-27.172,81.888-43.992,18.852-12.946,41.018-21.403,64.867-23.934,198.358-21.043,349.301-10.07,559.165,41.724,54.641,13.486,95.977,58.42,104.827,114.004,25.5,160.357,25.511,343.947.01,504.293Z"/>
  <path class="cls-3" d="m208.413,86.697c-5.261,2.826-11.157,6.012-17.402,9.368"/>
  <path class="cls-3" d="m205.301,871.65c-3.599-1.937-8.373-4.488-13.909-7.441"/>
  <ellipse class="cls-2" cx="569.032" cy="480.01" rx="201.744" ry="216.117"/>
  <ellipse class="cls-2" cx="569.032" cy="480.01" rx="137.518" ry="147.316"/>
  <ellipse cx="400.3" cy="108.488" rx="12.751" ry="13.662"/>
  <ellipse cx="441.784" cy="111.599" rx="12.751" ry="13.662"/>
  <ellipse cx="483.268" cy="113.673" rx="12.751" ry="13.662"/>
  <ellipse cx="649.204" cy="126.118" rx="12.751" ry="13.662"/>
  <ellipse cx="690.687" cy="129.23" rx="12.751" ry="13.662"/>
  <ellipse cx="358.816" cy="141.675" rx="12.751" ry="13.662"/>
  <ellipse cx="317.332" cy="138.563" rx="12.751" ry="13.662"/>
  <ellipse cx="275.849" cy="134.415" rx="12.751" ry="13.662"/>
  <ellipse cx="234.365" cy="132.341" rx="12.751" ry="13.662"/>
  <ellipse cx="400.3" cy="144.786" rx="12.751" ry="13.662"/>
  <ellipse cx="441.784" cy="146.86" rx="12.751" ry="13.662"/>
  <ellipse cx="483.268" cy="151.009" rx="12.751" ry="13.662"/>
  <ellipse cx="649.204" cy="162.417" rx="12.751" ry="13.662"/>
  <ellipse cx="690.687" cy="165.528" rx="12.751" ry="13.662"/>
  <ellipse cx="732.171" cy="168.639" rx="12.751" ry="13.662"/>
  <ellipse cx="773.655" cy="171.751" rx="12.751" ry="13.662"/>
  <ellipse cx="358.816" cy="183.159" rx="12.751" ry="13.662"/>
  <ellipse cx="317.332" cy="180.047" rx="12.751" ry="13.662"/>
  <ellipse cx="275.849" cy="177.973" rx="12.751" ry="13.662"/>
  <ellipse cx="234.365" cy="174.862" rx="12.751" ry="13.662"/>
  <ellipse cx="192.881" cy="166.745" rx="12.751" ry="13.662"/>
  <ellipse cx="400.3" cy="185.233" rx="12.751" ry="13.662"/>
  <ellipse cx="441.784" cy="188.344" rx="12.751" ry="13.662"/>
  <ellipse cx="483.268" cy="191.455" rx="12.751" ry="13.662"/>
  <ellipse cx="649.204" cy="201.826" rx="12.751" ry="13.662"/>
  <ellipse cx="690.687" cy="203.901" rx="12.751" ry="13.662"/>
  <ellipse cx="732.171" cy="205.975" rx="12.751" ry="13.662"/>
  <ellipse cx="773.655" cy="209.086" rx="12.751" ry="13.662"/>
  <ellipse cx="815.139" cy="212.197" rx="12.751" ry="13.662"/>
  <ellipse cx="856.623" cy="215.309" rx="12.751" ry="13.662"/>
  <ellipse cx="358.816" cy="183.159" rx="12.751" ry="13.662"/>
  <ellipse cx="317.332" cy="180.047" rx="12.751" ry="13.662"/>
  <ellipse cx="275.849" cy="177.973" rx="12.751" ry="13.662"/>
  <ellipse cx="234.365" cy="174.862" rx="12.751" ry="13.662"/>
  <ellipse cx="192.881" cy="170.713" rx="12.751" ry="13.662"/>
  <ellipse cx="400.3" cy="185.233" rx="12.751" ry="13.662"/>
  <ellipse cx="441.784" cy="188.344" rx="12.751" ry="13.662"/>
  <ellipse cx="483.268" cy="191.455" rx="12.751" ry="13.662"/>
  <ellipse cx="649.204" cy="201.826" rx="12.751" ry="13.662"/>
  <ellipse cx="690.687" cy="203.901" rx="12.751" ry="13.662"/>
  <ellipse cx="732.171" cy="205.975" rx="12.751" ry="13.662"/>
  <ellipse cx="773.655" cy="209.086" rx="12.751" ry="13.662"/>
  <ellipse cx="815.139" cy="212.197" rx="12.751" ry="13.662"/>
  <ellipse cx="856.623" cy="215.309" rx="12.751" ry="13.662"/>
  <ellipse cx="358.816" cy="223.605" rx="12.751" ry="13.662"/>
  <ellipse cx="317.332" cy="221.531" rx="12.751" ry="13.662"/>
  <ellipse cx="275.849" cy="219.457" rx="12.751" ry="13.662"/>
  <ellipse cx="234.365" cy="216.346" rx="12.751" ry="13.662"/>
  <ellipse cx="192.881" cy="212.197" rx="12.751" ry="13.662"/>
  <ellipse cx="400.3" cy="225.68" rx="12.751" ry="13.662"/>
  <ellipse cx="441.784" cy="227.754" rx="12.751" ry="13.662"/>
  <ellipse cx="483.268" cy="229.828" rx="12.751" ry="13.662"/>
  <ellipse cx="524.752" cy="231.902" rx="12.751" ry="13.662"/>
  <ellipse cx="607.72" cy="236.051" rx="12.751" ry="13.662"/>
  <ellipse cx="649.204" cy="239.162" rx="12.751" ry="13.662"/>
  <ellipse cx="690.687" cy="241.236" rx="12.751" ry="13.662"/>
  <ellipse cx="732.171" cy="243.31" rx="12.751" ry="13.662"/>
  <ellipse cx="773.655" cy="245.384" rx="12.751" ry="13.662"/>
  <ellipse cx="815.139" cy="248.496" rx="12.751" ry="13.662"/>
  <ellipse cx="856.623" cy="250.57" rx="12.751" ry="13.662"/>
  <ellipse cx="444.895" cy="849.653" rx="12.751" ry="13.662"/>
  <ellipse cx="486.379" cy="847.579" rx="12.751" ry="13.662"/>
  <ellipse cx="527.863" cy="844.468" rx="12.751" ry="13.662"/>
  <ellipse cx="569.347" cy="841.356" rx="12.751" ry="13.662"/>
  <ellipse cx="610.831" cy="837.208" rx="12.751" ry="13.662"/>
  <ellipse cx="652.315" cy="835.134" rx="12.751" ry="13.662"/>
  <ellipse cx="361.928" cy="819.577" rx="12.751" ry="13.662"/>
  <ellipse cx="320.444" cy="822.689" rx="12.751" ry="13.662"/>
  <ellipse cx="278.96" cy="826.837" rx="12.751" ry="13.662"/>
  <ellipse cx="237.476" cy="828.911" rx="12.751" ry="13.662"/>
  <ellipse cx="403.412" cy="816.466" rx="12.751" ry="13.662"/>
  <ellipse cx="444.895" cy="814.392" rx="12.751" ry="13.662"/>
  <ellipse cx="486.379" cy="810.244" rx="12.751" ry="13.662"/>
  <ellipse cx="527.863" cy="807.132" rx="12.751" ry="13.662"/>
  <ellipse cx="569.347" cy="805.058" rx="12.751" ry="13.662"/>
  <ellipse cx="610.831" cy="801.947" rx="12.751" ry="13.662"/>
  <ellipse cx="652.315" cy="798.835" rx="12.751" ry="13.662"/>
  <ellipse cx="693.799" cy="795.724" rx="12.751" ry="13.662"/>
  <ellipse cx="735.283" cy="792.613" rx="12.751" ry="13.662"/>
  <ellipse cx="776.766" cy="789.502" rx="12.751" ry="13.662"/>
  <ellipse cx="361.928" cy="781.25" rx="12.751" ry="13.662"/>
  <ellipse cx="320.444" cy="784.361" rx="12.751" ry="13.662"/>
  <ellipse cx="278.96" cy="786.435" rx="12.751" ry="13.662"/>
  <ellipse cx="237.476" cy="789.547" rx="12.751" ry="13.662"/>
  <ellipse cx="195.992" cy="790.539" rx="12.751" ry="13.662"/>
  <ellipse cx="403.412" cy="776.019" rx="12.751" ry="13.662"/>
  <ellipse cx="444.895" cy="772.908" rx="12.751" ry="13.662"/>
  <ellipse cx="486.379" cy="769.797" rx="12.751" ry="13.662"/>
  <ellipse cx="527.863" cy="767.723" rx="12.751" ry="13.662"/>
  <ellipse cx="569.347" cy="764.611" rx="12.751" ry="13.662"/>
  <ellipse cx="610.831" cy="762.537" rx="12.751" ry="13.662"/>
  <ellipse cx="652.315" cy="759.426" rx="12.751" ry="13.662"/>
  <ellipse cx="693.799" cy="757.352" rx="12.751" ry="13.662"/>
  <ellipse cx="735.283" cy="755.277" rx="12.751" ry="13.662"/>
  <ellipse cx="776.766" cy="752.166" rx="12.751" ry="13.662"/>
  <ellipse cx="818.25" cy="749.055" rx="12.751" ry="13.662"/>
  <ellipse cx="859.734" cy="745.944" rx="12.751" ry="13.662"/>
  <ellipse cx="361.928" cy="781.25" rx="12.751" ry="13.662"/>
  <ellipse cx="320.444" cy="784.361" rx="12.751" ry="13.662"/>
  <ellipse cx="278.96" cy="786.435" rx="12.751" ry="13.662"/>
  <ellipse cx="237.476" cy="789.547" rx="12.751" ry="13.662"/>
  <ellipse cx="195.992" cy="790.539" rx="12.751" ry="13.662"/>
  <ellipse cx="403.412" cy="776.019" rx="12.751" ry="13.662"/>
  <ellipse cx="444.895" cy="772.908" rx="12.751" ry="13.662"/>
  <ellipse cx="486.379" cy="769.797" rx="12.751" ry="13.662"/>
  <ellipse cx="527.863" cy="767.723" rx="12.751" ry="13.662"/>
  <ellipse cx="569.347" cy="764.611" rx="12.751" ry="13.662"/>
  <ellipse cx="610.831" cy="762.537" rx="12.751" ry="13.662"/>
  <ellipse cx="652.315" cy="759.426" rx="12.751" ry="13.662"/>
  <ellipse cx="693.799" cy="757.352" rx="12.751" ry="13.662"/>
  <ellipse cx="735.283" cy="755.277" rx="12.751" ry="13.662"/>
  <ellipse cx="776.766" cy="752.166" rx="12.751" ry="13.662"/>
  <ellipse cx="818.25" cy="749.055" rx="12.751" ry="13.662"/>
  <ellipse cx="859.734" cy="745.944" rx="12.751" ry="13.662"/>
  <ellipse cx="361.928" cy="737.647" rx="12.751" ry="13.662"/>
  <ellipse cx="320.444" cy="739.721" rx="12.751" ry="13.662"/>
  <ellipse cx="278.96" cy="741.795" rx="12.751" ry="13.662"/>
  <ellipse cx="237.476" cy="744.906" rx="12.751" ry="13.662"/>
  <ellipse cx="195.992" cy="749.055" rx="12.751" ry="13.662"/>
  <ellipse cx="403.412" cy="735.573" rx="12.751" ry="13.662"/>
  <ellipse cx="444.895" cy="733.498" rx="12.751" ry="13.662"/>
  <ellipse cx="486.379" cy="731.424" rx="12.751" ry="13.662"/>
  <ellipse cx="527.863" cy="729.35" rx="12.751" ry="13.662"/>
  <ellipse cx="569.347" cy="727.276" rx="12.751" ry="13.662"/>
  <ellipse cx="610.831" cy="725.202" rx="12.751" ry="13.662"/>
  <ellipse cx="652.315" cy="722.09" rx="12.751" ry="13.662"/>
  <ellipse cx="693.799" cy="720.016" rx="12.751" ry="13.662"/>
  <ellipse cx="735.283" cy="717.942" rx="12.751" ry="13.662"/>
  <ellipse cx="776.766" cy="715.868" rx="12.751" ry="13.662"/>
  <ellipse cx="818.25" cy="712.756" rx="12.751" ry="13.662"/>
  <ellipse cx="859.734" cy="710.682" rx="12.751" ry="13.662"/>
  <ellipse class="cls-2" cx="569.032" cy="161.332" rx="43.126" ry="46.199"/>
</svg>