<svg width="960" height="960" viewBox="0 0 960 960" fill="none" xmlns="http://www.w3.org/2000/svg">
<path d="M531.424 23C632.853 23 734.28 25.0125 835.727 29.0384L844.652 29.3978C904.454 31.8393 951.844 80.7333 952.416 140.583C953.415 245.225 953.133 352.854 951.57 463.471C950.026 572.757 947.274 682.025 943.313 791.292L942.852 803.879C940.735 860.988 896.086 907.409 839.103 911.745C745.931 918.838 643.895 924.545 532.983 928.871C422.907 933.164 312.769 935.757 202.548 936.65L191.904 936.731C190.58 936.741 189.258 936.727 187.938 936.69L187.762 936.684L187.393 936.73C183.566 937.18 179.631 937.08 175.701 936.378L175.188 936.282L111.668 924.086L110.053 923.866C57.2001 916.267 16.6283 872.156 13.9352 818.298L13.8641 816.629C9.28867 687.092 7 567.834 7 458.843C7 355.718 9.04892 252.596 13.1477 149.454L13.5138 140.377C15.7788 85.0623 57.9801 39.759 112.71 33.3808L112.743 33.3769C115.7 33.0334 118.676 32.8063 121.665 32.6971C125.394 32.5606 129.117 32.4262 132.833 32.2939L187.946 29.5602C189.488 29.4837 191.014 29.4957 192.52 29.5916L192.62 29.599L195.417 29.4961C312.717 25.22 423.402 23.0545 527.476 23H531.424ZM530.404 63L531.424 63C425.395 63 312.398 65.2108 192.433 69.6323L189.938 69.725L189.937 69.6868C188.997 69.7216 188.057 69.7565 187.116 69.7916C149.358 71.2 119.041 101.427 117.52 139.181L117.163 148.173C113.054 253.081 111 357.992 111 462.906C111 573.693 113.291 695.022 117.872 826.894C119.144 863.477 147.405 892.904 183.064 896.389L183.113 896.298C185.638 896.576 188.201 896.723 190.795 896.733L201.305 896.65C310.913 895.759 420.459 893.176 529.942 888.9C640.198 884.595 741.58 878.917 834.088 871.866C870.781 869.07 899.53 839.177 900.893 802.403L901.353 789.831C905.298 680.874 908.039 571.899 909.576 462.906C911.132 352.6 911.413 245.286 910.419 140.965C910.052 102.425 879.538 70.9372 841.029 69.3611C737.489 65.1266 633.947 63.0063 530.404 63ZM129.16 72.4496L134.51 72.2595C130.723 72.3943 126.929 72.5312 123.128 72.6703C121.184 72.7414 119.26 72.8888 117.359 73.1097L117.333 73.1127C82.3058 77.1948 54.9464 106.21 53.4803 142.014L53.1152 151.066C49.0384 253.656 47 356.248 47 458.843C47 567.341 49.2797 686.132 53.8391 815.217C55.1166 851.384 82.7726 880.546 117.868 884.546L120.561 885.064C107.084 869.617 98.6498 849.62 97.884 827.589C93.295 695.495 91 573.935 91 462.906C91 354.726 93.1787 246.549 97.536 138.376C98.5962 112.06 110.617 88.6095 129.16 72.4496ZM615.158 274.623C699.674 302.447 752.63 383.955 751.994 472.411C752.138 495.595 748.606 519.287 741.007 542.666C704.371 655.381 586.958 718.444 478.612 683.253C370.265 648.062 312.356 528.05 348.993 415.334C379.067 322.808 463.573 263.74 552.813 265.015C573.494 264.736 594.495 267.82 615.158 274.623ZM552.785 285.027L551.693 285.046C475.759 286.676 404.591 338.732 378.732 419.37C346.391 520.222 397.307 627.173 492.096 658.38C586.825 689.566 689.945 633.427 722.268 532.63C728.702 512.566 731.841 492.26 731.995 472.357C731.437 392.131 682.492 318.871 605.209 293.769C587.854 288.132 570.226 285.299 552.785 285.027ZM220.5 533C224.09 533 227 536.134 227 540C227 543.866 224.09 547 220.5 547C216.91 547 214 543.866 214 540C214 536.134 216.91 533 220.5 533ZM259.5 533C263.09 533 266 536.134 266 540C266 543.866 263.09 547 259.5 547C255.91 547 253 543.866 253 540C253 536.134 255.91 533 259.5 533ZM279.5 514C283.09 514 286 517.134 286 521C286 524.866 283.09 528 279.5 528C275.91 528 273 524.866 273 521C273 517.134 275.91 514 279.5 514ZM831 416C859.932 416 883 441.265 883 472C883 502.735 859.932 528 831 528C802.068 528 779 502.735 779 472C779 441.265 802.068 416 831 416ZM240.5 514C244.09 514 247 517.134 247 521C247 524.866 244.09 528 240.5 528C236.91 528 234 524.866 234 521C234 517.134 236.91 514 240.5 514ZM201.5 514C205.09 514 208 517.134 208 521C208 524.866 205.09 528 201.5 528C197.91 528 195 524.866 195 521C195 517.134 197.91 514 201.5 514ZM831 436C813.54 436 799 451.925 799 472C799 492.075 813.54 508 831 508C848.46 508 863 492.075 863 472C863 451.925 848.46 436 831 436ZM220.5 494C224.09 494 227 497.134 227 501C227 504.866 224.09 508 220.5 508C216.91 508 214 504.866 214 501C214 497.134 216.91 494 220.5 494ZM181.5 494C185.09 494 188 497.134 188 501C188 504.866 185.09 508 181.5 508C177.91 508 175 504.866 175 501C175 497.134 177.91 494 181.5 494ZM299.5 494C303.09 494 306 497.134 306 501C306 504.866 303.09 508 299.5 508C295.91 508 293 504.866 293 501C293 497.134 295.91 494 299.5 494ZM259.5 494C263.09 494 266 497.134 266 501C266 504.866 263.09 508 259.5 508C255.91 508 253 504.866 253 501C253 497.134 255.91 494 259.5 494ZM240.5 475C244.09 475 247 478.134 247 482C247 485.866 244.09 489 240.5 489C236.91 489 234 485.866 234 482C234 478.134 236.91 475 240.5 475ZM279.5 475C283.09 475 286 478.134 286 482C286 485.866 283.09 489 279.5 489C275.91 489 273 485.866 273 482C273 478.134 275.91 475 279.5 475ZM201.5 475C205.09 475 208 478.134 208 482C208 485.866 205.09 489 201.5 489C197.91 489 195 485.866 195 482C195 478.134 197.91 475 201.5 475ZM220.5 454C224.09 454 227 457.134 227 461C227 464.866 224.09 468 220.5 468C216.91 468 214 464.866 214 461C214 457.134 216.91 454 220.5 454ZM181.5 454C185.09 454 188 457.134 188 461C188 464.866 185.09 468 181.5 468C177.91 468 175 464.866 175 461C175 457.134 177.91 454 181.5 454ZM299.5 454C303.09 454 306 457.134 306 461C306 464.866 303.09 468 299.5 468C295.91 468 293 464.866 293 461C293 457.134 295.91 454 299.5 454ZM259.5 454C263.09 454 266 457.134 266 461C266 464.866 263.09 468 259.5 468C255.91 468 253 464.866 253 461C253 457.134 255.91 454 259.5 454ZM240.5 435C244.09 435 247 438.134 247 442C247 445.866 244.09 449 240.5 449C236.91 449 234 445.866 234 442C234 438.134 236.91 435 240.5 435ZM279.5 435C283.09 435 286 438.134 286 442C286 445.866 283.09 449 279.5 449C275.91 449 273 445.866 273 442C273 438.134 275.91 435 279.5 435ZM201.5 435C205.09 435 208 438.134 208 442C208 445.866 205.09 449 201.5 449C197.91 449 195 445.866 195 442C195 438.134 197.91 435 201.5 435ZM220.5 416C224.09 416 227 419.134 227 423C227 426.866 224.09 430 220.5 430C216.91 430 214 426.866 214 423C214 419.134 216.91 416 220.5 416ZM259.5 416C263.09 416 266 419.134 266 423C266 426.866 263.09 430 259.5 430C255.91 430 253 426.866 253 423C253 419.134 255.91 416 259.5 416Z" fill="black"/>
<path d="M831 548C872.973 548 907 513.973 907 472C907 430.027 872.973 396 831 396C789.027 396 755 430.027 755 472C755 513.973 789.027 548 831 548Z" stroke="#00AEEF" stroke-width="21"/>
</svg>
