<svg width="960" height="960" viewBox="0 0 960 960" fill="none" xmlns="http://www.w3.org/2000/svg">
<path d="M88.4598 9.00263L893.854 23.7469C915.656 24.1458 933.122 41.9341 933.122 63.7402V854.255C933.122 875.272 916.857 892.705 895.89 894.159L92.2856 949.907C81.649 950.645 71.1581 947.105 63.1422 940.075L39.8621 919.657C31.2026 912.062 26.2373 901.103 26.2373 889.585V50.7158C26.2373 29.8571 42.2659 12.4999 63.0586 10.8423L84.5494 9.12913C85.8501 9.02543 87.1552 8.98545 88.4598 9.00263ZM97.7273 49.1846L99.5153 909.309L893.122 854.255V63.7402L97.7273 49.1846ZM77.7283 49.7986L66.2373 50.7158V889.585L79.4983 901.216L77.7283 49.7986ZM231.988 171.053L801.04 174.174C812.043 174.234 820.93 183.17 820.93 194.173V736.24C820.93 746.88 812.601 755.657 801.976 756.213L262.085 784.478C258.464 784.668 254.859 783.869 251.657 782.168L222.496 766.679C215.963 763.208 211.879 756.414 211.879 749.016V191.053C211.879 179.964 220.9 170.992 231.988 171.053ZM269.227 191.257L271.036 763.981L800.93 736.24V194.173L269.227 191.257ZM231.879 191.053V749.016L251.021 759.184L249.227 191.148L231.879 191.053ZM556.435 688.592C556.578 691.349 554.459 693.701 551.701 693.844L514.552 695.772C511.794 695.916 509.442 693.796 509.299 691.038C509.156 688.281 511.276 685.929 514.033 685.786L551.183 683.857C553.94 683.714 556.292 685.834 556.435 688.592ZM686.652 639.127C689.413 639.127 691.652 641.366 691.652 644.127L691.651 655.943L704.711 655.298C707.469 655.162 709.816 657.287 709.952 660.045C710.088 662.803 707.963 665.149 705.205 665.286L691.651 665.956L691.652 681.995C691.652 684.757 689.413 686.995 686.652 686.995C683.89 686.995 681.652 684.757 681.652 681.995L681.651 666.45L668.056 667.123C665.298 667.259 662.951 665.134 662.815 662.376C662.679 659.618 664.804 657.272 667.562 657.135L681.651 656.438L681.652 644.127C681.652 641.366 683.89 639.127 686.652 639.127ZM405.183 675.117C405.319 677.875 403.194 680.221 400.436 680.358L363.287 682.195C360.529 682.331 358.182 680.206 358.046 677.448C357.91 674.69 360.035 672.343 362.793 672.207L399.942 670.37C402.7 670.234 405.046 672.359 405.183 675.117ZM556.436 667.982C556.572 670.74 554.447 673.087 551.689 673.223L514.54 675.062C511.782 675.199 509.435 673.073 509.299 670.315C509.162 667.557 511.287 665.211 514.045 665.074L551.195 663.236C553.953 663.099 556.299 665.224 556.436 667.982ZM556.436 647.373C556.566 650.132 554.435 652.473 551.677 652.603L514.528 654.352C511.769 654.482 509.428 652.351 509.298 649.592C509.168 646.834 511.299 644.493 514.057 644.363L551.207 642.614C553.965 642.484 556.306 644.615 556.436 647.373Z" fill="black"/>
<path d="M532.5 748C576.407 748 612 712.407 612 668.5C612 624.593 576.407 589 532.5 589C488.593 589 453 624.593 453 668.5C453 712.407 488.593 748 532.5 748Z" stroke="#00AEEF" stroke-width="15" stroke-miterlimit="10"/>
</svg>
