<?xml version="1.0" encoding="UTF-8"?>
<svg id="Layer_1" data-name="Layer 1" xmlns="http://www.w3.org/2000/svg" width="960" height="960" viewBox="0 0 960 960">
  <defs>
    <style>
      .cls-1 {
        stroke-width: 40px;
      }

      .cls-1, .cls-2, .cls-3 {
        fill: none;
        stroke: #000;
        stroke-linecap: round;
        stroke-linejoin: round;
      }

      .cls-2 {
        stroke-width: 10px;
      }

      .cls-3 {
        stroke-width: 20px;
      }
    </style>
  </defs>
  <path class="cls-3" d="m149.407,926.372c-20.324,0-36.858-16.565-36.858-36.926V70.554c0-20.361,16.535-36.926,36.859-36.926.99,0,1.995.04,2.989.119l742.605,59.004c19.064,1.515,33.999,17.682,33.999,36.807v700.944c0,19.126-14.936,35.294-34.002,36.808l-742.605,58.943c-.993.079-1.998.119-2.986.119Z"/>
  <polygon class="cls-3" points="861.532 752.094 286.978 783.156 286.978 176.918 861.532 207.97 861.532 752.094"/>
  <polyline class="cls-3" points="286.978 176.918 219.29 199.805 219.29 764.045 286.978 783.156"/>
  <path class="cls-3" d="m128.583,28.532l-84.681,50.463c-14.202,8.463-22.902,23.776-22.902,40.309v722.856c0,16.782,8.963,32.287,23.506,40.662l84.077,48.418"/>
  <path class="cls-2" d="m219.29,292.478h0c14.337-3.159,27.918,7.756,27.918,22.437v330.23c0,14.533-13.324,25.415-27.565,22.512l-.353-.072"/>
  <line class="cls-2" x1="247.208" y1="328.127" x2="219.29" y2="332.951"/>
  <line class="cls-2" x1="245.472" y1="365.976" x2="219.29" y2="369.379"/>
  <line class="cls-2" x1="245.472" y1="403.58" x2="219.29" y2="405.861"/>
  <line class="cls-2" x1="247.208" y1="441.321" x2="219.29" y2="442.55"/>
  <line class="cls-2" x1="247.208" y1="479.886" x2="219.29" y2="479.886"/>
  <line class="cls-2" x1="247.208" y1="518.74" x2="219.29" y2="517.511"/>
  <line class="cls-2" x1="247.208" y1="556.633" x2="219.29" y2="554.201"/>
  <line class="cls-2" x1="247.208" y1="594.312" x2="219.29" y2="590.684"/>
  <line class="cls-2" x1="247.208" y1="631.936" x2="219.29" y2="627.113"/>
  <path d="m448.037,706.622l-36.049.997,8.176-14.147,9.115-.258c.892-.023,1.408-1.021.915-1.771l-5.983-8.904c-.469-.703-1.513-.668-1.936.059l-2.1,3.637-.023-.012-12.423,21.514-6.147.164c-3.672.094-6.03-3.859-4.188-7.038l21.878-37.879c1.736-3.015,6.029-3.156,7.965-.27l24.564,36.6c2.064,3.074-.07,7.202-3.766,7.308Z"/>
  <path d="m791.385,655.745l-21.55,34.078c-1.76,2.78-5.76,2.933-7.719.305l-24.81-33.233c-2.287-3.062-.141-7.426,3.684-7.496l34.829-.633-7.32,12.657-9.103.247c-.903.035-1.419,1.032-.927,1.783l5.983,8.904c.469.704,1.513.668,1.935-.059l2.1-3.648.035.023,11.531-19.989,7.273-.129c3.73-.07,6.053,4.035,4.059,7.191Z"/>
  <path d="m621.876,669.857l-21.526,32.518c-.528.798-1.232,1.372-2.018,1.701v-24.799l6.276-9.467c.352-.528.328-1.22-.058-1.713l-6.675-8.622c-.599-.786-1.795-.763-2.358.047l-6.663,9.42c-.363.505-.363,1.185-.012,1.689l5.725,8.188v25.28c-.763-.329-1.455-.868-1.983-1.619l-20.963-29.984c-1.126-1.619-1.126-3.777.012-5.396l21.244-30.031c1.818-2.569,5.619-2.651,7.543-.164l21.256,27.485c1.232,1.595,1.314,3.789.2,5.466Z"/>
  <path class="cls-1" d="m939,129.56v700.94c0,24.48-18.81,44.84-43.21,46.78l-742.61,58.94c-11.71.93-22.69-2.51-31.41-8.9l-77.26-44.5c-14.55-8.37-23.51-23.88-23.51-40.66V119.3c0-16.53,8.7-31.84,22.9-40.31l78.61-46.85,6.07-3.61c7.35-3.67,15.77-5.45,24.61-4.75l742.6,59c24.4,1.94,43.21,22.3,43.21,46.78Z"/>
  <path class="cls-1" d="m128.58,28.53l-6.07,3.61c1.92-1.35,3.95-2.56,6.07-3.61Z"/>
  <path class="cls-3" d="m331.366,359.725v240.546c0,6.758,5.577,12.183,12.332,11.995l470.407-13.03c6.496-.18,11.668-5.497,11.668-11.995v-214.561c0-6.499-5.173-11.817-11.67-11.995l-470.407-12.955c-6.754-.186-12.33,5.239-12.33,11.995Z"/>
</svg>