<?xml version="1.0" encoding="UTF-8"?><svg id="Layer_1" xmlns="http://www.w3.org/2000/svg" viewBox="0 0 141.73 141.73"><defs><style>.cls-1{fill:none;stroke:#000;stroke-linecap:round;stroke-linejoin:round;stroke-width:.33px;}</style></defs><path class="cls-1" d="m52.98,68.63c0,.19.13.42.3.52"/><path class="cls-1" d="m52.69,68.8c0,.19.13.42.3.52.16.09.3.02.3-.17,0-.19-.13-.42-.3-.52-.16-.09-.3-.02-.3.17"/><line class="cls-1" x1="58.3" y1="52.92" x2="59.78" y2="52.06"/><path class="cls-1" d="m58.3,52.91c-.08.05-.15.16-.15.25"/><line class="cls-1" x1="58.15" y1="90.75" x2="58.15" y2="53.18"/><path class="cls-1" d="m58.16,90.74c0,.07.04.11.1.1"/><line class="cls-1" x1="47.81" y1="84.77" x2="58.15" y2="90.75"/><path class="cls-1" d="m47.82,84.77s.02.08.04.1"/><line class="cls-1" x1="47.81" y1="47.21" x2="58.15" y2="53.18"/><path class="cls-1" d="m47.81,47.21c-.24-.14-.44-.03-.44.25"/><line class="cls-1" x1="47.37" y1="84" x2="47.37" y2="47.47"/><path class="cls-1" d="m47.37,84c0,.28.2.62.44.76"/><line class="cls-1" x1="47.96" y1="46.95" x2="58.3" y2="52.92"/><path class="cls-1" d="m47.96,46.95c-.08.05-.15.16-.15.25"/><line class="cls-1" x1="47.96" y1="46.95" x2="49.44" y2="46.09"/><path class="cls-1" d="m47.31,47.37s.02.06.06.08"/><path class="cls-1" d="m47.96,46.95c-.16-.09-.31-.11-.42-.04"/><path class="cls-1" d="m47.31,83.92s.02.06.06.08"/><line class="cls-1" x1="47.85" y1="84.87" x2="58.19" y2="90.84"/><polyline class="cls-1" points="47.85 84.87 47.83 84.85 47.79 84.83 47.76 84.82 47.74 84.79 47.71 84.77 47.69 84.75 47.66 84.72 47.63 84.69 47.61 84.67 47.59 84.64 47.56 84.61 47.54 84.59 47.53 84.56 47.5 84.52 47.48 84.5 47.46 84.46 47.45 84.43 47.43 84.4 47.41 84.37 47.39 84.33 47.38 84.29 47.37 84.27 47.36 84.23 47.35 84.2 47.34 84.16 47.33 84.13 47.32 84.09 47.31 84.06 47.31 84.02 47.3 83.99 47.3 83.96 47.3 83.92 47.3 47.38 47.3 47.34 47.3 47.31 47.31 47.28 47.31 47.24 47.32 47.21 47.33 47.18 47.35 47.15 47.36 47.11 47.38 47.09 47.39 47.06 47.41 47.02 47.43 47 47.46 46.97 47.48 46.95 47.51 46.93 47.54 46.91 49.2 45.95"/><path class="cls-1" d="m74.34,80.96c0,.19.13.42.3.52"/><path class="cls-1" d="m74.05,81.14c0,.19.13.42.3.52.16.09.3.02.3-.17,0-.19-.13-.42-.3-.52-.16-.09-.3-.02-.3.17"/><path class="cls-1" d="m69.18,97.11s.02.08.04.1"/><line class="cls-1" x1="69.17" y1="59.54" x2="69.17" y2="97.11"/><path class="cls-1" d="m69.33,59.28c-.08.05-.15.16-.15.25"/><line class="cls-1" x1="70.8" y1="58.43" x2="69.32" y2="59.28"/><polyline class="cls-1" points="69.32 59.28 79.66 65.25 81.14 64.39"/><line class="cls-1" x1="69.17" y1="59.54" x2="79.51" y2="65.51"/><path class="cls-1" d="m79.67,65.25c-.08.05-.15.16-.15.25"/><line class="cls-1" x1="69.17" y1="97.11" x2="79.51" y2="103.08"/><path class="cls-1" d="m79.52,103.07c.24.14.44.03.44-.25"/><line class="cls-1" x1="79.95" y1="66.28" x2="79.95" y2="102.82"/><path class="cls-1" d="m79.96,66.27c0-.28-.2-.62-.44-.76"/><path class="cls-1" d="m79.96,102.82c.08.05.21.05.29,0"/><path class="cls-1" d="m79.52,103.07s.02.08.04.1"/><path class="cls-1" d="m80.09,103.2c.11-.06.17-.2.17-.38"/><path class="cls-1" d="m79.96,66.27c.08.05.21.05.29,0"/><line class="cls-1" x1="80.25" y1="102.82" x2="80.25" y2="66.28"/><path class="cls-1" d="m80.26,66.27c0-.38-.27-.84-.59-1.02"/><line class="cls-1" x1="80.25" y1="102.82" x2="81.69" y2="101.99"/><line class="cls-1" x1="80.25" y1="66.28" x2="81.69" y2="65.45"/><polyline class="cls-1" points="81.69 102.28 80.08 103.2 80.04 103.22 80.02 103.23 79.98 103.25 79.95 103.25 79.91 103.26 79.87 103.26 79.84 103.26 79.8 103.26 79.78 103.26 79.74 103.25 79.71 103.24 79.68 103.23 79.64 103.21 79.62 103.2 79.58 103.19 79.56 103.17 69.22 97.2"/><path class="cls-1" d="m63.66,74.8c0,.19.13.42.3.52"/><path class="cls-1" d="m63.37,74.96c0,.19.13.42.3.52.16.09.3.02.3-.17,0-.19-.13-.42-.3-.52-.16-.09-.3-.02-.3.17"/><path class="cls-1" d="m69.09,97.05c0,.07.04.11.1.1"/><line class="cls-1" x1="70.71" y1="58.37" x2="69.23" y2="59.23"/><path class="cls-1" d="m69.24,59.23c-.08.05-.15.16-.15.25"/><line class="cls-1" x1="69.08" y1="59.49" x2="69.08" y2="97.06"/><path class="cls-1" d="m58.25,90.79s.02.08.04.1"/><line class="cls-1" x1="58.24" y1="90.79" x2="69.08" y2="97.06"/><line class="cls-1" x1="58.24" y1="53.23" x2="58.24" y2="90.79"/><line class="cls-1" x1="58.24" y1="53.23" x2="69.08" y2="59.49"/><path class="cls-1" d="m58.39,52.97c-.08.05-.15.16-.15.25"/><line class="cls-1" x1="58.39" y1="52.97" x2="69.23" y2="59.23"/><line class="cls-1" x1="59.87" y1="52.11" x2="58.39" y2="52.97"/><line class="cls-1" x1="58.28" y1="90.89" x2="69.13" y2="97.15"/><path class="cls-1" d="m63.66,74.8c0,.19.13.42.3.52"/><polyline class="cls-1" points="81.69 64.71 81.69 102.97 81.09 102.62"/><polyline class="cls-1" points="47.15 43.15 83.1 63.9 83.1 105.4 47.15 84.65 47.15 43.15"/><polyline class="cls-1" points="81.69 64.71 48.56 45.59 48.56 46.32"/><path class="cls-1" d="m49.44,28.67c-.7-.4-1.36-.43-1.81-.07"/><line class="cls-1" x1="49.44" y1="28.67" x2="94.42" y2="54.65"/><path class="cls-1" d="m96.78,58.72c0-1.51-1.06-3.33-2.36-4.09"/><line class="cls-1" x1="96.78" y1="110.66" x2="96.78" y2="58.73"/><path class="cls-1" d="m95.94,112.25c.53-.21.84-.79.84-1.6"/><polyline class="cls-1" points="96.78 110.66 94.35 111.61 94.35 60.13 96.78 58.73"/><path class="cls-1" d="m94.12,112.46c.16-.26.24-.56.24-.86"/><path class="cls-1" d="m93.27,113.31c.3-.12.6-.41.85-.84"/><line class="cls-1" x1="91.78" y1="112.96" x2="47.2" y2="87.22"/><path class="cls-1" d="m47.2,87.21s.02.01.02.02"/><path class="cls-1" d="m91.79,112.96s.02.01.02.02"/><path class="cls-1" d="m92.37,113.26s.04.03.07.04"/><path class="cls-1" d="m91.79,112.95c.23.13.42.23.57.3"/><path class="cls-1" d="m93.82,112.42c.11.05.22.07.3.05"/><path class="cls-1" d="m92.37,113.25c.45.19.98-.12,1.46-.84"/><path class="cls-1" d="m94.04,111.66c.12,0,.23-.01.32-.06"/><path class="cls-1" d="m93.82,112.41c.14-.23.22-.49.22-.76"/><line class="cls-1" x1="94.03" y1="60.18" x2="94.03" y2="111.66"/><path class="cls-1" d="m94.04,60.18c.12,0,.23-.01.32-.06"/><polyline class="cls-1" points="46.44 86.75 47.48 86.14 83.95 107.19"/><path class="cls-1" d="m46.44,86.73c.27.18.53.34.76.47"/><line class="cls-1" x1="83.95" y1="107.19" x2="92.36" y2="113.25"/><path class="cls-1" d="m83.95,107.19c.29.08.83-.23,1.46-.84"/><polyline class="cls-1" points="93.81 112.42 85.4 106.36 85.4 64.25"/><path class="cls-1" d="m94.04,60.18c0-.27-.07-.53-.22-.79"/><line class="cls-1" x1="93.81" y1="59.39" x2="85.4" y2="64.25"/><path class="cls-1" d="m83.1,105.39c.62.47,1.43.8,2.31.95"/><path class="cls-1" d="m83.1,63.9c.62.25,1.43.37,2.31.35"/><path class="cls-1" d="m83.1,105.4c.09.77.39,1.4.85,1.79"/><path class="cls-1" d="m47.16,84.64c-.09.66.02,1.19.33,1.49"/><path class="cls-1" d="m46.44,86.74s0,0,0,0"/><path class="cls-1" d="m44.98,84.23c.06,1.03.59,1.95,1.45,2.51"/><path class="cls-1" d="m44.98,84.22s0,0,0,0"/><path class="cls-1" d="m44.96,83.33c0,.27,0,.57.03.9"/><path class="cls-1" d="m44.95,83.3s0,.02,0,.03"/><line class="cls-1" x1="44.95" y1="31.85" x2="44.95" y2="83.33"/><path class="cls-1" d="m44.95,31.81s0,.02,0,.03"/><path class="cls-1" d="m46.03,83.61c.08,1.02.61,1.94,1.46,2.52"/><polyline class="cls-1" points="44.98 84.22 46.03 83.62 46.03 41.52 44.98 31.2"/><path class="cls-1" d="m44.98,31.19c-.02.16-.03.38-.03.65"/><path class="cls-1" d="m46.04,83.62c.11.42.51.78,1.13,1.03"/><path class="cls-1" d="m46.03,41.51c.11.59.51,1.16,1.13,1.63"/><polyline class="cls-1" points="49.44 28.67 47.4 30.3 91.99 56.04 94.42 54.65"/><path class="cls-1" d="m92.66,56.7c-.18-.28-.4-.51-.66-.66"/><path class="cls-1" d="m94.12,59.22c-.43-.81-.97-1.74-1.46-2.52"/><path class="cls-1" d="m94.36,60.12c0-.3-.08-.61-.24-.9"/><line class="cls-1" x1="91.78" y1="56.29" x2="47.2" y2="30.55"/><path class="cls-1" d="m92,56.03c-.08.06-.16.15-.21.25"/><path class="cls-1" d="m47.41,30.3c-.08.06-.16.15-.21.25"/><path class="cls-1" d="m92.36,56.87c-.15-.25-.34-.45-.57-.58"/><path class="cls-1" d="m92.67,56.7c-.11.03-.21.1-.3.17"/><path class="cls-1" d="m92.36,56.87c.45.8.98,1.73,1.46,2.52"/><path class="cls-1" d="m93.81,59.39c.11-.04.22-.1.3-.17"/><polyline class="cls-1" points="47.48 40.68 83.95 61.73 92.36 56.88"/><path class="cls-1" d="m47.21,30.54c-.23-.13-.49-.2-.76-.19"/><line class="cls-1" x1="47.48" y1="40.68" x2="46.44" y2="30.36"/><path class="cls-1" d="m83.95,61.73c.29.89.83,1.82,1.46,2.52"/><path class="cls-1" d="m83.95,61.72c-.46.74-.76,1.51-.85,2.17"/><path class="cls-1" d="m47.49,40.67c-.31.83-.42,1.7-.33,2.47"/><path class="cls-1" d="m47.41,30.3c-.27-.15-.56-.23-.87-.22"/><path class="cls-1" d="m46.54,30.07c-.5,0-.9.11-1.15.32"/><path class="cls-1" d="m46.54,30.07c-.06.06-.09.17-.1.28"/><path class="cls-1" d="m44.98,31.12s0,.05,0,.08"/><path class="cls-1" d="m46.44,30.35c-.86.05-1.39.36-1.45.84"/><path class="cls-1" d="m47.48,40.67c-.84.24-1.38.55-1.46.84"/><line class="cls-1" x1="95.93" y1="112.26" x2="93.26" y2="113.31"/><polyline class="cls-1" points="44.95 31.81 44.95 83.3 44.95 83.35 44.95 83.4 44.95 83.45 44.95 83.52 44.95 83.57 44.96 83.62 44.96 83.68 44.96 83.74 44.96 83.8 44.96 83.85 44.97 83.91 44.97 83.98 44.97 84.04 44.97 84.09 44.98 84.15 44.98 84.22 44.99 84.31 44.99 84.41 45 84.5 45.02 84.6 45.04 84.69 45.06 84.78 45.08 84.87 45.11 84.97 45.14 85.06 45.16 85.14 45.2 85.23 45.23 85.32 45.28 85.41 45.31 85.49 45.36 85.58 45.4 85.66 45.45 85.74 45.51 85.82 45.56 85.9 45.61 85.98 45.67 86.05 45.73 86.13 45.79 86.2 45.85 86.27 45.92 86.33 45.99 86.4 46.07 86.46 46.14 86.53 46.21 86.59 46.29 86.64 46.36 86.69 46.44 86.75 46.49 86.78 46.54 86.82 46.6 86.85 46.65 86.88 46.69 86.92 46.75 86.95 46.8 86.98 46.84 87.01 46.9 87.04 46.94 87.07 46.99 87.1 47.04 87.13 47.08 87.15 47.13 87.18 47.18 87.21 47.22 87.23 91.81 112.98 91.85 113 91.9 113.02 91.94 113.05 91.99 113.08 92.02 113.09 92.07 113.12 92.1 113.14 92.15 113.16 92.18 113.18 92.22 113.2 92.25 113.22 92.29 113.24 92.32 113.25 92.36 113.26 92.39 113.28 92.43 113.3 92.47 113.32 92.53 113.33 92.58 113.35 92.63 113.36 92.69 113.37 92.74 113.38 92.79 113.39 92.84 113.39 92.9 113.39 92.95 113.38 93 113.38 93.06 113.37 93.11 113.35 93.16 113.34 93.21 113.32 93.26 113.31"/><polyline class="cls-1" points="47.63 28.6 45.39 30.4 45.35 30.43 45.31 30.47 45.27 30.5 45.23 30.54 45.2 30.58 45.17 30.63 45.14 30.67 45.11 30.72 45.08 30.76 45.06 30.81 45.04 30.87 45.02 30.91 45.01 30.96 44.99 31.02 44.99 31.07 44.98 31.12 44.98 31.16 44.98 31.19 44.97 31.23 44.97 31.27 44.97 31.31 44.96 31.35 44.96 31.39 44.96 31.43 44.96 31.48 44.96 31.52 44.95 31.57 44.95 31.62 44.95 31.66 44.95 31.72 44.95 31.76 44.95 31.81"/></svg>