<?xml version="1.0" encoding="UTF-8"?>
<svg id="Layer_1" xmlns="http://www.w3.org/2000/svg" version="1.1" viewBox="0 0 16 16">
  <!-- Generator: Adobe Illustrator 29.3.1, SVG Export Plug-In . SVG Version: 2.1.0 Build 151)  -->
  <defs>
    <style>
      .st0 {
        fill: none;
        stroke: #000;
        stroke-linejoin: round;
      }
    </style>
  </defs>
  <rect class="st0" x=".5" y="6.2" width="14.3" height="9.1" rx="1.7" ry="1.7"/>
  <path d="M11.5,5.3h2.5c.1,0,.2,0,.2,0l-.3.4s-.2,0-.3,0h-2.5c-.1,0-.2,0-.2,0l.4-.4s.1,0,.2,0Z"/>
  <polygon points="14.2 6.1 14.2 5.4 13.4 5.5 13 6.2 14.2 6.1"/>
  <g>
    <path d="M12.7.9c1.1,0,2.1.5,2.8,1.2l.5-.5c-.9-.9-2-1.3-3.3-1.3s-2.4.5-3.3,1.3l.5.5c.7-.7,1.7-1.2,2.8-1.2Z"/>
    <path d="M12.7,2.2c.7,0,1.4.3,1.8.7l.5-.5c-.6-.6-1.4-1-2.4-1s-1.7.4-2.4,1l.5.5c.5-.5,1.2-.7,1.8-.7h.2Z"/>
    <path d="M12.7,3.5c.4,0,.7,0,.9.4l.5-.5c-.4-.3-.9-.6-1.4-.6s-1,.2-1.4.6l.5.5c.2-.2.6-.4.9-.4h0Z"/>
    <path d="M13.2,4.4c-.1,0-.3-.2-.5-.2s-.3,0-.5.2l.5.5.5-.5Z"/>
  </g>
</svg>