<?xml version="1.0" encoding="UTF-8"?>
<svg id="Layer_1" data-name="Layer 1" xmlns="http://www.w3.org/2000/svg" width="960" height="960" viewBox="0 0 960 960">
  <defs>
    <style>
      .cls-1, .cls-2, .cls-3, .cls-4 {
        fill: none;
        stroke: #000;
        stroke-linejoin: round;
      }

      .cls-1, .cls-3 {
        stroke-width: 10px;
      }

      .cls-2 {
        stroke-width: 40px;
      }

      .cls-3 {
        stroke-linecap: round;
      }

      .cls-4 {
        stroke-width: 20px;
      }
    </style>
  </defs>
  <path class="cls-4" d="m939,190.097v579.838c0,44.796-34.355,82.102-78.999,85.786-186.804,15.418-640.054,51.687-640.054,51.687-2.141.172-4.314.258-6.456.258-44.082,0-79.956-35.926-79.956-80.084V132.417c0-44.158,35.873-80.085,79.956-80.085,2.141,0,4.315.086,6.467.258,0,0,453.245,36.297,640.045,51.72,44.643,3.686,78.996,40.992,78.996,85.786Z"/>
  <path class="cls-1" d="m899.35,185.531v588.976c0,27.896-21.314,51.163-49.103,53.594-192.054,16.8-628.9,52.313-628.9,52.313-1.517.118-3.056.183-4.562.183-30.956,0-56.133-25.232-56.133-56.252V135.656c0-31.02,25.178-56.252,56.133-56.252,1.506,0,3.045.065,4.573.183,0,0,436.846,35.531,628.895,52.351,27.787,2.434,49.098,25.7,49.098,53.593Z"/>
  <path class="cls-4" d="m170.782,52.287l-103.729,58.784c-28.462,16.13-46.053,46.317-46.053,79.032v579.791c0,32.714,17.59,62.901,46.051,79.031l103.731,58.788"/>
  <path class="cls-2" d="m939,179.114v601.81c0,44.818-34.387,82.136-79.056,85.791-186.672,15.275-639.135,51.422-639.135,51.422-18.066,1.431-35.249-2.507-50.022-10.427l-.043-.021-3.615-2.055-100.077-56.715c-28.459-16.129-46.051-46.31-46.051-79.031V190.1c0-32.71,17.592-62.902,46.051-79.03l100.098-56.715,3.594-2.044.043-.022c14.773-7.919,31.957-11.857,50.022-10.426,0,0,452.471,36.175,639.14,51.46,44.667,3.658,79.051,40.974,79.051,85.791Z"/>
  <ellipse class="cls-1" cx="572.595" cy="751.88" rx="52.731" ry="56.488"/>
  <ellipse class="cls-1" cx="798.343" cy="738.544" rx="49.964" ry="53.523"/>
  <ellipse class="cls-1" cx="339.919" cy="764.776" rx="55.238" ry="59.173"/>
  <ellipse cx="226.012" cy="784.726" rx="36.615" ry="39.223"/>
  <ellipse cx="200.191" cy="712.398" rx="10.793" ry="11.562"/>
  <polyline class="cls-3" points="358.019 755.954 340.137 773.804 322.136 758.246"/>
  <polyline class="cls-3" points="780.402 744.179 798.284 726.33 816.285 741.887"/>
  <polygon class="cls-1" points="591.795 770.699 551.511 772.998 551.511 732.714 591.795 731.025 591.795 770.699"/>
</svg>