<?xml version="1.0" encoding="UTF-8"?><svg id="Layer_1" xmlns="http://www.w3.org/2000/svg" viewBox="0 0 141.73 141.73"><defs><style>.cls-1{fill:none;stroke:#000;stroke-linecap:round;stroke-linejoin:round;stroke-width:.33px;}</style></defs><polyline class="cls-1" points="73.96 82.05 74.66 81.7 74.08 80.66"/><line class="cls-1" x1="73.62" y1="87.78" x2="73.27" y2="86.09"/><line class="cls-1" x1="61.37" y1="68.95" x2="63.53" y2="70.19"/><line class="cls-1" x1="65.11" y1="71.07" x2="65.72" y2="69.96"/><polyline class="cls-1" points="51.52 73.84 52.79 74.04 53.09 70.73 52.25 69.15"/><polyline class="cls-1" points="53.21 70.23 57.29 72.54 57.98 72.19 57.41 71.15"/><polyline class="cls-1" points="59.95 73.11 60.95 72.61 61.26 69.26"/><polyline class="cls-1" points="67.03 84.01 67.07 84.05 67.15 84.05 67.19 84.09 67.23 84.09 67.26 84.09 67.3 84.09 67.38 84.09 67.42 84.09 67.46 84.05 67.5 84.01 67.53 83.97 67.57 83.93 67.57 83.89 67.61 83.86 67.61 83.82 67.65 83.78 67.65 83.7 67.65 83.66 67.65 83.59 67.65 83.55 67.61 83.47 67.61 83.39 67.61 83.32 67.57 83.28 67.57 83.2 67.53 83.12 67.5 83.09 67.46 83.01 67.42 82.97 67.38 82.89 67.34 82.85"/><polyline class="cls-1" points="68.96 78.27 70 77.73 70.31 74.42"/><polyline class="cls-1" points="73.96 87.98 74 87.98 74.04 87.98 74.08 87.98 74.12 87.98 74.16 87.98 74.19 87.98 74.23 87.98 74.27 87.98 74.31 87.98 74.35 87.98 74.39 87.94 74.43 87.94 74.46 87.94 74.5 87.9 74.54 87.9 74.58 87.86 74.62 87.86 74.62 87.82 74.66 87.78 74.7 87.74 74.7 87.71 74.73 87.67 74.77 87.63 74.77 87.59 74.77 87.55 74.81 87.47 74.81 87.4 74.81 87.36 74.81 87.28 74.81 87.24 74.81 87.21 74.81 87.17 74.85 87.09 74.85 87.01 74.85 86.97 74.85 86.9 74.85 86.82 74.85 86.74 74.89 86.67 74.89 86.59 74.89 86.51 74.89 86.44 74.89 86.36 74.89 86.28 74.93 86.17 74.93 86.09 74.93 85.9 74.96 85.7 74.96 85.51 75 85.32 75.04 84.93 75.04 84.74 75.08 84.51 75.08 84.32 75.08 84.16 75.12 83.97 75.12 83.86 75.12 83.78 75.12 83.7 75.16 83.62 75.16 83.55 75.16 83.47 75.16 83.39 75.16 83.32 75.2 83.24 75.2 83.16 75.2 83.09 75.2 83.05 75.2 82.97 75.2 82.93 75.2 82.85 75.23 82.82 75.23 82.78 75.23 82.74 75.23 82.7 75.23 82.66 75.23 82.62 75.23 82.58 74.96 82.08"/><line class="cls-1" x1="64.57" y1="82.62" x2="64.22" y2="80.97"/><line class="cls-1" x1="59.83" y1="79.93" x2="63.53" y2="82.01"/><polyline class="cls-1" points="53.71 64.6 57.45 66.72 58.06 65.6"/><polyline class="cls-1" points="52.21 75.58 56.95 78.27 56.56 76.58"/><polyline class="cls-1" points="59.1 67.11 59.1 67.07 59.1 67.03 59.1 66.99 59.1 66.95 59.06 66.91 59.06 66.88 59.06 66.84 59.06 66.8 59.06 66.76 59.02 66.72 59.02 66.68 59.02 66.64 58.99 66.61 58.99 66.57 58.95 66.53 58.95 66.49 58.91 66.41 58.87 66.37 58.87 66.34 58.83 66.3 58.79 66.22 58.75 66.18 58.72 66.14 58.68 66.11 58.64 66.03"/><polyline class="cls-1" points="58.33 72.19 58.64 72.03 59.1 67.11"/><line class="cls-1" x1="60.83" y1="74.58" x2="63.53" y2="76.12"/><polyline class="cls-1" points="64.92 76.89 65.61 76.54 65.07 75.5"/><polyline class="cls-1" points="64.95 82.82 64.99 82.82 65.03 82.82 65.07 82.82 65.11 82.82 65.15 82.82 65.18 82.82 65.22 82.82 65.26 82.82 65.3 82.82 65.34 82.82 65.38 82.82 65.38 82.78 65.42 82.78 65.45 82.78 65.49 82.74 65.53 82.74 65.57 82.7 65.61 82.66 65.65 82.62 65.65 82.58 65.69 82.55 65.72 82.51 65.72 82.47 65.72 82.43 65.76 82.39 65.76 82.32 65.76 82.28 65.76 82.24 65.76 82.2 65.76 82.16 65.8 82.12 65.8 82.05 65.8 82.01 65.8 81.93 65.8 81.85 65.8 81.78 65.84 81.74 65.84 81.66 65.84 81.58 65.84 81.47 65.84 81.39 65.84 81.31 65.88 81.24 65.88 81.12 65.88 81.04 65.88 80.93 65.92 80.85 65.92 80.62 65.95 80.43 65.95 80.24 65.99 80.01 65.99 79.58 66.03 79.39 66.03 79.16 66.07 78.97 66.07 78.89 66.07 78.77 66.11 78.7 66.11 78.58 66.11 78.5 66.11 78.43 66.11 78.31 66.15 78.23 66.15 78.16 66.15 78.08 66.15 78 66.15 77.96 66.15 77.89 66.19 77.81 66.19 77.77 66.19 77.69 66.19 77.66 66.19 77.62 66.19 77.58 66.19 77.54 66.19 77.5 66.19 77.46 66.22 77.46 66.22 77.43 65.95 76.96"/><line class="cls-1" x1="74.12" y1="76.23" x2="74.73" y2="75.12"/><line class="cls-1" x1="74.66" y1="81.7" x2="74.66" y2="81.7"/><line class="cls-1" x1="58.68" y1="72" x2="58.64" y2="72.03"/><line class="cls-1" x1="59.14" y1="67.11" x2="59.1" y2="67.11"/><line class="cls-1" x1="56.95" y1="78.27" x2="56.95" y2="78.27"/><line class="cls-1" x1="53.09" y1="70.69" x2="53.09" y2="70.73"/><line class="cls-1" x1="52.83" y1="74.04" x2="52.79" y2="74.04"/><line class="cls-1" x1="65.61" y1="76.54" x2="65.61" y2="76.54"/><line class="cls-1" x1="70.04" y1="77.73" x2="70" y2="77.73"/><line class="cls-1" x1="60.99" y1="72.57" x2="60.95" y2="72.61"/><line class="cls-1" x1="57.98" y1="72.19" x2="57.98" y2="72.19"/><line class="cls-1" x1="75.23" y1="82.58" x2="75.23" y2="82.58"/><line class="cls-1" x1="66.22" y1="77.43" x2="66.22" y2="77.43"/><line class="cls-1" x1="65.8" y1="82.28" x2="65.76" y2="82.28"/><line class="cls-1" x1="57.52" y1="66.68" x2="57.45" y2="66.72"/><line class="cls-1" x1="67.57" y1="83.97" x2="67.46" y2="84.05"/><line class="cls-1" x1="74.7" y1="87.78" x2="74.54" y2="87.9"/><line class="cls-1" x1="65.69" y1="82.66" x2="65.49" y2="82.74"/><polyline class="cls-1" points="63.45 101.37 63.61 101.45 63.72 101.49 63.84 101.57 63.95 101.61 64.07 101.64 64.18 101.68 64.3 101.72 64.38 101.76 64.49 101.76 64.61 101.76 64.72 101.8 64.84 101.8 64.92 101.8 65.03 101.8 65.11 101.8 65.22 101.76 65.3 101.76 65.42 101.72 65.49 101.68 65.57 101.64 65.65 101.61 65.72 101.57 65.8 101.53 65.88 101.45 65.95 101.41 66.03 101.34 66.11 101.3 66.15 101.22 66.22 101.14 66.26 101.07 66.34 100.95 66.38 100.87 66.42 100.8 66.46 100.68 66.49 100.6 66.53 100.49 66.57 100.37 66.61 100.26 66.61 100.14 66.65 100.03 66.65 99.87 66.69 99.76 66.69 99.64 66.69 99.49 66.69 99.33 66.69 99.22 66.65 99.06 66.65 98.91 66.61 98.79 66.61 98.64 66.57 98.49 66.53 98.33 66.49 98.22 66.46 98.06 66.42 97.91 66.38 97.76 66.34 97.6 66.26 97.49 66.22 97.33 66.15 97.18 66.11 97.02 66.03 96.91 65.95 96.75 65.88 96.6"/><path class="cls-1" d="m63.48,94.28c-1.2-.7-2.28-.48-2.72.56-.44,1.03-.14,2.67.74,4.11"/><line class="cls-1" x1="66.03" y1="101.41" x2="65.72" y2="101.57"/><polyline class="cls-1" points="75.04 104.96 76.43 104.15 76.43 104.19"/><line class="cls-1" x1="77.81" y1="106.53" x2="77.89" y2="106.46"/><polyline class="cls-1" points="85.67 83.93 85.67 83.43 85.67 83.35 85.67 83.32 85.67 83.24 85.67 83.16 85.63 83.09 85.63 83.01 85.59 82.97 85.55 82.89"/><line class="cls-1" x1="86.09" y1="86.9" x2="86.09" y2="84.16"/><line class="cls-1" x1="85.71" y1="83.93" x2="85.67" y2="83.93"/><polyline class="cls-1" points="84.4 83.2 84.36 83.16 84.36 82.7 84.36 82.66 84.36 82.62 84.4 82.58 84.4 82.55 84.4 82.51 84.4 82.47 84.44 82.43 84.48 82.39 84.51 82.35 84.55 82.32 84.59 82.32 84.63 82.28 84.67 82.28 84.71 82.28 84.78 82.28 84.82 82.32 84.86 82.32 84.9 82.32 84.94 82.35"/><line class="cls-1" x1="84.4" y1="82.66" x2="84.36" y2="82.7"/><line class="cls-1" x1="84.4" y1="83.16" x2="84.36" y2="83.16"/><line class="cls-1" x1="85.71" y1="83.93" x2="85.67" y2="83.93"/><line class="cls-1" x1="85.71" y1="83.43" x2="85.67" y2="83.43"/><polyline class="cls-1" points="77.62 79.04 77.66 79.04 77.7 79.08 77.74 79.08 77.78 79.08 77.81 79.08 77.85 79.08 77.89 79.08 77.93 79.08 77.97 79.08 78.01 79.04 78.05 79.04 78.05 79 78.08 78.97 78.08 78.93 78.12 78.89 78.12 78.85 78.12 78.81 78.12 78.77 78.12 78.73 78.12 78.7 78.12 78.66 78.08 78.62 78.08 78.58 78.08 78.54 78.05 78.46 78.05 78.43 78.05 78.39 78.01 78.35"/><line class="cls-1" x1="78.08" y1="79" x2="78.01" y2="79.08"/><polyline class="cls-1" points="79.93 89.9 79.97 89.94 80.05 89.94 80.09 89.98 80.12 89.98 80.2 89.98 80.24 89.98 80.28 89.98 80.36 89.98 80.39 89.94 80.43 89.94 80.47 89.9 80.51 89.86 80.55 89.82 80.59 89.79 80.59 89.71 80.62 89.67 80.62 89.63 80.62 89.59 80.66 89.55 80.66 89.52 80.66 89.48 80.66 89.44 80.66 89.4 80.66 89.36 80.66 89.28 80.66 89.25 80.66 89.17 80.66 89.09 80.66 89.01 80.66 88.94 80.62 88.86 80.62 88.78 80.59 88.71 80.55 88.63 80.55 88.55 80.51 88.48 80.47 88.4"/><polyline class="cls-1" points="79.51 89.21 79.47 89.17 79.47 89.13 79.43 89.09 79.43 89.05 79.39 89.01 79.39 88.98 79.39 88.94 79.35 88.9 79.35 88.86 79.35 88.82 79.35 88.78 79.35 88.75 79.32 88.71 79.32 88.63 79.32 88.59 79.32 88.55 79.32 88.51 79.32 88.48 79.32 88.44 79.32 88.4 79.35 88.36 79.35 88.32 79.35 88.28 79.35 88.24 79.39 88.21 79.39 88.17 79.43 88.17 79.43 88.13 79.43 88.09 79.47 88.09 79.51 88.05 79.55 88.05 79.59 88.01 79.62 88.01 79.66 88.01 79.7 88.01 79.74 88.05 79.78 88.05 79.82 88.05 79.85 88.09 79.89 88.09"/><line class="cls-1" x1="79.35" y1="88.55" x2="79.32" y2="88.55"/><line class="cls-1" x1="80.55" y1="89.86" x2="80.43" y2="89.94"/><polyline class="cls-1" points="85.75 64.95 85.9 64.87 86.05 62.72 86.05 62.68 86.05 62.64 86.05 62.6 86.05 62.56 86.02 62.52 86.02 62.49 86.02 62.45 85.98 62.41"/><line class="cls-1" x1="86.09" y1="62.72" x2="86.05" y2="62.72"/><line class="cls-1" x1="85.9" y1="64.87" x2="85.9" y2="64.87"/><path class="cls-1" d="m44.9,87.75c0-1.61-1.14-3.56-2.53-4.36s-2.52-.14-2.52,1.46c0,1.61,1.14,3.56,2.53,4.36s2.52.14,2.52-1.46"/><line class="cls-1" x1="64.07" y1="96.87" x2="62.84" y2="96.18"/><line class="cls-1" x1="64.11" y1="96.87" x2="64.07" y2="96.87"/><line class="cls-1" x1="62.87" y1="96.18" x2="62.84" y2="96.18"/><polyline class="cls-1" points="62.84 96.18 62.8 96.14 62.76 96.14 62.72 96.14 62.68 96.14 62.64 96.14 62.61 96.14 62.57 96.14 62.57 96.18 62.53 96.18 62.53 96.22 62.49 96.25 62.49 96.29 62.49 96.33 62.45 96.37 62.45 96.41 62.45 97.79 62.45 97.87 62.49 97.91 62.49 97.95 62.49 97.99 62.53 98.06 62.53 98.1 62.57 98.14 62.57 98.18 62.61 98.26 62.64 98.29 62.68 98.33 62.72 98.37 62.76 98.41 62.76 98.45 62.8 98.45 62.84 98.49"/><line class="cls-1" x1="62.14" y1="97.64" x2="62.14" y2="96.22"/><line class="cls-1" x1="62.14" y1="97.6" x2="62.14" y2="97.64"/><line class="cls-1" x1="62.14" y1="96.22" x2="62.14" y2="96.22"/><polyline class="cls-1" points="62.14 96.22 62.14 96.18 62.14 96.14 62.14 96.1 62.14 96.06 62.14 96.02 62.18 95.98 62.18 95.95 62.22 95.91 62.22 95.87 62.26 95.87 62.26 95.83 62.3 95.79 62.34 95.75 62.37 95.75 62.41 95.71 62.45 95.71 62.49 95.71 62.53 95.71 62.57 95.71 62.61 95.71 62.64 95.71 62.68 95.71 62.72 95.75 62.76 95.75 62.8 95.75 62.84 95.79 64.07 96.48 64.11 96.52 64.15 96.56 64.18 96.56 64.22 96.6 64.26 96.64 64.3 96.64 64.34 96.68 64.34 96.72 64.38 96.75 64.41 96.79 64.45 96.83 64.49 96.87 64.49 96.91 64.53 96.95 64.57 96.99 64.57 97.02 64.61 97.06 64.65 97.1 64.65 97.18 64.68 97.22 64.68 97.25 64.72 97.29 64.72 97.33 64.72 97.37 64.76 97.45 64.76 97.49 64.76 97.52 64.76 97.56 64.8 97.6 64.8 97.64 64.8 97.68 64.8 97.72"/><polyline class="cls-1" points="62.84 98.49 64.07 99.18 64.11 99.22 64.15 99.22 64.18 99.22 64.22 99.22 64.26 99.22 64.3 99.22 64.34 99.22 64.38 99.18 64.41 99.18 64.41 99.14 64.45 99.1 64.45 99.06 64.45 99.03 64.45 98.99 64.45 98.95"/><line class="cls-1" x1="64.49" y1="98.95" x2="64.45" y2="98.95"/><line class="cls-1" x1="64.45" y1="98.95" x2="64.45" y2="97.56"/><line class="cls-1" x1="64.49" y1="97.52" x2="64.45" y2="97.56"/><polyline class="cls-1" points="64.45 97.56 64.45 97.49 64.45 97.45 64.45 97.41 64.45 97.37 64.41 97.29 64.41 97.25 64.38 97.22 64.34 97.18 64.34 97.1 64.3 97.06 64.26 97.02 64.22 96.99 64.18 96.95 64.15 96.91 64.11 96.91 64.07 96.87"/><polyline class="cls-1" points="64.8 97.72 64.8 99.14 64.8 99.18 64.8 99.22 64.8 99.26 64.76 99.3 64.76 99.33 64.76 99.37 64.72 99.41 64.72 99.45 64.72 99.49 64.68 99.49 64.68 99.53 64.65 99.56 64.61 99.6 64.57 99.6 64.53 99.64 64.49 99.64 64.45 99.64 64.41 99.64 64.38 99.64 64.34 99.64 64.3 99.64 64.26 99.64 64.22 99.6 64.18 99.6 64.15 99.6 64.11 99.56 64.07 99.56"/><line class="cls-1" x1="64.11" y1="99.53" x2="64.07" y2="99.56"/><line class="cls-1" x1="64.07" y1="99.56" x2="62.84" y2="98.87"/><line class="cls-1" x1="62.87" y1="98.83" x2="62.84" y2="98.87"/><polyline class="cls-1" points="62.84 98.87 62.84 98.83 62.8 98.79 62.76 98.79 62.72 98.76 62.68 98.72 62.64 98.72 62.61 98.68 62.57 98.64 62.57 98.6 62.53 98.56 62.49 98.53 62.45 98.49 62.41 98.45 62.41 98.41 62.37 98.37 62.34 98.33 62.34 98.29 62.3 98.26 62.3 98.18 62.26 98.14 62.26 98.1 62.22 98.06 62.22 98.02 62.18 97.99 62.18 97.91 62.18 97.87 62.14 97.83 62.14 97.79 62.14 97.76 62.14 97.72 62.14 97.68 62.14 97.64"/><polyline class="cls-1" points="50.55 86.97 50.48 86.94 50.4 86.9 50.32 86.86 50.25 86.82 50.17 86.78 50.09 86.74 50.01 86.7 49.94 86.67 49.86 86.67 49.78 86.63 49.71 86.63 49.63 86.59 49.55 86.59 49.48 86.59 49.4 86.59 49.32 86.55 49.24 86.55 49.17 86.55 49.09 86.59 49.01 86.59 48.94 86.59 48.9 86.59 48.82 86.63 48.74 86.63 48.71 86.67 48.63 86.7 48.55 86.7 48.51 86.74 48.44 86.78 48.4 86.82 48.36 86.86 48.28 86.9 48.24 86.94 48.2 86.97 48.17 87.01 48.09 87.09 48.05 87.13 48.01 87.17 47.97 87.24 47.94 87.28 47.9 87.36 47.9 87.44 47.86 87.47 47.82 87.55 47.78 87.63 47.78 87.71 47.74 87.74 47.74 87.82 47.7 87.9 47.7 87.98 47.67 88.05 47.67 88.13 47.67 88.21 47.63 88.28 47.63 88.4 47.63 88.48 47.63 88.55 47.63 88.63 47.63 88.71 47.63 88.82 47.63 88.9 47.63 88.98 47.67 89.05 47.67 89.17 47.67 89.25 47.67 89.32 47.7 89.44 47.7 89.52 47.74 89.59 47.74 89.71 47.78 89.79 47.78 89.9 47.82 89.98 47.86 90.05 47.9 90.17 47.9 90.25 47.94 90.32 47.97 90.44 48.01 90.52 48.05 90.59 48.09 90.71 48.13 90.79 48.17 90.86 48.2 90.98 48.24 91.06 48.28 91.13 48.32 91.21 48.36 91.33 48.44 91.4 48.47 91.48 48.51 91.56 48.55 91.63 48.63 91.71 48.67 91.79 48.71 91.9 48.78 91.98 48.82 92.06 48.9 92.13 48.94 92.17 48.97 92.25 49.05 92.33 49.09 92.4 49.17 92.48 49.21 92.56 49.28 92.6 49.36 92.67 49.4 92.75 49.48 92.79 49.51 92.87 49.59 92.94 49.67 92.98 49.71 93.06 49.78 93.1 49.82 93.13 49.9 93.21 49.98 93.25 50.01 93.29 50.09 93.37 50.13 93.4 50.21 93.44 50.28 93.48 50.32 93.52 50.4 93.56 50.48 93.6 50.52 93.64 50.59 93.67 50.67 93.71 50.71 93.75 50.78 93.79 50.86 93.83 50.94 93.83 50.98 93.87 51.05 93.9 51.13 93.9 51.21 93.94 51.25 93.94 51.32 93.98 51.4 93.98 51.48 94.02 51.52 94.02 51.59 94.02 51.67 94.02 51.75 94.02 51.79 94.06 51.86 94.06 51.94 94.02 51.98 94.02 52.06 94.02 52.09 94.02 52.17 94.02 52.21 93.98 52.29 93.98 52.32 93.94 52.4 93.94 52.44 93.9 52.48 93.9 52.56 93.87 52.59 93.83 52.63 93.83 52.71 93.79 52.75 93.75 52.79 93.71 52.83 93.67 52.86 93.64 52.9 93.6 52.94 93.56 52.98 93.52 53.02 93.48 53.06 93.4 53.09 93.37 53.13 93.33 53.13 93.29 53.17 93.21 53.21 93.17 53.21 93.1 53.25 93.06 53.29 92.98 53.29 92.94 53.33 92.87 53.33 92.83 53.36 92.75 53.36 92.67 53.36 92.63 53.4 92.56 53.4 92.48 53.4 92.44 53.44 92.36 53.44 92.29 53.44 92.21 53.44 92.13 53.44 92.06 53.44 92.02 53.44 91.94 53.44 91.86 53.44 91.75 53.44 91.67 53.44 91.59 53.4 91.52 53.4 91.44 53.4 91.33 53.4 91.25 53.36 91.17 53.36 91.06 53.33 90.98 53.33 90.86 53.29 90.79 53.25 90.67 53.25 90.59 53.21 90.48 53.17 90.4 53.13 90.29 53.09 90.21 53.06 90.09 53.02 90.02 52.98 89.9 52.94 89.82 52.9 89.71 52.86 89.63 52.83 89.52 52.79 89.44 52.71 89.32 52.67 89.25 52.63 89.17 52.56 89.05 52.52 88.98 52.48 88.9 52.4 88.82 52.36 88.71 52.29 88.63 52.25 88.55 52.17 88.48 52.13 88.4 52.06 88.32 51.98 88.24 51.94 88.17 51.86 88.09 51.82 88.01 51.75 87.94 51.67 87.86 51.63 87.82 51.55 87.74 51.48 87.67 51.4 87.63 51.36 87.55 51.29 87.51 51.21 87.44 51.17 87.4 51.09 87.32 51.02 87.28 50.94 87.24 50.86 87.17 50.82 87.13 50.75 87.09 50.67 87.05 50.59 87.01 50.55 86.97"/><line class="cls-1" x1="50.55" y1="86.94" x2="50.55" y2="86.97"/><polyline class="cls-1" points="50.55 86.59 50.63 86.63 50.71 86.67 50.78 86.74 50.86 86.78 50.94 86.82 51.02 86.9 51.09 86.97 51.17 87.01 51.25 87.09 51.32 87.13 51.4 87.21 51.48 87.28 51.55 87.36 51.63 87.44 51.71 87.51 51.79 87.59 51.86 87.67 51.9 87.74 51.98 87.82 52.06 87.9 52.13 87.98 52.21 88.05 52.29 88.17 52.32 88.24 52.4 88.32 52.48 88.44 52.52 88.51 52.59 88.59 52.63 88.71 52.71 88.78 52.75 88.9 52.83 88.98 52.86 89.09 52.94 89.17 52.98 89.28 53.06 89.36 53.09 89.48 53.13 89.59 53.17 89.67 53.21 89.79 53.29 89.86 53.33 89.98 53.36 90.09 53.4 90.17 53.44 90.29 53.48 90.4 53.48 90.48 53.52 90.59 53.56 90.71 53.6 90.79 53.6 90.9 53.63 91.02 53.67 91.09 53.67 91.21 53.71 91.29 53.71 91.4 53.71 91.48 53.75 91.59 53.75 91.67 53.75 91.79 53.75 91.86 53.75 91.98 53.75 92.06 53.79 92.17 53.75 92.25 53.75 92.33 53.75 92.4 53.75 92.52 53.75 92.6 53.75 92.67 53.71 92.75 53.71 92.83 53.67 92.9 53.67 92.98 53.63 93.06 53.63 93.13 53.6 93.21 53.6 93.29 53.56 93.37 53.52 93.44 53.48 93.48 53.44 93.56 53.44 93.64 53.4 93.67 53.36 93.75 53.33 93.79 53.29 93.87 53.21 93.9 53.17 93.94 53.13 93.98 53.09 94.06 53.06 94.1 52.98 94.14 52.94 94.17 52.86 94.21 52.83 94.25 52.79 94.25 52.71 94.29 52.63 94.33 52.59 94.33 52.52 94.37 52.48 94.41 52.4 94.41 52.32 94.41 52.29 94.44 52.21 94.44 52.13 94.44 52.06 94.44 52.02 94.44 51.94 94.44 51.86 94.44 51.79 94.44 51.71 94.44 51.63 94.44 51.55 94.41 51.48 94.41 51.4 94.37 51.32 94.37 51.25 94.33 51.17 94.33 51.09 94.29 51.02 94.25 50.94 94.21 50.86 94.17 50.78 94.14 50.71 94.1 50.63 94.06 50.55 94.02 50.48 93.98 50.4 93.94 50.32 93.87 50.25 93.83 50.17 93.79 50.05 93.71 49.98 93.67 49.9 93.6 49.82 93.52 49.74 93.48 49.67 93.4 49.59 93.33 49.51 93.25 49.44 93.21 49.4 93.13 49.32 93.06 49.24 92.98 49.17 92.9 49.09 92.83 49.01 92.71 48.94 92.63 48.9 92.56 48.82 92.48 48.74 92.36 48.67 92.29 48.63 92.21 48.55 92.1 48.51 92.02 48.44 91.94 48.36 91.83 48.32 91.75 48.24 91.63 48.2 91.56 48.17 91.44 48.09 91.36 48.05 91.25 48.01 91.17 47.94 91.06 47.9 90.94 47.86 90.86 47.82 90.75 47.78 90.63 47.74 90.56 47.7 90.44 47.67 90.32 47.63 90.25 47.59 90.13 47.55 90.05 47.51 89.94 47.51 89.82 47.47 89.75 47.43 89.63 47.43 89.52 47.4 89.44 47.4 89.32 47.36 89.25 47.36 89.13 47.36 89.05 47.32 88.94 47.32 88.86 47.32 88.75 47.32 88.67 47.32 88.55 47.32 88.48 47.32 88.4 47.32 88.28 47.32 88.21 47.32 88.13 47.32 88.01 47.32 87.94 47.36 87.86 47.36 87.78 47.4 87.71 47.4 87.63 47.43 87.55 47.43 87.47 47.47 87.4 47.47 87.32 47.51 87.24 47.55 87.17 47.59 87.13 47.63 87.05 47.63 86.97 47.67 86.94 47.7 86.86 47.74 86.82 47.82 86.74 47.86 86.7 47.9 86.67 47.94 86.63 47.97 86.55 48.05 86.51 48.09 86.47 48.13 86.44 48.2 86.4 48.24 86.36 48.32 86.36 48.36 86.32 48.44 86.28 48.47 86.28 48.55 86.24 48.59 86.2 48.67 86.2 48.74 86.2 48.82 86.17 48.86 86.17 48.94 86.17 49.01 86.17 49.09 86.17 49.17 86.17 49.21 86.17 49.28 86.17 49.36 86.17 49.44 86.17 49.51 86.2 49.59 86.2 49.67 86.24 49.74 86.24 49.82 86.28 49.9 86.28 49.98 86.32 50.05 86.36 50.13 86.4 50.21 86.44 50.28 86.47 50.36 86.51 50.44 86.55 50.55 86.59"/><polyline class="cls-1" points="52.86 94.14 52.94 94.14 53.02 94.1"/><polyline class="cls-1" points="76.43 101.72 76.35 101.68 76.31 101.64 76.24 101.61 76.16 101.57 76.12 101.57 76.04 101.53 75.97 101.49 75.93 101.49 75.85 101.45 75.77 101.45 75.73 101.41 75.66 101.41 75.62 101.37 75.54 101.37 75.47 101.37 75.43 101.34 75.35 101.34 75.31 101.34 75.23 101.34 75.2 101.34 75.12 101.34 75.08 101.34 75 101.34 74.96 101.34 74.89 101.34 74.85 101.34 74.81 101.37 74.73 101.37 74.7 101.37 74.66 101.41 74.58 101.41 74.54 101.45 74.5 101.45 74.43 101.49 74.39 101.49 74.35 101.53 74.31 101.57 74.27 101.61 74.23 101.61 74.19 101.64 74.16 101.68 74.12 101.72 74.08 101.76 74.04 101.8 74 101.84 73.96 101.88 73.93 101.91 73.89 101.99 73.85 102.03 73.81 102.07 73.81 102.11 73.77 102.18 73.73 102.22 73.73 102.26 73.69 102.34 73.69 102.38 73.66 102.45 73.66 102.49 73.62 102.57 73.62 102.65 73.58 102.68 73.58 102.76 73.58 102.84 73.54 102.88 73.54 102.95 73.54 103.03 73.54 103.11 73.54 103.15 73.5 103.22 73.5 103.3 73.5 103.38 73.5 103.45 73.5 103.53 73.5 103.61 73.54 103.68 73.54 103.76 73.54 103.84 73.54 103.92 73.54 103.99 73.58 104.07 73.58 104.15 73.58 104.22 73.62 104.3 73.62 104.38 73.66 104.45 73.66 104.57 73.69 104.65 73.69 104.72 73.73 104.8 73.77 104.88 73.77 104.96 73.81 105.03 73.85 105.15 73.89 105.23 73.89 105.3 73.93 105.38 73.96 105.46 74 105.53 74.04 105.61 74.08 105.73 74.12 105.8 74.16 105.88 74.19 105.96 74.23 106.03 74.27 106.11 74.31 106.19 74.39 106.26 74.43 106.34 74.46 106.42 74.5 106.5 74.58 106.57 74.62 106.65 74.66 106.73 74.7 106.8 74.77 106.88 74.81 106.96 74.89 107 74.93 107.07 74.96 107.15 75.04 107.23 75.08 107.3 75.16 107.34 75.2 107.42 75.27 107.5 75.31 107.54 75.39 107.61 75.47 107.65 75.5 107.73 75.58 107.77 75.62 107.84 75.7 107.88 75.77 107.96 75.81 108 75.89 108.04 75.93 108.11 76 108.15 76.08 108.19 76.12 108.23 76.2 108.27 76.27 108.31 76.31 108.34 76.39 108.38 76.47 108.42 76.54 108.46 76.58 108.5 76.66 108.54 76.74 108.57 76.81 108.61 76.85 108.61 76.93 108.65 77.01 108.69 77.08 108.69 77.12 108.73 77.2 108.73 77.28 108.77 77.35 108.77 77.43 108.77 77.51 108.81 77.54 108.81 77.62 108.81 77.7 108.81 77.78 108.81 77.81 108.81 77.89 108.81 77.97 108.81 78.01 108.77 78.08 108.77 78.12 108.77 78.2 108.73 78.24 108.73 78.31 108.69 78.35 108.65 78.43 108.65 78.47 108.61 78.55 108.57 78.58 108.54 78.62 108.5 78.66 108.46 78.74 108.42 78.78 108.38 78.82 108.34 78.85 108.31 78.89 108.23 78.93 108.19 78.97 108.15 79.01 108.07 79.05 108.04 79.08 107.96 79.08 107.92 79.12 107.84 79.16 107.77 79.16 107.73 79.2 107.65 79.24 107.57 79.24 107.5 79.28 107.42 79.28 107.34 79.28 107.27 79.32 107.19 79.32 107.11 79.32 107.03 79.32 106.96 79.32 106.88 79.32 106.8 79.32 106.73 79.32 106.61 79.32 106.53 79.32 106.42 79.32 106.34 79.32 106.23 79.28 106.15 79.28 106.03 79.24 105.92 79.24 105.8 79.2 105.69 79.2 105.57 79.16 105.46 79.12 105.34 79.08 105.23 79.05 105.11 79.01 104.99 78.97 104.88 78.93 104.76 78.89 104.65 78.82 104.53 78.78 104.42 78.7 104.3 78.66 104.19 78.58 104.07 78.55 103.95 78.47 103.88 78.39 103.76 78.35 103.65 78.28 103.53 78.2 103.42 78.12 103.34 78.05 103.22 77.97 103.11 77.89 103.03 77.81 102.91 77.74 102.84 77.66 102.72 77.58 102.65 77.51 102.57 77.39 102.49 77.31 102.38 77.24 102.3 77.16 102.22 77.04 102.14 76.97 102.07 76.89 102.03 76.77 101.95 76.7 101.88 76.62 101.84 76.5 101.76 76.43 101.72"/><line class="cls-1" x1="76.47" y1="101.72" x2="76.43" y2="101.72"/><polyline class="cls-1" points="76.43 101.34 76.5 101.41 76.58 101.45 76.66 101.49 76.74 101.57 76.81 101.61 76.89 101.68 77.01 101.72 77.08 101.8 77.16 101.84 77.24 101.91 77.31 101.99 77.39 102.07 77.47 102.14 77.54 102.22 77.62 102.3 77.7 102.38 77.78 102.45 77.81 102.53 77.89 102.61 77.97 102.68 78.05 102.76 78.12 102.88 78.2 102.95 78.24 103.03 78.31 103.15 78.39 103.22 78.43 103.34 78.51 103.42 78.58 103.53 78.62 103.61 78.7 103.72 78.74 103.8 78.82 103.92 78.85 103.99 78.89 104.11 78.97 104.22 79.01 104.3 79.05 104.42 79.12 104.53 79.16 104.61 79.2 104.72 79.24 104.84 79.28 104.92 79.32 105.03 79.35 105.15 79.39 105.26 79.39 105.34 79.43 105.46 79.47 105.57 79.51 105.65 79.51 105.76 79.55 105.88 79.55 105.96 79.59 106.07 79.59 106.19 79.62 106.26 79.62 106.38 79.62 106.46 79.62 106.57 79.66 106.65 79.66 106.77 79.66 106.84 79.66 106.96 79.66 107.03 79.66 107.11 79.66 107.23 79.62 107.3 79.62 107.38 79.62 107.5 79.59 107.57 79.59 107.65 79.59 107.73 79.55 107.8 79.51 107.88 79.51 107.96 79.47 108.04 79.43 108.11 79.43 108.19 79.39 108.23 79.35 108.31 79.32 108.38 79.28 108.42 79.24 108.5 79.2 108.57 79.16 108.61 79.12 108.65 79.05 108.73 79.01 108.77 78.97 108.81 78.93 108.84 78.85 108.88 78.82 108.92 78.74 108.96 78.7 109 78.62 109.04 78.58 109.08 78.51 109.08 78.47 109.11 78.39 109.15 78.31 109.15 78.28 109.19 78.2 109.19 78.12 109.19 78.05 109.19 77.97 109.23 77.89 109.23 77.85 109.23 77.78 109.23 77.7 109.23 77.62 109.19 77.54 109.19 77.47 109.19 77.39 109.15 77.31 109.15 77.24 109.11 77.16 109.11 77.08 109.08 77.01 109.04 76.89 109.04 76.81 109 76.74 108.96 76.66 108.92 76.58 108.88 76.5 108.84 76.43 108.77 76.35 108.73 76.27 108.69 76.16 108.65 76.08 108.57 76 108.54 75.93 108.46 75.85 108.38 75.77 108.34 75.7 108.27 75.62 108.19 75.54 108.11 75.47 108.07 75.39 108 75.31 107.92 75.23 107.84 75.16 107.77 75.08 107.69 75 107.57 74.93 107.5 74.85 107.42 74.77 107.34 74.7 107.23 74.66 107.15 74.58 107.07 74.5 106.96 74.43 106.88 74.39 106.77 74.31 106.69 74.23 106.57 74.19 106.5 74.12 106.38 74.08 106.26 74 106.19 73.96 106.07 73.93 106 73.85 105.88 73.81 105.76 73.77 105.65 73.73 105.57 73.69 105.46 73.62 105.34 73.58 105.26 73.54 105.15 73.5 105.03 73.5 104.92 73.46 104.84 73.42 104.72 73.39 104.61 73.35 104.53 73.35 104.42 73.31 104.3 73.31 104.19 73.27 104.11 73.27 103.99 73.23 103.92 73.23 103.8 73.23 103.68 73.19 103.61 73.19 103.49 73.19 103.42 73.19 103.34 73.19 103.22 73.19 103.15 73.19 103.07 73.19 102.99 73.19 102.88 73.19 102.8 73.23 102.72 73.23 102.65 73.23 102.57 73.27 102.49 73.27 102.41 73.31 102.38 73.31 102.3 73.35 102.22 73.35 102.14 73.39 102.07 73.39 102.03 73.42 101.95 73.46 101.88 73.5 101.84 73.5 101.76 73.54 101.72 73.58 101.68 73.62 101.61 73.66 101.57 73.69 101.53 73.73 101.45 73.77 101.41 73.81 101.37 73.89 101.34 73.93 101.3 73.96 101.26 74 101.22 74.08 101.18 74.12 101.14 74.16 101.11 74.23 101.11 74.27 101.07 74.31 101.03 74.39 101.03 74.43 100.99 74.5 100.99 74.54 100.95 74.62 100.95 74.7 100.95 74.73 100.91 74.81 100.91 74.89 100.91 74.93 100.91 75 100.91 75.08 100.91 75.12 100.91 75.2 100.91 75.27 100.95 75.35 100.95 75.43 100.95 75.47 100.99 75.54 100.99 75.62 100.99 75.7 101.03 75.77 101.07 75.85 101.07 75.93 101.11 75.97 101.14 76.04 101.14 76.12 101.18 76.2 101.22 76.27 101.26 76.35 101.3 76.43 101.34"/><line class="cls-1" x1="78.89" y1="108.84" x2="78.97" y2="108.81"/><path class="cls-1" d="m61.41,94.11c-1.13.66-1.12,2.78.01,4.74,1.14,1.96,2.98,3.01,4.11,2.36,1.13-.66,1.12-2.78-.01-4.74-1.14-1.96-2.98-3.01-4.11-2.36"/><polyline class="cls-1" points="63.45 93.94 63.53 94.02 63.64 94.06 63.72 94.1 63.8 94.17 63.88 94.21 63.95 94.29 64.03 94.33 64.11 94.41 64.18 94.48 64.26 94.52 64.34 94.6 64.41 94.68 64.49 94.75 64.57 94.83 64.65 94.91 64.72 94.98 64.8 95.06 64.88 95.14 64.95 95.21 65.03 95.29 65.11 95.41 65.15 95.48 65.22 95.56 65.3 95.64 65.38 95.75 65.42 95.83 65.49 95.95 65.57 96.02 65.61 96.14 65.69 96.22 65.72 96.33 65.8 96.41 65.84 96.52 65.92 96.64 65.95 96.72 65.99 96.83 66.07 96.91 66.11 97.02 66.15 97.14 66.19 97.22 66.22 97.33 66.26 97.45 66.3 97.56 66.34 97.64 66.38 97.76 66.42 97.87 66.46 97.95 66.49 98.06 66.53 98.18 66.53 98.29 66.57 98.37 66.57 98.49 66.61 98.56 66.61 98.68 66.65 98.79 66.65 98.87 66.69 98.99 66.69 99.06 66.69 99.18 66.69 99.26 66.69 99.37 66.69 99.45 66.69 99.56 66.69 99.64 66.69 99.76 66.69 99.83 66.69 99.91 66.69 100.03 66.65 100.1 66.65 100.18 66.61 100.26 66.61 100.34 66.57 100.41 66.57 100.49 66.53 100.57 66.53 100.64 66.49 100.72 66.46 100.8 66.42 100.87 66.38 100.91 66.34 100.99 66.34 101.07 66.3 101.11 66.22 101.18 66.19 101.22 66.15 101.26 66.11 101.34 66.07 101.37 65.99 101.41 65.95 101.45 65.92 101.49 65.84 101.53 65.8 101.57 65.72 101.61 65.69 101.64 65.61 101.68 65.57 101.72 65.49 101.72 65.42 101.76 65.38 101.76 65.3 101.8 65.22 101.8 65.15 101.8 65.11 101.84 65.03 101.84 64.95 101.84 64.88 101.84 64.8 101.84 64.72 101.84 64.65 101.8 64.57 101.8 64.49 101.8 64.41 101.76 64.34 101.76 64.26 101.72 64.18 101.72 64.11 101.68 64.03 101.64 63.95 101.64 63.88 101.61 63.8 101.57 63.72 101.53 63.64 101.49 63.53 101.45 63.45 101.41 63.38 101.34 63.3 101.3 63.22 101.26 63.14 101.18 63.07 101.14 62.99 101.07 62.87 101.03 62.8 100.95 62.72 100.87 62.64 100.8 62.57 100.76 62.49 100.68 62.41 100.6 62.34 100.53 62.26 100.45 62.18 100.37 62.1 100.3 62.03 100.18 61.95 100.1 61.91 100.03 61.84 99.95 61.76 99.83 61.68 99.76 61.6 99.68 61.57 99.56 61.49 99.49 61.41 99.37 61.37 99.3 61.3 99.18 61.22 99.1 61.18 98.99 61.1 98.91 61.06 98.79 61.03 98.68 60.95 98.6 60.91 98.49 60.87 98.37 60.8 98.29 60.76 98.18 60.72 98.06 60.68 97.95 60.64 97.87 60.6 97.76 60.56 97.64 60.53 97.56 60.49 97.45 60.45 97.33 60.45 97.22 60.41 97.14 60.37 97.02 60.37 96.91 60.33 96.83 60.33 96.72 60.29 96.6 60.29 96.52 60.26 96.41 60.26 96.33 60.26 96.22 60.26 96.14 60.26 96.02 60.22 95.95 60.22 95.83 60.22 95.75 60.26 95.68 60.26 95.6 60.26 95.52 60.26 95.41 60.26 95.33 60.26 95.25 60.29 95.18 60.29 95.1 60.33 95.06 60.33 94.98 60.37 94.91 60.37 94.83 60.41 94.75 60.41 94.71 60.45 94.64 60.49 94.56 60.49 94.52 60.53 94.44 60.56 94.41 60.6 94.33 60.64 94.29 60.68 94.21 60.72 94.17 60.76 94.14 60.8 94.06 60.83 94.02 60.87 93.98 60.91 93.94 60.95 93.9 61.03 93.87 61.06 93.83 61.1 93.79 61.14 93.75 61.22 93.71 61.26 93.71 61.33 93.67 61.37 93.64 61.41 93.64 61.49 93.6 61.53 93.6 61.6 93.56 61.68 93.56 61.72 93.56 61.8 93.56 61.84 93.52 61.91 93.52 61.99 93.52 62.03 93.52 62.1 93.52 62.18 93.52 62.26 93.52 62.3 93.56 62.37 93.56 62.45 93.56 62.53 93.6 62.61 93.6 62.68 93.64 62.72 93.64 62.8 93.67 62.87 93.67 62.95 93.71 63.03 93.75 63.11 93.79 63.18 93.79 63.26 93.83 63.34 93.87 63.38 93.9 63.45 93.94"/><line class="cls-1" x1="65.88" y1="101.49" x2="65.95" y2="101.45"/><polyline class="cls-1" points="49.05 89.01 49.17 88.94 50.55 91.33 51.9 90.52 52.02 90.71 50.55 91.59"/><polyline class="cls-1" points="49.05 89.01 50.55 91.59 50.9 91.36 52.02 90.71"/><line class="cls-1" x1="50.9" y1="91.36" x2="50.9" y2="91.36"/><polyline class="cls-1" points="76.47 104.19 76.43 104.19 75.04 104.99"/><polyline class="cls-1" points="74.93 104.8 75.04 104.99 75.54 104.69 76.43 104.19"/><line class="cls-1" x1="75.5" y1="104.69" x2="75.54" y2="104.69"/><polyline class="cls-1" points="74.93 104.8 76.43 103.92 77.93 106.5 77.81 106.57 77.93 106.5"/><line class="cls-1" x1="77.81" y1="106.57" x2="76.43" y2="104.19"/><polyline class="cls-1" points="85.4 62.6 83.78 61.68 83.28 61.14 83.28 61.1 83.32 61.06 83.32 61.02 83.36 60.98 83.4 60.95 83.44 60.95 83.47 60.91 83.51 60.91 83.55 60.91 83.59 60.91 83.59 60.95 83.63 60.95 83.67 60.95 85.67 62.1 85.4 62.6"/><polyline class="cls-1" points="79.97 61.87 80.32 62.56 80.2 64.03 79.62 63.95 79.82 61.91 79.97 61.87"/><polyline class="cls-1" points="80.39 61.68 82.13 62.68 82.4 63.14 82.09 63.33 80.36 62.33 80.09 61.87 80.39 61.68"/><polyline class="cls-1" points="85.51 62.68 85.78 62.18 85.82 62.18 85.86 62.22 85.86 62.25 85.9 62.29 85.94 62.33 85.94 62.37 85.98 62.41 86.02 62.45 86.02 62.49 86.05 62.52 86.05 62.56 86.05 62.6 86.05 62.64 86.09 62.68 86.09 62.72 86.09 62.76 85.9 64.91 85.75 64.99 85.4 64.3 85.51 62.68"/><polyline class="cls-1" points="80.55 59.83 80.05 59.29 80.05 59.25 80.09 59.21 80.09 59.17 80.12 59.14 80.16 59.1 80.2 59.1 80.24 59.1 80.28 59.1 80.32 59.1 80.36 59.1 80.39 59.1 80.43 59.1 82.43 60.25 82.16 60.75 80.55 59.83"/><polyline class="cls-1" points="81.78 65.1 81.93 65.84 79.93 64.68 79.89 64.68 79.89 64.64 79.85 64.64 79.85 64.6 79.82 64.57 79.78 64.53 79.74 64.49 79.74 64.45 79.7 64.41 79.7 64.33 79.66 64.3 79.66 64.26 79.62 64.22 79.62 64.14 79.62 64.1 80.16 64.18 81.78 65.1"/><polyline class="cls-1" points="82.86 60.91 82.67 63.06 82.51 63.14 82.16 62.45 82.28 60.83 82.55 60.33 82.59 60.33 82.63 60.37 82.63 60.41 82.67 60.45 82.7 60.48 82.7 60.52 82.74 60.56 82.78 60.6 82.78 60.64 82.82 60.68 82.82 60.71 82.82 60.75 82.86 60.79 82.86 60.83 82.86 60.87 82.86 60.91"/><polyline class="cls-1" points="85.75 65.14 85.86 65.37 85.86 65.41 85.86 65.49 85.86 65.6 85.82 65.72 85.82 65.84 85.82 65.95 85.78 66.07 85.78 66.34 85.78 66.45 85.75 66.57 85.75 66.68 85.75 66.72 85.75 66.8 85.75 66.88 85.75 66.95 85.71 67.07 85.71 67.14 85.71 67.22 85.71 67.3 85.71 67.34 85.71 67.38 85.67 67.41 85.67 67.45 85.67 67.49 85.67 67.53 85.67 67.57 85.67 67.61 85.63 67.65 85.63 67.68 85.59 67.68 85.59 67.72 85.55 67.72 85.51 67.76 85.48 67.76 85.44 67.76 85.4 67.76 85.36 67.76 85.32 67.76 85.17 67.03 85.28 65.41 85.75 65.14"/><polyline class="cls-1" points="80.89 83.12 81.01 83.86 80.97 83.86 80.93 83.82 80.89 83.82 80.86 83.82 80.82 83.82 80.78 83.78 80.74 83.78 80.7 83.78 80.66 83.74 80.62 83.74 80.59 83.74 80.55 83.7 80.47 83.66 80.43 83.66 80.39 83.62 80.36 83.62 80.28 83.59 80.24 83.55 80.2 83.51 80.12 83.51 80.09 83.47 80.05 83.43 80.01 83.43 79.93 83.35 79.85 83.32 79.78 83.24 79.66 83.16 79.59 83.09 79.51 83.05 79.43 82.97 79.35 82.89 79.28 82.78 79.24 82.7 79.16 82.62 79.08 82.51 79.01 82.43 78.97 82.32 78.89 82.24 78.85 82.12 78.82 82.01 78.78 81.93 78.7 81.81 78.66 81.7 78.66 81.62 78.62 81.51 78.58 81.43 78.58 81.39 78.58 81.31 78.55 81.28 78.55 81.2 78.55 81.12 78.55 81.04 78.51 80.97 78.51 80.89 78.51 80.78 78.51 80.7 78.51 80.62 78.51 80.51 78.55 80.43 78.55 80.35 78.55 80.27 78.58 80.2 78.58 80.12 78.62 80.04 78.66 79.97 78.7 79.89 78.7 79.85 78.74 79.77 78.82 79.74 78.85 79.7 78.89 79.66 78.93 79.62 79.01 79.58 79.05 79.54 79.12 79.54 79.2 79.5 79.24 79.5 79.32 79.5 79.39 79.5 79.47 79.5 79.55 79.5 79.62 79.5 79.7 79.5 79.78 79.54 79.85 79.58 79.93 79.58 80.01 79.62 80.09 79.66 80.16 79.7 80.24 79.74 80.32 79.77 80.39 79.85 80.47 79.89 80.55 79.93 80.62 80.01 80.7 80.04 80.78 80.12 80.82 80.16 80.89 80.2 80.93 80.24 80.97 80.27 80.97 80.31 81.01 80.31 81.01 80.35 81.05 80.35 81.05 80.39 80.89 80.97 80.86 80.89 80.78 80.81 80.7 80.74 80.62 80.7 80.55 80.62 80.47 80.58 80.39 80.51 80.32 80.47 80.24 80.43 80.2 80.43 80.16 80.39 80.12 80.39 80.05 80.35 80.01 80.35 79.97 80.31 79.93 80.31 79.85 80.31 79.82 80.31 79.78 80.31 79.74 80.31 79.7 80.31 79.66 80.31 79.62 80.35 79.59 80.35 79.55 80.39 79.51 80.39 79.47 80.43 79.47 80.47 79.43 80.47 79.39 80.51 79.39 80.54 79.35 80.58 79.35 80.62 79.32 80.7 79.32 80.74 79.32 80.78 79.32 80.81 79.28 80.89 79.28 80.93 79.28 81.01 79.28 81.04 79.28 81.08 79.28 81.12 79.28 81.16 79.28 81.28 79.28 81.35 79.32 81.43 79.32 81.51 79.32 81.58 79.35 81.62 79.35 81.66 79.35 81.74 79.39 81.78 79.39 81.81 79.43 81.89 79.43 81.93 79.47 81.97 79.47 82.01 79.51 82.08 79.55 82.12 79.55 82.16 79.59 82.24 79.62 82.28 79.66 82.32 79.7 82.35 79.7 82.39 79.74 82.43 79.78 82.47 79.82 82.51 79.85 82.55 79.89 82.58 79.93 82.62 79.97 82.66 80.01 82.7 80.09 82.78 80.16 82.82 80.24 82.85 80.32 82.93 80.39 82.97 80.51 83.01 80.59 83.05 80.66 83.05 80.74 83.09 80.78 83.12 80.82 83.12 80.86 83.12 80.89 83.12"/><polyline class="cls-1" points="77.58 79.04 77.54 79 77.51 79 77.51 78.97 77.47 78.93 77.43 78.93 77.39 78.89 77.35 78.85 77.31 78.81 77.28 78.77 77.24 78.73 77.24 78.7 77.2 78.66 77.16 78.62 77.12 78.58 77.12 78.54 77.12 78.5 77.08 78.46 77.08 78.43 77.08 78.39 77.04 78.35 77.04 78.31 77.04 78.27 77.04 78.23 77.04 78.2 77.04 78.16 77.04 78.12 77.04 78.08 77.08 78.04 77.08 78 77.08 77.96 77.12 77.93 77.16 77.89 77.2 77.89 77.24 77.89 77.28 77.85 77.31 77.85 77.35 77.85 77.39 77.89 77.43 77.89 77.47 77.89 77.51 77.93 77.54 77.93 77.58 77.93 77.58 77.96 77.62 77.96 77.66 78 77.7 78 77.74 78.04 77.78 78.08 77.81 78.12 77.85 78.16 77.89 78.2 77.93 78.23 77.97 78.31 78.01 78.35 78.01 78.39 78.05 78.43 78.08 78.5 78.08 78.54 78.08 78.58 78.12 78.62 78.12 78.7 78.12 78.73 78.12 78.77 78.12 78.81 78.12 78.85 78.12 78.89 78.12 78.93 78.12 78.97 78.08 79 78.08 79.04 78.05 79.04 78.05 79.08 78.01 79.08 78.01 79.12 77.97 79.12 77.93 79.12 77.89 79.12 77.85 79.12 77.81 79.12 77.78 79.12 77.7 79.08 77.66 79.08 77.58 79.04"/><path class="cls-1" d="m44.95,87.78c0-1.64-1.16-3.63-2.58-4.45-1.42-.82-2.57-.15-2.57,1.49s1.16,3.63,2.58,4.45c1.42.82,2.57.15,2.57-1.49"/><path class="cls-1" d="m89.35,63.97c0-2.06-1.46-4.56-3.24-5.58"/><line class="cls-1" x1="86.09" y1="58.44" x2="40.81" y2="32.61"/><path class="cls-1" d="m40.82,32.6c-1.79-1.02-3.23-.19-3.23,1.87"/><line class="cls-1" x1="37.62" y1="34.49" x2="37.62" y2="86.59"/><path class="cls-1" d="m37.64,86.53c0,2.06,1.46,4.56,3.24,5.58"/><line class="cls-1" x1="40.85" y1="92.13" x2="86.09" y2="117.93"/><path class="cls-1" d="m86.12,117.94c1.79,1.02,3.23.19,3.23-1.87"/><line class="cls-1" x1="89.33" y1="116.08" x2="89.33" y2="63.99"/><polyline class="cls-1" points="56.6 76.62 56.95 78.31 52.21 75.58 52.17 75.58 52.17 75.54 52.13 75.54 52.09 75.5 52.09 75.46 52.06 75.46 52.02 75.42 52.02 75.38 51.98 75.35 51.94 75.31 51.9 75.27 51.86 75.23 51.82 75.19 51.82 75.12 51.79 75.08 51.75 75.04 51.71 74.96 51.67 74.92 51.67 74.85 51.63 74.81 51.59 74.77 51.59 74.69 51.55 74.65 51.55 74.58 51.55 74.54 51.52 74.46 51.52 74.42 51.52 74.35 51.48 74.31 51.48 74.27 52.79 74.42 56.6 76.62"/><polyline class="cls-1" points="53.71 64.6 52.48 63.33 52.52 63.26 52.52 63.22 52.56 63.22 52.56 63.18 52.59 63.14 52.59 63.1 52.63 63.06 52.67 63.03 52.71 62.99 52.75 62.95 52.79 62.95 52.83 62.91 52.86 62.91 52.9 62.91 52.94 62.87 52.98 62.87 53.02 62.87 53.06 62.87 53.09 62.87 53.13 62.87 53.17 62.87 53.21 62.87 53.21 62.91 53.25 62.91 53.33 62.91 53.36 62.95 58.1 65.64 57.48 66.76 53.71 64.6"/><polyline class="cls-1" points="64.61 82.66 59.83 79.93 59.79 79.93 59.79 79.89 59.76 79.89 59.76 79.85 59.72 79.81 59.68 79.81 59.68 79.77 59.64 79.74 59.6 79.7 59.56 79.66 59.56 79.62 59.52 79.58 59.49 79.54 59.45 79.47 59.41 79.43 59.37 79.39 59.37 79.31 59.33 79.27 59.29 79.24 59.26 79.16 59.26 79.12 59.22 79.04 59.22 79 59.18 78.93 59.18 78.89 59.18 78.81 59.14 78.77 59.14 78.7 59.14 78.66 59.14 78.62 60.45 78.81 64.22 80.97 64.61 82.66"/><polyline class="cls-1" points="70.38 74.11 69.15 72.84 69.19 72.77 69.19 72.73 69.23 72.69 69.27 72.65 69.27 72.61 69.3 72.57 69.3 72.54 69.34 72.54 69.38 72.5 69.42 72.46 69.46 72.46 69.5 72.42 69.54 72.42 69.57 72.38 69.61 72.38 69.65 72.38 69.69 72.38 69.73 72.38 69.77 72.38 69.81 72.38 69.84 72.38 69.88 72.38 69.92 72.38 69.96 72.42 70 72.42 70.04 72.42 74.77 75.15 74.16 76.27 70.38 74.11"/><polyline class="cls-1" points="73.93 82.62 74.96 82.08 75.27 82.62 75.27 82.66 75.23 82.66 75.23 82.74 75.23 82.82 75.23 82.89 75.23 83.05 75.2 83.24 75.2 83.39 75.16 83.55 75.16 83.7 75.16 83.82 75.16 83.89 75.12 84.05 75.12 84.24 75.08 84.43 75.08 84.63 75.04 85.01 75 85.4 75 85.59 74.96 85.78 74.96 85.93 74.93 86.13 74.93 86.2 74.93 86.28 74.93 86.4 74.93 86.47 74.89 86.55 74.89 86.63 74.89 86.67 74.89 86.74 74.89 86.82 74.89 86.86 74.89 86.94 74.85 86.97 74.85 87.05 74.85 87.09 74.85 87.13 74.85 87.17 74.85 87.21 74.85 87.24 74.85 87.28 74.85 87.32 74.85 87.36 74.81 87.36 74.81 87.4 74.81 87.44 74.81 87.47 74.81 87.51 74.81 87.55 74.81 87.59 74.81 87.63 74.77 87.67 74.77 87.71 74.73 87.74 74.7 87.78 74.7 87.82 74.66 87.86 74.62 87.86 74.58 87.9 74.54 87.94 74.5 87.94 74.46 87.98 74.43 87.98 74.39 87.98 74.35 88.01 74.31 88.01 74.23 88.01 74.19 88.01 74.16 88.01 74.12 88.01 74.04 88.01 74 88.01 73.96 87.98 73.58 86.28 73.93 82.62"/><polyline class="cls-1" points="73.62 87.78 68.84 85.09 68.84 85.05 68.8 85.05 68.8 85.01 68.77 85.01 68.77 84.97 68.73 84.93 68.69 84.93 68.65 84.9 68.65 84.86 68.61 84.82 68.57 84.78 68.53 84.74 68.5 84.66 68.46 84.63 68.46 84.59 68.42 84.51 68.38 84.47 68.34 84.43 68.34 84.36 68.3 84.32 68.27 84.24 68.27 84.2 68.23 84.13 68.23 84.09 68.19 84.01 68.19 83.97 68.19 83.93 68.15 83.86 68.15 83.82 68.15 83.74 69.46 83.93 73.27 86.13 73.62 87.78"/><polyline class="cls-1" points="60.26 73.5 60.95 73.15 65.07 75.5 65.65 76.58 64.95 76.92 60.83 74.58 60.26 73.5"/><polyline class="cls-1" points="59.14 67.14 58.68 72.07 58.33 72.23 57.48 70.65 57.79 66.95 58.41 65.8 58.49 65.87 58.56 65.95 58.6 65.99 58.64 65.99 58.64 66.03 58.68 66.07 58.72 66.11 58.75 66.14 58.79 66.18 58.79 66.26 58.83 66.3 58.87 66.34 58.91 66.37 58.91 66.41 58.95 66.45 58.95 66.53 58.99 66.57 58.99 66.61 59.02 66.64 59.02 66.68 59.06 66.76 59.06 66.8 59.06 66.84 59.1 66.88 59.1 66.91 59.1 66.99 59.1 67.03 59.1 67.07 59.14 67.11 59.14 67.14"/><polyline class="cls-1" points="51.9 69.3 52.29 69.15 53.13 70.73 52.83 74.08 51.52 73.88 51.9 69.3"/><polyline class="cls-1" points="61.33 68.95 60.14 67.68 60.14 67.61 60.18 67.61 60.18 67.57 60.22 67.53 60.22 67.49 60.26 67.45 60.26 67.41 60.29 67.41 60.29 67.38 60.33 67.34 60.37 67.34 60.37 67.3 60.41 67.3 60.45 67.3 60.49 67.26 60.53 67.26 60.56 67.26 60.56 67.22 60.6 67.22 60.64 67.22 60.68 67.22 60.72 67.22 60.76 67.22 60.8 67.22 60.83 67.22 60.87 67.26 60.95 67.26 60.99 67.26 61.03 67.3 65.72 69.99 65.11 71.11 61.33 68.95"/><polyline class="cls-1" points="64.88 77.46 65.95 76.92 66.22 77.46 66.22 77.5 66.22 77.54 66.22 77.58 66.22 77.62 66.22 77.66 66.22 77.73 66.19 77.77 66.19 77.81 66.19 77.89 66.19 77.96 66.19 78 66.19 78.08 66.19 78.16 66.15 78.23 66.15 78.31 66.15 78.39 66.15 78.46 66.15 78.54 66.11 78.62 66.11 78.73 66.11 78.81 66.11 78.89 66.11 79 66.07 79.2 66.07 79.39 66.03 79.58 66.03 79.77 65.99 80.2 65.95 80.39 65.95 80.58 65.92 80.78 65.92 80.97 65.92 81.04 65.92 81.16 65.88 81.24 65.88 81.31 65.88 81.39 65.88 81.51 65.88 81.58 65.84 81.66 65.84 81.7 65.84 81.78 65.84 81.85 65.84 81.93 65.84 81.97 65.8 82.05 65.8 82.08 65.8 82.16 65.8 82.2 65.8 82.24 65.8 82.28 65.8 82.32 65.8 82.35 65.8 82.39 65.76 82.43 65.76 82.47 65.76 82.51 65.72 82.55 65.72 82.58 65.69 82.62 65.65 82.66 65.65 82.7 65.61 82.7 65.57 82.74 65.53 82.78 65.49 82.78 65.45 82.82 65.38 82.82 65.3 82.85 65.22 82.85 65.15 82.85 65.07 82.85 64.99 82.85 64.95 82.85 64.57 81.16 64.88 77.46"/><polyline class="cls-1" points="70.31 74.42 70.04 77.77 69 78.31 68.69 77.77 69.11 73.19 70.31 74.42"/><polyline class="cls-1" points="73.96 82.08 69.84 79.74 69.27 78.66 69.96 78.31 74.08 80.66 74.66 81.74 73.96 82.08"/><polyline class="cls-1" points="67.03 82.55 67.07 82.58 67.15 82.62 67.19 82.66 67.26 82.74 67.3 82.78 67.34 82.82 67.38 82.89 67.46 82.97 67.5 83.05 67.53 83.09 67.53 83.16 67.57 83.24 67.61 83.32 67.61 83.39 67.65 83.47 67.65 83.51 67.65 83.59 67.65 83.66 67.65 83.74 67.65 83.78 67.65 83.86 67.61 83.89 67.61 83.93 67.57 83.97 67.53 84.01 67.5 84.05 67.5 84.09 67.42 84.09 67.38 84.13 67.34 84.13 67.3 84.13 67.23 84.13 67.19 84.09 67.15 84.09 67.07 84.05 67.03 84.05 66.99 84.01 66.96 84.01 66.92 83.97 66.88 83.93 66.84 83.89 66.8 83.86 66.76 83.82 66.73 83.78 66.69 83.74 66.65 83.7 66.65 83.66 66.61 83.62 66.57 83.59 66.57 83.55 66.53 83.51 66.53 83.47 66.49 83.43 66.49 83.35 66.46 83.32 66.46 83.28 66.46 83.24 66.42 83.2 66.42 83.16 66.42 83.12 66.42 83.09 66.38 83.05 66.38 83.01 66.38 82.97 66.38 82.93 66.38 82.89 66.38 82.85 66.42 82.82 66.42 82.78 66.42 82.74 66.42 82.7 66.46 82.66 66.46 82.62 66.49 82.58 66.53 82.55 66.57 82.51 66.61 82.51 66.65 82.47 66.69 82.47 66.73 82.47 66.76 82.47 66.8 82.47 66.84 82.47 66.88 82.47 66.92 82.51 66.96 82.51 66.99 82.55 67.03 82.55"/><polyline class="cls-1" points="59.95 73.15 59.64 72.61 60.06 68.03 61.3 69.3 60.99 72.61 59.95 73.15"/><polyline class="cls-1" points="53.29 68.8 57.45 71.15 58.02 72.23 57.29 72.57 53.17 70.23 52.59 69.15 53.29 68.8"/><polyline class="cls-1" points="77.78 87.32 77.74 87.28 77.7 87.24 77.66 87.21 77.58 87.17 77.54 87.13 77.51 87.09 77.47 87.05 77.43 87.01 77.39 86.94 77.35 86.9 77.31 86.86 77.28 86.78 77.24 86.74 77.2 86.67 77.16 86.63 77.12 86.55 77.12 86.47 77.08 86.44 77.08 86.36 77.04 86.32 77.04 86.24 77.01 86.2 77.01 86.13 77.01 86.05 77.01 86.01 77.01 85.93 77.01 85.9 77.01 85.86 77.01 85.82 77.01 85.78 77.01 85.74 77.01 85.7 77.01 85.67 77.01 85.63 77.01 85.59 77.01 85.55 77.04 85.51 77.04 85.47 77.04 85.43 77.08 85.43 77.08 85.4 77.08 85.36 77.12 85.32 77.12 85.28 77.16 85.28 77.16 85.24 77.2 85.24 77.24 85.2 77.28 85.16 77.31 85.16 77.35 85.16 77.39 85.16 77.43 85.13 77.47 85.16 77.51 85.16 77.54 85.16 77.58 85.16 77.62 85.16 77.66 85.2 77.7 85.2 77.74 85.2 77.78 85.24 77.81 85.24 77.81 85.28 77.85 85.28 77.89 85.28 77.89 85.32 77.93 85.36 77.97 85.36 78.01 85.4 78.05 85.4 78.05 85.43 78.08 85.47 78.12 85.51 78.16 85.55 78.2 85.59 78.24 85.63 78.24 85.67 78.28 85.7 78.31 85.74 78.31 85.78 78.35 85.82 78.39 85.86 78.39 85.9 78.43 85.93 78.43 85.97 78.47 86.05 78.47 86.09 78.51 86.13 78.51 86.17 78.51 86.2 78.55 86.24 78.55 86.36 78.58 86.44 78.58 86.51 78.58 86.55 78.58 86.59 78.58 86.67 78.58 86.7 78.58 86.74 78.58 86.78 78.58 86.82 78.58 86.9 78.58 86.94 78.58 86.97 78.55 87.01 78.55 87.05 78.55 87.09 78.51 87.13 78.51 87.17 78.47 87.21 78.47 87.24 78.43 87.28 78.39 87.32 78.35 87.36 78.31 87.4 78.28 87.4 78.24 87.4 78.2 87.4 78.16 87.44 78.12 87.44 78.08 87.4 78.05 87.4 78.01 87.4 77.97 87.4 77.93 87.36 77.85 87.36 77.81 87.32 77.78 87.32"/><polyline class="cls-1" points="78.2 88.94 77.81 88.75 79.51 86.2 79.85 86.44 78.2 88.94"/><polyline class="cls-1" points="79.08 88.44 79.08 88.4 79.08 88.32 79.08 88.28 79.12 88.24 79.12 88.17 79.12 88.13 79.12 88.09 79.16 88.05 79.16 88.01 79.16 87.98 79.2 87.94 79.2 87.9 79.24 87.9 79.28 87.86 79.28 87.82 79.32 87.82 79.35 87.78 79.39 87.74 79.43 87.74 79.47 87.74 79.51 87.74 79.55 87.74 79.59 87.74 79.62 87.74 79.66 87.74 79.7 87.74 79.74 87.78 79.78 87.78 79.82 87.82 79.85 87.82 79.89 87.86 79.97 87.86 80.01 87.9 80.05 87.94 80.09 87.98 80.12 88.01 80.2 88.05 80.24 88.09 80.28 88.17 80.32 88.21 80.36 88.24 80.39 88.32 80.43 88.36 80.47 88.4 80.51 88.48 80.51 88.55 80.55 88.59 80.59 88.67 80.59 88.71 80.62 88.78 80.62 88.82 80.66 88.9 80.66 88.94 80.66 89.01 80.66 89.09 80.7 89.13 80.7 89.21 80.7 89.25 80.7 89.32 80.7 89.36 80.7 89.44 80.66 89.52 80.66 89.55 80.66 89.63 80.62 89.71 80.62 89.75 80.59 89.82 80.55 89.86 80.51 89.9 80.47 89.94 80.43 89.94 80.43 89.98 80.39 89.98 80.36 89.98 80.32 90.02 80.28 90.02 80.24 90.02 80.2 90.02 80.16 90.02 80.12 90.02 80.12 89.98 80.09 89.98 80.05 89.98 80.01 89.98 79.97 89.94 79.93 89.94 79.89 89.9 79.85 89.9 79.82 89.86 79.78 89.86 79.74 89.82 79.7 89.79 79.66 89.75 79.62 89.71 79.59 89.67 79.55 89.63 79.51 89.59 79.47 89.52 79.43 89.48 79.39 89.44 79.35 89.36 79.32 89.32 79.32 89.28 79.28 89.21 79.24 89.17 79.24 89.09 79.2 89.05 79.2 88.98 79.16 88.94 79.16 88.86 79.12 88.82 79.12 88.75 79.12 88.71 79.12 88.67 79.08 88.59 79.08 88.55 79.08 88.48 79.08 88.44"/><polyline class="cls-1" points="85.71 83.97 86.09 84.16 86.09 86.94 83.82 85.63 83.82 82.89 84.21 83.12 84.21 82.62 84.21 82.58 84.21 82.55 84.24 82.51 84.24 82.47 84.24 82.43 84.24 82.39 84.24 82.35 84.28 82.32 84.32 82.28 84.32 82.24 84.36 82.2 84.4 82.16 84.44 82.12 84.48 82.12 84.51 82.12 84.55 82.08 84.59 82.08 84.63 82.08 84.67 82.08 84.71 82.08 84.74 82.08 84.78 82.12 84.82 82.12 84.86 82.12 84.9 82.16 84.94 82.16 84.94 82.2 84.98 82.2 85.01 82.24 85.05 82.28 85.09 82.28 85.13 82.32 85.17 82.35 85.21 82.39 85.25 82.43 85.28 82.43 85.32 82.47 85.32 82.51 85.36 82.55 85.4 82.62 85.44 82.66 85.44 82.7 85.48 82.74 85.51 82.78 85.51 82.82 85.55 82.85 85.55 82.93 85.59 82.97 85.59 83.01 85.63 83.05 85.63 83.09 85.67 83.16 85.67 83.2 85.67 83.24 85.67 83.28 85.71 83.32 85.71 83.39 85.71 83.43 85.71 83.47 85.71 83.97"/><line class="cls-1" x1="83.82" y1="61.68" x2="83.78" y2="61.68"/><line class="cls-1" x1="83.28" y1="61.14" x2="83.28" y2="61.14"/><line class="cls-1" x1="79.66" y1="63.91" x2="79.62" y2="63.95"/><line class="cls-1" x1="82.36" y1="63.14" x2="82.09" y2="63.33"/><line class="cls-1" x1="80.36" y1="62.29" x2="80.36" y2="62.33"/><line class="cls-1" x1="85.9" y1="64.91" x2="85.75" y2="64.99"/><line class="cls-1" x1="85.4" y1="64.3" x2="85.4" y2="64.3"/><line class="cls-1" x1="85.55" y1="62.68" x2="85.51" y2="62.68"/><line class="cls-1" x1="80.59" y1="59.83" x2="80.55" y2="59.83"/><line class="cls-1" x1="80.05" y1="59.29" x2="80.05" y2="59.29"/><line class="cls-1" x1="79.93" y1="64.68" x2="79.93" y2="64.68"/><line class="cls-1" x1="82.16" y1="62.45" x2="82.16" y2="62.45"/><line class="cls-1" x1="82.32" y1="60.83" x2="82.28" y2="60.83"/><line class="cls-1" x1="82.67" y1="63.06" x2="82.51" y2="63.14"/><line class="cls-1" x1="85.17" y1="66.99" x2="85.17" y2="67.03"/><line class="cls-1" x1="85.36" y1="67.76" x2="85.32" y2="67.76"/><line class="cls-1" x1="80.32" y1="80.47" x2="80.32" y2="80.47"/><line class="cls-1" x1="77.62" y1="79.04" x2="77.58" y2="79.04"/><polyline class="cls-1" points="84.4 82.7 84.4 83.2 85.51 83.86 85.55 83.86"/><line class="cls-1" x1="84.24" y1="83.09" x2="84.21" y2="83.12"/><line class="cls-1" x1="84.24" y1="82.62" x2="84.21" y2="82.62"/><line class="cls-1" x1="85.51" y1="83.86" x2="85.51" y2="83.35"/><line class="cls-1" x1="85.55" y1="83.35" x2="85.51" y2="83.35"/><polyline class="cls-1" points="85.51 83.35 85.51 83.32 85.51 83.28 85.51 83.24 85.51 83.2 85.51 83.16 85.48 83.12 85.48 83.09 85.48 83.05 85.48 83.01 85.44 82.97 85.44 82.93 85.4 82.89 85.4 82.85 85.36 82.82 85.36 82.78 85.32 82.74 85.28 82.7 85.28 82.66 85.25 82.66 85.25 82.62 85.21 82.58 85.17 82.55 85.13 82.51 85.09 82.47 85.05 82.47 85.05 82.43 85.01 82.43 84.98 82.39 84.94 82.35 84.9 82.35 84.86 82.35 84.86 82.32 84.82 82.32 84.78 82.32 84.74 82.32 84.71 82.32 84.67 82.32 84.63 82.32 84.59 82.32 84.59 82.35 84.55 82.35 84.51 82.35 84.51 82.39 84.48 82.39 84.48 82.43 84.44 82.43 84.44 82.47 84.44 82.51 84.4 82.55 84.4 82.58 84.4 82.62 84.4 82.66 84.4 82.7"/><line class="cls-1" x1="83.86" y1="85.63" x2="83.82" y2="85.63"/><polyline class="cls-1" points="79.35 88.59 79.35 88.67 79.35 88.71 79.35 88.75 79.35 88.82 79.35 88.86 79.39 88.9 79.39 88.94 79.39 89.01 79.43 89.05 79.43 89.09 79.47 89.13 79.51 89.21 79.51 89.25 79.55 89.28 79.59 89.32 79.62 89.36 79.62 89.4 79.66 89.44 79.7 89.48 79.74 89.48 79.74 89.52 79.78 89.55 79.82 89.55 79.85 89.59 79.89 89.59 79.89 89.63 79.93 89.63 79.97 89.67 80.01 89.67 80.05 89.67 80.09 89.71 80.12 89.71 80.16 89.71 80.2 89.67 80.24 89.67 80.28 89.67 80.28 89.63 80.32 89.63 80.32 89.59 80.36 89.59 80.36 89.55 80.39 89.52 80.39 89.48 80.39 89.44 80.43 89.4 80.43 89.36 80.43 89.32 80.43 89.28 80.43 89.25 80.43 89.21 80.43 89.17 80.43 89.09 80.43 89.05 80.43 89.01 80.43 88.98 80.43 88.9 80.39 88.86 80.39 88.78 80.39 88.75 80.36 88.67 80.36 88.63 80.32 88.55 80.28 88.51 80.24 88.48 80.2 88.4 80.16 88.36 80.16 88.32 80.12 88.32 80.09 88.28 80.05 88.24 80.01 88.21 79.97 88.17 79.93 88.17 79.89 88.13"/><line class="cls-1" x1="79.93" y1="88.13" x2="79.89" y2="88.13"/><line class="cls-1" x1="79.12" y1="88.44" x2="79.08" y2="88.44"/><polyline class="cls-1" points="79.89 88.13 79.85 88.09 79.78 88.09 79.74 88.05 79.7 88.05 79.66 88.05 79.62 88.05 79.59 88.05 79.55 88.09 79.51 88.09 79.47 88.13 79.43 88.17 79.43 88.21 79.39 88.24 79.39 88.28 79.35 88.32 79.35 88.36 79.35 88.4 79.35 88.44 79.35 88.48 79.35 88.51 79.35 88.59"/><line class="cls-1" x1="77.85" y1="88.71" x2="77.81" y2="88.75"/><polyline class="cls-1" points="77.78 87.01 77.81 87.05 77.89 87.05 77.93 87.09 77.97 87.09 78.01 87.09 78.05 87.09 78.08 87.09 78.12 87.09 78.16 87.05 78.2 87.05 78.2 87.01 78.24 87.01 78.28 86.97 78.28 86.94 78.28 86.9 78.31 86.86 78.31 86.82 78.31 86.78 78.31 86.74 78.31 86.7 78.35 86.67 78.35 86.63 78.35 86.59 78.35 86.55 78.35 86.51 78.35 86.47 78.35 86.44 78.31 86.4 78.31 86.32 78.31 86.28 78.31 86.24 78.31 86.2 78.28 86.17 78.28 86.13 78.24 86.05 78.24 86.01 78.2 85.97 78.2 85.93 78.16 85.9 78.12 85.86 78.12 85.82 78.08 85.78 78.05 85.74 78.01 85.7 77.97 85.67 77.93 85.63 77.89 85.63 77.85 85.59 77.81 85.55 77.78 85.51 77.74 85.51 77.7 85.47 77.66 85.47 77.62 85.47 77.58 85.47 77.54 85.47 77.51 85.47 77.47 85.47 77.43 85.47 77.43 85.51 77.39 85.51 77.35 85.55 77.35 85.59 77.31 85.59 77.31 85.63 77.31 85.67 77.28 85.67 77.28 85.7 77.28 85.74 77.28 85.78 77.24 85.86 77.24 85.93 77.24 85.97 77.24 86.05 77.24 86.13 77.24 86.17 77.28 86.2 77.28 86.28 77.28 86.32 77.31 86.4 77.31 86.44 77.35 86.51 77.35 86.55 77.39 86.59 77.43 86.67 77.43 86.7 77.47 86.74 77.51 86.78 77.54 86.82 77.58 86.86 77.62 86.9 77.66 86.94 77.7 86.94 77.7 86.97 77.74 87.01 77.78 87.01"/><line class="cls-1" x1="77.81" y1="87.28" x2="77.78" y2="87.32"/><line class="cls-1" x1="53.21" y1="70.23" x2="53.17" y2="70.23"/><line class="cls-1" x1="57.75" y1="72.3" x2="57.29" y2="72.57"/><line class="cls-1" x1="59.68" y1="72.61" x2="59.64" y2="72.61"/><line class="cls-1" x1="60.45" y1="72.84" x2="59.95" y2="73.15"/><line class="cls-1" x1="69.88" y1="79.74" x2="69.84" y2="79.74"/><line class="cls-1" x1="74.39" y1="81.81" x2="73.96" y2="82.08"/><line class="cls-1" x1="68.69" y1="77.77" x2="68.69" y2="77.77"/><line class="cls-1" x1="69.46" y1="78" x2="69" y2="78.31"/><line class="cls-1" x1="64.95" y1="82.82" x2="64.95" y2="82.85"/><line class="cls-1" x1="64.57" y1="81.12" x2="64.57" y2="81.16"/><line class="cls-1" x1="60.14" y1="67.68" x2="60.14" y2="67.68"/><line class="cls-1" x1="61.37" y1="68.95" x2="61.33" y2="68.95"/><line class="cls-1" x1="51.52" y1="73.88" x2="51.55" y2="73.84"/><line class="cls-1" x1="57.83" y1="66.95" x2="57.79" y2="66.95"/><line class="cls-1" x1="57.48" y1="70.61" x2="57.48" y2="70.65"/><line class="cls-1" x1="58.68" y1="72.03" x2="58.33" y2="72.23"/><line class="cls-1" x1="65.38" y1="76.66" x2="64.95" y2="76.92"/><line class="cls-1" x1="60.83" y1="74.58" x2="60.83" y2="74.58"/><line class="cls-1" x1="68.88" y1="85.09" x2="68.84" y2="85.09"/><line class="cls-1" x1="74" y1="87.98" x2="73.96" y2="87.98"/><line class="cls-1" x1="73.62" y1="86.28" x2="73.58" y2="86.28"/><line class="cls-1" x1="69.15" y1="72.84" x2="69.15" y2="72.84"/><line class="cls-1" x1="70.38" y1="74.11" x2="70.38" y2="74.11"/><line class="cls-1" x1="59.83" y1="79.93" x2="59.83" y2="79.93"/><line class="cls-1" x1="53.71" y1="64.6" x2="53.71" y2="64.6"/><line class="cls-1" x1="52.48" y1="63.33" x2="52.48" y2="63.33"/><line class="cls-1" x1="52.21" y1="75.58" x2="52.21" y2="75.58"/><path class="cls-1" d="m38.89,32.1c-.05.05-.09.1-.14.16"/><path class="cls-1" d="m88.6,118.01c.07,0,.14-.02.21-.04"/><path class="cls-1" d="m38.48,32.28c-.62.36-.97,1.13-.97,2.15"/><line class="cls-1" x1="37.5" y1="34.46" x2="37.62" y2="34.38"/><path class="cls-1" d="m40.72,32.42c-1.91-1.09-3.46-.19-3.46,2.01"/><path class="cls-1" d="m37.28,34.43c.07.04.18.04.25,0"/><path class="cls-1" d="m40.71,32.43s.01.07.03.08"/><path class="cls-1" d="m85.99,119.73c2.61,1.48,4.73.25,4.73-2.75"/><line class="cls-1" x1="90.67" y1="117.01" x2="90.67" y2="64.91"/><path class="cls-1" d="m90.72,64.88c0-3-2.11-6.64-4.72-8.12"/><line class="cls-1" x1="85.98" y1="56.79" x2="40.7" y2="30.99"/><path class="cls-1" d="m40.72,30.97c-2.61-1.48-4.73-.25-4.73,2.75"/><line class="cls-1" x1="36" y1="33.72" x2="36" y2="85.78"/><path class="cls-1" d="m35.99,85.77c0,3,2.11,6.64,4.72,8.12"/><line class="cls-1" x1="40.7" y1="93.9" x2="85.98" y2="119.74"/><line class="cls-1" x1="40.7" y1="32.41" x2="85.98" y2="58.25"/><path class="cls-1" d="m89.46,64.17c0-2.2-1.55-4.87-3.46-5.96"/><line class="cls-1" x1="89.4" y1="64.18" x2="89.4" y2="116.28"/><path class="cls-1" d="m86,118.28c1.91,1.09,3.46.19,3.46-2.01"/><line class="cls-1" x1="85.98" y1="118.28" x2="40.7" y2="92.48"/><path class="cls-1" d="m37.25,86.48c0,2.2,1.55,4.87,3.46,5.96"/><line class="cls-1" x1="37.23" y1="86.51" x2="37.23" y2="34.46"/><path class="cls-1" d="m37.28,86.48c.07.04.18.04.25,0"/><polyline class="cls-1" points="37.62 86.47 37.5 86.51 37.5 34.46"/><path class="cls-1" d="m37.55,86.48c0,2.11,1.49,4.67,3.32,5.72"/><line class="cls-1" x1="40.85" y1="92.25" x2="40.93" y2="92.17"/><path class="cls-1" d="m40.87,92.24c-.07.04-.12.13-.12.21"/><path class="cls-1" d="m86.11,118.04c-.07.04-.12.13-.12.21"/><polyline class="cls-1" points="86.21 118.01 86.09 118.05 40.85 92.25"/><path class="cls-1" d="m86.11,118.04c.88.5,1.73.58,2.35.22"/><path class="cls-1" d="m89.4,116.18s.02.05.05.07"/><path class="cls-1" d="m89.4,64.08s.02.05.05.07"/><path class="cls-1" d="m85.99,58.23s.01.07.03.08"/><path class="cls-1" d="m85.99,119.72s.01.07.03.08"/><path class="cls-1" d="m89.5,120.15c.94-.52,1.47-1.66,1.47-3.17"/><path class="cls-1" d="m90.73,116.98c.07.04.18.04.24,0"/><line class="cls-1" x1="90.94" y1="117.01" x2="90.94" y2="64.91"/><path class="cls-1" d="m90.69,64.88c.07.04.18.04.24,0"/><path class="cls-1" d="m90.98,64.88c0-3.09-2.17-6.83-4.86-8.36"/><path class="cls-1" d="m86.11,56.55c-.07.04-.12.13-.12.21"/><line class="cls-1" x1="86.09" y1="56.56" x2="40.81" y2="30.76"/><path class="cls-1" d="m40.83,30.75c-.07.04-.12.13-.12.21"/><path class="cls-1" d="m40.84,30.73c-1.31-.75-2.57-.85-3.49-.29"/><path class="cls-1" d="m35.96,33.63s.02.05.05.07"/><path class="cls-1" d="m35.96,85.68s.02.05.05.07"/><path class="cls-1" d="m40.75,93.88s.01.07.03.08"/><path class="cls-1" d="m44.41,89.22s.07-.01.1-.02"/><path class="cls-1" d="m40.91,83s-.05.05-.07.08"/><line class="cls-1" x1="86.09" y1="58.44" x2="86.13" y2="58.4"/><line class="cls-1" x1="89.33" y1="63.99" x2="89.37" y2="63.95"/><line class="cls-1" x1="40.81" y1="32.61" x2="40.89" y2="32.61"/><line class="cls-1" x1="89.33" y1="116.08" x2="89.37" y2="116.04"/><path class="cls-1" d="m55.47,21.94c-1.38-.78-2.7-.9-3.66-.31"/><line class="cls-1" x1="55.44" y1="21.98" x2="100.69" y2="47.78"/><path class="cls-1" d="m105.81,56.56c0-3.24-2.28-7.18-5.1-8.78"/><line class="cls-1" x1="105.81" y1="56.56" x2="105.81" y2="108.65"/><path class="cls-1" d="m104.27,111.94c.99-.54,1.54-1.74,1.54-3.33"/><line class="cls-1" x1="90.94" y1="117.01" x2="105.81" y2="108.65"/><line class="cls-1" x1="90.94" y1="64.91" x2="105.81" y2="56.56"/><line class="cls-1" x1="86.09" y1="56.56" x2="100.69" y2="47.78"/><line class="cls-1" x1="40.81" y1="30.76" x2="55.44" y2="21.98"/><line class="cls-1" x1="62.68" y1="96.1" x2="62.57" y2="96.14"/><line class="cls-1" x1="64.38" y1="99.18" x2="64.38" y2="99.22"/><line class="cls-1" x1="52.63" y1="93.83" x2="52.59" y2="93.83"/><line class="cls-1" x1="48.74" y1="86.59" x2="48.47" y2="86.78"/><line class="cls-1" x1="78.51" y1="108.57" x2="78.47" y2="108.61"/><line class="cls-1" x1="74.66" y1="101.37" x2="74.35" y2="101.53"/><line class="cls-1" x1="65.53" y1="101.22" x2="65.53" y2="101.22"/><line class="cls-1" x1="61.68" y1="93.98" x2="61.41" y2="94.14"/><line class="cls-1" x1="79.7" y1="80.27" x2="79.55" y2="80.35"/><line class="cls-1" x1="84.67" y1="82.28" x2="84.55" y2="82.35"/><line class="cls-1" x1="80.28" y1="89.63" x2="80.24" y2="89.67"/><line class="cls-1" x1="79.62" y1="88.01" x2="79.55" y2="88.09"/><line class="cls-1" x1="77.54" y1="85.43" x2="77.43" y2="85.51"/><line class="cls-1" x1="78.16" y1="87.05" x2="78.16" y2="87.05"/><polyline class="cls-1" points="40.74 32.53 40.66 32.45 40.58 32.41 40.5 32.38 40.43 32.34 40.35 32.3 40.27 32.3 40.16 32.26 40.08 32.22 40 32.18 39.93 32.18 39.85 32.15 39.77 32.15 39.7 32.11 39.62 32.11 39.58 32.11 39.5 32.11 39.43 32.07 39.35 32.07 39.27 32.07 39.19 32.07 39.16 32.07 39.08 32.11 39 32.11 38.93 32.11 38.89 32.15 38.81 32.15 38.77 32.15 38.69 32.18 38.66 32.22 38.58 32.22 38.54 32.26 38.46 32.3"/><polyline class="cls-1" points="88.44 118.28 88.48 118.24 88.56 118.2 88.6 118.16 88.63 118.12 88.71 118.09 88.75 118.05 88.79 118.01 88.83 117.97 88.86 117.89 88.9 117.85 88.94 117.82 88.98 117.74 89.02 117.7 89.06 117.62 89.1 117.55 89.13 117.51 89.13 117.43 89.17 117.35 89.21 117.28 89.21 117.2 89.25 117.12 89.29 117.05 89.29 116.97 89.29 116.89 89.33 116.81 89.33 116.74 89.33 116.66 89.37 116.55 89.37 116.47 89.37 116.39 89.37 116.28 89.37 116.2 89.37 64.1 89.37 64.03 89.37 63.95 89.37 63.83 89.37 63.72 89.33 63.64 89.33 63.53 89.33 63.45 89.29 63.33 89.29 63.22 89.25 63.14 89.25 63.03 89.21 62.91 89.21 62.83 89.17 62.72 89.13 62.6 89.1 62.49 89.06 62.41 89.06 62.29 89.02 62.18 88.98 62.06 88.94 61.99 88.9 61.87 88.83 61.75 88.79 61.64 88.75 61.56 88.71 61.45 88.63 61.33 88.6 61.22 88.56 61.14 88.48 61.02 88.44 60.91 88.36 60.83 88.33 60.71 88.25 60.64 88.21 60.52 88.13 60.41 88.06 60.33 87.98 60.21 87.94 60.14 87.86 60.06 87.79 59.94 87.71 59.87 87.63 59.79 87.59 59.68 87.52 59.6 87.44 59.52 87.36 59.44 87.29 59.37 87.21 59.29 87.13 59.21 87.05 59.14 86.98 59.06 86.9 58.98 86.82 58.91 86.75 58.83 86.63 58.79 86.55 58.71 86.48 58.64 86.4 58.6 86.32 58.52 86.25 58.48 86.17 58.4 86.09 58.37 86.02 58.33 40.74 32.53"/><polyline class="cls-1" points="89.48 120.16 89.4 120.2 89.29 120.24 89.21 120.28 89.1 120.32 89.02 120.36 88.9 120.4 88.83 120.4 88.71 120.43 88.6 120.43 88.52 120.43 88.4 120.47 88.29 120.47 88.17 120.47 88.06 120.47 87.98 120.47 87.86 120.43 87.75 120.43 87.63 120.43 87.52 120.4 87.4 120.4 87.29 120.36 87.17 120.32 87.05 120.28 86.94 120.24 86.82 120.2 86.71 120.16 86.59 120.13 86.48 120.05 86.36 120.01 86.25 119.93 86.13 119.89 86.02 119.82"/><polyline class="cls-1" points="86.02 119.82 40.74 94.02 40.62 93.94 40.5 93.87 40.39 93.79 40.27 93.71 40.16 93.64 40.04 93.52 39.93 93.44 39.81 93.37 39.7 93.25 39.58 93.17 39.46 93.06 39.35 92.98 39.23 92.87 39.12 92.75 39 92.63 38.89 92.52 38.77 92.4 38.69 92.29 38.58 92.17 38.46 92.06 38.35 91.94 38.27 91.79 38.16 91.67 38.08 91.56 37.96 91.4 37.89 91.29 37.77 91.13 37.69 91.02 37.62 90.86 37.5 90.71 37.42 90.59 37.35 90.44 37.27 90.29 37.19 90.17 37.12 90.02 37.04 89.86 36.96 89.71 36.88 89.55 36.81 89.4 36.73 89.28 36.69 89.13 36.62 88.98 36.54 88.82 36.5 88.67 36.46 88.51 36.38 88.36 36.35 88.21 36.31 88.05 36.27 87.9 36.23 87.74 36.19 87.59 36.15 87.44 36.11 87.32 36.08 87.17 36.04 87.01 36.04 86.86 36 86.7 36 86.55 35.96 86.44 35.96 86.28 35.96 86.13 35.92 86.01 35.92 85.86 35.92 85.7 35.92 33.65 35.92 33.49 35.92 33.38 35.92 33.26 35.96 33.11 35.96 32.99 35.96 32.88 36 32.72 36 32.61 36.04 32.49 36.08 32.38 36.11 32.26 36.11 32.15 36.15 32.03 36.19 31.95 36.23 31.84 36.31 31.72 36.35 31.61 36.38 31.53 36.42 31.41 36.5 31.34 36.54 31.26 36.62 31.14 36.69 31.07 36.73 30.99 36.81 30.91 36.88 30.84 36.96 30.76 37.04 30.68 37.12 30.64 37.19 30.57 37.27 30.53 37.35 30.45"/><line class="cls-1" x1="38.54" y1="32.41" x2="39.08" y2="32.11"/><line class="cls-1" x1="88.36" y1="118.16" x2="88.9" y2="117.85"/><line class="cls-1" x1="44.55" y1="89.13" x2="44.12" y2="89.36"/><line class="cls-1" x1="40.97" y1="83.01" x2="40.58" y2="83.24"/><line class="cls-1" x1="89.48" y1="120.16" x2="104.27" y2="111.96"/><line class="cls-1" x1="37.35" y1="30.45" x2="51.79" y2="21.67"/><polyline class="cls-1" points="80.32 62.52 80.28 62.52 79.93 61.87"/><polyline class="cls-1" points="80.2 63.99 80.16 63.99 80.28 62.52"/><line class="cls-1" x1="79.66" y1="63.91" x2="80.16" y2="63.99"/><line class="cls-1" x1="85.36" y1="62.56" x2="85.63" y2="62.06"/><line class="cls-1" x1="82.13" y1="60.71" x2="82.4" y2="60.21"/><line class="cls-1" x1="81.93" y1="65.8" x2="81.78" y2="65.1"/><polyline class="cls-1" points="82.05 63.29 82.36 63.14 82.13 62.68"/><polyline class="cls-1" points="82.86 60.87 82.82 60.87 82.67 63.03 82.51 63.1"/><polyline class="cls-1" points="82.82 60.87 82.82 60.83 82.82 60.79 82.82 60.75 82.82 60.71 82.82 60.68 82.78 60.64 82.78 60.6 82.74 60.56 82.74 60.52"/><polyline class="cls-1" points="85.32 67.76 85.36 67.76 85.4 67.76 85.44 67.72 85.48 67.72 85.51 67.72 85.55 67.68 85.59 67.65 85.63 67.65 85.63 67.61 85.63 67.57 85.67 67.53 85.67 67.49 85.67 67.45 85.67 67.41 85.67 67.38 85.67 67.3 85.67 67.26 85.67 67.18 85.71 67.14 85.71 67.07 85.71 66.99 85.71 66.91 85.71 66.84 85.71 66.76 85.75 66.68 85.75 66.49 85.75 66.34 85.78 66.18 85.78 66.07 85.78 65.99 85.78 65.91 85.78 65.84 85.82 65.8 85.82 65.72 85.82 65.64 85.82 65.6 85.82 65.53 85.82 65.49 85.82 65.45 85.82 65.41 85.82 65.37 85.86 65.37 85.86 65.34 85.75 65.14"/><line class="cls-1" x1="85.63" y1="67.65" x2="85.55" y2="67.68"/><polyline class="cls-1" points="50.52 91.56 52.02 90.71 51.9 90.52"/><polyline class="cls-1" points="50.52 91.29 50.52 91.29 49.17 88.94"/><polyline class="cls-1" points="49.05 92.33 48.94 92.21 48.86 92.06 48.74 91.94 48.67 91.79 48.55 91.67 48.47 91.52 48.4 91.36 48.32 91.25 48.24 91.09 48.17 90.94 48.13 90.79 48.05 90.63 47.97 90.48 47.94 90.36 47.86 90.21 47.82 90.05 47.78 89.9 47.74 89.75 47.7 89.59 47.67 89.44 47.67 89.28 47.63 89.13 47.63 88.98 47.63 88.86 47.59 88.71 47.59 88.55 47.59 88.4 47.63 88.28 47.63 88.13 47.67 88.01 47.67 87.9 47.7 87.78 47.74 87.67 47.78 87.55 47.82 87.47 47.86 87.36 47.94 87.28 47.97 87.17 48.05 87.09 48.09 87.01 48.17 86.94 48.24 86.9 48.32 86.82 48.4 86.78 48.47 86.7 48.55 86.67 48.63 86.63 48.74 86.59 48.82 86.59 48.94 86.55 49.01 86.55 49.13 86.55 49.24 86.55 49.32 86.55 49.44 86.55 49.55 86.55 49.67 86.59 49.78 86.63 49.9 86.67 50.01 86.7 50.13 86.74 50.25 86.78 50.4 86.86 50.52 86.94 50.63 86.97"/><polyline class="cls-1" points="50.44 93.94 50.52 93.98 50.59 94.02 50.63 94.06 50.71 94.1 50.78 94.14 50.86 94.17 50.9 94.17 50.98 94.21 51.09 94.25 51.25 94.33 51.36 94.33 51.48 94.37 51.59 94.41 51.71 94.41 51.82 94.41 51.94 94.41 52.06 94.41 52.17 94.41 52.29 94.41 52.4 94.37 52.48 94.33 52.59 94.29 52.67 94.25 52.79 94.21 52.86 94.17 52.94 94.1 53.02 94.06 53.09 93.98 53.17 93.9 53.25 93.83 53.33 93.71 53.36 93.64 53.44 93.52 53.48 93.44 53.52 93.33 53.56 93.21 53.6 93.1 53.63 92.98 53.67 92.83 53.71 92.71 53.71 92.63 53.71 92.56 53.71 92.48 53.75 92.4 53.75 92.36 53.75 92.29 53.75 92.21 53.75 92.13 53.75 92.06 53.75 91.98 53.75 91.9 53.75 91.79 53.71 91.71 53.71 91.63 53.71 91.56 53.71 91.48 53.67 91.33 53.63 91.17 53.63 91.02 53.6 90.82 53.52 90.67 53.48 90.52 53.44 90.36 53.36 90.17 53.33 90.02 53.25 89.86 53.17 89.71 53.09 89.55 53.02 89.36 52.94 89.21 52.86 89.05 52.79 88.9 52.67 88.75 52.59 88.63 52.48 88.48 52.4 88.32"/><line class="cls-1" x1="53.09" y1="94.02" x2="52.79" y2="94.21"/><polyline class="cls-1" points="62.45 96.37 62.45 96.33 62.45 96.29 62.45 96.25 62.49 96.22 62.49 96.18 62.53 96.14 62.57 96.1 62.61 96.1 62.64 96.1 62.68 96.1 62.72 96.1 62.76 96.1 62.8 96.14 62.84 96.14 63.45 96.48"/><line class="cls-1" x1="62.45" y1="96.37" x2="62.45" y2="96.37"/><line class="cls-1" x1="62.45" y1="97.79" x2="62.45" y2="96.37"/><line class="cls-1" x1="62.45" y1="97.76" x2="62.45" y2="97.79"/><polyline class="cls-1" points="62.57 98.18 62.53 98.14 62.53 98.1 62.49 98.02 62.49 97.99 62.45 97.95 62.45 97.87 62.45 97.83 62.45 97.79"/><line class="cls-1" x1="64.8" y1="97.68" x2="64.76" y2="97.68"/><line class="cls-1" x1="64.76" y1="99.1" x2="64.76" y2="97.68"/><line class="cls-1" x1="64.8" y1="99.1" x2="64.76" y2="99.1"/><polyline class="cls-1" points="64.07 99.53 64.11 99.53 64.15 99.56 64.18 99.56 64.22 99.6 64.26 99.6 64.3 99.6 64.34 99.6 64.38 99.6 64.41 99.6 64.45 99.6 64.49 99.6 64.53 99.6 64.53 99.56 64.57 99.56 64.61 99.56 64.61 99.53 64.65 99.53 64.65 99.49 64.68 99.49 64.68 99.45 64.72 99.41 64.72 99.37 64.76 99.33 64.76 99.3 64.76 99.26 64.76 99.22 64.76 99.18 64.76 99.14 64.76 99.1"/><line class="cls-1" x1="62.87" y1="98.83" x2="63.45" y2="99.18"/><polyline class="cls-1" points="64.76 97.68 64.76 97.64 64.76 97.6 64.76 97.56 64.76 97.52 64.76 97.49 64.76 97.45 64.72 97.41 64.72 97.37 64.72 97.33 64.68 97.29 64.68 97.25 64.68 97.22 64.65 97.18 64.65 97.14 64.61 97.1 64.61 97.06"/><line class="cls-1" x1="64.72" y1="99.49" x2="64.57" y2="99.56"/><polyline class="cls-1" points="74 105.53 73.96 105.42 73.89 105.3 73.85 105.19 73.81 105.03 73.77 104.92 73.73 104.8 73.69 104.69 73.66 104.57 73.62 104.42 73.62 104.3 73.58 104.19 73.54 104.07 73.54 103.95 73.54 103.8 73.5 103.68 73.5 103.57 73.5 103.45 73.5 103.34 73.5 103.22 73.5 103.11 73.5 102.99 73.54 102.88 73.54 102.8 73.58 102.68 73.58 102.61 73.62 102.49 73.66 102.41 73.69 102.34 73.69 102.22 73.73 102.14 73.77 102.07 73.85 101.99 73.89 101.91 73.93 101.88 73.96 101.8 74.04 101.76 74.08 101.68 74.16 101.64 74.19 101.57 74.27 101.53 74.35 101.49 74.43 101.45 74.46 101.41 74.54 101.41 74.62 101.37 74.7 101.34 74.77 101.34 74.85 101.3 74.93 101.3 75.04 101.3 75.12 101.3 75.2 101.3 75.27 101.3 75.39 101.3 75.47 101.34 75.54 101.34 75.66 101.37 75.73 101.37 75.85 101.41 75.93 101.45 76.04 101.49 76.16 101.53 76.24 101.61 76.35 101.64"/><polyline class="cls-1" points="76.5 108.81 76.62 108.88 76.74 108.92 76.85 108.96 76.93 109 77.04 109.04 77.12 109.08 77.24 109.11 77.35 109.11 77.43 109.15 77.54 109.15 77.62 109.15 77.7 109.19 77.81 109.19 77.89 109.19 77.97 109.19 78.08 109.15 78.16 109.15 78.24 109.15 78.31 109.11 78.39 109.11 78.47 109.08 78.55 109.04 78.62 109 78.7 108.96 78.78 108.92 78.82 108.88 78.89 108.81 78.97 108.77 79.01 108.73 79.08 108.65 79.12 108.57 79.2 108.54 79.24 108.46 79.28 108.38 79.32 108.31 79.35 108.23 79.39 108.15 79.43 108.04 79.47 107.96 79.51 107.88 79.55 107.77 79.55 107.65 79.59 107.57 79.59 107.46 79.62 107.34 79.62 107.23 79.62 107.11 79.62 107 79.62 106.88 79.62 106.77 79.62 106.65 79.62 106.5 79.62 106.38 79.59 106.26 79.59 106.11 79.55 106 79.55 105.88 79.51 105.73 79.47 105.61 79.43 105.49 79.39 105.34 79.35 105.23 79.32 105.11 79.28 104.96"/><line class="cls-1" x1="78.97" y1="108.81" x2="78.7" y2="108.96"/><polyline class="cls-1" points="77.39 86.63 77.39 86.59 77.35 86.55 77.31 86.47 77.31 86.44 77.28 86.36 77.28 86.32 77.24 86.24 77.24 86.17 77.24 86.13 77.24 86.05 77.24 85.97 77.24 85.93 77.24 85.9 77.24 85.86 77.24 85.78 77.24 85.74 77.28 85.67 77.28 85.63 77.28 85.59 77.31 85.55 77.35 85.51 77.39 85.47 77.43 85.47 77.43 85.43 77.47 85.43 77.51 85.43 77.54 85.43 77.58 85.43 77.62 85.43 77.7 85.47 77.74 85.47 77.78 85.51"/><polyline class="cls-1" points="77.81 87.32 77.85 87.32 77.93 87.36 77.97 87.36 78.05 87.4 78.08 87.4 78.16 87.4 78.2 87.4 78.24 87.36 78.28 87.36 78.31 87.32 78.35 87.28 78.39 87.24 78.43 87.21 78.47 87.17 78.51 87.13 78.51 87.09 78.51 87.05 78.55 87.01 78.55 86.97 78.55 86.94 78.55 86.9 78.55 86.86 78.58 86.82 78.58 86.78 78.58 86.74 78.58 86.67 78.58 86.63 78.58 86.55 78.55 86.47 78.55 86.4 78.55 86.32 78.51 86.24 78.51 86.17 78.47 86.09 78.43 86.01 78.43 85.93 78.39 85.86 78.35 85.78"/><line class="cls-1" x1="78.47" y1="87.24" x2="78.31" y2="87.32"/><line class="cls-1" x1="78.16" y1="88.9" x2="79.82" y2="86.4"/><polyline class="cls-1" points="81.01 83.82 81.01 83.82 80.89 83.12"/><line class="cls-1" x1="80.89" y1="80.93" x2="81.05" y2="80.35"/><polyline class="cls-1" points="79.51 82.08 79.51 82.05 79.47 82.01 79.47 81.97 79.43 81.93 79.43 81.85 79.39 81.81 79.39 81.78 79.35 81.74 79.35 81.7 79.35 81.62 79.32 81.58 79.32 81.55 79.32 81.51 79.28 81.43 79.28 81.39 79.28 81.35 79.28 81.28 79.28 81.24 79.28 81.2 79.28 81.12 79.28 81.08 79.28 81.04 79.28 80.97 79.28 80.93 79.28 80.85 79.28 80.81 79.28 80.78 79.28 80.74 79.32 80.7 79.32 80.66 79.32 80.62 79.35 80.58 79.35 80.54 79.39 80.51 79.39 80.47 79.43 80.43 79.47 80.43 79.47 80.39 79.51 80.35 79.55 80.35 79.59 80.31 79.62 80.31 79.66 80.27 79.7 80.27 79.74 80.27 79.78 80.27 79.82 80.27 79.85 80.27 79.89 80.27 79.97 80.31 80.05 80.31 80.12 80.35 80.2 80.39 80.28 80.43"/><polyline class="cls-1" points="80.93 80.89 80.89 80.93 80.82 80.85 80.78 80.78 80.7 80.7 80.62 80.66 80.55 80.62 80.47 80.54 80.39 80.51 80.32 80.47 80.24 80.43"/><polyline class="cls-1" points="78.24 88.86 78.16 88.9 77.85 88.71 79.51 86.24"/><polyline class="cls-1" points="77.81 87.32 77.81 87.28 77.78 87.28 77.74 87.24 77.7 87.24 77.66 87.21 77.62 87.17 77.58 87.13 77.54 87.13 77.51 87.09 77.47 87.05 77.47 87.01 77.43 86.97 77.39 86.94 77.35 86.9 77.31 86.86 77.31 86.82 77.28 86.74 77.24 86.7 77.24 86.67 77.2 86.63 77.16 86.59 77.16 86.55 77.12 86.47 77.12 86.44 77.08 86.4 77.08 86.36 77.08 86.28 77.04 86.24 77.04 86.2 77.04 86.17 77.04 86.13 77.01 86.01 77.01 85.93 77.01 85.86 77.01 85.78 77.01 85.7 77.01 85.67 77.04 85.59 77.04 85.55 77.04 85.51 77.08 85.43 77.08 85.4 77.12 85.36 77.12 85.32 77.16 85.28 77.2 85.24 77.24 85.2 77.28 85.2"/><polyline class="cls-1" points="78.16 87.05 78.2 87.05 78.2 87.01 78.24 87.01 78.28 86.97 78.31 86.9 78.31 86.86 78.31 86.82 78.35 86.78 78.35 86.7 78.35 86.67 78.35 86.63 78.35 86.55 78.35 86.51 78.35 86.44 78.35 86.4 78.35 86.36 78.35 86.32 78.31 86.24 78.31 86.2 78.31 86.17 78.28 86.13 78.28 86.05 78.24 86.01 78.24 85.97 78.2 85.93 78.2 85.86 78.16 85.86 78.16 85.82 78.12 85.78 78.08 85.74 78.05 85.7 78.01 85.67 77.97 85.63 77.93 85.63 77.89 85.59 77.85 85.55 77.81 85.51 77.78 85.51"/><line class="cls-1" x1="74.58" y1="101.37" x2="74.54" y2="101.41"/><polyline class="cls-1" points="76.5 108.81 76.39 108.73 76.27 108.65 76.16 108.57 76.04 108.5 75.93 108.42 75.81 108.34 75.7 108.23 75.58 108.15 75.47 108.04 75.35 107.92 75.23 107.8 75.12 107.69 75 107.57 74.89 107.46 74.81 107.3 74.7 107.19 74.62 107.03 74.5 106.92 74.43 106.77 74.31 106.65 74.23 106.5 74.16 106.34 74.08 106.19 73.96 106.03 73.89 105.92 73.85 105.76 73.77 105.61 73.69 105.46 73.66 105.3 73.58 105.15 73.54 104.99 73.46 104.84 73.42 104.69 73.39 104.53 73.35 104.38 73.31 104.22 73.31 104.07 73.27 103.92 73.23 103.76 73.23 103.65 73.23 103.49 73.23 103.34 73.23 103.22 73.23 103.07 73.23 102.91 73.23 102.8 73.23 102.68 73.27 102.57 73.31 102.41 73.31 102.3 73.35 102.18 73.39 102.11 73.42 101.99 73.46 101.88 73.54 101.8 73.58 101.68 73.66 101.61 73.69 101.53 73.77 101.45 73.85 101.37 73.93 101.3 73.96 101.26 74.08 101.18 74.16 101.14"/><polyline class="cls-1" points="78.51 108.57 78.58 108.54 78.66 108.5 78.74 108.42 78.78 108.38 78.85 108.31 78.93 108.23 78.97 108.15 79.01 108.07 79.08 108 79.12 107.92 79.16 107.84 79.2 107.73 79.24 107.65 79.24 107.54 79.28 107.42 79.32 107.3 79.32 107.23 79.35 107.11 79.35 107 79.35 106.84 79.35 106.73 79.35 106.61 79.35 106.5 79.35 106.38 79.32 106.23 79.32 106.11 79.28 105.96 79.28 105.84 79.24 105.69 79.2 105.57 79.16 105.42 79.12 105.3 79.08 105.15 79.05 105.03 79.01 104.88 78.93 104.76 78.89 104.61 78.82 104.45 78.78 104.34 78.7 104.19 78.62 104.07 78.55 103.95 78.47 103.8 78.39 103.68 78.31 103.57 78.24 103.42 78.16 103.3 78.05 103.18 77.97 103.07 77.89 102.95 77.78 102.84 77.7 102.72 77.58 102.61 77.51 102.53 77.39 102.41 77.28 102.34 77.2 102.22 77.08 102.14 76.97 102.07 76.89 101.99 76.77 101.91 76.66 101.84 76.54 101.76 76.47 101.72 76.35 101.64"/><line class="cls-1" x1="64.07" y1="99.53" x2="63.45" y2="99.18"/><polyline class="cls-1" points="64.38 99.18 64.41 99.18 64.41 99.14 64.45 99.14 64.45 99.1 64.49 99.06 64.49 99.03 64.49 98.99 64.49 98.95 64.49 97.52"/><polyline class="cls-1" points="62.87 98.83 62.84 98.83 62.8 98.79 62.76 98.76 62.72 98.76 62.68 98.72 62.64 98.68 62.64 98.64 62.61 98.6 62.57 98.6 62.53 98.56 62.49 98.53 62.49 98.49 62.45 98.45 62.41 98.41 62.37 98.33 62.37 98.29 62.34 98.26 62.34 98.22 62.3 98.18 62.3 98.14 62.26 98.1 62.26 98.06 62.22 97.99 62.22 97.95 62.18 97.91 62.18 97.87 62.18 97.83 62.18 97.79 62.18 97.76 62.18 97.72 62.14 97.64 62.14 97.6 62.14 96.22 62.14 96.18 62.18 96.14 62.18 96.1 62.18 96.06 62.18 96.02 62.18 95.98 62.18 95.95 62.22 95.95 62.22 95.91 62.26 95.87 62.26 95.83 62.3 95.79 62.34 95.75 62.37 95.75"/><polyline class="cls-1" points="64.49 97.52 64.49 97.49 64.49 97.45 64.49 97.41 64.45 97.33 64.45 97.29 64.41 97.25 64.41 97.18 64.38 97.14 64.34 97.1 64.3 97.06 64.3 97.02 64.26 96.99 64.22 96.95 64.18 96.91 64.15 96.87 64.11 96.87 63.45 96.48"/><polyline class="cls-1" points="50.44 93.94 50.32 93.87 50.21 93.79 50.09 93.71 49.98 93.64 49.86 93.56 49.74 93.44 49.63 93.37 49.51 93.25 49.44 93.13 49.32 93.02 49.21 92.9 49.09 92.79 49.01 92.67 48.9 92.56 48.78 92.4 48.71 92.29 48.59 92.13 48.51 92.02 48.44 91.86 48.32 91.75 48.24 91.59 48.17 91.44 48.09 91.29 48.01 91.13 47.94 90.98 47.86 90.82 47.78 90.67 47.74 90.52 47.67 90.36 47.63 90.21 47.59 90.05 47.51 89.9 47.47 89.75 47.43 89.59 47.4 89.4 47.4 89.25 47.36 89.09 47.36 88.98 47.32 88.82 47.32 88.67 47.32 88.55 47.32 88.4 47.32 88.28 47.32 88.13 47.36 88.01 47.36 87.9 47.36 87.78 47.4 87.67 47.43 87.59 47.43 87.47 47.47 87.36 47.51 87.28 47.55 87.17 47.63 87.09 47.67 86.97 47.7 86.9 47.78 86.82 47.82 86.74 47.9 86.67 47.94 86.59 48.01 86.55 48.09 86.47 48.17 86.44 48.24 86.36"/><polyline class="cls-1" points="48.63 86.63 48.59 86.7 48.51 86.74"/><polyline class="cls-1" points="52.63 93.83 52.67 93.79 52.75 93.75 52.83 93.67 52.9 93.64 52.94 93.56 53.02 93.48 53.06 93.4 53.13 93.33 53.17 93.25 53.21 93.17 53.25 93.1 53.29 92.98 53.33 92.9 53.36 92.79 53.36 92.67 53.4 92.6 53.44 92.48 53.44 92.36 53.44 92.25 53.44 92.13 53.48 92.02 53.48 91.9 53.44 91.75 53.44 91.63 53.44 91.52 53.4 91.36 53.4 91.25 53.36 91.13 53.36 90.98 53.33 90.86 53.29 90.71 53.25 90.59 53.21 90.44 53.17 90.32 53.13 90.17 53.06 90.02 53.02 89.9 52.94 89.75 52.9 89.63 52.83 89.52 52.75 89.36 52.67 89.25 52.59 89.09 52.52 88.98 52.44 88.86 52.36 88.71 52.29 88.59 52.21 88.48 52.13 88.36 52.02 88.24 51.94 88.13 51.82 88.01 51.75 87.94 51.63 87.82 51.55 87.71 51.44 87.63 51.36 87.51 51.25 87.44 51.13 87.36 51.05 87.28 50.94 87.21 50.82 87.13 50.71 87.05 50.63 86.97"/><line class="cls-1" x1="50.52" y1="91.56" x2="49.05" y2="89.01"/><polyline class="cls-1" points="85.32 67.76 85.17 66.99 85.32 65.37"/><polyline class="cls-1" points="82.51 63.1 82.16 62.45 82.32 60.83 82.55 60.33"/><polyline class="cls-1" points="82.05 63.29 80.36 62.29 80.12 61.83"/><polyline class="cls-1" points="79.93 64.68 79.93 64.64 79.89 64.64 79.85 64.6 79.82 64.57 79.82 64.53 79.78 64.49 79.74 64.45 79.74 64.41 79.7 64.37 79.7 64.33 79.66 64.3 79.66 64.22 79.66 64.18 79.66 64.14 79.62 64.1"/><line class="cls-1" x1="79.93" y1="64.68" x2="81.93" y2="65.8"/><polyline class="cls-1" points="80.05 59.29 80.09 59.25 80.09 59.21 80.12 59.17 80.12 59.14 80.16 59.14 80.16 59.1"/><polyline class="cls-1" points="82.2 60.68 82.13 60.71 80.59 59.83 80.05 59.29"/><polyline class="cls-1" points="83.28 61.14 83.32 61.1 83.32 61.06 83.36 61.02 83.36 60.98 83.4 60.95"/><polyline class="cls-1" points="85.44 62.52 85.36 62.56 83.82 61.68 83.28 61.14"/><line class="cls-1" x1="79.66" y1="63.91" x2="79.82" y2="61.91"/><polyline class="cls-1" points="85.78 62.18 85.55 62.68 85.4 64.3 85.75 64.95"/><polyline class="cls-1" points="79.35 87.78 79.32 87.82 79.28 87.86 79.24 87.9 79.24 87.94 79.2 87.98 79.2 88.01 79.16 88.05 79.16 88.09 79.12 88.13 79.12 88.17 79.12 88.21 79.12 88.28 79.12 88.32 79.12 88.36 79.12 88.44 79.12 88.48 79.12 88.55 79.12 88.59 79.12 88.67 79.12 88.71 79.16 88.75 79.16 88.82 79.16 88.86 79.2 88.94 79.2 88.98 79.2 89.01 79.24 89.09 79.28 89.13 79.28 89.17 79.32 89.25 79.32 89.28 79.35 89.32 79.39 89.4 79.43 89.44 79.47 89.48 79.51 89.52 79.51 89.55 79.55 89.59 79.59 89.63 79.62 89.67 79.66 89.71 79.7 89.75 79.74 89.79 79.78 89.82 79.82 89.86 79.89 89.86 79.93 89.9"/><polyline class="cls-1" points="79.89 88.09 79.93 88.13 79.97 88.17 80.01 88.17 80.05 88.21 80.09 88.21 80.09 88.24 80.12 88.28 80.16 88.32 80.2 88.32 80.2 88.36 80.24 88.4 80.28 88.48 80.32 88.51 80.32 88.55 80.36 88.59 80.39 88.67 80.39 88.71 80.39 88.78 80.43 88.82 80.43 88.86 80.43 88.94 80.47 88.98 80.47 89.01 80.47 89.05 80.47 89.09 80.47 89.13 80.47 89.17 80.47 89.21 80.47 89.25 80.47 89.28 80.43 89.32 80.43 89.36 80.43 89.4 80.43 89.44 80.43 89.48 80.39 89.48 80.39 89.52 80.36 89.55 80.36 89.59 80.32 89.59 80.32 89.63 80.28 89.63"/><polyline class="cls-1" points="77.62 79.04 77.62 79.04 77.58 79 77.51 78.97 77.47 78.93 77.43 78.89 77.39 78.85 77.35 78.81 77.31 78.77 77.28 78.73 77.24 78.66 77.2 78.62 77.16 78.54 77.12 78.5 77.12 78.43 77.08 78.39 77.08 78.31 77.08 78.27 77.04 78.23 77.04 78.2 77.04 78.16 77.08 78.12 77.08 78.08 77.08 78.04 77.12 77.96 77.12 77.93 77.16 77.93 77.2 77.89"/><polyline class="cls-1" points="83.86 82.89 83.86 85.63 86.09 86.9"/><polyline class="cls-1" points="84.94 82.35 84.98 82.35 84.98 82.39 85.01 82.39 85.05 82.43 85.09 82.43 85.09 82.47 85.13 82.47 85.17 82.51 85.21 82.55 85.21 82.58 85.25 82.58 85.28 82.62 85.28 82.66 85.32 82.7 85.36 82.74 85.36 82.78 85.4 82.82 85.4 82.85 85.44 82.89 85.48 82.93 85.48 82.97 85.48 83.01 85.51 83.05 85.51 83.09 85.51 83.12 85.51 83.16 85.55 83.2 85.55 83.24 85.55 83.28 85.55 83.32 85.55 83.35"/><polyline class="cls-1" points="84.44 82.12 84.44 82.16 84.4 82.16 84.36 82.2 84.32 82.24 84.32 82.28 84.28 82.32 84.28 82.35 84.28 82.39 84.24 82.43 84.24 82.47 84.24 82.51 84.24 82.55 84.24 82.58 84.24 82.62 84.24 83.09"/><line class="cls-1" x1="85.55" y1="83.35" x2="85.55" y2="83.86"/><line class="cls-1" x1="74.96" y1="104.76" x2="75.04" y2="104.96"/><polyline class="cls-1" points="76.43 104.19 76.47 104.19 77.81 106.53"/><polyline class="cls-1" points="61.18 93.75 61.1 93.79 61.03 93.87 60.95 93.9 60.87 93.98 60.8 94.06 60.76 94.14 60.68 94.21 60.64 94.29 60.56 94.41 60.53 94.48 60.49 94.6 60.45 94.68 60.41 94.79 60.37 94.91 60.33 95.02 60.29 95.14 60.29 95.25 60.29 95.41 60.26 95.52 60.26 95.64 60.26 95.79 60.26 95.91 60.26 96.06 60.26 96.22 60.29 96.33 60.29 96.48 60.33 96.64 60.33 96.79 60.37 96.95 60.41 97.06 60.45 97.22 60.49 97.37 60.53 97.52 60.6 97.68 60.64 97.83 60.72 97.99 60.76 98.14 60.83 98.29 60.91 98.45 60.99 98.6 61.06 98.76 61.14 98.87 61.22 99.03 61.3 99.18 61.41 99.33 61.49 99.45 61.6 99.6 61.68 99.72 61.8 99.87 61.87 99.99 61.99 100.1 62.1 100.22 62.22 100.34 62.3 100.45 62.41 100.57 62.53 100.68 62.64 100.8 62.76 100.87 62.87 100.99 62.99 101.07 63.11 101.14 63.22 101.22 63.34 101.3 63.45 101.37"/><path class="cls-1" d="m65.58,101.2c.83-.49,1.07-1.79.61-3.3s-1.53-2.93-2.7-3.6"/><path class="cls-1" d="m61.63,93.99s-.05.04-.07.06"/><polyline class="cls-1" points="52.79 62.95 52.71 62.99 52.67 63.03 52.63 63.06 52.59 63.1 52.56 63.18 52.56 63.22 52.52 63.29 52.48 63.33"/><line class="cls-1" x1="69.15" y1="72.84" x2="70.38" y2="74.11"/><line class="cls-1" x1="73.93" y1="82.62" x2="73.62" y2="86.28"/><polyline class="cls-1" points="68.19 83.74 68.19 83.82 68.19 83.86 68.19 83.89 68.19 83.93 68.23 84.01 68.23 84.05 68.23 84.09 68.27 84.13 68.27 84.2 68.3 84.24 68.3 84.28 68.34 84.32 68.34 84.39 68.38 84.43 68.42 84.47 68.42 84.51 68.46 84.55 68.5 84.63 68.5 84.66 68.53 84.7 68.57 84.74 68.61 84.78 68.61 84.82 68.65 84.86 68.69 84.9 68.73 84.9 68.77 84.97 68.8 85.01 68.88 85.09"/><line class="cls-1" x1="57.83" y1="66.95" x2="57.48" y2="70.61"/><polyline class="cls-1" points="60.41 67.3 60.37 67.34 60.33 67.38 60.29 67.41 60.26 67.45 60.22 67.53 60.18 67.57 60.14 67.65 60.14 67.68"/><line class="cls-1" x1="64.92" y1="77.46" x2="64.57" y2="81.12"/><line class="cls-1" x1="69.3" y1="78.66" x2="69.88" y2="79.74"/><polyline class="cls-1" points="69.46 72.46 69.38 72.5 69.34 72.54 69.3 72.57 69.27 72.61 69.23 72.65 69.23 72.73 69.19 72.77 69.15 72.84"/><polyline class="cls-1" points="70.38 74.11 74.12 76.23 74.19 76.19"/><line class="cls-1" x1="64.57" y1="81.12" x2="64.95" y2="82.82"/><line class="cls-1" x1="60.26" y1="73.5" x2="60.83" y2="74.58"/><line class="cls-1" x1="63.53" y1="76.12" x2="64.92" y2="76.89"/><line class="cls-1" x1="57.48" y1="70.61" x2="58.33" y2="72.19"/><line class="cls-1" x1="58.41" y1="65.8" x2="57.83" y2="66.95"/><polyline class="cls-1" points="51.52 74.27 51.52 74.31 51.52 74.35 51.52 74.38 51.52 74.42 51.55 74.5 51.55 74.54 51.55 74.58 51.59 74.61 51.59 74.69 51.63 74.73 51.63 74.77 51.67 74.81 51.67 74.88 51.71 74.92 51.71 74.96 51.75 75 51.79 75.08 51.82 75.12 51.82 75.15 51.86 75.19 51.9 75.23 51.94 75.27 51.94 75.31 51.98 75.35 52.02 75.38 52.02 75.42 52.09 75.46 52.13 75.5 52.21 75.58"/><line class="cls-1" x1="52.48" y1="63.33" x2="53.71" y2="64.6"/><polyline class="cls-1" points="59.14 78.62 59.14 78.66 59.14 78.7 59.14 78.73 59.18 78.81 59.18 78.85 59.18 78.89 59.22 78.93 59.22 79 59.26 79.04 59.26 79.08 59.26 79.12 59.29 79.2 59.33 79.24 59.33 79.27 59.37 79.31 59.41 79.35 59.41 79.43 59.45 79.47 59.49 79.5 59.52 79.54 59.52 79.58 59.56 79.62 59.6 79.66 59.64 79.7 59.64 79.74 59.68 79.77 59.72 79.81 59.79 79.89 59.83 79.93"/><line class="cls-1" x1="63.53" y1="82.01" x2="64.57" y2="82.62"/><line class="cls-1" x1="73.62" y1="86.28" x2="73.96" y2="87.98"/><polyline class="cls-1" points="69.11 73.19 68.69 77.77 68.96 78.27"/><polyline class="cls-1" points="60.06 68.07 59.68 72.61 59.95 73.11"/><line class="cls-1" x1="52.63" y1="69.15" x2="53.21" y2="70.23"/><line class="cls-1" x1="51.94" y1="69.3" x2="51.52" y2="73.84"/><polyline class="cls-1" points="63.53 70.19 65.11 71.07 65.15 71.03"/><line class="cls-1" x1="60.14" y1="67.68" x2="61.37" y2="68.95"/><polyline class="cls-1" points="68.88 85.09 73.62 87.78 73.62 87.74"/><line class="cls-1" x1="69.88" y1="79.74" x2="73.96" y2="82.05"/><polyline class="cls-1" points="66.57 82.51 66.57 82.55 66.53 82.55 66.49 82.58 66.49 82.62 66.46 82.66 66.46 82.7 66.42 82.74 66.42 82.78 66.42 82.82 66.42 82.89 66.42 82.93 66.42 83.01 66.42 83.05 66.42 83.12 66.42 83.16 66.46 83.24 66.46 83.28 66.49 83.35 66.53 83.39 66.53 83.47 66.57 83.51 66.61 83.59 66.65 83.62 66.69 83.7 66.73 83.74 66.76 83.78 66.8 83.86 66.84 83.89 66.88 83.93 66.92 83.97 66.99 84.01 67.03 84.01"/></svg>