<?xml version="1.0" encoding="UTF-8"?><svg id="Layer_1" xmlns="http://www.w3.org/2000/svg" viewBox="0 0 141.73 141.73"><defs><style>.cls-1{fill:#00aeef;}.cls-2{stroke:#00aeef;stroke-miterlimit:10;stroke-width:2px;}.cls-2,.cls-3{fill:none;}.cls-3{stroke:#1d1d1b;stroke-linecap:round;stroke-linejoin:round;stroke-width:.33px;}</style></defs><path class="cls-1" d="m68.89,57.59h0c-.06-.7-.43-1.36-.95-1.72h-.03s-.01.01-.01.03v.04c.01.06.01.11.01.17-.01.17.04.25.2.46.06.1.14.21.22.35v.03q.06.08.06.15v.03s0,.01.01.01h.01s0,.08.01.13c.01.06.01.13.01.2h-.01s-.01.03,0,.04c0,.01,0,.04-.01.1,0,0-.01.01-.04.04h-.01v.04h-.01s-.01,0-.01.01h-.01s-.01.03-.04.06h-.01s-.01,0-.01.01h-.01s-.06.01-.06.01h-.03c-.06-.01-.13-.04-.2-.07-.85-.38-2.46-1.06-2.22-2.27h.01s.06-.07.1-.11h.01s.01,0,.01-.01h.01s.06-.01.06-.01c0,0,.01,0,.01-.01h.01s.06-.01.06-.01h.01s.01.03.03.01h.04s.04.01.08.01c.04.03.06.04.07.04.03.01.06.03.14.1h.06s.01.03.01.03h.06s.01,0,.01-.01h.01s.01-.01.01-.01c.01,0,.03-.01.03-.01.01,0,.01-.01.01-.03v-.03h.01s.01-.03.01-.03v-.06s0-.01-.01-.01h-.01v-.07s0-.01-.01-.01h-.01v-.03s0-.01-.01-.01h-.01v-.03s0-.01-.01-.01c-.01-.01-.03-.03-.06-.07l-.06-.06h-.01s-.01-.01-.01-.01c-.17-.15-.49-.28-.77-.2-.15.04-.34.15-.42.48h-.01s-.01.03-.01.03v.17s-.01.01,0,.01c.03.69.53,1.51,1.12,1.86h0l1.48.85h0c.17.1.34.15.49.15.11,0,.21-.03.29-.08.22-.1.34-.34.32-.66,0,.01,0,0,0,0Z"/><path class="cls-1" d="m66.56,54.58v.04s.01.01.03.01h.03s.01.04.01.04c0,0,0,.01.01.01h.03s.01.04.01.04c0,0,0,.01.01.01h.03c.15.25.36.59.32,1.01h-.01s-.01.03-.01.03v.03h-.01v.03h0s-.03.04-.06.07h-.01v.03l-.04.04h-.01s-.04.01-.07.01c0,0-.01,0-.01.01h-.01c-.13.01-.17-.01-.27-.06-.06-.03-.13-.07-.24-.11h-.01s-.01-.01-.01-.01h-.06s-.01,0-.01.01h0s-.01.03-.06.06h-.01v.18h0s.01.03.01.03h0s0,.03.01.03h.01s0,.06.04.1h0v.03h.01s.03.04.07.08h.01s.01.01.01.01c.01.01.04.04.18.1.01.01.03.04.08.04.08.06.22.1.36.1.1,0,.2-.01.28-.06h.01s.01-.01.01-.03c.03-.01.07-.04.1-.1h.03s0-.01.01-.03c.08-.13.14-.32.14-.56h0v-.03c-.01-.32-.13-.7-.34-1.05s-.49-.63-.77-.8h-.01l-1.48-.85h0c-.29-.17-.57-.2-.77-.07s-.31.36-.29.7h0c.06.45.27,1.26.94,1.74h.03s.01-.01.01-.03c0-.03,0-.06-.01-.1-.01-.08-.03-.21.01-.35t-.01-.03h0s-.06-.08-.11-.11c-.03-.04-.06-.08-.1-.13-.07-.08-.15-.18-.18-.32h0s-.01-.01-.01-.03c-.01-.01-.04-.04-.04-.11,0,0,0-.01-.01-.01h-.01s0-.07-.01-.1c-.01-.07-.01-.15-.03-.24,0-.18.06-.32.15-.39.11-.07.27-.06.45.04h0s.08.04.14.08c.39.27,1.39.84,1.51.94Z"/><line class="cls-3" x1="72.08" y1="55.28" x2="72.24" y2="55.18"/><path class="cls-3" d="m72.08,55.25c.08.06.15.01.15-.08s-.07-.22-.17-.27"/><line class="cls-3" x1="68.49" y1="101.41" x2="69.97" y2="102.27"/><line class="cls-3" x1="66.21" y1="100.13" x2="67.72" y2="100.97"/><line class="cls-3" x1="64.36" y1="99.06" x2="65.42" y2="99.68"/><line class="cls-3" x1="70.75" y1="102.71" x2="70.87" y2="102.77"/><polyline class="cls-3" points="44.94 55.91 44.94 56.19 45.9 56.75"/><path class="cls-3" d="m61.81,52.13c0,.08.01.15.03.24"/><polyline class="cls-3" points="43.93 55.4 43.97 56.79 44.94 56.19"/><line class="cls-3" x1="50.3" y1="55.15" x2="44.95" y2="58.51"/><line class="cls-3" x1="45.9" y1="56.75" x2="49.33" y2="54.62"/><polyline class="cls-3" points="43.97 56.79 44.94 57.35 43.66 58.13 44.96 58.89 45.29 58.68 44.96 58.51"/><polyline class="cls-3" points="44.84 54.69 44.52 54.89 44.42 51.81"/><line class="cls-3" x1="45.19" y1="55.38" x2="47.32" y2="54.03"/><polyline class="cls-3" points="47.57 82.41 45.4 83.77 44.94 68.33"/><line class="cls-3" x1="54.48" y1="76.42" x2="54.33" y2="71.1"/><polyline class="cls-3" points="53.93 66.37 49.34 69.24 49.43 71.51"/><line class="cls-3" x1="54.17" y1="65.87" x2="54.02" y2="60.85"/><polyline class="cls-3" points="46.18 62.06 46.15 61.2 46.91 60.71"/><polyline class="cls-3" points="45.8 66.67 44.89 67.23 44.67 59.59"/><polyline class="cls-3" points="71.43 67.23 80.56 72.45 81.03 87.87 80.72 87.69 80.73 88.78 81.07 88.97 81.29 96.64 80.97 96.45 81 97.33 82.3 98.07 81.49 71.92 43.41 50.14 43.57 55.22 44.88 55.95 44.84 55.08 44.52 54.89"/><polyline class="cls-3" points="44.42 51.81 53.54 57.03 53.61 58.72 54.58 59.25 54.54 57.57 70.46 66.67 70.5 68.35 71.48 68.91 71.43 67.23"/><polyline class="cls-3" points="71.43 98.63 55.52 89.53 55.46 87.85 54.49 87.29 54.54 88.97 45.4 83.77"/><polyline class="cls-3" points="44.94 68.33 45.27 68.53 45.23 67.42 44.89 67.23"/><polyline class="cls-3" points="44.67 59.59 44.99 59.76 44.96 58.89"/><polyline class="cls-3" points="43.66 58.13 44.47 84.31 82.55 106.06 82.4 100.99 81.1 100.25 81.12 101.12 81.45 101.32 81.54 104.39 72.41 99.19 72.35 97.51 71.38 96.95 71.43 98.63"/><polyline class="cls-3" points="80.65 75.76 52.88 59.9 52.86 58.72 80.62 74.59"/><polyline class="cls-3" points="80.94 85.12 53.18 69.26 53.22 70.46 80.98 86.33"/><polyline class="cls-3" points="62.53 84.97 77.48 93.52 77.5 94.26 62.57 85.73 62.53 84.97"/><polyline class="cls-3" points="53.53 80.56 60.61 84.61 60.6 83.87 53.51 79.82 53.53 80.56"/><line class="cls-3" x1="79.46" y1="95.38" x2="79.43" y2="94.63"/><line class="cls-3" x1="84.57" y1="98.31" x2="83.19" y2="97.51"/><line class="cls-3" x1="81.14" y1="96.35" x2="79.46" y2="95.38"/><line class="cls-3" x1="81.28" y1="95.69" x2="79.43" y2="94.63"/><path class="cls-3" d="m52.87,58.71c.25-.31.5-.63.73-.98"/><line class="cls-3" x1="55.21" y1="75.3" x2="81" y2="90.02"/><line class="cls-3" x1="54.89" y1="64.74" x2="80.77" y2="79.51"/><line class="cls-3" x1="80.79" y1="80.03" x2="54.45" y2="65"/><path class="cls-3" d="m53.15,67.8c.57-.88,1.02-1.83,1.32-2.8"/><line class="cls-3" x1="53.93" y1="68.25" x2="53.16" y2="67.82"/><path class="cls-3" d="m53.18,69.26c.27-.32.52-.66.76-1.02"/><polyline class="cls-3" points="60.61 84.61 61.57 84.01 62.78 84.68"/><polyline class="cls-3" points="47.61 83.32 48.38 83.77 53.53 80.56"/><line class="cls-3" x1="55.52" y1="89.53" x2="57.43" y2="88.34"/><line class="cls-3" x1="72.41" y1="99.19" x2="74.32" y2="97.97"/><line class="cls-3" x1="81.49" y1="102.67" x2="81.39" y2="102.63"/><polyline class="cls-3" points="77.5 94.26 78.46 93.66 79.67 94.33"/><line class="cls-3" x1="78.45" y1="93.3" x2="78.46" y2="93.66"/><path class="cls-3" d="m78.46,93.3c.38-.53.73-1.11,1.02-1.71"/><path class="cls-3" d="m77.47,93.51c.56-.67,1.05-1.43,1.44-2.24"/><path class="cls-3" d="m62.54,84.97c.56-.67,1.05-1.43,1.44-2.24"/><line class="cls-3" x1="80.87" y1="92.4" x2="78.93" y2="91.28"/><path class="cls-3" d="m79.43,94.63c.56-.67,1.05-1.43,1.44-2.24"/><line class="cls-3" x1="81.03" y1="90.54" x2="54.79" y2="75.55"/><path class="cls-3" d="m54.34,76.76c.18-.41.34-.81.45-1.22"/><line class="cls-3" x1="55.11" y1="77.22" x2="54.34" y2="76.77"/><path class="cls-3" d="m53.5,79.81c.64-.77,1.2-1.67,1.61-2.6"/><path class="cls-3" d="m60.58,83.85c.56-.67,1.05-1.43,1.44-2.24"/><line class="cls-3" x1="63.98" y1="82.75" x2="62.02" y2="81.63"/><polyline class="cls-3" points="81.08 89.67 81 89.73 81.14 94.12"/><line class="cls-3" x1="81.08" y1="89.78" x2="81" y2="89.73"/><polyline class="cls-3" points="46.69 53.08 46.7 53.68 47.47 54.13 47.46 53.53"/><polyline class="cls-3" points="80.47 72.39 80.48 72.98 80.58 73.03"/><line class="cls-3" x1="81.14" y1="94.12" x2="81.22" y2="94.18"/><line class="cls-3" x1="81.35" y1="101.26" x2="81.39" y2="102.63"/><polyline class="cls-3" points="48.38 83.77 48.31 81.47 47.53 81.02 47.61 83.32"/><polyline class="cls-3" points="46.18 62.06 46.97 62.51 47.01 64.28 47.81 64.71 47.67 60.33 46.87 59.88 46.94 61.64 46.15 61.2"/><line class="cls-3" x1="47.96" y1="53.82" x2="47.47" y2="54.13"/><line class="cls-3" x1="54.79" y1="75.55" x2="55.21" y2="75.3"/><line class="cls-3" x1="54.34" y1="76.77" x2="47.53" y2="81.02"/><line class="cls-3" x1="54.45" y1="65" x2="54.89" y2="64.74"/><line class="cls-3" x1="52.45" y1="56.4" x2="46.87" y2="59.88"/><line class="cls-3" x1="55.11" y1="77.22" x2="48.31" y2="81.47"/><polyline class="cls-3" points="49.43 71.51 50.97 72.39 53.68 70.73"/><polyline class="cls-3" points="49.34 69.24 50.91 70.14 50.98 72.39"/><line class="cls-3" x1="53.93" y1="68.25" x2="50.91" y2="70.12"/><line class="cls-3" x1="54.27" y1="60.69" x2="47.81" y2="64.71"/><line class="cls-3" x1="53.23" y1="56.84" x2="47.67" y2="60.33"/><line class="cls-3" x1="81.74" y1="100.24" x2="84.58" y2="98.47"/><polyline class="cls-3" points="84.66 100.76 83.67 100.2 82.4 100.99"/><polyline class="cls-3" points="81.74 100.24 81.4 100.06 81.1 100.25"/><line class="cls-3" x1="45.29" y1="58.68" x2="45.3" y2="59.57"/><polyline class="cls-3" points="45.19 55.75 45.17 54.87 44.84 54.69"/><line class="cls-3" x1="81.29" y1="96.25" x2="80.97" y2="96.45"/><polyline class="cls-3" points="84.57 97.82 83.6 97.26 82.3 98.07"/><polyline class="cls-3" points="83.67 100.2 83.82 105.25 82.55 106.06"/><polyline class="cls-3" points="83.6 97.26 82.79 71.1 81.49 71.92"/><polyline class="cls-3" points="70.81 101.34 70.91 104.07 89.48 114.66"/><polyline class="cls-3" points="48.66 38.85 48.67 39.17 46.91 38.16"/><line class="cls-3" x1="41.9" y1="84.83" x2="40.37" y2="35.32"/><path class="cls-3" d="m41.91,84.83c.04,1.5,1.16,3.32,2.48,4.07"/><polyline class="cls-3" points="70.81 101.34 70.81 101.2 70.75 101.05 70.68 100.87 70.61 100.71 70.52 100.56 70.4 100.45 70.26 100.34 70.15 100.24 63.9 96.67 63.79 96.61 63.67 96.6 63.55 96.6 63.45 96.64 63.38 96.7 63.32 96.8 63.28 96.91 63.28 97.05 63.35 99.75 44.39 88.92"/><line class="cls-3" x1="82.79" y1="71.1" x2="44.71" y2="49.36"/><line class="cls-3" x1="84.66" y1="100.76" x2="84.57" y2="97.82"/><path class="cls-3" d="m64.93,50.81c-1.97-1.12-3.51-.24-3.46,1.99.07,2.22,1.72,4.94,3.69,6.06"/><line class="cls-3" x1="72.07" y1="54.9" x2="64.92" y2="50.83"/><line class="cls-3" x1="64.97" y1="51.21" x2="72.08" y2="55.28"/><path class="cls-3" d="m64.93,51.16c-1.79-1.02-3.2-.21-3.13,1.81.06,2.03,1.57,4.51,3.36,5.53"/><line class="cls-3" x1="72.29" y1="62.61" x2="65.16" y2="58.52"/><path class="cls-3" d="m72.34,62.95c.08.06.15.01.15-.08s-.07-.22-.17-.27"/><line class="cls-3" x1="65.17" y1="58.89" x2="72.32" y2="62.97"/><polyline class="cls-3" points="84.61 78.3 84.62 78.81 85.68 79.42 85.73 80.63 86.17 80.89 86.15 79.7 87.21 80.28 87.2 79.78 86.13 79.16 86.09 77.96 85.63 77.69 85.67 78.91 84.61 78.3"/><polyline class="cls-3" points="87.21 90.69 87.2 90.12 84.93 88.82 84.93 89.41 87.21 90.69"/><polyline class="cls-3" points="85.24 99.4 85.27 99.9 86.34 100.53 86.38 101.75 86.83 102 86.79 100.8 87.87 101.4 87.85 100.9 86.76 100.28 86.73 99.06 86.29 98.81 86.33 100.03 85.24 99.4"/><polyline class="cls-3" points="43.89 65.37 43.05 64.89 43.01 63.69 42.56 63.42 42.57 64.64"/><polyline class="cls-3" points="42.57 64.64 41.68 64.12 41.69 64.61 42.6 65.14 42.64 66.42 43.1 66.68 43.06 65.41 43.89 65.9"/><polyline class="cls-3" points="43.57 54.83 41.35 53.56 41.38 54.14"/><polyline class="cls-3" points="41.38 54.14 43.65 55.45 43.65 55.25"/><polyline class="cls-3" points="44.21 75.92 42 74.66 42.01 75.26 44.22 76.52"/><line class="cls-3" x1="44.71" y1="49.36" x2="43.41" y2="50.14"/><line class="cls-3" x1="45.19" y1="55.75" x2="44.88" y2="55.95"/><line class="cls-3" x1="45.17" y1="54.87" x2="44.84" y2="55.08"/><path class="cls-3" d="m61.57,83.64c.38-.53.73-1.11,1.02-1.71"/><line class="cls-3" x1="61.56" y1="83.66" x2="61.57" y2="84.01"/><line class="cls-3" x1="61.87" y1="51.71" x2="61.98" y2="51.77"/><path class="cls-3" d="m62.57,50.49c-.53.43-.81,1.22-.76,2.22"/><line class="cls-3" x1="65.17" y1="58.89" x2="65.46" y2="58.69"/><path class="cls-3" d="m64.89,50.79c-.74-.32-1.43-.34-1.93-.03"/><line class="cls-3" x1="64.97" y1="51.21" x2="65.23" y2="51"/><line class="cls-3" x1="72.32" y1="62.97" x2="72.48" y2="62.88"/><polyline class="cls-3" points="85.67 78.91 85.85 78.79 85.84 77.81"/><polyline class="cls-3" points="86.15 79.7 86.33 79.56 87.21 80.06"/><polyline class="cls-3" points="85.73 80.63 85.92 80.51 86.17 80.66"/><polyline class="cls-3" points="85.68 79.42 85.88 79.3 85.92 80.51"/><polyline class="cls-3" points="84.62 78.81 84.82 78.69 85.88 79.3"/><line class="cls-3" x1="84.79" y1="78.41" x2="84.82" y2="78.69"/><polyline class="cls-3" points="85.13 88.92 85.13 89.28 87.21 90.47"/><line class="cls-3" x1="86.48" y1="98.92" x2="86.51" y2="99.89"/><polyline class="cls-3" points="85.45 99.52 85.45 99.79 86.54 100.41 86.58 101.61 86.83 101.76"/><line class="cls-3" x1="86.99" y1="100.66" x2="87.85" y2="101.16"/><line class="cls-3" x1="42.75" y1="63.53" x2="42.77" y2="64.5"/><polyline class="cls-3" points="41.89 64.23 41.89 64.5 42.8 65.03 42.82 66.3 43.08 66.46"/><line class="cls-3" x1="43.26" y1="65.27" x2="43.89" y2="65.65"/><polyline class="cls-3" points="41.55 53.67 41.58 54.02 43.57 55.18"/><polyline class="cls-3" points="42.21 74.77 42.21 75.12 44.22 76.28"/><line class="cls-3" x1="84.93" y1="89.41" x2="85.13" y2="89.28"/><line class="cls-3" x1="86.33" y1="100.03" x2="86.51" y2="99.89"/><line class="cls-3" x1="86.79" y1="100.8" x2="86.99" y2="100.66"/><line class="cls-3" x1="86.38" y1="101.75" x2="86.58" y2="101.61"/><line class="cls-3" x1="86.34" y1="100.53" x2="86.54" y2="100.41"/><line class="cls-3" x1="85.27" y1="99.9" x2="85.45" y2="99.79"/><line class="cls-3" x1="42.57" y1="64.64" x2="42.77" y2="64.5"/><line class="cls-3" x1="43.06" y1="65.41" x2="43.26" y2="65.27"/><line class="cls-3" x1="42.64" y1="66.42" x2="42.82" y2="66.3"/><line class="cls-3" x1="42.6" y1="65.14" x2="42.8" y2="65.03"/><line class="cls-3" x1="41.69" y1="64.61" x2="41.89" y2="64.5"/><line class="cls-3" x1="41.38" y1="54.14" x2="41.58" y2="54.02"/><line class="cls-3" x1="42.01" y1="75.26" x2="42.21" y2="75.12"/><polyline class="cls-3" points="68.33 107.26 68.29 105.79 70.91 104.07"/><polyline class="cls-3" points="69.26 105.15 62.26 101.15 63.38 99.75 63.49 99.59 70.88 103.82"/><line class="cls-3" x1="70.75" y1="102.71" x2="70.87" y2="102.66"/><line class="cls-3" x1="69.97" y1="102.27" x2="70.82" y2="101.71"/><line class="cls-3" x1="68.49" y1="101.41" x2="70.18" y2="100.28"/><line class="cls-3" x1="67.7" y1="100.97" x2="69.41" y2="99.83"/><line class="cls-3" x1="66.21" y1="100.13" x2="67.93" y2="98.98"/><line class="cls-3" x1="65.42" y1="99.68" x2="67.14" y2="98.53"/><line class="cls-3" x1="63.49" y1="99.59" x2="64.36" y2="99.06"/><polyline class="cls-3" points="62.26 101.15 62.27 101.85 60.61 102.85 60.57 101.37 63.35 99.75"/><line class="cls-3" x1="63.91" y1="96.7" x2="63.28" y2="97.05"/><line class="cls-3" x1="64.6" y1="99.19" x2="66.42" y2="98.12"/><line class="cls-3" x1="87.17" y1="116.58" x2="68.29" y2="105.79"/><line class="cls-3" x1="87.17" y1="116.58" x2="89.49" y2="115.14"/><line class="cls-3" x1="41.69" y1="90.6" x2="44.39" y2="88.92"/><line class="cls-3" x1="60.57" y1="101.37" x2="41.69" y2="90.6"/><path class="cls-3" d="m87.2,116.57c1.33.76,2.36.15,2.31-1.33"/><line class="cls-3" x1="87.91" y1="63.94" x2="89.49" y2="115.25"/><line class="cls-3" x1="39.94" y1="33.87" x2="85.43" y2="59.85"/><polyline class="cls-3" points="38.11 34.04 46.15 38.64 47.16 38"/><path class="cls-3" d="m38.43,33.63c-.11.11-.21.24-.29.39"/><path class="cls-3" d="m39.96,33.87c-1.33-.76-2.36-.15-2.31,1.33"/><line class="cls-3" x1="37.63" y1="35.21" x2="38.85" y2="34.46"/><line class="cls-3" x1="39.19" y1="86.52" x2="37.63" y2="35.21"/><line class="cls-3" x1="39.19" y1="86.52" x2="41.9" y2="84.83"/><path class="cls-3" d="m39.23,86.51c.04,1.5,1.16,3.32,2.48,4.07"/><path class="cls-3" d="m87.92,63.93c-.04-1.5-1.16-3.32-2.48-4.07"/><line class="cls-3" x1="87.21" y1="118.05" x2="68.33" y2="107.26"/><path class="cls-3" d="m87.24,118.04c2.04,1.18,3.64.25,3.57-2.06"/><line class="cls-3" x1="89.21" y1="64.68" x2="90.79" y2="115.98"/><path class="cls-3" d="m85.39,58.38h0"/><path class="cls-3" d="m89.23,64.68c-.01-.34-.06-.69-.14-1.05"/><line class="cls-3" x1="85.38" y1="58.38" x2="39.89" y2="32.4"/><path class="cls-3" d="m39.9,32.4c-2.04-1.18-3.64-.25-3.57,2.06"/><line class="cls-3" x1="37.9" y1="85.77" x2="36.33" y2="34.47"/><path class="cls-3" d="m37.91,85.77c.07,2.31,1.79,5.12,3.83,6.3"/><line class="cls-3" x1="60.61" y1="102.85" x2="41.73" y2="92.07"/><line class="cls-3" x1="62.27" y1="101.85" x2="68.71" y2="105.51"/><line class="cls-3" x1="68.7" y1="101.54" x2="70.42" y2="100.46"/><line class="cls-3" x1="66.43" y1="100.24" x2="68.19" y2="99.13"/><line class="cls-3" x1="40.12" y1="32.27" x2="39.89" y2="32.4"/><line class="cls-3" x1="85.38" y1="58.38" x2="85.38" y2="58.38"/><line class="cls-3" x1="89.24" y1="64.68" x2="89.21" y2="64.68"/><line class="cls-3" x1="90.83" y1="115.97" x2="90.79" y2="115.98"/><polyline class="cls-3" points="87.46 62.22 79.96 57.92 79.92 56.7"/><line class="cls-3" x1="46.15" y1="38.64" x2="46.11" y2="37.39"/><line class="cls-3" x1="45.3" y1="59.57" x2="44.99" y2="59.76"/><polyline class="cls-3" points="45.27 68.53 46.15 67.97 46.11 66.86 45.8 66.67"/><line class="cls-3" x1="45.23" y1="67.42" x2="46.11" y2="66.86"/><line class="cls-3" x1="80.72" y1="87.69" x2="81.03" y2="87.49"/><line class="cls-3" x1="84.58" y1="98.28" x2="81.58" y2="100.15"/><line class="cls-3" x1="72.69" y1="68.15" x2="71.48" y2="68.91"/><path class="cls-3" d="m72.77,67.98c-.03.06-.06.11-.08.17"/><line class="cls-3" x1="74.31" y1="96.99" x2="74.32" y2="97.97"/><path class="cls-3" d="m73.58,96.73c.22.13.48.2.74.24"/><line class="cls-3" x1="72.35" y1="97.51" x2="73.55" y2="96.75"/><line class="cls-3" x1="71.38" y1="96.95" x2="72.59" y2="96.19"/><path class="cls-3" d="m72.62,96.17c.22.13.48.2.74.24"/><line class="cls-3" x1="73.31" y1="96.42" x2="74.31" y2="96.99"/><line class="cls-3" x1="72.59" y1="96.19" x2="73.55" y2="96.75"/><line class="cls-3" x1="55.8" y1="58.52" x2="54.58" y2="59.25"/><path class="cls-3" d="m55.88,58.33l-.08.17"/><line class="cls-3" x1="57.42" y1="87.34" x2="57.43" y2="88.34"/><path class="cls-3" d="m56.69,87.07c.22.13.48.2.74.24"/><line class="cls-3" x1="55.46" y1="87.85" x2="56.66" y2="87.1"/><line class="cls-3" x1="54.49" y1="87.29" x2="55.7" y2="86.54"/><path class="cls-3" d="m55.7,86.52c.22.13.48.2.74.24"/><line class="cls-3" x1="57.42" y1="87.34" x2="56.43" y2="86.78"/><line class="cls-3" x1="56.66" y1="87.1" x2="55.7" y2="86.54"/><line class="cls-3" x1="62.95" y1="50.77" x2="62.62" y2="50.98"/><line class="cls-3" x1="38.01" y1="31.73" x2="37.3" y2="32.15"/><line class="cls-3" x1="90.5" y1="117.86" x2="89.88" y2="118.26"/><line class="cls-3" x1="63.04" y1="84.31" x2="61.66" y2="83.52"/><path class="cls-3" d="m54.47,75.02c.15-.1.15-.41-.01-.67"/><polyline class="cls-3" points="80.68 76.16 64.21 66.65 64.21 66.37"/><path class="cls-3" d="m65.84,70.99c.04-.59-.28-1.36-.78-1.92s-1.09-.77-1.47-.55"/><path class="cls-3" d="m54.76,21.95c-1.3-.74-2.52-.88-3.4-.36"/><path class="cls-3" d="m54.84,21.92s-.06-.01-.1.01"/><line class="cls-3" x1="54.75" y1="21.96" x2="100" y2="48.07"/><path class="cls-3" d="m100.1,48.06s-.06-.01-.1.01"/><path class="cls-3" d="m105.04,56.35c-.1-3.04-2.34-6.76-5.02-8.3"/><path class="cls-3" d="m105.04,56.35s.06-.04.06-.08"/><line class="cls-3" x1="105.01" y1="56.37" x2="106.6" y2="107.68"/><path class="cls-3" d="m106.6,107.67s.06-.04.06-.08"/><path class="cls-3" d="m105.39,110.68c.83-.53,1.25-1.61,1.2-3.01"/><line class="cls-3" x1="41.94" y1="93.63" x2="60.87" y2="104.58"/><line class="cls-3" x1="68.25" y1="108.83" x2="87.2" y2="119.76"/><path class="cls-3" d="m41.49,91.91c.14.1.28.18.41.27"/><line class="cls-3" x1="41.91" y1="92.16" x2="41.9" y2="92.16"/><polyline class="cls-3" points="87.15 118.3 68.08 107.3 68.33 107.12"/><line class="cls-3" x1="87.39" y1="118.15" x2="87.15" y2="118.3"/><polyline class="cls-3" points="62.69 102.1 62.64 102.11 60.97 103.18 41.9 92.16"/><line class="cls-3" x1="40.04" y1="32.23" x2="85.29" y2="58.34"/><line class="cls-3" x1="89.24" y1="64.86" x2="90.83" y2="116.18"/><polyline class="cls-3" points="80.98 86.69 58.34 73.61 58.44 77.13"/><line class="cls-3" x1="62.16" y1="82.73" x2="63.55" y2="83.54"/><line class="cls-3" x1="58.54" y1="73.5" x2="58.34" y2="73.61"/><path class="cls-3" d="m89.25,64.85c-.07-2.39-1.83-5.3-3.95-6.52"/><polyline class="cls-3" points="60.87 104.58 60.9 104.59 60.94 104.59 60.96 104.59 60.97 104.59 61 104.58 61 104.55 61.01 104.53 61.01 104.51 60.97 103.18"/><path class="cls-3" d="m40.07,32.22c-1.68-.97-3.12-.57-3.55.95"/><path class="cls-3" d="m87.15,118.29c2.11,1.22,3.76.27,3.69-2.13"/><polyline class="cls-3" points="68.25 108.83 68.24 108.8 68.21 108.79 68.18 108.77 68.15 108.73 68.14 108.7 68.14 108.68 68.12 108.63 68.12 108.62 68.08 107.3"/><path class="cls-3" d="m87.21,119.76c2.81,1.64,5.02.36,4.93-2.84"/><line class="cls-3" x1="92.12" y1="116.92" x2="90.54" y2="65.62"/><path class="cls-3" d="m90.54,65.6c-.1-3.2-2.46-7.11-5.29-8.75"/><line class="cls-3" x1="85.27" y1="56.87" x2="40.01" y2="30.76"/><path class="cls-3" d="m40.01,30.75c-2.83-1.64-5.02-.36-4.93,2.84"/><line class="cls-3" x1="35.07" y1="33.6" x2="36.65" y2="84.89"/><path class="cls-3" d="m36.67,84.89c.1,3.2,2.46,7.11,5.29,8.75"/><line class="cls-3" x1="63.07" y1="103.19" x2="61.01" y2="104.51"/><path class="cls-3" d="m63.06,103.26s.04-.04.03-.08"/><polyline class="cls-3" points="63.07 103.19 62.68 103.01 62.64 102.11"/><line class="cls-3" x1="63.32" y1="102.83" x2="63.3" y2="102.43"/><polyline class="cls-3" points="68.36 105.75 63.32 102.83 63.25 102.81 63.18 102.78 63.1 102.78 63.03 102.78 62.95 102.81 62.88 102.85 62.79 102.88 62.74 102.94 62.68 103.01"/><polyline class="cls-3" points="63.74 103.08 63.63 103.06 63.53 103.08 63.42 103.08 63.3 103.12 63.18 103.13 63.07 103.19"/><line class="cls-3" x1="54.75" y1="21.96" x2="40.01" y2="30.76"/><line class="cls-3" x1="100" y1="48.07" x2="85.25" y2="56.87"/><line class="cls-3" x1="105.01" y1="56.37" x2="90.54" y2="65.62"/><line class="cls-3" x1="106.6" y1="107.68" x2="92.12" y2="116.92"/><polyline class="cls-3" points="57.36 62.46 57.4 63.77 62.78 66.86 62.74 65.52"/><polyline class="cls-3" points="62.22 65.24 62.26 66 57.89 63.48 57.87 62.76"/><line class="cls-3" x1="64.46" y1="66.51" x2="64.21" y2="66.65"/><line class="cls-3" x1="58.48" y1="63.11" x2="57.89" y2="63.48"/><line class="cls-3" x1="63.88" y1="66.18" x2="62.78" y2="66.86"/><polyline class="cls-3" points="105.4 110.68 105.44 110.66 105.47 110.62 105.51 110.61 105.56 110.56 105.6 110.55 105.63 110.51 105.67 110.49 105.7 110.45 105.72 110.41 105.77 110.4 105.81 110.35 105.82 110.31 105.86 110.27 105.91 110.24 105.92 110.2 105.96 110.16 106 110.12 106.02 110.09 106.06 110.05 106.07 110 106.12 109.96 106.13 109.91 106.16 109.87 106.2 109.84 106.21 109.8 106.23 109.74 106.26 109.7 106.28 109.64 106.31 109.6 106.33 109.56 106.35 109.5 106.37 109.45 106.38 109.4 106.41 109.35 106.42 109.31 106.44 109.25 106.46 109.19 106.48 109.15 106.48 109.1 106.51 109.04 106.52 108.98 106.53 108.93 106.53 108.87 106.56 108.83 106.56 108.77 106.58 108.7 106.58 108.65 106.6 108.59 106.6 108.54 106.62 108.48 106.62 108.42 106.62 108.34 106.63 108.28 106.63 108.23 106.63 108.17 106.63 108.12 106.66 108.05 106.66 107.98 106.66 107.92 106.66 107.86 106.66 107.78 106.66 107.72 106.66 107.67 106.66 107.58 105.07 56.3 105.07 56.21 105.07 56.16 105.07 56.09 105.05 56.03 105.05 55.95 105.05 55.88 105.04 55.81 105.04 55.74 105.04 55.68 105.01 55.6 105.01 55.53 105 55.46 105 55.39 104.97 55.31 104.95 55.24 104.95 55.18 104.94 55.1 104.91 55.03 104.9 54.94 104.9 54.89 104.87 54.8 104.86 54.73 104.84 54.65 104.81 54.58 104.8 54.49 104.79 54.44 104.76 54.37 104.74 54.28 104.7 54.21 104.69 54.13 104.66 54.06 104.65 53.99 104.63 53.92 104.59 53.84 104.56 53.77 104.55 53.68 104.51 53.61 104.49 53.53 104.45 53.46 104.44 53.4 104.39 53.32 104.38 53.23 104.34 53.16 104.3 53.08 104.28 53.01 104.24 52.93 104.2 52.86 104.16 52.8 104.14 52.72 104.1 52.65 104.06 52.56 104.03 52.49 103.99 52.42 103.95 52.35 103.9 52.27 103.88 52.2 103.83 52.11 103.79 52.06 103.75 51.99 103.72 51.91 103.68 51.84 103.64 51.77 103.58 51.7 103.54 51.61 103.5 51.56 103.47 51.49 103.4 51.4 103.37 51.35 103.33 51.26 103.27 51.19 103.23 51.14 103.19 51.05 103.13 51 103.09 50.93 103.04 50.86 102.99 50.79 102.94 50.73 102.9 50.65 102.84 50.59 102.81 50.53 102.74 50.45 102.69 50.39 102.66 50.34 102.59 50.27 102.53 50.2 102.49 50.14 102.43 50.09 102.38 50.02 102.34 49.95 102.28 49.89 102.22 49.83 102.17 49.78 102.11 49.72 102.07 49.67 102.02 49.61 101.96 49.54 101.9 49.48 101.83 49.43 101.78 49.37 101.72 49.32 101.68 49.27 101.62 49.22 101.57 49.16 101.51 49.11 101.46 49.06 101.4 49.01 101.33 48.95 101.27 48.91 101.22 48.85 101.16 48.81 101.11 48.76 101.05 48.71 100.99 48.67 100.92 48.62 100.87 48.57 100.81 48.55 100.76 48.48 100.7 48.45 100.64 48.41 100.56 48.36 100.5 48.32 100.45 48.29 100.39 48.25 100.34 48.21 100.27 48.17 100.21 48.13 100.15 48.1 100.1 48.06 54.84 21.93 54.79 21.9 54.73 21.88 54.68 21.83 54.59 21.81 54.54 21.78 54.48 21.75 54.42 21.72 54.35 21.68 54.3 21.67 54.24 21.62 54.19 21.61 54.13 21.6 54.07 21.57 54.02 21.53 53.95 21.51 53.89 21.5 53.82 21.47 53.77 21.46 53.7 21.43 53.64 21.41 53.58 21.4 53.53 21.37 53.47 21.37 53.42 21.36 53.36 21.34 53.29 21.34 53.23 21.32 53.18 21.32 53.14 21.3 53.08 21.3 53.02 21.27 52.97 21.27 52.91 21.27 52.86 21.26 52.79 21.26 52.73 21.26 52.7 21.26 52.63 21.26 52.58 21.26 52.52 21.26 52.47 21.26 52.42 21.26 52.37 21.27 52.31 21.27 52.26 21.27 52.21 21.3 52.16 21.3 52.1 21.32 52.06 21.32 52 21.34 51.96 21.34 51.91 21.36 51.86 21.37 51.81 21.37 51.77 21.4 51.71 21.41 51.67 21.43 51.61 21.46 51.57 21.47 51.54 21.5 51.47 21.51 51.44 21.55 51.4 21.57 51.35 21.6"/><line class="cls-3" x1="63.59" y1="68.53" x2="62.6" y2="69.14"/><line class="cls-3" x1="54.45" y1="75.02" x2="54.44" y2="75.02"/><polyline class="cls-3" points="63.74 103.08 63.73 103.08 63.7 103.08 63.66 103.08 63.65 103.08 63.63 103.08 63.59 103.08 63.58 103.08 63.55 103.08 63.49 103.09 63.45 103.09 63.42 103.12 63.35 103.12 63.32 103.13 63.28 103.16 63.23 103.18 63.18 103.19 63.14 103.19 63.1 103.22 63.09 103.26 63.04 103.27 60.97 104.59"/><line class="cls-3" x1="51.35" y1="21.6" x2="36.43" y2="30.37"/><line class="cls-3" x1="105.4" y1="110.68" x2="90.85" y2="120.08"/><line class="cls-3" x1="76.94" y1="60.48" x2="78.84" y2="61.32"/><circle class="cls-2" cx="67.04" cy="56.28" r="7.66"/></svg>