<?xml version="1.0" encoding="UTF-8"?><svg id="Layer_1" xmlns="http://www.w3.org/2000/svg" xmlns:xlink="http://www.w3.org/1999/xlink" viewBox="0 0 141.73 141.73"><defs><style>.cls-1{stroke-linejoin:bevel;}.cls-1,.cls-2{stroke:#000;stroke-linecap:round;stroke-width:.33px;}.cls-1,.cls-2,.cls-3,.cls-4,.cls-5{fill:none;}.cls-2{stroke-linejoin:round;}.cls-4{clip-path:url(#clippath);}.cls-5{clip-path:url(#clippath-1);}.cls-6{fill:#231f20;}</style><clipPath id="clippath"><polygon class="cls-3" points="69.05 78.99 81.6 86.26 81.6 90.55 69.05 83.28 69.05 78.99"/></clipPath><clipPath id="clippath-1"><polygon class="cls-3" points="66.1 73.06 84.55 83.75 84.55 96.38 66.1 85.7 66.1 73.06"/></clipPath></defs><line class="cls-2" x1="49.74" y1="53.85" x2="49.74" y2="53.85"/><line class="cls-2" x1="53.43" y1="55.96" x2="53.43" y2="55.96"/><line class="cls-2" x1="52.41" y1="55.37" x2="52.41" y2="55.37"/><line class="cls-2" x1="53.89" y1="56.24" x2="53.89" y2="56.24"/><path class="cls-2" d="m97.15,100.89c.01.19.15.26.33.16"/><polyline class="cls-2" points="97.46 101.09 108.09 94.96 108.09 80.02 103.82 82.49"/><path class="cls-2" d="m97.22,86.43c-.05.1-.08.2-.08.29"/><line class="cls-2" x1="97.13" y1="86.74" x2="97.13" y2="87.15"/><polyline class="cls-2" points="107.66 90.15 107.15 90.45 107.15 91.83 105.45 92.79 105.45 95.26 104.18 96 104.18 96.86 100.87 98.77 100.87 97.91 98.91 99.03 98.91 86.54 100.87 85.42 100.87 84.53 104.18 82.62 104.18 83.51 105.45 82.77 105.45 85.24 107.15 84.25 107.15 85.93"/><polyline class="cls-2" points="107.66 90.15 107.66 85.62 107.15 85.93"/><line class="cls-2" x1="86.35" y1="74.94" x2="86.35" y2="74.94"/><line class="cls-2" x1="108.09" y1="80.02" x2="107.97" y2="79.95"/><line class="cls-2" x1="97.13" y1="86.74" x2="97.05" y2="86.69"/><path class="cls-2" d="m107.68,90.13c0-.17-.12-.37-.26-.45"/><line class="cls-2" x1="107.41" y1="89.72" x2="106.64" y2="90.15"/><path class="cls-2" d="m107.17,90.43c-.14-.09-.37-.22-.51-.3"/><line class="cls-2" x1="106.64" y1="90.15" x2="106.64" y2="91.52"/><path class="cls-2" d="m107.17,91.8c-.14-.09-.37-.22-.51-.3"/><line class="cls-2" x1="106.64" y1="91.52" x2="104.94" y2="92.51"/><path class="cls-2" d="m105.47,92.77c-.14-.09-.37-.22-.51-.3"/><line class="cls-2" x1="104.94" y1="92.51" x2="104.94" y2="94.96"/><path class="cls-2" d="m105.47,95.24c-.14-.09-.37-.22-.51-.3"/><line class="cls-2" x1="104.94" y1="94.96" x2="103.67" y2="95.69"/><path class="cls-2" d="m104.2,95.97c-.14-.09-.37-.22-.51-.3"/><line class="cls-2" x1="103.67" y1="95.69" x2="103.67" y2="96.58"/><path class="cls-2" d="m104.2,96.86c-.14-.09-.37-.22-.51-.3"/><line class="cls-2" x1="103.67" y1="96.58" x2="100.97" y2="98.14"/><path class="cls-2" d="m100.88,98.78c.07-.12.11-.25.11-.36"/><path class="cls-2" d="m100.88,97.89c.14-.25.15-.52,0-.6"/><line class="cls-2" x1="100.87" y1="97.32" x2="99.01" y2="98.36"/><path class="cls-2" d="m98.92,99.01c.07-.12.11-.25.11-.36"/><line class="cls-2" x1="100.87" y1="97.32" x2="99.01" y2="96.25"/><path class="cls-2" d="m99.03,86.58s-.04-.03-.1-.07"/><path class="cls-2" d="m100.99,85.46s-.03-.03-.1-.07"/><path class="cls-2" d="m100.99,84.57s-.04-.03-.1-.07"/><path class="cls-2" d="m103.93,82.88c.1-.06.19-.16.26-.28"/><line class="cls-2" x1="103.67" y1="83.03" x2="103.67" y2="83.79"/><path class="cls-2" d="m103.67,83.8c.14.08.37-.06.51-.31"/><path class="cls-2" d="m105.2,83.03c.1-.06.19-.16.26-.28"/><line class="cls-2" x1="104.94" y1="83.18" x2="104.94" y2="85.52"/><path class="cls-2" d="m104.95,85.52c.14.08.37-.06.51-.31"/><path class="cls-2" d="m106.91,84.5c.1-.06.19-.16.26-.28"/><path class="cls-2" d="m106.65,85.91c.14.08.38.08.52,0"/><line class="cls-2" x1="106.64" y1="84.65" x2="106.64" y2="85.93"/><line class="cls-2" x1="106.64" y1="85.93" x2="105.55" y2="85.29"/><line class="cls-2" x1="107.41" y1="89.72" x2="100.51" y2="85.75"/><line class="cls-2" x1="106.64" y1="90.15" x2="99.75" y2="86.18"/><line class="cls-2" x1="106.64" y1="91.52" x2="99.01" y2="87.12"/><line class="cls-2" x1="104.94" y1="92.51" x2="99.01" y2="89.08"/><line class="cls-2" x1="104.94" y1="94.96" x2="99.01" y2="91.55"/><line class="cls-2" x1="103.67" y1="95.69" x2="99.01" y2="93.02"/><line class="cls-2" x1="103.67" y1="96.58" x2="99.01" y2="93.89"/><line class="cls-2" x1="103.67" y1="83.79" x2="103.01" y2="83.41"/><line class="cls-2" x1="104.94" y1="85.52" x2="102.14" y2="83.92"/><line class="cls-2" x1="97.23" y1="101.11" x2="97.11" y2="101.04"/><line class="cls-2" x1="100.97" y1="98.42" x2="100.97" y2="97.55"/><polyline class="cls-2" points="99.01 98.67 99.01 86.61 100.97 85.47 100.97 84.6 103.92 82.9"/><line class="cls-2" x1="103.92" y1="83.76" x2="105.19" y2="83.05"/><line class="cls-2" x1="105.19" y1="85.49" x2="106.9" y2="84.53"/><path class="cls-2" d="m97.62,95.67c.12-3.51-.19-7.27-.92-11.17"/><path class="cls-2" d="m37.45,44.59c-.11-.06-.22-.12-.33-.18"/><line class="cls-2" x1="90.34" y1="75.06" x2="37.43" y2="44.59"/><path class="cls-2" d="m96.71,84.49c-.71-3.8-3.33-7.71-6.36-9.45"/><line class="cls-2" x1="96.7" y1="84.53" x2="96.65" y2="84.55"/><line class="cls-1" x1="94.74" y1="105.51" x2="94.74" y2="105.51"/><line class="cls-2" x1="37.43" y1="44.59" x2="37.43" y2="44.59"/><line class="cls-2" x1="90.34" y1="75.06" x2="90.31" y2="75.06"/><line class="cls-2" x1="90.08" y1="74.91" x2="37.17" y2="44.46"/><path class="cls-2" d="m96.7,84.72c-.73-3.95-3.46-8.01-6.6-9.81"/><path class="cls-2" d="m96.7,103.15c1.26-5.33,1.26-11.64,0-18.43"/><path class="cls-2" d="m94.77,105.9c.95-.5,1.62-1.45,1.93-2.75"/><path class="cls-2" d="m37.19,44.43c-1.86-1.07-3.63-1.21-4.91-.4"/><polyline class="cls-2" points="88.76 75.52 87.06 74.53 85.35 73.56 83.65 72.57 81.94 71.6 80.24 70.61 78.54 69.65 76.86 68.68 75.18 67.71 73.5 66.75 71.82 65.78 70.14 64.81 68.49 63.85 66.83 62.88 65.16 61.94 63.5 61 61.87 60.03 60.22 59.09 58.59 58.15 56.94 57.21 55.31 56.26 53.71 55.32 52.08 54.41 50.48 53.47 48.87 52.55 47.27 51.63 45.67 50.69 44.07 49.78 42.49 48.89 40.91 47.97 39.34 47.06 37.76 46.17 36.21 45.25 36.03 45.15 37.17 44.46"/><path class="cls-2" d="m88.77,75.52c.05.03.11.06.16.09"/><polyline class="cls-2" points="96.67 84.73 95.5 85.39 95.48 85.26 95.45 85.14 95.43 85.01 95.4 84.88 95.38 84.76 95.32 84.63 95.3 84.5 95.27 84.37 95.22 84.22 95.2 84.09 95.15 83.94 95.1 83.79 95.05 83.66 94.99 83.51 94.94 83.36 94.89 83.2 94.84 83.03 94.79 82.87 94.71 82.72 94.64 82.54 94.59 82.36 94.51 82.21 94.43 82.03 94.33 81.86 94.26 81.68 94.15 81.5 94.08 81.3 93.98 81.12 93.87 80.94 93.77 80.74 93.65 80.56 93.54 80.35 93.42 80.15 93.29 79.95 93.16 79.74 93.01 79.54 92.88 79.34 92.73 79.16 92.6 78.96 92.45 78.75 92.3 78.57 92.15 78.4 91.99 78.22 91.84 78.04 91.69 77.86 91.53 77.68 91.36 77.53 91.2 77.38 91.05 77.23 90.9 77.07 90.75 76.95 90.59 76.79 90.44 76.67 90.29 76.56 90.14 76.44 90.01 76.34 89.86 76.23 89.73 76.13 89.58 76.03 89.45 75.93 89.32 75.85 89.19 75.78 89.07 75.7 88.94 75.62 90.08 74.91"/><polyline class="cls-2" points="95.5 85.39 95.5 85.47 95.53 85.57 95.55 85.67 95.55 85.77 95.58 85.87 95.6 85.98 95.6 86.08 95.63 86.21 95.66 86.31 95.68 86.43 95.71 86.54 95.71 86.66 95.73 86.79 95.76 86.92 95.78 87.04 95.78 87.2 95.81 87.32 95.83 87.45 95.86 87.6 95.88 87.73 95.88 87.88 95.91 88.04 95.94 88.16 95.99 88.47 96.01 88.77 96.06 89.08 96.09 89.41 96.11 89.72 96.16 90.05 96.19 90.38 96.22 90.71 96.24 91.04 96.27 91.37 96.29 91.7 96.32 92.03 96.34 92.36 96.37 92.72 96.37 93.05 96.39 93.38 96.39 93.71 96.42 94.04 96.42 94.37 96.42 94.7 96.42 95.03 96.42 95.36 96.42 95.69 96.42 96.02 96.42 96.36 96.39 96.69 96.39 97.02 96.37 97.32 96.34 97.65 96.34 97.98 96.32 98.31 96.29 98.62 96.27 98.95 96.24 99.25 96.19 99.56 96.16 99.87 96.14 100.17 96.09 100.48 96.06 100.76 96.01 101.04 95.99 101.16 95.96 101.32 95.96 101.44 95.94 101.57 95.91 101.7 95.88 101.82 95.86 101.95 95.83 102.08 95.83 102.21 95.81 102.31 95.78 102.43 95.76 102.54 95.73 102.64 95.71 102.74 95.71 102.84 95.68 102.94 95.66 103.02 95.63 103.12 95.63 103.2 95.6 103.3 95.58 103.38 95.58 103.45 95.55 103.53 95.53 103.58 95.53 103.66 95.5 103.73 95.5 103.78 96.67 103.15"/><polyline class="cls-2" points="95.5 103.78 95.48 103.88 95.45 103.96 95.43 104.06 95.4 104.14 95.38 104.24 95.32 104.34 95.3 104.42 95.27 104.52 95.22 104.62 95.2 104.7 95.15 104.8 95.12 104.88 95.07 104.98 95.02 105.08 94.97 105.16 94.92 105.26 94.84 105.33 94.79 105.44 94.74 105.51 94.66 105.61 94.59 105.69 94.51 105.77 94.43 105.87 94.36 105.95 94.28 106.02 94.21 106.1 94.1 106.17 94 106.25 93.93 106.33 93.8 106.38 93.7 106.45 93.6 106.5"/><polyline class="cls-2" points="31.17 44.77 31.27 44.69 31.37 44.64 31.5 44.56 31.6 44.51 31.73 44.46 31.86 44.41 31.98 44.39 32.14 44.33 32.26 44.31 32.42 44.28 32.57 44.26 32.72 44.26 32.87 44.23 33.03 44.23 33.21 44.23 33.36 44.26 33.54 44.26 33.71 44.28 33.89 44.31 34.07 44.36 34.25 44.39 34.4 44.44 34.58 44.49 34.76 44.56 34.93 44.61 35.09 44.69 35.27 44.77 35.42 44.84 35.57 44.92 35.72 45 35.88 45.07 36.03 45.15"/><path class="cls-2" d="m36.06,45.14c-.18.11-.34.34-.39.57"/><path class="cls-2" d="m29.33,47.54c-.02.09,0,.18.05.27"/><polyline class="cls-2" points="29.36 47.82 29.39 47.74 29.41 47.67 29.44 47.59 29.47 47.49 29.49 47.41 29.52 47.34 29.54 47.23 29.57 47.16 29.62 47.08 29.64 47.01 29.69 46.9 29.72 46.83 29.77 46.75 29.8 46.67 29.85 46.57 29.9 46.5 29.95 46.42 30 46.34 30.05 46.27 30.13 46.17 30.18 46.09 30.25 46.01 30.31 45.94 30.38 45.86 30.46 45.78 30.53 45.71 30.61 45.66 30.69 45.58 30.76 45.5 30.86 45.45 30.94 45.38 31.04 45.33 31.14 45.28 31.25 45.22 31.37 45.17 31.48 45.12 31.6 45.07 31.7 45.02 31.83 45 31.98 44.97 32.11 44.92 32.24 44.92 32.39 44.89 32.52 44.87 32.67 44.87 32.82 44.87 32.98 44.87 33.15 44.89 33.31 44.89 33.46 44.92 33.64 44.94 33.79 45 33.94 45.02 34.12 45.07 34.27 45.12 34.45 45.17 34.6 45.22 34.76 45.3 34.91 45.35 35.06 45.43 35.21 45.5 35.37 45.58 35.49 45.66 35.65 45.73 35.8 45.84"/><path class="cls-2" d="m36.21,45.24c-.18.11-.33.34-.39.57"/><line class="cls-2" x1="35.8" y1="45.84" x2="88.38" y2="76.11"/><path class="cls-2" d="m88.79,75.51c-.18.11-.33.34-.39.57"/><line class="cls-2" x1="88.38" y1="76.11" x2="88.53" y2="76.21"/><path class="cls-2" d="m88.94,75.61c-.18.11-.33.34-.39.57"/><polyline class="cls-2" points="88.53 76.21 88.66 76.26 88.79 76.34 88.91 76.41 89.04 76.51 89.17 76.59 89.3 76.69 89.42 76.77 89.55 76.87 89.7 77 89.83 77.1 89.98 77.23 90.11 77.33 90.26 77.45 90.42 77.61 90.57 77.73 90.72 77.89 90.85 78.04 91 78.19 91.15 78.34 91.31 78.5 91.46 78.68 91.61 78.85 91.74 79.03 91.89 79.21 92.02 79.39 92.17 79.57 92.3 79.77 92.42 79.95 92.58 80.15 92.7 80.33 92.81 80.53 92.93 80.71 93.04 80.91 93.16 81.09 93.26 81.27 93.34 81.45 93.44 81.63 93.52 81.8 93.62 81.98 93.7 82.14 93.77 82.31 93.85 82.49 93.93 82.64 94 82.8 94.05 82.97 94.13 83.13 94.18 83.28 94.23 83.43 94.28 83.59 94.33 83.71 94.38 83.86 94.43 84.02 94.49 84.14 94.51 84.27 94.56 84.42 94.59 84.55 94.61 84.68 94.66 84.81 94.69 84.93 94.71 85.06 94.74 85.16 94.77 85.29 94.79 85.42 94.82 85.52"/><path class="cls-2" d="m94.83,85.48c.22.02.49-.04.67-.13"/><line class="cls-2" x1="94.82" y1="85.52" x2="94.84" y2="85.59"/><path class="cls-2" d="m94.86,85.61c.22.02.49-.03.67-.14"/><polyline class="cls-2" points="94.84 85.59 94.84 85.7 94.87 85.8 94.89 85.9 94.89 86 94.92 86.1 94.94 86.21 94.97 86.33 94.97 86.43 94.99 86.56 95.02 86.66 95.05 86.79 95.07 86.92 95.07 87.04 95.1 87.17 95.12 87.3 95.15 87.45 95.17 87.58 95.17 87.71 95.2 87.86 95.22 88.01 95.25 88.14 95.27 88.29 95.3 88.6 95.35 88.9 95.38 89.21 95.43 89.51 95.45 89.82 95.5 90.15 95.53 90.48 95.55 90.81 95.58 91.14 95.6 91.47 95.63 91.8 95.66 92.13 95.68 92.46 95.71 92.79 95.71 93.12 95.73 93.46 95.73 93.79 95.76 94.12 95.76 94.45 95.76 94.78 95.76 95.11 95.76 95.41 95.76 95.74 95.76 96.08 95.76 96.41 95.73 96.74 95.73 97.04 95.71 97.37 95.68 97.7 95.68 98.01 95.66 98.34 95.63 98.64 95.6 98.98 95.55 99.28 95.53 99.59 95.5 99.89 95.45 100.2 95.43 100.48 95.38 100.76 95.35 101.04 95.32 101.19 95.3 101.32 95.27 101.44 95.25 101.57 95.25 101.7 95.22 101.82 95.2 101.95 95.17 102.08 95.15 102.18 95.12 102.31 95.1 102.41 95.1 102.54 95.07 102.64 95.05 102.74 95.02 102.84 94.99 102.92 94.99 103.02 94.97 103.1 94.94 103.2 94.92 103.27 94.92 103.35 94.89 103.43 94.87 103.5 94.87 103.58 94.84 103.63 94.84 103.71"/><path class="cls-2" d="m94.86,103.68c.22.11.49.12.67.02"/><line class="cls-2" x1="94.84" y1="103.71" x2="94.82" y2="103.76"/><path class="cls-2" d="m94.83,103.76c.22.11.49.12.67.02"/><path class="cls-2" d="m88.55,105.85c.02.07.06.11.11.14"/><polyline class="cls-2" points="94.82 103.76 94.79 103.86 94.77 103.94 94.74 104.04 94.71 104.11 94.69 104.19 94.66 104.29 94.64 104.37 94.59 104.44 94.56 104.55 94.54 104.62 94.49 104.72 94.43 104.8 94.41 104.88 94.36 104.98 94.31 105.05 94.26 105.13 94.21 105.23 94.15 105.31 94.08 105.39 94.03 105.49 93.95 105.56 93.9 105.64 93.82 105.72 93.75 105.79 93.67 105.87 93.6 105.95 93.49 106.02 93.42 106.07 93.32 106.15 93.24 106.2 93.14 106.28 93.01 106.33 92.91 106.38 92.78 106.43 92.68 106.48 92.55 106.53 92.42 106.58 92.3 106.61 92.15 106.63 92.02 106.66 91.87 106.68 91.74 106.71 91.59 106.71 91.43 106.71 91.28 106.71 91.13 106.71 90.97 106.68 90.82 106.68 90.67 106.66 90.52 106.63 90.36 106.58 90.21 106.56 90.06 106.5 89.91 106.45 89.75 106.43 89.63 106.38 89.47 106.3 89.35 106.25 89.19 106.2 89.07 106.12 88.94 106.07 88.79 106 88.66 105.92 88.53 105.87 88.38 105.77"/><path class="cls-2" d="m88.4,105.75c.02.06.06.11.1.14"/><line class="cls-2" x1="88.38" y1="105.77" x2="35.8" y2="75.5"/><path class="cls-2" d="m35.82,75.48c.02.06.06.11.1.14"/><line class="cls-2" x1="35.8" y1="75.5" x2="35.65" y2="75.39"/><path class="cls-2" d="m35.66,75.38c.02.06.06.11.1.14"/><polyline class="cls-2" points="35.65 75.39 35.52 75.32 35.39 75.24 35.27 75.17 35.16 75.09 35.01 74.99 34.88 74.91 34.76 74.81 34.63 74.71 34.5 74.61 34.35 74.48 34.22 74.38 34.07 74.25 33.92 74.12 33.79 74 33.64 73.84 33.48 73.72 33.33 73.56 33.18 73.41 33.05 73.23 32.9 73.08 32.75 72.9 32.59 72.72 32.47 72.57 32.31 72.37 32.16 72.19 32.03 72.01 31.91 71.81 31.76 71.63 31.63 71.43 31.5 71.25 31.37 71.04 31.27 70.87 31.14 70.66 31.04 70.48 30.94 70.31 30.84 70.13 30.76 69.95 30.66 69.77 30.59 69.62 30.51 69.44 30.41 69.26 30.33 69.11 30.28 68.93 30.2 68.78 30.13 68.63 30.08 68.47 30.03 68.32 29.95 68.17 29.9 68.02 29.85 67.86 29.8 67.71 29.75 67.58 29.72 67.43 29.67 67.3 29.64 67.18 29.59 67.05 29.57 66.92 29.52 66.8 29.49 66.67 29.47 66.54 29.44 66.41 29.41 66.31 29.39 66.19 29.36 66.08"/><path class="cls-2" d="m29.32,65.98s.03.06.06.09"/><line class="cls-2" x1="29.36" y1="66.08" x2="29.34" y2="65.98"/><path class="cls-2" d="m29.3,65.9s.03.06.06.09"/><polyline class="cls-2" points="29.34 65.98 29.34 65.91 29.31 65.8 29.29 65.7 29.29 65.6 29.26 65.5 29.24 65.37 29.21 65.27 29.19 65.17 29.19 65.04 29.16 64.91 29.14 64.81 29.11 64.68 29.08 64.56 29.08 64.43 29.06 64.28 29.03 64.15 29.01 64.02 28.98 63.87 28.96 63.74 28.96 63.59 28.93 63.46 28.91 63.31 28.86 63.01 28.83 62.7 28.78 62.4 28.75 62.09 28.7 61.76 28.68 61.45 28.65 61.12 28.6 60.79 28.58 60.46 28.55 60.13 28.52 59.8 28.5 59.47 28.47 59.14 28.47 58.81 28.45 58.48 28.45 58.15 28.42 57.82 28.42 57.49 28.4 57.16 28.4 56.82 28.4 56.52 28.4 56.19 28.4 55.86 28.42 55.53 28.42 55.2 28.42 54.87 28.45 54.56 28.45 54.23 28.47 53.9 28.5 53.59 28.52 53.26 28.55 52.96 28.58 52.63 28.6 52.32 28.63 52.02 28.68 51.71 28.7 51.41 28.75 51.13 28.78 50.82 28.83 50.57 28.86 50.41 28.88 50.29 28.88 50.16 28.91 50.03 28.93 49.91 28.96 49.78 28.98 49.65 29.01 49.52 29.03 49.4 29.06 49.29 29.06 49.17 29.08 49.07 29.11 48.96 29.14 48.86 29.16 48.76 29.16 48.66 29.19 48.58 29.21 48.48 29.24 48.4 29.24 48.33 29.26 48.25 29.29 48.18 29.31 48.1 29.31 48.02 29.34 47.95 29.34 47.9"/><path class="cls-2" d="m29.3,47.62c-.02.09,0,.18.05.26"/><polyline class="cls-2" points="35.8 45.84 35.88 46.34 35.98 46.88 36.05 47.41 36.16 47.92 36.26 48.43 36.38 48.96 36.49 49.47 36.59 49.98 36.72 50.49 36.84 51 36.97 51.51 37.12 52.02 37.25 52.53 37.4 53.01 37.56 53.52 37.71 54 37.63 53.98 37.56 53.92 37.48 53.87 37.38 53.85 37.3 53.8 37.22 53.77 37.15 53.75 37.07 53.72 37 53.7 36.92 53.67 36.84 53.64 36.77 53.62 36.69 53.62 36.61 53.59 36.54 53.59 36.46 53.57 36.41 53.57 36.33 53.57 36.26 53.57 36.21 53.57 36.13 53.57 36.05 53.57 36 53.57 35.93 53.57 35.88 53.59 35.8 53.59 35.67 53.62 35.57 53.67 35.44 53.72 35.34 53.77 35.24 53.82 35.14 53.9 35.04 53.95 34.93 54.05 34.86 54.13 34.76 54.23 34.68 54.33 34.6 54.43 34.58 54.48 34.55 54.53 34.5 54.61 34.48 54.66 34.45 54.74 34.43 54.79 34.38 54.87 34.35 54.94 34.32 55.02 34.32 55.07 34.3 55.15 34.27 55.22 34.25 55.3 34.22 55.4 34.04 55.17 33.87 54.94 33.69 54.74 33.51 54.51 33.33 54.28 33.15 54.05 32.98 53.82 32.82 53.59 32.65 53.36 32.49 53.14 32.31 52.91 32.16 52.68 31.98 52.45 31.83 52.22 31.68 51.99 31.53 51.76 31.37 51.53 31.22 51.28 31.07 51.05 30.94 50.82 30.79 50.57 30.66 50.34 30.51 50.08 30.38 49.85 30.23 49.6 30.1 49.37 29.97 49.12 29.85 48.89 29.72 48.63 29.59 48.38 29.47 48.15 29.34 47.9 29.36 47.82"/><polyline class="cls-2" points="88.38 76.11 88.1 76.41 87.82 76.74 87.57 77.05 87.31 77.38 87.06 77.68 86.8 77.99 86.55 78.29 86.32 78.6 86.07 78.9 85.84 79.21 85.61 79.52 85.4 79.82 85.18 80.1 84.97 80.41 84.77 80.69 84.56 80.99 37.71 54"/><polyline class="cls-2" points="94.84 85.59 94.59 85.65 94.33 85.67 94.1 85.7 93.85 85.75 93.62 85.77 93.37 85.8 93.14 85.82 92.91 85.85 92.65 85.9 92.42 85.93 92.2 85.95 91.97 85.95 91.74 85.98 91.51 86 91.31 86.03 91.08 86.05 90.85 86.08 90.64 86.08 90.42 86.1 90.21 86.13 89.98 86.13 89.78 86.15 89.58 86.15 89.37 86.18 89.17 86.18 88.97 86.18 88.76 86.21 88.56 86.21 88.35 86.21 88.15 86.21 87.97 86.23 87.77 86.23 87.77 86.13 87.74 86.03 87.72 85.93 87.72 85.82 87.69 85.75 87.67 85.65 87.64 85.54 87.64 85.44 87.62 85.34 87.59 85.26 87.57 85.16 87.54 85.06 87.49 84.96 87.46 84.88 87.41 84.68 87.34 84.5 87.26 84.32 87.18 84.12 87.11 83.94 87.01 83.76 86.93 83.59 86.83 83.41 86.73 83.25 86.63 83.08 86.52 82.9 86.4 82.75 86.35 82.67 86.29 82.57 86.22 82.49 86.17 82.42 86.09 82.34 86.04 82.26 85.96 82.19 85.91 82.11 85.84 82.03 85.79 81.96 85.71 81.91 85.63 81.83 85.56 81.75 85.51 81.68 85.43 81.63 85.35 81.55 85.28 81.5 85.2 81.42 85.12 81.37 85.05 81.3 84.97 81.24 84.9 81.19 84.82 81.14 84.72 81.09 84.64 81.04 84.56 80.99"/><polyline class="cls-2" points="94.84 103.71 94.59 103.53 94.33 103.35 94.1 103.17 93.85 102.99 93.62 102.82 93.37 102.64 93.14 102.46 92.91 102.26 92.65 102.08 92.42 101.9 92.2 101.7 91.97 101.52 91.74 101.32 91.51 101.14 91.31 100.93 91.08 100.76 90.85 100.55 90.64 100.35 90.42 100.15 90.21 99.97 89.98 99.76 89.78 99.56 89.58 99.36 89.37 99.15 89.17 98.95 88.97 98.72 88.76 98.52 88.56 98.31 88.35 98.11 88.15 97.88 87.97 97.68 87.77 97.45 87.82 97.17 87.85 96.86 87.87 96.53 87.92 96.23 87.95 95.9 87.97 95.59 88 95.26 88.02 94.93 88.05 94.6 88.07 94.24 88.07 93.91 88.1 93.56 88.1 93.2 88.1 92.87 88.1 92.51 88.13 92.16 88.1 91.78 88.1 91.42 88.1 91.06 88.1 90.68 88.07 90.33 88.07 89.94 88.05 89.59 88.02 89.21 88 88.83 87.97 88.47 87.95 88.09 87.92 87.71 87.87 87.35 87.85 86.97 87.82 86.59 87.77 86.23"/><polyline class="cls-2" points="88.38 105.77 88.1 105.36 87.82 104.93 87.57 104.52 87.31 104.09 87.06 103.66 86.8 103.22 86.55 102.79 86.32 102.33 86.07 101.9 85.84 101.44 85.61 100.98 85.4 100.55 85.18 100.07 84.97 99.61 84.77 99.15 84.56 98.67 84.64 98.72 84.72 98.77 84.82 98.82 84.9 98.85 84.97 98.9 85.05 98.92 85.12 98.95 85.2 98.98 85.28 99 85.35 99.03 85.43 99.05 85.51 99.08 85.56 99.1 85.63 99.1 85.71 99.13 85.79 99.13 85.84 99.13 85.91 99.15 85.96 99.15 86.04 99.15 86.09 99.15 86.17 99.15 86.22 99.15 86.29 99.15 86.35 99.13 86.4 99.13 86.52 99.1 86.63 99.08 86.73 99.03 86.83 99 86.93 98.92 87.01 98.87 87.11 98.8 87.18 98.75 87.26 98.64 87.34 98.57 87.41 98.47 87.46 98.36 87.49 98.31 87.54 98.26 87.57 98.21 87.59 98.14 87.62 98.08 87.64 98.03 87.64 97.96 87.67 97.91 87.69 97.83 87.72 97.75 87.72 97.68 87.74 97.6 87.77 97.53 87.77 97.45"/><polyline class="cls-2" points="35.8 75.5 35.88 75.29 35.98 75.06 36.05 74.86 36.16 74.63 36.26 74.4 36.38 74.17 36.49 73.94 36.59 73.72 36.72 73.49 36.84 73.23 36.97 72.98 37.12 72.75 37.25 72.49 37.4 72.24 37.56 71.96 37.71 71.71 84.56 98.67"/><polyline class="cls-2" points="29.34 65.98 29.47 66.03 29.59 66.06 29.72 66.11 29.85 66.13 29.97 66.16 30.1 66.21 30.23 66.24 30.38 66.26 30.51 66.29 30.66 66.31 30.79 66.34 30.94 66.36 31.07 66.39 31.22 66.41 31.37 66.44 31.53 66.47 31.68 66.47 31.83 66.49 31.98 66.52 32.16 66.52 32.31 66.54 32.49 66.54 32.65 66.57 32.82 66.57 32.98 66.59 33.15 66.59 33.33 66.59 33.51 66.62 33.69 66.62 33.87 66.62 34.04 66.62 34.22 66.62 34.25 66.72 34.27 66.82 34.3 66.9 34.32 67 34.32 67.1 34.35 67.2 34.38 67.28 34.43 67.38 34.45 67.46 34.48 67.56 34.5 67.66 34.55 67.74 34.58 67.84 34.6 67.94 34.68 68.12 34.76 68.3 34.86 68.47 34.93 68.65 35.04 68.83 35.14 68.98 35.24 69.16 35.34 69.34 35.44 69.49 35.57 69.67 35.67 69.82 35.8 70 35.88 70.08 35.93 70.15 36 70.23 36.05 70.31 36.13 70.38 36.21 70.46 36.26 70.54 36.33 70.59 36.41 70.66 36.46 70.74 36.54 70.82 36.61 70.87 36.69 70.94 36.77 71.02 36.84 71.07 36.92 71.15 37 71.2 37.07 71.27 37.15 71.32 37.22 71.37 37.3 71.45 37.38 71.5 37.48 71.55 37.56 71.6 37.63 71.65 37.71 71.71"/><polyline class="cls-2" points="34.22 55.4 34.17 55.71 34.12 56.01 34.04 56.34 33.99 56.67 33.97 57 33.92 57.33 33.87 57.66 33.84 57.99 33.82 58.35 33.79 58.68 33.76 59.04 33.74 59.39 33.71 59.75 33.71 60.11 33.71 60.46 33.71 60.82 33.71 61.17 33.71 61.53 33.71 61.89 33.74 62.27 33.76 62.62 33.79 62.98 33.82 63.36 33.84 63.72 33.87 64.07 33.92 64.46 33.97 64.81 33.99 65.17 34.04 65.55 34.12 65.91 34.17 66.26 34.22 66.62"/><polyline class="cls-2" points="39.67 63.26 39.69 63.29 39.74 63.31 39.77 63.34 39.82 63.36 39.87 63.39 39.9 63.44 39.95 63.46 39.97 63.51 40.02 63.57 40.05 63.59 40.1 63.64 40.12 63.69 40.18 63.74 40.2 63.79 40.23 63.85 40.25 63.9 40.28 63.95 40.3 64 40.33 64.05 40.35 64.1 40.38 64.15 40.4 64.2 40.43 64.25 40.43 64.3 40.45 64.38 40.48 64.43 40.48 64.48 40.48 64.53 40.51 64.58 40.51 64.63 40.51 64.68 40.51 64.74 40.51 64.76 40.51 64.81 40.51 64.86 40.48 64.91 40.48 64.94 40.48 64.99 40.45 65.04 40.43 65.07 40.43 65.09 40.4 65.14 40.38 65.17 40.35 65.19 40.33 65.22 40.3 65.24 40.28 65.27 40.25 65.27 40.23 65.3 40.2 65.3 40.18 65.32 40.12 65.32 40.1 65.32 40.05 65.35 40.02 65.35 39.97 65.32 39.95 65.32 39.9 65.32 39.87 65.3 39.82 65.3 39.77 65.27 39.74 65.27 39.69 65.24 39.67 65.22 39.62 65.19 39.56 65.17 39.54 65.14 39.49 65.12 39.46 65.07 39.41 65.04 39.36 64.99 39.34 64.96 39.28 64.91 39.26 64.86 39.21 64.84 39.18 64.79 39.16 64.74 39.11 64.68 39.08 64.63 39.06 64.58 39.03 64.53 39 64.48 38.98 64.43 38.95 64.38 38.93 64.33 38.9 64.28 38.88 64.23 38.88 64.15 38.85 64.1 38.85 64.05 38.83 64 38.83 63.95 38.8 63.9 38.8 63.85 38.8 63.79 38.8 63.74 38.8 63.69 38.8 63.67 38.8 63.62 38.83 63.57 38.83 63.51 38.85 63.49 38.85 63.44 38.88 63.41 38.88 63.36 38.9 63.34 38.93 63.31 38.95 63.29 38.98 63.26 39 63.23 39.03 63.21 39.06 63.18 39.08 63.18 39.11 63.16 39.16 63.16 39.18 63.16 39.21 63.13 39.26 63.13 39.28 63.13 39.34 63.13 39.36 63.16 39.41 63.16 39.46 63.16 39.49 63.18 39.54 63.18 39.56 63.21 39.62 63.23 39.67 63.26"/><polyline class="cls-2" points="40.25 65.27 40.23 65.3 40.2 65.3 40.18 65.32 40.15 65.32 40.1 65.32 40.07 65.32 40.02 65.32 40 65.32 39.95 65.32 39.92 65.3 39.87 65.3 39.84 65.3 39.79 65.27 39.74 65.24 39.72 65.22 39.67 65.22 39.62 65.17 39.56 65.12 39.49 65.09 39.44 65.02 39.36 64.96 39.31 64.91 39.26 64.84 39.21 64.76 39.16 64.71 39.11 64.63 39.06 64.56 39.03 64.48 38.98 64.4 38.95 64.33 38.9 64.25 38.88 64.15 38.88 64.07 38.85 64 38.83 63.92 38.83 63.85 38.83 63.77 38.83 63.69 38.83 63.64 38.83 63.57 38.85 63.51 38.88 63.44 38.88 63.39 38.93 63.34 38.95 63.29 38.98 63.26 39.03 63.21 39.06 63.18"/><line class="cls-2" x1="81.74" y1="72.27" x2="81.74" y2="72.27"/><line class="cls-2" x1="47.73" y1="52.68" x2="47.73" y2="52.68"/><line class="cls-2" x1="84.03" y1="73.59" x2="84.03" y2="73.59"/><line class="cls-2" x1="86.24" y1="74.86" x2="86.24" y2="74.86"/><line class="cls-2" x1="45.44" y1="51.36" x2="45.44" y2="51.36"/><line class="cls-2" x1="94.74" y1="105.51" x2="94.74" y2="105.51"/><line class="cls-2" x1="93.6" y1="106.5" x2="94.74" y2="105.89"/><polyline class="cls-2" points="29.31 47.56 29.34 47.44 29.36 47.34 29.41 47.23 29.44 47.11 29.47 47.01 29.52 46.9 29.54 46.8 29.59 46.7 29.64 46.57 29.69 46.5 29.75 46.39 29.8 46.29 29.85 46.19 29.9 46.09 29.95 46.01 30 45.91 30.05 45.84 30.13 45.73 30.18 45.66 30.25 45.58 30.31 45.5 30.38 45.43 30.46 45.35 30.53 45.28 30.61 45.2 30.69 45.12 30.76 45.05 30.84 45 30.92 44.92 30.99 44.87 31.07 44.82 31.17 44.77 32.26 44.05"/><polyline class="cls-2" points="93.6 106.5 93.47 106.58 93.32 106.63 93.19 106.68 93.06 106.73 92.91 106.78 92.76 106.81 92.63 106.86 92.48 106.89 92.32 106.91 92.17 106.91 92.02 106.94 91.87 106.94 91.71 106.94 91.56 106.94 91.41 106.91 91.25 106.91 91.08 106.89 90.92 106.86 90.77 106.84 90.62 106.78 90.44 106.76 90.29 106.71 90.11 106.66 89.96 106.61 89.8 106.56 89.63 106.48 89.47 106.4 89.3 106.35 89.14 106.28 88.97 106.17 88.81 106.1 88.66 106 88.48 105.92 35.9 75.62 35.75 75.55 35.6 75.44 35.47 75.37 35.34 75.29 35.19 75.19 35.06 75.09 34.91 74.99 34.78 74.89 34.63 74.78 34.5 74.68 34.38 74.58 34.22 74.45 34.1 74.35 33.97 74.22 33.84 74.1 33.71 73.97 33.56 73.84 33.43 73.72 33.31 73.59 33.18 73.46 33.05 73.33 32.93 73.18 32.82 73.05 32.7 72.9 32.57 72.75 32.44 72.62 32.34 72.47 32.21 72.32 32.09 72.16 31.98 72.01 31.88 71.86 31.76 71.68 31.65 71.53 31.55 71.37 31.45 71.2 31.35 71.04 31.25 70.89 31.14 70.71 31.04 70.54 30.94 70.38 30.84 70.2 30.76 70.03 30.66 69.87 30.59 69.7 30.48 69.52 30.41 69.34 30.33 69.16 30.25 68.98 30.18 68.81 30.1 68.63 30.03 68.47 29.97 68.3 29.9 68.12 29.82 67.94 29.77 67.76 29.72 67.58 29.67 67.41 29.59 67.23 29.54 67.05 29.52 66.87 29.47 66.69 29.41 66.52 29.39 66.34 29.34 66.16 29.31 65.98 29.29 65.91 29.24 65.6 29.19 65.3 29.11 64.96 29.06 64.66 29.01 64.35 28.98 64.05 28.93 63.74 28.88 63.44 28.83 63.13 28.8 62.8 28.75 62.5 28.73 62.19 28.68 61.89 28.65 61.58 28.63 61.28 28.58 61 28.55 60.69 28.52 60.39 28.5 60.08 28.47 59.78 28.47 59.47 28.45 59.19 28.42 58.88 28.4 58.58 28.4 58.3 28.37 57.99 28.37 57.69 28.37 57.41 28.35 57.1 28.35 56.82 28.35 56.52 28.35 56.24 28.35 55.96 28.35 55.65 28.35 55.37 28.37 55.09 28.37 54.81 28.37 54.53 28.4 54.26 28.4 53.98 28.42 53.7 28.45 53.42 28.47 53.14 28.47 52.86 28.5 52.58 28.52 52.32 28.55 52.04 28.58 51.76 28.63 51.51 28.65 51.23 28.68 50.97 28.73 50.69 28.75 50.44 28.8 50.19 28.83 49.93 28.88 49.65 28.93 49.4 28.98 49.14 29.03 48.89 29.08 48.63 29.14 48.38 29.19 48.12 29.24 47.87 29.29 47.64 29.31 47.56"/><line class="cls-2" x1="97" y1="86.31" x2="97.26" y2="86.46"/><path class="cls-2" d="m97.27,86.45c-.1-.62-.2-1.25-.32-1.88"/><path class="cls-2" d="m96.96,84.58c-.74-3.96-3.47-8.03-6.62-9.84"/><line class="cls-2" x1="90.34" y1="74.76" x2="37.43" y2="44.31"/><path class="cls-2" d="m37.44,44.29c-1.92-1.11-3.75-1.22-5.04-.32"/><line class="cls-1" x1="31.32" y1="45.2" x2="31.32" y2="45.2"/><line class="cls-1" x1="93.32" y1="106.15" x2="93.32" y2="106.15"/><path class="cls-2" d="m94.9,105.83c1.02-.47,1.74-1.46,2.06-2.82"/><path class="cls-2" d="m96.95,103c.12-.49.22-1,.32-1.51"/><line class="cls-2" x1="97.26" y1="101.52" x2="97.05" y2="101.39"/><line class="cls-1" x1="33.51" y1="44.94" x2="33.51" y2="44.94"/><polyline class="cls-2" points="97.26 86.46 99.95 84.83 102.65 83.2 105.35 81.55 108.02 79.92"/><path class="cls-2" d="m108.09,94.56c.75-4.25.75-9.05,0-14.16"/><path class="cls-2" d="m108.03,79.97s0-.04,0-.06"/><line class="cls-2" x1="94.89" y1="83.2" x2="94.89" y2="83.2"/><line class="cls-2" x1="46.64" y1="52.07" x2="46.64" y2="52.07"/><path class="cls-2" d="m53.19,35.68c-1.65-.95-3.24-1.13-4.43-.49"/><path class="cls-2" d="m53.48,35.66c-.08-.04-.18-.04-.29.02"/><line class="cls-2" x1="53.17" y1="35.71" x2="106.06" y2="66.16"/><path class="cls-2" d="m106.37,66.14c-.08-.04-.18-.04-.29.02"/><path class="cls-2" d="m112.29,75.4c-.69-3.72-3.26-7.54-6.22-9.24"/><path class="cls-2" d="m112.3,75.41c.12-.07.18-.16.16-.24"/><path class="cls-2" d="m112.3,93.6c1.25-5.26,1.25-11.5,0-18.2"/><path class="cls-2" d="m112.29,93.61c.08-.05.14-.13.16-.21"/><path class="cls-2" d="m110.67,96.07c.79-.49,1.35-1.35,1.62-2.47"/><line class="cls-2" x1="37.43" y1="44.31" x2="53.17" y2="35.71"/><line class="cls-2" x1="90.34" y1="74.76" x2="106.06" y2="66.16"/><line class="cls-2" x1="96.95" y1="84.58" x2="112.29" y2="75.39"/><polyline class="cls-2" points="106.92 95.64 104.53 97.09 102.12 98.57 99.67 100.04 97.26 101.52"/><line class="cls-2" x1="96.95" y1="103.02" x2="112.29" y2="93.61"/><path class="cls-2" d="m33.9,64.29s0,0,0,0"/><polyline class="cls-2" points="32.72 43.77 48.75 35.23 48.87 35.15 49 35.1 49.13 35.05 49.28 35 49.41 34.95 49.54 34.92 49.69 34.87 49.82 34.85 49.97 34.82 50.12 34.82 50.25 34.79 50.4 34.79 50.55 34.79 50.71 34.79 50.86 34.82 51.01 34.82 51.16 34.85 51.32 34.87 51.47 34.9 51.62 34.92 51.77 34.97 51.93 35.02 52.08 35.05 52.23 35.1 52.39 35.18 52.54 35.23 52.69 35.3 52.84 35.35 53 35.43 53.15 35.51 53.3 35.61 53.45 35.69 106.36 66.16 106.49 66.24 106.62 66.31 106.77 66.39 106.9 66.49 107.03 66.57 107.15 66.67 107.28 66.77 107.41 66.85 107.54 66.95 107.69 67.08 107.81 67.18 107.94 67.28 108.07 67.38 108.17 67.51 108.3 67.64 108.43 67.74 108.55 67.86 108.68 67.99 108.81 68.12 108.91 68.25 109.04 68.37 109.16 68.5 109.26 68.65 109.39 68.78 109.49 68.91 109.62 69.06 109.72 69.21 109.82 69.34 109.93 69.49 110.05 69.65 110.16 69.8 110.26 69.92 110.36 70.08 110.46 70.23 110.54 70.41 110.64 70.56 110.74 70.71 110.82 70.87 110.92 71.02 110.99 71.2 111.1 71.35 111.17 71.5 111.25 71.68 111.33 71.83 111.43 72.01 111.48 72.16 111.55 72.34 111.63 72.49 111.71 72.67 111.76 72.82 111.83 73 111.88 73.18 111.96 73.33 112.01 73.51 112.06 73.66 112.11 73.84 112.16 74.02 112.22 74.17 112.27 74.35 112.32 74.5 112.34 74.68 112.39 74.83 112.42 75.01 112.44 75.17 112.5 75.5 112.57 75.8 112.62 76.11 112.67 76.41 112.72 76.74 112.78 77.05 112.8 77.35 112.85 77.66 112.9 77.96 112.93 78.27 112.98 78.57 113 78.88 113.06 79.18 113.08 79.49 113.11 79.79 113.16 80.1 113.18 80.38 113.21 80.69 113.23 80.99 113.26 81.3 113.28 81.6 113.28 81.88 113.31 82.19 113.33 82.47 113.33 82.77 113.36 83.08 113.36 83.36 113.36 83.66 113.39 83.94 113.39 84.22 113.39 84.53 113.39 84.81 113.39 85.09 113.39 85.39 113.39 85.67 113.36 85.95 113.36 86.23 113.36 86.51 113.33 86.79 113.33 87.07 113.31 87.35 113.28 87.63 113.28 87.91 113.26 88.19 113.23 88.44 113.21 88.72 113.18 89 113.16 89.26 113.11 89.54 113.08 89.79 113.06 90.07 113 90.33 112.98 90.61 112.93 90.86 112.9 91.11 112.85 91.37 112.8 91.65 112.75 91.9 112.72 92.16 112.67 92.41 112.62 92.67 112.55 92.9 112.5 93.15 112.44 93.4 112.42 93.51 112.39 93.61 112.37 93.73 112.32 93.84 112.29 93.94 112.27 94.04 112.22 94.14 112.16 94.24 112.14 94.32 112.09 94.42 112.04 94.52 111.99 94.63 111.96 94.7 111.88 94.8 111.83 94.88 111.78 94.98 111.73 95.06 111.68 95.13 111.61 95.21 111.55 95.29 111.48 95.39 111.43 95.44 111.35 95.52 111.27 95.59 111.2 95.67 111.15 95.72 111.07 95.8 110.99 95.85 110.92 95.92 110.82 95.97 110.74 96.02 110.66 96.08 95.22 105.64"/><g id="Heatit-CMYK-black"><g class="cls-4"><g class="cls-5"><path class="cls-6" d="m71.4,80.98c0-.09-.03-.15-.09-.18l-.17-.1v-.5l.4.23c.19.11.27.27.27.52v1.18c0,.14,0,.25,0,.25h0c.09-.23.36-.46.78-.22.5.29.72.81.72,1.58v1.31c0,.09.03.15.09.18l.17.1v.5l-.4-.23c-.19-.11-.27-.27-.27-.54v-1.42c0-.42-.06-.79-.4-.99s-.58-.03-.67.36c-.03.1-.04.23-.04.38v1.41l-.4-.23v-3.59Z"/><path class="cls-6" d="m74.87,83.48c.59.34.91,1.16.91,1.94,0,.08-.01.23-.01.23l-1.54-.89c.03.66.35,1.21.73,1.43s.62,0,.62,0l.18.51s-.31.26-.81-.03c-.67-.39-1.12-1.34-1.12-2.23,0-.96.46-1.32,1.06-.97m.49,1.52c-.01-.51-.23-.91-.5-1.06-.31-.18-.56-.06-.62.41l1.12.65Z"/><path class="cls-6" d="m77.39,86.15l.09.05v-.03c0-.53-.14-.8-.47-.99-.1-.06-.35-.16-.35.03v.17l-.38-.22v-.3c0-.5.53-.26.73-.14.68.4.87,1.02.87,1.68v1.28c0,.09.03.15.09.18l.17.1v.5l-.38-.22c-.19-.11-.26-.28-.26-.5,0-.1,0-.17,0-.17h0s-.17.5-.67.2c-.36-.21-.72-.73-.72-1.34,0-.97.92-.5,1.27-.3m-.47,1.22c.34.2.56-.19.56-.63v-.1l-.1-.06c-.3-.18-.86-.47-.86.08,0,.24.13.56.4.71"/><path class="cls-6" d="m78.6,86.18l-.28-.16v-.47l.28.16v-.83l.4.23v.83l.51.29v.47l-.51-.29v1.38c0,.6.29.85.45.94.06.03.06.02.06.02v.51s-.02,0-.1-.05c-.27-.15-.81-.59-.81-1.59v-1.45Z"/><path class="cls-6" d="m80.01,87.09c0-.07-.03-.1-.07-.13l-.13-.08v-.46l.3.17c.14.08.2.27.2.47v1.47c0,.07.03.11.07.14l.13.08v.38l-.3-.17c-.14-.08-.2-.2-.2-.41v-1.46Zm0-1.38l.3.18v.46l-.3-.18v-.46Z"/><path class="cls-6" d="m80.88,87.44l-.21-.12v-.4l.22.12v-.62l.3.17v.62l.41.24v.4l-.41-.24v1.01c0,.46.22.64.34.71.04.03.07.03.07.03,0,.07,0,.14-.02.2-.02.08-.05.16-.09.13-.2-.12-.61-.44-.61-1.21v-1.06Z"/><path class="cls-6" d="m70.06,81.36c0-.18-.05-.37-.14-.54-.04-.07-.06-.15-.06-.22s.02-.13.06-.16c.09-.06.14-.19.14-.37s-.05-.37-.14-.54c-.02-.04-.06-.08-.09-.09-.03-.01-.06-.01-.08.01-.02.02-.03.06-.03.11,0,.05.02.1.04.14.04.07.06.15.06.22s-.02.13-.06.16c-.09.06-.14.19-.14.37s.05.37.14.54c.04.07.06.15.06.22s-.02.13-.06.16c-.09.06-.14.19-.14.37s.05.37.14.54c.04.07.06.15.06.22s-.02.13-.06.16c-.09.06-.14.19-.14.37s.05.37.14.54c.02.04.05.07.08.09,0,0,0,0,.01,0,.03.01.06,0,.08-.01.04-.05.04-.16-.01-.25-.04-.07-.06-.15-.06-.22s.02-.13.06-.16c.09-.06.14-.19.14-.37s-.05-.37-.14-.54c-.04-.07-.06-.15-.06-.22s.02-.13.06-.16c.09-.06.14-.19.14-.37"/><path class="cls-6" d="m70.63,81.69c0-.18-.05-.37-.14-.54-.04-.07-.06-.15-.06-.22s.02-.13.06-.16c.09-.06.14-.19.14-.37s-.05-.37-.14-.54c-.02-.04-.06-.08-.09-.09-.03-.01-.06-.01-.08.01-.02.02-.03.06-.03.11,0,.05.02.1.04.14.04.07.06.15.06.22s-.02.13-.06.16c-.09.06-.14.19-.14.37s.05.37.14.54c.04.07.06.15.06.22s-.02.13-.06.16c-.09.06-.14.19-.14.37s.05.37.14.54c.04.07.06.15.06.22s-.02.13-.06.16c-.09.06-.14.19-.14.37s.05.37.14.54c.02.04.05.07.08.09,0,0,0,0,.01,0,.03.01.06,0,.08-.01.04-.05.04-.16-.01-.25-.04-.07-.06-.15-.06-.22s.02-.13.06-.16c.09-.06.14-.19.14-.37s-.05-.37-.14-.54c-.04-.07-.06-.15-.06-.22s.02-.13.06-.16c.09-.06.14-.19.14-.37"/><path class="cls-6" d="m69.49,81.03c0-.18-.05-.37-.14-.54-.04-.07-.06-.15-.06-.22s.02-.13.06-.16c.09-.06.14-.19.14-.37s-.05-.37-.14-.54c-.02-.04-.06-.08-.09-.09-.03-.01-.06-.01-.08.01-.02.02-.03.06-.03.11,0,.05.02.1.04.14.04.07.06.15.06.22s-.02.13-.06.16c-.09.06-.14.19-.14.37s.05.37.14.54c.04.07.06.15.06.22s-.02.13-.06.16c-.09.06-.14.19-.14.37s.05.37.14.54c.04.07.06.15.06.22s-.02.13-.06.16c-.09.06-.14.19-.14.37s.05.37.14.54c.02.04.05.07.08.09,0,0,0,0,.01,0,.03.01.06,0,.08-.01.04-.05.04-.16-.01-.25-.04-.07-.06-.15-.06-.22s.02-.13.06-.16c.09-.06.14-.19.14-.37s-.05-.37-.14-.54c-.04-.07-.06-.15-.06-.22s.02-.13.06-.16c.09-.06.14-.19.14-.37"/></g></g></g></svg>