<?xml version="1.0" encoding="UTF-8"?>
<svg id="Layer_1" data-name="Layer 1" xmlns="http://www.w3.org/2000/svg" width="960" height="960" viewBox="0 0 960 960">
  <defs>
    <style>
      .cls-1 {
        stroke-width: 40px;
      }

      .cls-1, .cls-2, .cls-3, .cls-4 {
        fill: none;
        stroke: #000;
        stroke-linecap: round;
        stroke-linejoin: round;
      }

      .cls-2 {
        stroke-width: 15.837px;
      }

      .cls-3 {
        stroke-width: 10px;
      }

      .cls-4 {
        stroke-width: 20px;
      }
    </style>
  </defs>
  <path class="cls-3" d="m193.311,678.382c-43.17,0-80.576-30.624-88.942-72.817-16.521-83.319-16.521-167.812-.002-251.13,8.366-42.193,45.771-72.817,88.942-72.817,1.159,0,2.34.022,3.51.067l658.634,25.228c43.451,1.664,79.714,33.954,86.227,76.778,9.723,63.95,9.716,128.799-.022,192.746-6.52,42.82-42.788,75.103-86.237,76.76l-658.611,25.118c-1.172.044-2.339.067-3.498.067Z"/>
  <path class="cls-4" d="m193.311,658.382c-33.654,0-62.809-23.849-69.324-56.707-16.009-80.739-16.009-162.613-.002-243.351,6.515-32.858,35.67-56.707,69.324-56.707.914,0,1.827.018,2.747.053l658.631,25.228c33.878,1.297,62.147,26.447,67.219,59.799,9.419,61.952,9.413,124.777-.021,186.729-5.078,33.35-33.351,58.493-67.228,59.785l-658.611,25.118c-.914.035-1.828.052-2.736.052Z"/>
  <path class="cls-2" d="m176.355,666.588c-44.896-10.789-86.477-22.318-92.972-23.984-25.696-6.59-46.281-27.321-51.66-54.447-14.297-72.104-14.298-144.209-.002-216.314,5.426-27.367,26.33-48.225,52.344-54.619,6.293-1.547,18.587-4.599,88.879-23.004"/>
  <path class="cls-1" d="m931.77,574.93c-5.82,38.2-38.12,66.8-76.73,68.27l-658.61,25.12c-6.87.26-13.6-.35-20.08-1.73-.06-.01-.12-.03-.18-.04-1.08-.26-2.15-.52-3.22-.78-43.57-10.55-83.23-21.54-89.57-23.17-25.69-6.59-46.28-27.32-51.66-54.44-14.29-72.11-14.29-144.21,0-216.32,5.43-27.36,26.33-48.22,52.35-54.62,6.27-1.54,18.52-4.59,88.36-22.86,7.67-2.05,15.74-3,24.01-2.68l658.63,25.23c38.62,1.47,70.91,30.08,76.72,68.28,9.62,63.25,9.61,126.5-.02,189.74Z"/>
</svg>