<svg width="960" height="960" viewBox="0 0 960 960" fill="none" xmlns="http://www.w3.org/2000/svg">
<g clip-path="url(#clip0_9337_22260)">
<mask id="mask0_9337_22260" style="mask-type:luminance" maskUnits="userSpaceOnUse" x="0" y="0" width="960" height="960">
<path d="M960 0H0V960H960V0Z" fill="white"/>
</mask>
<g mask="url(#mask0_9337_22260)">
<path d="M534.934 5.10078L535.333 5.13323L535.519 5.12788L535.713 5.12315C713.176 1.24294 850.021 89.1649 941.443 263.916C944.683 270.109 946.244 277.044 945.969 284.028L939.294 453.918L939.805 454.323C955.387 466.837 964.932 486.154 964.485 507.195L964.458 508.153L956.9 720.578C956.081 743.602 943.466 763.779 924.687 774.96L924.128 775.288L923.925 775.766C923.41 776.95 922.837 778.111 922.207 779.244L921.888 779.809C905.857 807.578 890.982 830.272 877.083 848.02C863.296 865.625 843.765 886.92 818.322 912.201C811.42 919.059 802.254 923.166 792.542 923.753L538.175 939.133L538.142 939.139C537.116 939.297 536.076 939.417 535.025 939.496L534.393 939.539L260.878 955.929C260.053 955.978 259.227 956 258.4 956H252.394C249.313 956 246.241 955.644 243.242 954.939L154.835 934.159C149.373 932.875 144.242 930.456 139.776 927.06C110.313 904.656 87.9081 886.231 72.3112 871.495C54.8131 854.962 35.6711 829.082 13.833 793.209C10.0179 786.942 8 779.746 8 772.409V324.721C8 318.273 9.55852 311.921 12.5428 306.206C100.186 138.359 221.396 41.031 374.499 18.1987L374.812 18.1312C376.397 17.7756 378.017 17.5138 379.666 17.3515L380.216 17.3012L381.89 17.1592L383.173 16.9895C397.163 15.1744 411.392 13.9787 425.929 13.3981L428.355 13.307L429.363 13.2742L485.866 8.64123L487.483 8.44672C499.024 7.09056 510.711 6.13435 522.541 5.57717L524.26 5.50023L528.736 5.13359C530.833 4.96192 532.903 4.95471 534.934 5.10078ZM887.292 758.604L149.726 788.458C148.546 788.811 147.295 789 146 789H137.999V792.131C158.143 821.212 175.404 842.973 189.782 857.415C204.13 871.825 227.906 891.301 261.11 915.843L445.557 904.791L532 899.531V899.433L789.968 883.836L790.128 883.826C814.494 859.615 832.982 839.459 845.591 823.358C858.2 807.257 872.085 786.074 887.245 759.811L887.292 758.604ZM371.166 59.2404L370.953 59.282C235.853 82.6456 128.202 171.125 48 324.721V772.409C68.1433 805.498 85.404 828.835 99.7822 842.42C114.16 856.005 135.562 873.605 163.987 895.22L217.536 907.806C199.537 893.61 185.585 881.545 175.609 871.525C160.259 856.107 142.318 833.489 121.559 803.519C119.243 800.175 117.999 796.204 117.999 792.137V789.006C117.999 778.625 125.903 770.089 136.024 769.097C136.485 769.011 136.959 768.958 137.442 768.938L138.999 768.875V507.359L120.649 475.361C118.992 472.47 118.084 469.213 117.999 465.887V307.064C117.999 303.534 118.934 300.067 120.708 297.015C188.511 180.347 272.145 100.874 371.166 59.2404ZM809.403 816.926C809.403 844.328 789.117 868.29 763.401 870.372C739.465 872.315 719.964 854.04 716.376 829.122C713.214 853.762 694.319 874.154 670.845 876.063C646.861 878.018 627.397 859.426 623.815 834.147C620.652 859.135 601.793 879.833 578.288 881.754C554.256 883.722 534.829 864.811 531.254 839.172C528.092 864.507 509.268 885.513 485.732 887.445C461.651 889.426 442.261 870.199 438.693 844.196C435.531 869.881 416.743 891.192 393.176 893.136C369.048 895.129 349.695 875.589 346.132 849.225C342.969 875.258 324.216 896.872 300.62 898.827C273.817 901.051 252.985 876.405 252.985 845.311C252.985 814.57 273.241 788.479 299.573 787.9C323.323 787.374 342.395 807.059 345.992 832.656C349.101 805.823 368.117 784.32 392.129 783.784C415.839 783.249 434.948 802.624 438.551 827.874C441.661 801.407 460.712 780.212 484.685 779.667C508.356 779.125 527.502 798.19 531.111 823.094C534.219 796.99 553.306 776.104 577.241 775.55C600.872 775 620.054 793.752 623.67 818.309C626.78 792.569 645.902 771.996 669.797 771.434C693.386 770.875 712.606 789.312 716.229 813.523C719.34 788.147 738.498 767.887 762.353 767.317C788.529 766.687 809.403 789.149 809.403 816.926ZM303.045 808.054L303.243 808.166C312.389 813.446 318.672 824.696 318.672 837.873C318.672 856.433 306.209 872.424 290.835 873.593C288.182 873.795 285.617 873.524 283.187 872.837C287.628 877.125 293.145 879.378 298.967 878.895C313.716 877.673 326.603 861.073 326.603 841.447C326.603 823.555 315.973 809.696 303.045 808.054ZM395.998 803.981L396.187 804.091C405.125 809.361 411.232 820.281 411.232 833.047C411.232 851.285 398.769 867.011 383.395 868.176C380.809 868.372 378.306 868.125 375.93 867.49C380.333 871.555 385.775 873.679 391.53 873.204C406.318 871.984 419.163 855.713 419.163 836.543C419.163 819.249 408.782 805.792 395.998 803.981ZM488.959 799.913L489.129 800.014C497.858 805.266 503.792 815.86 503.792 828.222C503.792 846.136 491.329 861.598 475.955 862.758C473.44 862.948 471.003 862.726 468.685 862.142C473.047 865.984 478.41 867.98 484.094 867.512C498.921 866.295 511.723 850.352 511.723 831.639C511.723 814.939 501.592 801.882 488.959 799.913ZM581.927 795.85L582.066 795.935C590.589 801.16 596.352 811.433 596.352 823.396C596.352 840.989 583.889 856.185 568.515 857.34C566.077 857.523 563.712 857.327 561.458 856.794C565.775 860.412 571.053 862.28 576.658 861.821C591.524 860.606 604.283 844.989 604.283 826.734C604.283 810.625 594.402 797.966 581.927 795.85ZM674.899 791.792L675.001 791.854C683.317 797.044 688.912 806.999 688.912 818.57C688.912 835.84 676.449 850.772 661.075 851.922C658.72 852.099 656.433 851.927 654.25 851.446C658.517 854.84 663.704 856.579 669.221 856.129C684.127 854.917 696.843 839.625 696.843 821.83C696.843 806.306 687.21 794.041 674.899 791.792ZM767.879 787.737L767.931 787.77C776.043 792.916 781.472 802.559 781.472 813.745C781.472 830.692 769.009 845.359 753.635 846.504C751.371 846.673 749.171 846.527 747.064 846.097C751.276 849.267 756.365 850.878 761.785 850.438C776.73 849.228 789.403 834.259 789.403 816.926C789.403 801.983 780.02 790.109 767.879 787.737ZM920.178 491.452L919.913 491.462L158.999 510.7V768.065L901.596 738.008C903.356 737.937 905.028 738.325 906.497 739.067C912.631 734.483 916.637 727.268 916.926 719.156L924.483 506.731C924.682 501.141 923.089 495.845 920.178 491.452ZM546.3 45.0006L541.474 45.0318C539.882 45.0502 538.286 45.0768 536.687 45.1114C536.654 45.1121 536.621 45.1129 536.588 45.1136L536.494 45.1156C534.892 45.151 533.286 45.1944 531.677 45.246L526.767 45.4276L526.745 45.4286L522.251 45.6401C522.096 45.6481 521.941 45.6562 521.786 45.6644C520.34 45.7404 518.897 45.823 517.457 45.912L521.786 45.6644C520.169 45.7495 518.555 45.8427 516.944 45.944L517.457 45.912C515.78 46.0157 514.107 46.1281 512.438 46.2493L516.944 45.944C515.369 46.0431 513.797 46.15 512.228 46.2646L512.438 46.2493C510.934 46.3584 509.434 46.4746 507.936 46.5979L512.228 46.2646C510.57 46.3856 508.916 46.5153 507.265 46.6537L507.936 46.5979C506.357 46.7279 504.78 46.8659 503.207 47.0118L507.265 46.6537C505.65 46.789 504.039 46.9327 502.43 47.0845L503.207 47.0118C501.593 47.1615 499.983 47.3194 498.376 47.4857L502.43 47.0845C500.862 47.2327 499.297 47.3886 497.735 47.5525L498.376 47.4857C496.753 47.6536 495.134 47.83 493.517 48.0149L497.735 47.5525C496.172 47.7165 494.612 47.8883 493.055 48.0681L493.517 48.0149C347.141 64.7605 228.635 151.11 137.999 307.064V465.411L152.59 490.855L898.552 471.995L906 282.458L905.103 280.761L903.424 277.581C903.276 277.305 903.129 277.028 902.981 276.753C902.886 276.575 902.792 276.399 902.697 276.223L902.981 276.753C901.409 273.816 899.825 270.908 898.227 268.027C897.68 267.042 897.132 266.059 896.582 265.079L898.227 268.027C897.363 266.469 896.495 264.919 895.623 263.377L896.582 265.079C895.9 263.865 895.216 262.655 894.529 261.451L895.623 263.377C894.725 261.789 893.822 260.209 892.916 258.638L894.529 261.451C893.682 259.964 892.831 258.485 891.976 257.014L892.916 258.638C892.025 257.094 891.13 255.557 890.232 254.029L891.976 257.014C891.046 255.412 890.111 253.82 889.172 252.236L890.232 254.029C889.341 252.516 888.448 251.012 887.55 249.515L889.172 252.236C888.318 250.795 887.461 249.362 886.6 247.936L887.55 249.515C886.637 247.993 885.72 246.48 884.8 244.976L886.6 247.936C885.659 246.379 884.714 244.831 883.765 243.291L884.8 244.976C883.903 243.51 883.003 242.053 882.098 240.603L883.765 243.291C882.673 241.52 881.576 239.76 880.473 238.012L882.098 240.603C881.174 239.122 880.246 237.649 879.314 236.184L880.473 238.012C879.657 236.72 878.838 235.434 878.017 234.155L879.314 236.184C878.385 234.724 877.452 233.272 876.515 231.829L878.017 234.155C876.991 232.558 875.961 230.971 874.925 229.394L876.515 231.829C875.575 230.381 874.631 228.942 873.684 227.511L874.925 229.394C874.089 228.121 873.25 226.853 872.408 225.593L873.684 227.511C872.743 226.09 871.797 224.677 870.849 223.273L872.408 225.593C871.436 224.138 870.459 222.692 869.479 221.255L870.849 223.273C869.903 221.873 868.954 220.482 868.001 219.099L869.479 221.255C868.528 219.861 867.574 218.476 866.615 217.099L868.001 219.099C867.028 217.687 866.051 216.284 865.07 214.889L866.615 217.099C865.688 215.766 864.756 214.44 863.822 213.122L865.07 214.889C864.107 213.52 863.14 212.16 862.169 210.807L863.822 213.122C862.83 211.725 861.835 210.337 860.835 208.957L862.169 210.807C861.198 209.454 860.222 208.108 859.243 206.771L860.835 208.957C859.73 207.432 858.621 205.918 857.507 204.414L859.243 206.771C858.283 205.46 857.319 204.158 856.352 202.863L857.507 204.414C856.592 203.181 855.675 201.955 854.754 200.736L856.352 202.863C855.33 201.495 854.304 200.136 853.273 198.786L854.754 200.736C853.833 199.517 852.909 198.304 851.981 197.099L853.273 198.786C852.28 197.484 851.282 196.19 850.281 194.904L851.981 197.099C850.944 195.753 849.903 194.415 848.858 193.086L850.281 194.904C849.273 193.611 848.262 192.325 847.246 191.048L848.858 193.086C847.867 191.826 846.872 190.575 845.874 189.331L847.246 191.048C846.236 189.778 845.222 188.516 844.204 187.262L845.874 189.331C844.827 188.027 843.776 186.732 842.721 185.445L844.204 187.262C843.182 186.004 842.156 184.753 841.126 183.512L842.721 185.445C841.723 184.228 840.721 183.019 839.715 181.817L841.126 183.512C840.087 182.257 839.043 181.012 837.995 179.775L839.715 181.817C838.646 180.54 837.573 179.272 836.496 178.013L837.995 179.775C836.968 178.562 835.936 177.357 834.901 176.16L836.496 178.013C835.449 176.79 834.399 175.575 833.344 174.369L834.901 176.16C833.86 174.956 832.815 173.76 831.766 172.573L833.344 174.369C832.305 173.18 831.262 171.999 830.215 170.827L831.766 172.573C830.711 171.379 829.653 170.194 828.59 169.017L830.215 170.827C829.159 169.645 828.1 168.471 827.037 167.305L828.59 169.017C827.533 167.846 826.472 166.684 825.408 165.529L827.037 167.305C825.969 166.135 824.897 164.972 823.821 163.818L825.408 165.529C824.332 164.363 823.253 163.206 822.17 162.057L823.821 163.818C822.781 162.702 821.737 161.594 820.689 160.494L822.17 162.057C821.077 160.898 819.981 159.748 818.88 158.606L820.689 160.494C819.621 159.373 818.549 158.26 817.474 157.154L818.88 158.606C817.807 157.493 816.731 156.389 815.65 155.292L817.474 157.154C816.357 156.007 815.236 154.868 814.111 153.738L815.65 155.292C814.564 154.19 813.475 153.097 812.382 152.012L814.111 153.738C813.012 152.635 811.91 151.54 810.803 150.453L812.382 152.012C811.273 150.911 810.161 149.82 809.044 148.736L810.803 150.453C809.721 149.391 808.636 148.336 807.546 147.29L809.044 148.736C807.935 147.66 806.821 146.591 805.704 145.531L807.546 147.29C806.421 146.209 805.291 145.136 804.157 144.072L805.704 145.531C804.603 144.487 803.497 143.45 802.388 142.421L804.157 144.072C803.001 142.987 801.841 141.91 800.676 140.843L802.388 142.421C801.286 141.399 800.18 140.385 799.07 139.379L800.676 140.843C799.506 139.77 798.331 138.706 797.152 137.651L799.07 139.379C797.933 138.348 796.792 137.325 795.647 136.311L797.152 137.651C796.071 136.684 794.987 135.724 793.9 134.773L795.647 136.311C794.49 135.286 793.328 134.269 792.162 133.262L793.9 134.773C792.776 133.79 791.649 132.814 790.518 131.847L792.162 133.262C791.017 132.271 789.868 131.289 788.715 130.316L790.518 131.847C789.365 130.862 788.209 129.885 787.048 128.916L788.715 130.316C787.563 129.343 786.407 128.378 785.247 127.422L787.048 128.916C785.893 127.952 784.734 126.996 783.572 126.049L785.247 127.422C784.071 126.452 782.892 125.492 781.708 124.54L783.572 126.049C782.412 125.103 781.248 124.166 780.08 123.237L781.708 124.54C780.554 123.611 779.395 122.69 778.233 121.777L780.08 123.237C778.895 122.294 777.706 121.36 776.513 120.435L778.233 121.777C777.045 120.845 775.854 119.921 774.658 119.005L776.513 120.435C775.347 119.53 774.178 118.634 773.005 117.746L774.658 119.005C773.468 118.094 772.274 117.191 771.076 116.297L773.005 117.746C771.81 116.842 770.611 115.946 769.409 115.058L771.076 116.297C769.896 115.415 768.711 114.541 767.523 113.676L769.409 115.058C768.202 114.168 766.992 113.286 765.778 112.413L767.523 113.676C766.309 112.792 765.092 111.917 763.871 111.051L765.778 112.413C764.59 111.559 763.399 110.713 762.204 109.875L763.871 111.051C762.67 110.199 761.465 109.355 760.256 108.519L762.204 109.875C760.975 109.014 759.742 108.16 758.505 107.316L760.256 108.519C759.039 107.678 757.819 106.845 756.595 106.021L758.505 107.316C757.29 106.487 756.071 105.666 754.849 104.853L756.595 106.021C755.368 105.195 754.137 104.377 752.902 103.568L754.849 104.853C753.617 104.034 752.382 103.224 751.143 102.422L752.902 103.568C751.689 102.773 750.472 101.985 749.251 101.206L751.143 102.422C749.895 101.615 748.643 100.816 747.388 100.025L749.251 101.206C747.991 100.402 746.727 99.6068 745.458 98.82L747.388 100.025C746.159 99.252 744.926 98.4868 743.69 97.7297L745.458 98.82C744.232 98.059 743.002 97.3061 741.768 96.5613L743.69 97.7297C742.411 96.9465 741.128 96.172 739.841 95.4063L741.768 96.5613C740.518 95.8067 739.264 95.0603 738.006 94.3223L739.841 95.4063C738.597 94.6663 737.349 93.9344 736.098 93.2107L738.006 94.3223C736.718 93.5666 735.426 92.8196 734.13 92.0813L736.098 93.2107C734.853 92.4906 733.604 91.7785 732.351 91.0746L734.13 92.0813C732.864 91.3602 731.594 90.6473 730.321 89.9428L732.351 91.0746C731.044 90.3402 729.734 89.6147 728.419 88.898L730.321 89.9428C729.073 89.2526 727.822 88.5703 726.567 87.8961L728.419 88.898C727.13 88.1956 725.838 87.5016 724.541 86.8161L726.567 87.8961C725.279 87.2039 723.987 86.5202 722.691 85.8448L724.541 86.8161C723.262 86.1394 721.978 85.4709 720.691 84.8106L722.691 85.8448C721.363 85.1528 720.031 84.4695 718.694 83.7951L720.691 84.8106C719.416 84.1569 718.138 83.5111 716.855 82.8735L718.694 83.7951C717.407 83.1454 716.117 82.5039 714.822 81.8705L716.855 82.8735C715.518 82.2081 714.176 81.5515 712.829 80.9036L714.822 81.8705C713.521 81.234 712.216 80.6057 710.907 79.9857L712.829 80.9036C711.539 80.2827 710.246 79.6699 708.948 79.0651L710.907 79.9857C709.566 79.3506 708.222 78.7241 706.873 78.1063L708.948 79.0651C707.624 78.4478 706.295 77.8388 704.963 77.2383L706.873 78.1063C705.545 77.4981 704.213 76.8982 702.878 76.3068L704.963 77.2383C703.644 76.644 702.322 76.0579 700.996 75.48L702.878 76.3068C701.538 75.7135 700.194 75.1286 698.847 74.5521L700.996 75.48C699.656 74.896 698.312 74.3204 696.964 73.7532L698.847 74.5521C697.504 73.9778 696.158 73.4119 694.807 72.8543L696.964 73.7532C695.62 73.1879 694.273 72.6309 692.922 72.0823L694.807 72.8543C693.449 72.2935 692.086 71.7411 690.72 71.1972L692.922 72.0823C691.575 71.5353 690.224 70.9967 688.869 70.4664L690.72 71.1972C689.377 70.6624 688.03 70.1359 686.679 69.6175L688.869 70.4664C687.499 69.9299 686.124 69.4018 684.746 68.8823L686.679 69.6175C685.292 69.0854 683.902 68.562 682.507 68.0471L684.746 68.8823C683.396 68.3734 682.042 67.8726 680.685 67.38L682.507 68.0471C681.138 67.5418 679.765 67.0448 678.389 66.5561L680.685 67.38C679.299 66.8771 677.909 66.3827 676.515 65.8968L678.389 66.5561C677.014 66.068 675.635 65.5881 674.252 65.1165L676.515 65.8968C675.123 65.4113 673.726 64.9343 672.326 64.4658L674.252 65.1165C672.907 64.6578 671.558 64.2069 670.205 63.7638L672.326 64.4658C670.918 63.9947 669.506 63.5322 668.09 63.0782L670.205 63.7638C668.827 63.3122 667.444 62.8688 666.058 62.4334L668.09 63.0782C666.677 62.6249 665.259 62.1801 663.837 61.7439L666.058 62.4334C664.675 61.9993 663.289 61.5732 661.899 61.1553L663.837 61.7439C662.446 61.3169 661.05 60.8981 659.651 60.4874L661.899 61.1553C660.474 60.7267 659.044 60.3068 657.611 59.8953L659.651 60.4874C658.23 60.0704 656.806 59.6618 655.377 59.2616L657.611 59.8953C656.182 59.4851 654.75 59.0834 653.313 58.6902L655.377 59.2616C653.974 58.8687 652.568 58.484 651.158 58.1073L653.313 58.6902C651.846 58.2887 650.375 57.896 648.9 57.5122L651.158 58.1073C649.722 57.7239 648.283 57.3489 646.84 56.9823L648.9 57.5122C647.47 57.1401 646.036 56.7763 644.598 56.4208L646.84 56.9823C645.417 56.6209 643.99 56.2676 642.559 55.9226L644.598 56.4208C643.07 56.0428 641.537 55.6742 639.999 55.315L642.559 55.9226C641.135 55.5791 639.707 55.2437 638.276 54.9165L639.999 55.315C638.553 54.977 637.103 54.6474 635.649 54.3261L638.276 54.9165C636.805 54.5803 635.331 54.2527 633.853 53.9337L635.649 54.3261C634.243 54.0154 632.833 53.7124 631.42 53.4172L633.853 53.9337C632.374 53.6146 630.892 53.304 629.405 53.002L631.42 53.4172C630.015 53.1238 628.607 52.8381 627.195 52.56L629.405 53.002C627.927 52.7016 626.444 52.4098 624.958 52.1263L627.195 52.56C625.703 52.2662 624.207 51.9809 622.707 51.7042L624.958 52.1263C623.498 51.8478 622.033 51.5774 620.565 51.3152L622.707 51.7042C621.208 51.4276 619.705 51.1595 618.197 50.9001L620.565 51.3152C619.064 51.0471 617.558 50.7875 616.049 50.5364L618.197 50.9001C616.746 50.6502 615.291 50.4083 613.832 50.1743L616.049 50.5364C614.57 50.2903 613.087 50.0525 611.6 49.8229L613.832 50.1743C612.302 49.929 610.769 49.6924 609.231 49.4645L611.6 49.8229C610.091 49.5898 608.577 49.3651 607.06 49.1489L609.231 49.4645C607.699 49.2375 606.164 49.0192 604.624 48.8095L607.06 49.1489C605.57 48.9365 604.076 48.7323 602.578 48.5362L604.624 48.8095C603.007 48.5894 601.386 48.3788 599.761 48.1777L602.578 48.5362C601.075 48.3394 599.568 48.1509 598.057 47.9705L599.761 48.1777C598.347 48.0029 596.931 47.8352 595.51 47.6748L598.057 47.9705C596.49 47.7835 594.919 47.6054 593.345 47.436L595.51 47.6748C594.107 47.5163 592.7 47.3649 591.29 47.2205L593.345 47.436C591.826 47.2728 590.304 47.1177 588.778 46.9709L591.29 47.2205C589.734 47.061 588.173 46.9102 586.608 46.7679L588.778 46.9709C587.225 46.8214 585.669 46.6805 584.108 46.5481L586.608 46.7679C585.082 46.6291 583.552 46.4985 582.019 46.3761L584.108 46.5481C582.576 46.4181 581.041 46.2963 579.501 46.1827L582.019 46.3761C580.301 46.239 578.579 46.1122 576.852 45.9956L579.501 46.1827C577.961 46.069 576.416 45.9635 574.868 45.8662L576.852 45.9956C575.32 45.8922 573.785 45.7968 572.246 45.7096L574.868 45.8662C573.29 45.7671 571.708 45.6764 570.122 45.5943L572.246 45.7096C570.624 45.6175 568.997 45.5344 567.366 45.4603L570.122 45.5943C568.566 45.5137 567.006 45.4413 565.443 45.3771L567.366 45.4603C565.86 45.3919 564.351 45.3311 562.838 45.2779L565.443 45.3771C563.847 45.3116 562.248 45.2547 560.644 45.2062L562.838 45.2779C561.198 45.2203 559.554 45.1717 557.906 45.132L560.644 45.2062C559.073 45.1588 557.498 45.1196 555.92 45.0885L557.906 45.132C556.379 45.0952 554.848 45.0661 553.314 45.0447L555.92 45.0885C554.309 45.0568 552.694 45.0337 551.075 45.019L553.314 45.0447C551.706 45.0223 550.095 45.0084 548.479 45.0029L551.075 45.019C549.487 45.0047 547.896 44.9986 546.3 45.0006ZM616.741 176.995C638.502 176.995 657.654 190.824 666.267 211.412L666.32 211.541L875.538 321.092C880.345 323.609 882.253 329.486 879.889 334.331L879.758 334.59C877.196 339.482 871.153 341.372 866.26 338.81L653.673 227.494C651.393 226.3 649.661 224.273 648.837 221.835C643.796 206.91 631.001 196.995 616.741 196.995C598.008 196.995 582.446 213.995 582.446 235.385C582.446 256.774 598.008 273.774 616.741 273.774C620.049 273.774 623.284 273.252 626.387 272.234C628.893 271.412 631.622 271.612 633.98 272.792L846.362 379.052C851.301 381.523 853.301 387.53 850.83 392.469C848.359 397.408 842.352 399.409 837.413 396.938L628.48 292.404L627.968 292.524C624.566 293.293 621.083 293.712 617.556 293.768L616.741 293.774C586.548 293.774 562.446 267.445 562.446 235.385C562.446 203.324 586.548 176.995 616.741 176.995Z" fill="black"/>
<path d="M614 350.5C678.893 350.5 731.5 297.893 731.5 233C731.5 168.107 678.893 115.5 614 115.5C549.107 115.5 496.5 168.107 496.5 233C496.5 297.893 549.107 350.5 614 350.5Z" stroke="#00AEEF" stroke-width="21"/>
</g>
</g>
<defs>
<clipPath id="clip0_9337_22260">
<rect width="960" height="960" fill="white"/>
</clipPath>
</defs>
</svg>
