<?xml version="1.0" encoding="UTF-8"?>
<svg id="Layer_1" data-name="Layer 1" xmlns="http://www.w3.org/2000/svg" width="960" height="960" viewBox="0 0 960 960">
  <defs>
    <style>
      .cls-1 {
        stroke-width: 40px;
      }

      .cls-1, .cls-2, .cls-3 {
        fill: none;
        stroke: #000;
        stroke-linecap: round;
        stroke-linejoin: round;
      }

      .cls-2 {
        stroke-width: 10px;
      }

      .cls-3 {
        stroke-width: 20px;
      }
    </style>
  </defs>
  <path class="cls-3" d="m916.765,129.658v700.741c0,20.864-16.037,38.224-36.835,39.875l-705.305,55.976c-.99.08-1.99.12-2.98.12-20.33,0-36.86-16.56-36.86-36.92V70.55c0-20.36,16.53-36.92,36.86-36.92.99,0,1.99.04,2.99.12l705.298,56.034c20.797,1.652,36.832,19.011,36.832,39.874Z"/>
  <polygon class="cls-3" points="856.765 206.51 856.765 753.55 309.215 783.16 309.215 176.92 856.765 206.51"/>
  <polyline class="cls-3" points="309.213 176.918 241.525 199.805 241.525 764.045 309.213 783.156"/>
  <path class="cls-3" d="m150.818,28.532l-84.681,50.463c-14.202,8.463-22.902,23.776-22.902,40.309v722.856c0,16.782,8.963,32.287,23.506,40.662l84.077,48.418"/>
  <path class="cls-2" d="m241.525,292.478h0c14.337-3.159,27.918,7.756,27.918,22.437v330.23c0,14.533-13.324,25.415-27.565,22.512l-.353-.072"/>
  <line class="cls-2" x1="269.443" y1="328.127" x2="241.525" y2="332.951"/>
  <line class="cls-2" x1="267.707" y1="365.976" x2="241.525" y2="369.379"/>
  <line class="cls-2" x1="267.707" y1="403.58" x2="241.525" y2="405.861"/>
  <line class="cls-2" x1="269.443" y1="441.321" x2="241.525" y2="442.55"/>
  <line class="cls-2" x1="269.443" y1="479.886" x2="241.525" y2="479.886"/>
  <line class="cls-2" x1="269.443" y1="518.74" x2="241.525" y2="517.511"/>
  <line class="cls-2" x1="269.443" y1="556.633" x2="241.525" y2="554.201"/>
  <line class="cls-2" x1="269.443" y1="594.312" x2="241.525" y2="590.684"/>
  <line class="cls-2" x1="269.443" y1="631.936" x2="241.525" y2="627.113"/>
  <path d="m450.272,696.622l-36.049.997,8.176-14.147,9.115-.258c.892-.023,1.408-1.021.915-1.771l-5.983-8.904c-.469-.703-1.513-.668-1.936.059l-2.1,3.637-.023-.012-12.423,21.514-6.147.164c-3.672.094-6.03-3.859-4.188-7.038l21.878-37.879c1.736-3.015,6.029-3.156,7.965-.27l24.564,36.6c2.064,3.074-.07,7.202-3.766,7.308Z"/>
  <path d="m793.62,645.745l-21.55,34.078c-1.76,2.78-5.76,2.933-7.719.305l-24.81-33.233c-2.287-3.062-.141-7.426,3.684-7.496l34.829-.633-7.32,12.657-9.103.247c-.903.035-1.419,1.032-.927,1.783l5.983,8.904c.469.704,1.513.668,1.935-.059l2.1-3.648.035.023,11.531-19.989,7.273-.129c3.73-.07,6.053,4.035,4.059,7.191Z"/>
  <path d="m624.111,659.857l-21.526,32.518c-.528.798-1.232,1.372-2.018,1.701v-24.799l6.276-9.467c.352-.528.328-1.22-.058-1.713l-6.675-8.622c-.599-.786-1.795-.763-2.358.047l-6.663,9.42c-.363.505-.363,1.185-.012,1.689l5.725,8.188v25.28c-.763-.329-1.455-.868-1.983-1.619l-20.963-29.984c-1.126-1.619-1.126-3.777.012-5.396l21.244-30.031c1.818-2.569,5.619-2.651,7.543-.164l21.256,27.485c1.232,1.595,1.314,3.789.2,5.466Z"/>
  <path class="cls-1" d="m916.765,119.628v720.801c0,20.864-16.037,38.224-36.835,39.875l-704.515,55.916c-11.71.93-22.69-2.51-31.41-8.9l-77.26-44.5c-14.55-8.37-23.51-23.88-23.51-40.66V119.3c0-16.53,8.7-31.84,22.9-40.31l78.61-46.85,6.07-3.61c7.35-3.67,15.77-5.45,24.61-4.75l704.508,55.974c20.797,1.652,36.832,19.012,36.832,39.874Z"/>
  <path class="cls-1" d="m150.815,28.53l-6.07,3.61c1.92-1.35,3.95-2.56,6.07-3.61Z"/>
  <line class="cls-1" x1="150.815" y1="931.24" x2="144.005" y2="927.32"/>
</svg>