<?xml version="1.0" encoding="UTF-8"?><svg id="Layer_1" xmlns="http://www.w3.org/2000/svg" viewBox="0 0 141.73 141.73"><defs><style>.cls-1{fill:#00aeef;}.cls-2{stroke:#000;stroke-linecap:round;stroke-linejoin:round;stroke-width:.33px;}.cls-2,.cls-3{fill:none;}.cls-3{stroke:#00aeef;stroke-miterlimit:10;stroke-width:2px;}</style></defs><path class="cls-2" d="m36.59,26.96s.03.09.09.13"/><path class="cls-2" d="m36.59,85.31s.03.09.09.13"/><line class="cls-2" x1="36.67" y1="85.45" x2="36.67" y2="27.1"/><path class="cls-2" d="m39.8,90.8c0,.06.02.11.07.14"/><path class="cls-2" d="m36.7,85.42c0,1.99,1.39,4.4,3.11,5.39"/><path class="cls-2" d="m90.26,119.86c0,.06.02.11.07.14"/><line class="cls-2" x1="90.25" y1="119.88" x2="39.79" y2="90.82"/><path class="cls-2" d="m93.34,118.09c.12.07.3.07.42,0"/><path class="cls-2" d="m90.27,119.87c1.72.99,3.11.18,3.11-1.81"/><path class="cls-2" d="m92.8,120.2c.62-.36.97-1.13.97-2.15"/><path class="cls-2" d="m93.34,59.73c.12.07.3.07.42,0"/><line class="cls-2" x1="93.33" y1="59.75" x2="93.33" y2="118.06"/><line class="cls-2" x1="93.73" y1="118.06" x2="93.73" y2="59.75"/><path class="cls-2" d="m90.47,54c-.12.07-.21.23-.21.36"/><path class="cls-2" d="m93.39,59.7c0-1.99-1.39-4.4-3.11-5.39"/><path class="cls-2" d="m93.78,59.7c0-2.11-1.48-4.68-3.31-5.73"/><path class="cls-2" d="m40.01,24.94c-.12.07-.21.23-.21.36"/><line class="cls-2" x1="39.79" y1="25.28" x2="90.25" y2="54.38"/><line class="cls-2" x1="90.45" y1="54.02" x2="39.99" y2="24.96"/><path class="cls-2" d="m39.81,25.25c-1.72-.99-3.11-.18-3.11,1.81"/><path class="cls-2" d="m40.01,24.91c-.88-.5-1.71-.59-2.33-.23"/><path class="cls-2" d="m96.24,118.23c.62-.36.97-1.13.97-2.15"/><line class="cls-2" x1="97.16" y1="116.09" x2="93.73" y2="118.06"/><path class="cls-2" d="m82.85,104.19c.36.21.65.04.65-.38"/><line class="cls-2" x1="82.83" y1="104.21" x2="82.55" y2="104.05"/><line class="cls-2" x1="46.54" y1="41.39" x2="46.54" y2="41.35"/><path class="cls-2" d="m47.23,40.97c-.36-.21-.65-.04-.65.38"/><line class="cls-2" x1="47.22" y1="40.99" x2="82.83" y2="61.48"/><path class="cls-2" d="m83.5,62.59c0-.42-.29-.93-.66-1.14"/><line class="cls-2" x1="83.5" y1="62.63" x2="83.5" y2="103.81"/><line class="cls-2" x1="83.5" y1="103.81" x2="82.83" y2="104.21"/><line class="cls-2" x1="47.22" y1="40.99" x2="46.54" y2="41.35"/><line class="cls-2" x1="100.16" y1="55.29" x2="100.16" y2="113.64"/><line class="cls-2" x1="100.16" y1="55.29" x2="97.12" y2="57.02"/><line class="cls-2" x1="100.16" y1="113.64" x2="97.16" y2="115.34"/><path class="cls-2" d="m100.17,55.29c0-1.68-1.18-3.73-2.64-4.57"/><line class="cls-2" x1="97.52" y1="50.71" x2="94.48" y2="52.44"/><line class="cls-2" x1="47.02" y1="21.65" x2="97.52" y2="50.71"/><line class="cls-2" x1="47.02" y1="21.65" x2="44.06" y2="23.34"/><path class="cls-2" d="m47.03,21.62c-.7-.4-1.37-.47-1.86-.18"/><path class="cls-2" d="m99.4,115.32c.5-.29.77-.9.77-1.71"/><line class="cls-2" x1="43.43" y1="22.99" x2="39.99" y2="24.96"/><path class="cls-2" d="m43.45,22.93c-.88-.5-1.71-.59-2.33-.23"/><line class="cls-2" x1="93.88" y1="52.05" x2="90.45" y2="54.02"/><line class="cls-2" x1="43.43" y1="22.99" x2="93.88" y2="52.05"/><line class="cls-2" x1="97.16" y1="57.77" x2="93.73" y2="59.75"/><path class="cls-2" d="m97.21,57.72c0-2.11-1.48-4.68-3.31-5.73"/><line class="cls-2" x1="97.16" y1="57.77" x2="97.16" y2="116.09"/><polyline class="cls-2" points="37.66 24.73 37.54 24.81 37.42 24.88 37.31 25 37.19 25.12 37.11 25.24 37.03 25.36 36.95 25.48 36.87 25.63 36.79 25.79 36.75 25.95 36.71 26.11 36.67 26.27 36.63 26.42 36.63 26.62 36.59 26.78 36.59 26.98 36.59 85.33 36.59 85.53 36.59 85.73 36.63 85.92 36.67 86.12 36.71 86.32 36.75 86.52 36.79 86.71 36.83 86.91 36.91 87.11 36.99 87.35 37.07 87.54 37.15 87.74 37.23 87.94 37.35 88.14 37.42 88.33 37.54 88.53 37.66 88.73 37.78 88.93 37.9 89.08 38.02 89.28 38.17 89.44 38.29 89.64 38.45 89.79 38.61 89.95 38.73 90.11 38.88 90.23 39.04 90.39 39.2 90.5 39.36 90.62 39.52 90.74 39.67 90.86 39.83 90.94 90.29 120 90.49 120.12 90.65 120.2 90.81 120.24 90.96 120.31 91.12 120.35 91.28 120.39 91.44 120.43 91.59 120.47 91.75 120.47 91.91 120.47 92.07 120.47 92.23 120.43 92.38 120.39 92.5 120.35 92.66 120.28 92.78 120.24 96.21 118.26"/><line class="cls-2" x1="45.16" y1="21.49" x2="42.95" y2="22.75"/><line class="cls-2" x1="99.37" y1="115.34" x2="97.16" y2="116.64"/><line class="cls-2" x1="41.1" y1="22.75" x2="37.66" y2="24.73"/><line class="cls-2" x1="81.68" y1="41.59" x2="86.38" y2="39.89"/><path class="cls-2" d="m86.38,39.87c-.07-.04-.14-.05-.21-.03"/><path class="cls-2" d="m86.75,39.89c-.09-.05-.21-.06-.34,0"/><line class="cls-2" x1="104.47" y1="58.56" x2="100.16" y2="56.08"/><path class="cls-2" d="m104.83,58.57c-.09-.05-.21-.06-.34,0"/><line class="cls-2" x1="104.47" y1="58.56" x2="100.16" y2="60.14"/><line class="cls-2" x1="98.5" y1="46.88" x2="86.38" y2="39.89"/><path class="cls-2" d="m98.87,46.88c-.09-.05-.21-.06-.34,0"/><line class="cls-2" x1="98.5" y1="46.88" x2="93.81" y2="48.57"/><path class="cls-2" d="m104.72,59.13c.03-.22-.09-.48-.26-.58"/><line class="cls-2" x1="100.16" y1="60.85" x2="104.74" y2="59.16"/><path class="cls-2" d="m105,59.36c.09-.05.13-.11.13-.18"/><path class="cls-2" d="m105,59.38c0-.18-.11-.27-.26-.21"/><path class="cls-2" d="m105,63.3c.09-.05.13-.11.13-.18"/><line class="cls-2" x1="104.98" y1="59.39" x2="104.98" y2="63.34"/><path class="cls-2" d="m104.69,64.03s.06-.09.04-.17"/><path class="cls-2" d="m104.74,63.85c.15-.12.26-.34.26-.52"/><line class="cls-2" x1="104.74" y1="63.85" x2="100.16" y2="67.49"/><line class="cls-2" x1="94.56" y1="49.01" x2="98.78" y2="47.47"/><path class="cls-2" d="m98.8,47.44c.03-.22-.09-.48-.26-.58"/><path class="cls-2" d="m99.08,47.67c.09-.05.13-.11.13-.18"/><path class="cls-2" d="m99.08,47.66c0-.18-.11-.27-.26-.21"/><path class="cls-2" d="m99.08,51.62c.09-.05.13-.11.13-.18"/><line class="cls-2" x1="99.06" y1="47.71" x2="99.06" y2="51.65"/><path class="cls-2" d="m98.95,51.97c.08-.12.13-.25.13-.37"/><polyline class="cls-2" points="81.57 41.55 86.15 39.85 86.23 39.85 86.3 39.81 86.34 39.81 86.42 39.81 86.5 39.81 86.58 39.81 86.66 39.85 86.74 39.89"/><line class="cls-2" x1="104.82" y1="58.56" x2="100.16" y2="55.88"/><line class="cls-2" x1="98.86" y1="46.88" x2="86.74" y2="39.89"/><polyline class="cls-2" points="104.82 58.56 104.86 58.6 104.9 58.64 104.94 58.68 104.98 58.72 104.98 58.76 105.02 58.8 105.06 58.84 105.06 58.88 105.1 58.96 105.14 59.04 105.14 59.12 105.14 59.19 105.14 63.14 105.14 63.22 105.14 63.26 105.1 63.34 105.1 63.42 105.1 63.46 105.06 63.54 105.02 63.58 105.02 63.66 104.98 63.7 104.94 63.77 104.9 63.81 104.86 63.85 104.82 63.89 104.78 63.97 104.74 64.01 104.7 64.05 100.16 67.6"/><polyline class="cls-2" points="98.86 46.88 98.9 46.92 98.94 46.95 98.98 46.95 99.02 46.99 99.06 47.03 99.1 47.07 99.1 47.11 99.14 47.19 99.18 47.27 99.18 47.35 99.18 47.43 99.21 47.51 99.21 51.46 99.18 51.54 99.18 51.61 99.18 51.69 99.14 51.77 99.1 51.85 99.06 51.93 99.02 52.01 98.98 52.09"/><path class="cls-2" d="m38.62,88.17c-.09.04-.23.12-.31.18"/><line class="cls-2" x1="38.25" y1="88.37" x2="75.88" y2="110.05"/><path class="cls-2" d="m75.83,109.77c0,.07.03.15.07.23"/><line class="cls-2" x1="75.8" y1="109.61" x2="38.61" y2="88.18"/><path class="cls-2" d="m38.48,44.04c-.27-.15-.5-.02-.51.29"/><line class="cls-2" x1="37.94" y1="87.98" x2="37.94" y2="44.31"/><path class="cls-2" d="m37.97,88c0,.31.21.69.49.85"/><line class="cls-2" x1="75.72" y1="110.33" x2="38.45" y2="88.85"/><path class="cls-2" d="m75.73,110.28c.27.15.5.02.51-.29"/><line class="cls-2" x1="76.2" y1="66.34" x2="76.2" y2="110.05"/><path class="cls-2" d="m76.24,66.32c0-.31-.21-.69-.49-.85"/><line class="cls-2" x1="38.45" y1="44.03" x2="75.72" y2="65.51"/><line class="cls-2" x1="75.88" y1="110.05" x2="75.88" y2="65.99"/><polyline class="cls-2" points="75.88 65.99 38.25 44.31 38.25 88.37"/><line class="cls-2" x1="38.61" y1="88.18" x2="38.73" y2="88.1"/><line class="cls-2" x1="38.73" y1="88.14" x2="75.8" y2="109.46"/><path class="cls-2" d="m38.62,43.75c-.09.05-.16.17-.15.27"/><path class="cls-2" d="m38.63,43.73c-.17-.1-.34-.12-.46-.05"/><path class="cls-2" d="m37.9,44.21s.02.07.06.1"/><path class="cls-2" d="m76.22,66.34c.08.05.22.05.31,0"/><path class="cls-2" d="m76.55,66.35c0-.42-.29-.93-.66-1.14"/><path class="cls-2" d="m75.89,65.19c-.09.05-.16.17-.15.27"/><path class="cls-2" d="m76.22,110.01c.08.05.22.05.31,0"/><line class="cls-2" x1="76.55" y1="110.05" x2="76.55" y2="66.34"/><path class="cls-2" d="m75.74,110.27s.02.09.05.1"/><path class="cls-2" d="m38.47,88.83s.02.09.05.1"/><path class="cls-2" d="m37.9,87.88s.02.07.06.1"/><path class="cls-2" d="m76.36,110.44c.12-.07.19-.22.19-.43"/><line class="cls-2" x1="75.88" y1="65.2" x2="38.61" y2="43.76"/><line class="cls-2" x1="82.55" y1="62.87" x2="76.55" y2="66.34"/><path class="cls-2" d="m82.6,62.87c0-.42-.29-.93-.66-1.14"/><line class="cls-2" x1="81.92" y1="61.72" x2="75.88" y2="65.2"/><line class="cls-2" x1="82.55" y1="106.57" x2="76.55" y2="110.05"/><polyline class="cls-2" points="82.51 101.44 82.55 101.4 82.55 106.57"/><path class="cls-2" d="m80.59,100.3c.05,1.18.89,1.66,1.93,1.12"/><polyline class="cls-2" points="80.58 100.34 80.58 99.74 80.58 97.53 80.58 96.15 80.58 93.94 80.58 92.56 80.58 90.35 80.58 88.96 80.58 86.75 80.58 85.37 80.58 83.12 80.58 81.78 80.58 79.53 80.58 78.19 80.58 75.94 80.58 74.55 80.58 72.34 80.58 70.96"/><path class="cls-2" d="m82.58,67.52c-1.08.63-1.96,2.15-1.97,3.41"/><line class="cls-2" x1="82.55" y1="62.87" x2="82.55" y2="67.53"/><path class="cls-2" d="m82.4,106.96c.12-.07.19-.22.19-.43"/><line class="cls-2" x1="44.65" y1="40.28" x2="38.61" y2="43.76"/><path class="cls-2" d="m44.67,40.26c-.17-.1-.34-.12-.46-.05"/><line class="cls-2" x1="38.61" y1="88.18" x2="38.61" y2="44.59"/><path class="cls-2" d="m75.89,65.93s-.06.05-.06.05"/><path class="cls-2" d="m38.32,44.3c.04.08.1.14.16.18"/><line class="cls-2" x1="81.41" y1="100.73" x2="82.55" y2="101.4"/><line class="cls-2" x1="82.51" y1="101.44" x2="80.93" y2="100.53"/><line class="cls-2" x1="80.97" y1="100.49" x2="81.41" y2="100.73"/><line class="cls-2" x1="44.65" y1="40.28" x2="81.92" y2="61.72"/><polyline class="cls-2" points="81.21 68.95 81.41 69.07 81.41 68.67"/><line class="cls-2" x1="81.61" y1="68.95" x2="80.62" y2="70.68"/><line class="cls-2" x1="81.41" y1="69.07" x2="81.61" y2="68.95"/><line class="cls-2" x1="80.58" y1="70.96" x2="81.76" y2="68.95"/><path class="cls-2" d="m81.77,68.92s-.06-.03-.15.01"/><line class="cls-2" x1="82.51" y1="62.51" x2="83.34" y2="62.04"/><line class="cls-2" x1="81.76" y1="68.95" x2="81.76" y2="70.33"/><path class="cls-2" d="m81.76,70.34s.01-.03.01-.04"/><polyline class="cls-2" points="81.61 72.54 81.41 72.7 81.41 70.96"/><path class="cls-2" d="m81.77,72.51s-.06-.03-.15.01"/><line class="cls-2" x1="81.76" y1="72.54" x2="81.76" y2="73.92"/><path class="cls-2" d="m81.76,73.93s.01-.03.01-.04"/><polyline class="cls-2" points="81.61 76.17 81.41 76.29 81.41 74.55"/><path class="cls-2" d="m81.77,76.14s-.06-.03-.15.01"/><line class="cls-2" x1="81.76" y1="76.13" x2="81.76" y2="77.51"/><path class="cls-2" d="m81.76,77.52s.01-.03.01-.04"/><polyline class="cls-2" points="81.61 79.77 81.41 79.88 81.41 78.15"/><path class="cls-2" d="m81.77,79.74s-.06-.03-.15.01"/><line class="cls-2" x1="81.76" y1="79.77" x2="81.76" y2="81.11"/><path class="cls-2" d="m81.76,81.12s.01-.03.01-.04"/><polyline class="cls-2" points="81.61 83.36 81.41 83.48 81.41 81.74"/><path class="cls-2" d="m81.77,83.33s-.06-.03-.15.01"/><line class="cls-2" x1="81.76" y1="83.36" x2="81.76" y2="84.7"/><path class="cls-2" d="m81.76,84.75s.01-.03.01-.04"/><polyline class="cls-2" points="81.61 86.95 81.41 87.07 81.41 85.37"/><path class="cls-2" d="m81.77,86.92s-.06-.03-.15.01"/><line class="cls-2" x1="81.76" y1="86.95" x2="81.76" y2="88.33"/><path class="cls-2" d="m81.76,88.34s.01-.03.01-.04"/><polyline class="cls-2" points="81.61 90.54 81.41 90.66 81.41 88.96"/><path class="cls-2" d="m81.77,90.52s-.06-.03-.15.01"/><line class="cls-2" x1="81.76" y1="90.54" x2="81.76" y2="91.93"/><path class="cls-2" d="m81.76,91.94s.01-.03.01-.04"/><polyline class="cls-2" points="81.61 94.14 81.41 94.26 81.41 92.56"/><path class="cls-2" d="m81.77,94.11s-.06-.03-.15.01"/><line class="cls-2" x1="81.76" y1="94.14" x2="81.76" y2="95.52"/><path class="cls-2" d="m81.76,95.53s.01-.03.01-.04"/><polyline class="cls-2" points="81.61 97.77 81.41 97.89 81.41 96.15"/><path class="cls-2" d="m81.77,97.7s-.06-.03-.15.01"/><line class="cls-2" x1="81.76" y1="97.73" x2="81.76" y2="99.11"/><path class="cls-2" d="m81.76,99.12s.01-.03.01-.04"/><line class="cls-2" x1="81.41" y1="100.73" x2="81.41" y2="99.74"/><line class="cls-2" x1="82.55" y1="103.69" x2="83.5" y2="103.14"/><line class="cls-2" x1="81.76" y1="70.33" x2="80.58" y2="72.34"/><line class="cls-2" x1="80.66" y1="72.26" x2="81.41" y2="72.7"/><line class="cls-2" x1="81.61" y1="76.17" x2="80.58" y2="77.91"/><line class="cls-2" x1="80.58" y1="78.19" x2="81.76" y2="76.13"/><line class="cls-2" x1="80.66" y1="75.86" x2="81.41" y2="76.29"/><line class="cls-2" x1="81.76" y1="77.51" x2="80.58" y2="79.53"/><line class="cls-2" x1="80.66" y1="79.45" x2="81.41" y2="79.88"/><line class="cls-2" x1="81.61" y1="72.54" x2="80.58" y2="74.32"/><line class="cls-2" x1="80.58" y1="74.55" x2="81.76" y2="72.54"/><line class="cls-2" x1="81.76" y1="73.92" x2="80.58" y2="75.94"/><line class="cls-2" x1="81.61" y1="83.36" x2="80.58" y2="85.14"/><line class="cls-2" x1="80.58" y1="85.37" x2="81.76" y2="83.36"/><line class="cls-2" x1="80.66" y1="83.04" x2="81.41" y2="83.48"/><line class="cls-2" x1="81.76" y1="84.7" x2="80.58" y2="86.75"/><line class="cls-2" x1="80.66" y1="86.64" x2="81.41" y2="87.07"/><line class="cls-2" x1="81.61" y1="79.77" x2="80.58" y2="81.5"/><line class="cls-2" x1="80.58" y1="81.78" x2="81.76" y2="79.77"/><line class="cls-2" x1="81.76" y1="81.11" x2="80.58" y2="83.12"/><line class="cls-2" x1="81.61" y1="86.95" x2="80.58" y2="88.73"/><line class="cls-2" x1="80.58" y1="88.96" x2="81.76" y2="86.95"/><line class="cls-2" x1="81.76" y1="88.33" x2="80.58" y2="90.35"/><line class="cls-2" x1="80.66" y1="90.23" x2="81.41" y2="90.66"/><line class="cls-2" x1="81.61" y1="90.54" x2="80.58" y2="92.32"/><line class="cls-2" x1="80.58" y1="92.56" x2="81.76" y2="90.54"/><line class="cls-2" x1="81.76" y1="91.93" x2="80.58" y2="93.94"/><line class="cls-2" x1="80.66" y1="93.86" x2="81.41" y2="94.26"/><line class="cls-2" x1="81.61" y1="97.77" x2="80.58" y2="99.51"/><line class="cls-2" x1="80.58" y1="99.74" x2="81.76" y2="97.73"/><line class="cls-2" x1="80.66" y1="97.45" x2="81.41" y2="97.89"/><line class="cls-2" x1="81.76" y1="99.11" x2="80.7" y2="100.93"/><line class="cls-2" x1="81.61" y1="94.14" x2="80.58" y2="95.91"/><line class="cls-2" x1="80.58" y1="96.15" x2="81.76" y2="94.14"/><line class="cls-2" x1="81.76" y1="95.52" x2="80.58" y2="97.53"/><line class="cls-2" x1="82.16" y1="61.96" x2="82.91" y2="61.52"/><line class="cls-2" x1="46.78" y1="41.51" x2="47.45" y2="41.11"/><line class="cls-2" x1="38.73" y1="88.14" x2="38.73" y2="44.66"/><polyline class="cls-2" points="57.13 89.08 57.13 88.02 57.6 87.62 56.93 86.4 56.3 86.87 56.77 87.82 56.77 88.89 55.39 86.56 56.93 85.25 58.51 88.33 57.13 89.08"/><polyline class="cls-2" points="46.27 82.17 48.04 80.91 50.41 84.58 47.45 82.88 48.12 82.49 48.6 82.77 48.2 82.09 47.18 82.69 46.27 82.17"/><polyline class="cls-2" points="65.22 91.53 65.61 92.24 66.68 91.61 67.59 92.16 65.77 93.43 63.4 89.75 66.37 91.45 65.73 91.85 65.22 91.53"/><polyline class="cls-2" points="38.13 43.72 38.06 43.76 38.02 43.8 37.98 43.88 37.94 43.91 37.9 43.99 37.9 44.07 37.86 44.15 37.86 44.23"/><polyline class="cls-2" points="82.4 106.97 76.35 110.44 76.28 110.48 76.2 110.52 76.12 110.52 76.04 110.52 75.96 110.52 75.88 110.48 75.84 110.44 75.76 110.44 38.49 88.96 38.41 88.93 38.37 88.89 38.29 88.81 38.25 88.77 38.17 88.69 38.13 88.65 38.1 88.57 38.06 88.49 38.02 88.45 37.98 88.37 37.94 88.29 37.94 88.21 37.9 88.14 37.9 88.06 37.86 87.98 37.86 87.9 37.86 44.23"/><line class="cls-2" x1="44.18" y1="40.24" x2="38.13" y2="43.72"/><polyline class="cls-2" points="38.45 44.51 75.8 66.03 75.8 109.81"/><line class="cls-2" x1="81.76" y1="70.37" x2="80.58" y2="72.34"/><line class="cls-2" x1="81.76" y1="77.55" x2="80.58" y2="79.57"/><line class="cls-2" x1="81.76" y1="73.96" x2="80.58" y2="75.98"/><line class="cls-2" x1="81.76" y1="84.74" x2="80.58" y2="86.75"/><line class="cls-2" x1="81.76" y1="81.15" x2="80.58" y2="83.16"/><line class="cls-2" x1="81.76" y1="88.37" x2="80.58" y2="90.35"/><line class="cls-2" x1="81.76" y1="91.97" x2="80.58" y2="93.94"/><line class="cls-2" x1="81.76" y1="99.15" x2="80.7" y2="100.97"/><line class="cls-2" x1="81.76" y1="95.56" x2="80.58" y2="97.53"/><line class="cls-2" x1="82.55" y1="103.85" x2="83.5" y2="103.3"/><line class="cls-2" x1="46.66" y1="41.43" x2="47.33" y2="41.03"/><polyline class="cls-2" points="57.13 88.02 57.13 89.08 58.51 88.33 56.93 85.25 55.39 86.56 56.77 88.89 56.77 87.82 56.3 86.87 56.93 86.4 57.6 87.62 57.13 88.02"/><polyline class="cls-2" points="65.61 92.24 65.22 91.53 65.73 91.85 66.37 91.45 63.4 89.75 65.77 93.43 67.59 92.16 66.68 91.61 65.61 92.24"/><polyline class="cls-2" points="48.04 80.91 46.27 82.17 47.18 82.69 48.2 82.09 48.6 82.77 48.12 82.49 47.45 82.88 50.41 84.58 48.04 80.91"/><path class="cls-1" d="m55.01,73.97c.06-.02.15.16.09.17-.07.02-.16-.16-.09-.17Z"/><path class="cls-1" d="m48.02,64.22c1.05.54,2.1,1.21,3.16,1.86.21.13.29.45.42.67.04.08.06.21,0,.22-.22.06-.46.18-.77-.05-.96-.53-1.93-1.13-2.9-1.72-.27-.15-.39-.56-.53-.83.13-.19.38-.23.62-.16Z"/><path class="cls-1" d="m46.76,65.03c.02-.42.37-.44.65-.51.14.26.28.51.43.77-.12.95-.32,1.83-.51,2.74,0,.47-.42.4-.72.43-.13-.35-.42-.77-.28-1.03.13-.81.28-1.6.42-2.4Z"/><path class="cls-1" d="m54.9,73.62c.18-.22.48-.33.85-.05.98.56,1.97,1.14,2.95,1.77.19.19.29.51.42.75-.11.17-.32.19-.52.18-1.12-.53-2.26-1.32-3.38-1.96.11.74-.09,1.29-.18,1.9-.09.45-.12.97-.28,1.37-.15.14-.38.14-.57.2-.15-.28-.29-.55-.45-.82.17-.89.3-1.82.48-2.71.03-.46.5-.35.69-.62m.11.35c-.06.02.02.19.09.17.06-.02-.02-.19-.09-.17Z"/><path class="cls-1" d="m63.81,78.43c1.05.55,2.1,1.21,3.16,1.86.23.16.33.53.48.79-.1.19-.34.21-.56.18-1.05-.54-2.1-1.22-3.16-1.86-.27-.15-.39-.56-.53-.83.12-.18.37-.21.62-.14Z"/><path class="cls-1" d="m46,69.33c.02-.42.36-.45.65-.51.13.26.25.52.38.78-.11.82-.26,1.59-.39,2.39-.06.22-.06.49-.18.66-.16.09-.36.13-.55.17-.15-.28-.29-.55-.45-.82.2-.87.34-1.79.54-2.66Z"/><path class="cls-1" d="m62.54,79.24c.02-.42.37-.44.65-.51.14.26.28.51.43.77-.12.95-.32,1.83-.51,2.74,0,.47-.42.4-.72.43-.13-.35-.42-.77-.28-1.03.14-.8.28-1.59.42-2.39Z"/><path class="cls-1" d="m58.45,76.47c.19-.14.46-.13.72-.1.14.36.39.75.32,1.07-.14.81-.31,1.61-.48,2.41,0,.42-.35.39-.6.47-.18-.28-.34-.57-.51-.85.2-.99.32-2.04.55-3Z"/><path class="cls-1" d="m66.78,81.46c.15-.13.38-.13.57-.17.15.23.29.47.43.7-.09.97-.29,1.86-.45,2.78-.01.39-.31.49-.61.48-.23-.19-.33-.54-.51-.8.22-.97.32-2.04.56-2.99Z"/><path class="cls-1" d="m45.82,72.88c.29,0,.55-.13.9.09,1,.54,2.01,1.2,3.01,1.79.11.28.37.58.38.84-.19.09-.43.19-.73-.05-1.08-.61-2.16-1.3-3.24-1.93-.11-.25-.22-.49-.32-.74Z"/><path class="cls-1" d="m54.09,77.84c.29,0,.55-.13.9.1.77.41,1.54.89,2.31,1.36.24.2.56.25.76.58.13.19.25.4.33.61-.06.21-.3.18-.49.17-1.17-.61-2.34-1.39-3.51-2.07-.11-.25-.21-.49-.32-.74Z"/><circle class="cls-3" cx="56.39" cy="77.04" r="19.98"/></svg>