<?xml version="1.0" encoding="utf-8"?>
<!-- Generator: Adobe Illustrator 24.2.1, SVG Export Plug-In . SVG Version: 6.00 Build 0)  -->
<svg version="1.1" id="Layer_1" xmlns="http://www.w3.org/2000/svg" xmlns:xlink="http://www.w3.org/1999/xlink" x="0px" y="0px"
	 viewBox="0 0 512 385.74" style="enable-background:new 0 0 512 385.74;" xml:space="preserve">
<g>
	<g>
		<path d="M384,308.94v-128c0-70.58-57.42-128-128-128s-128,57.42-128,128v128c-14.14,0-25.6,11.46-25.6,25.6v25.6
			c0,14.14,11.46,25.6,25.6,25.6h256c14.14,0,25.6-11.46,25.6-25.6v-25.6C409.6,320.4,398.14,308.94,384,308.94z M153.6,180.94
			c0-56.56,45.85-102.4,102.4-102.4s102.4,45.84,102.4,102.4v128H153.6V180.94z M384,360.14H128v-25.6h256V360.14z"/>
	</g>
</g>
<g>
	<g>
		<path d="M129.35,54.29L111.26,36.2C74.17,73.27,51.2,124.47,51.2,180.94c0,38.5,10.88,74.42,29.43,105.22l21.92-13.15
			c-16.24-26.96-25.75-58.38-25.75-92.07C76.8,131.53,96.9,86.73,129.35,54.29z"/>
	</g>
</g>
<g>
	<g>
		<path d="M400.75,36.19l-18.09,18.09c32.44,32.45,52.54,77.25,52.54,126.66c0,33.69-9.52,65.12-25.74,92.08l21.92,13.15
			c18.54-30.81,29.42-66.73,29.42-105.23C460.8,124.47,437.83,73.27,400.75,36.19z"/>
	</g>
</g>
<g>
	<g>
		<path d="M436.93,0l-18.1,18.1c41.73,41.72,67.57,99.32,67.57,162.84c0,43.31-12.24,83.73-33.11,118.37l21.92,13.16
			c23.19-38.5,36.79-83.4,36.79-131.53C512,110.35,483.29,46.35,436.93,0z"/>
	</g>
</g>
<g>
	<g>
		<path d="M93.16,18.1L75.07,0C28.71,46.35,0,110.35,0,180.94c0,48.13,13.59,93.03,36.78,131.53l21.92-13.16
			c-20.86-34.65-33.1-75.07-33.1-118.38C25.6,117.42,51.44,59.82,93.16,18.1z"/>
	</g>
</g>
</svg>
