<?xml version="1.0" encoding="utf-8"?>
<!-- Generator: Adobe Illustrator 24.2.1, SVG Export Plug-In . SVG Version: 6.00 Build 0)  -->
<svg version="1.1" id="Layer_1" xmlns="http://www.w3.org/2000/svg" xmlns:xlink="http://www.w3.org/1999/xlink" x="0px" y="0px"
	 viewBox="0 0 799.86 566.49" style="enable-background:new 0 0 799.86 566.49;" xml:space="preserve">
<g>
	<path d="M507.14,498.79L297.21,98.56c-17.29-32.98-64.5-32.98-81.86,0L5.36,498.79c-16.16,30.79,6.18,67.69,40.89,67.69h209.93l0,0
		h209.93C500.95,566.42,523.29,529.52,507.14,498.79z M233.57,239.06c0-12.97,10.51-23.54,23.54-23.54l0,0
		c12.97,0,23.54,10.51,23.54,23.54v134.92c0,12.97-10.51,23.54-23.54,23.54l0,0c-12.97,0-23.54-10.51-23.54-23.54V239.06z
		 M256.25,498c-18.75,0-33.91-15.16-33.91-33.91s15.16-33.91,33.91-33.91s33.91,15.16,33.91,33.91S275,498,256.25,498z"/>
</g>
<g>
	<path d="M582.69,418c38.66,0,70-31.34,70-70V134h-269v66.04L498.01,418H582.69z M551.66,180.44l-27.59,79.59h52.71l-91.43,111.52
		l27.38-79.59H459.6L551.66,180.44z"/>
	<path d="M463.85,15c0-8.28-6.72-15-15-15h-13c-8.28,0-15,6.72-15,15v106h43V15z"/>
	<path d="M615.53,15c0-8.28-6.72-15-15-15h-13c-8.28,0-15,6.72-15,15v106h43V15z"/>
	<path d="M754.53,453.56c-28.61,0-51.88,23.27-51.88,51.88c0,11.03-8.97,20-20,20H558.19c-0.96,0-2.31,0-3.84-0.03l1.67,3.19
		c6.36,12.09,7.73,24.98,5.21,36.84h121.42c33.08,0,60-26.92,60-60c0-6.55,5.33-11.88,11.88-11.88h45.33v-40H754.53z"/>
	<polygon points="538.19,429.63 504.11,429.63 538.19,494.61 	"/>
</g>
</svg>
