<?xml version="1.0" encoding="utf-8"?>
<!-- Generator: Adobe Illustrator 24.2.1, SVG Export Plug-In . SVG Version: 6.00 Build 0)  -->
<svg version="1.1" id="Layer_1" xmlns="http://www.w3.org/2000/svg" xmlns:xlink="http://www.w3.org/1999/xlink" x="0px" y="0px"
	 viewBox="0 0 417.67 566.94" style="enable-background:new 0 0 417.67 566.94;" xml:space="preserve">
<style type="text/css">
	.st0{stroke:#000000;stroke-width:3;stroke-miterlimit:10;}
	.st1{fill:none;stroke:#000000;stroke-width:40;stroke-miterlimit:10;}
</style>
<path class="st0" d="M1.5,135.5v214c0,38.66,31.34,70,70,70h129c38.66,0,70-31.34,70-70v-214H1.5z M103.16,373.06l27.38-79.59H77.41
	l92.06-111.52l-27.59,79.59h52.71L103.16,373.06z"/>
<g>
	<path class="st0" d="M81.66,122.5h-43v-106c0-8.28,6.72-15,15-15h13c8.28,0,15,6.72,15,15V122.5z"/>
	<path class="st0" d="M233.34,122.5h-43v-106c0-8.28,6.72-15,15-15h13c8.28,0,15,6.72,15,15V122.5z"/>
</g>
<path class="st1" d="M417.67,475.06h-45.32c-17.61,0-31.88,14.27-31.88,31.88v0c0,22.09-17.91,40-40,40H176c-22.09,0-40-1.91-40-40
	v-75.81"/>
</svg>
