<?xml version="1.0" encoding="UTF-8"?>
<svg width="64px" height="64px" viewBox="0 0 64 64" version="1.1" xmlns="http://www.w3.org/2000/svg" xmlns:xlink="http://www.w3.org/1999/xlink">
    <title>alarm_smoke</title>
    <g id="alarm_smoke" stroke="none" stroke-width="1" fill="none" fill-rule="evenodd">
        <path d="M30,11 C37.4711169,11 43.8962558,15.9986434 45.8755243,22.9880617 L45.914,23.129 L46.1965994,23.1713362 C52.7937867,24.2108506 57.8449456,29.851744 57.9964966,36.6838391 L58,37 C58,44.0799798 52.7247209,49.9926067 45.8080046,50.8841837 L45.595,50.909 L45.5733708,50.9165767 C45.4371151,50.9572851 45.2947832,50.9838565 45.1480872,50.9945979 L45,51 L19,51 C18.7973158,51 18.6017445,50.9698711 18.4174873,50.9138696 L18.403,50.908 L18.1931163,50.8843284 C11.3823094,50.0069614 6.16272357,44.2611468 6.00373296,37.3259447 L6,37 C6,31.6398769 9.04052634,26.8470016 13.6898744,24.4993311 L13.781,24.454 L13.8137951,24.2811482 C15.2987962,16.7635338 21.8558432,11.161962 29.6599183,11.0034513 L30,11 Z M30,15 C23.6313963,15 18.2991815,19.7884099 17.581494,26.0618296 C17.4975455,26.7956366 17.0160051,27.4234445 16.3290347,27.6947225 C12.5411722,29.1905128 10,32.8581416 10,37 C10,42.2124077 14.0047928,46.5402664 19.1648842,46.9657345 C19.2172502,46.9700522 19.2690026,46.9763595 19.32007,46.9845779 L19.401,47 L44.601,47 L44.6834857,46.9840914 L44.8359516,46.9656655 C49.9956706,46.5397958 54,42.2120969 54,37 C54,31.5662741 49.6603872,27.129999 44.2388869,27.0026712 C43.2842309,26.9802504 42.4785932,26.2860749 42.315303,25.3452205 C41.2839808,19.4028929 36.1014673,15 30,15 Z" id="Combined-Shape" fill="#000000"></path>
        <g id="Group" transform="translate(28.9995, 29.9998)"></g>
    </g>
</svg>