<?xml version="1.0" standalone="no"?>
<!DOCTYPE svg PUBLIC "-//W3C//DTD SVG 20010904//EN"
 "http://www.w3.org/TR/2001/REC-SVG-20010904/DTD/svg10.dtd">
<svg version="1.0" xmlns="http://www.w3.org/2000/svg"
 width="791.000000pt" height="611.000000pt" viewBox="0 0 791.000000 611.000000"
 preserveAspectRatio="xMidYMid meet">

<g transform="translate(0.000000,611.000000) scale(0.100000,-0.100000)"
fill="#000000" stroke="none">
<path d="M4090 4944 l0 -531 108 -6 c209 -11 415 -67 627 -171 164 -81 280
-163 418 -296 255 -245 418 -543 489 -893 20 -96 23 -142 23 -322 -1 -230 -13
-315 -75 -507 -44 -137 -157 -357 -240 -468 -181 -242 -436 -446 -691 -556
-170 -72 -423 -134 -551 -134 -25 0 -60 -3 -77 -6 l-31 -6 1 -507 0 -506 28
90 c89 290 220 508 361 601 105 70 242 82 377 35 148 -51 346 -183 518 -343
62 -58 77 -68 72 -48 -94 352 -102 634 -23 806 31 67 116 159 176 189 100 51
153 60 335 59 169 0 328 -20 472 -58 l53 -14 -87 94 c-365 395 -445 698 -245
925 91 103 322 229 571 312 l135 45 -45 12 c-282 74 -560 218 -663 343 -46 56
-84 140 -97 214 -19 109 33 270 144 441 44 67 166 222 252 318 l45 51 -77 -22
c-198 -57 -483 -81 -622 -51 -147 31 -268 112 -321 215 -76 150 -80 433 -11
751 12 52 21 98 21 103 0 5 -46 -35 -103 -89 -221 -212 -464 -345 -632 -344
-117 1 -206 40 -296 129 -111 112 -210 297 -298 556 l-40 120 -1 -531z"/>
<path d="M3495 5413 c-44 -23 -65 -44 -86 -85 -18 -34 -19 -63 -19 -369 0
-284 -2 -330 -14 -326 -8 3 -90 57 -183 119 -167 111 -168 112 -235 116 -59 4
-73 1 -112 -22 -63 -37 -101 -115 -93 -188 4 -28 17 -67 29 -86 16 -23 117
-98 313 -231 l290 -196 3 -497 c1 -274 -1 -498 -5 -498 -3 0 -199 111 -435
247 -402 232 -428 248 -432 277 -3 17 -15 173 -26 346 -24 356 -30 378 -100
429 -104 75 -251 34 -296 -84 -15 -41 -16 -62 -4 -255 7 -116 11 -212 8 -215
-2 -3 -126 65 -274 151 -154 89 -288 160 -314 166 -155 36 -284 -137 -210
-282 26 -51 42 -62 335 -230 138 -79 254 -146 259 -151 4 -4 -82 -53 -193
-109 -192 -96 -202 -103 -228 -148 -48 -81 -34 -180 34 -244 37 -35 73 -48
137 -48 47 0 83 15 360 150 169 83 312 150 316 150 5 0 200 -111 435 -246 341
-197 424 -249 413 -259 -25 -23 -835 -485 -850 -485 -8 0 -149 66 -314 147
-252 123 -308 147 -354 150 -71 5 -133 -25 -175 -85 -26 -38 -30 -52 -29 -108
0 -54 5 -71 30 -107 25 -37 53 -54 228 -143 l199 -101 -84 -49 c-46 -27 -174
-101 -283 -164 -174 -100 -203 -121 -228 -160 -26 -40 -29 -52 -26 -111 3 -49
10 -75 27 -101 46 -66 125 -99 203 -84 18 3 157 78 308 165 151 87 277 157
279 155 2 -2 -2 -99 -9 -217 -15 -245 -11 -265 51 -322 49 -44 76 -55 135 -55
82 0 162 60 184 138 6 20 21 187 33 369 13 183 25 334 28 336 10 8 861 497
865 497 2 0 4 -224 4 -498 l0 -498 -282 -191 c-156 -105 -293 -201 -305 -215
-90 -97 -59 -253 62 -309 48 -22 104 -24 149 -5 18 8 108 64 199 125 92 61
169 111 172 111 3 0 5 -151 5 -335 0 -370 -1 -366 64 -422 111 -98 276 -48
316 96 14 51 14 4922 -1 4974 -13 47 -63 106 -106 123 -43 19 -131 17 -168 -3z"/>
<path d="M4090 2735 l0 -1335 70 0 c38 0 114 9 168 19 563 109 983 541 1077
1110 21 124 16 353 -9 471 -71 326 -255 616 -514 808 -202 150 -516 262 -734
262 l-58 0 0 -1335z"/>
</g>
</svg>
