<?xml version="1.0" encoding="UTF-8"?>
<svg id="Layer_1" data-name="Layer 1" xmlns="http://www.w3.org/2000/svg" width="960" height="960" viewBox="0 0 960 960">
  <defs>
    <style>
      .cls-1 {
        stroke-width: 40px;
      }

      .cls-1, .cls-2 {
        fill: none;
        stroke: #000;
        stroke-linecap: round;
        stroke-linejoin: round;
      }

      .cls-2 {
        stroke-width: 20px;
      }
    </style>
  </defs>
  <line class="cls-2" x1="144.733" y1="831.558" x2="49.243" y2="786.311"/>
  <path d="m311.925,301.604c-8.383,4.787-15.993,9.578-22.739,14.125-3.177,2.141-7.508.983-9.175-2.467l-26.654-55.159c-1.383-2.863-.406-6.298,2.264-8.023,7.573-4.892,15.465-9.651,23.646-14.219,3.161-1.765,7.16-.511,8.735,2.749l26.478,54.805c1.437,2.975.314,6.551-2.555,8.189Z"/>
  <path d="m391.035,271.237c-8.734,2.558-17.142,5.466-25.179,8.608-3.511,1.372-7.43-.602-8.384-4.249l-15.449-59.087c-.82-3.135.882-6.37,3.922-7.493,8.541-3.156,17.284-6.041,26.209-8.603,3.397-.976,6.937,1.029,7.831,4.449l15.366,58.765c.859,3.286-1.055,6.655-4.315,7.61Z"/>
  <path d="m483.224,260.079c.54,3.798-2.421,7.182-6.258,7.161-.442-.003-.884-.004-1.325-.004-8.559,0-16.961.459-25.177,1.307-3.36.347-6.391-2.011-6.866-5.355l-8.556-60.145c-.499-3.51,2.002-6.744,5.526-7.134,9.085-1.005,18.305-1.636,27.643-1.854,3.19-.074,5.939,2.24,6.388,5.4l8.625,60.625Z"/>
  <path d="m753.807,318.148l-34.74,51.397c-2.265,3.351-7.044,3.705-9.804.748-1.324-1.419-2.664-2.828-4.021-4.228-4.905-5.063-9.991-9.996-15.253-14.794-2.298-2.095-2.699-5.563-.958-8.139l34.312-50.757c2.117-3.132,6.506-3.698,9.351-1.208,7.042,6.162,13.821,12.501,20.325,18.995,2.139,2.136,2.481,5.481.788,7.986Z"/>
  <path d="m672.226,256.049l-22.71,57.535c-1.462,3.704-5.952,5.122-9.282,2.939-7.523-4.931-15.258-9.618-23.178-14.048-2.733-1.529-3.897-4.856-2.747-7.769l22.485-56.951c1.383-3.504,5.517-5.004,8.836-3.222,8.22,4.413,16.252,9.044,24.085,13.882,2.577,1.592,3.624,4.817,2.512,7.634Z"/>
  <path d="m577.983,213.441l-8.608,60.506c-.529,3.72-4.184,6.143-7.816,5.181-8.625-2.282-17.342-4.281-26.123-5.984-3.275-.635-5.469-3.737-4.999-7.04l8.557-60.193c.505-3.551,3.875-5.949,7.401-5.289,9.076,1.7,18.054,3.65,26.918,5.847,3.113.772,5.122,3.796,4.67,6.971Z"/>
  <path class="cls-2" d="m840.028,498.757v319.28l-70.436,87.885-510.689,33.077-114.17-107.442v-385.616s60.244-264.914,342.311-245.776c227.384,15.428,320.685,174.702,352.984,250.379v48.212Z"/>
  <path class="cls-2" d="m372.141,209.474c-115.96,32.679-125.446,49.058-170.538,70.809-46.253,22.312-78.641,53.744-101.253,85.599-33.635,47.385-51.108,104.352-51.108,162.461v257.968l77.008,85.013,132.652,67.676"/>
  <path class="cls-2" d="m798.158,498.757v304.573l-49.69,62-475.309,30.795-86.556-73.88v-392.228l56.19,1.486c7.62-17.376,19.187-39.222,35.861-60.523,19.365-24.735,42.122-44.236,67.631-57.949,31.999-17.209,69.703-25.928,112.065-25.928,7.39,0,15.041.262,22.745.785,78.36,5.318,144.358,32.115,196.141,79.648,28.074,25.771,48.548,54.305,63.172,79.846l57.749,1.612v49.763Z"/>
  <path class="cls-1" d="m840.03,450.54v367.5l-70.44,87.88-510.69,33.08-132.65-67.68-77.01-85.008v-257.972c0-58.11,17.479-115.07,51.11-162.46,22.61-31.85,55-63.29,101.25-85.6,34.12-16.46,47.85-29.84,102.75-49.53,13.42-4.82,29.3-10.01,48.53-15.71,6.16-2.01,12.49-3.84,19-5.5.09-.02.17-.05.26-.07,33.45-8.479,71.55-12.24,114.9-9.3,227.39,15.42,320.69,174.7,352.99,250.37Z"/>
  <path class="cls-1" d="m304.638,232.305s-28.436-129.582,130.34-189.048c229.645-86.008,475.779,83.527,475.779,400.353"/>
</svg>