<?xml version="1.0" encoding="UTF-8"?><svg id="Layer_1" xmlns="http://www.w3.org/2000/svg" viewBox="0 0 141.73 141.73"><defs><style>.cls-1{stroke-linejoin:bevel;}.cls-1,.cls-2{fill:none;stroke:#000;stroke-linecap:round;stroke-width:.33px;}.cls-2{stroke-linejoin:round;}</style></defs><polyline class="cls-2" points="93.54 67.59 93.58 67.57 93.61 67.55 93.65 67.52 93.67 67.48 93.7 67.46 93.72 67.43 93.74 67.41 93.76 67.39 93.79 67.34 93.79 67.32 93.81 67.3 93.81 67.28 93.81 67.25 93.81 67.23 93.81 67.21 93.81 67.19"/><path class="cls-2" d="m93.56,67.57c-4.36-11.81-13.93-21.56-22.55-22.99"/><path class="cls-2" d="m68.92,44.4c-1.57,0-3.03.33-4.32.96"/><line class="cls-2" x1="93.54" y1="72.71" x2="93.54" y2="67.59"/><path class="cls-2" d="m93.56,72.7c.18-.11.27-.26.27-.41"/><polyline class="cls-2" points="93.54 72.71 93.54 72.8 93.54 72.89 93.54 72.95 93.56 73.02 93.56 73.11 93.58 73.18 93.58 73.24 93.61 73.31 93.63 73.38 93.65 73.45 93.67 73.51 93.7 73.58 93.72 73.63 93.74 73.69 93.76 73.74 93.81 73.78 93.83 73.85 93.87 73.9 93.9 73.94 93.94 73.98 93.99 74.01 94.01 74.05 94.05 74.1 94.1 74.12 94.14 74.14 94.19 74.19 94.26 74.21 94.3 74.21 94.35 74.23 94.39 74.25 94.46 74.28 94.5 74.28"/><path class="cls-2" d="m94.51,74.27c.21-.53.04-1.14-.37-1.38"/><path class="cls-2" d="m93.93,72.81c.07.04.14.06.21.07"/><polyline class="cls-2" points="95.96 85.45 95.96 85.47 95.96 85.49 95.96 85.54 95.96 85.61 95.96 85.67 95.96 85.76 95.96 85.83 95.94 85.92 95.94 85.99 95.94 86.08 95.92 86.17 95.89 86.24 95.89 86.28 95.89 86.32 95.87 86.35 95.85 86.39 95.85 86.44 95.83 86.46 95.8 86.5 95.78 86.55 95.76 86.57 95.74 86.62 95.71 86.64 95.69 86.66"/><line class="cls-2" x1="95.96" y1="85.45" x2="95.96" y2="74.97"/><path class="cls-2" d="m95.96,74.95c0-.29-.12-.49-.32-.52"/><line class="cls-2" x1="94.5" y1="74.28" x2="95.62" y2="74.46"/><polyline class="cls-2" points="93.54 67.59 91.86 68.62 90.17 69.68 88.49 70.73 86.81 71.79"/><polyline class="cls-2" points="85.84 72.39 84.27 73.38 84.27 94.16 85.71 93.21 87.14 92.27 88.58 91.33 90.02 90.41 91.43 89.47 92.87 88.52 94.28 87.6 95.69 86.66 95.67 86.71 95.67 86.73 95.65 86.75 95.6 86.77"/><polyline class="cls-2" points="96.23 84.98 96.23 85 96.23 85.05 96.23 85.07 96.21 85.09 96.21 85.14 96.19 85.16 96.16 85.2 96.16 85.23 96.14 85.27 96.12 85.29 96.1 85.32 96.07 85.34 96.05 85.36 96.03 85.38 96.01 85.41 95.98 85.41 95.96 85.43 95.96 85.45"/><path class="cls-2" d="m96.25,74.56h0"/><path class="cls-2" d="m95.98,74.97c.18-.11.27-.26.27-.41"/><path class="cls-2" d="m95.5,73.15c-.07-.04-.15-.07-.24-.08"/><line class="cls-1" x1="95.49" y1="73.18" x2="95.49" y2="73.18"/><path class="cls-2" d="m95.63,74.43c.21-.53.04-1.14-.37-1.38"/><polyline class="cls-2" points="93.81 72.26 95.24 73.09 94.12 72.91 93.87 72.75"/><path class="cls-2" d="m55.05,50.1c-.47.19-.92.42-1.36.69"/><path class="cls-2" d="m84.29,73.34c-2.61-7.17-7.23-13.9-12.65-18.43-5.42-4.53-11.1-6.41-15.57-5.16"/><path class="cls-2" d="m80.65,97.59c1.46-.78,2.69-1.94,3.64-3.45"/><line class="cls-2" x1="64.24" y1="60.34" x2="64.24" y2="59.6"/><line class="cls-2" x1="65.16" y1="56.96" x2="65.2" y2="57"/><line class="cls-2" x1="55.42" y1="56.8" x2="55.67" y2="56.66"/><line class="cls-2" x1="59.34" y1="54.64" x2="60" y2="54.29"/><line class="cls-2" x1="55.17" y1="56.08" x2="55.42" y2="55.95"/><line class="cls-2" x1="54.72" y1="53.81" x2="54.45" y2="53.95"/><polyline class="cls-2" points="92.53 89.17 92.93 88.88 93.31 88.57 93.72 88.25 94.12 87.94 94.5 87.63 94.91 87.31 95.31 87 95.69 86.66"/><path class="cls-2" d="m90.39,91.2c.81-.54,1.54-1.22,2.17-2.02"/><polyline class="cls-2" points="92.53 89.17 92.57 89.17 92.6 89.15"/><polyline class="cls-2" points="64.57 45.38 64.82 45.27 65.07 45.15 65.31 45.06 65.56 44.95 65.83 44.88 66.08 44.79 66.35 44.73 66.61 44.66 66.86 44.59 67.13 44.53 67.4 44.48 67.69 44.46 67.96 44.41 68.23 44.39 68.52 44.37 68.79 44.35"/><polyline class="cls-2" points="70.79 44.46 70.99 44.48 71.19 44.5 71.39 44.55 71.62 44.57 71.82 44.62 72.02 44.66 72.22 44.71 72.43 44.75 72.65 44.79 72.85 44.86 73.05 44.91 73.26 44.97 73.48 45.04 73.68 45.11 73.88 45.18 74.11 45.24 74.31 45.31 74.51 45.4 74.74 45.47 74.94 45.56 75.14 45.65 75.36 45.74 75.57 45.83 75.77 45.92 75.99 46.01 76.19 46.12 76.42 46.23 76.62 46.32 76.82 46.43 77.05 46.54 77.25 46.66 77.45 46.77 77.68 46.9 77.88 47.02 78.1 47.15 78.3 47.26 78.51 47.4 78.73 47.53 78.93 47.67 79.13 47.8 79.34 47.94 79.56 48.09 79.76 48.23 79.96 48.38 80.17 48.54 80.39 48.68 80.59 48.83 80.79 48.99 81 49.15 81.2 49.33 81.4 49.48 81.6 49.64 81.8 49.82 82.01 49.98 82.21 50.16 82.41 50.34 82.61 50.52 82.81 50.7 83.02 50.88 83.22 51.05 83.42 51.26 83.6 51.44 83.8 51.64 84 51.82 84.18 52.02 84.38 52.22 84.59 52.4 84.77 52.6 84.97 52.8 85.15 53.01 85.35 53.23 85.53 53.43 85.71 53.63 85.89 53.86 86.09 54.06 86.27 54.29 86.45 54.51 86.63 54.71 86.81 54.94 86.99 55.16 87.17 55.38 87.35 55.61 87.53 55.83 87.68 56.06 87.86 56.3 88.04 56.53 88.2 56.75 88.38 57 88.53 57.22 88.71 57.47 88.87 57.7 89.03 57.94 89.19 58.19 89.34 58.44 89.52 58.66 89.68 58.91 89.81 59.15 89.97 59.4 90.13 59.65 90.28 59.89 90.44 60.14 90.58 60.41 90.73 60.66 90.87 60.9 91 61.15 91.16 61.42 91.29 61.67 91.43 61.94 91.56 62.18 91.7 62.45 91.83 62.7 91.97 62.97 92.1 63.22 92.21 63.48 92.35 63.73 92.46 64 92.6 64.27 92.71 64.54 92.82 64.79 92.93 65.06 93.07 65.32 93.18 65.59 93.27 65.84 93.38 66.11 93.49 66.38 93.61 66.65 93.7 66.92 93.81 67.19"/><polyline class="cls-2" points="93.81 67.25 93.81 72.3 93.81 72.37 93.81 72.44 93.83 72.5 93.83 72.55 93.83 72.59 93.85 72.64 93.85 72.68 93.87 72.73 93.87 72.75 93.9 72.77 93.9 72.8 93.9 72.82 93.92 72.82 93.92 72.84"/><polyline class="cls-2" points="96.23 85.05 96.21 85.09 96.21 85.14 96.21 85.2 96.21 85.25 96.19 85.36 96.16 85.47 96.14 85.58 96.12 85.7 96.1 85.81 96.07 85.92 96.05 85.99 96.03 86.03 96.01 86.1 95.98 86.15 95.96 86.21 95.94 86.26 95.92 86.32 95.89 86.37 95.87 86.41 95.85 86.48 95.83 86.53 95.78 86.57 95.76 86.62 95.71 86.66 95.67 86.71 95.65 86.73 95.62 86.75"/><polyline class="cls-2" points="96.23 84.98 96.23 74.57 96.23 74.48 96.23 74.39 96.21 74.3 96.21 74.21 96.19 74.12 96.16 74.03 96.12 73.94 96.1 73.83 96.07 73.78 96.05 73.74 96.01 73.69 95.98 73.65 95.96 73.6 95.92 73.56 95.89 73.51 95.85 73.47 95.83 73.42 95.78 73.38 95.74 73.33 95.69 73.31 95.65 73.27 95.6 73.22 95.54 73.2 95.49 73.15 93.81 72.19"/><line class="cls-2" x1="64.57" y1="45.38" x2="56" y2="49.62"/><line class="cls-2" x1="55.01" y1="50.09" x2="54.45" y2="50.38"/><line class="cls-2" x1="64.46" y1="57.88" x2="65.04" y2="58.21"/><line class="cls-2" x1="90.37" y1="91.19" x2="81.38" y2="97.16"/><polyline class="cls-2" points="92.6 89.15 93.36 88.57 94.12 87.96 94.86 87.36 95.6 86.77"/><polyline class="cls-2" points="92.62 89.13 92.48 89.29 92.35 89.44 92.24 89.58 92.1 89.71 91.97 89.87 91.83 90 91.7 90.14 91.56 90.25 91.41 90.39 91.27 90.52 91.14 90.63 90.98 90.74 90.82 90.88 90.67 90.99 90.53 91.08 90.37 91.19"/><line class="cls-2" x1="69.8" y1="97.36" x2="54.05" y2="88.3"/><path class="cls-2" d="m69.8,97.35c1.59.68,3.09.73,4.26.14"/><line class="cls-2" x1="47.34" y1="76.25" x2="47.34" y2="59.6"/><path class="cls-2" d="m47.37,76.23c.26,4.38,3.07,9.43,6.71,12.06"/><polyline class="cls-2" points="46.96 59.38 76.13 76.16 76.13 93.24"/><line class="cls-2" x1="69.42" y1="97.57" x2="69.8" y2="97.36"/><path class="cls-2" d="m69.44,97.56c3.63,1.54,6.43-.27,6.71-4.33"/><path class="cls-2" d="m55.06,51.21c-.32.03-.64.08-.95.14"/><line class="cls-2" x1="57.37" y1="49.66" x2="55.04" y2="51.21"/><line class="cls-2" x1="54.09" y1="51.35" x2="55.15" y2="50.65"/><line class="cls-2" x1="56.09" y1="50.02" x2="56.43" y2="49.82"/><polyline class="cls-2" points="56.43 49.82 56.54 50.07 56.9 49.87 56.94 49.96"/><path class="cls-2" d="m83.89,73.57c-2.45-6.71-6.66-13.05-11.66-17.56-5-4.51-10.36-6.8-14.84-6.35"/><line class="cls-2" x1="83.89" y1="94.38" x2="83.89" y2="73.58"/><path class="cls-2" d="m80.02,97.94c1.56-.77,2.88-1.98,3.88-3.58"/><path class="cls-2" d="m56.44,49.8c-.12.02-.24.05-.36.08"/><path class="cls-2" d="m55.06,50.18c-.7.25-1.36.58-1.97.99"/><line class="cls-2" x1="84.07" y1="73.31" x2="83.82" y2="73.45"/><path class="cls-2" d="m84.08,73.28c-4.63-12.63-15.07-22.86-24.06-23.6"/><path class="cls-2" d="m56.93,49.84c-.14.03-.28.06-.43.09"/><line class="cls-2" x1="84.07" y1="93.98" x2="84.07" y2="73.31"/><path class="cls-2" d="m83.9,94.22c.06-.09.12-.17.17-.26"/><line class="cls-2" x1="54.72" y1="53.7" x2="54.43" y2="53.88"/><line class="cls-2" x1="50.44" y1="55.03" x2="50.28" y2="55.14"/><path class="cls-2" d="m50.67,55.43c-.04.05-.08.11-.12.16"/><polyline class="cls-2" points="47.34 76.25 46.96 76.45 46.96 59.38"/><path class="cls-2" d="m46.99,76.44c.26,4.38,3.07,9.43,6.71,12.06"/><polyline class="cls-2" points="69.42 97.57 53.67 88.5 54.05 88.3"/><polyline class="cls-2" points="78.95 96.87 80.19 96.24 81.42 95.61 82.66 95.01 83.89 94.38"/><path class="cls-2" d="m75.17,100.33c1.53-.75,2.81-1.93,3.8-3.49"/><path class="cls-2" d="m48.92,53.93c-.12.07-.24.15-.35.22"/><line class="cls-2" x1="50.06" y1="53.19" x2="48.91" y2="53.95"/><path class="cls-2" d="m51.45,52.51c-.48.18-.94.41-1.38.67"/><line class="cls-2" x1="50.35" y1="53.25" x2="51.45" y2="52.51"/><path class="cls-2" d="m53.37,52.62c-1.07.05-2.07.26-3.01.61"/><line class="cls-2" x1="54.54" y1="51.88" x2="53.35" y2="52.65"/><path class="cls-2" d="m56.24,51.92c-.58-.05-1.14-.07-1.69-.04"/><line class="cls-2" x1="55.13" y1="52.69" x2="56.23" y2="51.93"/><path class="cls-2" d="m58.61,53.44c-1.19-.41-2.35-.66-3.47-.77"/><line class="cls-2" x1="59.79" y1="52.74" x2="58.6" y2="53.46"/><path class="cls-2" d="m61.67,53.46c-.62-.29-1.24-.54-1.86-.75"/><line class="cls-2" x1="60.53" y1="54.24" x2="61.66" y2="53.48"/><path class="cls-2" d="m64.17,56.31c-1.21-.83-2.42-1.53-3.63-2.09"/><line class="cls-2" x1="65.38" y1="55.63" x2="64.17" y2="56.33"/><path class="cls-2" d="m67.25,57c-.61-.5-1.23-.96-1.85-1.39"/><line class="cls-2" x1="66.1" y1="57.79" x2="67.24" y2="57"/><path class="cls-2" d="m69.58,60.99c-1.12-1.18-2.28-2.27-3.47-3.23"/><line class="cls-2" x1="70.81" y1="60.32" x2="69.58" y2="60.99"/><path class="cls-2" d="m72.51,62.22c-.55-.66-1.12-1.3-1.69-1.91"/><line class="cls-2" x1="71.35" y1="62.99" x2="72.49" y2="62.23"/><path class="cls-2" d="m74.35,67.06c-.94-1.43-1.94-2.8-3.01-4.08"/><line class="cls-2" x1="75.59" y1="66.42" x2="74.36" y2="67.07"/><path class="cls-2" d="m76.99,68.68c-.44-.77-.9-1.52-1.38-2.26"/><line class="cls-2" x1="75.79" y1="69.43" x2="76.96" y2="68.69"/><path class="cls-2" d="m78.96,76.2c-.85-2.3-1.91-4.59-3.16-6.78"/><polyline class="cls-2" points="83.89 73.58 82.66 74.25 81.42 74.9 80.19 75.56 78.95 76.21"/><line class="cls-2" x1="78.95" y1="76.21" x2="78.95" y2="96.87"/><polyline class="cls-2" points="78.95 76.21 78.91 76.23 78.89 76.25 78.84 76.27 78.8 76.3 78.75 76.3 78.71 76.32 78.66 76.34 78.62 76.34 78.57 76.36 78.53 76.39 78.48 76.39 78.44 76.41 78.37 76.41 78.33 76.41 78.28 76.43 78.24 76.43 78.19 76.43 78.12 76.45 78.08 76.45 78.03 76.45 77.99 76.45 77.94 76.45 77.9 76.45 77.86 76.45 77.81 76.45 77.77 76.45 77.72 76.45 77.68 76.43 77.65 76.43 77.61 76.43 77.56 76.41 77.54 76.41"/><line class="cls-2" x1="77.54" y1="96.62" x2="77.54" y2="76.41"/><polyline class="cls-2" points="78.95 96.87 78.91 96.89 78.89 96.89 78.84 96.91 78.8 96.91 78.75 96.94 78.71 96.94 78.66 96.96 78.62 96.96 78.57 96.96 78.53 96.96 78.48 96.96 78.44 96.96 78.37 96.96 78.33 96.96 78.28 96.96 78.24 96.94 78.19 96.94 78.12 96.94 78.08 96.91 78.03 96.89 77.99 96.89 77.94 96.87 77.9 96.85 77.86 96.83 77.81 96.8 77.77 96.78 77.72 96.76 77.68 96.74 77.65 96.71 77.61 96.69 77.56 96.67 77.54 96.62"/><path class="cls-2" d="m72.73,100.33c1.98-.62,3.62-1.89,4.82-3.72"/><polyline class="cls-2" points="73.55 100.98 73.5 100.98 73.48 101 73.44 101 73.41 101 73.37 101 73.35 101 73.3 101 73.28 100.98 73.26 100.98 73.21 100.98 73.19 100.95 73.14 100.95 73.12 100.93 73.1 100.91 73.05 100.89 73.03 100.86 72.99 100.82 72.94 100.77 72.87 100.71 72.85 100.64 72.81 100.57 72.76 100.5 72.74 100.44 72.72 100.35"/><polyline class="cls-2" points="73.14 67.77 70.83 69.36 72.31 71.79 74.62 70.19"/><path class="cls-2" d="m73.16,67.77c-.87-1.33-1.81-2.59-2.79-3.79"/><polyline class="cls-2" points="68.54 61.96 67.06 64.67 68.88 66.72 70.36 64"/><path class="cls-2" d="m68.55,61.94c-1.04-1.09-2.12-2.1-3.22-2.99"/><polyline class="cls-2" points="63.34 57.47 62.85 61.11 64.82 62.59 65.34 58.95"/><path class="cls-2" d="m63.35,57.46c-1.12-.77-2.25-1.42-3.37-1.94"/><polyline class="cls-2" points="58 54.73 58.49 58.95 60.49 59.74 59.97 55.54"/><path class="cls-2" d="m58,54.73c-1.1-.37-2.18-.61-3.22-.72"/><polyline class="cls-2" points="52.97 53.97 54.43 58.39 56.25 58.44 54.77 54.02"/><path class="cls-2" d="m52.97,53.97c-.99.06-1.92.25-2.79.57"/><polyline class="cls-2" points="48.69 55.27 51 59.51 52.48 58.8 50.17 54.55"/><path class="cls-2" d="m48.7,55.25c-1.14.69-2.12,1.66-2.91,2.86"/><line class="cls-2" x1="45.79" y1="58.12" x2="45.79" y2="78.34"/><path class="cls-2" d="m45.79,78.33c1.2,3.22,2.84,6.37,4.82,9.27"/><line class="cls-2" x1="50.59" y1="87.6" x2="72.72" y2="100.35"/><path class="cls-2" d="m77.54,76.39c-.79-2.11-1.77-4.2-2.91-6.21"/><path class="cls-2" d="m75.81,69.43c-.39.25-.89.58-1.15.76"/><line class="cls-2" x1="74.76" y1="67.01" x2="75.59" y2="66.42"/><polyline class="cls-2" points="74.13 70.55 72.81 68.38 74.76 67.03"/><polyline class="cls-2" points="74.76 67.01 74.6 67.1 74.42 67.16 74.27 67.25 74.09 67.34"/><polyline class="cls-2" points="70.27 61.31 70.11 61.4 69.94 61.49 69.78 61.58 69.62 61.67"/><polyline class="cls-2" points="65.2 56.93 65.04 57.02 64.86 57.11 64.71 57.2 64.55 57.31"/><polyline class="cls-2" points="60 54.24 59.82 54.35 59.66 54.44 59.5 54.53 59.34 54.64"/><polyline class="cls-2" points="68.39 64 69.04 63.64 70.29 61.33"/><line class="cls-2" x1="70.27" y1="61.31" x2="70.81" y2="60.32"/><line class="cls-2" x1="69.98" y1="64.72" x2="69.04" y2="63.64"/><path class="cls-2" d="m69.59,60.99c-.4.22-.85.64-1.01.94"/><polyline class="cls-2" points="69.62 61.67 68.36 63.98 67.06 64.67"/><polyline class="cls-2" points="52.26 58.73 52.23 58.73 50.28 55.14"/><polyline class="cls-2" points="55.71 57.65 55.69 57.65 54.43 53.88"/><polyline class="cls-2" points="59.79 58.21 59.77 58.21 59.34 54.64"/><polyline class="cls-2" points="64.15 60.39 64.12 60.39 64.55 57.31"/><line class="cls-2" x1="68.36" y1="63.98" x2="68.39" y2="64"/><polyline class="cls-2" points="72.13 68.71 72.13 68.69 74.09 67.34"/><line class="cls-2" x1="50.68" y1="55.47" x2="50.59" y2="55.52"/><line class="cls-2" x1="83.89" y1="94.09" x2="84.07" y2="93.98"/><line class="cls-2" x1="72.13" y1="68.71" x2="72.81" y2="68.38"/><line class="cls-2" x1="72.13" y1="68.69" x2="70.83" y2="69.36"/><path class="cls-2" d="m74.37,67.07c-.41.21-.93.52-1.19.7"/><path class="cls-2" d="m71.34,62.99c-.38.25-.81.69-.97.99"/><path class="cls-2" d="m66.11,57.77c-.37.25-.71.77-.77,1.18"/><line class="cls-2" x1="65.2" y1="56.93" x2="65.38" y2="55.63"/><polyline class="cls-2" points="65.13 60.3 64.8 60.03 65.22 56.93"/><path class="cls-2" d="m64.17,56.31c-.4.23-.76.73-.81,1.14"/><line class="cls-2" x1="64.12" y1="60.39" x2="62.85" y2="61.11"/><line class="cls-2" x1="64.15" y1="60.39" x2="64.8" y2="60.03"/><path class="cls-2" d="m60.53,54.24c-.37.25-.61.82-.55,1.29"/><line class="cls-2" x1="59.97" y1="54.24" x2="59.79" y2="52.74"/><line class="cls-2" x1="60.06" y1="54.87" x2="60" y2="54.24"/><path class="cls-2" d="m58.59,53.45c-.4.24-.66.8-.6,1.27"/><line class="cls-2" x1="59.77" y1="58.21" x2="58.49" y2="58.95"/><line class="cls-2" x1="59.79" y1="58.21" x2="60.26" y2="57.94"/><path class="cls-2" d="m55.15,52.69c-.37.25-.52.83-.36,1.33"/><line class="cls-2" x1="54.88" y1="52.94" x2="54.54" y2="51.88"/><path class="cls-2" d="m53.37,52.65c-.39.25-.57.83-.4,1.32"/><line class="cls-2" x1="55.69" y1="57.65" x2="54.43" y2="58.39"/><line class="cls-2" x1="55.71" y1="57.65" x2="55.93" y2="57.49"/><path class="cls-2" d="m50.37,53.24c-.36.24-.44.81-.18,1.28"/><line class="cls-2" x1="50.19" y1="53.41" x2="50.06" y2="53.19"/><path class="cls-2" d="m48.93,53.94c-.38.25-.48.83-.22,1.3"/><line class="cls-2" x1="52.23" y1="58.73" x2="51" y2="59.51"/><line class="cls-2" x1="52.26" y1="58.73" x2="52.39" y2="58.64"/><line class="cls-2" x1="55.78" y1="57.58" x2="55.51" y2="57.07"/><polyline class="cls-2" points="45.57 57.27 45.52 57.31 45.52 57.38 45.5 57.43 45.48 57.47 45.48 57.54 45.48 57.58 45.48 57.65 45.5 57.7 45.52 57.76 45.55 57.81 45.57 57.88 45.61 57.92 45.64 57.97 45.68 58.03 45.73 58.08 45.79 58.12"/><polyline class="cls-2" points="45.48 78.07 45.48 78.09 45.48 78.11 45.5 78.14 45.5 78.16 45.52 78.18 45.52 78.2 45.55 78.23 45.57 78.23 45.59 78.25 45.61 78.27 45.64 78.29 45.66 78.29 45.68 78.32 45.73 78.32 45.75 78.34 45.79 78.34"/><polyline class="cls-2" points="50.64 87.99 50.62 87.99 50.62 87.96 50.59 87.94 50.57 87.92 50.57 87.9 50.57 87.87 50.57 87.85 50.57 87.83 50.57 87.81 50.57 87.76 50.57 87.74 50.57 87.72 50.57 87.67 50.59 87.65 50.59 87.6"/><line class="cls-2" x1="75.14" y1="100.35" x2="80.01" y2="97.95"/><line class="cls-2" x1="48.55" y1="54.17" x2="53.06" y2="51.19"/><polyline class="cls-2" points="75.14 100.35 74.96 100.44 74.76 100.53 74.56 100.62 74.36 100.71 74.15 100.77 73.95 100.84 73.75 100.91 73.55 100.98"/><polyline class="cls-2" points="45.57 57.27 45.73 57.05 45.88 56.82 46.04 56.6 46.2 56.37 46.38 56.15 46.56 55.95 46.74 55.74 46.92 55.54 47.12 55.36 47.3 55.16 47.5 54.98 47.7 54.82 47.9 54.64 48.13 54.49 48.33 54.33 48.55 54.17"/><line class="cls-2" x1="45.48" y1="57.56" x2="45.48" y2="78.07"/><polyline class="cls-2" points="50.59 87.94 50.39 87.65 50.21 87.36 50.01 87.09 49.83 86.8 49.63 86.5 49.45 86.19 49.27 85.9 49.09 85.61 48.91 85.32 48.73 85 48.55 84.71 48.4 84.4 48.22 84.1 48.06 83.79 47.88 83.48 47.72 83.18 47.57 82.87 47.41 82.56 47.25 82.24 47.12 81.93 46.96 81.61 46.8 81.3 46.67 80.99 46.53 80.67 46.38 80.36 46.24 80.04 46.11 79.73 46 79.41 45.86 79.1 45.73 78.79 45.61 78.45 45.5 78.14"/><line class="cls-2" x1="50.64" y1="87.99" x2="73.1" y2="100.93"/><polyline class="cls-2" points="56 50.58 55.96 50.4 55.93 50.22 55.89 50.05 55.87 49.87 55.84 49.69 55.8 49.53 55.78 49.35 55.76 49.19 55.73 49.01 55.73 48.86 55.71 48.7 55.69 48.52 55.69 48.36 55.69 48.21 55.67 48.05 55.67 47.89 55.67 47.73 55.67 47.6 55.69 47.44 55.69 47.29 55.69 47.15 55.71 47.02 55.73 46.86 55.73 46.72 55.76 46.59 55.78 46.46 55.8 46.3 55.82 46.16 55.87 46.05 55.89 45.92 55.93 45.78 55.96 45.65 56 45.54 56.05 45.4 56.09 45.29 56.14 45.15 56.18 45.04 56.23 44.93 56.27 44.82 56.34 44.68 56.38 44.59 56.45 44.48 56.52 44.37 56.59 44.26 56.65 44.14 56.72 44.05 56.79 43.94 56.85 43.85 56.94 43.76 57.01 43.67 57.1 43.56 57.17 43.47 57.26 43.38 57.35 43.31 57.44 43.22 57.53 43.13 57.62 43.07 57.73 42.98 57.82 42.91 57.93 42.82 58.02 42.75 58.13 42.69 58.25 42.62 58.36 42.55"/><polyline class="cls-2" points="56.18 50.47 56.14 50.2 56.07 49.96 56.02 49.71 55.98 49.46 55.96 49.21 55.91 48.99 55.89 48.74 55.87 48.5 55.84 48.27 55.84 48.03 55.82 47.8 55.82 47.58 55.82 47.35 55.84 47.24 55.84 47.13 55.84 47.02 55.84 46.93 55.87 46.81 55.87 46.7 55.89 46.59 55.89 46.5 55.91 46.39 55.93 46.3 55.93 46.19 55.96 46.1 55.98 46.01 56 45.89 56.05 45.71 56.09 45.54 56.14 45.36 56.2 45.18 56.27 45.02 56.34 44.84 56.41 44.68 56.47 44.53 56.56 44.39 56.63 44.23 56.72 44.1 56.81 43.96 56.9 43.83 57.01 43.7 57.1 43.58 57.21 43.47 57.33 43.36 57.42 43.25 57.53 43.13 57.64 43.04 57.77 42.96 57.89 42.87 58.02 42.78 58.13 42.69 58.27 42.6 58.4 42.53 58.54 42.46 58.67 42.39 58.81 42.33 58.94 42.26 59.08 42.21 59.23 42.15 59.37 42.1 59.52 42.06 59.68 42.01 59.82 41.99 59.97 41.95 60.13 41.92 60.29 41.88 60.44 41.86 60.6 41.83 60.78 41.83 60.94 41.81 61.12 41.81 61.27 41.79 61.45 41.79 61.61 41.79 61.79 41.81 61.97 41.81 62.15 41.83 62.33 41.83 62.51 41.86 62.69 41.88 62.87 41.9 63.05 41.95 63.23 41.97 63.41 42.01 63.59 42.04 63.79 42.08 63.97 42.12 64.15 42.19 64.35 42.24 64.53 42.3 64.71 42.35 64.91 42.42 65.09 42.48 65.29 42.55 65.49 42.64 65.67 42.71 65.87 42.8 66.08 42.87 66.26 42.96 66.46 43.04 66.66 43.13 66.84 43.25 67.04 43.34 67.24 43.45 67.44 43.54 67.65 43.65 67.83 43.76 68.03 43.87 68.23 44.01 68.43 44.12 68.61 44.23 68.81 44.37 69.02 44.5 69.22 44.64 69.42 44.75 69.6 44.91 69.8 45.04 70 45.18 70.18 45.31 70.38 45.47 70.59 45.63 70.77 45.76 70.97 45.92 71.17 46.07 71.35 46.23 71.55 46.41 71.73 46.57 71.93 46.72 72.13 46.9 72.31 47.06 72.52 47.24 72.69 47.42 72.87 47.6 73.08 47.78 73.26 47.96 73.46 48.14 73.64 48.32 73.82 48.52 74.02 48.7 74.2 48.9 74.38 49.08 74.56 49.28 74.74 49.46 74.92 49.66 75.1 49.87 75.27 50.07 75.45 50.27 75.63 50.47 75.81 50.67 75.99 50.9 76.15 51.1 76.33 51.3 76.51 51.53 76.67 51.73 76.85 51.95 77 52.18 77.18 52.38 77.34 52.6 77.52 52.83 77.68 53.05 77.83 53.28 78.01 53.5 78.17 53.72 78.33 53.95 78.48 54.2 78.64 54.42 78.8 54.64 78.95 54.89 79.11 55.12 79.27 55.34 79.4 55.59 79.56 55.83 79.72 56.06 79.85 56.3 80.01 56.53 80.14 56.78 80.28 57.02 80.44 57.27 80.57 57.49 80.7 57.74 80.84 57.99 80.97 58.23 81.11 58.48 81.24 58.73 81.38 58.97 81.49 59.22 81.62 59.47 81.74 59.74 81.87 59.98 81.98 60.23 82.12 60.48 82.23 60.75 82.34 60.99 82.48 61.24 82.59 61.51 82.7 61.76 82.81 62 82.9 62.27 83.02 62.52 83.13 62.77 83.24 63.04 83.33 63.28 83.44 63.55 83.53 63.8 83.62 64.07 83.73 64.31 83.82 64.56 83.91 64.83 84 65.08 84.09 65.35 84.18 65.59 84.25 65.84 84.34 66.11 84.41 66.36 84.5 66.6 84.56 66.87 84.65 67.12 84.72 67.37 84.79 67.64 84.86 67.88 84.92 68.13 84.99 68.4 85.06 68.64 85.12 68.89 85.19 69.14 85.24 69.41 85.3 69.65 85.35 69.9 85.42 70.15 85.46 70.39 85.53 70.66 85.57 70.91 85.62 71.16 85.66 71.4 85.71 71.65 85.75 71.9 85.8 72.15 85.84 72.39 85.86 72.64 85.91 72.89 85.95 73.13 85.98 73.38 86.02 73.6 86.04 73.85 86.07 74.1 86.11 74.34 86.13 74.59 86.16 74.81 86.18 75.06 86.2 75.31 86.22 75.53 86.27 76.03 86.29 76.5 86.31 76.97 86.36 77.44 86.36 77.89 86.38 78.36 86.38 78.38 86.38 78.43 86.4 78.45 86.43 78.47 86.45 78.49 86.47 78.54 86.52 78.56 86.54 78.58 86.58 78.58 86.63 78.61 86.67 78.63 86.72 78.63 86.76 78.65 86.81 78.65 86.87 78.65 86.92 78.65 86.96 78.65 87.01 78.65 87.08 78.65 87.12 78.63 87.17 78.63 87.21 78.61 87.26 78.58 87.3 78.56 87.32 78.54 87.35 78.52 87.39 78.49 87.41 78.47 87.41 78.43 87.44 78.4 87.44 78.38 87.44 78.36 87.44 77.87 87.41 77.37 87.39 77.13 87.39 76.88 87.37 76.63 87.35 76.39 87.32 76.14 87.32 75.89 87.3 75.65 87.28 75.38 87.26 75.13 87.23 74.88 87.21 74.64 87.17 74.37 87.14 74.12 87.12 73.87 87.08 73.6 87.05 73.36 87.01 73.11 86.99 72.84 86.94 72.59 86.9 72.32 86.85 72.08 86.81 71.81 86.76 71.56 86.72 71.29 86.67 71.02 86.63 70.78 86.56 70.51 86.52 70.24 86.47 69.99 86.4 69.72 86.34 69.45 86.29 69.21 86.22 68.94 86.16 68.67 86.09 68.4 86.02 68.13 85.95 67.86 85.89 67.61 85.82 67.34 85.73 67.07 85.66 66.81 85.57 66.54 85.51 66.27 85.42 66 85.33 65.73 85.24 65.46 85.15 65.19 85.06 64.92 84.97 64.65 84.88 64.4 84.79 64.14 84.7 63.87 84.59 63.6 84.5 63.33 84.38 63.06 84.27 62.79 84.18 62.52 84.07 62.27 83.96 62 83.85 61.73 83.73 61.47 83.62 61.2 83.49 60.95 83.37 60.68 83.26 60.41 83.13 60.14 83.02 59.89 82.88 59.63 82.75 59.36 82.61 59.09 82.48 58.84 82.34 58.57 82.21 58.32 82.07 58.05 81.94 57.81 81.8 57.54 81.67 57.29 81.51 57.02 81.38 56.78 81.22 56.53 81.09 56.26 80.93 56.01 80.77 55.77 80.61 55.52 80.46 55.27 80.32 55.03 80.17 54.78 79.99 54.53 79.83 54.29 79.67 54.06 79.52 53.81 79.36 53.57 79.18 53.32 79.02 53.1 78.84 52.85 78.69 52.63 78.51 52.38 78.33 52.15 78.17 51.93 77.99 51.71 77.81 51.46 77.63 51.23 77.45 51.01 77.27 50.79 77.09 50.56 76.91 50.36 76.73 50.13 76.55 49.91 76.35 49.71 76.17 49.48 75.99 49.28 75.81 49.06 75.61 48.86 75.43 48.65 75.23 48.45 75.05 48.25 74.85 48.05 74.67 47.85 74.47 47.64 74.27 47.46 74.09 47.26 73.88 47.08 73.68 46.88 73.48 46.7 73.28 46.52 73.1 46.34 72.9 46.16 72.69 45.98 72.49 45.8 72.29 45.63 72.09 45.47 71.89 45.29 71.69 45.13 71.46 44.97 71.26 44.82 71.06 44.66 70.85 44.5 70.65 44.35 70.45 44.19 70.25 44.05 70.02 43.9 69.82 43.76 69.62 43.63 69.42 43.49 69.19 43.36 68.99 43.22 68.79 43.09 68.59 42.98 68.36 42.84 68.16 42.73 67.96 42.62 67.74 42.51 67.53 42.39 67.33 42.28 67.11 42.19 66.91 42.08 66.7 41.99 66.48 41.9 66.28 41.81 66.08 41.72 65.87 41.63 65.67 41.56 65.45 41.5 65.25 41.41 65.04 41.34 64.84 41.27 64.64 41.23 64.44 41.16 64.24 41.12 64.01 41.05 63.81 41 63.61 40.96 63.41 40.94 63.2 40.89 63.02 40.85 62.82 40.82 62.62 40.8 62.42 40.78 62.22 40.76 62.04 40.76 61.84 40.73 61.63 40.73 61.45 40.73 61.25 40.73 61.07 40.73 60.87 40.76 60.69 40.78 60.51 40.78 60.33 40.8 60.13 40.85 59.95 40.87 59.77 40.91 59.59 40.94 59.41 40.98 59.26 41.03 59.08 41.09 58.9 41.14 58.74 41.21 58.56 41.27 58.4 41.34 58.25 41.41 58.09 41.5 57.93 41.59 57.77 41.68 57.62 41.77 57.46 41.86 57.3 41.97 57.17 42.08 57.03 42.19 56.88 42.3 56.74 42.42 56.63 42.55 56.5 42.69 56.36 42.82 56.25 42.96 56.14 43.11 56.02 43.27 55.91 43.43 55.8 43.58 55.71 43.74 55.6 43.92 55.51 44.1 55.42 44.28 55.35 44.46 55.26 44.64 55.19 44.84 55.13 45.04 55.08 45.24 55.01 45.45 54.97 45.67 54.92 45.89 54.88 46.1 54.86 46.32 54.81 46.57 54.81 46.79 54.79 47.02 54.77 47.26 54.77 47.51 54.77 47.62 54.77 47.73 54.77 47.98 54.79 48.23 54.81 48.5 54.84 48.74 54.86 48.99 54.88 49.26 54.92 49.51 54.97 49.78 55.01 50.02 55.06 50.29 55.13 50.56 55.17 50.81 55.24 51.08"/></svg>