<?xml version="1.0" encoding="UTF-8"?><svg id="Layer_1" xmlns="http://www.w3.org/2000/svg" viewBox="0 0 141.73 141.73"><defs><style>.cls-1{stroke-linejoin:bevel;}.cls-1,.cls-2{stroke:#000;stroke-linecap:round;stroke-width:.33px;}.cls-1,.cls-2,.cls-3{fill:none;}.cls-2{stroke-linejoin:round;}.cls-3{stroke:#00aeef;stroke-miterlimit:10;stroke-width:2px;}</style></defs><line class="cls-2" x1="75.24" y1="52.18" x2="74.26" y2="51.6"/><line class="cls-2" x1="71.68" y1="50.13" x2="70.7" y2="49.55"/><line class="cls-2" x1="68.11" y1="48.06" x2="67.13" y2="47.5"/><line class="cls-2" x1="64.54" y1="46.01" x2="63.56" y2="45.43"/><line class="cls-2" x1="78.83" y1="54.23" x2="77.83" y2="53.65"/><line class="cls-2" x1="82.4" y1="56.28" x2="81.39" y2="55.7"/><line class="cls-2" x1="81.5" y1="55.49" x2="81.39" y2="55.55"/><line class="cls-2" x1="75.71" y1="73.13" x2="75.71" y2="73.13"/><line class="cls-2" x1="65.51" y1="49.28" x2="64.5" y2="49.85"/><line class="cls-2" x1="65.51" y1="49.28" x2="65.51" y2="48.64"/><line class="cls-2" x1="65.51" y1="48.64" x2="64.16" y2="49.4"/><line class="cls-2" x1="64.16" y1="49.4" x2="64.16" y2="49.66"/><polyline class="cls-2" points="65.93 49.11 65.89 49.11 65.87 49.11 65.85 49.13 65.83 49.13 65.8 49.13 65.76 49.15 65.74 49.15 65.72 49.17 65.68 49.19 65.66 49.19 65.61 49.21 65.59 49.23 65.57 49.23 65.55 49.25 65.51 49.28"/><line class="cls-2" x1="65.93" y1="48.64" x2="65.93" y2="49.11"/><path class="cls-2" d="m65.95,48.6c-.12-.07-.32-.07-.44,0"/><path class="cls-2" d="m65.99,49.09s-.02,0-.03,0"/><line class="cls-2" x1="66.36" y1="48.87" x2="65.93" y2="48.64"/><line class="cls-2" x1="67.58" y1="48.78" x2="66.55" y2="48.19"/><polyline class="cls-2" points="66.55 48.19 66.55 46.86 66.64 46.67 67.13 46.39 67.13 48.38 67 48.46"/><polyline class="cls-2" points="69.22 51.26 69.18 51.28 69.14 51.28 69.12 51.3 69.07 51.33 68.07 51.9"/><line class="cls-2" x1="70.7" y1="50.45" x2="70.57" y2="50.51"/><path class="cls-2" d="m62.03,55.6c-.2.49-.07,1.25.33,1.93.39.69.98,1.18,1.51,1.25"/><path class="cls-2" d="m58.44,53.53c-.2.49-.07,1.25.33,1.93.39.69.98,1.18,1.51,1.25"/><path class="cls-2" d="m62.42,47.04s-.02,0-.03,0"/><polyline class="cls-2" points="62.37 47.03 62.35 47.06 62.32 47.06 62.3 47.06 62.28 47.06 62.26 47.08 62.22 47.08 62.2 47.1 62.17 47.1 62.15 47.12 62.11 47.12 62.09 47.14 62.05 47.16 62.03 47.18 62 47.18 61.96 47.2 61.94 47.23 60.94 47.8"/><line class="cls-2" x1="63.56" y1="46.33" x2="63.43" y2="46.39"/><path class="cls-2" d="m54.87,51.48c-.2.49-.07,1.25.33,1.93.39.69.98,1.18,1.51,1.25"/><line class="cls-2" x1="67.73" y1="51.71" x2="68.24" y2="52.01"/><polyline class="cls-2" points="71.68 50.45 71.68 49.83 72.23 50.15"/><polyline class="cls-2" points="72.62 49.92 71.93 49.53 71.76 49.62 71.68 49.83"/><line class="cls-2" x1="72.36" y1="49.28" x2="71.93" y2="49.53"/><path class="cls-2" d="m64.17,49.39c-.12.07-.12.19,0,.26"/><line class="cls-2" x1="64.16" y1="49.66" x2="64.74" y2="49.98"/><polyline class="cls-2" points="68.11 48.49 68.11 47.78 68.73 48.12"/><line class="cls-2" x1="62.79" y1="46.82" x2="62.37" y2="46.56"/><line class="cls-2" x1="62.37" y1="46.56" x2="62.37" y2="47.03"/><path class="cls-2" d="m62.38,46.55c-.12-.07-.32-.07-.44,0"/><line class="cls-2" x1="61.94" y1="47.23" x2="61.94" y2="46.56"/><line class="cls-2" x1="61.94" y1="46.56" x2="60.59" y2="47.35"/><line class="cls-2" x1="60.59" y1="47.35" x2="60.59" y2="47.61"/><path class="cls-2" d="m60.6,47.34c-.12.07-.12.19,0,.26"/><polyline class="cls-2" points="64.54 46.41 64.54 45.73 65.16 46.07"/><line class="cls-2" x1="64.01" y1="46.73" x2="62.99" y2="46.14"/><polyline class="cls-2" points="63.01 44.39 63.07 44.6 63.56 44.32 63.46 44.15 63.01 44.39"/><polyline class="cls-2" points="62.35 44.45 62.99 44.81 63.07 44.6"/><polyline class="cls-2" points="62.35 44.45 62.35 44 63.01 44.39"/><polyline class="cls-2" points="62.35 44.45 62.35 45.77 62.99 46.14 62.99 44.81"/><line class="cls-2" x1="59.42" y1="47.46" x2="62.35" y2="45.77"/><line class="cls-2" x1="60.59" y1="47.61" x2="61.17" y2="47.93"/><polyline class="cls-2" points="66.55 46.86 65.83 46.46 65.83 46.01"/><polyline class="cls-2" points="65.83 46.01 66.6 46.44 66.64 46.67"/><polyline class="cls-2" points="65.83 46.46 65.83 47.78 66.55 48.19"/><line class="cls-2" x1="63.2" y1="47.35" x2="62.05" y2="48.02"/><path class="cls-2" d="m62.06,48.03c-.21.12-.4.4-.45.67"/><line class="cls-2" x1="62.92" y1="49.47" x2="65.83" y2="47.78"/><polyline class="cls-2" points="63.67 47.63 63.67 47.72 65.83 46.46"/><path class="cls-2" d="m63.67,47.63c0-.29-.2-.41-.46-.27"/><line class="cls-2" x1="63.67" y1="47.72" x2="63.69" y2="47.57"/><line class="cls-2" x1="63.69" y1="47.57" x2="63.67" y2="47.63"/><polyline class="cls-2" points="65.83 46.01 63.73 47.23 63.69 47.57"/><path class="cls-2" d="m63.76,47.21c-.08-.32-.37-.41-.7-.22"/><line class="cls-2" x1="63.2" y1="47.35" x2="63.05" y2="46.99"/><path class="cls-2" d="m63.29,46.76c-.13-.08-.32-.06-.51.05"/><line class="cls-2" x1="63.05" y1="46.99" x2="62.77" y2="46.84"/><line class="cls-2" x1="65.55" y1="45.84" x2="63.61" y2="46.97"/><polyline class="cls-2" points="65.55 45.84 64.8 45.41 64.63 45.52 64.54 45.73"/><line class="cls-2" x1="64.8" y1="45.41" x2="65.23" y2="45.18"/><polyline class="cls-2" points="66.6 46.44 67.02 46.2 65.23 45.18"/><line class="cls-2" x1="67.13" y1="46.39" x2="67.02" y2="46.2"/><polyline class="cls-2" points="69.41 49.83 70.12 50.26 70.12 48.93 69.41 48.51 69.41 49.83"/><line class="cls-2" x1="69.41" y1="48.51" x2="69.41" y2="48.06"/><polyline class="cls-2" points="70.12 48.93 70.2 48.72 70.16 48.51 69.41 48.06"/><line class="cls-2" x1="67.24" y1="49.77" x2="67.26" y2="49.62"/><line class="cls-2" x1="67.26" y1="49.62" x2="67.24" y2="49.68"/><polyline class="cls-2" points="67.24 49.68 67.24 49.77 69.41 48.51"/><polyline class="cls-2" points="69.41 48.06 67.32 49.28 67.26 49.62"/><path class="cls-2" d="m67.32,49.26c-.08-.32-.37-.41-.7-.22"/><line class="cls-2" x1="66.77" y1="49.43" x2="66.62" y2="49.04"/><path class="cls-2" d="m67.24,49.68c0-.29-.2-.41-.46-.27"/><path class="cls-2" d="m66.86,48.81c-.13-.08-.32-.06-.51.05"/><line class="cls-2" x1="66.62" y1="49.04" x2="66.34" y2="48.89"/><line class="cls-2" x1="69.12" y1="47.91" x2="67.17" y2="49.02"/><polyline class="cls-2" points="69.12 47.91 68.37 47.46 68.2 47.57 68.11 47.78"/><line class="cls-2" x1="68.37" y1="47.46" x2="68.79" y2="47.23"/><polyline class="cls-2" points="70.16 48.51 70.59 48.25 68.79 47.23"/><polyline class="cls-2" points="70.2 48.72 70.7 48.44 70.59 48.25"/><line class="cls-2" x1="70.7" y1="48.44" x2="70.7" y2="50.45"/><line class="cls-2" x1="71.08" y1="50.81" x2="70.12" y2="50.26"/><line class="cls-2" x1="66.49" y1="51.52" x2="69.41" y2="49.83"/><line class="cls-2" x1="69.86" y1="50.88" x2="69.52" y2="50.69"/><path class="cls-2" d="m67.73,51.44c-.12.07-.12.19,0,.26"/><line class="cls-2" x1="69.07" y1="50.69" x2="67.73" y2="51.45"/><path class="cls-2" d="m69.54,50.67c-.12-.07-.32-.07-.44,0"/><polyline class="cls-2" points="68 52.56 64.78 50.73 65.04 50.69 68.05 52.42"/><path class="cls-2" d="m68.7,51.55c-.33.19-.61.61-.69,1.02"/><line class="cls-2" x1="69.84" y1="50.9" x2="68.69" y2="51.56"/><path class="cls-2" d="m70.57,50.95c-.13-.08-.32-.06-.51.05"/><path class="cls-2" d="m70.36,50.84c-.13-.08-.32-.06-.51.05"/><line class="cls-2" x1="70.05" y1="51.03" x2="69.84" y2="50.9"/><line class="cls-2" x1="70.67" y1="51.05" x2="72.62" y2="49.92"/><polyline class="cls-2" points="70.87 51.18 73.26 49.79 72.36 49.28"/><line class="cls-2" x1="58.42" y1="45.65" x2="58.57" y2="46.01"/><line class="cls-2" x1="58.57" y1="46.01" x2="59.7" y2="45.35"/><line class="cls-2" x1="59.7" y1="45.35" x2="59.55" y2="44.98"/><line class="cls-2" x1="59.55" y1="44.98" x2="58.42" y2="45.65"/><line class="cls-2" x1="59.33" y1="44.86" x2="58.2" y2="45.52"/><line class="cls-2" x1="58.2" y1="45.52" x2="58.42" y2="45.65"/><line class="cls-2" x1="59.55" y1="44.98" x2="59.33" y2="44.86"/><path class="cls-2" d="m59.85,44.8c-.13-.08-.32-.06-.51.05"/><path class="cls-2" d="m60.25,45.2c-.08-.32-.37-.41-.7-.22"/><polyline class="cls-2" points="68.2 52.97 68.2 52.91 57.5 46.73 57.5 46.82"/><path class="cls-2" d="m58.21,45.51c-.39.22-.71.77-.72,1.23"/><polyline class="cls-2" points="63.46 44.15 62.56 43.64 60.15 45"/><line class="cls-2" x1="62.35" y1="44" x2="60.25" y2="45.2"/><line class="cls-2" x1="62.35" y1="44.45" x2="60.17" y2="45.71"/><polyline class="cls-2" points="60.17 45.71 60.19 45.56 60.25 45.2"/><path class="cls-2" d="m60.17,45.6c0-.29-.2-.41-.46-.27"/><line class="cls-2" x1="60.19" y1="45.56" x2="60.17" y2="45.62"/><line class="cls-2" x1="60.17" y1="45.62" x2="60.17" y2="45.71"/><path class="cls-2" d="m58.58,46c-.21.12-.4.4-.45.67"/><line class="cls-2" x1="57.97" y1="46.61" x2="60.98" y2="48.34"/><path class="cls-2" d="m58.43,45.62c-.33.19-.61.61-.69,1.02"/><polyline class="cls-2" points="57.97 46.61 57.86 46.63 57.73 46.65 60.94 48.51"/><path class="cls-2" d="m61.63,47.47c-.33.19-.61.61-.69,1.02"/><line class="cls-2" x1="62.77" y1="46.84" x2="61.62" y2="47.48"/><line class="cls-2" x1="61.62" y1="47.48" x2="61.92" y2="47.65"/><line class="cls-2" x1="63.05" y1="46.99" x2="61.92" y2="47.65"/><line class="cls-2" x1="61.92" y1="47.65" x2="62.05" y2="48.02"/><path class="cls-2" d="m61.93,47.65c-.33.19-.61.61-.69,1.02"/><polyline class="cls-2" points="64.5 50.56 61.21 48.68 61.47 48.64 64.54 50.41"/><path class="cls-2" d="m65.2,49.52c-.33.19-.61.61-.69,1.02"/><line class="cls-2" x1="66.34" y1="48.89" x2="65.19" y2="49.55"/><line class="cls-2" x1="65.19" y1="49.55" x2="65.48" y2="49.7"/><line class="cls-2" x1="66.62" y1="49.04" x2="65.48" y2="49.7"/><line class="cls-2" x1="65.48" y1="49.7" x2="65.61" y2="50.07"/><line class="cls-2" x1="66.77" y1="49.43" x2="65.61" y2="50.07"/><path class="cls-2" d="m65.63,50.08c-.21.12-.4.4-.45.67"/><path class="cls-2" d="m65.49,49.7c-.33.19-.61.61-.69,1.02"/><path class="cls-2" d="m68.91,51.66c-.39.22-.71.77-.72,1.23"/><line class="cls-2" x1="68.69" y1="51.56" x2="68.9" y2="51.69"/><line class="cls-2" x1="68.9" y1="51.69" x2="70.05" y2="51.03"/><line class="cls-2" x1="63.56" y1="44.32" x2="63.56" y2="46.33"/><line class="cls-2" x1="69.52" y1="50.69" x2="69.52" y2="51.09"/><line class="cls-2" x1="69.07" y1="51.33" x2="69.07" y2="50.69"/><line class="cls-2" x1="67.73" y1="51.45" x2="67.73" y2="51.71"/><line class="cls-2" x1="63.26" y1="46.78" x2="63.56" y2="46.95"/><line class="cls-2" x1="66.83" y1="48.83" x2="67.13" y2="49"/><line class="cls-2" x1="70.33" y1="50.86" x2="70.55" y2="50.98"/><line class="cls-2" x1="59.85" y1="44.81" x2="60.06" y2="44.94"/><line class="cls-2" x1="76.23" y1="55.43" x2="75.2" y2="56.02"/><line class="cls-2" x1="76.23" y1="55.43" x2="76.23" y2="54.79"/><line class="cls-2" x1="76.23" y1="54.79" x2="74.86" y2="55.58"/><line class="cls-2" x1="74.86" y1="55.58" x2="74.86" y2="55.81"/><polyline class="cls-2" points="76.65 55.26 76.63 55.26 76.61 55.28 76.57 55.28 76.55 55.28 76.53 55.3 76.5 55.3 76.46 55.32 76.44 55.32 76.42 55.34 76.38 55.34 76.35 55.36 76.33 55.38 76.29 55.38 76.27 55.4 76.25 55.43 76.23 55.43"/><line class="cls-2" x1="76.65" y1="54.79" x2="76.65" y2="55.26"/><path class="cls-2" d="m76.67,54.77c-.12-.07-.32-.07-.44,0"/><path class="cls-2" d="m76.69,55.24s-.02,0-.03,0"/><line class="cls-2" x1="77.06" y1="55.04" x2="76.65" y2="54.79"/><line class="cls-2" x1="78.28" y1="54.96" x2="77.25" y2="54.36"/><polyline class="cls-2" points="77.25 54.36 77.25 53.03 77.34 52.82 77.83 52.54 77.83 54.55 77.7 54.61"/><polyline class="cls-2" points="79.92 57.41 79.88 57.43 79.86 57.46 79.81 57.48 79.79 57.5 78.77 58.07"/><line class="cls-2" x1="81.39" y1="56.6" x2="81.27" y2="56.69"/><path class="cls-2" d="m72.72,61.75c-.2.49-.07,1.25.33,1.93.39.69.98,1.18,1.51,1.25"/><path class="cls-2" d="m69.16,59.7c-.2.49-.07,1.25.33,1.93.39.69.98,1.18,1.51,1.25"/><path class="cls-2" d="m73.12,53.19s-.02,0-.03,0"/><polyline class="cls-2" points="73.09 53.21 73.07 53.21 73.04 53.21 73 53.23 72.98 53.23 72.96 53.23 72.94 53.25 72.89 53.25 72.87 53.27 72.85 53.29 72.81 53.29 72.79 53.31 72.77 53.33 72.72 53.33 72.7 53.35 72.68 53.38 72.66 53.38 71.63 53.97"/><line class="cls-2" x1="74.26" y1="52.5" x2="74.13" y2="52.56"/><path class="cls-2" d="m65.59,57.65c-.2.49-.07,1.25.33,1.93.39.69.98,1.18,1.51,1.25"/><line class="cls-2" x1="78.43" y1="57.88" x2="78.94" y2="58.16"/><polyline class="cls-2" points="82.4 56.62 82.4 56 82.93 56.3"/><polyline class="cls-2" points="83.32 56.09 82.63 55.68 82.46 55.79 82.4 56"/><line class="cls-2" x1="83.06" y1="55.45" x2="82.63" y2="55.68"/><path class="cls-2" d="m74.86,55.56c-.12.07-.12.19,0,.26"/><line class="cls-2" x1="74.86" y1="55.81" x2="75.44" y2="56.15"/><polyline class="cls-2" points="78.83 54.64 78.83 53.95 79.43 54.29"/><line class="cls-2" x1="73.49" y1="52.97" x2="73.09" y2="52.74"/><line class="cls-2" x1="73.09" y1="52.74" x2="73.09" y2="53.21"/><path class="cls-2" d="m73.1,52.72c-.12-.07-.32-.07-.44,0"/><line class="cls-2" x1="72.66" y1="53.38" x2="72.66" y2="52.74"/><line class="cls-2" x1="72.66" y1="52.74" x2="71.29" y2="53.53"/><line class="cls-2" x1="71.29" y1="53.53" x2="71.29" y2="53.76"/><path class="cls-2" d="m71.3,53.49c-.12.07-.12.19,0,.26"/><polyline class="cls-2" points="75.24 52.59 75.24 51.88 75.86 52.24"/><line class="cls-2" x1="74.71" y1="52.91" x2="73.69" y2="52.31"/><polyline class="cls-2" points="73.73 50.56 73.77 50.77 74.26 50.49 74.15 50.3 73.73 50.56"/><polyline class="cls-2" points="73.04 50.62 73.69 50.98 73.77 50.77"/><polyline class="cls-2" points="73.04 50.62 73.04 50.17 73.73 50.56"/><polyline class="cls-2" points="73.04 50.62 73.04 51.95 73.69 52.31 73.69 50.98"/><line class="cls-2" x1="70.12" y1="53.61" x2="73.04" y2="51.95"/><line class="cls-2" x1="71.29" y1="53.76" x2="71.87" y2="54.1"/><polyline class="cls-2" points="77.25 53.03 76.55 52.63 76.55 52.18"/><polyline class="cls-2" points="76.55 52.18 77.29 52.61 77.34 52.82"/><polyline class="cls-2" points="76.55 52.63 76.55 53.95 77.25 54.36"/><line class="cls-2" x1="73.9" y1="53.53" x2="72.77" y2="54.19"/><path class="cls-2" d="m72.78,54.18c-.21.12-.4.4-.45.67"/><line class="cls-2" x1="73.62" y1="55.64" x2="76.55" y2="53.95"/><polyline class="cls-2" points="74.37 53.8 74.37 53.89 76.55 52.63"/><path class="cls-2" d="m74.37,53.78c0-.29-.2-.41-.46-.27"/><line class="cls-2" x1="74.37" y1="53.89" x2="74.39" y2="53.74"/><line class="cls-2" x1="74.39" y1="53.74" x2="74.37" y2="53.8"/><polyline class="cls-2" points="76.55 52.18 74.45 53.38 74.39 53.74"/><path class="cls-2" d="m74.45,53.38c-.08-.32-.37-.41-.7-.22"/><line class="cls-2" x1="73.9" y1="53.53" x2="73.75" y2="53.16"/><path class="cls-2" d="m73.99,52.93c-.13-.08-.32-.06-.51.05"/><line class="cls-2" x1="73.75" y1="53.16" x2="73.47" y2="52.99"/><line class="cls-2" x1="76.25" y1="52.01" x2="74.3" y2="53.14"/><polyline class="cls-2" points="76.25 52.01 75.5 51.58 75.33 51.69 75.24 51.88"/><line class="cls-2" x1="75.5" y1="51.58" x2="75.93" y2="51.33"/><polyline class="cls-2" points="77.29 52.61 77.72 52.37 75.93 51.33"/><line class="cls-2" x1="77.83" y1="52.54" x2="77.72" y2="52.37"/><polyline class="cls-2" points="80.11 56 80.82 56.41 80.82 55.08 80.11 54.68 80.11 56"/><line class="cls-2" x1="80.11" y1="54.68" x2="80.11" y2="54.23"/><polyline class="cls-2" points="80.82 55.08 80.9 54.89 80.86 54.66 80.11 54.23"/><line class="cls-2" x1="77.93" y1="55.94" x2="77.96" y2="55.79"/><line class="cls-2" x1="77.96" y1="55.79" x2="77.93" y2="55.85"/><polyline class="cls-2" points="77.93 55.85 77.93 55.94 80.11 54.68"/><polyline class="cls-2" points="80.11 54.23 78.02 55.43 77.96 55.79"/><path class="cls-2" d="m78.02,55.43c-.08-.32-.37-.41-.7-.22"/><line class="cls-2" x1="77.46" y1="55.58" x2="77.32" y2="55.21"/><path class="cls-2" d="m77.93,55.85c0-.29-.2-.41-.46-.27"/><path class="cls-2" d="m77.55,54.98c-.13-.08-.32-.06-.51.05"/><line class="cls-2" x1="77.32" y1="55.21" x2="77.04" y2="55.04"/><line class="cls-2" x1="79.81" y1="54.06" x2="77.87" y2="55.19"/><polyline class="cls-2" points="79.81 54.06 79.07 53.63 78.9 53.74 78.83 53.95"/><line class="cls-2" x1="79.07" y1="53.63" x2="79.49" y2="53.4"/><polyline class="cls-2" points="80.86 54.66 81.29 54.42 79.49 53.4"/><polyline class="cls-2" points="80.9 54.89 81.39 54.59 81.29 54.42"/><line class="cls-2" x1="81.39" y1="54.59" x2="81.39" y2="56.6"/><line class="cls-2" x1="81.78" y1="56.96" x2="80.82" y2="56.41"/><line class="cls-2" x1="77.19" y1="57.69" x2="80.11" y2="56"/><line class="cls-2" x1="80.56" y1="57.05" x2="80.22" y2="56.86"/><path class="cls-2" d="m78.43,57.61c-.12.07-.12.19,0,.26"/><line class="cls-2" x1="79.79" y1="56.86" x2="78.43" y2="57.63"/><path class="cls-2" d="m80.24,56.82c-.12-.07-.32-.07-.44,0"/><polyline class="cls-2" points="78.7 58.74 75.5 56.9 75.74 56.86 78.75 58.59"/><path class="cls-2" d="m79.4,57.7c-.33.19-.61.61-.69,1.02"/><line class="cls-2" x1="80.54" y1="57.07" x2="79.39" y2="57.73"/><path class="cls-2" d="m81.46,57.39c-.08-.32-.37-.41-.7-.22"/><path class="cls-2" d="m81.06,56.99c-.13-.08-.32-.06-.51.05"/><line class="cls-2" x1="80.75" y1="57.2" x2="80.54" y2="57.07"/><line class="cls-2" x1="81.35" y1="57.22" x2="83.32" y2="56.09"/><line class="cls-2" x1="81.44" y1="57.41" x2="83.59" y2="56.17"/><line class="cls-2" x1="83.94" y1="55.94" x2="83.06" y2="55.45"/><line class="cls-2" x1="69.12" y1="51.8" x2="69.26" y2="52.18"/><line class="cls-2" x1="69.26" y1="52.18" x2="70.4" y2="51.52"/><line class="cls-2" x1="70.4" y1="51.52" x2="70.27" y2="51.16"/><line class="cls-2" x1="70.27" y1="51.16" x2="69.12" y2="51.8"/><line class="cls-2" x1="70.05" y1="51.03" x2="68.9" y2="51.69"/><line class="cls-2" x1="68.9" y1="51.69" x2="69.12" y2="51.8"/><line class="cls-2" x1="70.27" y1="51.16" x2="70.05" y2="51.03"/><path class="cls-2" d="m70.57,50.95c-.13-.08-.32-.06-.51.05"/><path class="cls-2" d="m70.97,51.35c-.08-.32-.37-.41-.7-.22"/><polyline class="cls-2" points="78.9 59.23 78.9 59.06 68.2 52.91 68.2 52.97"/><path class="cls-2" d="m68.91,51.66c-.39.22-.71.77-.72,1.23"/><polyline class="cls-2" points="74.15 50.3 73.26 49.79 70.87 51.18"/><line class="cls-2" x1="73.04" y1="50.17" x2="70.95" y2="51.37"/><line class="cls-2" x1="73.04" y1="50.62" x2="70.87" y2="51.86"/><polyline class="cls-2" points="70.87 51.86 70.89 51.73 70.95 51.37"/><path class="cls-2" d="m70.87,51.78c0-.29-.2-.41-.46-.27"/><line class="cls-2" x1="70.89" y1="51.73" x2="70.87" y2="51.8"/><line class="cls-2" x1="70.87" y1="51.8" x2="70.87" y2="51.86"/><path class="cls-2" d="m69.28,52.17c-.21.12-.4.4-.45.67"/><line class="cls-2" x1="68.67" y1="52.78" x2="71.68" y2="54.51"/><path class="cls-2" d="m69.13,51.79c-.33.19-.61.61-.69,1.02"/><polyline class="cls-2" points="68.67 52.78 68.56 52.8 68.43 52.82 71.63 54.68"/><path class="cls-2" d="m72.33,53.65c-.33.19-.61.61-.69,1.02"/><line class="cls-2" x1="73.47" y1="52.99" x2="72.32" y2="53.65"/><line class="cls-2" x1="72.32" y1="53.65" x2="72.62" y2="53.82"/><line class="cls-2" x1="73.75" y1="53.16" x2="72.62" y2="53.82"/><line class="cls-2" x1="72.62" y1="53.82" x2="72.77" y2="54.19"/><path class="cls-2" d="m72.63,53.8c-.33.19-.61.61-.69,1.02"/><polyline class="cls-2" points="75.2 56.73 71.93 54.83 72.17 54.79 75.24 56.56"/><path class="cls-2" d="m75.92,55.7c-.33.19-.61.61-.69,1.02"/><line class="cls-2" x1="77.04" y1="55.04" x2="75.91" y2="55.7"/><line class="cls-2" x1="75.91" y1="55.7" x2="76.18" y2="55.87"/><line class="cls-2" x1="77.32" y1="55.21" x2="76.18" y2="55.87"/><line class="cls-2" x1="76.18" y1="55.87" x2="76.33" y2="56.24"/><line class="cls-2" x1="77.46" y1="55.58" x2="76.33" y2="56.24"/><path class="cls-2" d="m76.35,56.23c-.21.12-.4.4-.45.67"/><path class="cls-2" d="m76.19,55.87c-.33.19-.61.61-.69,1.02"/><path class="cls-2" d="m79.61,57.83c-.39.22-.71.77-.72,1.23"/><line class="cls-2" x1="79.39" y1="57.73" x2="79.6" y2="57.84"/><line class="cls-2" x1="79.6" y1="57.84" x2="80.75" y2="57.2"/><line class="cls-2" x1="74.26" y1="50.49" x2="74.26" y2="52.5"/><line class="cls-2" x1="80.22" y1="56.86" x2="80.22" y2="57.24"/><line class="cls-2" x1="79.79" y1="57.5" x2="79.79" y2="56.86"/><line class="cls-2" x1="78.43" y1="57.63" x2="78.43" y2="57.88"/><line class="cls-2" x1="73.98" y1="52.95" x2="74.26" y2="53.12"/><line class="cls-2" x1="77.55" y1="55" x2="77.83" y2="55.17"/><line class="cls-2" x1="81.03" y1="57.01" x2="81.24" y2="57.13"/><line class="cls-2" x1="70.55" y1="50.98" x2="70.76" y2="51.09"/><line class="cls-2" x1="48.59" y1="68.45" x2="48.59" y2="73.13"/><path class="cls-2" d="m48.59,73.11c3,7.95,8.68,15.08,14.84,18.64,6.16,3.55,11.84,2.96,14.83-1.54"/><polyline class="cls-2" points="78.26 90.21 78.26 85.54 48.59 68.45"/><line class="cls-2" x1="52.39" y1="70.93" x2="50.3" y2="74.52"/><line class="cls-2" x1="63.07" y1="83.85" x2="52.39" y2="70.93"/><path class="cls-2" d="m61.33,86.84c.61,1.31,1.71,2.28,2.65,2.33.94.05,1.45-.82,1.24-2.11-.21-1.28-1.09-2.63-2.12-3.22"/><line class="cls-2" x1="50.3" y1="74.52" x2="61.3" y2="86.84"/><path class="cls-2" d="m48.32,68.16c.04.11.14.21.28.29"/><polyline class="cls-2" points="48.29 72.87 48.29 72.89 48.29 72.92 48.31 72.94 48.31 72.96 48.34 72.98 48.34 73 48.36 73.02 48.38 73.02 48.4 73.04 48.42 73.07 48.46 73.09 48.49 73.09 48.51 73.11 48.55 73.11 48.59 73.13"/><polyline class="cls-2" points="79.64 90.45 79.6 90.47 79.56 90.47 79.54 90.49 79.49 90.51 79.45 90.51 79.41 90.53 79.37 90.53 79.3 90.53 79.26 90.56 79.22 90.56 79.17 90.56 79.13 90.56 79.09 90.56 79.02 90.53 78.98 90.53 78.94 90.53 78.9 90.51 78.83 90.51 78.79 90.49 78.75 90.49 78.7 90.47 78.66 90.45 78.62 90.43 78.55 90.41 78.51 90.38 78.49 90.36 78.45 90.34 78.4 90.32 78.36 90.3 78.32 90.28 78.3 90.24 78.26 90.21"/><path class="cls-2" d="m76.12,93.66c1.42-.7,2.62-1.79,3.54-3.23"/><line class="cls-2" x1="79.64" y1="85.56" x2="79.64" y2="90.45"/><path class="cls-2" d="m78.25,85.54c.38.22,1,.23,1.4.02"/><polyline class="cls-2" points="79.64 85.56 79.64 85.49 79.64 85.41 79.62 85.35 79.62 85.26 79.62 85.2 79.6 85.13 79.58 85.07 79.58 84.98 79.56 84.92 79.54 84.85 79.52 84.81 79.49 84.75 79.45 84.68 79.43 84.62 79.41 84.58 79.37 84.53 79.34 84.47 79.3 84.43 79.26 84.38 79.22 84.34 79.17 84.3 79.13 84.26 79.09 84.23 79.05 84.19 79 84.17 78.94 84.13 78.9 84.11 78.83 84.09 78.79 84.06 78.72 84.04 78.68 84.04 78.62 84.02"/><path class="cls-2" d="m77.75,84.58c.34.07.69-.16.87-.56"/><line class="cls-1" x1="77.81" y1="84.62" x2="77.81" y2="84.62"/><path class="cls-2" d="m78.26,85.54c0-.44-.16-.78-.45-.94"/><polyline class="cls-2" points="77.08 73.3 77.08 73.28 77.08 73.26 77.08 73.22 77.08 73.15 77.08 73.09 77.08 73 77.1 72.94 77.1 72.85 77.1 72.79 77.12 72.7 77.12 72.62 77.14 72.55 77.14 72.51 77.17 72.47 77.19 72.45 77.19 72.4 77.21 72.36 77.23 72.34 77.25 72.3 77.27 72.28 77.29 72.23 77.32 72.21 77.34 72.19 77.36 72.15"/><line class="cls-2" x1="77.08" y1="73.3" x2="77.08" y2="83.27"/><path class="cls-2" d="m77.09,83.27c0,.28.13.47.34.51"/><line class="cls-2" x1="78.62" y1="84.02" x2="77.42" y2="83.79"/><polyline class="cls-2" points="79.64 90.45 80.86 89.83 82.08 89.21 83.29 88.59 84.53 87.99 85.75 87.37 86.99 86.75 88.21 86.14 89.45 85.49 89.45 65.72 87.93 66.53 86.41 67.34 84.9 68.13 83.38 68.94 81.86 69.76 80.37 70.55 78.85 71.36 77.36 72.15 77.34 72.08 77.29 72.02 77.27 71.96 77.23 71.91 77.19 71.85 77.14 71.78 77.1 71.72 77.06 71.68 77.02 71.61 76.97 71.57 76.93 71.51 76.87 71.46 76.85 71.42 76.8 71.38 76.76 71.34 76.72 71.29"/><polyline class="cls-2" points="76.46 71.61 76.48 71.59 76.53 71.55 76.55 71.51 76.59 71.46 76.61 71.42 76.65 71.38 76.67 71.34 76.72 71.29"/><polyline class="cls-2" points="76.46 71.61 76.44 71.66 76.4 71.7 76.38 71.76 76.33 71.81 76.31 71.85 76.27 71.89 76.23 71.96 76.2 72 76.16 72.06 76.14 72.1 76.1 72.17 76.06 72.23 76.03 72.28 75.99 72.34 75.97 72.4 75.95 72.45 75.91 72.51 75.88 72.57 75.86 72.62 75.84 72.68 75.82 72.75 75.8 72.79 75.78 72.85 75.76 72.92 75.76 72.96 75.74 73.02 75.74 73.09 75.71 73.13 75.71 73.19 75.71 73.24 75.69 73.3 75.69 73.36 75.74 73.36 75.76 73.39 75.78 73.39 75.8 73.41 75.84 73.43 75.86 73.43 75.93 73.45 75.99 73.47 76.08 73.47 76.14 73.49 76.2 73.49 76.29 73.51 76.35 73.51 76.42 73.49 76.48 73.49 76.53 73.49 76.59 73.47 76.63 73.47 76.67 73.47 76.72 73.45 76.76 73.45 76.8 73.43 76.82 73.43 76.87 73.41 76.89 73.41 76.91 73.39 76.93 73.39 76.97 73.36 77 73.36 77.02 73.34 77.04 73.34 77.06 73.32 77.08 73.32 77.08 73.3"/><line class="cls-2" x1="75.69" y1="83.25" x2="75.69" y2="73.36"/><path class="cls-2" d="m75.71,83.25c.38.22,1,.23,1.4.02"/><path class="cls-2" d="m75.71,83.25c0,.44.16.78.44.94"/><path class="cls-2" d="m76.58,84.34c.34.07.69-.16.87-.56"/><line class="cls-2" x1="46.29" y1="66.32" x2="75.69" y2="83.25"/><path class="cls-2" d="m46.29,66.29c0,.44.15.77.41.92"/><line class="cls-1" x1="46.69" y1="67.21" x2="46.69" y2="67.21"/><polyline class="cls-2" points="75.69 73.36 46.29 56.41 46.29 66.32"/><polyline class="cls-2" points="45.99 55.92 45.99 55.96 45.99 55.98 45.99 56.02 45.99 56.05 46.01 56.09 46.01 56.11 46.03 56.15 46.05 56.17 46.07 56.22 46.09 56.24 46.12 56.28 46.14 56.3 46.18 56.34 46.2 56.37 46.24 56.39 46.29 56.41"/><path class="cls-2" d="m45.99,65.88h0"/><path class="cls-2" d="m45.99,65.88c0,.16.11.31.3.42"/><polyline class="cls-2" points="46.86 54.57 46.84 54.61 46.8 54.68 46.78 54.72 46.73 54.76 46.67 54.85 46.65 54.91 46.61 54.96 46.59 55 46.56 55.06 46.54 55.11 46.52 55.17 46.5 55.23 46.48 55.28 46.46 55.34 46.44 55.4 46.41 55.47 46.39 55.53 46.39 55.62 46.37 55.68 46.35 55.75 46.35 55.81 46.33 55.87 46.33 55.94 46.31 56 46.31 56.05 46.31 56.11 46.29 56.17 46.29 56.24 46.29 56.3 46.29 56.34 46.29 56.41"/><polyline class="cls-2" points="46.86 54.57 46.91 54.53 46.93 54.49 46.97 54.44 47.01 54.4 47.03 54.38 47.08 54.34 47.12 54.32 47.16 54.27"/><polyline class="cls-2" points="47.16 54.27 47.1 54.25 47.06 54.25 47.01 54.23 46.97 54.23 46.93 54.23 46.88 54.21 46.84 54.21 46.8 54.21 46.78 54.21 46.73 54.21 46.69 54.23 46.67 54.23 46.63 54.25 46.61 54.25 46.59 54.27 46.56 54.29"/><polyline class="cls-2" points="48.59 68.45 48.59 68.39 48.57 68.32"/><path class="cls-2" d="m85.76,88.9c1.49-.73,2.74-1.89,3.69-3.41"/><path class="cls-2" d="m89.45,65.71c-1.27-3.47-3.04-6.87-5.2-9.97"/><path class="cls-2" d="m62.58,43.26c-.88.25-1.71.63-2.46,1.13"/><polyline class="cls-2" points="62.56 43.64 62.56 43.25 61.94 43.68 61.3 44.09 60.66 44.49 60.02 44.92"/><line class="cls-2" x1="57.5" y1="46.56" x2="57.22" y2="46.73"/><path class="cls-2" d="m58.19,53.48c-.25.52-.12,1.37.32,2.13s1.11,1.3,1.68,1.35"/><path class="cls-2" d="m61.78,55.53c-.25.52-.12,1.37.32,2.13s1.11,1.3,1.68,1.35"/><path class="cls-2" d="m65.35,57.6c-.25.52-.12,1.37.32,2.13s1.11,1.3,1.68,1.35"/><path class="cls-2" d="m68.91,59.65c-.25.52-.12,1.37.32,2.13s1.11,1.3,1.68,1.35"/><path class="cls-2" d="m72.48,61.7c-.25.52-.12,1.37.32,2.13s1.11,1.3,1.68,1.35"/><path class="cls-2" d="m54.63,51.43c-.25.52-.12,1.37.32,2.13s1.11,1.3,1.68,1.35"/><path class="cls-2" d="m64.61,88.29c.17.07.34.11.5.12"/><polyline class="cls-2" points="61.92 86.33 56.11 79.81 55.08 78.72 51.54 75.22"/><path class="cls-2" d="m51.01,74.62c.18.19.37.38.56.57"/><line class="cls-2" x1="52.99" y1="71.66" x2="52.65" y2="71.85"/><path class="cls-2" d="m52.65,71.84c.18.21.37.41.56.61"/><line class="cls-2" x1="56.54" y1="75.99" x2="53.21" y2="72.45"/><path class="cls-2" d="m57.19,76.72c-.22-.25-.44-.49-.66-.73"/><polyline class="cls-2" points="63.09 83.85 63.26 84.06 63.33 84.02"/><path class="cls-2" d="m63.79,84.39c-.17-.14-.35-.26-.53-.34"/><path class="cls-2" d="m61.93,86.31c.44,1.1,1.34,1.98,2.13,2.08s1.24-.61,1.06-1.68"/><line class="cls-2" x1="56.11" y1="79.81" x2="57.54" y2="77.14"/><line class="cls-2" x1="56.54" y1="75.99" x2="55.08" y2="78.72"/><polyline class="cls-2" points="53.21 72.47 52.78 73.15 52.37 73.83 51.97 74.52 51.54 75.22"/><line class="cls-2" x1="52.86" y1="71.49" x2="52.65" y2="71.85"/><path class="cls-2" d="m50.31,74.52c.15.17.3.34.46.5"/><polyline class="cls-2" points="50.98 74.65 50.77 75.03 51.16 74.82"/><line class="cls-2" x1="61.3" y1="86.84" x2="61.98" y2="86.46"/><line class="cls-2" x1="77.32" y1="72.06" x2="77.32" y2="72.06"/><line class="cls-2" x1="75.76" y1="72.94" x2="75.76" y2="72.94"/><polyline class="cls-2" points="78.9 59.23 79.56 58.8 80.22 58.37 80.88 57.92 81.57 57.5 82.23 57.07 82.89 56.62 83.57 56.17 84.26 55.75"/><polyline class="cls-2" points="79.54 69.29 79.28 69.65 79 69.99 78.75 70.35 78.47 70.72 78.19 71.08 77.91 71.42 77.64 71.78 77.36 72.15"/><path class="cls-2" d="m78.9,59.22s-.07-.1-.1-.14"/><polyline class="cls-2" points="75.2 61.3 77 60.19 78.79 59.08"/><path class="cls-2" d="m79.56,69.27c-1.15-2.78-2.62-5.49-4.34-7.99"/><polyline class="cls-2" points="79.54 69.29 79.47 69.26 79.41 69.26 79.32 69.24 79.26 69.22 79.19 69.22 79.11 69.2 79.05 69.2 78.98 69.18 78.9 69.18 78.83 69.18 78.75 69.16 78.68 69.16 78.6 69.14 78.53 69.14 78.47 69.14 78.4 69.14"/><line class="cls-2" x1="78.4" y1="69.14" x2="76.72" y2="71.29"/><polyline class="cls-2" points="78.4 69.14 78.34 69.14 78.28 69.12 78.21 69.12 78.15 69.09 78.11 69.07 78.04 69.05 77.98 69.03 77.93 68.99 73.3 66.34 73.28 66.27 73.26 66.23 73.24 66.19 73.22 66.15 73.19 66.13 73.17 66.08 73.13 66.04 73.11 66.02 73.09 65.98 73.04 65.95 73.02 65.93 72.98 65.89 72.96 65.87 72.92 65.85 72.89 65.83 72.85 65.8 72.81 65.78 72.77 65.76 72.72 65.74 72.68 65.72 72.64 65.72 72.6 65.7 72.55 65.68 72.51 65.68 72.47 65.66 72.4 65.66 72.36 65.63 72.3 65.63 72.23 65.61 72.19 65.61 72.13 65.61 72.06 65.61 69.73 64.27 69.71 64.22 69.69 64.18 69.67 64.14 69.65 64.1 69.63 64.05 69.58 64.03 69.56 63.99 69.54 63.97 69.52 63.93 69.48 63.9 69.46 63.86 69.41 63.84 69.39 63.82 69.35 63.8 69.31 63.78 69.29 63.75 69.24 63.73 69.2 63.71 69.16 63.69 69.12 63.67 69.07 63.65 69.03 63.65 68.99 63.63 68.94 63.61 68.9 63.61 68.84 63.58 68.79 63.58 68.73 63.58 68.67 63.56 68.6 63.56 68.56 63.56 68.47 63.56 66.17 62.22 66.15 62.17 66.13 62.13 66.1 62.09 66.08 62.05 66.06 62 66.02 61.98 66 61.94 65.98 61.9 65.93 61.88 65.91 61.83 65.89 61.81 65.85 61.79 65.83 61.77 65.78 61.73 65.74 61.7 65.72 61.68 65.68 61.66 65.63 61.66 65.59 61.64 65.55 61.62 65.51 61.6 65.46 61.58 65.42 61.58 65.38 61.56 65.31 61.56 65.27 61.53 65.23 61.53 65.16 61.51 65.1 61.51 65.04 61.51 64.97 61.51 64.91 61.49 62.6 60.17 62.58 60.12 62.56 60.08 62.54 60.04 62.52 60 62.49 59.95 62.45 59.91 62.43 59.89 62.41 59.85 62.37 59.83 62.35 59.78 62.32 59.76 62.28 59.74 62.26 59.7 62.22 59.68 62.17 59.65 62.15 59.63 62.11 59.61 62.07 59.59 62.03 59.57 61.98 59.57 61.94 59.55 61.9 59.53 61.85 59.53 61.81 59.51 61.75 59.48 61.7 59.48 61.64 59.48 61.6 59.46 61.53 59.46 61.47 59.46 61.41 59.44 61.34 59.44 59.04 58.12 59.01 58.07 58.99 58.01 58.97 57.97 58.95 57.95 58.91 57.9 58.89 57.86 58.86 57.82 58.84 57.8 58.8 57.75 58.78 57.73 58.74 57.71 58.72 57.67 58.67 57.65 58.65 57.63 58.61 57.6 58.59 57.58 58.54 57.56 58.5 57.54 58.46 57.52 58.42 57.5 58.37 57.5 58.33 57.48 58.29 57.46 58.25 57.46 58.18 57.43 58.14 57.43 58.07 57.41 58.03 57.41 57.97 57.41 57.9 57.39 57.84 57.39 57.78 57.39 55.47 56.07 55.45 56 55.43 55.96 55.4 55.92 55.38 55.87 55.34 55.85 55.32 55.81 55.3 55.77 55.28 55.75 55.23 55.7 55.21 55.68 55.17 55.64 55.15 55.62 55.11 55.6 55.08 55.58 55.04 55.55 55 55.53 54.98 55.51 54.94 55.49 54.89 55.47 54.85 55.45 54.81 55.43 54.76 55.43 54.72 55.4 54.68 55.4 54.61 55.38 54.57 55.38 54.51 55.36 54.47 55.36 54.4 55.34 54.34 55.34 54.27 55.34 54.21 55.34 49.77 52.76 49.7 52.74 49.66 52.71 49.62 52.67 49.57 52.63 49.53 52.59 49.51 52.54 49.49 52.5 49.45 52.46"/><path class="cls-2" d="m49.47,52.45c-.77.6-1.54,1.21-2.3,1.82"/><line class="cls-2" x1="47.16" y1="54.27" x2="76.72" y2="71.29"/><polyline class="cls-2" points="49.45 52.46 49.45 52.42 49.43 52.39 49.43 52.35 49.4 52.33 49.4 52.29 49.38 52.27 49.38 52.24 49.38 52.2 49.38 52.18 49.38 52.16 49.38 52.14 49.38 52.12 49.4 52.09 49.4 52.07 49.4 52.05 49.43 52.03"/><path class="cls-2" d="m53.85,48.98c-.82.24-1.58.6-2.28,1.06"/><polyline class="cls-2" points="57.31 46.71 55.58 47.87 53.85 49"/><path class="cls-2" d="m57.31,46.7s-.07.02-.1.03"/><line class="cls-2" x1="57.31" y1="46.71" x2="78.79" y2="59.08"/><line class="cls-2" x1="53.85" y1="49" x2="75.2" y2="61.3"/><line class="cls-2" x1="74.28" y1="62.37" x2="53.42" y2="50.34"/><polyline class="cls-2" points="75.2 61.3 75.16 61.32 75.14 61.34 75.09 61.36 75.05 61.41 75.03 61.43 74.99 61.45 74.94 61.49 74.9 61.51 74.88 61.56 74.84 61.58 74.8 61.62 74.77 61.66 74.73 61.68 74.71 61.73 74.67 61.77 74.65 61.79 74.6 61.83 74.58 61.88 74.54 61.92 74.52 61.94 74.5 61.98 74.48 62.03 74.45 62.07 74.41 62.09 74.39 62.13 74.37 62.17 74.37 62.2 74.35 62.24 74.33 62.28 74.3 62.3 74.3 62.35 74.28 62.37"/><polyline class="cls-2" points="53.85 49 53.8 49.02 53.78 49.04 53.74 49.08 53.72 49.11 53.68 49.15 53.65 49.17 53.63 49.21 53.59 49.23 53.57 49.28 53.55 49.32 53.53 49.36 53.5 49.4 53.48 49.45 53.46 49.49 53.44 49.53 53.44 49.6 53.42 49.64 53.42 49.68 53.4 49.72 53.4 49.77 53.38 49.83 53.38 49.87 53.38 49.92 53.38 49.98 53.38 50.02 53.38 50.07 53.38 50.11 53.38 50.17 53.38 50.22 53.4 50.26 53.4 50.3 53.42 50.34"/><path class="cls-2" d="m77.94,68.98c-1-2.3-2.24-4.53-3.65-6.62"/><path class="cls-2" d="m53.41,50.34c-1.42.46-2.65,1.27-3.65,2.41"/><path class="cls-2" d="m56.65,53.93c-.29-1.13-1.12-2.21-2-2.6s-1.57.01-1.67.97c-.1.96.42,2.22,1.25,3.04"/><path class="cls-2" d="m60.21,55.98c-.27-1.03-.98-2.03-1.79-2.49-.8-.46-1.52-.29-1.79.43"/><path class="cls-2" d="m63.78,58.03c-.27-1.03-.98-2.03-1.79-2.49-.8-.46-1.52-.29-1.79.43"/><path class="cls-2" d="m67.35,60.1c-.27-1.03-.98-2.03-1.79-2.49-.8-.46-1.52-.29-1.79.43"/><path class="cls-2" d="m70.91,62.15c-.27-1.03-.98-2.03-1.79-2.49-.8-.46-1.52-.29-1.79.43"/><path class="cls-2" d="m73.32,66.32c.83.14,1.35-.52,1.25-1.59-.1-1.07-.79-2.27-1.67-2.89-.88-.62-1.71-.5-2,.3"/><path class="cls-2" d="m72.86,61.82c-.82-.38-1.43.07-1.4,1.04.03.97.69,2.11,1.51,2.62s1.52.2,1.6-.7"/><polyline class="cls-2" points="70.89 63.61 70.91 63.5 70.93 63.41 70.95 63.31 70.97 63.22 70.99 63.11 70.99 63.03 70.99 62.92 70.99 62.82 70.99 62.73 70.99 62.62 70.99 62.54 70.97 62.45 70.95 62.37 70.93 62.3 70.91 62.22 70.89 62.15"/><path class="cls-2" d="m70.9,63.59c.19.74.62,1.47,1.16,2.01"/><path class="cls-2" d="m69.76,64.27c.54.09.97-.16,1.16-.67"/><polyline class="cls-2" points="67.32 60.1 67.34 60.17 67.36 60.25 67.39 60.32 67.41 60.4 67.43 60.49 67.43 60.57 67.43 60.66 67.43 60.77 67.43 60.87 67.43 60.96 67.43 61.06 67.41 61.17 67.39 61.26 67.36 61.36 67.34 61.45 67.32 61.56"/><path class="cls-2" d="m67.34,61.54c.19.74.62,1.47,1.16,2.01"/><path class="cls-2" d="m69.29,59.77c-.82-.39-1.44.08-1.4,1.05.04.98.71,2.13,1.54,2.62s1.52.16,1.57-.77"/><path class="cls-2" d="m66.19,62.22c.54.09.97-.16,1.16-.67"/><polyline class="cls-2" points="63.75 58.05 63.78 58.12 63.8 58.18 63.82 58.27 63.84 58.35 63.84 58.44 63.86 58.52 63.86 58.61 63.86 58.72 63.86 58.8 63.86 58.91 63.84 59.01 63.84 59.1 63.82 59.21 63.8 59.29 63.78 59.4 63.75 59.51"/><path class="cls-2" d="m63.77,59.49c.19.74.62,1.47,1.16,2.01"/><path class="cls-2" d="m65.73,57.72c-.82-.39-1.44.08-1.4,1.05.04.98.71,2.13,1.54,2.62s1.52.16,1.57-.77"/><path class="cls-2" d="m62.62,60.15c.54.09.97-.16,1.16-.67"/><polyline class="cls-2" points="60.19 55.98 60.21 56.07 60.23 56.13 60.25 56.22 60.27 56.28 60.27 56.37 60.3 56.45 60.3 56.56 60.3 56.64 60.3 56.75 60.3 56.86 60.27 56.94 60.27 57.05 60.25 57.16 60.23 57.24 60.21 57.35 60.19 57.43"/><path class="cls-2" d="m60.21,57.42c.19.74.62,1.47,1.16,2.01"/><path class="cls-2" d="m62.16,55.67c-.82-.39-1.44.08-1.4,1.05.04.98.71,2.13,1.54,2.62s1.52.16,1.57-.77"/><path class="cls-2" d="m59.06,58.1c.54.09.97-.16,1.16-.67"/><polyline class="cls-2" points="56.62 53.93 56.64 54 56.66 54.08 56.69 54.14 56.71 54.23 56.71 54.32 56.73 54.4 56.73 54.51 56.73 54.59 56.73 54.7 56.73 54.81 56.71 54.89 56.71 55 56.69 55.08 56.66 55.19 56.64 55.3 56.62 55.38"/><path class="cls-2" d="m56.64,55.37c.19.74.62,1.47,1.16,2.01"/><path class="cls-2" d="m58.59,53.6c-.82-.39-1.44.08-1.4,1.05.04.98.71,2.13,1.54,2.62s1.52.16,1.57-.77"/><path class="cls-2" d="m55.49,56.05c.54.09.97-.16,1.16-.67"/><path class="cls-2" d="m55.03,51.55c-.82-.39-1.44.08-1.4,1.05.04.98.71,2.13,1.54,2.62s1.52.16,1.57-.77"/><line class="cls-2" x1="48.29" y1="72.87" x2="48.29" y2="68.15"/><polyline class="cls-2" points="48.29 72.92 48.42 73.24 48.55 73.56 48.68 73.88 48.81 74.2 48.93 74.52 49.06 74.84 49.21 75.16 49.34 75.46 49.49 75.78 49.64 76.1 49.79 76.4 49.94 76.72 50.09 77.04 50.26 77.34 50.41 77.66 50.58 77.96 50.73 78.26 50.9 78.58 51.07 78.87 51.24 79.17 51.43 79.47 51.6 79.77 51.77 80.07 51.97 80.37 52.16 80.67 52.33 80.97 52.52 81.24 52.71 81.54 52.91 81.84 53.12 82.12 53.31 82.4 53.5 82.68 53.72 82.97 53.91 83.25 54.12 83.51 54.34 83.79 54.55 84.06 54.76 84.34 54.98 84.6 55.19 84.85 55.4 85.13 55.62 85.39 55.83 85.64 56.07 85.88 56.28 86.14 56.52 86.39 56.75 86.63 56.96 86.88 57.2 87.12 57.43 87.35 57.67 87.59 57.9 87.82 58.14 88.04 58.37 88.27 58.61 88.48 58.84 88.7 59.08 88.91 59.33 89.12 59.57 89.34 59.8 89.53 60.06 89.74 60.3 89.94 60.55 90.13 60.79 90.32 61.04 90.51 61.28 90.68 61.53 90.88 61.77 91.05 62.03 91.22 62.28 91.39 62.52 91.54 62.77 91.71 63.03 91.86 63.29 92.01 63.52 92.16 63.78 92.31 64.03 92.46 64.29 92.58 64.54 92.71 64.78 92.84 65.04 92.97 65.29 93.1 65.55 93.2 65.8 93.31 66.04 93.42 66.3 93.52 66.55 93.63 66.81 93.72 67.06 93.8 67.3 93.89 67.56 93.97 67.81 94.06 68.05 94.12 68.3 94.19 68.56 94.25 68.79 94.31 69.05 94.38 69.29 94.42 69.54 94.46 69.78 94.51 70.03 94.55 70.27 94.57 70.52 94.59 70.76 94.61 70.99 94.63 71.23 94.66 71.46 94.66 71.7 94.66 71.93 94.66 72.17 94.66 72.4 94.63 72.64 94.61 72.87 94.59 73.11 94.57 73.32 94.53 73.56 94.51 73.77 94.46 74.01 94.4 74.22 94.36 74.43 94.29 74.65 94.25 74.86 94.16 75.07 94.1 75.29 94.02 75.5 93.95 75.69 93.87 75.91 93.76 76.1 93.67"/><polyline class="cls-2" points="77.81 84.6 77.79 84.6 77.76 84.58 77.74 84.58"/><polyline class="cls-2" points="77.74 84.58 76.57 84.34 76.5 84.34 76.46 84.32 76.4 84.3 76.33 84.28 76.29 84.26 76.23 84.23 76.18 84.21 76.14 84.19"/><line class="cls-2" x1="46.69" y1="67.24" x2="76.12" y2="84.19"/><line class="cls-2" x1="45.99" y1="55.98" x2="45.99" y2="65.89"/><polyline class="cls-2" points="45.99 55.92 45.99 55.87 46.01 55.83 46.01 55.77 46.01 55.73 46.03 55.62 46.05 55.51 46.07 55.4 46.09 55.3 46.12 55.19 46.14 55.08 46.16 55.02 46.18 54.98 46.2 54.91 46.22 54.87 46.22 54.81 46.24 54.76 46.29 54.7 46.31 54.66 46.33 54.61 46.35 54.55 46.37 54.51 46.41 54.47 46.44 54.42 46.48 54.38 46.52 54.34 46.54 54.32 46.56 54.29"/><polyline class="cls-2" points="45.99 65.91 45.99 66 45.99 66.08 46.01 66.15 46.03 66.23 46.03 66.32 46.05 66.42 46.09 66.51 46.14 66.6 46.18 66.68 46.2 66.72 46.22 66.77 46.24 66.81 46.29 66.85 46.31 66.89 46.35 66.94 46.37 66.98 46.41 67.02 46.46 67.06 46.5 67.11 46.54 67.13 46.59 67.17 46.65 67.19 46.69 67.24"/><line class="cls-2" x1="76.1" y1="93.67" x2="85.75" y2="88.91"/><line class="cls-2" x1="64.61" y1="88.31" x2="65.21" y2="87.99"/><polyline class="cls-2" points="49.43 52.03 48.72 52.59 47.99 53.14 47.29 53.72 46.56 54.27"/><line class="cls-2" x1="51.56" y1="50.07" x2="57.75" y2="45.94"/><line class="cls-2" x1="59.51" y1="44.79" x2="60.1" y2="44.39"/><polyline class="cls-2" points="51.56 50.07 51.41 50.17 51.26 50.28 51.13 50.39 50.98 50.49 50.83 50.6 50.71 50.73 50.56 50.83 50.43 50.96 50.3 51.09 50.15 51.22 50.02 51.35 49.9 51.48 49.79 51.6 49.66 51.75 49.53 51.9 49.43 52.03"/><line class="cls-1" x1="78.7" y1="70.4" x2="78.7" y2="70.4"/><line class="cls-2" x1="78.7" y1="70.4" x2="78.7" y2="70.4"/><polyline class="cls-2" points="62.37 47.03 62.35 47.06 62.32 47.06 62.3 47.06 62.28 47.06 62.26 47.08 62.22 47.08 62.2 47.1 62.17 47.1 62.15 47.12 62.11 47.12 62.09 47.14 62.05 47.16 62.03 47.18 62 47.18 61.96 47.2 61.94 47.23 60.94 47.8"/><path class="cls-2" d="m62.42,47.04s-.02,0-.03,0"/><line class="cls-2" x1="63.56" y1="46.33" x2="63.43" y2="46.39"/><line class="cls-2" x1="62.37" y1="47.03" x2="62.37" y2="47.06"/><line class="cls-2" x1="61.94" y1="47.31" x2="61.94" y2="47.23"/><line class="cls-2" x1="61.3" y1="47.78" x2="61.09" y2="47.89"/><line class="cls-2" x1="63.56" y1="46.33" x2="63.56" y2="46.48"/><line class="cls-2" x1="56.6" y1="53.85" x2="56.49" y2="53.93"/><polyline class="cls-2" points="56.49 53.93 56.47 53.93 56.45 53.93 56.43 53.93 56.41 53.93 56.41 53.91 56.39 53.89 56.39 53.85 56.39 53.25"/><polyline class="cls-2" points="55.73 52.2 55.6 52.29 55.94 52.5"/><path class="cls-2" d="m55.4,51.86c-.01.68.4,1.52.98,1.99"/><path class="cls-2" d="m55.57,52.02c0,.08.01.17.03.26"/><polyline class="cls-2" points="56.41 53.93 56.34 53.87 56.3 53.82 56.24 53.78 56.2 53.72 56.13 53.68 56.09 53.61 56.02 53.55 55.98 53.5 55.94 53.44 55.9 53.38 55.85 53.31 55.81 53.25 55.77 53.16 55.73 53.1 55.68 53.03 55.64 52.97 55.62 52.89 55.58 52.82 55.55 52.76 55.51 52.67 55.49 52.61 55.47 52.52 55.45 52.46 55.43 52.39 55.4 52.31 55.38 52.24 55.38 52.16 55.36 52.09 55.36 52.03 55.36 51.97 55.36 51.88 55.34 51.82"/><polyline class="cls-2" points="73.09 53.21 73.07 53.21 73.04 53.21 73 53.23 72.98 53.23 72.96 53.23 72.94 53.25 72.89 53.25 72.87 53.27 72.85 53.29 72.81 53.29 72.79 53.31 72.77 53.33 72.72 53.33 72.7 53.35 72.68 53.38 72.66 53.38 71.63 53.97"/><path class="cls-2" d="m73.12,53.19s-.02,0-.03,0"/><line class="cls-2" x1="74.26" y1="52.5" x2="74.13" y2="52.56"/><line class="cls-2" x1="73.09" y1="53.21" x2="73.09" y2="53.23"/><line class="cls-2" x1="72.66" y1="53.46" x2="72.66" y2="53.38"/><line class="cls-2" x1="72" y1="53.93" x2="71.81" y2="54.06"/><line class="cls-2" x1="74.26" y1="52.5" x2="74.26" y2="52.63"/><line class="cls-2" x1="67.3" y1="60.02" x2="67.19" y2="60.08"/><polyline class="cls-2" points="67.19 60.08 67.17 60.1 67.15 60.1 67.13 60.1 67.11 60.08 67.09 60.06 67.09 60.04 67.09 60.02 67.09 59.42"/><polyline class="cls-2" points="66.42 58.37 66.3 58.46 66.66 58.67"/><path class="cls-2" d="m66.12,58.01c-.01.68.4,1.52.98,1.99"/><path class="cls-2" d="m66.29,58.17c0,.08.01.17.03.26"/><polyline class="cls-2" points="67.11 60.08 67.04 60.04 67 60 66.94 59.95 66.89 59.89 66.83 59.83 66.79 59.78 66.74 59.72 66.68 59.65 66.64 59.59 66.6 59.53 66.55 59.46 66.51 59.4 66.47 59.33 66.42 59.27 66.38 59.21 66.36 59.12 66.32 59.06 66.27 58.99 66.25 58.91 66.23 58.84 66.19 58.76 66.17 58.69 66.15 58.63 66.13 58.54 66.1 58.48 66.1 58.39 66.08 58.33 66.08 58.27 66.06 58.2 66.06 58.12 66.06 58.05 66.06 57.99"/><line class="cls-2" x1="67.13" y1="48.38" x2="67" y2="48.46"/><polyline class="cls-2" points="65.93 49.11 65.89 49.11 65.87 49.11 65.85 49.13 65.83 49.13 65.8 49.13 65.76 49.15 65.74 49.15 65.72 49.17 65.68 49.19 65.66 49.19 65.61 49.21 65.59 49.23 65.57 49.23 65.55 49.25 65.51 49.28 64.5 49.85"/><path class="cls-2" d="m65.99,49.09s-.02,0-.03,0"/><line class="cls-2" x1="67.13" y1="48.38" x2="67.13" y2="48.53"/><polyline class="cls-2" points="59.95 55.92 59.95 55.94 59.95 55.96 59.97 55.96 59.97 55.98 60 55.98 60.02 55.98 60.04 55.98 60.06 55.98"/><path class="cls-2" d="m58.96,53.91c-.01.68.4,1.52.98,1.99"/><polyline class="cls-2" points="59.29 54.27 59.16 54.34 59.53 54.55"/><path class="cls-2" d="m59.14,54.07c0,.08.01.17.03.26"/><line class="cls-2" x1="59.95" y1="55.3" x2="59.95" y2="55.92"/><line class="cls-2" x1="60.17" y1="55.92" x2="60.06" y2="55.98"/><line class="cls-2" x1="65.51" y1="49.36" x2="65.51" y2="49.28"/><line class="cls-2" x1="65.93" y1="49.11" x2="65.93" y2="49.11"/><line class="cls-2" x1="64.87" y1="49.83" x2="64.65" y2="49.94"/><polyline class="cls-2" points="59.97 55.98 59.91 55.94 59.87 55.87 59.8 55.83 59.76 55.79 59.7 55.73 59.65 55.66 59.61 55.62 59.55 55.55 59.51 55.49 59.46 55.43 59.42 55.36 59.38 55.3 59.33 55.23 59.29 55.15 59.25 55.08 59.21 55.02 59.18 54.96 59.14 54.87 59.12 54.81 59.08 54.72 59.06 54.66 59.04 54.59 59.01 54.51 58.99 54.44 58.97 54.36 58.97 54.29 58.95 54.23 58.93 54.14 58.93 54.08 58.93 54.02 58.93 53.95 58.93 53.87"/><line class="cls-2" x1="77.83" y1="54.55" x2="77.7" y2="54.61"/><polyline class="cls-2" points="76.65 55.26 76.63 55.26 76.61 55.28 76.57 55.28 76.55 55.28 76.53 55.3 76.5 55.3 76.46 55.32 76.44 55.32 76.42 55.34 76.38 55.34 76.35 55.36 76.33 55.38 76.29 55.38 76.27 55.4 76.25 55.43 76.23 55.43 75.2 56.02"/><path class="cls-2" d="m76.69,55.24s-.02,0-.03,0"/><line class="cls-2" x1="77.83" y1="54.55" x2="77.83" y2="54.7"/><polyline class="cls-2" points="70.65 62.07 70.65 62.09 70.65 62.11 70.67 62.13 70.67 62.15 70.7 62.15 70.72 62.15 70.74 62.15 70.76 62.13"/><path class="cls-2" d="m69.68,60.08c-.01.68.4,1.52.98,1.99"/><polyline class="cls-2" points="69.99 60.42 69.86 60.51 70.23 60.72"/><path class="cls-2" d="m69.86,60.24c0,.08.01.17.03.26"/><line class="cls-2" x1="70.65" y1="61.47" x2="70.65" y2="62.07"/><line class="cls-2" x1="70.87" y1="62.07" x2="70.76" y2="62.13"/><line class="cls-2" x1="76.23" y1="55.53" x2="76.23" y2="55.43"/><line class="cls-2" x1="76.65" y1="55.26" x2="76.65" y2="55.28"/><line class="cls-2" x1="75.56" y1="56" x2="75.37" y2="56.11"/><polyline class="cls-2" points="70.67 62.15 70.63 62.09 70.57 62.05 70.5 62 70.46 61.94 70.4 61.9 70.35 61.83 70.31 61.77 70.25 61.7 70.2 61.66 70.16 61.6 70.12 61.53 70.08 61.45 70.03 61.38 69.99 61.32 69.95 61.26 69.93 61.19 69.88 61.11 69.84 61.04 69.82 60.98 69.8 60.89 69.76 60.83 69.73 60.74 69.71 60.68 69.69 60.59 69.67 60.53 69.67 60.47 69.65 60.38 69.65 60.32 69.63 60.25 69.63 60.17 69.63 60.1 69.63 60.04"/><polyline class="cls-2" points="69.22 51.26 69.18 51.28 69.14 51.28 69.12 51.3 69.07 51.33 68.07 51.9"/><polyline class="cls-2" points="70.7 50.58 70.7 50.45 70.57 50.51"/><line class="cls-2" x1="68.24" y1="51.99" x2="68.24" y2="52.01"/><line class="cls-2" x1="69.07" y1="51.33" x2="69.07" y2="51.33"/><line class="cls-2" x1="63.73" y1="57.97" x2="63.63" y2="58.03"/><polyline class="cls-2" points="63.52 57.37 63.52 57.97 63.52 57.99 63.52 58.01 63.54 58.03 63.56 58.05 63.58 58.05 63.61 58.03 63.63 58.03"/><path class="cls-2" d="m62.55,55.96c-.01.68.4,1.52.98,1.99"/><line class="cls-2" x1="63.09" y1="56.6" x2="62.73" y2="56.41"/><path class="cls-2" d="m62.73,56.12c0,.08.01.17.03.26"/><line class="cls-2" x1="62.86" y1="56.32" x2="62.73" y2="56.41"/><polyline class="cls-2" points="63.54 58.03 63.48 57.99 63.43 57.95 63.37 57.88 63.33 57.84 63.26 57.78 63.22 57.73 63.18 57.67 63.11 57.6 63.07 57.54 63.03 57.48 62.99 57.41 62.94 57.35 62.9 57.28 62.86 57.22 62.82 57.13 62.77 57.07 62.75 57.01 62.71 56.92 62.69 56.86 62.67 56.79 62.62 56.71 62.6 56.64 62.58 56.56 62.56 56.49 62.54 56.43 62.54 56.34 62.52 56.28 62.49 56.22 62.49 56.13 62.49 56.07 62.49 56 62.49 55.94"/><polyline class="cls-2" points="79.92 57.41 79.88 57.43 79.86 57.46 79.81 57.48 79.79 57.5 78.77 58.07"/><polyline class="cls-2" points="81.39 56.75 81.39 56.6 81.27 56.69"/><line class="cls-2" x1="78.96" y1="58.16" x2="78.94" y2="58.16"/><line class="cls-2" x1="79.79" y1="57.5" x2="79.79" y2="57.5"/><line class="cls-2" x1="74.43" y1="64.14" x2="74.33" y2="64.2"/><polyline class="cls-2" points="74.22 63.52 74.22 64.14 74.22 64.16 74.22 64.18 74.24 64.18 74.24 64.2 74.26 64.2 74.28 64.2 74.3 64.2 74.33 64.2"/><path class="cls-2" d="m73.25,62.13c-.01.68.4,1.52.98,1.99"/><line class="cls-2" x1="73.79" y1="62.77" x2="73.43" y2="62.56"/><path class="cls-2" d="m73.43,62.29c0,.08.01.17.03.26"/><line class="cls-2" x1="73.56" y1="62.49" x2="73.43" y2="62.56"/><polyline class="cls-2" points="74.24 64.2 74.2 64.16 74.13 64.1 74.07 64.05 74.03 63.99 73.98 63.95 73.92 63.88 73.88 63.84 73.83 63.78 73.77 63.71 73.73 63.65 73.69 63.58 73.64 63.52 73.6 63.46 73.56 63.37 73.51 63.31 73.49 63.24 73.45 63.16 73.43 63.09 73.39 63.03 73.36 62.94 73.32 62.88 73.3 62.82 73.28 62.73 73.26 62.67 73.26 62.58 73.24 62.52 73.22 62.45 73.22 62.37 73.19 62.3 73.19 62.24 73.19 62.15 73.19 62.09"/><path class="cls-2" d="m63,43.29c-.14.04-.29.09-.43.14"/><line class="cls-2" x1="62.99" y1="43.32" x2="84.53" y2="55.73"/><path class="cls-2" d="m89.63,65.44c-1.24-3.39-2.97-6.71-5.08-9.74"/><line class="cls-2" x1="89.59" y1="65.44" x2="89.59" y2="85.13"/><path class="cls-2" d="m89.47,85.38c.05-.08.11-.16.16-.25"/><path class="cls-2" d="m86.5,88.49c1.32-.74,2.44-1.82,3.32-3.21"/><line class="cls-2" x1="89.79" y1="65.51" x2="89.79" y2="85.3"/><path class="cls-2" d="m89.81,65.5c-1.27-3.47-3.04-6.88-5.2-9.97"/><line class="cls-2" x1="62.92" y1="43.06" x2="84.6" y2="55.53"/><path class="cls-2" d="m62.95,43.05c-.75.21-1.45.51-2.1.9"/><line class="cls-2" x1="89.45" y1="85.22" x2="89.59" y2="85.13"/><line class="cls-2" x1="63.56" y1="45.15" x2="64.54" y2="45.73"/><line class="cls-2" x1="67.13" y1="47.2" x2="68.11" y2="47.78"/><line class="cls-2" x1="70.7" y1="49.25" x2="71.68" y2="49.83"/><line class="cls-2" x1="74.26" y1="51.33" x2="75.24" y2="51.9"/><line class="cls-2" x1="77.83" y1="53.38" x2="78.83" y2="53.95"/><line class="cls-2" x1="81.39" y1="55.43" x2="82.4" y2="56"/><line class="cls-2" x1="62.64" y1="43.51" x2="84.06" y2="55.85"/><path class="cls-2" d="m62.64,43.51s-.05.01-.07.02"/><polyline class="cls-2" points="94.02 62.88 92.97 63.52 91.92 64.18 90.85 64.84 89.79 65.51"/><path class="cls-2" d="m94.04,62.87c-1.24-3.37-2.96-6.67-5.05-9.68"/><polyline class="cls-2" points="84.6 55.53 85.69 54.94 86.8 54.36 87.89 53.78 88.98 53.18"/><line class="cls-2" x1="88.98" y1="53.18" x2="67.47" y2="40.8"/><polyline class="cls-2" points="67.47 40.8 66.34 41.35 65.21 41.93 64.08 42.48 62.92 43.06"/><path class="cls-2" d="m67.48,40.79c-.5.14-.97.33-1.42.55"/><path class="cls-2" d="m91.37,85.3c1.05-.7,1.95-1.63,2.67-2.78"/><polyline class="cls-2" points="89.79 85.3 90.85 84.6 91.92 83.91 92.97 83.21 94.02 82.53"/><line class="cls-2" x1="94.02" y1="82.53" x2="94.02" y2="62.88"/><polyline class="cls-2" points="94.02 82.53 94.06 82.5 94.08 82.48 94.1 82.46 94.12 82.44 94.14 82.42 94.16 82.38 94.19 82.36 94.21 82.33 94.23 82.31 94.23 82.27 94.25 82.25 94.25 82.21 94.27 82.18 94.27 82.16 94.27 82.12 94.27 82.1"/><polyline class="cls-2" points="94.02 62.88 94.06 62.84 94.1 62.82 94.12 62.79 94.14 62.77 94.16 62.75 94.21 62.73 94.21 62.71 94.23 62.69 94.25 62.64 94.25 62.62 94.27 62.6 94.27 62.58 94.27 62.56 94.27 62.54 94.27 62.52 94.27 62.49"/><polyline class="cls-2" points="88.98 53.18 89.02 53.16 89.06 53.14 89.08 53.14 89.12 53.12 89.17 53.12 89.19 53.1 89.23 53.1 89.25 53.1 89.27 53.1 89.3 53.1 89.32 53.1 89.34 53.12 89.36 53.12 89.38 53.14 89.4 53.14 89.4 53.16"/><line class="cls-2" x1="84.32" y1="55.83" x2="84.53" y2="55.73"/><line class="cls-2" x1="89.59" y1="65.44" x2="89.4" y2="65.57"/><line class="cls-2" x1="62.99" y1="43.32" x2="62.64" y2="43.51"/><polyline class="cls-2" points="67.47 40.8 67.49 40.78 67.53 40.78 67.58 40.76 67.6 40.76 67.64 40.73 67.66 40.73 67.71 40.73 67.73 40.73 67.77 40.73 67.79 40.73 67.83 40.76 67.88 40.76 67.9 40.78 67.92 40.78 67.96 40.8 67.98 40.8"/><line class="cls-2" x1="66.04" y1="41.35" x2="61.43" y2="43.64"/><line class="cls-2" x1="91.35" y1="85.3" x2="87.05" y2="88.14"/><line class="cls-2" x1="94.27" y1="62.56" x2="94.27" y2="82.1"/><polyline class="cls-2" points="94.27 62.49 94.14 62.2 94.04 61.88 93.91 61.58 93.8 61.28 93.67 60.98 93.55 60.68 93.42 60.38 93.29 60.08 93.14 59.78 93.01 59.48 92.86 59.18 92.73 58.89 92.58 58.59 92.43 58.29 92.29 57.99 92.14 57.69 91.99 57.41 91.84 57.11 91.67 56.81 91.52 56.54 91.35 56.24 91.18 55.96 91 55.66 90.83 55.38 90.66 55.11 90.49 54.83 90.32 54.55 90.15 54.25 89.96 53.97 89.79 53.72 89.59 53.44 89.4 53.16"/><polyline class="cls-2" points="67.58 40.76 67.36 40.82 67.17 40.88 66.98 40.95 66.79 41.01 66.6 41.1 66.42 41.18 66.23 41.27 66.04 41.35"/><line class="cls-2" x1="67.98" y1="40.8" x2="89.36" y2="53.12"/><polyline class="cls-2" points="91.35 85.3 91.56 85.15 91.77 85 91.97 84.85 92.16 84.7 92.35 84.53 92.54 84.36 92.73 84.17 92.9 84 93.08 83.81 93.27 83.62 93.42 83.42 93.59 83.21 93.74 83 93.91 82.78 94.06 82.57 94.21 82.36"/><polyline class="cls-2" points="73 94.57 73.24 94.81 73.49 95.04 73.73 95.25 73.98 95.47 74.24 95.68 74.5 95.89 74.75 96.11 75.01 96.3 75.27 96.49 75.52 96.68 75.78 96.88 76.06 97.07 76.31 97.24 76.57 97.41 76.85 97.58 77.12 97.75 77.38 97.9 77.66 98.05 77.91 98.2 78.19 98.35 78.47 98.48 78.75 98.61 79 98.73 79.28 98.86 79.56 98.97 79.84 99.08 80.09 99.18 80.37 99.27 80.65 99.38 80.92 99.46 81.18 99.52 81.46 99.61 81.74 99.67 81.99 99.74 82.27 99.78 82.53 99.85 82.8 99.89 83.06 99.93 83.32 99.95 83.59 99.97 83.85 99.99 84.11 100.02 84.36 100.04 84.62 100.04 84.88 100.04 85.11 100.02 85.37 100.02 85.62 99.99 85.86 99.95 86.09 99.93 86.35 99.89 86.58 99.85 86.82 99.8 87.05 99.74 87.29 99.67 87.5 99.61 87.74 99.52 87.95 99.46 88.16 99.38 88.38 99.27 88.59 99.18 88.8 99.08 89.02 98.97 89.21 98.86"/><polyline class="cls-2" points="94.89 85.35 94.91 85.32 94.95 85.3 95 85.28 95.04 85.28 95.08 85.26 95.15 85.26 95.19 85.26 95.23 85.26 95.3 85.26 95.34 85.26 95.38 85.26 95.42 85.28 95.47 85.28 95.51 85.3 95.55 85.32 95.6 85.35 95.64 85.37 95.66 85.39 95.68 85.41 95.7 85.43 95.72 85.47 95.75 85.49 95.75 85.52 95.75 85.56 95.75 85.58 95.75 85.6 95.72 85.64 95.7 85.67 95.68 85.69 95.66 85.71 95.64 85.73 95.6 85.75 95.55 85.77 95.51 85.79 95.47 85.81 95.42 85.81 95.38 85.84 95.34 85.84 95.3 85.84 95.23 85.84 95.19 85.84 95.15 85.84 95.08 85.84 95.04 85.81 95 85.81 94.95 85.79 94.91 85.77 94.89 85.75 94.85 85.73 94.83 85.71 94.78 85.69 94.76 85.67 94.76 85.62 94.74 85.6 94.74 85.58 94.74 85.54 94.74 85.52 94.74 85.49 94.76 85.45 94.76 85.43 94.78 85.41 94.83 85.39 94.85 85.37 94.89 85.35"/><polyline class="cls-2" points="73.24 94.55 73.49 94.78 73.75 95.02 74.01 95.23 74.24 95.47 74.5 95.68 74.75 95.89 75.01 96.09 75.29 96.3 75.54 96.49 75.8 96.68 76.06 96.88 76.31 97.05 76.57 97.22 76.85 97.39 77.1 97.56 77.36 97.71 77.64 97.86 77.89 98.01 78.15 98.16 78.4 98.31 78.66 98.44 78.94 98.56 79.19 98.67 79.45 98.8 79.71 98.91 79.96 99.01 80.22 99.1 80.48 99.2 80.73 99.29 80.99 99.38 81.24 99.44 81.48 99.52 81.74 99.59 81.99 99.65 82.23 99.7 82.48 99.76 82.72 99.8 82.97 99.85 83.21 99.89 83.44 99.91 83.7 99.93 83.94 99.95 84.17 99.97 84.41 99.97 84.62 99.99 84.85 99.99 85.09 99.97 85.3 99.97 85.54 99.95 85.75 99.93 85.99 99.91 86.2 99.89 86.41 99.85 86.63 99.82 86.84 99.78 87.05 99.72 87.25 99.67 87.46 99.61 87.65 99.55 87.84 99.48 88.06 99.42 88.25 99.33 88.44 99.25 88.61 99.16 88.8 99.08 89 98.99 89.17 98.88 89.36 98.78 89.53 98.67 89.7 98.56 89.87 98.44 90.04 98.31 90.19 98.18 90.36 98.05 90.51 97.92 90.68 97.77 90.83 97.62 90.98 97.47 91.13 97.33 91.28 97.18 91.43 97 91.56 96.83 91.69 96.66 91.84 96.49 91.97 96.32 92.09 96.13 92.2 95.94 92.33 95.75 92.46 95.55 92.56 95.36 92.67 95.15 92.78 94.95 92.88 94.74 92.99 94.53 93.1 94.29 93.18 94.08 93.27 93.84 93.37 93.63 93.46 93.4 93.55 93.16 93.61 92.93 93.69 92.67 93.78 92.43 93.84 92.18 93.91 91.92 93.97 91.69 94.04 91.43 94.1 91.15 94.16 90.9 94.21 90.64 94.27 90.36 94.31 90.11 94.36 89.83 94.4 89.55 94.44 89.3 94.49 89.02 94.51 88.74 94.55 88.44 94.57 88.16 94.59 87.89 94.63 87.59 94.66 87.31 94.68 87.01 94.68 86.73 94.7 86.43 94.72 86.14 94.72 85.84 94.74 85.54"/><polyline class="cls-2" points="95.75 85.56 95.75 85.88 95.72 86.18 95.7 86.5 95.7 86.82 95.68 87.12 95.66 87.44 95.64 87.74 95.6 88.04 95.57 88.33 95.53 88.66 95.51 88.95 95.47 89.25 95.42 89.53 95.38 89.83 95.34 90.13 95.28 90.41 95.23 90.71 95.17 90.98 95.1 91.26 95.04 91.54 94.98 91.82 94.91 92.09 94.85 92.37 94.76 92.63 94.68 92.9 94.59 93.16 94.51 93.42 94.42 93.67 94.34 93.93 94.23 94.19 94.14 94.42 94.04 94.68 93.93 94.91 93.8 95.15 93.69 95.38 93.57 95.62 93.46 95.83 93.33 96.04 93.2 96.28 93.05 96.49 92.93 96.68 92.78 96.9 92.63 97.09 92.48 97.3 92.33 97.5 92.18 97.67 92.01 97.86 91.84 98.03 91.69 98.22 91.5 98.39 91.32 98.54 91.15 98.71 90.96 98.86 90.79 99.01 90.6 99.16 90.41 99.29 90.21 99.42 90.02 99.55 89.81 99.67 89.62 99.8 89.4 99.91 89.19 100.02 88.98 100.12 88.76 100.21 88.55 100.29 88.33 100.38 88.1 100.46 87.86 100.53 87.65 100.61 87.42 100.68 87.18 100.72 86.95 100.78 86.69 100.83 86.46 100.87 86.22 100.91 85.96 100.93 85.73 100.96 85.47 100.98 85.22 101 84.96 101 84.73 101 84.47 101 84.21 100.98 83.94 100.98 83.68 100.96 83.42 100.91 83.17 100.89 82.89 100.85 82.63 100.81 82.36 100.76 82.08 100.7 81.82 100.64 81.54 100.57 81.27 100.51 80.99 100.42 80.71 100.34 80.43 100.25 80.18 100.17 79.9 100.06 79.62 99.95 79.34 99.85 79.07 99.72 78.79 99.59 78.51 99.46 78.21 99.33 77.93 99.18 77.66 99.03 77.38 98.88 77.1 98.73 76.82 98.56 76.55 98.39 76.25 98.22 75.97 98.03 75.69 97.84 75.41 97.65 75.14 97.45 75.01 97.35 74.86 97.24 74.73 97.15 74.58 97.05 74.45 96.94 74.3 96.83 74.18 96.71 74.05 96.6 73.9 96.49 73.77 96.39 73.64 96.26 73.49 96.15 73.36 96.02 73.24 95.92 73.09 95.79 72.96 95.68 72.83 95.55 72.7 95.42 72.55 95.3 72.43 95.17 72.3 95.04 72.17 94.91 72.04 94.78 71.91 94.66"/><circle class="cls-3" cx="63.79" cy="86.88" r="7.66"/></svg>