<?xml version="1.0" encoding="UTF-8"?><svg id="Layer_1" xmlns="http://www.w3.org/2000/svg" viewBox="0 0 141.73 141.73"><defs><style>.cls-1{stroke-linejoin:bevel;}.cls-1,.cls-2{fill:none;stroke:#000;stroke-linecap:round;stroke-width:.33px;}.cls-2{stroke-linejoin:round;}</style></defs><line class="cls-2" x1="65.36" y1="56.52" x2="65.27" y2="56.57"/><line class="cls-2" x1="65.41" y1="56.03" x2="65.31" y2="56.07"/><line class="cls-2" x1="65.55" y1="54.55" x2="65.53" y2="54.58"/><line class="cls-2" x1="65.41" y1="55.57" x2="65.39" y2="55.57"/><polyline class="cls-2" points="82.78 97.9 82.85 97.9 82.9 97.88 82.94 97.85 82.99 97.83"/><path class="cls-2" d="m83.01,97.81c1.57-1.2,2.79-2.92,3.61-5.05"/><path class="cls-2" d="m86.6,92.78c.06-.16.09-.36.09-.57"/><polyline class="cls-2" points="86.5 69.98 86.53 70.05 86.55 70.12 86.55 70.19 86.57 70.24 86.6 70.31 86.62 70.38 86.62 70.45 86.64 70.5 86.64 70.57 86.67 70.64 86.67 70.69 86.69 70.76 86.69 70.83 86.69 70.88 86.69 70.95 86.69 71 86.69 92.21"/><path class="cls-2" d="m86.51,69.97c-3.12-8.24-8.7-15.81-15.04-20.4-6.34-4.59-12.69-5.68-17.13-2.92"/><line class="cls-2" x1="94.62" y1="87.78" x2="94.62" y2="87.78"/><path class="cls-2" d="m94.62,87.78s0-.02,0-.04"/><path class="cls-2" d="m95.12,87.28s0-.02,0-.04"/><line class="cls-2" x1="94.59" y1="87.75" x2="95.11" y2="87.25"/><line class="cls-1" x1="93.71" y1="88.93" x2="93.71" y2="88.93"/><path class="cls-2" d="m93.61,89.07c.05-.04.09-.08.12-.14"/><polyline class="cls-2" points="93.6 89.08 93.62 89.03 93.64 89 93.67 88.96 93.69 88.93 93.74 88.84 93.79 88.77 93.83 88.67 93.9 88.58 93.95 88.51 94.02 88.41 94.09 88.32 94.17 88.25 94.24 88.15 94.31 88.06 94.38 87.98 94.45 87.91 94.52 87.82 94.59 87.75"/><path class="cls-2" d="m90.77,92.63c1.15-.92,2.11-2.12,2.84-3.58"/><path class="cls-2" d="m90.8,92.63s0,0,0,0"/><path class="cls-2" d="m90.77,92.65s.02-.01.03-.02"/><line class="cls-2" x1="90.75" y1="92.66" x2="90.73" y2="92.68"/><line class="cls-1" x1="96.23" y1="85.45" x2="96.23" y2="85.45"/><path class="cls-2" d="m96.11,85.65c.09-.06.14-.14.14-.21"/><polyline class="cls-2" points="96.11 85.66 96.11 85.71 96.11 85.73 96.11 85.75 96.09 85.8 96.09 85.83 96.09 85.85 96.06 85.9 96.06 85.92 96.04 85.97 96.04 85.99 96.02 86.04 95.99 86.06 95.97 86.09 95.97 86.13 95.94 86.16 95.92 86.18"/><line class="cls-2" x1="95.95" y1="86.29" x2="95.95" y2="86.29"/><path class="cls-2" d="m95.95,86.29s0-.06-.03-.12"/><line class="cls-2" x1="95.92" y1="86.18" x2="95.87" y2="86.23"/><path class="cls-2" d="m95.93,86.34s0-.06-.03-.12"/><path class="cls-2" d="m95.12,87.24c.28-.31.55-.66.78-1.03"/><polyline class="cls-2" points="86.69 92.21 87.21 91.88 87.76 91.52 88.3 91.16 88.83 90.81 89.37 90.48 89.92 90.1 90.2 89.93 90.49 89.74 90.75 89.57 91.03 89.38 91.32 89.19 91.6 89 91.89 88.84 92.17 88.65 92.48 88.46 92.77 88.27 93.07 88.06 93.36 87.87 93.67 87.68 93.98 87.46 94.28 87.27 94.59 87.06 94.92 86.87 95.23 86.66 95.57 86.44 95.87 86.23"/><polyline class="cls-2" points="86.6 92.78 87.09 92.47 87.59 92.14 88.09 91.8 88.59 91.47 89.11 91.16 89.61 90.83 90.13 90.48 90.39 90.31 90.65 90.14 90.91 89.98 91.18 89.81 91.44 89.65 91.7 89.46 91.98 89.29 92.24 89.1 92.53 88.93 92.79 88.74 93.07 88.58 93.36 88.39 93.64 88.2 93.93 88.01 94.21 87.82 94.52 87.63 94.81 87.44 95.11 87.25"/><polyline class="cls-2" points="82.99 97.83 83.44 97.55 83.89 97.24 84.34 96.93 84.79 96.62 85.27 96.31 85.74 96 86.19 95.7 86.67 95.39 86.91 95.22 87.17 95.06 87.4 94.89 87.64 94.72 87.9 94.56 88.14 94.39 88.4 94.22 88.64 94.06 88.9 93.89 89.16 93.73 89.42 93.54 89.68 93.37 89.94 93.2 90.23 93.01 90.49 92.85 90.75 92.66"/><polyline class="cls-2" points="86.69 71 87.14 70.71 87.62 70.43 88.07 70.14 88.54 69.86 89.02 69.55 89.49 69.26 89.97 68.96 90.2 68.81 90.44 68.67 90.7 68.51 90.94 68.36 91.18 68.2 91.44 68.05 91.67 67.89 91.94 67.72 92.2 67.58 92.46 67.41 92.72 67.25 92.98 67.08 93.24 66.92 93.5 66.75 93.79 66.58 94.05 66.42 94.33 66.25 94.59 66.09 94.59 72.28"/><polyline class="cls-2" points="94.59 72.28 94.62 72.37 94.62 72.44 94.62 72.52 94.64 72.61 94.66 72.68 94.69 72.75 94.71 72.8 94.76 72.87 94.78 72.92 94.83 72.97 94.88 72.99 94.92 73.04 95 73.06 95.04 73.08 95.11 73.08 95.16 73.11 95.92 73.16 95.94 73.16 95.97 73.16 95.99 73.18 96.02 73.18 96.04 73.2 96.04 73.23 96.06 73.23 96.06 73.25 96.09 73.27 96.09 73.3 96.09 73.32 96.11 73.35 96.11 73.37 96.11 73.39 96.11 73.44 96.11 85.66"/><path class="cls-2" d="m94.62,72.27c.09-.06.14-.14.14-.21"/><path class="cls-2" d="m94.76,65.84h0"/><path class="cls-2" d="m94.62,66.05c.09-.06.14-.14.14-.21"/><path class="cls-2" d="m94.4,65.04c.11-.07.17-.13.15-.17"/><path class="cls-2" d="m94.61,66.06c0-.32-.07-.67-.21-1.02"/><line class="cls-2" x1="94.78" y1="72.28" x2="94.95" y2="72.37"/><path class="cls-2" d="m94.83,72.32s.09.04.15.04"/><polyline class="cls-2" points="94.95 72.37 95.71 72.42 94.76 71.87"/><path class="cls-2" d="m94.41,65.05c-2.99-7.78-8.2-14.94-14.16-19.44-5.96-4.5-12.01-5.85-16.44-3.67"/><polyline class="cls-2" points="86.5 69.98 86.95 69.69 87.4 69.41 87.88 69.12 88.33 68.84 88.8 68.55 89.28 68.24 89.75 67.94 89.99 67.79 90.25 67.65 90.49 67.49 90.73 67.34 90.99 67.18 91.22 67.03 91.48 66.87 91.72 66.7 91.98 66.56 92.24 66.39 92.5 66.23 92.77 66.06 93.03 65.9 93.31 65.73 93.57 65.56 93.86 65.4 94.12 65.23 94.4 65.04"/><path class="cls-2" d="m95.86,72.44s-.1-.04-.16-.05"/><path class="cls-2" d="m95.93,73.15c.1-.28,0-.6-.22-.72"/><path class="cls-2" d="m96.11,73.41c.09-.06.14-.14.14-.21"/><path class="cls-2" d="m95.19,73.1c.1-.28,0-.6-.22-.72"/><polyline class="cls-2" points="95.11 87.3 94.59 87.79 94.57 87.82 94.52 87.87 94.5 87.89 94.45 87.94 94.43 87.98 94.38 88.01 94.31 88.1 94.24 88.17 94.19 88.25 94.12 88.34 94.07 88.41 94 88.48 93.95 88.55 93.9 88.63 93.86 88.7 93.81 88.77 93.79 88.84 93.74 88.89 93.71 88.96 93.64 89.08 93.57 89.22 93.5 89.36 93.43 89.5 93.36 89.62 93.26 89.76 93.19 89.88 93.12 90.03 93.03 90.14 92.96 90.26 92.86 90.4 92.77 90.52 92.69 90.64 92.6 90.76 92.5 90.88 92.41 91 92.31 91.12 92.22 91.24 92.12 91.33 92.03 91.45 91.94 91.54 91.84 91.66 91.75 91.76 91.63 91.88 91.53 91.97 91.44 92.07 91.32 92.18 91.22 92.28 91.1 92.37 91.01 92.47 90.89 92.54 90.77 92.63 90.73 92.68"/><polyline class="cls-2" points="96.25 85.45 96.25 85.52 96.25 85.56 96.23 85.61 96.23 85.68 96.23 85.73 96.21 85.78 96.18 85.85 96.16 85.9 96.16 85.94 96.13 85.99 96.11 86.06 96.09 86.11 96.04 86.16 96.02 86.21 95.99 86.25 95.94 86.3 95.92 86.35 95.83 86.47 95.73 86.58 95.64 86.7 95.54 86.82 95.42 86.94 95.33 87.06 95.21 87.18 95.11 87.3"/><line class="cls-2" x1="90.73" y1="92.68" x2="82.97" y2="97.85"/><polyline class="cls-2" points="55.16 46.23 63.8 41.96 64.01 41.86 64.22 41.74 64.46 41.67 64.67 41.58 64.89 41.48 65.12 41.41 65.36 41.34 65.58 41.27 65.81 41.22 66.05 41.17 66.29 41.1 66.52 41.08 66.76 41.03 67.02 40.98 67.26 40.96 67.5 40.94 67.76 40.91 68 40.91 68.26 40.89 68.52 40.89 68.75 40.89 69.02 40.89 69.28 40.91 69.54 40.94 69.8 40.96 70.06 40.98 70.32 41.01 70.61 41.05 70.87 41.08 71.13 41.13 71.39 41.2 71.67 41.24 71.93 41.32 72.19 41.39 72.48 41.46 72.74 41.53 73.03 41.6 73.29 41.69 73.57 41.79 73.86 41.88 74.12 41.98 74.4 42.1 74.69 42.22 74.95 42.31 75.23 42.45 75.52 42.57 75.78 42.69 76.06 42.83 76.35 42.98 76.63 43.12 76.89 43.26 77.18 43.43 77.46 43.57 77.75 43.74 78.01 43.9 78.29 44.07 78.58 44.26 78.84 44.42 79.12 44.61 79.41 44.8 79.67 44.99 79.95 45.18 80.21 45.4 80.5 45.61 80.78 45.8 81.04 46.01 81.31 46.23 81.59 46.46 81.85 46.68 82.14 46.91 82.4 47.15 82.66 47.39 82.92 47.63 83.2 47.86 83.46 48.1 83.73 48.36 83.99 48.62 84.25 48.86 84.51 49.12 84.77 49.38 85.01 49.67 85.27 49.93 85.53 50.21 85.77 50.47 86.03 50.76 86.26 51.04 86.53 51.33 86.76 51.61 87 51.92 87.24 52.21 87.47 52.51 87.71 52.8 87.95 53.11 88.19 53.42 88.42 53.72 88.64 54.03 88.87 54.34 89.09 54.65 89.33 54.98 89.54 55.29 89.75 55.62 89.97 55.95 90.18 56.26 90.39 56.59 90.58 56.93 90.8 57.26 90.99 57.59 91.2 57.92 91.39 58.26 91.58 58.61 91.77 58.94 91.96 59.28 92.15 59.63 92.34 59.96 92.5 60.32 92.69 60.65 92.86 61.01 93.03 61.36 93.19 61.7 93.36 62.05 93.52 62.41 93.67 62.76 93.83 63.12 93.98 63.48 94.14 63.83 94.28 64.19 94.43 64.54 94.54 64.9 94.59 65.02 94.64 65.14 94.66 65.25 94.69 65.37 94.71 65.49 94.73 65.61 94.73 65.73 94.76 65.85 94.76 72.06"/><polyline class="cls-2" points="96.25 85.45 96.25 73.2 96.25 73.16 96.25 73.11 96.23 73.06 96.23 72.99 96.21 72.94 96.21 72.89 96.18 72.85 96.16 72.8 96.13 72.75 96.11 72.7 96.06 72.66 96.04 72.61 95.99 72.56 95.94 72.54 95.9 72.49 95.85 72.47 94.76 71.83"/><polyline class="cls-2" points="94.76 72.06 94.76 72.09 94.76 72.14 94.76 72.16 94.76 72.18 94.76 72.21 94.76 72.23 94.78 72.25 94.78 72.28 94.78 72.3 94.78 72.33 94.81 72.33 94.81 72.35"/><path class="cls-2" d="m86.09,70.21c-3.16-8.32-8.81-15.95-15.21-20.53s-12.79-5.56-17.18-2.64"/><polyline class="cls-2" points="86.1 70.21 86.12 70.28 86.15 70.36 86.17 70.4 86.17 70.47 86.19 70.55 86.22 70.62 86.24 70.66 86.24 70.74 86.26 70.81 86.26 70.85 86.26 70.93 86.29 71 86.29 71.04 86.29 71.12 86.29 71.16 86.29 71.23 86.29 92.45"/><path class="cls-2" d="m86.22,93.02c.06-.16.09-.36.09-.57"/><path class="cls-2" d="m82.61,98.05c1.56-1.2,2.79-2.91,3.61-5.04"/><polyline class="cls-2" points="82.59 98.07 82.56 98.09 82.54 98.09"/><path class="cls-2" d="m86.25,92.9c.05-.11.09-.23.14-.35"/><line class="cls-2" x1="86.29" y1="92.61" x2="86.38" y2="92.56"/><polyline class="cls-2" points="86.45 92.09 86.45 92.16 86.45 92.21 86.43 92.28 86.43 92.35 86.43 92.4 86.41 92.47 86.38 92.52 86.38 92.56"/><line class="cls-2" x1="86.29" y1="92.18" x2="86.45" y2="92.09"/><line class="cls-2" x1="86.45" y1="70.85" x2="86.45" y2="92.09"/><line class="cls-2" x1="86.29" y1="70.97" x2="86.45" y2="70.85"/><polyline class="cls-2" points="86.29 70 86.31 70.12 86.36 70.21 86.38 70.33 86.41 70.45 86.43 70.55 86.43 70.66 86.45 70.76 86.45 70.85"/><line class="cls-2" x1="86.05" y1="70.12" x2="86.29" y2="70"/><path class="cls-2" d="m86.29,69.98c-4.81-12.69-15.16-23.04-24.38-24.37"/><line class="cls-2" x1="65.53" y1="54.55" x2="65.27" y2="56.5"/><path class="cls-2" d="m65.27,56.51c-.01.08,0,.18.04.28"/><line class="cls-2" x1="70.53" y1="58.97" x2="69.8" y2="60.32"/><path class="cls-2" d="m69.82,60.31c-.08.14-.01.4.15.58"/><line class="cls-2" x1="69.96" y1="60.89" x2="69.99" y2="60.91"/><polyline class="cls-2" points="71.91 60.51 71.06 62.12 71.13 62.19"/><path class="cls-2" d="m73.77,65.5c0,.1.04.22.1.33"/><line class="cls-2" x1="73.88" y1="65.85" x2="74.12" y2="66.23"/><line class="cls-2" x1="74.83" y1="67.41" x2="75.14" y2="67.91"/><path class="cls-2" d="m75.14,67.9c.03.05.07.1.11.14"/><line class="cls-2" x1="49.39" y1="85.02" x2="76.18" y2="100.46"/><path class="cls-2" d="m49.42,85.02c0,.12.04.21.11.26"/><path class="cls-2" d="m49.53,85.28s0,0,0,0"/><path class="cls-2" d="m76.2,100.44c0,.12.04.21.11.26"/><line class="cls-2" x1="76.32" y1="100.7" x2="76.32" y2="100.7"/><line class="cls-2" x1="51.32" y1="55.48" x2="48.85" y2="50.95"/><path class="cls-2" d="m48.86,50.94c-1.18.72-2.21,1.7-3.04,2.92"/><polyline class="cls-2" points="45.81 53.87 45.76 53.91 45.74 53.98 45.72 54.06 45.69 54.13 45.67 54.2 45.65 54.27 45.65 54.36 45.65 54.46 45.65 75.53"/><path class="cls-2" d="m45.66,75.52c0,.16.03.33.07.51"/><path class="cls-2" d="m45.74,76.03c.78,2.89,1.92,5.82,3.38,8.65"/><polyline class="cls-2" points="49.09 84.69 49.13 84.73 49.16 84.81 49.2 84.85 49.23 84.9 49.28 84.92 49.32 84.97 49.35 85 49.39 85.02"/><polyline class="cls-2" points="76.18 100.46 76.23 100.49 76.28 100.49 76.3 100.51 76.35 100.51 76.39 100.51 76.42 100.49 76.47 100.49 76.49 100.46"/><path class="cls-2" d="m76.49,100.46c1.46-1.15,2.6-2.76,3.37-4.76"/><path class="cls-2" d="m79.86,95.7c.05-.12.07-.27.07-.43"/><polyline class="cls-2" points="79.93 95.27 79.93 74.2 79.93 74.1 79.93 74.01 79.91 73.91 79.91 73.82 79.88 73.73 79.86 73.63 79.81 73.54 79.79 73.44"/><path class="cls-2" d="m79.8,73.42c-.83-2.18-1.85-4.34-3.04-6.42"/><line class="cls-2" x1="76.75" y1="67.01" x2="74.26" y2="68.72"/><path class="cls-2" d="m73.85,68.45c.13.21.32.31.43.23"/><line class="cls-2" x1="72.72" y1="66.68" x2="73.83" y2="68.48"/><path class="cls-2" d="m72.71,66.15c-.11.08-.1.31.02.52"/><line class="cls-2" x1="72.72" y1="66.16" x2="75.18" y2="64.45"/><path class="cls-2" d="m75.2,64.45c-.95-1.44-1.96-2.82-3.04-4.12"/><line class="cls-2" x1="72.15" y1="60.34" x2="70.56" y2="63.24"/><path class="cls-2" d="m70.16,63.16c.15.17.34.21.41.07"/><line class="cls-2" x1="68.8" y1="61.67" x2="70.13" y2="63.17"/><path class="cls-2" d="m68.68,61.08c-.07.14,0,.39.15.56"/><line class="cls-2" x1="68.66" y1="61.08" x2="70.23" y2="58.18"/><path class="cls-2" d="m70.24,58.17c-1.13-1.19-2.31-2.28-3.51-3.26"/><line class="cls-2" x1="66.71" y1="54.91" x2="66.17" y2="58.8"/><path class="cls-2" d="m65.83,58.88c.17.13.32.08.35-.1"/><line class="cls-2" x1="64.34" y1="57.78" x2="65.81" y2="58.9"/><path class="cls-2" d="m64.1,57.21c-.02.18.09.43.26.56"/><line class="cls-2" x1="64.08" y1="57.21" x2="64.63" y2="53.34"/><path class="cls-2" d="m64.64,53.34c-1.22-.84-2.45-1.54-3.67-2.11"/><line class="cls-2" x1="60.95" y1="51.23" x2="61.49" y2="55.74"/><path class="cls-2" d="m61.25,55.97c.17.07.28-.04.26-.25"/><line class="cls-2" x1="59.76" y1="55.41" x2="61.23" y2="56"/><path class="cls-2" d="m59.42,54.87c.03.21.18.44.35.51"/><line class="cls-2" x1="59.41" y1="54.89" x2="58.86" y2="50.4"/><path class="cls-2" d="m58.88,50.39c-1.2-.41-2.37-.67-3.51-.78"/><line class="cls-2" x1="55.35" y1="49.62" x2="56.94" y2="54.34"/><path class="cls-2" d="m56.8,54.73c.15,0,.22-.17.14-.39"/><line class="cls-2" x1="55.44" y1="54.7" x2="56.77" y2="54.74"/><path class="cls-2" d="m55.04,54.27c.07.22.26.4.41.41"/><line class="cls-2" x1="53.45" y1="49.57" x2="55.02" y2="54.29"/><path class="cls-2" d="m53.46,49.56c-1.08.06-2.09.27-3.04.62"/><line class="cls-2" x1="50.39" y1="50.19" x2="52.88" y2="54.72"/><path class="cls-2" d="m52.87,55.21c.12-.06.13-.28.01-.49"/><line class="cls-2" x1="51.77" y1="55.76" x2="52.86" y2="55.24"/><path class="cls-2" d="m51.34,55.46c.12.21.31.34.43.28"/><line class="cls-2" x1="75.07" y1="97.52" x2="50.51" y2="83.38"/><path class="cls-2" d="m50.02,82.78c.12.25.3.47.5.58"/><path class="cls-2" d="m47.69,76.56c.57,2.08,1.36,4.17,2.33,6.22"/><path class="cls-2" d="m47.66,76.29c0,.09.01.18.04.28"/><polyline class="cls-2" points="47.64 76.29 47.64 55.69 47.64 55.65 47.64 55.6 47.66 55.57 47.66 55.55 47.69 55.53 47.71 55.5 47.73 55.48 47.76 55.46 47.78 55.46 47.8 55.43 47.83 55.43 47.85 55.43 47.9 55.43 47.92 55.46 47.97 55.46 47.99 55.48 52.41 58.02"/><path class="cls-2" d="m52.42,57.99c.05.03.1.04.14.01"/><path class="cls-2" d="m73.05,69.81c-2.63-4.84-6.35-8.88-10.25-11.12-3.9-2.25-7.62-2.5-10.25-.69"/><path class="cls-2" d="m73.06,69.82c.04.07.09.12.14.16"/><polyline class="cls-2" points="73.19 69.98 77.58 72.52 77.63 72.54 77.65 72.56 77.68 72.59 77.72 72.63 77.75 72.66 77.77 72.7 77.82 72.75 77.84 72.78 77.87 72.82 77.87 72.87 77.89 72.92 77.91 72.97 77.91 73.01 77.94 73.04 77.94 73.08 77.94 73.13 77.94 93.75"/><path class="cls-2" d="m77.89,93.96c.03-.07.04-.15.04-.23"/><path class="cls-2" d="m75.59,97.52c.97-.93,1.75-2.13,2.33-3.54"/><path class="cls-2" d="m75.08,97.5c.2.11.38.11.5,0"/><line class="cls-2" x1="51.32" y1="55.48" x2="51.91" y2="55.12"/><polyline class="cls-2" points="49.8 51.23 50.37 52.28 51.91 55.12"/><path class="cls-2" d="m49.93,50.51c-.21.14-.26.45-.11.71"/><line class="cls-2" x1="49.92" y1="50.52" x2="50.41" y2="50.19"/><polyline class="cls-2" points="50.63 49.38 50.53 49.19 49.73 49.71 48.97 50.24"/><path class="cls-2" d="m48.98,50.22c-.21.14-.26.45-.11.71"/><line class="cls-2" x1="51.77" y1="55.76" x2="52.34" y2="55.38"/><path class="cls-2" d="m51.89,55.1c.11.23.31.35.46.28"/><line class="cls-2" x1="51.91" y1="55.12" x2="52.34" y2="54.98"/><polyline class="cls-2" points="52.34 55.38 52.53 55.31 50.72 52.02 50.37 52.28 50.75 52.04"/><path class="cls-2" d="m71.99,60.6c-.09-.1-.17-.21-.26-.31"/><path class="cls-2" d="m70.85,59.3c-.17-.18-.34-.37-.51-.55"/><path class="cls-2" d="m66.65,55.39s-.05-.04-.08-.06"/><path class="cls-2" d="m65.61,54.61c-.18-.13-.37-.26-.55-.39"/><path class="cls-2" d="m60.18,51.64c-.18-.07-.36-.13-.55-.19"/><path class="cls-2" d="m55.02,50.67c-.16,0-.33,0-.49.02"/><line class="cls-2" x1="76.39" y1="67.25" x2="76.01" y2="66.58"/><polyline class="cls-2" points="75.37 65.37 74.99 64.69 73.31 65.82"/><line class="cls-2" x1="73.33" y1="66.35" x2="73.88" y2="65.85"/><path class="cls-2" d="m73.32,65.81c-.13.09-.13.33.02.54"/><polyline class="cls-2" points="73.33 66.35 73.52 66.65 75.37 65.37"/><path class="cls-2" d="m76.95,66.87c-.48-.85-.99-1.68-1.52-2.49"/><line class="cls-2" x1="74.99" y1="64.69" x2="75.42" y2="64.38"/><polyline class="cls-2" points="73.52 66.65 74.24 67.82 76.01 66.58"/><path class="cls-2" d="m50.7,50.74c-.32.14-.62.31-.92.49"/><line class="cls-2" x1="52.53" y1="55.31" x2="52.95" y2="55.1"/><path class="cls-2" d="m66.76,54.75c-.53-.42-1.07-.81-1.61-1.18"/><line class="cls-2" x1="65.05" y1="54.22" x2="65.15" y2="53.58"/><polyline class="cls-2" points="66.57 55.34 66.14 58.35 65.2 57.62 65.62 54.6"/><path class="cls-2" d="m72.27,60.14c-.54-.65-1.1-1.27-1.67-1.87"/><line class="cls-2" x1="70.34" y1="58.75" x2="70.61" y2="58.28"/><polyline class="cls-2" points="71.72 60.3 70.51 62.55 69.63 61.58 70.87 59.3"/><path class="cls-2" d="m60.95,51.23c-.47-.2-.94-.38-1.41-.54"/><line class="cls-2" x1="59.64" y1="51.45" x2="59.55" y2="50.69"/><polyline class="cls-2" points="61.47 55.5 60.59 55.15 60.19 51.66"/><path class="cls-2" d="m55.44,49.88c-.4-.02-.79-.02-1.18,0"/><line class="cls-2" x1="54.54" y1="50.69" x2="54.26" y2="49.9"/><polyline class="cls-2" points="56.94 54.36 56.25 54.34 55.02 50.69"/><path class="cls-2" d="m50.43,50.23c-.18.09-.35.19-.52.29"/><path class="cls-2" d="m77.6,66.46c-.48-.84-.98-1.66-1.51-2.46"/><path class="cls-2" d="m76.1,63.98c-.22.12-.51.28-.65.38"/><path class="cls-2" d="m50.52,49.46c-.19.13-.24.44-.09.7"/><polyline class="cls-2" points="51.98 48.48 51.24 48.98 50.51 49.48"/><line class="cls-2" x1="52.86" y1="55.24" x2="52.88" y2="55.22"/><path class="cls-2" d="m67.28,54.18c-.55-.44-1.11-.85-1.67-1.23"/><path class="cls-2" d="m68.25,53.5c-.53-.42-1.07-.81-1.6-1.18"/><line class="cls-2" x1="65.6" y1="52.94" x2="66.64" y2="52.35"/><path class="cls-2" d="m72.88,59.66c-.55-.66-1.12-1.3-1.7-1.91"/><path class="cls-2" d="m73.87,58.99c-.53-.63-1.08-1.25-1.64-1.84"/><line class="cls-2" x1="71.17" y1="57.76" x2="72.22" y2="57.16"/><path class="cls-2" d="m78.61,65.8c-.46-.81-.95-1.6-1.45-2.38"/><line class="cls-2" x1="76.09" y1="64" x2="77.15" y2="63.45"/><path class="cls-2" d="m61.26,50.53c-.46-.2-.93-.37-1.38-.53"/><path class="cls-2" d="m62.22,49.86c-.44-.19-.88-.35-1.31-.5"/><line class="cls-2" x1="59.88" y1="50" x2="60.9" y2="49.38"/><path class="cls-2" d="m55.36,49.15c-.29,0-.58,0-.87.01"/><path class="cls-2" d="m56.1,48.49c-.2,0-.4,0-.6.01"/><line class="cls-2" x1="54.5" y1="49.17" x2="55.49" y2="48.53"/><path class="cls-2" d="m65.63,52.93c-.22.13-.41.4-.45.62"/><line class="cls-2" x1="64.08" y1="57.21" x2="64.7" y2="56.88"/><line class="cls-2" x1="65.05" y1="54.22" x2="64.7" y2="56.88"/><polyline class="cls-2" points="66.64 52.35 66.71 51.75 65.88 52.25 65.08 52.73"/><path class="cls-2" d="m65.08,52.72c-.22.13-.41.4-.45.62"/><line class="cls-2" x1="64.34" y1="57.78" x2="64.96" y2="57.45"/><path class="cls-2" d="m64.71,56.87c-.04.19.08.44.26.55"/><line class="cls-2" x1="64.96" y1="57.45" x2="65.24" y2="57.26"/><line class="cls-2" x1="64.7" y1="56.88" x2="65.27" y2="56.5"/><line class="cls-2" x1="64.96" y1="57.45" x2="65.2" y2="57.62"/><line class="cls-2" x1="65.81" y1="58.9" x2="66.19" y2="58.64"/><line class="cls-2" x1="66.14" y1="58.35" x2="66.24" y2="58.4"/><path class="cls-2" d="m67.14,54.25c-.21.14-.39.42-.42.64"/><polyline class="cls-2" points="68.68 53.23 67.9 53.75 67.14 54.27"/><path class="cls-2" d="m68.69,53.2c-.65-.52-1.3-1.01-1.96-1.47"/><path class="cls-2" d="m80.5,73.18c-.86-2.24-1.91-4.46-3.12-6.59"/><polyline class="cls-2" points="86.1 70.21 85.77 70.38 85.43 70.57 85.1 70.74 84.79 70.9 84.46 71.09 84.11 71.26 83.77 71.45 83.44 71.64 83.09 71.8 82.73 71.99 82.37 72.18 82.21 72.28 82.02 72.37 81.83 72.49 81.64 72.59 81.47 72.68 81.28 72.78 81.09 72.87 80.88 72.99 80.69 73.08 80.5 73.18"/><path class="cls-2" d="m48.95,50.22c-.12.07-.24.15-.36.23"/><path class="cls-2" d="m51.99,48.46c-.51.19-1,.43-1.46.71"/><path class="cls-2" d="m53.66,48.83c-1.12.06-2.18.27-3.16.64"/><polyline class="cls-2" points="53.66 48.84 54.45 48.34 55.25 47.82"/><path class="cls-2" d="m57.05,47.83c-.61-.06-1.21-.07-1.79-.04"/><polyline class="cls-2" points="57.03 47.86 56.3 48.36 55.54 48.88"/><path class="cls-2" d="m59.19,49.68c-1.25-.42-2.47-.7-3.64-.81"/><polyline class="cls-2" points="59.19 49.69 60 49.19 60.81 48.69"/><path class="cls-2" d="m62.79,49.46c-.66-.3-1.31-.57-1.96-.79"/><polyline class="cls-2" points="62.78 49.48 62.02 50 61.26 50.52"/><path class="cls-2" d="m65.07,52.71c-1.27-.87-2.54-1.61-3.81-2.19"/><path class="cls-2" d="m70.79,57.65c-1.18-1.24-2.4-2.38-3.65-3.39"/><polyline class="cls-2" points="70.79 57.66 71.63 57.19 72.46 56.74"/><path class="cls-2" d="m74.26,58.73c-.58-.7-1.18-1.37-1.79-2.02"/><polyline class="cls-2" points="74.24 58.75 73.45 59.28 72.67 59.8"/><path class="cls-2" d="m75.84,64.06c-.98-1.5-2.04-2.94-3.16-4.28"/><polyline class="cls-2" points="75.82 64.07 76.68 63.64 77.51 63.19"/><path class="cls-2" d="m78.99,65.55c-.46-.81-.95-1.61-1.46-2.39"/><polyline class="cls-2" points="78.98 65.59 78.17 66.09 77.37 66.61"/><path class="cls-2" d="m77.39,66.59c-.21.13-.49.32-.63.41"/><path class="cls-2" d="m79.79,73.42c.18-.01.5-.12.72-.24"/><line class="cls-2" x1="73.83" y1="68.48" x2="74.4" y2="68.1"/><path class="cls-2" d="m74.43,68.09c.09.17.23.28.35.28"/><line class="cls-2" x1="72.72" y1="66.68" x2="73.33" y2="66.35"/><line class="cls-2" x1="74.24" y1="67.82" x2="74.4" y2="68.1"/><line class="cls-2" x1="72.72" y1="66.16" x2="73.31" y2="65.82"/><line class="cls-2" x1="77.15" y1="63.45" x2="77.51" y2="63.19"/><path class="cls-2" d="m75.84,64.05c-.22.12-.51.28-.65.38"/><path class="cls-2" d="m72.69,59.78c-.21.14-.44.38-.53.54"/><line class="cls-2" x1="70.13" y1="63.17" x2="70.72" y2="62.81"/><path class="cls-2" d="m70.72,62.79s.03.04.05.06"/><line class="cls-2" x1="70.51" y1="62.55" x2="70.72" y2="62.81"/><line class="cls-2" x1="69.42" y1="61.32" x2="69.63" y2="61.58"/><line class="cls-2" x1="68.8" y1="61.67" x2="69.42" y2="61.32"/><line class="cls-2" x1="68.66" y1="61.08" x2="69.25" y2="60.75"/><path class="cls-2" d="m69.29,60.74c-.09.15-.03.4.14.56"/><line class="cls-2" x1="70.34" y1="58.75" x2="69.25" y2="60.75"/><path class="cls-2" d="m71.17,57.76c-.22.12-.46.35-.56.51"/><line class="cls-2" x1="72.22" y1="57.16" x2="72.46" y2="56.74"/><path class="cls-2" d="m70.79,57.66c-.22.12-.46.35-.56.51"/><line class="cls-2" x1="69.25" y1="60.75" x2="69.8" y2="60.32"/><line class="cls-2" x1="69.42" y1="61.32" x2="69.96" y2="60.89"/><line class="cls-2" x1="70.72" y1="62.81" x2="70.82" y2="62.79"/><line class="cls-2" x1="70.51" y1="62.55" x2="71.06" y2="62.12"/><line class="cls-2" x1="74.4" y1="68.1" x2="75.14" y2="67.91"/><path class="cls-2" d="m79.95,74.18c.21.12.55.13.77.01"/><path class="cls-2" d="m80.73,74.2c0-.32-.07-.67-.2-1.02"/><polyline class="cls-2" points="86.29 71.23 85.98 71.4 85.65 71.57 85.32 71.76 84.98 71.92 84.65 72.11 84.32 72.28 83.99 72.47 83.63 72.63 83.3 72.82 82.94 73.01 82.59 73.2 82.4 73.3 82.23 73.39 82.04 73.49 81.85 73.61 81.66 73.7 81.47 73.8 81.28 73.89 81.09 74.01 80.9 74.1 80.71 74.2 80.71 95.29 81.02 95.13 81.35 94.96 81.69 94.79 82.02 94.63 82.35 94.46 82.68 94.3 83.01 94.11 83.37 93.94 83.7 93.77 84.06 93.58 84.22 93.49 84.41 93.39 84.6 93.32 84.77 93.23 84.96 93.13 85.15 93.04 85.53 92.85 85.91 92.63 86.29 92.45"/><path class="cls-2" d="m79.95,95.27c.21.12.55.13.77.01"/><path class="cls-2" d="m79.88,95.7c.2.2.52.27.74.15"/><path class="cls-2" d="m80.63,95.85c.06-.17.1-.36.1-.58"/><polyline class="cls-2" points="80.62 95.86 80.93 95.7 81.26 95.53 81.59 95.36 81.92 95.2 82.25 95.03 82.59 94.87 82.92 94.68 83.27 94.51 83.61 94.34 83.96 94.15 84.13 94.06 84.32 93.99 84.51 93.89 84.67 93.8 84.86 93.7 85.05 93.61 85.43 93.42 85.81 93.23 86.19 93.01"/><path class="cls-2" d="m77.18,100.72c1.49-1.17,2.65-2.82,3.45-4.86"/><polyline class="cls-2" points="82.59 98.07 82.28 98.21 81.97 98.38 81.64 98.52 81.33 98.69 81 98.85 80.67 98.99 80.36 99.16 80.02 99.33 79.67 99.49 79.34 99.66 78.98 99.82 78.81 99.92 78.65 99.99 78.46 100.09 78.27 100.18 78.1 100.27 77.91 100.35 77.72 100.44 77.53 100.54 77.34 100.63 77.15 100.73"/><path class="cls-2" d="m76.5,100.45c.16.25.46.36.68.25"/><polyline class="cls-2" points="77.08 100.77 77.11 100.77 77.13 100.75 77.15 100.73"/><path class="cls-2" d="m61.25,50.51c-.21.14-.34.44-.3.7"/><line class="cls-2" x1="61.23" y1="56" x2="61.49" y2="55.81"/><line class="cls-2" x1="60.36" y1="55.05" x2="60.59" y2="55.15"/><line class="cls-2" x1="59.76" y1="55.41" x2="60.36" y2="55.05"/><line class="cls-2" x1="59.41" y1="54.89" x2="60" y2="54.53"/><path class="cls-2" d="m60.01,54.53c.01.22.17.44.35.5"/><line class="cls-2" x1="59.64" y1="51.45" x2="60" y2="54.53"/><path class="cls-2" d="m59.89,49.99c-.21.13-.36.44-.33.69"/><line class="cls-2" x1="60.9" y1="49.38" x2="60.81" y2="48.69"/><path class="cls-2" d="m59.2,49.68c-.21.13-.36.44-.33.69"/><path class="cls-2" d="m55.55,48.87c-.2.14-.28.45-.19.72"/><line class="cls-2" x1="56.77" y1="54.74" x2="56.94" y2="54.65"/><line class="cls-2" x1="55.44" y1="54.7" x2="56.04" y2="54.34"/><line class="cls-2" x1="56.04" y1="54.34" x2="56.25" y2="54.34"/><line class="cls-2" x1="55.02" y1="54.29" x2="55.61" y2="53.94"/><path class="cls-2" d="m55.62,53.92c.06.23.25.4.42.4"/><line class="cls-2" x1="54.54" y1="50.69" x2="55.61" y2="53.94"/><path class="cls-2" d="m54.51,49.16c-.21.13-.3.45-.21.72"/><line class="cls-2" x1="55.49" y1="48.53" x2="55.25" y2="47.82"/><path class="cls-2" d="m53.68,48.83c-.21.13-.3.45-.21.72"/><line class="cls-2" x1="55.61" y1="53.94" x2="56.06" y2="53.77"/><line class="cls-2" x1="56.04" y1="54.34" x2="56.23" y2="54.27"/><line class="cls-2" x1="60" y1="54.53" x2="60.5" y2="54.29"/><line class="cls-2" x1="60.36" y1="55.05" x2="60.57" y2="54.93"/><path class="cls-2" d="m45.74,53.3c-.1.15-.08.37.07.54"/><path class="cls-2" d="m45.74,53.3s0,0,0,0"/><path class="cls-2" d="m45.5,54.21c0,.08.06.17.16.23"/><line class="cls-2" x1="45.5" y1="54.21" x2="45.5" y2="54.21"/><path class="cls-2" d="m45.5,75.28c0,.08.06.17.16.23"/><path class="cls-2" d="m45.59,75.95s.06.07.15.09"/><path class="cls-2" d="m49.01,84.72s.04,0,.1-.03"/><line class="cls-1" x1="49.01" y1="84.73" x2="49.01" y2="84.73"/><line class="cls-2" x1="66.14" y1="58.35" x2="66.24" y2="58.28"/><line class="cls-2" x1="75.07" y1="97.52" x2="75.18" y2="97.45"/><line class="cls-2" x1="50.63" y1="83.31" x2="75.18" y2="97.45"/><line class="cls-2" x1="50.51" y1="83.38" x2="50.63" y2="83.31"/><path class="cls-2" d="m75.2,97.43c.14.08.27.1.38.07"/><path class="cls-2" d="m53.06,57.69c-.13.08-.26.16-.38.24"/><path class="cls-2" d="m52.67,57.93s0,0,0,0"/><polyline class="cls-2" points="47.76 76.22 47.76 55.62 47.76 55.6 47.76 55.55 47.78 55.53 47.78 55.5 47.78 55.48 47.8 55.46 47.8 55.43"/><path class="cls-2" d="m47.78,76.22c0,.09.01.18.04.28"/><path class="cls-2" d="m47.81,76.49c.57,2.08,1.36,4.17,2.33,6.22"/><path class="cls-2" d="m50.14,82.71c.12.25.3.47.5.58"/><line class="cls-2" x1="52.67" y1="57.95" x2="52.55" y2="58.02"/><line class="cls-2" x1="47.76" y1="55.62" x2="47.64" y2="55.69"/><line class="cls-2" x1="47.64" y1="76.29" x2="47.76" y2="76.22"/><line class="cls-2" x1="47.69" y1="76.57" x2="47.8" y2="76.5"/><line class="cls-2" x1="50.01" y1="82.79" x2="50.13" y2="82.72"/><line class="cls-2" x1="49.51" y1="85.28" x2="76.3" y2="100.7"/><line class="cls-2" x1="48.59" y1="50.45" x2="53.71" y2="47.06"/><polyline class="cls-2" points="77.08 100.77 77.03 100.8 76.99 100.8 76.94 100.82 76.89 100.82 76.85 100.84 76.8 100.84 76.75 100.84 76.68 100.84 76.63 100.84 76.58 100.82 76.54 100.82 76.49 100.8 76.44 100.77 76.39 100.75 76.35 100.75 76.3 100.7"/><line class="cls-2" x1="82.54" y1="98.09" x2="77.11" y2="100.77"/><polyline class="cls-2" points="49.51 85.28 49.47 85.26 49.44 85.23 49.35 85.18 49.32 85.14 49.28 85.11 49.25 85.09 49.23 85.04 49.18 85.02 49.16 84.97 49.13 84.92 49.09 84.9 49.06 84.85 49.04 84.81 49.01 84.76 48.99 84.71 48.85 84.45 48.73 84.19 48.59 83.93 48.44 83.64 48.33 83.38 48.21 83.1 48.07 82.84 47.95 82.55 47.83 82.29 47.71 82.01 47.59 81.74 47.47 81.46 47.35 81.2 47.23 80.91 47.14 80.65 47.02 80.37 46.93 80.08 46.81 79.82 46.71 79.54 46.62 79.28 46.52 78.99 46.43 78.71 46.33 78.45 46.24 78.16 46.14 77.88 46.05 77.62 45.98 77.33 45.88 77.07 45.81 76.79 45.72 76.5 45.65 76.24 45.57 75.96 45.55 75.88 45.53 75.79 45.53 75.72 45.5 75.62 45.5 75.55 45.48 75.46 45.48 75.39 45.48 75.29 45.48 54.22 45.48 54.15 45.48 54.1 45.48 54.03 45.5 53.98 45.5 53.91 45.53 53.87 45.53 53.8 45.55 53.75 45.55 53.68 45.57 53.63 45.6 53.58 45.62 53.53 45.65 53.46 45.67 53.42 45.69 53.37 45.74 53.32 45.88 53.11 46.05 52.89 46.19 52.68 46.36 52.49 46.52 52.28 46.69 52.09 46.88 51.92 47.04 51.73 47.23 51.54 47.4 51.38 47.59 51.21 47.78 51.04 47.99 50.9 48.18 50.73 48.4 50.59 48.59 50.45"/><line class="cls-2" x1="52.64" y1="57.95" x2="52.53" y2="58.02"/></svg>