<svg width="960" height="960" viewBox="0 0 960 960" fill="none" xmlns="http://www.w3.org/2000/svg">
<g clip-path="url(#clip0_2_2)">
<path d="M327.076 6C333.289 6 339.251 7.43474 344.588 10.0359L344.627 10.0549L361.894 7.44812C363.588 7.19241 365.296 7.04583 367.008 7.00917L367.865 7H374.076C379.599 7 384.923 8.1336 389.786 10.2123L390.032 10.3199L390.456 10.2431C390.614 10.2154 390.772 10.1887 390.93 10.1629L391.405 10.0882L408.894 7.44812C410.87 7.14979 412.866 7 414.865 7H421.076C426.426 7 431.59 8.06388 436.329 10.0203L436.411 10.0559L454.565 7.41592C456.199 7.17856 457.845 7.04253 459.494 7.00851L460.319 7H466.77C473.265 7 479.487 8.56805 485.01 11.3996L485.14 11.4679L499.897 9.39046C501.48 9.16761 503.075 9.03992 504.673 9.00799L505.472 9H511.856C517.109 9 522.185 10.026 526.858 11.9178L527.101 12.0189L527.136 12.0128C527.296 11.9877 527.456 11.9636 527.616 11.9405L528.098 11.8739L547.271 9.34381C549.006 9.11485 550.754 9 552.504 9H559.313C573.124 9 585.738 16.0966 592.989 27.4103L593.094 27.5779L681.238 28.5869C690.998 28.6987 700.373 32.3748 707.604 38.9118L708.011 39.2849L730.087 59.803C738.23 67.3709 742.856 77.986 742.856 89.1024L742.856 119.201L754.314 119.337C771.109 119.536 785.971 130.202 791.555 146.005L791.721 146.486L808.586 196.209C809.949 200.226 810.664 204.435 810.704 208.676L810.91 230.261L811.034 230.279C830.324 233.215 844.726 249.691 845 269.26V269.866L844.492 725.977C844.47 745.847 829.94 762.399 810.805 765.435L810.706 765.449L810.706 772.621C810.706 776.855 810.034 781.061 808.716 785.081L808.477 785.789L797.778 816.476C792.417 831.854 778.268 842.446 762.003 843.259L745.667 844.074L742.542 868.885C740.948 881.547 733.409 892.677 722.269 898.86L721.809 899.112L698.912 911.433C693.752 914.209 688.046 915.818 682.196 916.145L650.081 917.945L649.849 918.318C642.703 929.669 630.204 936.83 616.492 936.997L616.001 937H609.76C603.876 937 598.075 935.702 592.767 933.211L592.182 932.931L591.849 933.138C585.835 936.811 578.838 938.908 571.492 938.997L571.001 939H564.76C559.094 939 553.505 937.796 548.359 935.483L548.214 935.416L548.032 935.536C541.814 939.579 534.464 941.902 526.725 941.997L526.23 942H520.167C513.244 942 506.438 940.203 500.418 936.784L497.525 935.142L497.203 935.421C490.233 941.37 481.276 944.88 471.725 944.997L471.23 945H465.167C458.244 945 451.438 943.203 445.418 939.784L442.195 937.954L442.016 938.114C435.003 944.242 425.91 947.875 416.19 947.997L415.687 948H409.981C404.198 948 398.502 946.746 393.279 944.346L392.984 944.208L392.811 944.325C386.531 948.494 379.067 950.899 371.19 950.997L370.687 951H364.981C358.341 951 351.816 949.347 345.99 946.205L345.811 946.325C339.398 950.583 331.749 953 323.687 953H317.981C310.699 953 303.555 951.012 297.319 947.25L282.855 938.524L204.123 942.937C194.112 943.498 184.262 940.279 176.519 933.928L176.091 933.572L136.876 900.486C127.954 892.958 122.765 881.908 122.672 870.234L120.845 641.532C120.781 633.494 123.009 626.198 126.822 620.089L127.08 619.685L124.672 361.903C124.626 357.02 125.445 352.369 126.975 348.076L127.145 347.614V334.163L126.954 333.938C121.38 327.235 117.973 318.7 117.728 309.432L117.716 308.827L115 72.5C114.788 53.8086 127.547 37.4608 145.731 33.1294L183.685 24.0887C186.87 23.3299 190.137 22.9651 193.411 23.0026L271.943 23.9019L272.119 23.6784C278.198 16.0697 286.969 10.7885 296.93 9.16289L297.405 9.08824L314.894 6.44812C316.87 6.14979 318.866 6 320.865 6H327.076ZM682.639 874.765L222.375 900.704L220.625 901.949L299.519 897.528L300.128 902.23L317.981 913H323.687L329.968 895.822L346.438 894.899L347.128 900.23L364.981 911H370.687L377.205 893.175L391.499 892.374L392.128 897.23L409.981 908H415.687L422.026 890.663L445.526 889.346L446.199 894.23L465.167 905H471.23L478.019 887.525L500.515 886.264L501.199 891.23L520.167 902H526.23L533.052 884.441L544.606 883.794L545.234 888.23L564.76 899H571.001L577.827 881.932L589.532 881.276L590.234 886.23L609.76 897H616.001L623.041 879.398L679.958 876.208L682.639 874.765ZM183.717 65.2007L155 72.0407L157.714 308.367L167.144 309.408V362.074L164.67 361.53L167.144 626.491L170.198 627.763L170.542 645.991L160.844 641.213L162.67 869.914L194.363 896.654C194.96 895.867 195.685 895.155 196.533 894.552L208.929 885.726L208.929 820.394C208.929 813.094 216.482 808.283 223.071 811.291L223.303 811.401L252.981 825.835L262.225 795.362L262.226 738.419C262.226 731.579 268.927 726.785 275.369 728.926L275.617 729.012L287.252 733.206L283.932 280.96L265.986 277.804C264.849 277.625 263.776 277.254 262.801 276.725C262.775 276.711 262.749 276.696 262.723 276.682C262.452 276.533 262.189 276.371 261.935 276.198C261.831 276.127 261.728 276.054 261.628 275.98L261.608 275.965C261.514 275.895 261.421 275.824 261.33 275.751C260.919 275.425 260.536 275.066 260.183 274.681C260.085 274.574 259.99 274.465 259.897 274.355C259.863 274.314 259.83 274.274 259.797 274.234L259.897 274.355C258.554 272.757 257.702 270.732 257.574 268.512C257.572 268.474 257.57 268.436 257.568 268.398C257.562 268.258 257.558 268.118 257.557 267.977V211.167L245.059 167.01L212.192 166.338C206.907 166.23 202.637 162.034 202.406 156.785L202.397 156.508L201.241 87.706L185.722 69.1028C184.741 67.9266 184.076 66.5915 183.717 65.2007ZM707.633 825.95L629.354 830.178C629.382 830.691 629.396 831.206 629.396 831.722C629.396 846.186 618.366 858.259 604.287 858.259C596.684 858.259 589.971 854.738 585.403 849.222L585.352 849.16L585.165 849.459C580.754 856.32 573.368 860.923 564.817 861.07L564.396 861.073C556.652 861.073 549.831 857.422 545.26 851.728L545.211 851.665L545.054 851.905C540.621 858.581 533.337 863.037 524.926 863.181L524.505 863.185C510.604 863.185 499.675 851.415 499.401 837.195L484.971 837.974C484.99 838.404 485 838.835 485 839.267C485 854.162 473.41 866.472 458.803 866.472C449.161 866.472 440.835 861.11 436.288 853.181L436.259 853.131L436.099 853.504C432.043 862.713 423.178 869.221 412.705 869.397L412.267 869.401C402.48 869.401 394.048 863.875 389.548 855.747L389.392 856.082C385.261 865.089 376.498 871.419 366.17 871.594L365.732 871.597C355.945 871.597 347.513 866.071 343.013 857.944L342.829 857.605L342.68 857.925C338.479 866.73 329.817 872.886 319.635 873.058L319.197 873.062C305.408 873.062 294.309 862.092 293.108 848.335L262.539 849.985C261.816 850.025 261.106 849.986 260.418 849.876C258.561 850.117 256.608 849.838 254.775 848.947L228.929 836.377L228.929 880.303L702.741 853.601C703.217 853.574 703.688 853.581 704.15 853.62L707.633 825.95ZM767.254 782.523L279.75 806.489L272.799 829.402L760.084 803.088L767.254 782.523ZM770.706 737.112L298.213 757.452C297.217 757.537 296.191 757.473 295.162 757.238C295.107 757.225 295.051 757.212 294.996 757.199C294.968 757.192 294.941 757.185 294.913 757.178C294.526 757.081 294.148 756.962 293.781 756.82L282.225 752.654L282.225 786.343L770.663 762.331L770.706 762.329V737.112ZM804.989 279.521L303.945 282.495L307.281 737.042L804.503 715.639L804.989 279.521ZM488.991 663.359C488.994 663.46 488.995 663.5 488.995 663.553L488.996 688.793C488.996 695.617 483.56 701.2 476.739 701.383L382.935 703.894C375.982 704.08 370.195 698.594 370.009 691.641C370.006 691.54 370.005 691.5 370.004 691.447L370.004 666.207C370.004 659.383 375.439 653.8 382.261 653.617L476.065 651.106C483.018 650.92 488.805 656.406 488.991 663.359ZM618.988 658.281C618.993 658.46 618.994 658.496 618.995 658.618L618.996 683.938C618.996 690.72 613.626 696.284 606.849 696.524L513.046 699.858C506.094 700.105 500.259 694.67 500.012 687.719C500.007 687.54 500.006 687.504 500.005 687.382L500.004 662.062C500.004 655.28 505.374 649.716 512.151 649.476L605.954 646.142C612.906 645.895 618.741 651.33 618.988 658.281ZM745.991 654.359C745.994 654.46 745.995 654.5 745.995 654.553L745.996 679.793C745.996 686.617 740.56 692.2 733.739 692.383L639.935 694.894C632.982 695.08 627.195 689.594 627.009 682.641C627.006 682.54 627.005 682.5 627.004 682.447L627.004 657.207C627.004 650.383 632.439 644.8 639.261 644.617L733.065 642.106C740.018 641.92 745.805 647.406 745.991 654.359ZM471.004 669.239L387.995 671.461V685.76L471.004 683.538V669.239ZM601.004 664.321L517.995 667.27V681.678L601.004 678.729V664.321ZM728.004 660.239L644.995 662.461V676.76L728.004 674.538V660.239ZM752.165 361.204V609.331C752.165 614.713 747.905 619.13 742.527 619.325L373.486 632.67C367.825 632.875 363.124 628.341 363.124 622.677V365.984C363.124 360.511 367.523 356.055 372.995 355.984L742.036 351.204C747.609 351.132 752.165 355.63 752.165 361.204ZM732.164 371.334L383.124 375.855V612.308L732.164 599.687V371.334ZM265.903 167.212L277.179 207.053C277.43 207.939 277.557 208.855 277.557 209.776L277.557 257.876L771.148 255.411L770.706 209.058L757.004 168.658C756.129 168.905 755.205 169.035 754.251 169.032L265.903 167.212ZM629.958 122.5C629.958 135.228 621.768 146.157 610.516 148.497L702.856 148.839V98.795L614.973 97.9392C623.867 101.884 629.958 111.523 629.958 122.5ZM579.958 122.5C579.958 134.923 572.156 145.632 561.32 148.314L601.319 148.462C590.152 146.05 582.042 135.166 582.042 122.5L582.043 122.174C582.042 122.08 582.042 121.986 582.042 121.892C582.042 113.948 585.335 106.518 590.968 101.597C591.51 101.124 592.113 100.727 592.759 100.416C594.206 99.3567 595.767 98.4649 597.421 97.7688L563.754 97.4412C573.306 101.019 579.958 111.029 579.958 122.5ZM468.958 121.5C468.958 135.233 459.424 146.872 446.796 147.887L550.518 148.273C539.766 145.525 532.042 134.861 532.042 122.5L532.043 122.147C532.042 122.062 532.042 121.977 532.042 121.892C532.042 113.948 535.335 106.518 540.968 101.597C541.51 101.124 542.113 100.727 542.759 100.416C544.559 99.0982 546.535 98.0401 548.648 97.2949L515.035 96.9667C523.895 100.929 529.958 110.549 529.958 121.5C529.958 135.877 519.509 147.958 506 147.958C492.491 147.958 482.042 135.877 482.042 121.5L482.043 121.174C482.042 121.08 482.042 120.986 482.042 120.892C482.042 112.948 485.335 105.518 490.968 100.597C491.51 100.124 492.113 99.7267 492.759 99.4165C494.188 98.3699 495.728 97.4873 497.359 96.7951L452.529 96.3583C462.201 99.8619 468.958 109.939 468.958 121.5ZM418.958 121.5C418.958 134.665 410.196 145.906 398.345 147.707L443.03 147.872C430.488 146.765 421.042 135.17 421.042 121.5L421.043 121.147C421.042 121.062 421.042 120.977 421.042 120.892C421.042 112.948 424.335 105.518 429.968 100.597C430.51 100.124 431.113 99.7267 431.759 99.4165C433.623 98.0512 435.676 96.9649 437.874 96.2164L400.964 95.8562C411.464 98.7953 418.958 109.325 418.958 121.5ZM221.352 94.109L222.232 146.539L252.788 147.163L391.49 147.681C379.723 145.802 371.042 134.604 371.042 121.5L371.043 121.147C371.042 121.062 371.042 120.977 371.042 120.892C371.042 112.948 374.335 105.518 379.968 100.597C380.51 100.124 381.113 99.7267 381.759 99.4165C384.062 97.7296 386.653 96.4688 389.451 95.7445L352.606 95.3863C362.237 98.9154 368.958 108.97 368.958 120.5C368.958 134.877 358.509 146.958 345 146.958C331.491 146.958 321.042 134.877 321.042 120.5L321.043 120.174C321.042 120.08 321.042 119.986 321.042 119.892C321.042 111.948 324.335 104.518 329.968 99.5974C330.51 99.1236 331.113 98.7267 331.759 98.4165C333.601 97.0669 335.629 95.99 337.798 95.2424L303.845 94.9121C312.831 98.8964 318.958 108.779 318.958 120C318.958 134.615 308.564 146.958 295 146.958C281.436 146.958 271.042 134.615 271.042 120L271.042 119.697C271.042 119.631 271.042 119.566 271.042 119.5C271.042 111.177 274.547 103.409 280.506 98.4131C280.789 98.1761 281.087 97.9596 281.398 97.7648C282.979 96.5375 284.704 95.5178 286.544 94.7438L221.352 94.109ZM550.394 114.989L550.34 115.057C548.952 116.854 548.034 119.319 547.963 122.146L547.958 121.892C547.958 124.137 548.545 126.232 549.57 127.94L549.626 128.03L549.663 128.034L549.914 128.042C552.553 128.042 555.042 125.285 555.042 121.5C555.042 117.946 552.847 115.298 550.394 114.989ZM600.394 114.989L600.34 115.057C598.952 116.854 598.034 119.319 597.963 122.146L597.958 121.892C597.958 124.137 598.545 126.232 599.57 127.94L599.626 128.03L599.663 128.034L599.914 128.042C602.553 128.042 605.042 125.285 605.042 121.5C605.042 117.946 602.847 115.298 600.394 114.989ZM389.394 113.989L389.34 114.057C387.952 115.854 387.034 118.319 386.963 121.146L386.958 120.892C386.958 123.137 387.545 125.232 388.57 126.94L388.626 127.03L388.663 127.034L388.914 127.042C391.553 127.042 394.042 124.285 394.042 120.5C394.042 116.946 391.847 114.298 389.394 113.989ZM439.394 113.989L439.34 114.057C437.952 115.854 437.034 118.319 436.963 121.146L436.958 120.892C436.958 123.137 437.545 125.232 438.57 126.94L438.626 127.03L438.663 127.034L438.914 127.042C441.553 127.042 444.042 124.285 444.042 120.5C444.042 116.946 441.847 114.298 439.394 113.989ZM500.394 113.989L500.34 114.057C498.952 115.854 498.034 118.319 497.963 121.146L497.958 120.892C497.958 123.137 498.545 125.232 499.57 126.94L499.626 127.03L499.663 127.034L499.914 127.042C502.553 127.042 505.042 124.285 505.042 120.5C505.042 116.946 502.847 114.298 500.394 113.989ZM289.51 111.998L289.438 112.09C287.989 113.991 287.022 116.638 286.961 119.696L286.958 119.5C286.958 121.885 287.576 124.107 288.651 125.911L288.724 126.029L288.767 126.034L289 126.042C291.511 126.042 294.042 123.122 294.042 119C294.042 115.157 291.842 112.359 289.51 111.998ZM339.394 112.989L339.34 113.057C337.952 114.854 337.034 117.319 336.963 120.146L336.958 119.892C336.958 122.137 337.545 124.232 338.57 125.94L338.626 126.03L338.663 126.034L338.914 126.042C341.553 126.042 344.042 123.285 344.042 119.5C344.042 115.946 341.847 113.298 339.394 112.989ZM327.076 46H320.865L303.376 48.6401L299.001 64.2139L206.809 63.158L215.899 74.055L691.647 78.685L680.78 68.5843L566.214 67.2719L559.313 49H552.504L533.331 51.5301L528.175 66.8369L518.131 66.7219L511.856 49H505.472L487.497 51.5301L483.042 66.3209L473.357 66.2099L466.77 47H460.319L442.154 49.6401L437.129 65.7949L427.244 65.6819L421.076 47H414.865L397.376 49.6401L393 65.2186L401.074 65.3819L380.066 65.1419L374.076 47H367.865L350.376 49.6401L346.13 64.7539L333.219 64.6059L327.076 46Z" fill="black"/>
<path d="M560 750C601.973 750 636 715.973 636 674C636 632.027 601.973 598 560 598C518.027 598 484 632.027 484 674C484 715.973 518.027 750 560 750Z" stroke="#00AEEF" stroke-width="21"/>
</g>
<defs>
<clipPath id="clip0_2_2">
<rect width="960" height="960" fill="white"/>
</clipPath>
</defs>
</svg>
