<?xml version="1.0" encoding="UTF-8"?><svg id="Layer_1" xmlns="http://www.w3.org/2000/svg" viewBox="0 0 141.73 141.73"><defs><style>.cls-1{stroke-linejoin:bevel;}.cls-1,.cls-2{stroke:#000;stroke-linecap:round;stroke-width:.33px;}.cls-1,.cls-2,.cls-3{fill:none;}.cls-2{stroke-linejoin:round;}.cls-3{stroke:#00aeef;stroke-miterlimit:10;stroke-width:2px;}</style></defs><path class="cls-2" d="m110.9,93.18c0,.21-.15.47-.33.58"/><polyline class="cls-2" points="110.59 93.79 99.95 99.9 99.95 99.52"/><polyline class="cls-2" points="99.95 85.34 99.95 84.96 104.3 82.44"/><path class="cls-2" d="m110.86,78.87s.04.1.04.17"/><line class="cls-2" x1="110.92" y1="79.03" x2="110.92" y2="93.21"/><polyline class="cls-2" points="100.48 94.53 100.89 94.3 100.89 95.68 102.6 94.71 102.6 97.15 103.87 96.41 103.87 97.3 107.18 95.4 107.18 94.51 109.14 93.39 109.14 80.89 107.18 82.04 107.18 81.15 103.87 83.05 103.87 83.95 102.6 84.68 102.6 87.13 100.89 88.12 100.89 89.77"/><line class="cls-2" x1="100.43" y1="90.05" x2="100.89" y2="89.77"/><line class="cls-2" x1="99.95" y1="99.9" x2="99.9" y2="99.87"/><line class="cls-2" x1="99.95" y1="84.96" x2="99.9" y2="84.91"/><line class="cls-2" x1="100.51" y1="93.95" x2="100.89" y2="93.72"/><path class="cls-2" d="m100.89,93.68c.14.08.14.35,0,.6"/><path class="cls-2" d="m100.99,95.29c0,.11-.04.24-.11.36"/><line class="cls-2" x1="100.99" y1="95.04" x2="102.6" y2="94.12"/><path class="cls-2" d="m102.59,94.09c.14.08.14.35,0,.6"/><path class="cls-2" d="m102.69,96.8c0,.11-.04.24-.11.36"/><line class="cls-2" x1="102.7" y1="96.52" x2="103.87" y2="95.83"/><path class="cls-2" d="m103.86,95.82c.14.08.14.35,0,.6"/><path class="cls-2" d="m103.97,96.92c0,.11-.04.24-.11.36"/><line class="cls-2" x1="103.97" y1="96.67" x2="106.67" y2="95.12"/><path class="cls-2" d="m106.66,95.07c.14.08.37.21.51.3"/><line class="cls-2" x1="106.67" y1="95.12" x2="106.67" y2="94.23"/><path class="cls-2" d="m106.66,94.21c.14.08.37.21.51.3"/><line class="cls-2" x1="106.67" y1="94.23" x2="108.63" y2="93.11"/><path class="cls-2" d="m108.62,93.06c.14.08.37.21.51.3"/><line class="cls-2" x1="106.67" y1="94.23" x2="100.46" y2="90.64"/><line class="cls-2" x1="108.63" y1="93.11" x2="100.99" y2="88.7"/><line class="cls-2" x1="108.63" y1="93.11" x2="108.63" y2="81.32"/><path class="cls-2" d="m109.12,80.9c-.07.12-.16.22-.26.28"/><path class="cls-2" d="m107.16,82.02c-.14.25-.37.39-.51.31"/><line class="cls-2" x1="106.67" y1="82.32" x2="106.67" y2="81.55"/><path class="cls-2" d="m107.16,81.13c-.07.12-.16.22-.26.28"/><path class="cls-2" d="m103.86,83.03c.07.04.1.07.1.07"/><path class="cls-2" d="m103.86,83.92c.07.04.1.07.1.07"/><path class="cls-2" d="m102.59,84.66c.07.04.1.07.1.07"/><path class="cls-2" d="m102.59,87.1c.07.04.1.07.1.07"/><path class="cls-2" d="m100.89,88.09c.07.04.1.07.1.07"/><path class="cls-2" d="m100.99,89.63c0,.06-.04.11-.11.15"/><line class="cls-2" x1="100.89" y1="93.72" x2="100.51" y2="93.49"/><line class="cls-2" x1="102.6" y1="94.12" x2="100.51" y2="92.93"/><line class="cls-2" x1="103.87" y1="95.83" x2="102.7" y2="95.17"/><line class="cls-2" x1="106.67" y1="95.12" x2="100.51" y2="91.55"/><line class="cls-2" x1="106.67" y1="82.32" x2="106.01" y2="81.93"/><line class="cls-2" x1="100.99" y1="93.95" x2="100.99" y2="95.32"/><line class="cls-2" x1="102.7" y1="94.35" x2="102.7" y2="96.8"/><line class="cls-2" x1="103.97" y1="96.06" x2="103.97" y2="96.95"/><line class="cls-2" x1="108.88" y1="81.17" x2="106.92" y2="82.29"/><polyline class="cls-2" points="106.92 81.4 103.97 83.11 103.97 84 102.7 84.73 102.7 87.2 100.99 88.17 100.99 89.65"/><path class="cls-2" d="m110.99,78.79c.8,5.35.79,10.37-.04,14.77"/><line class="cls-2" x1="110.87" y1="76.59" x2="110.92" y2="76.57"/><path class="cls-2" d="m110.9,76.56c1.16,6.23,1.25,12.07.26,17.11"/><line class="cls-2" x1="104.56" y1="67.1" x2="104.4" y2="67.02"/><line class="cls-2" x1="104.56" y1="67.1" x2="104.56" y2="67.1"/><path class="cls-2" d="m104.55,67.11c3.02,1.74,5.65,5.64,6.36,9.45"/><line class="cls-2" x1="104.56" y1="66.82" x2="51.65" y2="36.36"/><path class="cls-2" d="m104.55,66.81c3.14,1.81,5.87,5.86,6.6,9.81"/><path class="cls-2" d="m111.14,76.63c1.26,6.79,1.27,13.1,0,18.43"/><path class="cls-2" d="m111.15,95.07c-.3,1.25-.93,2.18-1.82,2.69"/><path class="cls-2" d="m46.84,35.87c1.28-.74,3-.57,4.81.46"/><polyline class="cls-2" points="105.55 66.11 103.82 65.14 102.11 64.15 100.41 63.16 98.7 62.19 97 61.2 95.32 60.23 93.61 59.26 91.94 58.3 90.26 57.33 88.6 56.36 86.92 55.4 85.24 54.43 83.59 53.49 81.94 52.52 80.28 51.58 78.63 50.61 77 49.67 75.34 48.73 73.72 47.79 72.09 46.85 70.46 45.9 68.86 44.99 67.23 44.05 65.62 43.13 64.02 42.21 62.44 41.3 60.84 40.38 59.26 39.47 57.69 38.55 56.11 37.63 54.53 36.74 52.95 35.83 52.8 35.75 51.65 36.36"/><path class="cls-2" d="m105.52,66.1c.05.03.11.06.16.09"/><polyline class="cls-2" points="111.15 76.64 112.27 75.98 112.24 75.85 112.22 75.73 112.19 75.6 112.16 75.47 112.14 75.34 112.09 75.22 112.06 75.09 112.04 74.96 111.99 74.81 111.96 74.68 111.91 74.53 111.86 74.4 111.81 74.25 111.76 74.1 111.71 73.95 111.66 73.79 111.6 73.64 111.53 73.46 111.48 73.31 111.4 73.13 111.32 72.98 111.25 72.8 111.17 72.62 111.1 72.44 110.99 72.27 110.92 72.09 110.82 71.91 110.71 71.73 110.61 71.53 110.51 71.35 110.41 71.15 110.28 70.97 110.15 70.76 110.03 70.56 109.9 70.36 109.77 70.15 109.62 69.95 109.49 69.75 109.34 69.57 109.19 69.36 109.03 69.19 108.88 68.98 108.73 68.81 108.58 68.63 108.42 68.47 108.27 68.3 108.12 68.14 107.97 67.97 107.79 67.81 107.64 67.69 107.48 67.53 107.33 67.41 107.2 67.28 107.05 67.15 106.9 67.02 106.77 66.92 106.62 66.82 106.49 66.72 106.34 66.62 106.21 66.54 106.08 66.44 105.96 66.36 105.83 66.29 105.7 66.21 104.56 66.82"/><polyline class="cls-2" points="112.27 75.98 112.29 76.06 112.29 76.16 112.32 76.26 112.34 76.36 112.34 76.46 112.37 76.57 112.39 76.67 112.42 76.77 112.44 76.9 112.44 77.02 112.47 77.13 112.5 77.25 112.52 77.38 112.55 77.51 112.55 77.63 112.57 77.76 112.6 77.91 112.62 78.04 112.65 78.17 112.67 78.32 112.67 78.47 112.7 78.6 112.72 78.75 112.78 79.06 112.8 79.36 112.85 79.67 112.88 79.98 112.93 80.31 112.95 80.64 112.98 80.94 113 81.27 113.06 81.6 113.08 81.93 113.11 82.29 113.13 82.62 113.13 82.95 113.16 83.28 113.18 83.61 113.18 83.95 113.21 84.28 113.21 84.61 113.21 84.94 113.23 85.27 113.23 85.6 113.23 85.93 113.23 86.26 113.21 86.59 113.21 86.92 113.21 87.25 113.18 87.58 113.16 87.91 113.16 88.22 113.13 88.55 113.11 88.88 113.08 89.21 113.06 89.52 113.03 89.82 112.98 90.15 112.95 90.46 112.93 90.76 112.88 91.04 112.85 91.35 112.8 91.63 112.78 91.76 112.75 91.88 112.72 92.04 112.72 92.16 112.7 92.29 112.67 92.42 112.65 92.55 112.62 92.67 112.6 92.77 112.57 92.9 112.57 93 112.55 93.13 112.52 93.23 112.5 93.33 112.47 93.44 112.47 93.54 112.44 93.61 112.42 93.72 112.39 93.79 112.39 93.87 112.37 93.97 112.34 94.05 112.32 94.12 112.32 94.17 112.29 94.25 112.29 94.33 112.27 94.38 111.15 95.06"/><polyline class="cls-2" points="112.27 94.38 112.24 94.45 112.22 94.56 112.19 94.63 112.16 94.73 112.14 94.81 112.11 94.89 112.09 94.99 112.06 95.06 112.01 95.17 111.99 95.24 111.94 95.32 111.91 95.42 111.86 95.5 111.81 95.6 111.78 95.68 111.73 95.75 111.68 95.85 111.63 95.93 111.55 96.01 111.5 96.08 111.45 96.18 111.38 96.26 111.32 96.34 111.25 96.41 111.17 96.49 111.1 96.57 111.02 96.64 110.94 96.72 110.84 96.8 110.76 96.85 110.66 96.92 110.56 96.97"/><polyline class="cls-2" points="48.14 35.22 48.24 35.17 48.37 35.12 48.47 35.06 48.6 35.01 48.73 34.99 48.83 34.94 48.98 34.91 49.11 34.89 49.24 34.86 49.39 34.86 49.52 34.84 49.67 34.84 49.82 34.84 49.98 34.84 50.13 34.84 50.31 34.86 50.46 34.89 50.64 34.91 50.79 34.94 50.94 34.99 51.12 35.01 51.27 35.06 51.45 35.12 51.6 35.19 51.76 35.24 51.91 35.29 52.06 35.37 52.21 35.45 52.37 35.52 52.52 35.57 52.67 35.65 52.8 35.75"/><path class="cls-2" d="m52.78,35.72c.11-.06.21-.07.28-.02"/><path class="cls-2" d="m52.96,35.83c.11-.06.21-.07.28-.02"/><line class="cls-1" x1="53.23" y1="35.83" x2="53.23" y2="35.83"/><path class="cls-2" d="m105.53,66.11c.11-.06.21-.07.28-.02"/><path class="cls-2" d="m105.68,66.21c.11-.06.21-.06.28-.02"/><path class="cls-2" d="m112.41,75.73c.01.08-.04.16-.16.23"/><path class="cls-2" d="m112.43,75.81c.01.08-.04.16-.16.23"/><path class="cls-2" d="m112.43,94.1c-.02.08-.07.15-.16.21"/><path class="cls-2" d="m112.4,94.18c-.02.08-.07.15-.16.21"/><line class="cls-2" x1="110.56" y1="96.97" x2="109.47" y2="97.69"/><polyline class="cls-2" points="110.56 96.97 110.66 96.92 110.74 96.87 110.82 96.82 110.89 96.74 110.97 96.69 111.04 96.62 111.12 96.54 111.2 96.46 111.27 96.39 111.35 96.31 111.43 96.24 111.48 96.16 111.55 96.08 111.6 96.01 111.68 95.9 111.73 95.83 111.78 95.73 111.83 95.65 111.91 95.55 111.96 95.45 112.01 95.34 112.04 95.24 112.09 95.14 112.14 95.04 112.19 94.94 112.22 94.84 112.27 94.73 112.29 94.63 112.34 94.51 112.37 94.4 112.39 94.3 112.42 94.17 112.44 94.1 112.5 93.87 112.55 93.61 112.6 93.36 112.65 93.11 112.7 92.85 112.75 92.6 112.8 92.34 112.85 92.09 112.9 91.81 112.93 91.55 112.98 91.3 113 91.02 113.06 90.76 113.08 90.48 113.11 90.23 113.16 89.95 113.18 89.67 113.21 89.42 113.23 89.14 113.26 88.86 113.26 88.58 113.28 88.3 113.31 88.02 113.33 87.74 113.33 87.46 113.36 87.18 113.36 86.9 113.36 86.62 113.39 86.34 113.39 86.03 113.39 85.75 113.39 85.47 113.39 85.17 113.39 84.89 113.39 84.58 113.36 84.3 113.36 84.02 113.36 83.72 113.33 83.41 113.33 83.13 113.31 82.83 113.28 82.55 113.28 82.24 113.26 81.93 113.23 81.63 113.21 81.35 113.18 81.04 113.16 80.74 113.11 80.43 113.08 80.13 113.06 79.82 113 79.52 112.98 79.21 112.93 78.91 112.9 78.6 112.85 78.3 112.8 77.99 112.75 77.69 112.72 77.38 112.67 77.07 112.62 76.77 112.55 76.44 112.5 76.13 112.44 75.83 112.42 75.75 112.39 75.57 112.37 75.4 112.32 75.22 112.27 75.04 112.22 74.86 112.19 74.68 112.14 74.5 112.06 74.33 112.01 74.15 111.96 73.97 111.91 73.79 111.83 73.61 111.76 73.44 111.71 73.26 111.63 73.08 111.55 72.93 111.48 72.75 111.4 72.57 111.32 72.39 111.25 72.21 111.15 72.04 111.07 71.86 110.97 71.71 110.89 71.53 110.79 71.35 110.69 71.2 110.59 71.02 110.51 70.84 110.41 70.69 110.28 70.54 110.18 70.36 110.08 70.2 109.98 70.05 109.87 69.87 109.75 69.72 109.65 69.57 109.52 69.42 109.39 69.26 109.29 69.11 109.16 68.98 109.03 68.83 108.91 68.68 108.81 68.55 108.68 68.4 108.55 68.27 108.42 68.14 108.3 68.02 108.17 67.89 108.02 67.76 107.89 67.63 107.76 67.51 107.64 67.38 107.51 67.28 107.36 67.15 107.23 67.05 107.1 66.95 106.95 66.85 106.82 66.74 106.67 66.64 106.54 66.54 106.41 66.44 106.26 66.36 106.13 66.29 105.98 66.18 105.83 66.11 53.26 35.8 53.08 35.73 52.93 35.62 52.75 35.55 52.6 35.45 52.42 35.37 52.27 35.32 52.09 35.24 51.93 35.17 51.78 35.12 51.6 35.06 51.45 35.01 51.27 34.96 51.12 34.94 50.97 34.89 50.79 34.86 50.64 34.84 50.48 34.81 50.33 34.81 50.18 34.78 50 34.78 49.85 34.78 49.7 34.78 49.54 34.81 49.39 34.81 49.26 34.84 49.11 34.86 48.96 34.91 48.83 34.94 48.68 34.99 48.55 35.04 48.4 35.09 48.27 35.14 48.14 35.22 46.97 35.83"/><path class="cls-2" d="m110.89,76.79c.12.63.22,1.26.32,1.88"/><path class="cls-2" d="m104.28,66.95c3.14,1.81,5.88,5.88,6.62,9.84"/><line class="cls-2" x1="104.3" y1="66.97" x2="51.4" y2="36.49"/><path class="cls-2" d="m46.49,36.05c1.28-.79,3.05-.64,4.89.42"/><path class="cls-2" d="m110.91,95.22c-.3,1.29-.96,2.24-1.9,2.74"/><path class="cls-2" d="m111.21,93.71c-.1.51-.2,1.02-.32,1.51"/><line class="cls-2" x1="111.22" y1="93.72" x2="110.84" y2="93.49"/><polyline class="cls-2" points="111.22 78.68 108.37 80.23 105.55 81.78 102.72 83.33 99.87 84.86"/><path class="cls-2" d="m99.87,84.86c.84,5.45.85,10.56,0,15.04"/><path class="cls-2" d="m47.81,69.35c-.4.07-.86-.03-1.34-.29"/><line class="cls-2" x1="46.49" y1="69.08" x2="46.34" y2="69.01"/><path class="cls-2" d="m47.99,68.51c-.08.06-.17.11-.27.15"/><path class="cls-2" d="m32.32,56.37c-.18-.11-.33-.33-.39-.56-.06-.23,0-.41.13-.46"/><line class="cls-2" x1="33" y1="55.9" x2="32.32" y2="56.39"/><path class="cls-2" d="m32.16,56.65c-.32-.2-.57-.66-.56-1.02s.28-.5.6-.3"/><path class="cls-2" d="m32.25,55.44s-.05-.06-.05-.11"/><path class="cls-2" d="m32.15,56.65c0-.1.07-.22.15-.28"/><path class="cls-2" d="m35.23,75.31c-2.75-1.59-5.15-5.15-5.8-8.62"/><path class="cls-2" d="m29.45,66.65c-1.23-6.62-1.24-12.78,0-17.98"/><path class="cls-2" d="m29.43,48.7c.64-2.72,3.04-3.53,5.8-1.94"/><line class="cls-2" x1="35.24" y1="46.77" x2="88.14" y2="77.23"/><path class="cls-2" d="m88.13,77.22c2.75,1.59,5.15,5.15,5.8,8.62"/><path class="cls-2" d="m93.94,85.84c1.23,6.62,1.24,12.78,0,17.98"/><path class="cls-2" d="m93.93,103.83c-.64,2.72-3.04,3.53-5.79,1.94"/><line class="cls-2" x1="88.14" y1="105.78" x2="35.24" y2="75.32"/><path class="cls-2" d="m32.2,63.22c-.32-.17-.59-.62-.6-1-.01-.38.23-.54.56-.37"/><line class="cls-2" x1="32.21" y1="63.23" x2="45.22" y2="70.2"/><path class="cls-2" d="m45.21,63.34c1.6.98,2.86,3.22,2.86,5.07,0,1.85-1.27,2.63-2.87,1.78"/><line class="cls-2" x1="45.22" y1="63.36" x2="32.21" y2="55.34"/><polyline class="cls-2" points="32.16 56.67 33.41 57.43 33.41 62.55 32.16 61.86"/><path class="cls-2" d="m35.36,75.57c-.08-.05-.12-.14-.12-.27"/><path class="cls-2" d="m29.44,66.68c-.1-.03-.16-.08-.17-.14"/><path class="cls-2" d="m29.44,48.68c-.13-.11-.19-.25-.16-.38"/><path class="cls-2" d="m31.04,45.61c1.21-.75,2.86-.6,4.6.39"/><path class="cls-2" d="m35.24,46.75c0-.26.18-.59.41-.73"/><line class="cls-2" x1="35.65" y1="46.03" x2="88.55" y2="76.52"/><path class="cls-2" d="m88.14,77.23c0-.26.18-.59.41-.73"/><path class="cls-2" d="m88.54,76.49c2.96,1.7,5.53,5.52,6.22,9.24"/><path class="cls-2" d="m94.77,85.73c-.23.13-.6.18-.82.11"/><path class="cls-2" d="m94.76,85.72c1.25,6.7,1.25,12.94,0,18.21"/><path class="cls-2" d="m94.76,103.94c-.24.13-.6.08-.82-.11"/><path class="cls-2" d="m94.76,103.95c-.29,1.21-.91,2.1-1.79,2.57"/><path class="cls-2" d="m88.27,106.05c-.08-.05-.12-.14-.12-.27"/><line class="cls-2" x1="51.4" y1="36.49" x2="35.65" y2="46.03"/><line class="cls-2" x1="104.3" y1="66.97" x2="88.55" y2="76.52"/><line class="cls-2" x1="110.92" y1="76.79" x2="94.76" y2="85.75"/><line class="cls-2" x1="99.87" y1="99.93" x2="99.93" y2="99.9"/><polyline class="cls-2" points="101.02 99.29 103.56 97.89 106.11 96.52 108.68 95.12 111.22 93.72"/><line class="cls-2" x1="110.92" y1="95.22" x2="94.76" y2="103.95"/><path class="cls-2" d="m32.21,61.98s-.05-.06-.05-.11"/><path class="cls-2" d="m32.34,62.95c-.18-.1-.35-.32-.41-.55-.06-.23-.01-.42.13-.48"/><path class="cls-2" d="m32.21,63.22c0-.1.06-.22.14-.28"/><line class="cls-2" x1="32.34" y1="62.95" x2="45.37" y2="69.92"/><path class="cls-2" d="m45.21,70.19c0-.1.06-.22.14-.28"/><path class="cls-2" d="m47.42,69.93c-.51.42-1.26.42-2.06-.01"/><path class="cls-2" d="m45.26,63.45s-.05-.06-.05-.11"/><line class="cls-2" x1="46.49" y1="69.08" x2="45.37" y2="69.92"/><line class="cls-2" x1="33.05" y1="62.42" x2="32.34" y2="62.95"/><path class="cls-2" d="m33.46,62.64s-.05-.06-.05-.11"/><path class="cls-2" d="m33.86,62.77c-.16-.08-.31-.15-.46-.23"/><path class="cls-2" d="m33.9,62.88s-.06-.06-.06-.12"/><path class="cls-2" d="m33.86,57.67c-.16-.09-.31-.17-.46-.27"/><polyline class="cls-2" points="41.93 62.11 33.87 57.69 33.87 62.77 41.93 66.72 41.93 62.11"/><path class="cls-2" d="m41.99,66.82s-.06-.06-.06-.12"/><path class="cls-2" d="m41.94,66.7c.16.08.31.15.46.23"/><path class="cls-2" d="m42.44,67.05s-.05-.06-.05-.11"/><path class="cls-2" d="m41.94,62.12c.16.09.31.17.46.27"/><polyline class="cls-2" points="45.6 68.65 42.39 66.95 42.39 62.39 45.6 64.38"/><path class="cls-2" d="m45.59,64.34c1,.62,1.79,2.03,1.8,3.19,0,1.16-.79,1.65-1.79,1.11"/><path class="cls-2" d="m45.65,68.78s-.05-.06-.05-.11"/><path class="cls-2" d="m45.59,64.36c0-.1.07-.22.15-.28"/><path class="cls-2" d="m45.74,64.07c.85.52,1.58,1.58,1.85,2.66.27,1.08,0,1.96-.65,2.2"/><polyline class="cls-2" points="45.93 63.97 45.75 64.1 42.55 62.11"/><path class="cls-2" d="m42.07,61.82c.16.09.31.18.47.27"/><line class="cls-2" x1="34.02" y1="57.41" x2="42.09" y2="61.83"/><path class="cls-2" d="m34.01,57.4c-.15-.08-.3-.17-.45-.26"/><line class="cls-2" x1="32.32" y1="56.39" x2="33.56" y2="57.15"/><path class="cls-2" d="m42.38,62.37c0-.1.07-.22.15-.28"/><path class="cls-2" d="m41.93,62.1c0-.1.06-.22.14-.28"/><path class="cls-2" d="m33.84,57.67c0-.1.06-.22.14-.28"/><path class="cls-2" d="m33.4,57.41c0-.1.07-.22.15-.28"/><polyline class="cls-2" points="32.09 55.4 32.11 55.4 32.14 55.4 32.16 55.4 32.19 55.42 32.21 55.42 32.27 55.45"/><polyline class="cls-2" points="35.37 75.57 35.24 75.5 35.12 75.42 34.96 75.34 34.84 75.24 34.71 75.17 34.58 75.06 34.45 74.96 34.33 74.89 34.17 74.78 34.05 74.66 33.92 74.56 33.79 74.45 33.66 74.35 33.54 74.22 33.41 74.1 33.31 74 33.18 73.87 33.05 73.74 32.93 73.61 32.82 73.49 32.7 73.36 32.57 73.23 32.47 73.08 32.34 72.95 32.24 72.83 32.11 72.67 32.01 72.52 31.91 72.39 31.81 72.24 31.68 72.09 31.58 71.93 31.48 71.81 31.37 71.65 31.27 71.5 31.2 71.32 31.09 71.17 30.99 71.02 30.92 70.87 30.81 70.71 30.74 70.54 30.64 70.38 30.56 70.23 30.48 70.05 30.38 69.9 30.31 69.72 30.23 69.57 30.18 69.39 30.1 69.24 30.03 69.06 29.95 68.91 29.9 68.73 29.82 68.55 29.77 68.4 29.72 68.22 29.67 68.07 29.62 67.89 29.57 67.71 29.52 67.56 29.47 67.38 29.42 67.23 29.39 67.05 29.34 66.9 29.31 66.72 29.29 66.54 29.24 66.24 29.16 65.93 29.11 65.62 29.06 65.32 29.01 64.99 28.96 64.68 28.93 64.38 28.88 64.07 28.83 63.77 28.78 63.46 28.75 63.16 28.7 62.85 28.68 62.55 28.65 62.24 28.6 61.93 28.58 61.63 28.55 61.32 28.52 61.04 28.5 60.74 28.47 60.43 28.45 60.13 28.45 59.85 28.42 59.54 28.4 59.24 28.4 58.96 28.37 58.65 28.37 58.37 28.37 58.07 28.35 57.79 28.35 57.51 28.35 57.2 28.35 56.92 28.35 56.64 28.35 56.34 28.35 56.06 28.37 55.78 28.37 55.5 28.37 55.22 28.4 54.94 28.4 54.66 28.42 54.38 28.45 54.1 28.45 53.82 28.47 53.54 28.5 53.28 28.52 53 28.55 52.72 28.58 52.47 28.63 52.19 28.65 51.93 28.68 51.65 28.73 51.4 28.75 51.12 28.8 50.87 28.83 50.61 28.88 50.36 28.93 50.08 28.96 49.82 29.01 49.57 29.06 49.31 29.11 49.06 29.19 48.83 29.24 48.58 29.29 48.32 29.31 48.22 29.34 48.12 29.36 47.99 29.42 47.89 29.44 47.79 29.47 47.69 29.52 47.58 29.54 47.48 29.59 47.38 29.64 47.3 29.7 47.2 29.75 47.1 29.77 47.02 29.82 46.92 29.9 46.85 29.95 46.74 30 46.67 30.05 46.59 30.13 46.51 30.18 46.41 30.25 46.34 30.31 46.26 30.38 46.21 30.46 46.13 30.51 46.06 30.59 45.98 30.66 45.93 30.74 45.85 30.81 45.8 30.89 45.75 30.99 45.7 31.07 45.65"/><polyline class="cls-2" points="92.98 106.52 92.85 106.59 92.72 106.64 92.6 106.69 92.47 106.74 92.32 106.8 92.19 106.82 92.04 106.87 91.91 106.9 91.76 106.92 91.63 106.92 91.48 106.95 91.32 106.95 91.17 106.95 91.02 106.95 90.89 106.92 90.74 106.92 90.59 106.9 90.43 106.87 90.28 106.85 90.13 106.82 89.98 106.77 89.82 106.72 89.65 106.69 89.49 106.64 89.34 106.57 89.19 106.52 89.03 106.44 88.88 106.39 88.73 106.31 88.58 106.24 88.42 106.13 88.27 106.06 35.37 75.57"/><line class="cls-2" x1="31.07" y1="45.65" x2="46.51" y2="36.08"/><line class="cls-2" x1="92.98" y1="106.52" x2="109.01" y2="97.97"/><polyline class="cls-2" points="32.09 61.96 32.09 61.93 32.11 61.93 32.14 61.96 32.16 61.96 32.19 61.96 32.24 61.99"/><polyline class="cls-2" points="47.43 69.92 47.48 69.87 47.53 69.82 47.58 69.77 47.63 69.72 47.66 69.67 47.71 69.59 47.76 69.52 47.79 69.44 47.81 69.36 47.86 69.29 47.89 69.21 47.91 69.11 47.94 69.03 47.97 68.93 47.97 68.83 47.99 68.73 47.99 68.63 47.99 68.53 48.02 68.42 48.02 68.3 48.02 68.19 47.99 68.07 47.99 67.97 47.99 67.84 47.97 67.71 47.94 67.61 47.91 67.48 47.89 67.35 47.86 67.23 47.84 67.1 47.79 66.97 47.76 66.85 47.71 66.72 47.66 66.59 47.61 66.46 47.56 66.34 47.51 66.21 47.46 66.08 47.41 65.96 47.33 65.83 47.28 65.7 47.2 65.57 47.13 65.45 47.05 65.34 46.97 65.22 46.9 65.09 46.82 64.99 46.74 64.86 46.67 64.76 46.57 64.66 46.49 64.56 46.39 64.45 46.31 64.35 46.21 64.25 46.13 64.15 46.03 64.07 45.93 63.97 45.85 63.89 45.75 63.82 45.65 63.74 45.55 63.67 45.45 63.59 45.37 63.54 45.27 63.46 32.27 55.45"/><polyline class="cls-2" points="47.74 68.68 46.97 68.96 46.9 68.98 46.82 68.98 46.74 69.01 46.67 69.01 46.57 69.01 46.49 69.01 46.41 69.01 46.34 69.01 46.26 68.98 46.16 68.98 46.08 68.96 46.01 68.93 45.9 68.88 45.83 68.86 45.75 68.83 45.67 68.78 42.44 67.05 42.24 66.95 41.99 66.82 33.92 62.88 33.69 62.77 33.46 62.65 32.24 61.99"/><circle class="cls-3" cx="45.2" cy="66.54" r="7.66"/></svg>