<?xml version="1.0" encoding="utf-8"?>
<!-- Generator: Adobe Illustrator 21.1.0, SVG Export Plug-In . SVG Version: 6.00 Build 0)  -->
<svg version="1.1" id="Laag_1" xmlns="http://www.w3.org/2000/svg" xmlns:xlink="http://www.w3.org/1999/xlink" x="0px" y="0px"
	 viewBox="0 0 157.1 157.1" style="enable-background:new 0 0 157.1 157.1;" xml:space="preserve">
<style type="text/css">
	.st0{fill:none;stroke:#0A0C06;stroke-linejoin:bevel;stroke-miterlimit:22.9256;}
	.st1{fill:#1D1D1B;stroke:#000000;stroke-width:0.75;stroke-miterlimit:10;}
	.st2{fill:#0066FF;stroke:#0066FF;stroke-miterlimit:10;}
	.st3{fill:none;stroke:#0066FF;stroke-miterlimit:10;}
	.st4{fill:none;stroke:#000000;stroke-width:0.75;stroke-miterlimit:10;}
</style>
<path class="st0" d="M9.3,0.5C7,0.5,4.7,1.4,3.1,3.1C1.4,4.7,0.5,6.9,0.5,9.3"/>
<path class="st0" d="M0.5,147.8c0,2.3,0.9,4.6,2.6,6.2c1.6,1.6,3.9,2.6,6.2,2.6"/>
<path class="st0" d="M156.6,9.3c0-2.3-0.9-4.6-2.6-6.2c-1.6-1.6-3.9-2.6-6.2-2.6"/>
<line class="st0" x1="147.8" y1="0.5" x2="9.3" y2="0.5"/>
<path class="st0" d="M147.8,156.6c2.3,0,4.6-0.9,6.2-2.6c1.6-1.6,2.6-3.9,2.6-6.2"/>
<line class="st0" x1="0.5" y1="9.3" x2="0.5" y2="147.8"/>
<line class="st0" x1="9.3" y1="156.6" x2="147.8" y2="156.6"/>
<line class="st0" x1="156.6" y1="147.8" x2="156.6" y2="9.3"/>
<path class="st0" d="M139.4,48.5c-12.2,0-30.4,0-36.5,0"/>
<path class="st0" d="M139.4,137.3c0-39.3,0-98.3,0-117.6"/>
<path class="st0" d="M19.7,139.5c39.1,0,98.2,0,117.7,0"/>
<path class="st0" d="M17.7,78.8c12.2,0,30.4,0,36.5,0"/>
<path class="st0" d="M54.2,108.4c-12.2,0-30.4,0-36.5,0"/>
<path class="st0" d="M137.3,139.4c0.6,0,1.3-0.4,1.5-0.6c0.4-0.4,0.6-1.2,0.6-1.5"/>
<path class="st0" d="M102.9,138.5c0,0.3,0,0.7,0,0.8"/>
<path class="st0" d="M102.9,17.6c0,44.3,0,99.7,0,121.8"/>
<path class="st0" d="M139.4,19.7c0-0.6-0.4-1.3-0.6-1.5c-0.4-0.4-1.2-0.6-1.5-0.6"/>
<path class="st0" d="M137.3,17.6c-11.2,0-28.1,0-33.7,0"/>
<path class="st0" d="M54.2,17.6c0,40.8,0,101.7,0,121.9"/>
<path class="st0" d="M54.2,20.4c16.2,0,40.4,0,48.4,0"/>
<path class="st0" d="M102.6,136.6c-16.1,0-40.2,0-48.2,0"/>
<path class="st0" d="M102.9,17.6c0,0.3,0,0.7,0,0.8"/>
<path class="st0" d="M102.9,18.4c0,0.4,0,0.9,0,1.1"/>
<path class="st0" d="M17.7,48.5c12.2,0,30.4,0,36.5,0"/>
<path class="st0" d="M17.6,137.4c0-39.4,0-98.5,0-117.8"/>
<path class="st0" d="M19.7,139.5c-0.6,0-1.3-0.4-1.5-0.6c-0.4-0.4-0.6-1.2-0.6-1.5"/>
<path class="st0" d="M17.6,19.7c0-0.6,0.4-1.3,0.6-1.5c0.4-0.4,1.2-0.6,1.5-0.6"/>
<path class="st0" d="M53.5,17.6c0.2,0,0.5,0,0.7,0"/>
<path class="st0" d="M139.4,78.8c-12.2,0-30.4,0-36.5,0"/>
<path class="st0" d="M102.9,108.4c12.2,0,30.4,0,36.5,0"/>
<path class="st0" d="M19.7,17.6c39.1,0,98.1,0,117.6,0"/>
<rect x="35.7" y="120.4" class="st1" width="0.5" height="7.7"/>
<rect x="35.7" y="90.1" class="st1" width="0.5" height="7.7"/>
<rect x="35.7" y="59.1" class="st1" width="0.5" height="7.7"/>
<rect x="35.7" y="28.9" class="st2" width="0.5" height="7.7"/>
<path class="st3" d="M121.1,36.8c-1.1,0-2.2-0.5-2.9-1.2l0,0c-0.7-0.7-1.2-1.8-1.2-2.9c0-1.1,0.5-2.2,1.2-2.9l0,0
	c0.7-0.7,1.8-1.2,2.9-1.2s2.2,0.5,2.9,1.2l0,0c0.7,0.7,1.2,1.8,1.2,2.9c0,1.1-0.5,2.2-1.2,2.9l0,0C123.3,36.4,122.2,36.8,121.1,36.8
	z"/>
<rect x="77.5" y="29.7" width="2.1" height="4.2"/>
<path class="st4" d="M121.1,67c-1.1,0-2.2-0.5-2.9-1.2l0,0c-0.7-0.7-1.2-1.8-1.2-2.9c0-1.1,0.5-2.2,1.2-2.9l0,0
	c0.7-0.7,1.8-1.2,2.9-1.2s2.2,0.5,2.9,1.2l0,0c0.7,0.7,1.2,1.8,1.2,2.9s-0.5,2.2-1.2,2.9l0,0C123.3,66.6,122.2,67,121.1,67z"/>
<path class="st4" d="M121.1,97.9c-1.1,0-2.2-0.5-2.9-1.2l0,0c-0.7-0.7-1.2-1.8-1.2-2.9s0.5-2.2,1.2-2.9l0,0c0.7-0.7,1.8-1.2,2.9-1.2
	s2.2,0.5,2.9,1.2l0,0c0.7,0.7,1.2,1.8,1.2,2.9s-0.5,2.2-1.2,2.9l0,0C123.3,97.5,122.2,97.9,121.1,97.9z"/>
<path class="st4" d="M121.1,128.3c-1.1,0-2.2-0.5-2.9-1.2l0,0c-0.7-0.7-1.2-1.8-1.2-2.9s0.5-2.2,1.2-2.9l0,0
	c0.7-0.7,1.8-1.2,2.9-1.2s2.2,0.5,2.9,1.2l0,0c0.7,0.7,1.2,1.8,1.2,2.9s-0.5,2.2-1.2,2.9l0,0C123.3,127.9,122.2,128.3,121.1,128.3z"
	/>
</svg>
