<?xml version="1.0" encoding="UTF-8"?>
<svg xmlns="http://www.w3.org/2000/svg" version="1.1" viewBox="0 0 141.7 141.7">
  <defs>
    <style>
      .cls-1 {
        stroke: #f47920;
        stroke-miterlimit: 10;
        stroke-width: .7px;
      }

      .cls-1, .cls-2 {
        fill: none;
      }

      .cls-3 {
        fill: #231f20;
      }

      .cls-2 {
        stroke: #000;
        stroke-linecap: round;
        stroke-linejoin: round;
        stroke-width: .2px;
      }
    </style>
  </defs>
  <!-- Generator: Adobe Illustrator 28.6.0, SVG Export Plug-In . SVG Version: 1.2.0 Build 709)  -->
  <g>
    <g id="Layer_1">
      <polygon points="57.7 71.2 57.5 70.7 56.5 70.2 55.8 69.8 55 69.3 54.8 69.5 55 69.9 55.8 70.4 56.5 70.8 57.5 71.3 57.7 71.2"/>
      <polygon points="57.7 78.9 57.5 78.4 56.5 77.9 55.8 77.5 55 77.1 54.8 77.2 55 77.6 55.8 78.1 56.5 78.5 57.5 79 57.7 78.9"/>
      <polygon points="57.7 75 57.4 74.6 56.5 74 56.2 74.2 56.5 74.6 57.4 75.2 57.7 75"/>
      <polygon points="56.2 74.2 56 73.8 55.1 73.2 54.8 73.4 55.1 73.8 56 74.3 56.2 74.2"/>
      <polygon points="57.5 71.4 57.5 72.1 57.5 74 57.5 74.6 57.8 75.1 58 74.9 58 74.3 58 72.3 58 71.7 57.8 71.3 57.5 71.4"/>
      <polygon points="54.5 73.5 54.5 74.1 54.5 76 54.5 76.7 54.7 77.1 55 77 55 76.3 55 74.4 55 73.8 54.7 73.3 54.5 73.5"/>
      <polygon points="61.8 73.5 61.5 73.1 60.6 72.5 59.9 72.1 59.1 71.7 58.9 71.8 59.1 72.3 59.9 72.7 60.6 73.1 61.5 73.6 61.8 73.5"/>
      <polygon points="61.8 81.2 61.5 80.8 60.6 80.2 59.9 79.8 59.1 79.4 58.9 79.5 59.1 80 59.9 80.4 60.6 80.8 61.5 81.4 61.8 81.2"/>
      <polygon points="61.8 77.3 61.5 76.9 60.6 76.4 60.3 76.5 60.6 77 61.5 77.5 61.8 77.3"/>
      <polygon points="60.3 76.5 60.1 76.1 59.2 75.6 58.9 75.7 59.2 76.2 60.1 76.7 60.3 76.5"/>
      <polygon points="61.6 73.8 61.6 74.4 61.6 76.3 61.6 76.9 61.8 77.4 62.1 77.2 62.1 76.6 62.1 74.7 62.1 74 61.8 73.6 61.6 73.8"/>
      <polygon points="58.5 75.8 58.5 76.4 58.5 78.4 58.5 79 58.8 79.4 59.1 79.3 59.1 78.7 59.1 76.7 59.1 76.1 58.8 75.7 58.5 75.8"/>
      <polygon points="65.9 75.8 65.6 75.4 64.7 74.8 64 74.5 63.2 74 62.9 74.2 63.2 74.6 64 75.1 64.7 75.4 65.6 76 65.9 75.8"/>
      <polygon points="65.9 83.5 65.6 83.1 64.7 82.6 64 82.2 63.2 81.7 62.9 81.9 63.2 82.3 64 82.8 64.7 83.2 65.6 83.7 65.9 83.5"/>
      <polygon points="65.8 79.7 65.6 79.2 64.7 78.7 64.4 78.9 64.7 79.3 65.6 79.8 65.8 79.7"/>
      <polygon points="64.4 78.9 64.2 78.4 63.2 77.9 63 78 63.2 78.5 64.2 79 64.4 78.9"/>
      <polygon points="62.6 74.3 62.6 75 62.6 76.9 62.6 77.5 62.9 78 63.1 77.8 63.1 77.2 63.1 75.3 63.1 74.6 62.9 74.2 62.6 74.3"/>
      <polygon points="65.7 79.9 65.7 80.5 65.7 82.4 65.7 83.1 65.9 83.5 66.2 83.4 66.2 82.7 66.2 80.8 66.2 80.2 65.9 79.7 65.7 79.9"/>
      <path d="M62.1,81.4c0-.2.1-.2.3-.2.1,0,.3.3.3.4s-.1.2-.3.2c-.1,0-.3-.3-.3-.4"/>
      <polygon points="70.1 83 70 82.9 69.6 82.7 69.4 82.5 69.1 82.3 68.9 82.4 69.1 82.5 69.4 82.7 69.6 82.9 70 83.1 70.1 83"/>
      <polygon points="70.1 86.2 70 86 69.6 85.8 69.4 85.6 69.1 85.4 68.9 85.5 69.1 85.7 69.4 85.8 69.6 86 70 86.2 70.1 86.2"/>
      <polygon points="70.1 84.6 70 84.4 69.6 84.2 69.5 84.3 69.6 84.4 70 84.7 70.1 84.6"/>
      <polygon points="69.5 84.3 69.4 84.1 69.1 83.9 69 83.9 69.1 84.1 69.4 84.3 69.5 84.3"/>
      <polygon points="70.2 83.1 70.1 83.1 70.1 83.4 70.1 84.2 70.1 84.4 70.2 84.6 70.2 84.6 70.2 84.3 70.2 83.5 70.2 83.3 70.2 83.1"/>
      <polygon points="68.9 83.9 68.8 84 68.8 84.2 68.8 85 68.8 85.3 68.9 85.4 69 85.4 69 85.1 69 84.3 69 84.1 68.9 83.9"/>
      <polygon points="71.8 84 71.7 83.8 71.3 83.6 71 83.4 70.7 83.2 70.6 83.3 70.7 83.5 71 83.7 71.3 83.8 71.7 84.1 71.8 84"/>
      <polygon points="71.8 87.1 71.7 86.9 71.3 86.7 71 86.6 70.7 86.4 70.6 86.4 70.7 86.6 71 86.8 71.3 86.9 71.7 87.2 71.8 87.1"/>
      <polygon points="71.8 85.5 71.7 85.4 71.3 85.2 71.2 85.2 71.3 85.4 71.7 85.6 71.8 85.5"/>
      <polygon points="71.2 85.2 71.1 85 70.7 84.8 70.6 84.9 70.7 85.1 71.1 85.3 71.2 85.2"/>
      <polygon points="70.6 83.3 70.5 83.4 70.5 83.6 70.5 84.4 70.5 84.7 70.6 84.9 70.7 84.8 70.7 84.5 70.7 83.8 70.7 83.5 70.6 83.3"/>
      <polygon points="71.8 85.6 71.7 85.6 71.7 85.9 71.7 86.7 71.7 86.9 71.8 87.1 71.9 87 71.9 86.8 71.9 86 71.9 85.7 71.8 85.6"/>
      <polygon points="73.4 84.9 73.3 84.8 72.9 84.5 72.7 84.4 72.3 84.2 72.2 84.2 72.3 84.4 72.7 84.6 72.9 84.8 73.3 85 73.4 84.9"/>
      <polygon points="73.4 88.1 73.3 87.9 72.9 87.7 72.7 87.5 72.3 87.3 72.2 87.4 72.3 87.6 72.7 87.7 72.9 87.9 73.3 88.1 73.4 88.1"/>
      <polygon points="72.2 84.3 72.1 84.3 72.1 84.6 72.1 85.4 72.1 85.6 72.2 85.8 72.3 85.7 72.3 85.5 72.3 84.7 72.3 84.4 72.2 84.3"/>
      <polygon points="73.4 85 73.3 85 73.3 85.3 73.3 86.1 73.3 86.3 73.4 86.5 73.6 86.4 73.6 86.2 73.6 85.4 73.6 85.2 73.4 85"/>
      <polygon points="73.4 86.5 73.3 86.6 73.3 86.8 73.3 87.6 73.3 87.9 73.4 88 73.6 88 73.6 87.7 73.6 86.9 73.6 86.7 73.4 86.5"/>
      <polygon points="72.2 85.8 72.1 85.9 72.1 86.1 72.1 86.9 72.1 87.2 72.2 87.3 72.3 87.3 72.3 87 72.3 86.2 72.3 86 72.2 85.8"/>
      <path d="M71.9,87.2c0,0,0,0,0,0,0,0,0,.1,0,.2s0,0,0,0c0,0,0-.1,0-.2"/>
      <path d="M72,80.5c.3.2.7.5.9.9h.2c-.3-.5-.6-.9-1-1.2-.4-.2-.8-.2-1,0l.2.2c.2-.1.5-.1.9,0"/>
      <path d="M72,81c.2.1.4.4.6.6h.2c-.2-.4-.4-.7-.7-.9-.3-.2-.5-.2-.7,0l.2.2c.2,0,.4,0,.6,0"/>
      <path d="M72,81.5c.1,0,.2.2.3.3h.2c-.1-.3-.3-.4-.4-.5-.2,0-.3-.1-.4,0l.2.2c0,0,.2,0,.3,0"/>
      <path d="M72.2,81.9c0,0,0-.1-.2-.2,0,0-.1,0-.2,0l.2.2h.2Z"/>
      <polygon points="49 73.2 47.1 72.1 47.1 71.9 49 73 49 73.2"/>
      <path d="M47.8,70.8c0-.2,0-.4-.2-.6h-.1c0,.2.1.3.1.4s0,.2-.1.3c-.1,0-.2.2-.2.4s0,.4.2.6h.1c0-.2-.1-.3-.1-.4s0-.2.1-.3c.1,0,.2-.2.2-.4"/>
      <path d="M48.3,71.1c0-.2,0-.4-.2-.6h-.1c0,.2.1.3.1.4s0,.2-.1.3c-.1,0-.2.2-.2.4s0,.4.2.6h.1c0-.2-.1-.3-.1-.5s0-.2.1-.3c.1,0,.2-.2.2-.4"/>
      <path d="M48.9,71.4c0-.2,0-.4-.2-.6h-.1c0,.2.1.3.1.4s0,.2-.1.3c-.1,0-.2.2-.2.4s0,.4.2.6h.1c0-.2-.1-.3-.1-.5s0-.2.1-.3c.1,0,.2-.2.2-.4"/>
      <polygon points="53 84.4 50.7 83.1 50.7 82.8 53 84 53 84.4"/>
      <polygon points="69.9 94 67.7 92.8 67.7 92.4 69.9 93.7 69.9 94"/>
      <polygon points="61.3 89.3 59.1 88.1 59.1 87.7 61.3 89 61.3 89.3"/>
      <polygon points="61.3 88.2 59.1 86.9 59.1 86.6 61.3 87.9 61.3 88.2"/>
      <polygon points="61.3 90.4 59.1 89.2 59.1 88.8 61.3 90.1 61.3 90.4"/>
      <polygon points="68.6 94.4 68.6 91.9 68.9 92 68.9 94.6 68.6 94.4"/>
      <path class="cls-3" d="M47.2,53s0,0,0,0h0v-.2h.2c0,.1,0,.2,0,.3v.4h0s.1,0,.3,0c.2.1.3.3.3.5v.4s0,0,0,0h0v.2h-.2c0-.1,0-.2,0-.3v-.4c0-.1,0-.2-.2-.3-.1,0-.2,0-.2,0,0,0,0,0,0,.1v.4h-.2v-1.2h0Z"/>
      <path class="cls-3" d="M48.5,53.9c.2.1.3.4.3.6h0c0,0-.6-.3-.6-.3,0,.2.1.4.3.5.1,0,.2,0,.2,0v.2c0,0,0,0-.2,0-.2-.1-.4-.5-.4-.7s.2-.4.4-.3M48.7,54.4c0-.2,0-.3-.2-.3-.1,0-.2,0-.2,0l.4.2Z"/>
      <path class="cls-3" d="M49.5,54.8h0c0-.1,0-.2-.2-.3,0,0-.1,0-.1,0h0s-.1,0-.1,0h0c0-.2.2-.2.3-.1.3.2.3.3.3.5v.4s0,0,0,0h0v.2h-.1c0-.1,0-.2,0-.2h0s0,0-.2,0c-.1,0-.3-.2-.3-.4,0-.3.3-.1.5,0M49.3,55.2c.1,0,.2,0,.2-.2h0s0,0,0,0c-.1,0-.3-.2-.3,0s0,.2.2.2"/>
      <path class="cls-3" d="M49.9,54.9h0v-.2h.1c0,0,0-.2,0-.2h.2v.3h.2v.2h-.2c0-.1,0,.3,0,.3,0,.2.1.3.2.3,0,0,0,0,0,0v.2s0,0,0,0c0,0-.3-.2-.3-.5v-.4h0Z"/>
      <path class="cls-3" d="M50.5,55.2s0,0,0,0h0v-.2h.1c0,0,0,.2,0,.2v.5s0,0,0,0h0c0,.1-.1,0-.1,0,0,0,0,0,0-.1v-.5h0ZM50.5,54.8h0v.2h0v-.2Z"/>
      <path class="cls-3" d="M50.8,55.4h0v-.2h0s0-.1,0-.1h.1v.2h.1v.2h-.1c0,0,0,.2,0,.2,0,.1,0,.2.1.2,0,0,0,0,0,0h0s0,.1,0,0c0,0-.2-.2-.2-.4v-.3h0Z"/>
      <path class="cls-3" d="M46.7,52.7h0s0,0,0,0c0,0,0,0,0,0s0,0,0,0c0,0,0,.1,0,.2s0,0,0,0c0,0,0,0,0,0s0,0,0,0c0,0,0,.1,0,.2s0,0,0,0c0,0,0,0,0,0s0,0,0,0c0,0,0,0,0,0,0,0,0,0,0,0,0,0,0-.1,0-.2s0,0,0,0c0,0,0,0,0,0s0,0,0,0c0,0,0-.1,0-.2s0,0,0,0c0,0,0,0,0,0s0,0,0,0c0,0,0-.1,0-.2s0,0,0,0c0,0,0,0,0,0s0,0,0,0,0,0,0,0c0,0,0,0,0,0,0,0,0,.1,0,.2"/>
      <path class="cls-3" d="M46.9,52.8h0s0,0,0,0c0,0,0,0,0,0s0,0,0,0c0,0,0,.1,0,.2s0,0,0,0c0,0,0,0,0,0s0,0,0,0c0,0,0,.1,0,.2s0,0,0,0c0,0,0,0,0,0s0,0,0,0c0,0,0,0,0,0,0,0,0,0,0,0,0,0,0-.1,0-.2s0,0,0,0c0,0,0,0,0,0s0,0,0,0c0,0,0-.1,0-.2s0,0,0,0c0,0,0,0,0,0s0,0,0,0c0,0,0-.1,0-.2s0,0,0,0c0,0,0,0,0,0s0,0,0,0,0,0,0,0c0,0,0,0,0,0,0,0,0,.1,0,.2"/>
      <path class="cls-3" d="M47,52.8h0s0,0,0,0c0,0,0,0,0,0s0,0,0,0c0,0,0,.1,0,.2s0,0,0,0c0,0,0,0,0,0s0,0,0,0c0,0,0,.1,0,.2s0,0,0,0c0,0,0,0,0,0s0,0,0,0c0,0,0,0,0,0,0,0,0,0,0,0,0,0,0-.1,0-.2s0,0,0,0c0,0,0,0,0,0s0,0,0,0c0,0,0-.1,0-.2s0,0,0,0c0,0,0,0,0,0s0,0,0,0c0,0,0-.1,0-.2s0,0,0,0c0,0,0,0,0,0s0,0,0,0,0,0,0,0c0,0,0,0,0,0,0,0,0,.1,0,.2"/>
      <polygon points="48.8 68.1 48.8 67.9 48.5 67.9 48.2 67.5 48.5 67.5 48.8 67.8 48.8 67.7 48.7 67.4 48.9 67.4 48.8 67.2 48.6 67.2 48.6 66.9 48.4 66.9 48.4 67.2 48.1 67.3 48.1 66.8 48.4 66.8 48.3 66.6 48.1 66.6 48.1 66.3 47.9 66.2 47.9 66.5 47.7 66.2 47.6 66.4 47.9 66.7 47.9 67.2 47.6 66.8 47.6 66.4 47.4 66.3 47.4 66.6 47.2 66.3 47.1 66.4 47.4 66.7 47.2 66.7 47.2 66.9 47.5 66.9 47.8 67.3 47.5 67.3 47.2 67 47.2 67.1 47.4 67.3 47.1 67.4 47.2 67.6 47.4 67.6 47.4 67.8 47.6 67.9 47.6 67.6 47.9 67.5 47.9 68 47.6 68 47.7 68.2 47.9 68.2 47.9 68.5 48.1 68.6 48.1 68.3 48.3 68.6 48.4 68.4 48.1 68.1 48.1 67.6 48.4 68 48.4 68.4 48.6 68.5 48.6 68.2 48.8 68.5 48.9 68.4 48.7 68.1 48.8 68.1"/>
      <polyline class="cls-2" points="42.6 86.3 89 113.2 89 59.5 42.6 32.7 42.6 86.3"/>
      <path class="cls-2" d="M81.5,100.4c.2.1.4,0,.4-.2"/>
      <line class="cls-2" x1="81.4" y1="100.5" x2="80.7" y2="100.1"/>
      <line class="cls-2" x1="49.8" y1="46.5" x2="49.8" y2="45.6"/>
      <path class="cls-2" d="M50.2,45.3c-.2-.1-.4,0-.4.2"/>
      <line class="cls-2" x1="50.2" y1="45.4" x2="81.4" y2="63.4"/>
      <path class="cls-2" d="M81.9,64.1c0-.2-.2-.6-.4-.7"/>
      <line class="cls-2" x1="81.8" y1="64.1" x2="81.8" y2="100.2"/>
      <path class="cls-2" d="M95.7,110.3c0,0,0,0,0-.2"/>
      <path class="cls-2" d="M48.6,28.4c0,0-.2,0-.2,0"/>
      <line class="cls-2" x1="95.5" y1="55.5" x2="48.6" y2="28.4"/>
      <path class="cls-2" d="M95.8,55.9c0-.2-.1-.4-.3-.5"/>
      <line class="cls-2" x1="95.7" y1="110.1" x2="95.7" y2="56"/>
      <polyline class="cls-2" points="80.9 99.9 81.6 100.3 81.8 100.2"/>
      <path class="cls-2" d="M89.1,113.2c0,0,0,.2,0,.2"/>
      <path class="cls-2" d="M42.6,86.3c0,0,0,.2,0,.2"/>
      <path class="cls-2" d="M81.6,100.3c0,0,0,.1-.1.2"/>
      <polyline class="cls-2" points="50.2 45.4 50 45.6 50 46.3"/>
      <path class="cls-2" d="M42.5,32.5c0,0,0,.1.1.2"/>
      <path class="cls-2" d="M42.5,86.2c0,0,0,.1.1.2"/>
      <path class="cls-2" d="M49.8,45.5c0,0,.2,0,.2,0"/>
      <polyline class="cls-2" points="48.6 28.4 42.8 32.2 89.3 59 95.5 55.5"/>
      <path class="cls-2" d="M42.9,32.2c-.2,0-.3.3-.3.5"/>
      <path class="cls-2" d="M89.3,59c-.2,0-.3.3-.3.5"/>
      <path class="cls-2" d="M50.2,45.3s0,0,0,0"/>
      <path class="cls-2" d="M81.5,63.4s0,0,0,0"/>
      <path class="cls-2" d="M50.1,45.4s0,0,0,.2"/>
      <path class="cls-2" d="M42.9,32.2c0,0-.2,0-.2,0"/>
      <polyline class="cls-2" points="95.7 56 89.6 59.5 89.6 113.2 95.7 110.1"/>
      <path class="cls-2" d="M89.1,113.2c.2,0,.4,0,.5,0"/>
      <path class="cls-2" d="M89.1,59.5c.2,0,.4,0,.5,0"/>
      <path class="cls-2" d="M81.8,100.2s0,0,0,0"/>
      <path class="cls-2" d="M81.8,64s0,0,0,0"/>
      <path class="cls-2" d="M81.6,100.3c0,0,.1,0,.2,0"/>
      <path class="cls-2" d="M89.5,113.3c0,0,0,0,0-.2"/>
      <path class="cls-2" d="M89.6,59.5c0-.2-.1-.4-.3-.5"/>
      <line class="cls-2" x1="42.7" y1="86.5" x2="89.1" y2="113.3"/>
      <line class="cls-2" x1="42.5" y1="32.5" x2="42.5" y2="86.2"/>
      <path class="cls-2" d="M42.5,86.2c0,.1,0,.3.2.3"/>
      <line class="cls-2" x1="81.5" y1="63.5" x2="50.2" y2="45.4"/>
      <line class="cls-2" x1="42.6" y1="32.2" x2="48.4" y2="28.4"/>
      <path class="cls-2" d="M42.7,32.2c-.1,0-.2.2-.2.3"/>
      <polyline class="cls-2" points="50.2 45.4 50.2 45.4 50.1 45.4 50.1 45.4 50.1 45.4"/>
      <line class="cls-2" x1="81.8" y1="100.2" x2="81.8" y2="64.1"/>
      <line class="cls-2" x1="89.5" y1="113.4" x2="95.7" y2="110.3"/>
      <path class="cls-2" d="M89.2,113.3c.1,0,.2,0,.4,0"/>
      <polyline class="cls-2" points="81.8 100.3 81.8 100.3 81.8 100.3 81.8 100.2 81.8 100.2 81.8 100.2"/>
      <polyline class="cls-2" points="81.8 64.1 81.8 64 81.8 64 81.8 64 81.8 63.9 81.8 63.9 81.8 63.8 81.7 63.8 81.7 63.8 81.7 63.7 81.7 63.7 81.6 63.6 81.6 63.6 81.6 63.5 81.6 63.5 81.5 63.5 81.5 63.5"/>
      <polyline class="cls-2" points="51 45.9 45 49.3 75.5 67 81.5 63.5"/>
      <path class="cls-2" d="M75.6,67.5c0-.1,0-.3-.2-.3"/>
      <line class="cls-2" x1="75.4" y1="67.2" x2="44.9" y2="49.5"/>
      <path class="cls-2" d="M44.9,49.5c0,0-.2,0-.2.1"/>
      <line class="cls-2" x1="44.7" y1="49.6" x2="44.7" y2="84.9"/>
      <path class="cls-2" d="M44.7,84.9c0,.1,0,.3.2.3"/>
      <line class="cls-2" x1="44.9" y1="85.2" x2="75.4" y2="102.9"/>
      <path class="cls-2" d="M75.4,102.8c0,0,.2,0,.2-.1"/>
      <line class="cls-2" x1="75.6" y1="102.8" x2="75.6" y2="67.5"/>
      <polyline class="cls-2" points="45.5 61.5 74.8 78.4 74.8 90.9 45.5 73.9 45.5 61.5"/>
      <path class="cls-2" d="M75.4,102.8s0,0,0,0"/>
      <path class="cls-2" d="M44.9,85.2s0,0,0,0"/>
      <path class="cls-2" d="M75.5,67c0,0-.1.1-.1.2"/>
      <path class="cls-2" d="M45,49.3c0,0-.1.1-.1.2"/>
      <line class="cls-2" x1="45.5" y1="73.9" x2="45.5" y2="73.9"/>
      <path class="cls-2" d="M45,49.3c0,0-.1,0-.2,0"/>
      <path class="cls-2" d="M44.7,84.8s0,0,0,0"/>
      <path class="cls-2" d="M44.7,49.6s0,0,0,0"/>
      <polyline class="cls-2" points="81.8 64 75.8 67.5 75.8 102.8 81.8 99.3"/>
      <path class="cls-2" d="M78.1,100.1c0,0,0,0,0,0"/>
      <line class="cls-2" x1="78.1" y1="100.2" x2="78.1" y2="92.9"/>
      <path class="cls-2" d="M78.2,92.7c0,0-.1.1-.1.2"/>
      <line class="cls-2" x1="78.2" y1="92.7" x2="78.8" y2="92.3"/>
      <path class="cls-2" d="M79,92.4c0,0,0,0,0,0"/>
      <line class="cls-2" x1="78.9" y1="92.4" x2="78.9" y2="99.6"/>
      <path class="cls-2" d="M78.8,99.8c0,0,.1-.1.1-.2"/>
      <line class="cls-2" x1="78.8" y1="99.8" x2="78.2" y2="100.2"/>
      <path class="cls-2" d="M78.2,75.7c0,0-.1.1-.1.2"/>
      <line class="cls-2" x1="78.2" y1="75.7" x2="78.8" y2="75.4"/>
      <path class="cls-2" d="M79,75.4c0,0,0,0,0,0"/>
      <line class="cls-2" x1="78.9" y1="75.4" x2="78.9" y2="82.7"/>
      <path class="cls-2" d="M78.8,82.8c0,0,.1-.1.1-.2"/>
      <line class="cls-2" x1="78.8" y1="82.9" x2="78.2" y2="83.2"/>
      <path class="cls-2" d="M78.1,83.1c0,0,0,0,0,0"/>
      <line class="cls-2" x1="78.1" y1="83.2" x2="78.1" y2="75.9"/>
      <path class="cls-2" d="M79,83.9c0,0,0,0,0,0"/>
      <line class="cls-2" x1="78.9" y1="83.9" x2="78.9" y2="91.2"/>
      <path class="cls-2" d="M78.8,91.3c0,0,.1-.1.1-.2"/>
      <line class="cls-2" x1="78.8" y1="91.3" x2="78.2" y2="91.7"/>
      <path class="cls-2" d="M78.1,91.6c0,0,0,0,0,0"/>
      <line class="cls-2" x1="78.1" y1="91.7" x2="78.1" y2="84.4"/>
      <path class="cls-2" d="M78.2,84.2c0,0-.1.1-.1.2"/>
      <line class="cls-2" x1="78.2" y1="84.2" x2="78.8" y2="83.8"/>
      <path class="cls-2" d="M79,66.9c0,0,0,0,0,0"/>
      <line class="cls-2" x1="78.9" y1="66.9" x2="78.9" y2="74.2"/>
      <path class="cls-2" d="M78.8,74.4c0,0,.1-.1.1-.2"/>
      <line class="cls-2" x1="78.8" y1="74.4" x2="78.2" y2="74.7"/>
      <path class="cls-2" d="M78.1,74.6c0,0,0,0,0,0"/>
      <line class="cls-2" x1="78.1" y1="74.7" x2="78.1" y2="67.4"/>
      <path class="cls-2" d="M78.2,67.2c0,0-.1.1-.1.2"/>
      <line class="cls-2" x1="78.2" y1="67.2" x2="78.8" y2="66.9"/>
      <path class="cls-2" d="M75.8,67.4c0-.2-.1-.4-.3-.5"/>
      <path class="cls-2" d="M75.7,102.9c0,0,0,0,0-.2"/>
      <path class="cls-2" d="M75.6,102.7c0,0,.2,0,.2,0"/>
      <path class="cls-2" d="M75.6,67.5c0,0,.2,0,.2,0"/>
      <line class="cls-2" x1="78.9" y1="66.9" x2="78.8" y2="66.9"/>
      <line class="cls-2" x1="78.1" y1="73.7" x2="78.9" y2="74.2"/>
      <line class="cls-2" x1="78.8" y1="74.4" x2="78.1" y2="73.9"/>
      <line class="cls-2" x1="78.1" y1="74.7" x2="78.2" y2="74.7"/>
      <line class="cls-2" x1="78.8" y1="99.8" x2="78.1" y2="99.4"/>
      <line class="cls-2" x1="78.1" y1="100.1" x2="78.2" y2="100.2"/>
      <line class="cls-2" x1="78.9" y1="92.4" x2="78.8" y2="92.4"/>
      <line class="cls-2" x1="78.1" y1="99.2" x2="78.9" y2="99.6"/>
      <line class="cls-2" x1="78.1" y1="91.4" x2="78.5" y2="91.2"/>
      <line class="cls-2" x1="78.1" y1="91.6" x2="78.2" y2="91.7"/>
      <line class="cls-2" x1="78.8" y1="91.3" x2="78.5" y2="91.2"/>
      <line class="cls-2" x1="78.9" y1="83.9" x2="78.8" y2="83.9"/>
      <line class="cls-2" x1="78.6" y1="91" x2="78.6" y2="84"/>
      <line class="cls-2" x1="78.6" y1="91" x2="78.9" y2="91.2"/>
      <path class="cls-2" d="M78.6,91.2c0,0,.1-.1.1-.2"/>
      <line class="cls-2" x1="78.9" y1="75.4" x2="78.8" y2="75.4"/>
      <line class="cls-2" x1="78.6" y1="82.5" x2="78.6" y2="75.5"/>
      <line class="cls-2" x1="78.6" y1="82.5" x2="78.9" y2="82.7"/>
      <line class="cls-2" x1="78.1" y1="82.9" x2="78.5" y2="82.7"/>
      <line class="cls-2" x1="78.1" y1="83.2" x2="78.2" y2="83.2"/>
      <line class="cls-2" x1="78.8" y1="82.9" x2="78.5" y2="82.7"/>
      <path class="cls-2" d="M78.6,82.7c0,0,.1-.1.1-.2"/>
      <line class="cls-2" x1="44.9" y1="85.3" x2="75.4" y2="102.9"/>
      <line class="cls-2" x1="44.8" y1="49.3" x2="50.8" y2="45.8"/>
      <polyline class="cls-2" points="44.9 85.3 44.9 85.2 44.8 85.2 44.8 85.2 44.8 85.2 44.8 85.2 44.8 85.2 44.8 85.1 44.7 85.1 44.7 85.1 44.7 85 44.7 85 44.7 84.9 44.7 84.9 44.7 84.9 44.7 84.8 44.7 49.6 44.7 49.5 44.7 49.5 44.7 49.5 44.7 49.4 44.7 49.4 44.7 49.4 44.8 49.3 44.8 49.3"/>
      <polyline class="cls-2" points="75.4 102.9 75.5 102.9 75.5 103 75.6 103 75.6 103 75.6 103 75.7 103 75.7 103 75.7 102.9 81.8 99.4"/>
      <polyline class="cls-2" points="45.5 73.9 45.5 61.5 45.5 61.5"/>
      <polyline class="cls-2" points="45.5 61.5 74.8 78.4 74.8 78.4"/>
      <polyline class="cls-2" points="74.8 78.4 74.8 90.8 74.8 90.8"/>
      <line class="cls-2" x1="74.8" y1="90.8" x2="45.5" y2="73.9"/>
      <path class="cls-2" d="M50.3,46s0,0,0,0"/>
      <polyline class="cls-2" points="50.3 45.9 50.3 45.9 50.3 45.8 50.4 45.8 50.4 45.8 50.4 45.7 50.4 45.6 50.4 45.6 50.5 45.6"/>
      <polyline class="cls-2" points="50.3 45.5 50.3 45.5 50.3 45.6 50.2 45.6 50.2 45.6"/>
      <path class="cls-2" d="M50.3,46s0,0,0,0"/>
      <polyline class="cls-2" points="50.3 46.1 50.3 46 50.3 45.9"/>
      <polyline class="cls-2" points="81.8 100 81.8 100 81.7 100"/>
      <line class="cls-2" x1="50.3" y1="46" x2="50.7" y2="45.8"/>
      <polyline class="cls-2" points="81.8 99.9 81.7 100 81.7 100 81.7 100.1 81.7 100.1 81.7 100.1 81.8 100.1 81.8 100.2"/>
      <line class="cls-2" x1="50.3" y1="46.2" x2="50.3" y2="46"/>
      <polyline class="cls-2" points="50.3 46 50.3 46 50.2 45.9 50.2 45.8 50.2 45.7 50.2 45.7 50.2 45.6 50.2 45.5"/>
      <circle class="cls-1" cx="60.3" cy="88.5" r="3.8"/>
    </g>
  </g>
</svg>