<?xml version="1.0" encoding="UTF-8"?><svg id="Layer_1" xmlns="http://www.w3.org/2000/svg" viewBox="0 0 141.73 141.73"><defs><style>.cls-1{fill:none;stroke:#231f20;stroke-linecap:round;stroke-linejoin:round;stroke-width:.33px;}</style></defs><path class="cls-1" d="m99.03,63.06s0,0,0,0l-.05-.6-.15-.56s0-.01,0-.02c0,0,0,0,0,0l-.2-.59-1.14-2.76-1.39-2.69-1.49-2.39-1.26-1.74-1.34-1.63s0,0,0,0c0,0,0,0,0,0l-.21-.22-.33-.29-11.81-6.85s0,0-.01,0l-.28-.15-.39-.14-.23-.05h-.02s-.15-.03-.15-.03h-.02s-.06,0-.06,0l-1.2.03-1.4.24-.98.31-.54.23-25.53-14.74s0,0,0,0c0,0,0,0-.01,0,0,0-.01,0-.02,0-.04-.01-.08-.02-.11,0-.02,0-.04,0-.05.01l-5.79,3.98s-.02.03-.03.05c-.04.04-.07.1-.08.16,0,.01-.02.03-.02.04v53.64s.01.05.03.07c.02.06.05.11.1.15,0,.01.01.02.02.03l46.46,26.83s.03.01.05.01c0,0,0,0,.01,0,.03,0,.06.02.09.02.03,0,.05-.01.08-.02,0,0,0,0,.01,0,.01,0,.03,0,.04,0l6.34-3.02s.04-.03.05-.06c.02-.02.03-.05.04-.08,0,0,0-.01,0-.02,0,0,0,0,0-.01,0,0,0,0,0,0h0s0,0,0,0c0,0,0,0,0,0v-29.5l.47-.35.48-.42.71-.75.62-.83.35-.56.05-.1.03-.03s0-.01.01-.02l.04-.08.23-.79.03-.4s0,0,0,0c0,0,0,0,0,0,0,0,0,0,0,0v-13.2h0s0,0,0,0Z"/><path class="cls-1" d="m77.84,42.54c-1.27-.02-2.44.22-3.49.7"/><path class="cls-1" d="m78.33,42.42c-.17,0-.34.04-.49.13"/><line class="cls-1" x1="75.44" y1="43.87" x2="77.84" y2="42.55"/><line class="cls-1" x1="78.82" y1="42.85" x2="76.19" y2="44.31"/><path class="cls-1" d="m78.83,42.85c-.34-.2-.68-.3-.99-.31"/><path class="cls-1" d="m79.61,42.79c-.21-.12-.49-.1-.78.07"/><path class="cls-1" d="m79.61,42.79s0,0,0,0"/><line class="cls-1" x1="78.82" y1="42.85" x2="90.26" y2="49.46"/><path class="cls-1" d="m91.04,49.38c-.21-.12-.49-.1-.78.07"/><line class="cls-1" x1="87.64" y1="50.92" x2="90.26" y2="49.46"/><line class="cls-1" x1="91.25" y1="50.29" x2="88.87" y2="51.63"/><path class="cls-1" d="m91.25,50.29c-.31-.35-.64-.64-.99-.83"/><path class="cls-1" d="m91.94,50.13c-.09-.1-.34-.04-.68.15"/><path class="cls-1" d="m91.94,50.13s0,0,0,0"/><path class="cls-1" d="m94.74,55.01c-1.05-1.69-2.22-3.28-3.49-4.73"/><path class="cls-1" d="m98.27,62.43c-.62-1.81-1.4-3.62-2.34-5.37"/><path class="cls-1" d="m98.73,61.92s0,0,0,0"/><path class="cls-1" d="m98.26,62.43c.34-.2.52-.39.47-.52"/><line class="cls-1" x1="95.92" y1="63.83" x2="98.26" y2="62.43"/><line class="cls-1" x1="98.49" y1="63.71" x2="95.92" y2="65.23"/><path class="cls-1" d="m98.49,63.71c0-.4-.08-.83-.23-1.27"/><path class="cls-1" d="m98.49,63.71c.29-.17.45-.4.45-.64"/><line class="cls-1" x1="98.49" y1="63.71" x2="98.49" y2="76.92"/><path class="cls-1" d="m98.93,76.27h0"/><path class="cls-1" d="m98.49,76.91c.29-.17.45-.4.45-.64"/><line class="cls-1" x1="95.92" y1="78.47" x2="98.49" y2="76.92"/><line class="cls-1" x1="98.26" y1="77.93" x2="95.92" y2="79.33"/><path class="cls-1" d="m98.26,77.92c.15-.27.23-.61.23-1.01"/><path class="cls-1" d="m98.26,77.92c.15-.09.27-.22.36-.36"/><path class="cls-1" d="m95.93,80.58c.94-.67,1.72-1.56,2.34-2.66"/><polyline class="cls-1" points="79.59 42.78 79.52 42.74 79.46 42.71 79.39 42.68 79.32 42.64 79.25 42.62 79.17 42.58 79.09 42.56 79.02 42.53 78.94 42.51 78.86 42.49 78.82 42.47 78.77 42.46 78.73 42.46 78.69 42.46 78.65 42.45 78.6 42.44 78.55 42.43 78.51 42.43 78.47 42.42 78.42 42.42 78.38 42.42 78.33 42.42 78.2 42.42 78.07 42.42 77.94 42.42 77.8 42.42 77.68 42.43 77.54 42.44 77.42 42.45 77.28 42.46 77.16 42.47 77.03 42.49 76.9 42.51 76.77 42.52 76.64 42.54 76.52 42.57 76.39 42.58 76.26 42.61 76.14 42.63 76.02 42.67 75.89 42.69 75.77 42.73 75.65 42.76 75.53 42.79 75.4 42.84 75.29 42.87 75.17 42.91 75.04 42.95 74.92 43 74.8 43.05 74.69 43.1 74.58 43.14 74.46 43.19 74.34 43.25"/><polyline class="cls-1" points="79.6 42.78 91.03 49.39 91.1 49.42 91.17 49.47 91.23 49.51 91.28 49.55 91.34 49.59 91.4 49.63 91.46 49.68 91.52 49.73 91.57 49.78 91.63 49.83 91.68 49.88 91.73 49.92 91.78 49.98 91.83 50.03 91.88 50.08 91.93 50.13"/><polyline class="cls-1" points="91.93 50.14 92.07 50.29 92.2 50.45 92.35 50.61 92.48 50.78 92.62 50.94 92.74 51.1 92.88 51.27 93.01 51.44 93.14 51.6 93.27 51.77 93.4 51.93 93.53 52.11 93.66 52.28 93.79 52.45 93.91 52.63 94.04 52.8 94.16 52.97 94.28 53.15 94.4 53.32 94.53 53.5 94.65 53.69 94.76 53.86 94.88 54.04 95 54.23 95.12 54.4 95.24 54.59 95.35 54.77 95.46 54.96 95.57 55.14 95.68 55.33 95.79 55.52 95.9 55.7 96.01 55.89 96.11 56.08 96.22 56.26 96.32 56.45 96.42 56.64 96.53 56.84 96.63 57.02 96.73 57.22 96.83 57.41 96.92 57.6 97.02 57.8 97.11 57.99 97.21 58.19 97.3 58.38 97.39 58.57 97.48 58.77 97.57 58.96 97.65 59.15 97.74 59.36 97.82 59.55 97.91 59.74 97.99 59.95 98.08 60.14 98.15 60.33 98.23 60.54 98.3 60.73 98.38 60.93 98.45 61.13 98.53 61.33 98.6 61.52 98.67 61.72 98.73 61.92"/><polyline class="cls-1" points="98.93 76.27 98.93 63.07 98.93 63 98.93 62.92 98.93 62.85 98.92 62.77 98.91 62.7 98.9 62.63 98.89 62.55 98.88 62.48 98.87 62.41 98.85 62.34 98.83 62.27 98.82 62.2 98.8 62.13 98.78 62.06 98.76 61.99 98.73 61.93"/><polyline class="cls-1" points="98.93 76.28 98.93 76.36 98.93 76.43 98.93 76.51 98.92 76.59 98.91 76.67 98.89 76.75 98.88 76.83 98.87 76.91 98.84 76.99 98.83 77.07 98.81 77.11 98.8 77.15 98.78 77.19 98.77 77.24 98.75 77.27 98.73 77.31 98.72 77.35 98.7 77.4 98.68 77.44 98.66 77.48 98.64 77.52 98.61 77.56 98.56 77.67 98.49 77.78 98.42 77.9 98.35 78.01 98.28 78.12 98.21 78.23 98.13 78.33 98.06 78.44 97.98 78.55 97.91 78.65 97.83 78.75 97.76 78.85 97.67 78.95 97.6 79.06 97.51 79.15 97.43 79.25 97.34 79.34 97.25 79.43 97.17 79.53 97.07 79.62 96.99 79.7 96.9 79.8 96.8 79.88 96.71 79.97 96.62 80.05 96.52 80.13 96.42 80.21 96.32 80.29 96.22 80.37 96.12 80.45 96.02 80.52 95.92 80.59"/><line class="cls-1" x1="81.85" y1="100.56" x2="50.32" y2="82.35"/><path class="cls-1" d="m50.33,45.3s.01.08.04.09"/><path class="cls-1" d="m81.85,63.49s.01.08.04.09"/><line class="cls-1" x1="50.32" y1="45.3" x2="81.85" y2="63.5"/><path class="cls-1" d="m82.08,63.9s.02.06.06.08"/><path class="cls-1" d="m82.08,100.31s.02.06.06.08"/><line class="cls-1" x1="82.13" y1="63.99" x2="82.13" y2="100.4"/><path class="cls-1" d="m82.14,63.99c0-.18-.13-.4-.28-.49"/><path class="cls-1" d="m81.85,100.55c.16.09.28.02.28-.16"/><line class="cls-1" x1="50.04" y1="81.87" x2="50.04" y2="45.46"/><path class="cls-1" d="m50.33,45.29c-.16-.09-.28-.02-.28.16"/><path class="cls-1" d="m50.04,81.86c0,.18.13.4.28.49"/><polyline class="cls-1" points="89.31 113.16 89.31 59.52 42.86 32.7 42.86 86.33 89.31 113.16"/><path class="cls-1" d="m89.45,59.27c-.07.05-.13.15-.13.24"/><line class="cls-1" x1="42.99" y1="32.46" x2="89.45" y2="59.28"/><path class="cls-1" d="m43,32.45c-.07.05-.13.15-.13.24"/><path class="cls-1" d="m42.81,32.61s.02.06.06.08"/><path class="cls-1" d="m42.81,86.25s.02.06.06.08"/><path class="cls-1" d="m42.86,86.34s.01.08.04.09"/><path class="cls-1" d="m89.31,113.15s.01.08.04.09"/><path class="cls-1" d="m89.31,113.15c.07.04.2.04.27,0"/><line class="cls-1" x1="89.58" y1="59.52" x2="89.58" y2="113.16"/><path class="cls-1" d="m89.31,59.51c.07.04.2.04.27,0"/><path class="cls-1" d="m89.54,113.25s.05-.05.05-.09"/><path class="cls-1" d="m89.59,59.51c0-.09-.07-.2-.14-.24"/><path class="cls-1" d="m43,32.45s-.08-.02-.11,0"/><path class="cls-1" d="m95.87,110.23s.05-.05.05-.09"/><line class="cls-1" x1="89.58" y1="113.16" x2="95.92" y2="110.14"/><path class="cls-1" d="m48.77,28.48s-.08-.03-.1,0"/><line class="cls-1" x1="48.77" y1="28.48" x2="95.78" y2="55.62"/><path class="cls-1" d="m95.92,55.86c0-.09-.06-.2-.14-.24"/><line class="cls-1" x1="95.92" y1="55.86" x2="95.92" y2="110.14"/><line class="cls-1" x1="95.92" y1="55.86" x2="89.58" y2="59.52"/><line class="cls-1" x1="89.45" y1="59.28" x2="95.78" y2="55.62"/><line class="cls-1" x1="48.77" y1="28.48" x2="42.99" y2="32.46"/><line class="cls-1" x1="50.36" y1="45.4" x2="81.89" y2="63.59"/><polyline class="cls-1" points="81.89 63.59 81.9 63.6 81.91 63.61 81.92 63.61 81.92 63.62 81.93 63.63 81.94 63.64 81.95 63.65 81.96 63.65 81.97 63.66 81.97 63.67 81.98 63.69 81.99 63.7 82 63.7 82.01 63.72 82.02 63.73 82.02 63.75 82.03 63.76 82.03 63.76 82.04 63.78 82.04 63.79 82.05 63.81 82.05 63.81 82.06 63.83 82.06 63.84 82.06 63.85 82.07 63.86 82.07 63.87 82.07 63.88 82.07 63.89 82.07 63.9 82.07 63.91 82.07 100.31 82.07 100.32 82.07 100.33 82.07 100.34"/><polyline class="cls-1" points="50.34 45.38 50.35 45.38 50.35 45.39 50.35 45.39 50.36 45.4"/><line class="cls-1" x1="42.8" y1="32.62" x2="42.8" y2="86.26"/><line class="cls-1" x1="42.9" y1="86.43" x2="89.36" y2="113.25"/><path class="cls-1" d="m89.35,113.24c.06.03.13.04.18,0"/><path class="cls-1" d="m42.81,86.25c0,.07.04.14.1.17"/><path class="cls-1" d="m42.89,32.45c-.05.04-.09.1-.09.16"/><line class="cls-1" x1="95.88" y1="110.24" x2="89.54" y2="113.26"/><line class="cls-1" x1="48.67" y1="28.47" x2="42.88" y2="32.45"/><path class="cls-1" d="m66.12,63.08c-2.6-1.47-5.04-1.48-6.62-.02"/><path class="cls-1" d="m71.34,83.57c2.06-.64,3.27-2.76,3.29-5.74"/><path class="cls-1" d="m70.64,83.98c2.98-.45,4.51-3.63,3.85-8.01-.66-4.38-3.37-9.08-6.83-11.84-3.46-2.76-6.98-3.03-8.86-.67"/><polyline class="cls-1" points="81.66 100.01 50.42 81.97 50.42 45.89 81.66 63.93 81.66 100.01"/><path class="cls-1" d="m81.91,100.09s.04-.05.04-.09"/><path class="cls-1" d="m81.67,100c.08.04.2.04.28,0"/><path class="cls-1" d="m81.67,100s.01.08.04.09"/><line class="cls-1" x1="82.07" y1="99.94" x2="81.95" y2="100.01"/><path class="cls-1" d="m50.57,45.64s-.07-.03-.1-.01"/><line class="cls-1" x1="50.57" y1="45.65" x2="50.68" y2="45.58"/><path class="cls-1" d="m50.37,45.81s.02.06.06.08"/><path class="cls-1" d="m50.57,45.64c-.08.04-.14.15-.14.24"/><path class="cls-1" d="m81.71,100.09c.06.04.14.04.2,0"/><line class="cls-1" x1="82.07" y1="100.01" x2="81.91" y2="100.1"/><line class="cls-1" x1="50.62" y1="45.55" x2="50.46" y2="45.64"/><path class="cls-1" d="m50.47,45.63c-.06.04-.1.1-.1.17"/><path class="cls-1" d="m65.22,87.11c3.27-1.89,3.27-8.01,0-13.67-3.27-5.66-8.57-8.72-11.84-6.84"/><path class="cls-1" d="m50.92,72.66c0,4.98,3.5,11.04,7.81,13.53,4.31,2.49,7.81.47,7.81-4.51,0-4.98-3.5-11.04-7.81-13.53-4.31-2.49-7.81-.47-7.81,4.51"/><polyline class="cls-1" points="61.04 62.17 53.37 66.6 53.29 66.64 53.21 66.7 53.13 66.75 53.05 66.8 52.98 66.86 52.9 66.91 52.82 66.97 52.75 67.03 52.67 67.1 52.6 67.16 52.54 67.23 52.46 67.29 52.39 67.36 52.33 67.43 52.27 67.5 52.2 67.57 52.13 67.65 52.07 67.72 52.01 67.8 51.96 67.87 51.9 67.95 51.84 68.04 51.79 68.12 51.73 68.2 51.68 68.29 51.63 68.37 51.58 68.46 51.53 68.55 51.48 68.63 51.44 68.73 51.39 68.82 51.35 68.91 51.31 69 51.27 69.1 51.23 69.19 51.2 69.29 51.16 69.38 51.12 69.48 51.09 69.59 51.06 69.69 51.03 69.79 51 69.89 50.97 69.99 50.94 70.1 50.92 70.2 50.89 70.31 50.87 70.41 50.85 70.52 50.84 70.63 50.81 70.74 50.79 70.85 50.78 70.96 50.77 71.08 50.75 71.19 50.74 71.3 50.73 71.41 50.72 71.52 50.71 71.64 50.7 71.76 50.7 71.88 50.69 71.99 50.69 72.1 50.68 72.22 50.68 72.35 50.68 72.47 50.69 72.58 50.69 72.7 50.7 72.83 50.7 72.95 50.71 73.07 50.72 73.19 50.73 73.32 50.73 73.44 50.75 73.56 50.76 73.69 50.78 73.81 50.79 73.93 50.81 74.06 50.83 74.19 50.84 74.31 50.87 74.44 50.89 74.56 50.91 74.69 50.94 74.83 50.96 74.95 50.99 75.08 51.01 75.2 51.05 75.33 51.07 75.47 51.1 75.59 51.14 75.72 51.17 75.85 51.21 75.98 51.24 76.11 51.27 76.24 51.32 76.37 51.36 76.49 51.39 76.63 51.43 76.76 51.48 76.88 51.52 77.02 51.57 77.14 51.61 77.27 51.66 77.4 51.7 77.53 51.75 77.66 51.8 77.79 51.85 77.92 51.91 78.04 51.96 78.18 52.01 78.31 52.07 78.43 52.12 78.56 52.18 78.68 52.24 78.82 52.3 78.95 52.36 79.07 52.42 79.2 52.49 79.32 52.55 79.45 52.61 79.58 52.67 79.7 52.74 79.82 52.81 79.95 52.87 80.07 52.94 80.19 53.01 80.32 53.08 80.45 53.15 80.56 53.23 80.68 53.3 80.81 53.37 80.93 53.45 81.04 53.52 81.16 53.6 81.29 53.67 81.41 53.75 81.52 53.83 81.63 53.91 81.75 53.99 81.87 54.07 81.98 54.15 82.1 54.23 82.21 54.31 82.32 54.4 82.43 54.48 82.54 54.57 82.65 54.65 82.76 54.74 82.87 54.83 82.98 54.91 83.09 55.01 83.19 55.09 83.3 55.18 83.4 55.27 83.5 55.36 83.61 55.45 83.71 55.54 83.81 55.64 83.91 55.73 84.01 55.82 84.11 55.92 84.2 56.01 84.3 56.1 84.4 56.19 84.49 56.29 84.58 56.39 84.67 56.49 84.76 56.58 84.85 56.68 84.94 56.77 85.02 56.88 85.11 56.98 85.2 57.07 85.27 57.17 85.36 57.27 85.44 57.37 85.52 57.47 85.6 57.57 85.68 57.67 85.75 57.77 85.83 57.87 85.9 57.97 85.97 58.07 86.04 58.17 86.12 58.28 86.18 58.38 86.25 58.49 86.32 58.59 86.38 58.69 86.44 58.79 86.5 58.9 86.56 59 86.62 59.1 86.68 59.21 86.74 59.31 86.79 59.41 86.84 59.51 86.9 59.62 86.95 59.72 86.99 59.82 87.04 59.93 87.08 60.04 87.14 60.14 87.18 60.25 87.22 60.35 87.25 60.45 87.3 60.56 87.33 60.66 87.37 60.76 87.4 60.87 87.43 60.97 87.46 61.07 87.5 61.18 87.52 61.28 87.55 61.38 87.57 61.48 87.59 61.59 87.62 61.7 87.63 61.8 87.65 61.9 87.67 62 87.68 62.1 87.69 62.21 87.71 62.31 87.72 62.41 87.72 62.51 87.72 62.61 87.73 62.71 87.73 62.81 87.73 62.91 87.73 63.01 87.73 63.1 87.72 63.2 87.72 63.3 87.71 63.4 87.7 63.5 87.69 63.59 87.67 63.69 87.66 63.78 87.64 63.88 87.62 63.97 87.6 64.07 87.57 64.16 87.55 64.26 87.52 64.34 87.5 64.43 87.46 64.53 87.43 64.62 87.4 64.7 87.36 64.79 87.33 64.88 87.29 64.96 87.24 65.05 87.2 65.13 87.16 65.22 87.11 72.88 82.69"/></svg>