<?xml version="1.0" encoding="UTF-8"?><svg id="Layer_1" xmlns="http://www.w3.org/2000/svg" viewBox="0 0 141.73 141.73"><defs><style>.cls-1{fill:#00aeef;stroke-width:1.42px;}.cls-1,.cls-2{stroke-linecap:round;stroke-linejoin:round;}.cls-1,.cls-3{stroke:#00aeef;}.cls-2{stroke:#231f20;stroke-width:.33px;}.cls-2,.cls-3{fill:none;}.cls-3{stroke-miterlimit:10;stroke-width:2px;}.cls-4{fill:#231f20;}</style></defs><path class="cls-4" d="m87.15,78.78v-6.21c0-.48-.38-1.09-.86-1.36l-7.11-4.13c-.47-.27-.86-.11-.86.37h0s0-.01,0-.01h0v6.22h0c0,.15.03.3.09.45.01.03.03.07.04.1,0,.02.02.03.02.05.16.31.41.61.7.78l7.11,4.13c.35.21.66.16.79-.07.04-.08.07-.18.07-.3h0s0-.01,0-.01Zm-5.17-3.31l-.19-.11v.48l-.34-.2v-1.46l.52.3c.28.16.47.42.47.75s-.17.4-.46.23m1.67,1.46l-.74-.43v-1.46l.34.2v1.14l.41.24v.32Zm1.59.28c0,.19,0,.37-.14.44-.11.06-.28,0-.43-.09s-.32-.23-.43-.41c-.13-.22-.14-.41-.14-.59v-.82l.34.2v.77c0,.19.01.4.23.53s.23-.07.23-.26v-.77l.34.2v.82Zm1.37,1.34c-.1.04-.24,0-.37-.08-.16-.1-.32-.25-.46-.43l.14-.22c.08.13.18.26.3.33.08.05.16.05.16-.05s-.13-.22-.21-.29c-.21-.19-.35-.33-.35-.62s.19-.38.45-.23c.13.08.29.22.41.36l-.13.22c-.06-.09-.14-.18-.22-.23-.06-.04-.14-.04-.14.04s.09.17.15.23l.09.08c.18.17.32.35.32.58,0,.15-.03.28-.13.31m.31-2.23l-4.43-2.57-.03-.02c-.28.17-.68.15-1.12-.11s-.84-.7-1.12-1.19h-.03s-1.64-.97-1.64-.97v-3.89c0-.34.28-.45.63-.25l7.11,4.13c.35.2.63.64.63.97v3.89Z"/><path class="cls-4" d="m81.34,69.65v-.35c-1.28-.74-2.31-.18-2.31,1.25l.31.18c0-1.24.9-1.73,2-1.08"/><path class="cls-4" d="m84.07,72.91l-.35.89.38.22.03-.12.26.15.03.16.38.22-.34-1.29-.39-.23Zm.12.77l.03-.11c.01-.05.03-.12.04-.22h0c0,.11.03.2.04.27l.03.14-.15-.08Z"/><path class="cls-4" d="m83.39,72.51l-.08.44s-.02.11-.02.2h0c0-.09-.02-.16-.02-.2l-.09-.57-.25-.14-.09.46s-.02.09-.02.17h0c0-.1-.01-.18-.02-.23l-.08-.53-.35-.2.28,1.26.31.18.07-.33s.02-.09.03-.16h.01c0,.08.02.15.03.2l.07.42.31.18.29-.93-.35-.2Z"/><path class="cls-4" d="m81.34,70.86c-.51-.3-.92-.07-.92.5s.41,1.28.92,1.57.92.07.92-.5-.41-1.28-.92-1.57m.28,1.7l-.78-.45.42-.5-.41-.24.18-.21.77.45-.41.5.41.24-.18.22Z"/><path class="cls-4" d="m81.34,69.99c-.94-.54-1.7-.13-1.7.92l.31.18c0-.86.62-1.19,1.38-.75v-.35Z"/><path class="cls-4" d="m85.32,74.04c-.02.06-.04.13-.05.22h0c0-.13-.03-.22-.05-.29l-.1-.46-.38-.22.37,1.31.33.19.37-.88-.37-.22-.11.34Z"/><polygon class="cls-4" points="86.31 74.89 86.59 75.05 86.59 74.77 86.31 74.61 86.31 74.51 86.62 74.69 86.62 74.39 85.96 74.01 85.96 75.1 86.62 75.49 86.63 75.19 86.31 75.01 86.31 74.89"/><path class="cls-4" d="m81.86,74.73l-.06-.03v.36l.06.03c.12.07.24.14.24-.04s-.11-.25-.24-.33"/><path class="cls-4" d="m68.43,76.45c.07.08.17.18.28.24.12.07.18.05.18-.03s-.05-.16-.19-.29c-.19-.18-.31-.37-.31-.55,0-.22.16-.29.43-.13.13.07.22.16.29.23l-.06.2c-.05-.05-.13-.13-.24-.2s-.16-.04-.16.03c0,.08.06.15.21.3.2.2.29.37.29.55,0,.21-.15.31-.46.13-.13-.08-.26-.19-.32-.26l.05-.21Z"/><path class="cls-4" d="m69.6,76.24v.26l.18.11v.21l-.18-.11v.33c0,.11.02.18.1.22.03.02.06.03.08.04v.22s-.09-.03-.16-.07c-.08-.05-.15-.12-.19-.19-.05-.08-.07-.18-.07-.31v-.38l-.11-.06v-.21l.11.06v-.2l.25.08Z"/><path class="cls-4" d="m70.39,77.89v-.1s-.02,0-.02,0c-.05.04-.14.03-.23-.02-.17-.1-.26-.29-.26-.44,0-.24.19-.24.48-.07h0c0-.06-.02-.15-.15-.22-.08-.05-.17-.07-.23-.06l-.05-.21c.06,0,.17.02.32.1.27.16.36.39.36.61v.32c0,.09,0,.17.01.23l-.23-.13Zm-.03-.45c-.13-.08-.24-.1-.24,0,0,.07.04.13.1.17.06.04.12.02.13-.03,0-.01,0-.03,0-.05v-.1Z"/><path class="cls-4" d="m71.08,77.1v.26l.18.11v.21l-.18-.11v.33c0,.11.02.18.1.22.03.02.06.03.08.04v.22s-.09-.03-.16-.07c-.08-.05-.15-.12-.19-.19-.05-.08-.07-.18-.07-.31v-.38l-.11-.06v-.21l.11.06v-.2l.25.08Z"/><path class="cls-4" d="m72.19,78.63c0,.12,0,.22,0,.3l-.22-.13v-.14s-.02,0-.02,0c-.03.04-.11.09-.26,0-.17-.1-.29-.28-.29-.57v-.54l.26.15v.5c0,.13.04.24.13.29.07.04.11,0,.13-.03,0-.01,0-.03,0-.06v-.55l.26.15v.63Z"/><path class="cls-4" d="m72.39,78.79c.05.06.14.15.22.2s.11.03.11-.01-.03-.08-.12-.18c-.17-.16-.23-.3-.23-.41,0-.17.13-.23.33-.11.1.06.18.13.23.19l-.05.17s-.11-.12-.18-.16c-.06-.04-.1-.03-.1.02,0,.04.03.08.13.18.16.15.22.28.22.41,0,.17-.12.23-.36.09-.11-.06-.2-.14-.26-.22l.05-.18Z"/><path class="cls-4" d="m60.64,75.12c0-.16-.01-.34-.01-.53h0c-.04.14-.08.29-.13.42l-.14.42-.2-.12-.12-.56c-.04-.17-.08-.37-.1-.55h0c0,.17-.01.36-.02.51l-.02.47-.24-.14.07-1.23.34.2.11.49c.04.17.07.35.1.51h0c.03-.13.07-.27.11-.39l.12-.35.33.19.06,1.31-.25-.15-.02-.5Z"/><path class="cls-4" d="m61.36,74.85c0,.08-.05.11-.14.06s-.13-.14-.13-.22c0-.08.05-.12.13-.07s.13.14.14.22Zm-.26,1.02v-.92l.26.15v.92l-.26-.15Z"/><path class="cls-4" d="m61.56,75.52c0-.11,0-.21,0-.3l.22.13v.13s.02,0,.02,0c.03-.04.12-.08.25,0,.17.1.29.29.29.57v.55l-.25-.15v-.51c0-.12-.04-.22-.13-.27-.07-.04-.11-.01-.13.03,0,.01-.01.04-.01.07v.53l-.26-.15v-.63Z"/><path class="cls-4" d="m62.52,76.55c0-.1.06-.14.15-.09s.15.16.15.26-.06.14-.15.09-.15-.16-.15-.26Z"/><path class="cls-4" d="m67.54,77.36c-.33-.62-.79-1.17-1.31-1.54-.94-.65-1.8-.5-2.14.29.23-1.08,1.19-1.38,2.25-.64.49.34.92.85,1.25,1.42l-.04.46Z"/><path class="cls-4" d="m65.87,87.62c0,.19-.11.28-.24.2-.12-.07-.21-.24-.23-.41l.32-.02.05.13.22-.3-.44-.26.05.13h-.24c-.07-.25-.24-.51-.45-.63-.26-.15-.48,0-.48.33l.24.14c0-.19.11-.28.24-.2.11.06.2.23.23.39l-.65.04.12.3.57-.03c.07.27.24.55.45.67.26.15.48,0,.48-.33l-.24-.14Z"/><path class="cls-4" d="m68.25,88.2c.08.03.19.08.35.17s.27.19.35.3c.07.11.12.24.12.36s-.04.21-.1.24c-.09.04-.22,0-.37-.08-.03-.02-.06-.04-.09-.06v.45l-.25-.15v-1.25Zm.25.72s.05.04.09.06c.14.08.22.05.22-.08,0-.12-.07-.23-.2-.3-.05-.03-.09-.04-.11-.05v.37Z"/><path class="cls-4" d="m71.62,90.14l.26.15v1.03l.45.26v.24l-.71-.41v-1.27Z"/><path class="cls-4" d="m75.28,92.26l.26.15v1.03l.45.26v.24l-.71-.41v-1.27Z"/><path class="cls-4" d="m53.69,38.73c0-.05-.03-.09-.07-.12l-.13-.08v-.3l.31.18c.15.08.21.19.21.35v.72c0,.09,0,.15,0,.15h0c.07-.13.28-.24.61-.05.38.22.56.56.56,1.03v.79c0,.05.03.09.07.12l.13.08v.3l-.31-.18c-.15-.08-.21-.19-.21-.35v-.86c0-.26-.05-.49-.31-.64s-.45-.07-.52.15c-.02.06-.03.14-.03.23v.86l-.31-.18v-2.18Z"/><path class="cls-4" d="m56.38,40.59c.46.27.7.79.7,1.27,0,.05,0,.14,0,.14l-1.19-.69c.02.4.27.77.56.94s.48.06.48.06l.14.33s-.24.13-.63-.1c-.52-.3-.87-.92-.87-1.47,0-.58.36-.76.82-.49m.38.97c0-.31-.18-.57-.38-.69-.24-.14-.43-.09-.48.19l.87.5Z"/><path class="cls-4" d="m58.33,42.46l.07.04v-.02c0-.32-.11-.5-.36-.65-.08-.05-.27-.13-.27-.01v.11l-.29-.17v-.18c0-.3.41-.11.57-.02.53.31.67.7.67,1.11v.78c0,.05.03.09.07.12l.13.08v.3l-.29-.17c-.15-.08-.2-.2-.2-.33,0-.06,0-.11,0-.11h0s-.13.28-.52.06c-.28-.16-.56-.52-.56-.88,0-.59.71-.22.99-.06m-.36.69c.27.15.44-.06.44-.33v-.06l-.08-.05c-.24-.14-.66-.37-.66-.03,0,.15.1.35.31.47"/><path class="cls-4" d="m59.27,42.6l-.21-.12v-.28l.22.13v-.5l.31.18v.5l.39.23v.28l-.39-.23v.84c0,.37.23.55.35.61.05.03.07.04.07.04v.31s-.04-.02-.11-.06c-.21-.12-.62-.43-.62-1.05v-.88Z"/><path class="cls-4" d="m60.37,43.28s-.02-.06-.05-.08l-.1-.06v-.28l.23.14c.11.06.16.18.16.31v.89s.02.07.05.09l.1.06v.23l-.23-.14c-.11-.06-.16-.14-.16-.27v-.89Zm0-.84l.21.12v.28l-.21-.12v-.28Z"/><path class="cls-4" d="m61.04,43.58l-.16-.09v-.24l.17.1v-.38l.23.14v.38l.3.17v.24l-.3-.17v.62c0,.28.17.41.26.47.03.02.06.03.06.03v.05s-.03.17-.08.14c-.16-.09-.47-.33-.47-.79v-.65Z"/><path class="cls-4" d="m52.66,38.05h0c0,.1-.04.18-.11.2-.03.01-.05.05-.05.11s.02.12.05.17c.07.1.11.22.11.33s-.04.18-.11.2c-.03.01-.05.05-.05.11s.02.12.05.17c.07.1.11.22.11.33s-.04.18-.11.2c-.03.01-.05.05-.05.11s.02.12.05.17c.03.05.03.1,0,.12-.03.02-.07,0-.1-.05-.07-.1-.11-.22-.11-.33s.04-.18.11-.2c.03-.01.05-.05.05-.11s-.02-.12-.05-.17c-.07-.1-.11-.22-.11-.33s.04-.18.11-.2c.03-.01.05-.05.05-.11h0c0-.06-.02-.12-.05-.17-.07-.1-.11-.22-.11-.33s.04-.18.11-.2c.03-.01.05-.05.05-.11h0c0-.06-.02-.12-.05-.17-.03-.05-.03-.1,0-.12.03-.02.07,0,.1.05.07.1.11.22.11.33"/><path class="cls-4" d="m52.95,38.22h0c0,.1-.04.18-.11.2-.03.01-.05.05-.05.11s.02.12.05.17c.07.1.11.22.11.33s-.04.18-.11.2c-.03.01-.05.05-.05.11s.02.12.05.17c.07.1.11.22.11.33s-.04.18-.11.2c-.03.01-.05.05-.05.11s.02.12.05.17c.03.05.03.1,0,.12-.03.02-.07,0-.1-.05-.07-.1-.11-.22-.11-.33s.04-.18.11-.2c.03-.01.05-.05.05-.11s-.02-.12-.05-.17c-.07-.1-.11-.22-.11-.33s.04-.18.11-.2c.03-.01.05-.05.05-.11s-.02-.12-.05-.17c-.07-.1-.11-.22-.11-.33s.04-.18.11-.2c.03-.01.05-.05.05-.11h0c0-.06-.02-.12-.05-.17-.03-.05-.03-.1,0-.12.03-.02.07,0,.1.05.07.1.11.22.11.33"/><path class="cls-4" d="m53.23,38.38h0c0,.1-.04.18-.11.2-.03.01-.05.05-.05.11s.02.12.05.17c.07.1.11.22.11.33s-.04.18-.11.2c-.03.01-.05.05-.05.11s.02.12.05.17c.07.1.11.22.11.33s-.04.18-.11.2c-.03.01-.05.05-.05.11s.02.12.05.17c.03.05.03.1,0,.12-.03.02-.07,0-.1-.05-.07-.1-.11-.22-.11-.33s.04-.18.11-.2c.03-.01.05-.05.05-.11s-.02-.12-.05-.17c-.07-.1-.11-.22-.11-.33s.04-.18.11-.2c.03-.01.05-.05.05-.11s-.02-.12-.05-.17c-.07-.1-.11-.22-.11-.33s.04-.18.11-.2c.03-.01.05-.05.05-.11h0c0-.06-.02-.12-.05-.17-.03-.05-.03-.1,0-.12.03-.02.07,0,.1.05.07.1.11.22.11.33"/><polygon class="cls-4" points="90.35 102.42 84.22 98.87 90.35 99.22 90.35 102.42"/><path class="cls-4" d="m86.19,100.89c.08.03.19.09.31.16.16.1.28.19.35.31.06.09.1.2.1.31,0,.16-.1.22-.21.2h0c.08.09.13.2.16.34.04.18.07.34.09.41l-.21-.12s-.04-.17-.08-.35c-.03-.19-.09-.27-.2-.34l-.1-.06v.52l-.21-.12v-1.26Zm.21.68l.12.07c.14.08.23.05.23-.08,0-.14-.09-.26-.22-.33-.07-.04-.11-.06-.13-.06v.4Z"/><path class="cls-4" d="m87.6,101.96v.43l.37.21v.15l-.37-.21v.43l-.14-.08v-.43l-.37-.21v-.15l.37.21v-.43l.14.08Z"/><path class="cls-4" d="m88.97,103.72s-.16-.03-.29-.11c-.36-.21-.58-.59-.58-.98,0-.42.26-.52.61-.32.14.08.23.17.28.22l-.05.16c-.05-.06-.13-.12-.22-.18-.23-.13-.4-.07-.4.24,0,.28.15.55.4.69.08.05.17.08.23.08l.03.2Z"/><path class="cls-4" d="m78.22,84.63c.08.03.2.09.34.17.17.1.29.19.37.31.07.1.1.21.1.33,0,.16-.1.21-.2.2h0c.08.09.12.2.15.33.04.16.07.35.09.41l-.26-.15s-.05-.17-.08-.34c-.03-.18-.08-.25-.18-.31l-.08-.04v.5l-.25-.15v-1.25Zm.25.69l.1.06c.13.07.2.05.2-.07,0-.12-.07-.22-.19-.29-.06-.04-.1-.05-.12-.06v.35Z"/><path class="cls-4" d="m79.4,86.2c0,.12.11.24.23.31.09.05.16.08.23.09l.03.21c-.08-.01-.19-.05-.3-.12-.28-.16-.44-.43-.44-.72,0-.23.13-.42.41-.25.26.15.37.44.37.67,0,.05,0,.09,0,.11l-.53-.31Zm.3-.02c0-.07-.03-.2-.14-.27-.11-.06-.15.02-.16.09l.3.18Z"/><path class="cls-4" d="m80.09,86.71c.05.06.14.15.22.2s.11.03.11-.01-.03-.08-.12-.18c-.17-.16-.23-.3-.23-.41,0-.17.13-.23.33-.11.1.06.18.13.23.19l-.05.17s-.11-.12-.18-.16c-.06-.04-.1-.03-.1.02,0,.04.03.08.13.18.16.15.22.28.22.41,0,.17-.12.23-.36.09-.11-.06-.2-.14-.26-.22l.05-.18Z"/><path class="cls-4" d="m81.01,87.13c0,.12.11.24.23.31.09.05.16.08.23.09l.03.21c-.08-.01-.19-.05-.3-.12-.28-.16-.44-.43-.44-.72,0-.23.13-.42.41-.25.26.15.37.44.37.67,0,.05,0,.09,0,.11l-.53-.31Zm.3-.02c0-.07-.03-.2-.14-.27-.11-.06-.15.02-.16.09l.3.18Z"/><path class="cls-4" d="m81.99,86.88v.26l.18.11v.21l-.18-.11v.33c0,.11.02.18.1.22.03.02.06.03.08.04v.22s-.09-.03-.16-.07c-.08-.05-.15-.12-.19-.19-.05-.08-.07-.18-.07-.31v-.38l-.11-.06v-.21l.11.06v-.2l.25.08Z"/><path class="cls-4" d="m62.32,52.64l.63-.67h0s-.57-.34-.57-.34v-.14l.76.44v.1l-.62.66h0s.63.37.63.37v.14l-.83-.48v-.1Z"/><path class="cls-4" d="m63.61,52.92v.12l-.41-.24v-.12l.41.24Z"/><path class="cls-4" d="m63.96,53.69l-.29-1.44.15.09.13.72c.03.18.06.35.08.49h0c.02-.11.05-.24.09-.38l.15-.55.15.09.14.72c.03.17.06.34.08.48h0c.02-.12.06-.25.09-.38l.15-.55.15.09-.32,1.08-.15-.09-.14-.74c-.04-.18-.06-.32-.07-.46h0c-.02.11-.05.22-.09.36l-.16.57-.15-.09Z"/><path class="cls-4" d="m65.58,54.63v-.12s-.02,0-.02,0c-.05.05-.13.06-.25,0-.16-.1-.25-.27-.25-.41,0-.22.17-.24.49-.06v-.02c0-.08-.02-.22-.18-.32-.08-.04-.15-.06-.21-.05l-.03-.13c.07,0,.16.01.27.07.25.14.31.37.31.55v.34c0,.08,0,.16.01.23l-.13-.08Zm-.02-.48c-.16-.1-.34-.17-.34,0,0,.11.06.2.14.24.11.06.17.02.2-.04,0-.01,0-.03,0-.05v-.16Z"/><path class="cls-4" d="m65.98,53.95l.16.6c.03.1.05.19.07.27h0c.02-.06.04-.12.07-.19l.16-.42.15.09-.32.73-.14-.08-.31-1.09.16.09Z"/><path class="cls-4" d="m66.8,54.91c0,.23.13.39.28.48.11.06.17.08.22.08l.03.13c-.05,0-.14-.03-.27-.1-.25-.14-.4-.42-.4-.69s.14-.41.38-.27c.26.15.34.46.34.62,0,.03,0,.06,0,.07l-.57-.33Zm.43.13c0-.1-.04-.29-.2-.39-.15-.09-.21.03-.23.14l.43.25Z"/><path class="cls-4" d="m67.92,54.74c.07.03.18.08.28.14.16.09.26.18.33.29.06.09.09.19.09.29,0,.17-.09.22-.21.2h0c.09.09.14.21.17.36.04.2.06.34.09.4l-.15-.09s-.04-.17-.08-.35c-.03-.19-.09-.3-.23-.38l-.14-.08v.55l-.15-.08v-1.25Zm.15.66l.15.09c.16.09.25.05.25-.09,0-.16-.11-.3-.26-.39-.07-.04-.12-.06-.14-.07v.46Z"/><path class="cls-4" d="m69.55,56.47c0,.34-.21.36-.4.25-.22-.13-.39-.41-.39-.69,0-.31.18-.38.4-.25s.39.42.39.7Zm-.64-.36c0,.2.1.41.25.49s.25,0,.25-.21c0-.15-.07-.39-.24-.49s-.25.04-.25.21Z"/><path class="cls-4" d="m69.92,55.98v.26l.21.12v.13l-.21-.12v.49c0,.11.03.19.11.24.04.02.07.03.09.04v.13s-.07-.02-.12-.05c-.07-.04-.12-.1-.16-.16-.04-.07-.06-.16-.06-.27v-.5l-.13-.07v-.13l.13.07v-.22l.14.04Z"/><path class="cls-4" d="m70.74,57.63v-.12s-.02,0-.02,0c-.05.05-.13.06-.25,0-.16-.1-.25-.27-.25-.41,0-.22.17-.24.49-.06v-.02c0-.08-.02-.22-.18-.32-.08-.04-.15-.06-.21-.05l-.03-.13c.07,0,.16.01.27.07.25.14.31.37.31.55v.34c0,.08,0,.16.01.23l-.13-.08Zm-.02-.48c-.16-.1-.34-.17-.34,0,0,.11.06.2.14.24.11.06.17.02.2-.04,0-.01,0-.03,0-.05v-.16Z"/><path class="cls-4" d="m71.1,57.21c0-.11,0-.2,0-.29l.13.07v.18s.01,0,.01,0c.04-.1.13-.13.22-.07.02,0,.03.02.04.03v.16s-.03-.02-.05-.03c-.1-.06-.18-.01-.2.1,0,.02,0,.04,0,.07v.49l-.15-.08v-.63Z"/><path class="cls-4" d="m71.75,57.3l.18.64c.02.07.04.15.05.22h0s.03-.1.05-.16l.16-.44.16.09-.22.52c-.11.25-.18.37-.28.41-.07.03-.14.02-.18,0l-.04-.16s.09.01.13,0c.04-.01.09-.05.12-.11,0-.01.01-.02.01-.03s0-.02-.01-.05l-.3-1.01.16.09Z"/><path class="cls-4" d="m62.58,57.06l-.12.33-.15-.09.38-1.05.18.1.39,1.49-.16-.09-.12-.47-.4-.23Zm.37.09l-.11-.43c-.03-.1-.04-.18-.06-.27h0c-.02.06-.04.13-.06.19l-.11.3.34.2Z"/><path class="cls-4" d="m63.41,57.32c0-.11,0-.2,0-.29l.13.07v.18s.01,0,.01,0c.04-.1.13-.13.22-.07.02,0,.03.02.04.03v.16s-.03-.02-.05-.03c-.1-.06-.18-.01-.2.1,0,.02,0,.04,0,.07v.49l-.15-.08v-.63Z"/><path class="cls-4" d="m64.18,57.21v.26l.21.12v.13l-.21-.12v.49c0,.11.03.19.11.24.04.02.07.03.09.04v.13s-.07-.02-.12-.05c-.07-.04-.12-.1-.16-.16-.04-.07-.06-.16-.06-.27v-.5l-.13-.07v-.13l.13.07v-.22l.14.04Z"/><path class="cls-4" d="m64.51,58.49c0-.07.04-.09.1-.06s.1.11.1.18-.04.1-.1.06c-.06-.03-.1-.11-.1-.18Z"/><path class="cls-4" d="m65.25,58.35c0-.09,0-.17,0-.25l.13.08v.16s.01,0,.01,0c.04-.06.13-.09.27-.02.11.07.29.24.29.55v.54l-.15-.09v-.53c0-.15-.05-.3-.19-.38-.1-.06-.17-.02-.2.05,0,.02-.01.04-.01.07v.55l-.15-.09v-.66Z"/><path class="cls-4" d="m66.92,59.51c0,.34-.21.36-.4.25-.22-.13-.39-.41-.39-.69,0-.31.18-.38.4-.25s.39.42.39.7Zm-.64-.36c0,.2.1.41.25.49s.25,0,.25-.21c0-.15-.07-.39-.24-.49s-.25.04-.25.21Z"/><path class="cls-4" d="m67.03,59.94c0-.07.04-.09.1-.06s.1.11.1.18-.04.1-.1.06c-.06-.03-.1-.11-.1-.18Z"/><path class="cls-4" d="m68.04,59.56h0s-.19,0-.19,0l-.03-.14h.24s.13.07.13.07v1.22l-.14-.08v-1.07Z"/><path class="cls-4" d="m69.03,61.21v-.33l-.51-.29v-.11l.49-.5.16.09v.76l.15.09v.13l-.15-.09v.33l-.14-.08Zm0-.46v-.41c0-.06,0-.13,0-.19h0s-.06.09-.09.13l-.27.26h0s.36.21.36.21Z"/><path class="cls-4" d="m70.25,61.91v-.33l-.51-.29v-.11l.49-.5.16.09v.76l.15.09v.13l-.15-.09v.33l-.14-.08Zm0-.46v-.41c0-.06,0-.13,0-.19h0s-.06.09-.09.13l-.27.26h0s.36.21.36.21Z"/><path class="cls-4" d="m71.11,62.41v-.33l-.51-.29v-.11l.49-.5.16.09v.76l.15.09v.13l-.15-.09v.33l-.14-.08Zm0-.46v-.41c0-.06,0-.13,0-.19h0s-.06.09-.09.13l-.27.26h0s.36.21.36.21Z"/><path class="cls-4" d="m71.97,62.91v-.33l-.51-.29v-.11l.49-.5.16.09v.76l.15.09v.13l-.15-.09v.33l-.14-.08Zm0-.46v-.41c0-.06,0-.13,0-.19h0s-.06.09-.09.13l-.27.26h0s.36.21.36.21Z"/><path class="cls-4" d="m73.18,63.61v-.33l-.51-.29v-.11l.49-.5.16.09v.76l.15.09v.13l-.15-.09v.33l-.14-.08Zm0-.46v-.41c0-.06,0-.13,0-.19h0s-.06.09-.09.13l-.27.26h0s.36.21.36.21Z"/><path class="cls-4" d="m74.31,63.64c0,.42-.14.57-.38.43-.21-.12-.36-.43-.36-.84,0-.41.16-.54.38-.42s.36.44.36.83Zm-.59-.32c0,.32.09.55.22.63.15.09.22-.07.22-.38s-.07-.54-.22-.63c-.13-.07-.22.05-.22.38Z"/><path class="cls-4" d="m62.39,58.97l.15.09v.57h0s.06-.05.11-.05c.04,0,.1,0,.15.04.11.06.28.24.28.55v.54l-.15-.09v-.52c0-.15-.05-.3-.19-.38-.1-.06-.17-.02-.2.05,0,.02-.01.04-.01.07v.55l-.15-.09v-1.34Z"/><path class="cls-4" d="m63.4,60.47c0,.23.13.39.28.48.11.06.17.08.22.08l.03.13c-.05,0-.14-.03-.27-.1-.25-.14-.4-.42-.4-.69s.14-.41.38-.27c.26.15.34.46.34.62,0,.03,0,.06,0,.07l-.57-.33Zm.43.13c0-.1-.04-.29-.2-.39-.15-.09-.21.03-.23.14l.43.25Z"/><path class="cls-4" d="m64.61,61.6v-.12s-.02,0-.02,0c-.05.05-.13.06-.25,0-.16-.1-.25-.27-.25-.41,0-.22.17-.24.49-.06v-.02c0-.08-.02-.22-.18-.32-.08-.04-.15-.06-.21-.05l-.03-.13c.07,0,.16.01.27.07.25.14.31.37.31.55v.34c0,.08,0,.16.01.23l-.13-.08Zm-.02-.48c-.16-.1-.34-.17-.34,0,0,.11.06.2.14.24.11.06.17.02.2-.04,0-.01,0-.03,0-.05v-.16Z"/><path class="cls-4" d="m65.14,60.73v.26l.21.12v.13l-.21-.12v.49c0,.11.03.19.11.24.04.02.07.03.09.04v.13s-.07-.02-.12-.05c-.07-.04-.12-.1-.16-.16-.04-.07-.06-.16-.06-.27v-.5l-.13-.07v-.13l.13.07v-.22l.14.04Z"/><path class="cls-4" d="m65.68,61.05c0,.06-.04.08-.09.05-.05-.03-.09-.1-.09-.15s.04-.08.09-.05.09.1.09.16Zm-.16,1.07v-.91l.15.09v.91l-.15-.09Z"/><path class="cls-4" d="m66.09,61.28v.26l.21.12v.13l-.21-.12v.49c0,.11.03.19.11.24.04.02.07.03.09.04v.13s-.07-.02-.12-.05c-.07-.04-.12-.1-.16-.16-.04-.07-.06-.16-.06-.27v-.5l-.13-.07v-.13l.13.07v-.22l.14.04Z"/><path class="cls-4" d="m66.42,62.55c0-.07.04-.09.1-.06s.1.11.1.18-.04.1-.1.06c-.06-.03-.1-.11-.1-.18Z"/><path class="cls-4" d="m67.38,63.17s-.12-.02-.23-.08c-.24-.14-.4-.42-.4-.7s.17-.38.44-.23c.09.05.16.12.2.17l-.03.11s-.09-.1-.17-.14c-.19-.11-.29-.01-.29.18,0,.21.12.41.28.5.08.05.14.06.18.06l.03.14Z"/><path class="cls-4" d="m68.28,63.26c0,.34-.21.36-.4.25-.22-.13-.39-.41-.39-.69,0-.31.18-.38.4-.25s.39.42.39.7Zm-.64-.36c0,.2.1.41.25.49s.25,0,.25-.21c0-.15-.07-.39-.24-.49s-.25.04-.25.21Z"/><path class="cls-4" d="m68.47,63.17c0-.09,0-.17,0-.25l.13.07v.15s.01,0,.01,0c.05-.06.12-.1.25-.02.11.06.19.19.23.32h0s.06-.06.09-.06c.05-.01.1,0,.18.04.11.06.27.23.27.55v.54l-.14-.08v-.52c0-.18-.06-.31-.18-.38-.08-.05-.15-.02-.17.05,0,.02-.01.05-.01.08v.56l-.14-.08v-.55c0-.14-.06-.28-.17-.35-.09-.05-.16,0-.18.06,0,.02-.01.05-.01.07v.55l-.14-.08v-.66Z"/><path class="cls-4" d="m64.16,49.65c-.14-.08-.2.03-.21.12l.39.23c0-.09-.03-.27-.19-.35Z"/><path class="cls-4" d="m76.77,56.65c-.12-.07-.21.05-.2.38,0,.32.08.54.2.61.13.08.2-.06.2-.39s-.07-.53-.2-.61Z"/><path class="cls-4" d="m64.9,50.63c0,.1.06.18.13.22.09.05.16.02.18-.04,0-.02,0-.03,0-.05v-.14c-.16-.1-.31-.15-.31,0Z"/><path class="cls-4" d="m69.78,52.56c-.07-.04-.12-.07-.15-.08v.99s.08.05.12.08c.29.17.47.09.47-.26,0-.31-.16-.57-.44-.74Z"/><path class="cls-4" d="m61.94,47.15v2.73l17.57,10.19v-2.73l-17.57-10.19Zm1.61,2.99l-.23-.13v-.61l-.52-.3v.61l-.23-.13v-1.39l.23.13v.56l.52.3v-.56l.23.13v1.39Zm1.01.15l-.6-.35c0,.18.13.34.28.42.1.06.18.09.25.1l.03.19c-.08,0-.18-.04-.31-.12-.29-.17-.46-.47-.46-.78,0-.28.15-.45.44-.29s.39.49.39.71c0,.05,0,.08,0,.1Zm.69.83v-.12s-.02,0-.02,0c-.06.05-.15.05-.26-.02-.18-.1-.28-.31-.28-.46,0-.25.2-.27.53-.07v-.02c0-.07-.02-.19-.18-.28-.09-.05-.18-.07-.24-.07l-.04-.19c.07,0,.18.02.32.1.29.17.37.42.37.64v.36c0,.09,0,.18.01.25l-.2-.12Zm.89-.3l-.22-.12v.44c0,.12.03.2.12.25.04.02.07.03.09.04v.2s-.09-.03-.16-.07c-.08-.05-.15-.12-.19-.2-.05-.09-.07-.19-.07-.32v-.47l-.13-.07v-.19l.13.07v-.23l.22.07v.29l.22.12v.19Zm.4,1.05l-.23-.13v-1l.23.13v1Zm-.12-1.22c-.08-.04-.12-.13-.12-.21s.05-.11.13-.06.12.13.13.21c0,.08-.05.11-.13.06Zm.83.82l-.22-.12v.44c0,.12.03.2.12.25.04.02.07.03.09.04v.2s-.09-.03-.16-.07c-.08-.05-.15-.12-.19-.2-.05-.09-.07-.19-.07-.32v-.47l-.13-.07v-.19l.13.07v-.23l.22.07v.29l.22.12v.19Zm1.41,1.64l-.94-.54v-.14l.63-.67h0s-.58-.34-.58-.34v-.21l.87.51v.15l-.62.66h0s.63.38.63.38v.21Zm.55-.14l-.47-.27v-.18l.47.27v.18Zm1.05.9c-.12.05-.32,0-.56-.14-.13-.08-.23-.14-.31-.2v-1.37c.1.04.23.1.36.18.23.13.39.28.51.45.12.18.19.39.19.62s-.08.39-.19.44Zm.61.53l-.23-.13v-1l.23.13v1Zm-.12-1.22c-.08-.04-.12-.13-.12-.21s.05-.11.13-.06.12.13.13.21c0,.08-.05.11-.13.06Zm1.68,2.12l-.22-.13v-.55c0-.17-.05-.3-.16-.36-.08-.04-.13-.02-.16.04,0,.02-.01.05-.01.08v.6l-.22-.13v-.58c0-.14-.05-.27-.15-.33-.08-.05-.14,0-.16.05,0,.02-.01.05-.01.08v.59l-.22-.13v-.71c0-.12,0-.21,0-.3l.19.11v.15s.01,0,.01,0c.04-.05.12-.1.28-.01.12.07.21.2.25.33h0s.07-.06.11-.06c.05-.01.11,0,.18.04.15.09.3.29.3.61v.59Zm1.01.58l-.81-.47v-.15l.14-.06c.28-.13.41-.21.42-.39,0-.12-.06-.26-.21-.35-.1-.06-.19-.05-.26-.04l-.07-.22c.09-.03.22-.01.37.07.26.15.39.42.39.63,0,.24-.15.34-.36.43l-.1.04h0s.49.29.49.29v.21Zm1.75,1.01l-.81-.47v-.15l.14-.06c.28-.13.41-.21.42-.39,0-.12-.06-.26-.21-.35-.1-.06-.19-.05-.26-.04l-.07-.22c.09-.03.22-.01.37.07.26.15.39.42.39.63,0,.24-.15.34-.36.43l-.1.04h0s.49.29.49.29v.21Zm.49.31c-.14-.08-.25-.19-.32-.26l.05-.17c.05.06.15.16.26.22.13.08.26.07.26-.09s-.1-.31-.34-.45c-.07-.04-.12-.06-.16-.08l.08-.63.62.36v.21l-.46-.27-.03.25s.05.02.09.04c.1.06.21.15.29.26.09.12.16.27.16.43,0,.26-.19.35-.48.18Zm1.08.63c-.28-.16-.42-.53-.42-.94,0-.42.16-.61.44-.44s.42.53.42.93c0,.43-.15.61-.44.45Zm1.74.99l-.24-.14-.13-.73c-.03-.18-.05-.32-.07-.48h0c-.02.13-.05.25-.08.39l-.14.57-.24-.14-.3-1.57.24.14.12.7c.03.19.06.38.08.53h0c.02-.13.06-.28.09-.43l.13-.55.24.14.12.71c.03.18.06.35.08.51h0c.02-.14.05-.28.08-.43l.13-.55.23.13-.33,1.2Z"/><path class="cls-4" d="m72.97,57.67c.09.04.19.09.31.15.21.12.36.26.46.42.1.16.16.34.16.55s-.06.34-.16.4c-.11.06-.28.02-.5-.11-.1-.06-.19-.12-.26-.17v-1.25Zm.15,1.21s.09.06.15.1c.31.18.48.08.48-.26,0-.3-.15-.58-.46-.76-.08-.04-.13-.07-.17-.08v1Z"/><path class="cls-4" d="m74.24,58.49c0,.06-.04.08-.09.05-.05-.03-.09-.1-.09-.15s.04-.08.09-.05.09.1.09.16Zm-.16,1.07v-.91l.15.09v.91l-.15-.09Z"/><path class="cls-4" d="m74.47,59.13c0-.09,0-.17,0-.25l.13.07v.15s.01,0,.01,0c.05-.06.12-.1.25-.02.11.06.19.19.23.32h0s.06-.06.09-.06c.05-.01.1,0,.18.04.11.06.27.23.27.55v.54l-.14-.08v-.52c0-.18-.06-.31-.18-.38-.08-.05-.15-.02-.17.05,0,.02-.01.05-.01.08v.56l-.14-.08v-.55c0-.14-.06-.28-.17-.35-.09-.05-.16,0-.18.06,0,.02-.01.05-.01.07v.55l-.14-.08v-.66Z"/><path class="cls-4" d="m75.87,59.94c0-.09,0-.17,0-.25l.13.07v.15s.01,0,.01,0c.05-.06.12-.1.25-.02.11.06.19.19.23.32h0s.06-.06.09-.06c.05-.01.1,0,.18.04.11.06.27.23.27.55v.54l-.14-.08v-.52c0-.18-.06-.31-.18-.38-.08-.05-.15-.02-.17.05,0,.02-.01.05-.01.08v.56l-.14-.08v-.55c0-.14-.06-.28-.17-.35-.09-.05-.16,0-.18.06,0,.02-.01.05-.01.07v.55l-.14-.08v-.66Z"/><path class="cls-4" d="m77.35,61.04c0,.23.13.39.28.48.11.06.17.08.22.08l.03.13c-.05,0-.14-.03-.27-.1-.25-.14-.4-.42-.4-.69s.14-.41.38-.27c.26.15.34.46.34.62,0,.03,0,.06,0,.07l-.57-.33Zm.43.13c0-.1-.04-.29-.2-.39-.15-.09-.21.03-.23.14l.43.25Z"/><path class="cls-4" d="m78.11,61.27c0-.11,0-.2,0-.29l.13.07v.18s.01,0,.01,0c.04-.1.13-.13.22-.07.02,0,.03.02.04.03v.16s-.03-.02-.05-.04c-.1-.06-.18-.01-.2.1,0,.02,0,.05,0,.07v.49l-.15-.08v-.63Z"/><path class="cls-4" d="m82.54,54.55v.46c-.53-.31-.96-.07-.96.52s.43,1.33.96,1.64v.46c-.75-.44-1.37-1.48-1.37-2.33s.61-1.18,1.37-.74"/><path class="cls-4" d="m84.59,57.04l-.66-.38c.1-.44.49-.56.94-.3v-.46s0,0,0,0c-.76-.44-1.37-.1-1.37.74s.62,1.9,1.37,2.33h0s0-.46,0-.46c-.45-.26-.84-.84-.94-1.39l.66.38v-.46Z"/><path class="cls-4" d="m88.57,62.51l-2.6-1.51s-.08,0-.08.04v.43s.03.11.08.13l2.6,1.51s.08,0,.08-.04v-.43s-.03-.11-.08-.13"/><path class="cls-4" d="m88.37,58.42l-2.19-1.27s-.08-.08-.08-.13.03-.07.08-.04l2.19,1.27s.08.08.08.13-.03.07-.08.04Z"/><path class="cls-4" d="m86.65,59.86s-.07-.07-.08-.12l-.29-2.61c0-.05.02-.08.07-.06.04.02.08.07.09.12l.29,2.61c0,.05-.02.08-.07.06,0,0,0,0-.01,0Z"/><path class="cls-4" d="m88.19,58.52s0,0,0,0c-.04-.03-.07-.09-.07-.13l.02-.2s.04-.06.08-.03c.04.03.07.09.07.13l-.02.2s-.04.05-.08.03Z"/><path class="cls-4" d="m87.55,60.38l-.9-.52s-.08-.08-.08-.13.03-.07.08-.04l.9.52s.08.08.08.13-.03.07-.08.04Zm-1.25-3.17s-.08-.08-.08-.13v-.09s.03-.07.08-.04.08.08.08.13v.09s-.03.07-.08.04Z"/><path class="cls-4" d="m88.17,58.13s-.03-.02-.04-.03l-.33-.4-.33-.3s-.06-.1-.05-.14c.01-.04.05-.04.1,0l.35.32.34.41s.05.1.03.13c-.01.02-.04.02-.07,0Z"/><path class="cls-4" d="m86.77,60.18l-.08-.05s-.08-.08-.08-.13v-.25s.03-.07.08-.04l.08.05s.08.08.08.13v.25s-.03.07-.08.04Z"/><path class="cls-4" d="m86.71,57.45l-.16-.1s-.08-.08-.08-.13v-.13l-.12.03s-.08-.03-.11-.08c-.03-.05-.02-.1.02-.11l.22-.06v-.03s.03-.07.08-.04l.16.1s.08.08.08.13v.37s-.03.07-.08.04Zm-.09-.22h.01s0-.19,0-.19h-.01s0,.19,0,.19Z"/><path class="cls-4" d="m85.65,59.73s-.04-.03-.06-.06c-.03-.05-.02-.1,0-.12l1.56-.62-1.58-2.44s-.04-.11,0-.13c.03-.02.08,0,.11.05l1.6,2.47,1.58-.62s.08.02.11.07c.03.05.02.1,0,.12l-1.56.62,1.56,2.41s.04.11,0,.13c-.03.02-.08,0-.11-.05l-1.58-2.44-1.58.62s-.03,0-.05,0Z"/><path class="cls-4" d="m88.33,58.87l-.18-.11s-.08-.08-.08-.13v-.28s.03-.07.08-.04l.18.11s.08.08.08.13v.28s-.03.07-.08.04Zm-.11-.23l.03.02v-.1l-.03-.02v.1Z"/><path class="cls-4" d="m87.94,60.38s0,0-.01,0c-.04-.03-.07-.09-.07-.13l.21-1.61s.04-.05.09-.02c.04.03.07.09.07.13l-.21,1.61s-.04.05-.08.03Zm-1.27-3.32s-.06-.06-.07-.1c-.01-.05.01-.09.05-.08l.29.07v-.03s.03-.07.08-.04l.47.27s.08.08.08.13v.11s-.03.07-.08.04l-.47-.27s-.02-.02-.03-.03l-.29-.07s-.01,0-.02,0Z"/><path class="cls-4" d="m87.84,58.87l-.53-.31s-.08-.08-.08-.13v-.12s.03-.07.08-.04l.53.31s.08.08.08.13v.12s-.03.07-.08.04Z"/><path class="cls-4" d="m87.79,60.07c-.17-.1-.31-.02-.31.17s.14.43.31.53.31.02.31-.17-.14-.43-.31-.53Zm0,.54c-.09-.05-.17-.18-.17-.28s.07-.14.17-.09.17.18.17.28-.07.14-.17.09Z"/><path class="cls-2" d="m94.19,108.4l-2.84,1.54"/><polyline class="cls-2" points="91.35 56.63 94.19 61.47 94.19 64.44"/><line class="cls-2" x1="59.02" y1="81.35" x2="58.16" y2="81.82"/><line class="cls-2" x1="86.26" y1="66.55" x2="85.4" y2="67.01"/><line class="cls-2" x1="86.49" y1="68.87" x2="87.36" y2="68.41"/><line class="cls-2" x1="59.25" y1="83.68" x2="60.12" y2="83.21"/><line class="cls-2" x1="77.9" y1="92.66" x2="77.9" y2="89.18"/><line class="cls-2" x1="92.96" y1="72.43" x2="94.19" y2="73.15"/><line class="cls-2" x1="46.67" y1="45.57" x2="47.9" y2="46.29"/><line class="cls-2" x1="80.95" y1="102.56" x2="80.95" y2="103.91"/><line class="cls-2" x1="80.95" y1="50.59" x2="80.95" y2="51.98"/><line class="cls-2" x1="80.75" y1="59.09" x2="86.49" y2="68.87"/><line class="cls-2" x1="47.9" y1="37.58" x2="46.67" y2="36.86"/><line class="cls-2" x1="94.19" y1="64.44" x2="92.96" y2="63.72"/><line class="cls-2" x1="86.49" y1="92.07" x2="80.75" y2="95.18"/><line class="cls-2" x1="88.68" y1="56.46" x2="88.68" y2="55.08"/><line class="cls-2" x1="88.68" y1="108.4" x2="88.68" y2="107.04"/><line class="cls-2" x1="82.76" y1="62.32" x2="84.68" y2="65.6"/><line class="cls-2" x1="85.2" y1="65.38" x2="83.22" y2="62.01"/><line class="cls-2" x1="87.36" y1="68.41" x2="81.61" y2="58.62"/><line class="cls-2" x1="84.68" y1="93.27" x2="82.76" y2="94.32"/><line class="cls-2" x1="85.2" y1="94.09" x2="83.22" y2="95.13"/><line class="cls-2" x1="81.61" y1="96.65" x2="87.36" y2="93.53"/><line class="cls-2" x1="80.95" y1="51.98" x2="88.68" y2="56.46"/><line class="cls-2" x1="52.18" y1="35.29" x2="59.91" y2="39.77"/><line class="cls-2" x1="92.96" y1="96.04" x2="92.96" y2="104.72"/><line class="cls-2" x1="92.96" y1="63.72" x2="92.96" y2="72.43"/><line class="cls-2" x1="88.68" y1="55.08" x2="91.35" y2="56.63"/><line class="cls-2" x1="59.91" y1="38.39" x2="80.95" y2="50.59"/><line class="cls-2" x1="49.54" y1="32.37" x2="52.18" y2="33.9"/><line class="cls-2" x1="94.19" y1="105.44" x2="94.19" y2="108.4"/><polyline class="cls-2" points="94.19 96.76 94.19 73.15 94.19 96.76"/><line class="cls-2" x1="57.64" y1="47.17" x2="58.1" y2="48.01"/><line class="cls-2" x1="84.6" y1="93.13" x2="84.68" y2="93.27"/><line class="cls-2" x1="58.1" y1="48.01" x2="58.19" y2="48.16"/><line class="cls-2" x1="84.63" y1="93.11" x2="85.2" y2="94.09"/><line class="cls-2" x1="57.64" y1="47.17" x2="58.22" y2="48.14"/><line class="cls-2" x1="85.06" y1="92.88" x2="85.92" y2="94.35"/><line class="cls-2" x1="57.79" y1="46.44" x2="58.65" y2="47.91"/><line class="cls-2" x1="84.68" y1="93.27" x2="85.17" y2="94.07"/><line class="cls-2" x1="85.17" y1="65.33" x2="84.68" y2="65.6"/><line class="cls-2" x1="58.19" y1="79.93" x2="58.1" y2="80.01"/><line class="cls-2" x1="84.68" y1="65.6" x2="84.6" y2="65.64"/><line class="cls-2" x1="58.22" y1="79.98" x2="57.64" y2="80.29"/><line class="cls-2" x1="85.2" y1="65.38" x2="84.63" y2="65.69"/><line class="cls-2" x1="58.65" y1="80.72" x2="57.79" y2="81.18"/><line class="cls-2" x1="85.92" y1="65.93" x2="85.06" y2="66.43"/><line class="cls-2" x1="58.1" y1="80.01" x2="57.64" y2="80.29"/><line class="cls-2" x1="85.4" y1="92.66" x2="86.26" y2="94.13"/><line class="cls-2" x1="58.16" y1="46.27" x2="59.02" y2="47.74"/><line class="cls-2" x1="60.12" y1="47.12" x2="59.25" y2="45.65"/><line class="cls-2" x1="87.36" y1="93.53" x2="86.49" y2="92.07"/><line class="cls-2" x1="62.96" y1="80.51" x2="62.96" y2="83.99"/><line class="cls-2" x1="80.75" y1="95.18" x2="81.61" y2="96.65"/><line class="cls-2" x1="53.51" y1="48.76" x2="54.37" y2="50.23"/><line class="cls-2" x1="54.37" y1="73.42" x2="53.51" y2="73.89"/><line class="cls-2" x1="81.61" y1="58.62" x2="80.75" y2="59.09"/><line class="cls-2" x1="83.25" y1="95.15" x2="82.76" y2="94.32"/><line class="cls-2" x1="55.46" y1="49.64" x2="54.6" y2="48.17"/><line class="cls-2" x1="82.73" y1="96.07" x2="81.87" y2="94.61"/><line class="cls-2" x1="55.83" y1="49.47" x2="54.97" y2="47.97"/><line class="cls-2" x1="83.07" y1="95.86" x2="82.21" y2="94.39"/><line class="cls-2" x1="83.22" y1="95.13" x2="82.64" y2="94.15"/><line class="cls-2" x1="82.76" y1="94.32" x2="82.67" y2="94.14"/><line class="cls-2" x1="56.26" y1="49.2" x2="55.69" y2="48.23"/><line class="cls-2" x1="55.69" y1="76.97" x2="56.18" y2="76.73"/><line class="cls-2" x1="81.87" y1="61" x2="82.73" y2="60.53"/><line class="cls-2" x1="54.6" y1="75.75" x2="55.46" y2="75.28"/><line class="cls-2" x1="82.21" y1="61.58" x2="83.07" y2="61.12"/><line class="cls-2" x1="54.97" y1="76.39" x2="55.83" y2="75.92"/><line class="cls-2" x1="82.64" y1="62.32" x2="83.22" y2="62.01"/><line class="cls-2" x1="55.69" y1="76.97" x2="56.26" y2="76.65"/><line class="cls-2" x1="82.67" y1="62.37" x2="82.76" y2="62.32"/><line class="cls-2" x1="56.18" y1="76.73" x2="56.26" y2="76.69"/><line class="cls-2" x1="82.76" y1="62.32" x2="83.25" y2="62.02"/><line class="cls-2" x1="49.54" y1="85.69" x2="46.67" y2="80.83"/><line class="cls-2" x1="46.67" y1="33.89" x2="49.54" y2="32.37"/><line class="cls-2" x1="52.18" y1="87.22" x2="49.54" y2="85.69"/><line class="cls-2" x1="80.95" y1="103.91" x2="59.91" y2="91.71"/><line class="cls-2" x1="91.35" y1="109.95" x2="88.68" y2="108.4"/><line class="cls-2" x1="59.91" y1="90.35" x2="52.18" y2="85.87"/><line class="cls-2" x1="88.68" y1="107.04" x2="80.95" y2="102.56"/><line class="cls-2" x1="46.67" y1="36.86" x2="46.67" y2="33.89"/><line class="cls-2" x1="46.67" y1="69.18" x2="46.67" y2="45.57"/><line class="cls-2" x1="46.67" y1="80.83" x2="46.67" y2="77.86"/><line class="cls-2" x1="47.9" y1="46.29" x2="47.9" y2="37.58"/><line class="cls-2" x1="47.9" y1="78.58" x2="47.9" y2="69.9"/><line class="cls-2" x1="53.51" y1="73.89" x2="59.25" y2="83.68"/><line class="cls-2" x1="57.64" y1="80.29" x2="55.69" y2="76.97"/><line class="cls-2" x1="59.25" y1="45.65" x2="53.51" y2="48.76"/><line class="cls-2" x1="55.69" y1="48.23" x2="57.64" y2="47.17"/><line class="cls-2" x1="58.1" y1="80.01" x2="56.18" y2="76.73"/><line class="cls-2" x1="60.12" y1="83.21" x2="54.37" y2="73.42"/><line class="cls-2" x1="92.96" y1="104.72" x2="94.19" y2="105.44"/><line class="cls-2" x1="46.67" y1="77.86" x2="47.9" y2="78.58"/><line class="cls-2" x1="56.18" y1="49.03" x2="58.1" y2="48.01"/><line class="cls-2" x1="54.37" y1="50.23" x2="60.12" y2="47.12"/><line class="cls-2" x1="52.18" y1="85.87" x2="52.18" y2="87.22"/><line class="cls-2" x1="52.18" y1="33.9" x2="52.18" y2="35.29"/><line class="cls-2" x1="63.71" y1="85.26" x2="77.16" y2="93.07"/><line class="cls-2" x1="77.16" y1="87.91" x2="63.71" y2="80.1"/><line class="cls-2" x1="47.9" y1="69.9" x2="46.67" y2="69.18"/><line class="cls-2" x1="94.19" y1="96.76" x2="92.96" y2="96.04"/><line class="cls-2" x1="59.91" y1="39.77" x2="59.91" y2="38.39"/><line class="cls-2" x1="59.91" y1="91.71" x2="59.91" y2="90.35"/><polyline class="cls-2" points="72.5 51.21 72.82 51.78 73.19 52.32 73.62 52.73 74.08 53.09 74.54 53.33 75 53.43 75.37 53.39 75.72 53.23 75.98 52.97 76.15 52.58 76.21 52.1 76.15 51.55 76.01 50.98 75.78 50.4 75.46 49.83 75.06 49.34 74.63 48.89 74.17 48.56 73.71 48.36 73.28 48.27 72.9 48.34"/><polygon class="cls-2" points="89.77 59.13 89.83 59.58 89.97 60.02 90.17 60.46 90.46 60.85 90.78 61.2 91.15 61.48 91.49 61.61 91.81 61.64 92.1 61.58 92.3 61.37 92.44 61.1 92.5 60.71 92.44 60.29 92.3 59.86 92.1 59.42 91.81 58.99 91.49 58.68 91.15 58.41 90.78 58.26 90.46 58.21 90.17 58.3 89.97 58.51 89.83 58.78 89.77 59.13"/><polyline class="cls-2" points="91.61 78.97 91.49 78.52 91.26 78.06 90.95 77.62 90.6 77.32 90.23 77.11 89.88 77.03 89.57 77.11 89.37 77.35 89.25 77.67 89.28 78.1"/><polyline class="cls-2" points="72.41 48.22 72.67 48.34 72.9 48.34"/><polyline class="cls-2" points="72.5 51.21 72.3 50.9 72.01 50.63"/><polyline class="cls-2" points="89.25 84.41 88.91 84.56 88.65 84.83 88.48 85.22 88.42 85.7 88.45 86.23 88.59 86.8 88.82 87.38 89.14 87.96 89.51 88.46 89.94 88.87 90.4 89.2 90.86 89.44 91.29 89.53 91.69 89.5 92.04 89.32 92.27 89.03 92.44 88.65 92.5 88.16 92.44 87.61 92.3 87.05 92.04 86.45"/><polygon class="cls-2" points="74.17 88.75 74.22 89.2 74.37 89.67 74.6 90.13 74.89 90.56 75.23 90.92 75.6 91.2 75.98 91.35 76.32 91.39 76.61 91.3 76.84 91.11 76.98 90.8 77.04 90.42 76.98 89.97 76.84 89.5 76.61 89.04 76.32 88.61 75.98 88.25 75.6 87.97 75.23 87.82 74.89 87.78 74.6 87.87 74.37 88.06 74.22 88.37 74.17 88.75"/><polygon class="cls-2" points="70.72 86.75 70.78 87.2 70.92 87.67 71.15 88.13 71.44 88.55 71.78 88.92 72.16 89.2 72.53 89.35 72.87 89.39 73.16 89.3 73.39 89.11 73.53 88.8 73.59 88.42 73.53 87.97 73.39 87.49 73.16 87.04 72.87 86.61 72.53 86.25 72.16 85.97 71.78 85.82 71.44 85.78 71.15 85.87 70.92 86.06 70.78 86.36 70.72 86.75"/><polygon class="cls-2" points="89.77 105.61 89.83 106.03 89.97 106.5 90.17 106.91 90.46 107.33 90.78 107.68 91.15 107.93 91.49 108.1 91.81 108.12 92.1 108.03 92.3 107.85 92.44 107.55 92.5 107.2 92.44 106.77 92.3 106.3 92.1 105.9 91.81 105.47 91.49 105.13 91.15 104.9 90.78 104.71 90.46 104.69 90.17 104.78 89.97 104.95 89.83 105.26 89.77 105.61"/><polygon class="cls-2" points="74.31 88.83 74.37 89.26 74.48 89.64 74.68 90.08 74.97 90.48 75.26 90.77 75.6 91.04 75.95 91.17 76.26 91.23 76.52 91.15 76.72 90.95 76.84 90.69 76.9 90.34 76.84 89.92 76.72 89.53 76.52 89.09 76.26 88.71 75.95 88.4 75.6 88.13 75.26 88 74.97 87.96 74.68 88.02 74.48 88.23 74.37 88.48 74.31 88.83"/><polygon class="cls-2" points="70.86 86.83 70.92 87.25 71.03 87.64 71.24 88.08 71.52 88.48 71.81 88.77 72.16 89.04 72.5 89.17 72.82 89.23 73.07 89.15 73.28 88.94 73.39 88.69 73.45 88.33 73.39 87.91 73.28 87.52 73.07 87.09 72.82 86.71 72.5 86.4 72.16 86.13 71.81 86 71.52 85.96 71.24 86.02 71.03 86.22 70.92 86.48 70.86 86.83"/><polyline class="cls-2" points="74.43 97.26 74.77 97.29 75.06 97.2 75.29 97.01 75.37 96.64 75.37 96.23 75.23 95.76 75.03 95.32 74.71 94.91 74.34 94.56 73.99 94.36"/><polyline class="cls-2" points="77.16 93.07 77.44 93.17 77.7 93.16 77.84 92.95 77.9 92.66"/><polyline class="cls-2" points="77.9 89.18 77.84 88.82 77.7 88.45 77.44 88.14 77.16 87.91"/><polyline class="cls-2" points="91.9 85.81 91.92 86.12 92.04 86.45"/><polyline class="cls-2" points="89.25 84.41 89.45 84.3 89.54 84.03"/><polyline class="cls-2" points="66.44 45.07 66.09 45 65.8 45.1 65.6 45.33 65.49 45.65 65.49 46.07 65.63 46.54 65.86 47 66.15 47.42 66.52 47.74 66.9 47.95"/><polygon class="cls-2" points="48.36 35.1 48.42 35.56 48.56 35.99 48.77 36.43 49.05 36.83 49.37 37.17 49.74 37.45 50.09 37.59 50.4 37.61 50.69 37.55 50.92 37.36 51.04 37.07 51.09 36.69 51.04 36.27 50.92 35.85 50.69 35.39 50.4 34.96 50.09 34.65 49.74 34.39 49.37 34.24 49.05 34.18 48.77 34.27 48.56 34.48 48.42 34.75 48.36 35.1"/><polyline class="cls-2" points="51.61 57.89 51.95 57.77 52.21 57.47 52.39 57.08 52.44 56.63 52.41 56.1 52.27 55.5 52.04 54.91 51.72 54.38 51.35 53.87 50.92 53.42 50.46 53.09 50 52.86 49.57 52.77 49.17 52.83 48.85 53 48.59 53.27 48.45 53.67 48.39 54.15 48.42 54.68 48.59 55.3 48.82 55.85"/><polyline class="cls-2" points="48.97 56.48 48.94 56.18 48.82 55.85"/><polyline class="cls-2" points="51.61 57.89 51.41 58.03 51.32 58.3"/><polyline class="cls-2" points="48.97 56.48 48.88 58.11 48.91 59.81 49.02 61.55 49.25 63.33"/><polyline class="cls-2" points="72.41 48.22 70.92 47.26 69.43 46.42 67.93 45.68 66.44 45.07"/><polyline class="cls-2" points="91.9 85.81 91.98 84.19 91.95 82.49 91.84 80.75 91.61 78.97"/><polyline class="cls-2" points="68.45 94.08 69.94 95.04 71.44 95.91 72.93 96.61 74.43 97.26"/><polyline class="cls-2" points="51.32 58.3 51.27 59.69 51.29 61.16 51.41 62.68 51.58 64.19"/><polyline class="cls-2" points="72.01 50.63 70.72 49.82 69.45 49.08 68.16 48.46 66.9 47.95"/><polyline class="cls-2" points="89.54 84.03 89.6 82.61 89.57 81.14 89.48 79.67 89.28 78.1"/><polyline class="cls-2" points="68.85 91.7 70.14 92.51 71.44 93.23 72.7 93.84 73.99 94.36"/><polygon class="cls-2" points="67.64 67.23 67.64 71.84 68.05 72.59 68.51 73.24 68.99 73.85 69.57 74.41 70.14 74.87 70.72 75.2 71.29 75.41 71.87 75.52 72.39 75.49 72.82 75.36 73.22 75.07 73.22 70.46 72.82 69.74 72.39 69.07 71.87 68.45 71.29 67.89 70.72 67.46 70.14 67.13 69.57 66.89 68.99 66.78 68.51 66.82 68.05 66.98 67.64 67.23"/><polygon class="cls-2" points="69.08 70.38 69.11 70.79 69.25 71.22 69.48 71.68 69.74 72.09 70.09 72.42 70.43 72.68 70.78 72.82 71.12 72.89 71.41 72.8 71.61 72.59 71.75 72.32 71.78 71.95 71.75 71.51 71.61 71.07 71.41 70.64 71.12 70.24 70.78 69.88 70.43 69.62 70.09 69.48 69.74 69.44 69.48 69.52 69.25 69.71 69.11 69.98 69.08 70.38"/><polyline class="cls-2" points="68.36 91.09 68.05 90.52 67.67 90.02 67.24 89.57 66.78 89.21 66.32 89.01 65.89 88.88 65.49 88.91 65.14 89.06 64.89 89.37 64.74 89.77 64.66 90.23 64.71 90.78 64.86 91.35 65.09 91.93 65.4 92.47 65.8 93 66.24 93.41 66.7 93.74 67.16 93.94 67.59 94.03 67.99 94"/><polygon class="cls-2" points="67.27 84.75 67.33 85.2 67.47 85.67 67.7 86.13 67.99 86.55 68.33 86.91 68.71 87.2 69.08 87.35 69.43 87.39 69.71 87.3 69.94 87.11 70.09 86.8 70.14 86.42 70.09 85.96 69.94 85.49 69.71 85.04 69.43 84.61 69.08 84.25 68.71 83.97 68.33 83.82 67.99 83.78 67.7 83.87 67.47 84.06 67.33 84.36 67.27 84.75"/><polygon class="cls-2" points="63.82 82.75 63.88 83.2 64.02 83.67 64.25 84.13 64.54 84.55 64.89 84.91 65.26 85.2 65.63 85.35 65.98 85.39 66.26 85.3 66.49 85.11 66.64 84.8 66.7 84.42 66.64 83.96 66.49 83.49 66.26 83.04 65.98 82.61 65.63 82.25 65.26 81.97 64.89 81.82 64.54 81.78 64.25 81.87 64.02 82.06 63.88 82.36 63.82 82.75"/><polygon class="cls-2" points="67.41 84.83 67.47 85.25 67.59 85.64 67.79 86.08 68.07 86.47 68.36 86.77 68.71 87.03 69.05 87.17 69.37 87.22 69.63 87.15 69.83 86.94 69.94 86.69 70 86.33 69.94 85.91 69.83 85.52 69.63 85.08 69.37 84.71 69.05 84.4 68.71 84.13 68.36 84 68.07 83.96 67.79 84.02 67.59 84.22 67.47 84.48 67.41 84.83"/><polygon class="cls-2" points="63.97 82.83 64.02 83.25 64.14 83.64 64.34 84.08 64.63 84.47 64.91 84.77 65.26 85.03 65.6 85.17 65.92 85.22 66.18 85.15 66.38 84.94 66.49 84.69 66.55 84.33 66.49 83.91 66.38 83.52 66.18 83.08 65.92 82.71 65.6 82.4 65.26 82.13 64.91 82 64.63 81.96 64.34 82.02 64.14 82.22 64.02 82.48 63.97 82.83"/><polyline class="cls-2" points="63.71 80.1 63.42 80 63.16 80.01 63.02 80.22 62.96 80.51"/><polyline class="cls-2" points="62.96 83.99 63.02 84.35 63.16 84.72 63.42 85.03 63.71 85.26"/><polyline class="cls-2" points="68.45 94.08 68.19 93.96 67.99 94"/><polyline class="cls-2" points="68.36 91.09 68.56 91.44 68.85 91.7"/><polyline class="cls-2" points="49.25 63.33 49.37 63.81 49.6 64.27 49.91 64.68 50.26 65.01 50.63 65.19 51.01 65.28 51.29 65.19 51.5 64.95 51.61 64.63 51.58 64.19"/><polygon class="cls-2" points="48.36 81.58 48.42 82 48.56 82.48 48.77 82.88 49.05 83.31 49.37 83.65 49.74 83.9 50.09 84.07 50.4 84.09 50.69 84 50.92 83.84 51.04 83.52 51.09 83.17 51.04 82.75 50.92 82.29 50.69 81.87 50.4 81.45 50.09 81.1 49.74 80.87 49.37 80.68 49.05 80.66 48.77 80.75 48.56 80.93 48.42 81.23 48.36 81.58"/><line class="cls-2" x1="64.48" y1="76.83" x2="64.45" y2="76.81"/><polyline class="cls-2" points="64.54 76.92 64.91 77.14 67.1 78.41 67.5 78.64"/><polyline class="cls-2" points="64.54 77.7 64.91 77.92 67.1 79.18 67.5 79.42"/><line class="cls-2" x1="64.45" y1="77.71" x2="64.48" y2="77.73"/><polygon class="cls-2" points="66.01 80 66.44 80.19 66.84 80.23 67.18 80.14 67.44 79.9 67.59 79.56 67.64 79.11 67.59 78.59 67.44 78.09 67.18 77.55 66.84 77.06 66.44 76.64 66.01 76.32 65.6 76.15 65.2 76.11 64.86 76.2 64.6 76.44 64.45 76.78 64.4 77.23 64.45 77.75 64.6 78.25 64.86 78.78 65.2 79.28 65.6 79.7 66.01 80"/><polyline class="cls-2" points="64.45 77.71 64.63 78.26 64.86 78.75 65.2 79.24 65.6 79.67 66.01 79.97 66.44 80.15 66.81 80.21 67.16 80.12 67.41 79.88 67.59 79.53 67.64 79.11 67.59 78.59 67.41 78.08 67.16 77.54 66.81 77.05 66.44 76.67 66.01 76.36 65.6 76.19 65.2 76.11 64.86 76.2 64.63 76.46 64.45 76.81"/><polyline class="cls-2" points="64.48 76.83 64.45 77.26 64.48 77.73"/><polyline class="cls-2" points="67.5 79.42 67.53 79.05 67.5 78.64"/><polyline class="cls-2" points="64.54 76.92 64.48 77.28 64.54 77.7"/><polyline class="cls-2" points="67.5 78.64 67.36 78.14 67.13 77.62 66.81 77.18 66.41 76.75 66.01 76.45 65.6 76.28 65.23 76.26 64.91 76.33 64.68 76.59 64.54 76.92"/><polyline class="cls-2" points="64.54 77.7 64.68 78.2 64.91 78.69 65.23 79.16 65.6 79.57 66.01 79.87 66.41 80.04 66.81 80.08 67.13 79.97 67.36 79.75 67.5 79.42"/><polyline class="cls-2" points="67.1 78.41 66.95 77.97 66.7 77.53 66.38 77.15 66.01 76.87 65.66 76.74 65.35 76.75 65.09 76.89 64.91 77.14"/><polyline class="cls-2" points="64.91 77.92 65.09 78.37 65.35 78.81 65.66 79.19 66.01 79.45 66.38 79.6 66.7 79.59 66.95 79.45 67.1 79.18"/><polygon class="cls-1" points="75.18 84.49 75.45 84.59 75.71 84.61 75.9 84.5 76.04 84.29 76.09 84 76.04 83.68 75.9 83.3 75.71 82.98 75.45 82.69 75.18 82.49 74.9 82.37 74.66 82.37 74.45 82.46 74.33 82.68 74.28 82.95 74.33 83.3 74.45 83.66 74.66 84 74.9 84.27 75.18 84.49"/><polygon class="cls-2" points="70.62 81.89 70.91 81.99 71.2 82 71.4 81.89 71.54 81.68 71.57 81.37 71.54 81 71.4 80.63 71.2 80.29 70.91 79.96 70.62 79.73 70.34 79.63 70.08 79.64 69.85 79.73 69.73 79.95 69.67 80.27 69.73 80.63 69.85 80.99 70.08 81.35 70.34 81.66 70.62 81.89"/><polygon class="cls-2" points="70.62 81.79 70.91 81.93 71.14 81.9 71.34 81.82 71.46 81.6 71.51 81.34 71.46 80.99 71.34 80.63 71.14 80.32 70.91 80.02 70.62 79.82 70.36 79.71 70.11 79.72 69.9 79.79 69.79 80.02 69.73 80.31 69.79 80.63 69.9 80.99 70.11 81.3 70.36 81.61 70.62 81.79"/><polygon class="cls-2" points="70.62 81.73 70.94 81.85 71.2 81.8 71.37 81.58 71.43 81.29 71.37 80.9 71.2 80.51 70.94 80.14 70.62 79.89 70.31 79.77 70.05 79.85 69.88 80.04 69.82 80.36 69.88 80.71 70.05 81.14 70.31 81.48 70.62 81.73"/><polygon class="cls-2" points="70.62 81.66 70.91 81.77 71.17 81.72 71.31 81.55 71.37 81.26 71.31 80.9 71.17 80.53 70.91 80.18 70.62 79.95 70.34 79.85 70.11 79.91 69.93 80.1 69.88 80.39 69.93 80.75 70.11 81.1 70.34 81.43 70.62 81.66"/><polygon class="cls-2" points="70.62 81.44 70.82 81.49 71.02 81.48 71.14 81.35 71.17 81.14 71.14 80.87 71.02 80.61 70.82 80.36 70.62 80.21 70.42 80.13 70.25 80.16 70.13 80.28 70.08 80.51 70.13 80.77 70.25 81.03 70.42 81.26 70.62 81.44"/><path class="cls-2" d="m73.62,83.01l.17.55.23.49.34.49.4.43.4.3.43.19.37.06.34-.09.26-.24.17-.35.06-.42-.06-.52-.17-.52-.26-.54-.34-.49-.37-.38-.43-.31-.4-.17-.4-.07-.34.09-.23.25-.17.35s-.13.49,0,.9Z"/><path class="cls-2" d="m69.1,80.42l.17.55.23.49.34.49.4.43.4.3.43.19.37.06.34-.09.26-.24.17-.35.06-.42-.06-.52-.17-.52-.26-.54-.34-.49-.37-.38-.43-.31-.4-.17-.4-.07-.34.09-.23.25-.17.35s-.08.4,0,.9Z"/><polyline class="cls-2" points="55.71 53.66 59.41 55.82 59.79 56.03"/><line class="cls-2" x1="60.05" y1="58.92" x2="58.61" y2="58.09"/><line class="cls-2" x1="60.05" y1="58.92" x2="60.05" y2="61.21"/><line class="cls-2" x1="59.99" y1="66.89" x2="58.61" y2="66.09"/><line class="cls-2" x1="56.71" y1="62.25" x2="59.79" y2="64.03"/><line class="cls-2" x1="56.71" y1="62.02" x2="59.79" y2="63.81"/><line class="cls-2" x1="60.05" y1="61.21" x2="58.61" y2="60.38"/><polyline class="cls-2" points="59.99 66.89 59.99 69.18 58.61 68.38"/><line class="cls-2" x1="55.71" y1="69.44" x2="55.71" y2="53.66"/><line class="cls-2" x1="56.71" y1="54.25" x2="56.71" y2="70.02"/><line class="cls-2" x1="59.78" y1="71.8" x2="55.71" y2="69.44"/><line class="cls-2" x1="58.61" y1="63.12" x2="58.61" y2="55.35"/><line class="cls-2" x1="58.61" y1="71.12" x2="58.61" y2="63.35"/><line class="cls-2" x1="59.79" y1="58.77" x2="59.79" y2="56.03"/><line class="cls-2" x1="59.79" y1="63.81" x2="59.79" y2="61.06"/><line class="cls-2" x1="59.79" y1="66.77" x2="59.79" y2="64.03"/><line class="cls-2" x1="59.79" y1="71.81" x2="59.79" y2="69.06"/><polygon class="cls-2" points="61.48 72.79 55.74 69.46 55.74 53.6 61.48 56.93 61.48 72.79"/><polygon class="cls-2" points="67.18 66.56 67.18 71.93 67.65 72.81 68.19 73.57 68.76 74.28 69.43 74.93 70.1 75.47 70.77 75.85 71.44 76.09 72.11 76.22 72.71 76.19 73.21 76.03 73.68 75.7 73.68 70.33 73.21 69.49 72.71 68.71 72.11 67.99 71.44 67.33 70.77 66.83 70.1 66.44 69.43 66.17 68.76 66.04 68.19 66.09 67.65 66.27 67.18 66.56"/><path class="cls-4" d="m62.34,55.17v-.1l.12-.06c.28-.14.4-.22.41-.4,0-.12-.05-.27-.22-.36-.1-.06-.18-.05-.23-.03l-.05-.14c.08-.03.18-.02.31.05.23.14.33.37.33.55,0,.23-.15.32-.38.44l-.09.04h0s.49.29.49.29v.14l-.7-.4Z"/><path class="cls-4" d="m63.24,55.5c.04.05.14.16.24.22.19.11.25,0,.25-.09,0-.17-.14-.33-.28-.41l-.08-.05v-.12l.08.05c.11.06.24.08.24-.07,0-.1-.06-.22-.19-.3-.09-.05-.17-.06-.22-.05l-.04-.14c.06-.01.17,0,.29.07.21.12.31.32.31.47,0,.13-.07.19-.2.17h0c.13.11.24.29.24.46,0,.2-.14.29-.4.14-.12-.07-.23-.18-.28-.25l.04-.1Z"/><path class="cls-4" d="m64.79,55.97c0,.42-.14.57-.38.43-.21-.12-.36-.43-.36-.84,0-.41.16-.54.38-.42s.36.44.36.83Zm-.59-.32c0,.32.09.55.22.63.15.09.22-.07.22-.38s-.07-.54-.22-.63c-.13-.07-.22.05-.22.38Z"/><path class="cls-4" d="m65.22,56.84l-.37-1.48.16.09.18.73c.05.2.09.38.12.54h0c.03-.13.08-.26.13-.4l.19-.52.16.09-.4,1.03-.16-.09Z"/><path class="cls-4" d="m66,56.89l-.12.33-.15-.09.38-1.05.18.1.39,1.49-.16-.09-.12-.47-.4-.23Zm.37.09l-.11-.43c-.03-.1-.04-.18-.06-.27h0c-.02.06-.04.13-.06.19l-.11.3.34.2Z"/><path class="cls-4" d="m67.61,58.19c-.05,0-.16-.03-.3-.11-.32-.18-.56-.55-.56-.97s.24-.53.59-.32c.14.08.23.17.27.21l-.04.11c-.06-.06-.13-.13-.23-.19-.26-.15-.44-.07-.44.27,0,.31.16.6.43.76.09.05.18.08.24.09l.03.15Z"/><path class="cls-4" d="m67.74,57.91c0-.19.08-.24.2-.17.07.04.12.1.24.22.09.09.15.16.21.2s.09,0,.09-.11l.1.06c0,.22-.09.23-.19.17-.07-.04-.13-.1-.24-.22-.08-.09-.14-.16-.2-.2s-.1,0-.1.1l-.1-.06Z"/><path class="cls-4" d="m69.39,58.18l-.42-.24-.04.29s.05.02.09.04c.08.05.17.12.23.2.09.1.16.25.16.4,0,.24-.17.32-.41.18-.12-.07-.22-.17-.27-.23l.04-.1c.05.06.13.15.23.2.14.08.26.05.26-.12,0-.16-.1-.33-.31-.45-.06-.04-.11-.06-.15-.07l.07-.55.52.3v.14Z"/><path class="cls-4" d="m70.32,59.18c0,.42-.14.57-.38.43-.21-.12-.36-.43-.36-.84,0-.41.16-.54.38-.42s.36.44.36.83Zm-.59-.32c0,.32.09.55.22.63.15.09.22-.07.22-.38s-.07-.54-.22-.63c-.13-.07-.22.05-.22.38Z"/><path class="cls-4" d="m70.65,58.73v.53l.55.32v-.53l.15.09v1.27l-.15-.09v-.59l-.55-.32v.59l-.15-.08v-1.27l.15.08Z"/><path class="cls-4" d="m71.52,60.4l.37-.32s.07-.05.11-.08h0s-.44-.26-.44-.26v-.13l.62.36v.1s-.36.32-.36.32c-.03.03-.07.06-.1.08h0s.47.28.47.28v.13l-.66-.38v-.1Z"/><path class="cls-4" d="m75.56,61.76l-.42-.24-.04.29s.05.02.09.04c.08.05.17.12.23.2.09.1.16.25.16.4,0,.24-.17.32-.41.18-.12-.07-.22-.17-.27-.23l.04-.1c.05.06.13.15.23.2.14.08.26.05.26-.12,0-.16-.1-.33-.31-.45-.06-.04-.11-.06-.15-.07l.07-.55.52.3v.14Z"/><path class="cls-4" d="m76,63.1l-.29-1.44.15.09.13.72c.03.18.06.35.08.49h0c.02-.11.05-.24.09-.38l.15-.55.15.09.14.72c.03.17.06.34.08.48h0c.02-.12.06-.25.09-.38l.15-.55.15.09-.32,1.08-.15-.09-.14-.74c-.04-.18-.06-.32-.07-.46h0c-.02.11-.05.22-.09.36l-.16.57-.15-.09Z"/><path class="cls-4" d="m77.93,63.65v.12l-.41-.24v-.12l.41.24Z"/><path class="cls-4" d="m78.41,64.5v-.1l.12-.06c.28-.14.4-.22.41-.4,0-.12-.05-.27-.22-.36-.1-.06-.18-.05-.23-.03l-.05-.14c.08-.03.18-.02.31.05.23.14.33.37.33.55,0,.23-.15.32-.38.44l-.09.04h0s.49.29.49.29v.14l-.7-.4Z"/><path class="cls-4" d="m79.92,64.29l-.42-.24-.04.29s.05.02.09.04c.08.05.17.12.23.2.09.1.16.25.16.4,0,.24-.17.32-.41.18-.12-.07-.22-.17-.27-.23l.04-.1c.05.06.13.15.23.2.14.08.26.05.26-.12,0-.16-.1-.33-.31-.45-.06-.04-.11-.06-.15-.07l.07-.55.52.3v.14Z"/><path class="cls-4" d="m80.86,65.29c0,.42-.14.57-.38.43-.21-.12-.36-.43-.36-.84,0-.41.16-.54.38-.42s.36.44.36.83Zm-.59-.32c0,.32.09.55.22.63.15.09.22-.07.22-.38s-.07-.54-.22-.63c-.13-.07-.22.05-.22.38Z"/><path class="cls-4" d="m81.23,66.13l-.29-1.44.15.09.13.72c.03.18.06.35.08.49h0c.02-.11.05-.24.09-.38l.15-.55.15.09.14.72c.03.17.06.34.08.48h0c.02-.12.06-.25.09-.38l.15-.55.15.09-.32,1.08-.15-.09-.14-.74c-.04-.18-.06-.32-.07-.46h0c-.02.11-.05.22-.09.36l-.16.57-.15-.09Z"/><path class="cls-4" d="m73.96,61.88c-.05,0-.16-.01-.28-.08-.26-.15-.4-.4-.4-.6,0-.17.11-.22.24-.17h0c-.13-.14-.2-.28-.2-.41,0-.15.1-.24.31-.11.12.07.23.18.29.26l-.04.1c-.05-.06-.13-.16-.22-.21-.14-.08-.19-.02-.19.07,0,.15.14.29.24.35l.08.05v.12l-.08-.05c-.14-.08-.28-.09-.28.08,0,.1.06.27.25.38.1.06.2.07.24.06l.04.15Z"/><circle class="cls-3" cx="75.23" cy="83.14" r="7.66"/></svg>