<?xml version="1.0" encoding="UTF-8"?>
<svg id="Layer_1" data-name="Layer 1" xmlns="http://www.w3.org/2000/svg" width="960" height="960" viewBox="0 0 960 960">
  <defs>
    <style>
      .cls-1 {
        stroke-width: 40px;
      }

      .cls-1, .cls-2 {
        fill: none;
        stroke: #000;
        stroke-linecap: round;
        stroke-linejoin: round;
      }

      .cls-2 {
        stroke-width: 20px;
      }
    </style>
  </defs>
  <circle cx="186.451" cy="174.64" r="14.031"/>
  <circle cx="186.84" cy="783.619" r="14.419"/>
  <circle cx="226.86" cy="780.951" r="14.419"/>
  <circle cx="266.88" cy="780.271" r="14.419"/>
  <circle cx="306.9" cy="779.201" r="14.419"/>
  <circle cx="346.92" cy="777.365" r="14.419"/>
  <circle cx="386.397" cy="775.683" r="13.876"/>
  <circle cx="426.003" cy="773.083" r="13.463"/>
  <circle cx="466.477" cy="771.401" r="13.916"/>
  <circle cx="506.55" cy="769.259" r="13.969"/>
  <circle cx="545.913" cy="767.118" r="13.312"/>
  <circle cx="584.998" cy="764.784" r="12.377"/>
  <circle cx="625.371" cy="763.142" r="12.73"/>
  <circle cx="664.645" cy="761" r="11.983"/>
  <circle cx="705.451" cy="759.777" r="12.77"/>
  <circle cx="745.397" cy="757.698" r="12.696"/>
  <circle cx="785.331" cy="755.575" r="12.61"/>
  <circle cx="225.393" cy="177.616" r="14.031"/>
  <circle cx="264.335" cy="179.551" r="14.031"/>
  <circle cx="303.277" cy="181.932" r="14.031"/>
  <polyline class="cls-2" points="99.813 744.252 99.813 828.961 840.606 789.705"/>
  <polyline class="cls-2" points="866.187 233.05 840.606 231.992 139.615 203.131 192.009 248.096 192.009 293.723"/>
  <polyline class="cls-2" points="192.009 666.253 192.009 711.509 139.336 756.985 840.606 728.253"/>
  <polyline class="cls-2" points="840.606 170.492 99.813 131.039 99.813 215.759 139.336 202.876 139.615 203.131 192.009 248.096 192.009 293.723"/>
  <polyline class="cls-2" points="192.006 666.248 192.006 711.513 139.339 756.988 99.813 744.249"/>
  <line class="cls-2" x1="894.477" y1="273.41" x2="192.009" y2="248.096"/>
  <line class="cls-2" x1="889.803" y1="686.66" x2="192.009" y2="711.509"/>
  <polygon class="cls-2" points="939 303.816 939 656.265 937.954 656.3 889.803 657.73 243.986 676.893 243.986 282.967 894.477 302.479 939 303.816"/>
  <polygon class="cls-2" points="902.103 329.025 902.103 631.068 272.009 650.695 272.009 309.188 902.103 329.025"/>
  <line class="cls-2" x1="243.986" y1="282.967" x2="192.006" y2="293.724"/>
  <line class="cls-2" x1="243.986" y1="676.897" x2="192.006" y2="666.242"/>
  <polyline class="cls-2" points="99.813 131.039 21 164.776 21 328.711 53.87 321.988 53.87 452.92 83.911 451.866 83.911 508.134 53.87 507.08 53.87 637.586 21 631.129 21 794.077 99.813 828.961"/>
  <circle cx="676.542" cy="198.639" r="12.832"/>
  <circle cx="712.175" cy="201.1" r="12.832"/>
  <circle cx="747.801" cy="202.609" r="12.832"/>
  <circle cx="783.43" cy="204.526" r="12.832"/>
  <polygon class="cls-1" points="894.477 290.851 939 292.188 939 667.928 889.803 669.358 889.803 698.404 840.606 739.88 840.606 789.705 99.813 828.961 21 794.077 21 631.126 53.872 637.591 53.872 507.081 83.906 508.139 83.906 451.861 53.872 452.919 53.872 321.99 21 328.711 21 164.771 99.813 131.039 840.606 170.492 840.606 220.364 866.187 221.422 894.477 261.782 894.477 290.851"/>
</svg>