<?xml version="1.0" encoding="UTF-8"?><svg id="Layer_1" xmlns="http://www.w3.org/2000/svg" viewBox="0 0 141.73 141.73"><defs><style>.cls-1{stroke-linejoin:bevel;}.cls-1,.cls-2{stroke:#000;stroke-linecap:round;stroke-width:.33px;}.cls-1,.cls-2,.cls-3{fill:none;}.cls-2{stroke-linejoin:round;}.cls-3{stroke:#00aeef;stroke-miterlimit:10;stroke-width:2px;}</style></defs><line class="cls-2" x1="62.44" y1="44.86" x2="62.3" y2="44.93"/><polyline class="cls-2" points="76.06 52.36 75.59 52.62 77.11 53.5"/><polyline class="cls-2" points="71.7 49.84 71.22 50.11 72.74 50.98"/><polyline class="cls-2" points="67.33 47.33 66.86 47.61 68.37 48.47"/><polyline class="cls-2" points="80.43 54.85 79.93 55.14 81.45 56.01"/><polyline class="cls-2" points="84.79 57.37 84.3 57.65 85.81 58.53"/><line class="cls-2" x1="64.01" y1="45.98" x2="62.3" y2="44.98"/><line class="cls-2" x1="75.59" y1="52.62" x2="75.59" y2="52.91"/><line class="cls-2" x1="84.3" y1="57.65" x2="84.3" y2="57.94"/><line class="cls-2" x1="79.93" y1="55.14" x2="79.93" y2="55.42"/><line class="cls-2" x1="71.22" y1="50.11" x2="71.22" y2="50.39"/><line class="cls-2" x1="66.86" y1="47.61" x2="66.86" y2="47.88"/><polyline class="cls-2" points="63.8 46.07 62.54 45.34 61.21 46.12"/><path class="cls-2" d="m63.25,46.37c-.5-.12-1.06-.11-1.55.03"/><polyline class="cls-2" points="68.16 48.59 66.9 47.85 65.58 48.63"/><path class="cls-2" d="m67.62,48.86c-.5-.12-1.06-.11-1.55.03"/><polyline class="cls-2" points="72.53 51.1 71.27 50.37 69.92 51.13"/><path class="cls-2" d="m71.98,51.38c-.5-.12-1.06-.11-1.55.03"/><polyline class="cls-2" points="76.89 53.62 75.61 52.88 74.28 53.64"/><path class="cls-2" d="m76.35,53.89c-.5-.12-1.06-.11-1.55.03"/><polyline class="cls-2" points="81.26 56.13 79.98 55.4 78.65 56.16"/><path class="cls-2" d="m80.69,56.41c-.5-.12-1.06-.11-1.55.03"/><polyline class="cls-2" points="85.6 58.62 84.34 57.91 83.01 58.67"/><path class="cls-2" d="m85.06,58.92c-.5-.12-1.06-.11-1.55.03"/><path class="cls-2" d="m72.89,95.86c.28-.14.45-.46.48-.88"/><path class="cls-2" d="m71.7,92.08c-.38-.18-.73-.19-1-.03"/><path class="cls-2" d="m73.23,94.85c0-.95-.67-2.1-1.48-2.57-.81-.48-1.47-.09-1.47.85,0,.95.67,2.1,1.48,2.57.81.48,1.47.09,1.47-.85"/><line class="cls-2" x1="70.7" y1="92.05" x2="71.06" y2="91.82"/><polyline class="cls-2" points="70.7 92.05 70.65 92.1 70.58 92.12 70.53 92.17 70.49 92.24 70.46 92.29 70.42 92.34 70.39 92.41 70.34 92.48 70.32 92.55 70.3 92.62 70.27 92.69 70.27 92.77 70.25 92.86 70.25 92.93 70.25 93.03 70.25 93.12 70.25 93.19 70.25 93.29 70.25 93.38 70.27 93.48 70.3 93.57 70.3 93.67 70.32 93.76 70.37 93.86 70.39 93.95 70.42 94.05 70.46 94.14 70.49 94.24 70.53 94.33 70.58 94.43 70.63 94.52 70.68 94.59 70.75 94.69 70.79 94.78 70.84 94.85 70.91 94.95 70.98 95.02 71.03 95.11 71.1 95.19 71.17 95.26 71.25 95.33 71.32 95.4 71.39 95.47 71.46 95.52 71.53 95.59 71.6 95.64 71.67 95.68 71.74 95.73 71.82 95.78 71.91 95.83 71.98 95.85 72.05 95.87 72.12 95.9 72.19 95.92 72.29 95.94 72.36 95.94 72.43 95.97 72.5 95.97 72.57 95.97 72.65 95.94 72.72 95.94 72.76 95.92 72.84 95.9 72.91 95.87 73.26 95.68"/><polyline class="cls-2" points="66.5 91.37 66.31 91.48 66.31 91.51"/><polyline class="cls-2" points="66.14 91.51 66.14 91.39 66.31 91.48"/><line class="cls-2" x1="65.62" y1="91.41" x2="65.62" y2="91.41"/><polyline class="cls-2" points="66.14 91.39 66.14 91.1 66.5 91.32"/><line class="cls-2" x1="66.14" y1="91.1" x2="66.6" y2="90.84"/><polyline class="cls-2" points="67.19 47.04 67.19 45.98 65.69 45.1"/><polyline class="cls-2" points="71.55 49.56 71.55 48.49 70.04 47.61"/><polyline class="cls-2" points="75.92 52.05 75.92 50.98 74.4 50.13"/><polyline class="cls-2" points="84.63 57.08 84.63 56.01 83.13 55.16"/><polyline class="cls-2" points="80.29 54.57 80.29 53.5 78.77 52.64"/><polyline class="cls-2" points="62.82 44.53 62.82 43.46 62.06 43.01"/><line class="cls-2" x1="62.3" y1="45.48" x2="62.3" y2="44.86"/><polyline class="cls-2" points="88.26 58.13 88.26 58.1 87.5 57.65"/><line class="cls-2" x1="62.82" y1="44.53" x2="60.76" y2="45.86"/><line class="cls-2" x1="78.01" y1="64.67" x2="78.01" y2="64.67"/><polyline class="cls-2" points="56.16 46.43 56.16 46.17 82.56 61.38 82.56 61.59"/><line class="cls-2" x1="82.56" y1="61.38" x2="86.45" y2="59.15"/><line class="cls-2" x1="87.76" y1="58.39" x2="88.26" y2="58.1"/><line class="cls-2" x1="60.52" y1="45.72" x2="61.64" y2="46.36"/><path class="cls-2" d="m60.52,44.84c-.41.24-.4.63.03.87"/><line class="cls-2" x1="62.82" y1="43.46" x2="60.5" y2="44.84"/><line class="cls-2" x1="62.06" y1="43.01" x2="56.16" y2="46.17"/><line class="cls-2" x1="87.5" y1="57.65" x2="85.01" y2="58.96"/><path class="cls-2" d="m83.44,58.91c.43.24,1.12.26,1.57.03"/><line class="cls-2" x1="82.35" y1="58.29" x2="83.44" y2="58.91"/><path class="cls-2" d="m82.32,57.39c-.41.24-.4.63.03.87"/><line class="cls-2" x1="84.63" y1="56.01" x2="82.3" y2="57.39"/><line class="cls-2" x1="83.13" y1="55.16" x2="80.64" y2="56.44"/><path class="cls-2" d="m79.1,56.39c.43.24,1.12.26,1.57.03"/><line class="cls-2" x1="77.98" y1="55.78" x2="79.08" y2="56.42"/><path class="cls-2" d="m77.95,54.88c-.41.24-.4.63.03.87"/><line class="cls-2" x1="80.29" y1="53.5" x2="77.96" y2="54.9"/><line class="cls-2" x1="78.77" y1="52.64" x2="76.28" y2="53.93"/><path class="cls-2" d="m74.73,53.88c.43.24,1.12.26,1.57.03"/><line class="cls-2" x1="73.62" y1="53.26" x2="74.71" y2="53.9"/><path class="cls-2" d="m73.59,52.36c-.41.24-.4.63.03.87"/><line class="cls-2" x1="75.92" y1="50.98" x2="73.59" y2="52.38"/><line class="cls-2" x1="74.4" y1="50.13" x2="71.91" y2="51.41"/><path class="cls-2" d="m70.37,51.36c.43.24,1.12.26,1.57.03"/><line class="cls-2" x1="69.25" y1="50.75" x2="70.37" y2="51.39"/><path class="cls-2" d="m69.25,49.87c-.41.24-.4.63.03.87"/><line class="cls-2" x1="71.55" y1="48.49" x2="69.23" y2="49.87"/><line class="cls-2" x1="70.04" y1="47.61" x2="67.54" y2="48.9"/><path class="cls-2" d="m66,48.85c.43.24,1.12.26,1.57.03"/><line class="cls-2" x1="64.89" y1="48.23" x2="66" y2="48.87"/><path class="cls-2" d="m64.88,47.36c-.41.24-.4.63.03.87"/><line class="cls-2" x1="67.19" y1="45.98" x2="64.86" y2="47.35"/><line class="cls-2" x1="65.69" y1="45.1" x2="63.2" y2="46.4"/><path class="cls-2" d="m61.63,46.35c.43.24,1.12.26,1.57.03"/><line class="cls-2" x1="60.5" y1="44.84" x2="60.5" y2="45.6"/><path class="cls-2" d="m60.52,45.59s-.05.04-.08.05"/><path class="cls-2" d="m64.88,48.11s-.05.04-.08.05"/><path class="cls-2" d="m69.25,50.6s-.05.04-.08.05"/><path class="cls-2" d="m73.59,53.11s-.05.04-.08.05"/><path class="cls-2" d="m77.95,55.63s-.05.04-.08.05"/><path class="cls-2" d="m82.32,58.14s-.05.04-.08.05"/><line class="cls-2" x1="67.19" y1="47.04" x2="65.12" y2="48.37"/><line class="cls-2" x1="64.86" y1="47.35" x2="64.86" y2="48.11"/><line class="cls-2" x1="71.55" y1="49.56" x2="69.47" y2="50.86"/><line class="cls-2" x1="69.23" y1="49.87" x2="69.23" y2="50.63"/><line class="cls-2" x1="75.92" y1="52.05" x2="73.83" y2="53.38"/><line class="cls-2" x1="80.29" y1="54.57" x2="78.2" y2="55.89"/><line class="cls-2" x1="84.63" y1="57.08" x2="82.56" y2="58.41"/><line class="cls-2" x1="82.3" y1="57.39" x2="82.3" y2="58.15"/><line class="cls-2" x1="77.96" y1="54.9" x2="77.96" y2="55.66"/><line class="cls-2" x1="73.59" y1="52.38" x2="73.59" y2="53.14"/><polyline class="cls-2" points="86.17 59.38 86.38 59.5 86.43 59.52 86.45 59.55 86.5 59.6 86.55 59.62 86.6 59.64 86.62 59.69 86.67 59.74 86.72 59.76 86.74 59.81 86.79 59.86 86.81 59.9 86.86 59.95 86.88 60 86.93 60.07 86.95 60.12 86.98 60.17"/><path class="cls-2" d="m90.61,69.35c-.82-3.08-2.04-6.2-3.61-9.21"/><path class="cls-2" d="m90.68,70.04c0-.21-.03-.44-.1-.68"/><polyline class="cls-2" points="90.49 92.03 90.51 91.98 90.54 91.96 90.54 91.91 90.56 91.86 90.58 91.82 90.61 91.79 90.61 91.75 90.63 91.67 90.63 91.63 90.65 91.58 90.65 91.53 90.68 91.48 90.68 91.41 90.68 91.37 90.68 91.32 90.68 91.25 90.68 70.06"/><path class="cls-2" d="m86.58,95.48c1.55-.77,2.87-1.94,3.91-3.48"/><polyline class="cls-2" points="58.77 43.89 58.79 43.87 58.81 43.87 58.86 43.84 58.88 43.84 58.91 43.84 58.96 43.82 58.98 43.82 59.03 43.82 59.07 43.84 59.1 43.84 59.15 43.84 59.17 43.87 59.22 43.87 59.26 43.89 59.31 43.91 59.34 43.94 59.55 44.06 59.55 44.36"/><line class="cls-2" x1="86.17" y1="59.38" x2="82.54" y2="61.61"/><path class="cls-2" d="m70.76,62.3c-.34.51-.23,1.44.26,2.29s1.24,1.41,1.85,1.37"/><path class="cls-2" d="m66.39,59.78c-.34.51-.23,1.44.26,2.29s1.24,1.41,1.85,1.37"/><path class="cls-2" d="m62.05,57.27c-.34.51-.23,1.44.26,2.29s1.24,1.41,1.85,1.37"/><path class="cls-2" d="m57.68,54.75c-.34.51-.23,1.44.26,2.29s1.24,1.41,1.85,1.37"/><path class="cls-2" d="m53.32,52.24c-.34.51-.23,1.44.26,2.29s1.24,1.41,1.85,1.37"/><path class="cls-2" d="m75.12,64.79c-.34.51-.23,1.44.26,2.29s1.24,1.41,1.85,1.37"/><path class="cls-2" d="m75.65,64.92c-.82-.37-1.44.1-1.41,1.07.03.97.68,2.11,1.51,2.62s1.54.21,1.63-.68"/><polyline class="cls-2" points="76.39 69.56 76.35 69.56 76.28 69.56 76.23 69.56 76.16 69.58 76.11 69.58 76.04 69.58 75.97 69.58 75.9 69.56 75.82 69.56 75.75 69.56 75.68 69.54 75.64 69.54 75.56 69.51 75.49 69.49 75.42 69.47 75.37 69.42 75.3 69.4 75.26 69.35 75.18 69.3 75.14 69.25 75.07 69.18 75.02 69.13 74.97 69.06 74.9 68.99 74.85 68.94 74.8 68.87 74.76 68.8 74.69 68.73 74.64 68.66 74.59 68.59 74.52 68.52 74.47 68.45"/><path class="cls-2" d="m76.42,69.53c.76-.07,1.13-.88.9-1.99-.23-1.11-1-2.24-1.87-2.74s-1.64-.27-1.87.58c-.22.85.15,2.1.91,3.04"/><line class="cls-2" x1="74.47" y1="68.45" x2="72.05" y2="67.05"/><polyline class="cls-2" points="72.05 67.05 71.98 67.05 71.93 67.05 71.86 67.07 71.79 67.07 71.74 67.07 71.67 67.07 71.6 67.07 71.53 67.07 71.48 67.05 71.41 67.05 71.34 67.05 71.27 67.02 71.2 67 71.13 66.98 71.08 66.95 71.01 66.9 70.94 66.88 70.89 66.83 70.82 66.79 70.77 66.74 70.7 66.67 70.65 66.62 70.61 66.55 70.53 66.48 70.49 66.43 70.44 66.36 70.39 66.29 70.32 66.22 70.27 66.14 70.23 66.07 70.15 66 70.11 65.93"/><line class="cls-2" x1="70.11" y1="65.93" x2="67.69" y2="64.53"/><polyline class="cls-2" points="67.69 64.53 67.62 64.53 67.57 64.55 67.5 64.55 67.45 64.55 67.38 64.55 67.31 64.55 67.24 64.55 67.19 64.55 67.12 64.55 67.05 64.53 66.98 64.53 66.9 64.51 66.83 64.48 66.79 64.46 66.71 64.44 66.64 64.41 66.57 64.37 66.52 64.32 66.45 64.27 66.41 64.22 66.33 64.15 66.29 64.1 66.24 64.03 66.19 63.99 66.12 63.91 66.07 63.84 66.03 63.77 65.98 63.7 65.91 63.63 65.86 63.56 65.81 63.49 65.74 63.42"/><line class="cls-2" x1="65.74" y1="63.42" x2="63.32" y2="62.02"/><polyline class="cls-2" points="63.32 62.02 63.27 62.04 63.2 62.04 63.13 62.04 63.08 62.04 63.01 62.04 62.94 62.04 62.89 62.04 62.82 62.04 62.75 62.04 62.68 62.02 62.61 62.02 62.54 61.99 62.49 61.97 62.42 61.95 62.35 61.92 62.28 61.9 62.21 61.85 62.16 61.8 62.09 61.76 62.04 61.71 61.99 61.66 61.92 61.59 61.87 61.52 61.83 61.47 61.78 61.4 61.71 61.33 61.66 61.26 61.61 61.19 61.54 61.11 61.49 61.04 61.45 60.97 61.38 60.9"/><line class="cls-2" x1="61.38" y1="60.9" x2="58.96" y2="59.52"/><polyline class="cls-2" points="58.96 59.52 58.91 59.52 58.84 59.52 58.79 59.52 58.72 59.52 58.65 59.52 58.58 59.52 58.53 59.52 58.46 59.52 58.39 59.52 58.31 59.52 58.24 59.5 58.2 59.48 58.13 59.48 58.05 59.45 57.98 59.41 57.91 59.38 57.86 59.34 57.79 59.29 57.75 59.24 57.67 59.19 57.63 59.15 57.58 59.07 57.51 59.03 57.46 58.96 57.41 58.88 57.34 58.81 57.29 58.77 57.25 58.69 57.2 58.62 57.13 58.55 57.08 58.48 57.03 58.41"/><line class="cls-2" x1="57.03" y1="58.41" x2="54.59" y2="57.01"/><polyline class="cls-2" points="54.59 57.01 54.54 57.01 54.47 57.01 54.42 57.01 54.35 57.01 54.28 57.01 54.23 57.01 54.16 57.01 54.09 57.01 54.02 57.01 53.95 57.01 53.9 56.99 53.83 56.99 53.76 56.96 53.69 56.94 53.62 56.92 53.57 56.87 53.5 56.82 53.43 56.8 53.38 56.73 53.31 56.68 53.26 56.63 53.21 56.56 53.14 56.51 53.1 56.44 53.05 56.37 53 56.32 52.93 56.25 52.88 56.18 52.83 56.11 52.79 56.04 52.72 55.97 52.67 55.89"/><polyline class="cls-2" points="52.67 55.89 48.11 53.28 48.09 53.31 48.04 53.36 47.99 53.4 47.95 53.45 47.9 53.5 47.85 53.57 47.8 53.62 47.76 53.66 47.71 53.71 47.64 53.76 47.59 53.81 47.54 53.88 47.5 53.93 47.42 53.97 47.38 54.02 47.33 54.07 80.95 73.43 80.97 73.36 81 73.31 81.02 73.24 81.04 73.17 81.07 73.1 81.07 73.03 81.09 72.93 81.09 72.86 81.09 72.76 81.09 72.69 81.07 72.6 81.07 72.53 81.04 72.43 81.02 72.34 80.97 72.27 80.95 72.17 76.39 69.56"/><path class="cls-2" d="m58.96,59.5c.76-.07,1.13-.88.9-1.99-.23-1.11-1-2.24-1.87-2.74s-1.64-.27-1.87.58c-.22.85.15,2.1.91,3.04"/><path class="cls-2" d="m63.33,62.01c.76-.07,1.13-.88.9-1.99-.23-1.11-1-2.24-1.87-2.74s-1.64-.27-1.87.58c-.22.85.15,2.1.91,3.04"/><path class="cls-2" d="m67.69,64.53c.76-.07,1.13-.88.9-1.99-.23-1.11-1-2.24-1.87-2.74s-1.64-.27-1.87.58c-.22.85.15,2.1.91,3.04"/><path class="cls-2" d="m72.06,67.04c.76-.07,1.13-.88.9-1.99-.23-1.11-1-2.24-1.87-2.74s-1.64-.27-1.87.58c-.22.85.15,2.1.91,3.04"/><path class="cls-2" d="m80.97,72.15c-.72-2.26-1.66-4.52-2.79-6.72"/><polyline class="cls-2" points="78.17 65.46 78.13 65.41 78.1 65.36 78.06 65.31 78.03 65.27 77.98 65.22 77.94 65.17 77.91 65.15 77.87 65.12 51.2 49.77 51.17 49.75 51.13 49.75 51.08 49.73 51.03 49.73 51.01 49.73 50.96 49.73 50.94 49.75 50.91 49.77"/><path class="cls-2" d="m50.91,49.76c-1.13.9-2.07,2.08-2.79,3.51"/><path class="cls-2" d="m54.62,56.98c.76-.07,1.13-.88.9-1.99-.23-1.11-1-2.24-1.87-2.74s-1.64-.27-1.87.58c-.22.85.15,2.1.91,3.04"/><path class="cls-2" d="m58.21,54.88c-.82-.37-1.44.1-1.41,1.07.03.97.68,2.11,1.51,2.62s1.54.21,1.63-.68"/><path class="cls-2" d="m53.84,52.37c-.82-.37-1.44.1-1.41,1.07.03.97.68,2.11,1.51,2.62s1.54.21,1.63-.68"/><path class="cls-2" d="m50.96,49.09c-.18.15-.21.43-.05.67"/><path class="cls-2" d="m48.03,52.78c-.07.15-.04.34.1.49"/><line class="cls-1" x1="48.02" y1="52.81" x2="48.02" y2="52.81"/><path class="cls-2" d="m47.34,54.05c-.11-.09-.18-.13-.2-.11"/><line class="cls-2" x1="47.14" y1="53.94" x2="47.14" y2="53.94"/><path class="cls-2" d="m46.84,54.55c-.11-.09-.18-.13-.2-.11"/><line class="cls-2" x1="46.83" y1="54.57" x2="47.33" y2="54.07"/><path class="cls-2" d="m46.84,54.55c-.27.27-.53.57-.76.88"/><polyline class="cls-2" points="46.07 55.44 46.02 55.49 79.86 74.97 79.91 74.92"/><path class="cls-2" d="m79.9,74.9c.26-.3.49-.61.69-.92"/><line class="cls-2" x1="80.95" y1="73.43" x2="80.59" y2="74"/><path class="cls-2" d="m81.49,73.77c-.14-.13-.36-.27-.54-.34"/><path class="cls-2" d="m81.14,74.34c-.14-.14-.36-.28-.55-.35"/><line class="cls-2" x1="81.5" y1="73.76" x2="81.14" y2="74.35"/><path class="cls-2" d="m80.97,72.17c.19,0,.51-.08.73-.2"/><polyline class="cls-2" points="81.69 71.98 81.71 72.03 81.71 72.1 81.73 72.15 81.76 72.22 81.78 72.34 81.78 72.46 81.78 72.57 81.8 72.72 81.78 72.84 81.78 72.95 81.76 73.05 81.73 73.17 81.71 73.29 81.69 73.38 81.64 73.5 81.59 73.59 81.54 73.69 81.5 73.76"/><path class="cls-2" d="m81.7,71.96c-.74-2.31-1.69-4.61-2.85-6.86"/><path class="cls-2" d="m78.17,65.43c.16-.06.46-.21.67-.34"/><polyline class="cls-2" points="78.84 65.12 78.81 65.08 78.79 65.01 78.74 64.96 78.72 64.91 78.67 64.86 78.65 64.82 78.6 64.77 78.58 64.72 78.53 64.67 78.48 64.65 78.43 64.6 78.41 64.58 78.36 64.53 78.32 64.51 78.27 64.48 78.25 64.46"/><path class="cls-2" d="m78.24,64.43c-.21.13-.37.43-.37.67"/><line class="cls-2" x1="78.25" y1="64.46" x2="51.58" y2="49.11"/><path class="cls-2" d="m51.59,49.11c-.21.13-.37.43-.37.67"/><polyline class="cls-2" points="59.34 43.94 58.88 44.22 58.43 44.53 57.98 44.84 57.53 45.15 57.06 45.46 56.61 45.76 56.13 46.07 55.66 46.38 55.42 46.55 55.18 46.71 54.95 46.88 54.68 47.02 54.45 47.19 54.19 47.35 53.95 47.52 53.69 47.71 53.43 47.88 53.17 48.04 52.91 48.21 52.64 48.4 52.38 48.56 52.12 48.75 51.86 48.92 51.58 49.11 51.55 49.09 51.51 49.06 51.46 49.04 51.41 49.04 51.39 49.01 51.34 49.01 51.29 49.01 51.27 48.99 51.22 48.99 51.2 48.99 51.15 49.01 51.13 49.01 51.1 49.01 51.05 49.04 51.03 49.04 51.01 49.06"/><path class="cls-2" d="m46.08,55.44c-.13-.07-.22-.09-.25-.05"/><path class="cls-2" d="m46.05,55.48c-.13-.07-.22-.09-.25-.05"/><line class="cls-1" x1="45.81" y1="55.44" x2="45.81" y2="55.44"/><path class="cls-2" d="m46.06,55.46c-.24.31-.39.7-.39,1.03"/><path class="cls-2" d="m45.5,56.29c0,.08.06.17.16.23"/><path class="cls-2" d="m45.5,56.29h0"/><path class="cls-2" d="m79.88,74.96c-.25.3-.41.69-.41,1.02"/><line class="cls-2" x1="79.46" y1="75.99" x2="45.65" y2="56.51"/><path class="cls-2" d="m79.48,75.97c.21.12.55.13.77.01"/><polyline class="cls-2" points="80.24 75.99 80.24 75.97 80.24 75.92 80.24 75.9 80.24 75.87 80.24 75.82 80.26 75.8 80.26 75.78 80.29 75.73 80.31 75.71 80.31 75.66 80.33 75.64 80.36 75.61 80.38 75.56 80.38 75.54 80.4 75.52 80.43 75.49"/><path class="cls-2" d="m80.46,75.48c-.11-.16-.36-.39-.57-.52"/><line class="cls-2" x1="80.43" y1="75.49" x2="80.48" y2="75.45"/><path class="cls-2" d="m80.48,75.43c-.11-.16-.36-.39-.57-.52"/><path class="cls-2" d="m80.5,75.44c.26-.35.48-.72.66-1.09"/><polyline class="cls-2" points="90.68 70.06 90.08 70.37 89.49 70.68 88.9 70.98 88.3 71.29 87.69 71.63 87.09 71.96 86.79 72.1 86.48 72.27 86.17 72.43 85.86 72.6 85.55 72.76 85.22 72.93 84.91 73.1 84.58 73.26 84.27 73.45 83.94 73.62 83.61 73.78 83.27 73.97 82.94 74.14 82.59 74.33 82.25 74.5 81.9 74.69 81.54 74.88 81.19 75.07 80.83 75.26 80.48 75.45"/><polyline class="cls-2" points="90.58 69.37 90.04 69.66 89.49 69.94 88.92 70.25 88.38 70.53 87.81 70.84 87.24 71.13 86.67 71.44 86.38 71.58 86.1 71.74 85.79 71.89 85.51 72.05 85.2 72.19 84.91 72.36 84.6 72.53 84.32 72.67 84.01 72.84 83.7 73 83.39 73.17 83.09 73.33 82.75 73.5 82.44 73.67 82.11 73.83 81.8 74 81.47 74.19 81.14 74.35"/><polyline class="cls-2" points="86.98 60.17 86.5 60.45 86.03 60.74 85.55 61.02 85.08 61.33 84.6 61.61 84.11 61.92 83.61 62.21 83.11 62.51 82.87 62.68 82.61 62.82 82.35 62.99 82.11 63.13 81.85 63.3 81.59 63.46 81.31 63.61 81.04 63.77 80.78 63.94 80.5 64.1 80.24 64.27 79.95 64.44 79.69 64.6 79.41 64.77 79.12 64.96 78.84 65.12"/><polyline class="cls-2" points="86.38 59.5 85.91 59.79 85.43 60.07 84.96 60.36 84.49 60.66 83.99 60.95 83.51 61.26 83.01 61.54 82.52 61.85 82.25 61.99 82.02 62.16 81.76 62.3 81.5 62.47 81.23 62.63 80.97 62.78 80.71 62.94 80.45 63.11 80.17 63.27 79.91 63.44 79.62 63.61 79.36 63.77 79.08 63.94 78.79 64.1 78.53 64.27 78.25 64.46"/><line class="cls-2" x1="82.54" y1="61.61" x2="56.04" y2="46.36"/><line class="cls-2" x1="59.55" y1="44.06" x2="57.08" y2="45.69"/><line class="cls-2" x1="56.16" y1="46.29" x2="56.04" y2="46.36"/><polyline class="cls-2" points="90.68 91.25 90.18 91.51 89.66 91.77 89.16 92.03 88.64 92.29 88.12 92.55 87.59 92.81 87.05 93.07 86.79 93.22 86.53 93.36 86.24 93.48 85.98 93.62 85.7 93.76 85.41 93.9 85.15 94.05 84.86 94.19 84.58 94.33 84.3 94.47 83.99 94.62 83.7 94.76 83.42 94.9 83.11 95.07 82.8 95.21 82.52 95.38 82.21 95.52 81.9 95.68 81.9 89.47"/><polyline class="cls-2" points="81.9 89.47 81.9 89.4 81.88 89.3 81.88 89.23 81.85 89.14 81.83 89.06 81.8 88.99 81.76 88.95 81.73 88.87 81.69 88.83 81.64 88.78 81.59 88.73 81.52 88.68 81.47 88.66 81.4 88.64 81.33 88.61 81.28 88.61 80.43 88.52 80.4 88.52 80.38 88.49 80.36 88.49 80.33 88.47 80.31 88.47 80.31 88.45 80.29 88.42 80.26 88.4 80.26 88.38 80.24 88.35 80.24 88.33 80.24 88.3 80.24 88.28 80.24 88.26 80.24 88.23 80.24 75.99"/><path class="cls-2" d="m81.14,89.44c.21.12.55.13.77.01"/><line class="cls-2" x1="81.12" y1="95.66" x2="81.12" y2="89.47"/><path class="cls-2" d="m81.14,95.64c.21.12.55.13.77.01"/><polyline class="cls-2" points="80.97 96.25 81 96.18 81.04 96.13 81.07 96.06 81.09 95.99 81.09 95.92 81.12 95.83 81.12 95.75 81.12 95.66"/><path class="cls-2" d="m80.99,96.23c.18.22.5.32.72.21"/><path class="cls-2" d="m81.71,96.44c.14-.2.21-.47.21-.79"/><line class="cls-2" x1="81.12" y1="89.47" x2="80.02" y2="88.83"/><polyline class="cls-2" points="47.14 69.99 47.14 76.11 47.14 76.18 47.16 76.28 47.16 76.37 47.19 76.47 47.21 76.58 47.23 76.68 47.26 76.77 47.31 76.87"/><path class="cls-2" d="m47.3,76.86c3.44,8.98,9.87,17,16.84,21.01,6.96,4.01,13.39,3.39,16.84-1.63"/><path class="cls-2" d="m69.77,92.99c0,1.18.83,2.62,1.85,3.21s1.85.11,1.84-1.07c0-1.18-.83-2.62-1.85-3.21s-1.85-.11-1.84,1.07"/><path class="cls-2" d="m51.31,74.65c-.25-.23-.52-.25-.65-.06-.13.19-.08.55.11.86"/><line class="cls-2" x1="63.39" y1="85.91" x2="51.29" y2="74.66"/><path class="cls-2" d="m63.39,85.89c.1.09.2.16.3.19"/><path class="cls-2" d="m62.5,90.51c.9,1.4,2.21,2.2,3.16,1.94s1.29-1.53.82-3.06-1.62-2.9-2.79-3.33"/><path class="cls-2" d="m62.5,90.51c-.08-.12-.17-.22-.26-.31"/><line class="cls-2" x1="49.92" y1="79.83" x2="62.23" y2="90.23"/><path class="cls-2" d="m49.95,78.6c-.26-.09-.45.06-.46.36-.01.3.16.66.42.87"/><line class="cls-2" x1="49.94" y1="78.6" x2="50.77" y2="75.47"/><line class="cls-1" x1="80.85" y1="88.95" x2="80.85" y2="88.95"/><path class="cls-2" d="m81.13,89.46c0-.24-.09-.43-.25-.53"/><path class="cls-2" d="m47,75.86c0,.08.06.17.16.23"/><path class="cls-2" d="m47,75.86h0"/><path class="cls-2" d="m47.2,76.82s.06.04.13.03"/><path class="cls-2" d="m77.93,99.76c1.49-.73,2.75-1.85,3.76-3.31"/><polyline class="cls-2" points="90.49 92.03 89.97 92.29 89.47 92.55 88.95 92.81 88.42 93.07 87.9 93.33 87.38 93.6 86.86 93.86 86.57 94 86.31 94.14 86.03 94.26 85.77 94.4 85.48 94.54 85.22 94.69 84.94 94.83 84.65 94.97 84.37 95.11 84.08 95.26 83.8 95.4 83.49 95.54 83.2 95.71 82.9 95.85 82.61 95.99 82.3 96.16 81.99 96.3 81.69 96.47"/><path class="cls-2" d="m45.67,68.74c0,.24.08.43.23.51"/><path class="cls-2" d="m45.5,68.51c0,.08.06.17.16.23"/><line class="cls-1" x1="79.69" y1="88.71" x2="79.69" y2="88.71"/><path class="cls-2" d="m79.47,88.2c0,.24.08.43.23.52"/><line class="cls-2" x1="79.46" y1="88.21" x2="45.65" y2="68.75"/><line class="cls-1" x1="80" y1="88.83" x2="80" y2="88.83"/><path class="cls-2" d="m80.02,88.82c.17.02.34-.11.43-.32"/><path class="cls-2" d="m79.48,88.21c.21.12.55.13.77.01"/><line class="cls-2" x1="79.46" y1="88.21" x2="79.46" y2="75.99"/><line class="cls-2" x1="45.65" y1="56.51" x2="45.65" y2="68.75"/><path class="cls-2" d="m80.85,88.92c.17.02.34-.11.43-.32"/><path class="cls-2" d="m70.58,91.88c-.45.23-.63.86-.47,1.64s.62,1.59,1.22,2.12c.6.53,1.23.68,1.66.41"/><path class="cls-2" d="m66.24,90.83c.14-.05.27-.13.37-.24"/><path class="cls-2" d="m64.94,91.04c.54.38,1.08.53,1.53.42"/><polyline class="cls-2" points="51.7 75.09 51.15 75.47 57.06 80.43 63.82 86.72 64.2 86.43"/><line class="cls-2" x1="50.98" y1="75.71" x2="56.89" y2="80.64"/><path class="cls-2" d="m57.06,80.4c-.08.06-.15.15-.17.23"/><path class="cls-2" d="m51.15,75.47c-.08.06-.15.16-.17.23"/><line class="cls-2" x1="56.16" y1="83.39" x2="50.18" y2="78.74"/><line class="cls-2" x1="56.16" y1="83.39" x2="56.89" y2="80.64"/><polyline class="cls-2" points="50.77 75.47 50.79 75.49 50.82 75.52 50.86 75.59 50.94 75.64 50.96 75.68 50.98 75.71"/><polyline class="cls-2" points="50.18 78.74 50.15 78.72 50.11 78.7 50.06 78.65 49.99 78.62 49.96 78.6 49.94 78.6"/><path class="cls-2" d="m56.16,83.39s0,.06,0,.08"/><path class="cls-2" d="m50.18,78.74s0,.06,0,.08"/><line class="cls-2" x1="63.04" y1="89.21" x2="56.16" y2="83.39"/><path class="cls-2" d="m63.03,89.19s0,.07.02.08"/><path class="cls-2" d="m63.41,89.64c-.1-.17-.22-.32-.36-.44"/><path class="cls-2" d="m63.4,89.64c.51.89,1.32,1.45,1.92,1.31.6-.14.81-.92.5-1.86-.31-.94-1.05-1.75-1.75-1.92"/><path class="cls-2" d="m63.64,86.92c.13.12.28.21.41.24"/><line class="cls-2" x1="56.89" y1="80.64" x2="63.63" y2="86.93"/><path class="cls-2" d="m63.83,86.69c-.08.06-.15.15-.18.22"/><path class="cls-2" d="m63.84,86.7c.11.1.22.17.32.19"/><path class="cls-2" d="m64.15,86.88c-.07.06-.11.18-.09.28"/><line class="cls-2" x1="64.13" y1="86.91" x2="64.48" y2="86.6"/><path class="cls-2" d="m65.59,91.03c.62-.2.82-1.07.46-2.08-.35-1.01-1.15-1.88-1.91-2.07"/><path class="cls-2" d="m63.37,89.64s.02,0,.04-.01"/><path class="cls-2" d="m49.92,78.71c-.12.04-.18.18-.14.37.03.19.15.39.3.52"/><line class="cls-2" x1="50.08" y1="79.6" x2="50.65" y2="79.17"/><polyline class="cls-2" points="50.01 78.72 49.99 78.72 49.99 78.7 49.96 78.7 49.96 78.67 49.94 78.67 49.94 78.65 49.94 78.62 49.94 78.6"/><path class="cls-2" d="m50.07,79.58c-.08.06-.15.15-.17.23"/><line class="cls-2" x1="50.08" y1="79.6" x2="62.4" y2="89.99"/><path class="cls-2" d="m62.41,89.97c-.08.06-.15.15-.17.23"/><line class="cls-2" x1="63.18" y1="89.42" x2="62.4" y2="89.99"/><path class="cls-2" d="m62.73,90.35c-.1-.15-.21-.28-.34-.39"/><line class="cls-2" x1="63.51" y1="89.92" x2="62.73" y2="90.37"/><path class="cls-2" d="m62.74,90.37c-.08.05-.18.12-.23.15"/><path class="cls-2" d="m62.75,90.35c.49.77,1.13,1.37,1.78,1.66.64.29,1.23.26,1.62-.1"/><path class="cls-2" d="m63.69,86.08c0,.06.04.1.08.12"/><path class="cls-2" d="m63.39,85.9s0,.06,0,.07"/><path class="cls-2" d="m51.31,74.65s0,.06,0,.07"/><path class="cls-2" d="m51.04,74.6c-.09.03-.15.12-.15.26s.05.29.14.43"/><path class="cls-2" d="m51.01,75.29c.05.06.1.12.16.17"/><polyline class="cls-2" points="51.01 75.3 50.98 75.3 50.98 75.33 50.96 75.33 50.94 75.35 50.91 75.35 50.89 75.37 50.86 75.4 50.84 75.4 50.82 75.42 50.79 75.45 50.77 75.45 50.77 75.47"/><path class="cls-2" d="m71.31,62.4c-.82-.37-1.44.1-1.41,1.07.03.97.68,2.11,1.51,2.62s1.54.21,1.63-.68"/><path class="cls-2" d="m66.94,59.91c-.82-.37-1.44.1-1.41,1.07.03.97.68,2.11,1.51,2.62s1.54.21,1.63-.68"/><path class="cls-2" d="m62.58,57.4c-.82-.37-1.44.1-1.41,1.07.03.97.68,2.11,1.51,2.62s1.54.21,1.63-.68"/><polyline class="cls-2" points="45.48 56.3 45.48 56.23 45.48 56.18 45.5 56.13 45.5 56.06 45.5 56.01 45.53 55.94 45.55 55.89 45.57 55.85 45.57 55.8 45.6 55.73 45.62 55.68 45.65 55.63 45.69 55.59 45.72 55.54 45.74 55.49 45.79 55.44 45.81 55.4 45.91 55.28 46 55.14 46.1 55.02 46.19 54.9 46.31 54.78 46.4 54.68 46.52 54.57 46.62 54.45 47.14 53.95 47.16 53.93 47.21 53.88 47.23 53.83 47.28 53.81 47.31 53.76 47.35 53.71 47.42 53.64 47.5 53.57 47.54 53.47 47.61 53.4 47.66 53.33 47.73 53.26 47.78 53.17 47.83 53.1 47.88 53.02 47.92 52.98 47.95 52.91 47.99 52.86 48.02 52.79 48.09 52.64 48.16 52.53 48.23 52.38 48.3 52.24 48.37 52.12 48.47 51.98 48.54 51.86 48.61 51.72 48.71 51.6 48.78 51.46 48.87 51.34 48.97 51.22 49.04 51.1 49.13 50.98 49.23 50.86 49.32 50.75 49.42 50.63 49.51 50.51 49.61 50.41 49.7 50.3 49.8 50.18 49.89 50.08 49.99 49.96 50.11 49.87 50.2 49.77 50.3 49.65 50.41 49.56 50.51 49.47 50.63 49.37 50.72 49.28 50.84 49.18 50.96 49.11 51.01 49.06 58.77 43.89"/><polyline class="cls-2" points="46.97 69.89 46.97 75.87 47 75.99 47 76.11 47.02 76.23 47.04 76.35 47.07 76.47 47.09 76.61 47.14 76.73 47.19 76.85 47.31 77.2 47.45 77.56 47.59 77.91 47.76 78.27 47.9 78.62 48.07 78.96 48.21 79.31 48.37 79.67 48.54 80.02 48.71 80.38 48.87 80.71 49.04 81.07 49.23 81.42 49.39 81.76 49.58 82.11 49.77 82.44 49.96 82.78 50.15 83.13 50.34 83.46 50.53 83.8 50.75 84.13 50.94 84.46 51.15 84.79 51.34 85.13 51.55 85.46 51.77 85.79 51.98 86.1 52.19 86.43 52.41 86.74 52.64 87.07 52.86 87.38 53.1 87.69 53.31 88 53.55 88.3 53.78 88.61 54.02 88.92 54.26 89.23 54.5 89.51 54.73 89.82 54.97 90.11 55.21 90.39 55.47 90.68 55.71 90.96 55.97 91.25 56.2 91.51 56.46 91.79 56.73 92.05 56.96 92.34 57.22 92.6 57.48 92.86 57.75 93.12 58.01 93.36 58.27 93.62 58.53 93.86 58.81 94.12 59.07 94.36 59.34 94.59 59.6 94.81 59.88 95.04 60.14 95.26 60.43 95.49 60.69 95.71 60.95 95.92 61.23 96.13 61.52 96.32 61.78 96.54 62.06 96.73 62.32 96.92 62.61 97.11 62.89 97.3 63.16 97.46 63.44 97.65 63.72 97.82 63.99 97.99 64.27 98.15 64.55 98.29 64.84 98.46 65.1 98.6 65.39 98.74 65.67 98.89 65.95 99.03 66.22 99.15 66.5 99.29 66.79 99.41 67.05 99.53 67.33 99.62 67.62 99.74 67.88 99.84 68.16 99.93 68.45 100.03 68.71 100.12 68.99 100.19 69.25 100.26 69.54 100.33 69.8 100.41 70.06 100.48 70.34 100.52 70.61 100.6 70.87 100.64 71.13 100.67 71.41 100.71 71.67 100.74 71.93 100.76 72.19 100.78 72.46 100.81 72.72 100.83 72.98 100.83 73.22 100.83 73.48 100.83 73.74 100.81 73.97 100.81 74.24 100.78 74.47 100.76 74.71 100.74 74.97 100.69 75.21 100.64 75.45 100.62 75.68 100.55 75.92 100.5 76.16 100.45 76.39 100.38 76.61 100.31 76.85 100.24 77.06 100.14 77.27 100.05 77.51 99.98 77.72 99.88 77.94 99.76 86.57 95.52"/><polyline class="cls-2" points="80.88 88.95 80.85 88.92 80.83 88.92 80 88.83 79.93 88.83 79.83 88.8 79.81 88.78 79.76 88.78 79.74 88.76 79.69 88.73 45.88 69.25 45.83 69.23 45.79 69.21 45.74 69.16 45.69 69.13 45.67 69.09 45.62 69.04 45.6 68.99 45.57 68.94 45.55 68.9 45.53 68.85 45.53 68.8 45.5 68.73 45.5 68.68 45.48 68.64 45.48 68.59 45.48 68.52 45.48 56.3"/><polyline class="cls-2" points="72.98 96.06 73.03 96.02 73.05 95.99 73.1 95.94 73.14 95.9 73.17 95.85 73.22 95.8 73.24 95.73 73.26 95.68 73.29 95.61 73.31 95.54 73.33 95.47 73.36 95.4 73.36 95.3 73.38 95.21 73.38 95.14 73.38 95.04 73.38 94.95 73.38 94.83 73.36 94.73 73.33 94.64 73.33 94.52 73.31 94.43 73.29 94.31 73.24 94.21 73.22 94.09 73.17 94 73.12 93.88 73.1 93.76 73.03 93.67 72.98 93.55 72.93 93.45 72.86 93.33 72.81 93.24 72.74 93.15 72.67 93.05 72.6 92.93 72.53 92.84 72.46 92.77 72.38 92.67 72.31 92.58 72.24 92.5 72.15 92.43 72.08 92.36 71.98 92.29 71.91 92.22 71.82 92.15 71.74 92.1 71.67 92.05 71.58 92.01 71.51 91.96 71.41 91.94 71.34 91.89 71.27 91.86 71.2 91.86 71.13 91.84 71.06 91.82 70.98 91.82 70.91 91.82 70.84 91.82 70.79 91.82 70.72 91.84 70.68 91.86 70.63 91.86 70.58 91.89"/><polyline class="cls-2" points="63.04 89.28 56.16 83.49 50.18 78.81"/><polyline class="cls-2" points="63.04 89.28 63.08 89.33 63.13 89.35 63.18 89.4 63.2 89.44 63.25 89.49 63.27 89.54 63.32 89.61 63.34 89.66 63.42 89.75 63.46 89.82 63.51 89.92 63.58 89.99 63.63 90.08 63.7 90.16 63.75 90.23 63.82 90.32 63.89 90.39 63.96 90.46 64.03 90.51 64.1 90.58 64.18 90.65 64.25 90.7 64.32 90.75 64.39 90.8 64.46 90.84 64.53 90.89 64.6 90.94 64.7 90.96 64.77 91.01 64.84 91.03 64.91 91.06 65.01 91.08 65.08 91.08 65.15 91.1 65.22 91.1 65.29 91.1 65.36 91.1 65.46 91.1 65.53 91.08 65.6 91.06 66.24 90.84"/><polyline class="cls-2" points="50.18 78.81 50.15 78.79 50.13 78.79 50.13 78.77 50.11 78.74 50.08 78.74 50.06 78.74 50.03 78.72 50.01 78.72 49.99 78.72 49.96 78.7 49.94 78.7 49.92 78.7"/><polyline class="cls-2" points="66.14 91.94 66.19 91.89 66.24 91.84 66.29 91.79 66.31 91.72 66.36 91.67 66.41 91.6 66.43 91.53 66.45 91.46 66.48 91.39 66.52 91.32 66.52 91.22 66.55 91.13 66.57 91.06 66.6 90.96 66.6 90.87 66.6 90.77 66.6 90.65 66.6 90.56 66.6 90.46 66.6 90.35 66.6 90.25 66.57 90.13 66.55 90.01 66.55 89.89 66.52 89.78 66.48 89.68 66.45 89.56 66.43 89.44 66.38 89.33 66.33 89.21 66.31 89.09 66.26 88.97 66.22 88.85 66.14 88.73 66.1 88.61 66.05 88.49 65.98 88.38 65.93 88.26 65.86 88.16 65.79 88.04 65.72 87.93 65.65 87.83 65.58 87.71 65.5 87.62 65.41 87.52 65.34 87.4 65.24 87.31 65.17 87.24 65.08 87.14 65.01 87.05 64.91 86.98 64.84 86.88 64.74 86.81 64.65 86.74 64.55 86.67 64.48 86.6 64.39 86.53 64.29 86.48 64.2 86.43 64.1 86.38 64.03 86.34 63.94 86.29 63.84 86.24 63.77 86.22 63.72 86.19 63.68 86.17 63.61 86.15 63.56 86.12 63.53 86.07 63.49 86.05 63.44 86 63.39 85.98 51.29 74.73 51.27 74.71 51.24 74.69 51.22 74.69 51.2 74.66 51.17 74.64 51.15 74.64 51.13 74.61 51.1 74.61 51.08 74.61 51.05 74.59 51.03 74.59 51.01 74.61"/><polyline class="cls-2" points="87.19 60.02 87.17 59.98 87.17 59.95 87.14 59.9 87.12 59.88 87.09 59.83 87.07 59.81 87.02 59.76 87 59.74 86.98 59.71 86.95 59.69 86.93 59.67 86.91 59.64 86.86 59.62 86.83 59.6 86.81 59.57 86.79 59.55 86.45 59.36"/><path class="cls-2" d="m90.75,69.1c-.81-3.04-2.02-6.11-3.56-9.08"/><polyline class="cls-2" points="90.65 91.56 90.7 91.48 90.75 91.41 90.77 91.34 90.8 91.25 90.82 91.18 90.82 91.08 90.84 90.99 90.84 90.89 90.84 69.68 90.84 69.61 90.82 69.54 90.82 69.47 90.82 69.4 90.8 69.32 90.8 69.25 90.77 69.16 90.75 69.09"/><path class="cls-2" d="m90.67,91.56h0"/><line class="cls-2" x1="59.98" y1="44.13" x2="59.48" y2="43.84"/><polyline class="cls-2" points="59.15 43.68 59.17 43.65 59.19 43.65 59.22 43.63 59.26 43.63 59.29 43.6 59.34 43.6 59.36 43.6 59.41 43.6 59.45 43.6 59.48 43.6 59.52 43.63 59.57 43.63 59.62 43.65 59.64 43.68 59.69 43.68 59.74 43.7 60.05 43.89 60.05 44.08"/><path class="cls-2" d="m59.15,43.67c-.06.05-.13.1-.19.15"/><line class="cls-2" x1="81.78" y1="96.3" x2="81.78" y2="96.3"/><path class="cls-2" d="m87.4,95.05c1.37-.76,2.54-1.86,3.48-3.25"/><polyline class="cls-2" points="90.87 91.79 90.89 91.77 90.91 91.72 90.94 91.67 90.96 91.65 90.99 91.6 90.99 91.56 91.01 91.51 91.03 91.46 91.03 91.41 91.06 91.34 91.06 91.29 91.06 91.25 91.06 91.2 91.08 91.13 91.08 91.08 91.08 91.03 91.08 69.8"/><path class="cls-2" d="m91.09,69.8c0-.21-.03-.44-.1-.68"/><path class="cls-2" d="m90.99,69.12c-.82-3.08-2.04-6.19-3.6-9.19"/><polyline class="cls-2" points="87.38 59.95 87.36 59.88 87.31 59.83 87.28 59.79 87.26 59.74 87.21 59.69 87.19 59.64 87.14 59.6 87.12 59.55 87.07 59.5 87.02 59.48 86.98 59.43 86.95 59.41 86.91 59.36 86.86 59.34 86.81 59.31 86.79 59.29 86.45 59.1 86.45 59.36 86.31 59.45"/><line class="cls-2" x1="86.79" y1="59.55" x2="86.6" y2="59.67"/><line class="cls-2" x1="87.19" y1="60.02" x2="86.98" y2="60.14"/><line class="cls-2" x1="90.75" y1="69.09" x2="90.54" y2="69.21"/><line class="cls-2" x1="90.84" y1="69.68" x2="90.65" y2="69.77"/><line class="cls-2" x1="90.84" y1="90.89" x2="90.68" y2="90.99"/><line class="cls-2" x1="90.65" y1="91.56" x2="90.65" y2="91.56"/><line class="cls-2" x1="59.48" y1="43.84" x2="59.34" y2="43.94"/><line class="cls-2" x1="59.57" y1="44.34" x2="59.55" y2="44.34"/><polyline class="cls-2" points="62.04 43.04 62.04 42.92 60.05 43.89"/><path class="cls-2" d="m84.81,57.4c.05.23.2.45.38.56"/><line class="cls-2" x1="85.17" y1="57.96" x2="86" y2="58.43"/><line class="cls-2" x1="62.04" y1="42.92" x2="88.35" y2="58.08"/><line class="cls-2" x1="62.37" y1="44.81" x2="64.2" y2="45.88"/><path class="cls-2" d="m67.34,47.35c-.02-.12-.08-.24-.15-.34"/><path class="cls-2" d="m67.37,47.34c.05.23.2.45.38.56"/><line class="cls-2" x1="67.73" y1="47.92" x2="68.54" y2="48.4"/><path class="cls-2" d="m71.71,49.86c-.02-.12-.08-.24-.15-.34"/><path class="cls-2" d="m71.73,49.85c.05.23.2.45.38.56"/><line class="cls-2" x1="72.08" y1="50.41" x2="72.91" y2="50.89"/><path class="cls-2" d="m76.07,52.35c-.02-.12-.08-.24-.15-.34"/><path class="cls-2" d="m76.07,52.37c.05.23.2.45.38.56"/><line class="cls-2" x1="76.44" y1="52.93" x2="77.27" y2="53.4"/><path class="cls-2" d="m80.44,54.87c-.02-.12-.08-.24-.15-.34"/><path class="cls-2" d="m80.44,54.88c.05.23.2.45.38.56"/><line class="cls-2" x1="80.81" y1="55.44" x2="81.64" y2="55.92"/><path class="cls-2" d="m84.8,57.38c-.02-.12-.08-.24-.15-.34"/><line class="cls-2" x1="86.45" y1="59.1" x2="88.35" y2="58.08"/><polyline class="cls-2" points="59.74 43.7 60.12 43.53 60.47 43.34 60.85 43.15 61.04 43.08 61.21 42.99 61.4 42.89 61.57 42.82 61.73 42.73 61.92 42.63 62.25 42.47 62.59 42.3 62.92 42.16 63.25 41.99 63.58 41.83 63.91 41.66 64.22 41.52 64.55 41.35 64.86 41.21 65.17 41.04 91.96 56.46 89.37 57.86 86.79 59.29"/><path class="cls-2" d="m65.44,41.02s0,0,0,0"/><path class="cls-2" d="m65.44,41.02c-.07-.04-.16-.03-.26.02"/><path class="cls-2" d="m92.23,56.44s0,0,0,0"/><path class="cls-2" d="m92.23,56.44c-.07-.04-.16-.03-.26.02"/><line class="cls-1" x1="81.9" y1="95.73" x2="81.9" y2="95.73"/><path class="cls-2" d="m93.16,91.27c1.07-.71,1.99-1.64,2.76-2.77"/><polyline class="cls-2" points="90.87 91.79 91.15 91.6 91.46 91.41 91.75 91.22 92.05 91.03 92.34 90.84 92.65 90.63 92.96 90.44 93.26 90.23 93.57 90.04 93.88 89.82 94.21 89.61 94.38 89.51 94.54 89.4 94.71 89.3 94.88 89.18 95.04 89.06 95.21 88.97 95.38 88.85 95.54 88.73 95.73 88.61 95.9 88.49"/><path class="cls-2" d="m96.01,88.39s0,0,0,0"/><path class="cls-2" d="m95.92,88.49s.07-.06.1-.1"/><path class="cls-2" d="m96.25,87.49h0"/><path class="cls-2" d="m96.11,87.7c.09-.06.14-.14.14-.21"/><path class="cls-2" d="m95.92,88.48c.14-.2.21-.47.21-.78"/><polyline class="cls-2" points="91.08 91.03 91.37 90.82 91.65 90.63 91.96 90.44 92.24 90.25 92.55 90.06 92.86 89.85 93.17 89.66 93.48 89.44 93.79 89.25 94.09 89.04 94.4 88.83 94.57 88.73 94.73 88.61 94.9 88.52 95.07 88.4 95.23 88.28 95.42 88.19 95.59 88.07 95.75 87.95 95.92 87.83 96.11 87.71 96.11 66.64 95.83 66.83 95.52 67.02 95.23 67.19 94.92 67.38 94.64 67.57 94.33 67.76 94.02 67.95 93.71 68.14 93.41 68.35 93.1 68.54 92.93 68.64 92.77 68.75 92.6 68.85 92.43 68.94 92.27 69.06 92.1 69.16 91.77 69.37 91.41 69.58 91.08 69.8"/><path class="cls-2" d="m96.11,66.63c.09-.06.14-.14.14-.21"/><path class="cls-2" d="m96.02,65.95c.11-.07.16-.14.15-.2"/><path class="cls-2" d="m96.12,66.63c0-.22-.03-.45-.1-.69"/><polyline class="cls-2" points="96.02 65.95 95.73 66.14 95.42 66.33 95.14 66.52 94.83 66.71 94.54 66.88 94.24 67.07 93.93 67.28 93.62 67.47 93.31 67.66 93 67.85 92.84 67.97 92.67 68.07 92.5 68.16 92.34 68.28 92.17 68.37 92.01 68.47 91.67 68.68 91.32 68.92 90.99 69.13"/><path class="cls-2" d="m96.01,65.95c-.79-2.95-1.96-5.94-3.44-8.82"/><polyline class="cls-2" points="87.38 59.95 87.69 59.79 87.97 59.62 88.28 59.45 88.59 59.29 88.9 59.12 89.21 58.96 89.51 58.79 89.85 58.6 90.16 58.43 90.49 58.27 90.82 58.08 90.99 57.98 91.15 57.89 91.32 57.82 91.51 57.72 91.67 57.63 91.84 57.53 92.03 57.44 92.2 57.34 92.39 57.25 92.55 57.13"/><line class="cls-2" x1="92.75" y1="57" x2="92.75" y2="57"/><path class="cls-2" d="m92.58,57.13c.12-.07.18-.11.17-.12"/><polyline class="cls-2" points="91.96 56.46 92.01 56.49 92.05 56.51 92.08 56.56 92.12 56.58 92.17 56.63 92.22 56.65 92.24 56.7 92.29 56.75 92.34 56.8 92.36 56.84 92.41 56.89 92.43 56.94 92.48 56.99 92.5 57.03 92.53 57.08 92.55 57.13"/><path class="cls-2" d="m64.64,40.95s0,0,0,0"/><path class="cls-2" d="m65.18,41.03c-.2-.12-.39-.14-.53-.07"/><line class="cls-2" x1="65.43" y1="41.02" x2="92.22" y2="56.44"/><polyline class="cls-2" points="92.22 56.44 92.27 56.46 92.29 56.51 92.34 56.54 92.36 56.56 92.41 56.58 92.46 56.63 92.48 56.65 92.5 56.7 92.55 56.73 92.58 56.77 92.6 56.8 92.65 56.84 92.67 56.89 92.69 56.94 92.72 56.96 92.74 57.01 92.88 57.29 93 57.56 93.15 57.82 93.29 58.1 93.41 58.36 93.52 58.62 93.67 58.91 93.79 59.17 93.9 59.45 94.02 59.71 94.14 60 94.26 60.26 94.38 60.55 94.5 60.81 94.59 61.09 94.71 61.38 94.81 61.64 94.92 61.92 95.02 62.18 95.11 62.47 95.21 62.75 95.3 63.01 95.4 63.3 95.49 63.58 95.59 63.84 95.68 64.13 95.75 64.39 95.85 64.67 95.92 64.96 96.02 65.22 96.09 65.5 96.16 65.77 96.18 65.86 96.21 65.93 96.21 66.03 96.23 66.1 96.23 66.19 96.25 66.26 96.25 66.36 96.25 66.43 96.25 87.5 96.25 87.57 96.25 87.62 96.25 87.69 96.23 87.76 96.23 87.81 96.21 87.88 96.21 87.93 96.18 88 96.18 88.04 96.16 88.09 96.13 88.16 96.11 88.21 96.09 88.26 96.06 88.3 96.04 88.35 95.99 88.4 95.85 88.61 95.68 88.83 95.54 89.04 95.38 89.23 95.21 89.44 95.04 89.63 94.85 89.82 94.69 89.99 94.5 90.18 94.33 90.35 94.14 90.51 93.95 90.68 93.74 90.82 93.55 90.99 93.33 91.13 93.15 91.27 88.02 94.66"/><polyline class="cls-2" points="64.65 40.97 64.67 40.95 64.74 40.95 64.79 40.92 64.84 40.92 64.89 40.9 64.93 40.9 64.98 40.9 65.03 40.9 65.1 40.9 65.15 40.92 65.2 40.92 65.24 40.95 65.29 40.97 65.34 40.97 65.39 40.99 65.43 41.02"/><line class="cls-2" x1="59.19" y1="43.65" x2="64.63" y2="40.97"/><line class="cls-2" x1="65.62" y1="91.41" x2="65.65" y2="91.44"/><circle class="cls-3" cx="64.53" cy="88.92" r="7.66"/></svg>