<?xml version="1.0" encoding="utf-8"?>
<!-- Generator: Adobe Illustrator 21.1.0, SVG Export Plug-In . SVG Version: 6.00 Build 0)  -->
<svg version="1.1" id="Laag_1" xmlns="http://www.w3.org/2000/svg" xmlns:xlink="http://www.w3.org/1999/xlink" x="0px" y="0px"
	 viewBox="0 0 157.1 157.1" style="enable-background:new 0 0 157.1 157.1;" xml:space="preserve">
<style type="text/css">
	.st0{fill:none;stroke:#0A0C06;stroke-linejoin:bevel;stroke-miterlimit:22.9256;}
	.st1{fill:#1D1D1B;stroke:#000000;stroke-width:0.75;stroke-miterlimit:10;}
	.st2{fill:#FFFFFF;stroke:#000000;stroke-width:0.75;stroke-miterlimit:10;}
	.st3{fill-rule:evenodd;clip-rule:evenodd;}
</style>
<path class="st0" d="M9.3,0.5c-2.3,0-4.6,0.9-6.2,2.6C1.4,4.7,0.5,6.9,0.5,9.3"/>
<path class="st0" d="M0.5,147.8c0,2.3,0.9,4.6,2.6,6.2c1.6,1.6,3.9,2.6,6.2,2.6"/>
<path class="st0" d="M156.6,9.3c0-2.3-0.9-4.6-2.6-6.2c-1.6-1.6-3.9-2.6-6.2-2.6"/>
<line class="st0" x1="147.8" y1="0.5" x2="9.3" y2="0.5"/>
<path class="st0" d="M147.8,156.6c2.3,0,4.6-0.9,6.2-2.6c1.6-1.6,2.6-3.9,2.6-6.2"/>
<line class="st0" x1="0.5" y1="9.3" x2="0.5" y2="147.8"/>
<line class="st0" x1="9.3" y1="156.6" x2="147.8" y2="156.6"/>
<line class="st0" x1="156.6" y1="147.8" x2="156.6" y2="9.3"/>
<path class="st0" d="M139.4,137.2c0-39.1,0-97.9,0-117.4"/>
<path class="st0" d="M19.8,139.4c39.1,0,97.9,0,117.4,0"/>
<path class="st0" d="M137.3,139.4c0.6,0,1.3-0.4,1.5-0.6c0.4-0.4,0.6-1.2,0.6-1.5"/>
<path class="st0" d="M102.9,17.6c0,40.6,0,101.5,0,121.8"/>
<path class="st0" d="M139.4,19.8c0-0.6-0.4-1.3-0.6-1.5c-0.4-0.4-1.2-0.6-1.5-0.6"/>
<path class="st0" d="M54.2,17.6c0,40.6,0,101.4,0,121.7"/>
<path class="st0" d="M54.4,20.4c16.1,0,40.4,0,48.4,0"/>
<path class="st0" d="M102.6,136.6c-16.1,0-40.2,0-48.2,0"/>
<path class="st0" d="M17.6,137.2c0-39.1,0-97.9,0-117.4"/>
<path class="st0" d="M19.8,139.4c-0.6,0-1.3-0.4-1.5-0.6c-0.4-0.4-0.6-1.2-0.6-1.5"/>
<path class="st0" d="M54.2,17.6c0,0.3,0,0.7,0,0.8"/>
<path class="st0" d="M17.6,19.8c0-0.6,0.4-1.3,0.6-1.5c0.4-0.4,1.2-0.6,1.5-0.6"/>
<path class="st0" d="M19.8,17.6c39.1,0,97.9,0,117.4,0"/>
<rect x="35.7" y="74.1" class="st1" width="0.5" height="7.7"/>
<path class="st2" d="M121.1,82c-1.1,0-2.2-0.5-2.9-1.2l0,0c-0.7-0.7-1.2-1.8-1.2-2.9c0-1.1,0.5-2.2,1.2-2.9l0,0
	c0.7-0.7,1.8-1.2,2.9-1.2c1.1,0,2.2,0.5,2.9,1.2l0,0c0.7,0.7,1.2,1.8,1.2,2.9c0,1.1-0.5,2.2-1.2,2.9l0,0
	C123.3,81.6,122.2,82,121.1,82z"/>
<rect x="77.5" y="29.7" class="st3" width="2.1" height="4.2"/>
</svg>
