<?xml version="1.0" encoding="UTF-8"?>
<svg width="960px" height="960px" viewBox="0 0 960 960" version="1.1" xmlns="http://www.w3.org/2000/svg" xmlns:xlink="http://www.w3.org/1999/xlink">
    <title>Single Dimmer/assets/pair</title>
    <g id="Single-Dimmer" stroke="none" stroke-width="1" fill="none" fill-rule="evenodd" stroke-linejoin="round">
        <path d="M197.90206,19.5745053 L811.909407,69.6209863 C825.145532,70.6998357 836.859741,76.7676833 845.264918,85.8858234 C853.670096,95.0039635 858.766242,107.172396 858.766242,120.452415 L858.766242,824.88139 C858.766242,837.995753 853.792658,850.040938 845.5563,859.129186 C837.319942,868.217434 825.820809,874.348744 812.769712,875.635358 L205.801963,935.471957 L165.766209,929.656843 C150.280732,927.407608 136.794633,919.64515 127.179902,908.533007 C117.565172,897.420865 111.821811,882.959038 111.821811,867.311065 L111.821811,93.4360823 C111.821811,79.8190412 116.196721,66.972805 123.806583,56.4706049 C131.416445,45.9684048 142.261258,37.8102408 155.201065,33.5693441 L197.90206,19.5745053 Z" id="Path-106" stroke="#000000" stroke-width="40"></path>
        <path d="M154.290321,84.3778975 L154.290321,873.903399 C154.290321,902.622206 177.571515,925.903399 206.290321,925.903399 C208.059483,925.903399 209.827491,925.813113 211.587449,925.632892 L810.143736,864.340407 C832.081225,862.093996 848.763419,843.616301 848.763419,821.564095 L848.763419,120.880334 C848.763419,98.3952309 831.44031,79.7065911 809.019774,78.0038123 L210.22824,32.5272196 C181.591901,30.3523673 156.614496,51.8036405 154.439644,80.4399791 C154.340131,81.7502604 154.290321,83.0638428 154.290321,84.3778975 Z" id="Path-3" stroke="#000000" stroke-width="20" stroke-linecap="round"></path>
        <ellipse id="Oval" stroke="#000000" stroke-width="20" stroke-linecap="round" transform="translate(589, 478) rotate(3) translate(-589, -478)" cx="589" cy="478" rx="185" ry="202"></ellipse>
        <path d="M579.883774,276.373269 C586.372616,275.967521 592.941443,275.929348 599.571863,276.276834 C701.604518,281.624139 779.585143,376.273524 773.746464,487.682152 C767.907785,599.09078 680.460791,685.070471 578.428137,679.723166 L579.466975,679.767335 L579.46632,679.800549 L522.833315,677.950872 C519.088935,677.998311 515.320956,677.924435 511.532809,677.725907 C510.048148,677.648099 508.56857,677.551573 507.094258,677.43655 L506.53984,677.411759 L506.537392,677.392205 C406.965896,669.30205 331.567378,576.81621 337.253536,468.317848 C342.910169,360.382865 426.715582,276.5956 525.909745,278.053991 Z" id="Combined-Shape" stroke="#000000" stroke-width="20" stroke-linecap="round"></path>
    </g>
</svg>