<?xml version="1.0" encoding="UTF-8"?><svg id="Layer_1" xmlns="http://www.w3.org/2000/svg" viewBox="0 0 141.73 141.73"><defs><style>.cls-1{fill:#00aeef;}.cls-2{fill-rule:evenodd;}.cls-2,.cls-3{fill:#231f20;}.cls-4{stroke:#231f20;stroke-linecap:round;stroke-linejoin:round;stroke-width:.33px;}.cls-4,.cls-5{fill:none;}.cls-5{stroke:#00aeef;stroke-miterlimit:10;stroke-width:2px;}</style></defs><g id="Design"><path class="cls-3" d="m67.42,77.02c-.33-.62-.78-1.17-1.3-1.53-.93-.65-1.79-.49-2.13.31.23-1.08,1.19-1.38,2.24-.65.49.34.92.85,1.24,1.42l-.05.46Z"/><path class="cls-3" d="m65.76,87.28c0,.19-.11.28-.24.2-.12-.07-.21-.24-.23-.41l.32-.02.05.13.22-.3-.44-.25.05.13-.24.02c-.07-.27-.24-.52-.44-.64-.26-.15-.48,0-.48.33l.24.14c0-.19.11-.28.24-.2.11.06.2.23.23.39l-.64.04.12.3.57-.04c.07.27.24.54.45.66.26.15.48,0,.48-.33l-.24-.14Z"/><path class="cls-3" d="m68.13,87.85c.08.03.19.08.34.17s.27.19.34.3c.07.11.12.24.12.36s-.04.21-.1.24c-.09.04-.21.01-.36-.08-.03-.02-.06-.04-.09-.05v.45l-.25-.15s0-1.25,0-1.25Zm.25.72s.05.04.09.06c.14.08.22.05.22-.08,0-.12-.07-.23-.2-.3-.05-.03-.09-.04-.1-.05v.37h0Z"/><path class="cls-3" d="m71.48,89.77l.26.15v1.03l.45.26v.24l-.7-.41v-1.27Z"/><path class="cls-3" d="m75.13,91.87l.26.15v1.03l.45.26v.24l-.7-.41v-1.27Z"/><polygon class="cls-3" points="90.13 101.94 84.03 98.42 90.13 98.74 90.13 101.94"/><path class="cls-3" d="m85.99,100.43c.08.03.19.08.31.15.16.09.27.19.35.3.06.09.1.2.1.31,0,.16-.1.22-.21.2h0c.08.09.13.2.16.34.04.18.06.34.09.41l-.21-.12s-.04-.17-.08-.34c-.03-.18-.09-.27-.2-.34l-.1-.06v.52l-.21-.12v-1.26h0Zm.21.68l.12.07c.14.08.23.05.23-.08,0-.14-.09-.26-.22-.33-.06-.04-.11-.06-.13-.06v.4h0Z"/><path class="cls-3" d="m87.4,101.49v.43l.36.21v.15l-.36-.21v.43l-.14-.08v-.43l-.36-.21v-.15l.36.21v-.43l.14.08Z"/><path class="cls-3" d="m88.76,103.25s-.16-.03-.29-.11c-.36-.21-.58-.59-.58-.98,0-.42.26-.53.61-.32.14.08.23.17.28.22l-.05.16c-.05-.06-.13-.12-.22-.18-.23-.13-.4-.06-.4.24,0,.28.15.54.4.69.08.05.17.08.22.08l.03.2Z"/><path class="cls-2" d="m81.04,75.23c0-.17-.02-.29-.05-.35-.05-.08-.09-.14-.19-.2l-.09-.05v-.08l.86.49v.08l-.09-.05c-.1-.06-.18-.07-.22-.02-.03.03-.04.12-.04.27v2.01l.28.59-.45-.26-1.48-3.09v1.81c0,.16.01.26.04.32.04.09.12.17.22.24l.09.05v.08l-.86-.49v-.08l.09.05c.1.06.15.05.19.02.03-.02.05-.12.05-.29v-2.09l-.22-.46.48.28,1.39,2.96v-1.76Z"/><path class="cls-3" d="m80.34,73.12c1.32.76,2.39,2.59,2.39,4.07,0,.74-.27,1.26-.7,1.5-.43.24-1.03.2-1.69-.18-1.32-.76-2.39-2.59-2.39-4.07,0-.74.27-1.26.7-1.5.43-.24,1.03-.2,1.69.18m0,.42c-.56-.32-1.06-.36-1.43-.16-.36.2-.59.64-.59,1.26,0,1.25.91,2.8,2.02,3.44.56.32,1.06.36,1.43.16.36-.2.59-.64.59-1.27,0-1.25-.91-2.8-2.02-3.44"/><path class="cls-3" d="m55.23,82.36c-.45-.26-.81-.85-.81-1.31s.36-.64.81-.38.81.85.81,1.32-.36.64-.81.38Zm0-1.55c-.37-.22-.68-.08-.68.31s.31.88.68,1.1.68.08.68-.31c0-.39-.31-.88-.68-1.1Z"/><path class="cls-3" d="m55.51,80.97l-.56-.32v-.76l.56.32v.76Zm-.43-.39l.3.17v-.47l-.3-.17v.47Z"/><polygon class="cls-3" points="56.04 81.9 56.49 82.16 56.49 82.3 56.04 82.04 56.04 81.9"/><polygon class="cls-3" points="53.95 80.7 54.4 80.96 54.4 81.1 53.95 80.84 53.95 80.7"/><polygon class="cls-3" points="55.84 81.22 56.15 81.03 56.24 81.19 55.93 81.37 55.84 81.22"/><polygon class="cls-3" points="54.2 81.83 54.52 81.65 54.61 81.8 54.29 81.98 54.2 81.83"/><polygon class="cls-3" points="55.83 82.52 55.91 82.46 56.25 82.99 56.17 83.05 55.83 82.52"/><polygon class="cls-3" points="54.55 80.66 54.21 80.13 54.29 80.07 54.63 80.6 54.55 80.66"/><polygon class="cls-3" points="55.16 82.82 55.18 82.33 55.31 82.4 55.29 82.9 55.16 82.82"/><path class="cls-3" d="m51.49,80.1l-1.54-.89v-1.5l1.54.89v1.5h0Zm-1.41-.96l1.29.74v-1.21l-1.29-.74v1.21Z"/><path class="cls-3" d="m52.15,80.34c-.35-.2-.64-.64-.64-.97s.29-.44.64-.24.64.64.64.97c0,.34-.28.44-.64.24Zm0-1.07c-.28-.16-.51-.09-.51.17s.23.59.51.76.51.09.51-.17c0-.26-.23-.59-.51-.76Z"/><polygon class="cls-3" points="51.46 78.73 52.23 79.18 52.23 79.32 51.46 78.87 51.46 78.73"/><polygon class="cls-3" points="51.72 79.82 52.48 79.49 52.57 79.64 51.8 79.98 51.72 79.82"/><polygon class="cls-3" points="52.45 80.39 51.75 79.12 51.85 79.08 52.54 80.34 52.45 80.39"/><polygon class="cls-3" points="49.97 79.1 51.38 78.56 51.46 78.72 50.05 79.26 49.97 79.1"/><polygon class="cls-3" points="49.73 77.84 49.96 77.97 49.96 78.11 49.73 77.98 49.73 77.84"/><polygon class="cls-3" points="49.73 78.7 49.96 78.83 49.96 78.98 49.73 78.84 49.73 78.7"/><polygon class="cls-3" points="51.46 79.8 52.23 80.25 52.23 80.39 51.46 79.94 51.46 79.8"/><polygon class="cls-3" points="52.27 76.22 52.4 76.3 52.4 78.14 52.27 78.06 52.27 76.22"/><polygon class="cls-3" points="51.01 75.56 51.07 75.47 52.37 77.14 52.3 77.22 51.01 75.56"/><polygon class="cls-3" points="51.01 77.28 52.3 77.1 52.37 77.26 51.08 77.44 51.01 77.28"/><polygon class="cls-3" points="50.98 75.48 51.11 75.55 51.11 77.39 50.98 77.32 50.98 75.48"/><polygon class="cls-3" points="52.33 77.11 53.35 77.7 53.35 77.84 52.33 77.25 52.33 77.11"/><polygon class="cls-3" points="49.49 75.47 51.04 76.36 51.04 76.51 49.49 75.61 49.49 75.47"/><polygon class="cls-3" points="51.4 75.96 51.31 75.81 51.52 75.64 51.62 75.79 51.4 75.96"/><polygon class="cls-3" points="51.35 75.48 51.79 75.55 51.71 76.02 51.35 75.48"/><polygon class="cls-3" points="51.79 76.46 51.69 76.31 51.91 76.14 52.01 76.29 51.79 76.46"/><polygon class="cls-3" points="51.74 75.97 52.18 76.05 52.1 76.52 51.74 75.97"/><g id="CE_White"><path class="cls-3" d="m82.36,57.03v.57c-.05-.03-.11-.05-.17-.09-.94-.54-1.71-1.85-1.71-2.9s.77-1.48,1.71-.93c.06.03.11.07.17.11v.57c-.05-.04-.11-.08-.17-.11-.66-.38-1.2-.08-1.2.66s.54,1.67,1.2,2.05c.06.03.11.06.17.08"/><path class="cls-3" d="m83.95,56.31l.99.57v.59l-.99-.57c.12.67.6,1.41,1.17,1.74.06.03.11.06.17.08v.57c-.05-.03-.11-.06-.17-.09-.94-.54-1.7-1.84-1.7-2.9s.77-1.48,1.7-.94c.06.03.11.07.17.11v.57c-.05-.04-.11-.08-.17-.11-.57-.33-1.05-.16-1.17.38"/></g><g id="Artwork_5"><path class="cls-3" d="m87.62,57.26l-.28-.16v.05l.28.16v-.05Zm-.79-.31s-.08.02-.1.04l.1.06v-.1Zm1.44,1.3l-.1.06v.06s.12.07.12.07v-.18h-.02Zm-.94.41l-.54-.95.09,1.21.45-.26Zm.11.06l.52.91.11-1.24h0v-.03l-.62.35Zm-.66-1.16l.61,1.07.36-.2-.51-.29v-.21l.58.34v.12l.23-.13v-.23l.04.02v-.15s-1.35-.79-1.35-.79l.03.46Zm1.46,2.71s0,.04,0,.05c0,.17-.12.24-.27.15-.1-.06-.2-.18-.24-.3l-.67-.39v.16l-.18-.1v-.16s-.04-.05-.04-.07l-.04-.52-.93.54-.05-.09.98-.56-.1-1.45-.93-1.65v-.12l.93,1.63-.02-.33-.11-.07v-.11l.1.06s0-.01,0-.02c.03-.07.1-.09.19-.08v-.08l.16.09h0c.09.04.17.08.26.12v-.04l.47.27v.26l-.47-.27v-.11c-.08-.04-.17-.08-.26-.11v.16l1.11.64c-.04-.14-.21-.29-.38-.41v-.11c.17.12.34.28.43.44.02-.02.06-.02.1,0,.07.04.13.14.13.22s-.06.11-.13.07c-.02,0-.03-.02-.05-.04v.16s.05.04.05.04l.84-.48v.12l-.73.41h.01v.38l-.22-.13-.12,1.33.86,1.51-.06.03-.6-1.06Zm-.55-.26c0-.16.1-.23.24-.17v-.09s-.55-.99-.55-.99l-.5.28.04.56.77.44s0-.03,0-.04Zm.13.08c0,.09.06.2.14.24s.14.01.14-.08-.06-.2-.14-.24-.14-.01-.14.08Zm.05.03c0-.06.04-.08.09-.05s.09.1.09.16-.04.08-.09.05-.09-.1-.09-.16Zm-1.86.36l2.76,1.59v.76l-2.76-1.59v-.76Z"/></g><g id="Heatit-CMYK-white"><path class="cls-3" d="m54.5,38.83c0-.05-.03-.1-.07-.12l-.13-.08v-.3l.31.18c.15.08.21.19.21.35v.72c0,.09,0,.15,0,.15h0c.07-.13.28-.25.61-.06.39.22.56.56.56,1.04v.8c0,.05.03.1.07.12l.13.08v.3l-.31-.18c-.15-.08-.21-.19-.21-.35v-.87c0-.26-.05-.49-.31-.65-.25-.14-.45-.07-.52.16-.02.06-.03.14-.03.23v.87l-.32-.18v-2.21Z"/><path class="cls-3" d="m57.21,40.7c.46.27.71.8.71,1.28,0,.05,0,.14,0,.14l-1.2-.69c.02.41.27.78.57.95s.48.06.48.06l.14.33s-.24.13-.63-.09c-.52-.3-.88-.93-.88-1.48,0-.59.36-.77.83-.5Zm.38.98c0-.31-.18-.58-.39-.7-.24-.14-.44-.09-.48.19l.87.5Z"/><path class="cls-3" d="m59.17,42.58l.07.04v-.02c0-.33-.11-.51-.36-.65-.08-.05-.27-.13-.27-.01v.11l-.3-.17v-.18c0-.3.41-.11.57-.02.53.31.68.71.68,1.12v.79c0,.05.03.1.07.12l.13.08v.3l-.3-.17c-.15-.08-.21-.2-.21-.33,0-.06,0-.11,0-.11h0s-.13.29-.52.06c-.28-.16-.56-.52-.56-.89,0-.6.72-.22.99-.06Zm-.36.7c.27.15.44-.06.44-.34v-.06l-.08-.05c-.24-.14-.67-.37-.67-.03,0,.15.1.36.31.48Z"/><path class="cls-3" d="m60.12,42.71l-.21-.12v-.28l.22.13v-.51l.31.18v.51l.39.23v.28l-.39-.23v.85c0,.37.23.55.35.62.05.03.05.02.05.02v.31s-.01,0-.08-.04c-.21-.12-.63-.43-.63-1.06v-.89h0Z"/><path class="cls-3" d="m61.22,43.4s-.02-.06-.05-.09l-.1-.06v-.28l.23.13c.11.06.16.18.16.31v.9s.02.07.05.09l.1.06v.23l-.23-.13c-.11-.06-.16-.14-.16-.27v-.9Zm0-.85l.24.14v.28l-.24-.14v-.28Z"/><path class="cls-3" d="m61.9,43.7l-.16-.09v-.25l.17.1v-.38l.23.13v.38l.32.19v.25l-.32-.19v.62c0,.28.17.42.26.47.03.02.06.03.06.03h0s0,.09-.02.12c-.01.05-.04.09-.07.07-.16-.09-.48-.33-.48-.8v-.65Z"/><path class="cls-3" d="m53.46,38.94c0-.11-.04-.24-.11-.34-.03-.04-.05-.1-.05-.14s.02-.08.05-.09c.07-.03.11-.1.11-.21s-.04-.24-.11-.34c-.02-.03-.04-.05-.07-.06s-.05-.01-.06,0-.02.03-.02.07c0,.03.01.06.03.09.03.04.05.1.05.14s-.02.08-.05.09c-.07.03-.11.1-.11.21s.04.24.11.34c.03.04.05.1.05.14s-.02.08-.05.09c-.07.03-.11.1-.11.21s.04.24.11.34c.03.04.05.1.05.14s-.02.08-.05.09c-.07.03-.11.1-.11.21s.04.24.11.34c.02.03.04.05.06.06h0s.05.02.06,0c.03-.03.03-.1-.01-.16-.03-.04-.05-.1-.05-.14s.02-.08.05-.09c.07-.03.11-.1.11-.21s-.04-.24-.11-.34c-.03-.04-.05-.1-.05-.14s.02-.08.05-.09c.07-.02.11-.1.11-.21Z"/><path class="cls-3" d="m53.91,39.2c0-.11-.04-.24-.11-.34-.03-.04-.05-.1-.05-.14s.02-.08.05-.09c.07-.03.11-.1.11-.21s-.04-.24-.11-.34c-.02-.03-.04-.05-.07-.06s-.05-.01-.06,0-.02.03-.02.07c0,.03.01.06.03.09.03.04.05.1.05.14s-.02.08-.05.09c-.07.03-.11.1-.11.21s.04.24.11.34c.03.04.05.1.05.14s-.02.08-.05.09c-.07.03-.11.1-.11.21s.04.24.11.34c.03.04.05.1.05.14s-.02.08-.05.09c-.07.03-.11.1-.11.21s.04.24.11.34c.02.03.04.05.06.06h0s.05.02.06,0c.03-.03.03-.1-.01-.16-.03-.04-.05-.1-.05-.14s.02-.08.05-.09c.07-.03.11-.1.11-.21s-.04-.24-.11-.34c-.03-.04-.05-.1-.05-.14s.02-.08.05-.09c.07-.02.11-.1.11-.21Z"/><path class="cls-3" d="m53.01,38.69c0-.11-.04-.24-.11-.34-.03-.04-.05-.1-.05-.14s.02-.08.05-.09c.07-.03.11-.1.11-.21s-.04-.24-.11-.34c-.02-.03-.04-.05-.07-.06s-.05-.01-.06,0-.02.03-.02.07c0,.03.01.06.03.09.03.04.05.1.05.14s-.02.08-.05.09c-.07.03-.11.1-.11.21s.04.24.11.34c.03.04.05.1.05.14s-.02.08-.05.09c-.07.03-.11.1-.11.21s.04.24.11.34c.03.04.05.1.05.14s-.02.08-.05.09c-.07.03-.11.1-.11.21s.04.24.11.34c.02.03.04.05.06.06h0s.05.02.06,0c.03-.03.03-.1-.01-.16-.03-.04-.05-.1-.05-.14s.02-.08.05-.09c.07-.03.11-.1.11-.21s-.04-.24-.11-.34c-.03-.04-.05-.1-.05-.14s.02-.08.05-.09c.07-.02.11-.1.11-.21Z"/></g></g><g id="Layer_5"><path class="cls-3" d="m68.13,76s.12.2.27.29c.08.05.16.04.16-.06,0-.22-.52-.48-.52-.86,0-.21.16-.27.37-.15s.33.32.33.32l-.09.13s-.1-.17-.24-.25c-.09-.05-.17-.03-.17.05,0,.22.52.47.52.86,0,.2-.13.29-.36.15-.25-.14-.38-.39-.38-.39l.11-.1Z"/><path class="cls-3" d="m68.97,76.1l-.1-.06v-.18l.11.06v-.26l.19.11v.26l.18.1v.18l-.18-.1v.35c0,.15.1.23.16.26.02.01.04.02.04.02v.19s-.02,0-.06-.03c-.11-.06-.33-.23-.33-.53v-.37h0Z"/><path class="cls-3" d="m69.92,76.79l.03.02h0c0-.13-.06-.21-.15-.26-.11-.06-.22-.04-.22-.04l-.07-.2s.12-.04.31.07c.21.12.33.32.33.54v.56l-.18-.1v-.07s0-.06,0-.06h0s-.06.12-.24.02c-.14-.08-.27-.25-.27-.43,0-.28.34-.11.47-.03Zm-.15.32c.1.06.18-.02.18-.13v-.02l-.03-.02c-.1-.06-.26-.14-.26-.01,0,.06.04.14.12.18Z"/><path class="cls-3" d="m70.37,76.91l-.1-.06v-.18l.11.06v-.26l.19.11v.26l.18.1v.18l-.18-.1v.35c0,.15.1.23.16.26.02.01.04.02.04.02v.19s-.02,0-.06-.03c-.11-.06-.33-.23-.33-.53v-.37h0Z"/><path class="cls-3" d="m70.91,77.03l.2.11v.53c0,.11.02.2.12.25.14.08.22-.01.22-.17v-.41l.2.11v.89l-.19-.11v-.1s0-.06,0-.06h0c-.04.07-.14.1-.27.03-.17-.1-.27-.25-.27-.5v-.57h0Z"/><path class="cls-3" d="m71.89,78.22s.09.15.21.22c.05.03.1.03.1-.02,0-.13-.38-.34-.38-.62,0-.17.13-.19.3-.09s.26.25.26.25l-.07.12s-.07-.12-.19-.19c-.05-.03-.1-.03-.1.02,0,.13.38.33.38.62,0,.15-.11.2-.3.09-.2-.11-.31-.31-.31-.31l.09-.1Z"/><path class="cls-3" d="m59.88,73.71l.21.12.21.74c.02.09.05.21.05.21h0s.03-.09.05-.15l.21-.49.21.12.09,1.29-.2-.11-.05-.72c0-.08,0-.19,0-.19h0s-.03.1-.06.15l-.18.38-.17-.1-.18-.58c-.03-.09-.06-.23-.06-.23h0s0,.11,0,.19l-.05.67-.2-.12.09-1.19Z"/><path class="cls-3" d="m61.15,74.45l.2.11v.2l-.2-.11v-.2Zm0,.35l.2.11v.89l-.2-.11v-.89Z"/><path class="cls-3" d="m61.57,75.04l.19.11v.1s0,.06,0,.06h0c.03-.05.12-.11.28-.02.17.1.27.26.27.5v.57l-.2-.11v-.53c0-.11-.02-.2-.13-.26s-.18-.03-.21.06c-.01.03-.01.07-.01.11v.41l-.2-.11v-.89h0Z"/><path class="cls-3" d="m62.51,76.25l.2.11v.22l-.2-.11v-.22Z"/><path class="cls-3" d="m78.16,84.26l.36.21c.12.07.17.11.22.16.11.12.18.28.18.44,0,.15-.07.25-.19.23h0s.02.03.04.09l.23.59-.22-.13-.22-.59-.19-.11v.46l-.2-.12v-1.24h0Zm.38.8c.11.06.17.03.17-.1s-.05-.22-.2-.31l-.15-.09v.39l.18.1Z"/><path class="cls-3" d="m79.49,85.35c.23.13.35.39.35.62,0,.03,0,.08,0,.08l-.55-.32c.01.16.12.31.24.37.13.07.23.04.23.04l.08.2s-.12.06-.32-.06c-.26-.15-.42-.46-.42-.71,0-.27.16-.37.4-.23Zm.15.44c0-.12-.07-.23-.16-.28-.1-.06-.17-.03-.19.08l.35.2Z"/><path class="cls-3" d="m80.02,86.31s.09.15.21.22c.05.03.1.03.1-.02,0-.13-.38-.34-.38-.62,0-.17.13-.19.3-.09s.26.25.26.25l-.07.12s-.07-.12-.19-.19c-.05-.03-.1-.03-.1.02,0,.13.38.33.38.62,0,.15-.11.2-.3.09-.2-.11-.31-.31-.31-.31l.09-.1Z"/><path class="cls-3" d="m81.05,86.25c.23.13.35.39.35.62,0,.03,0,.08,0,.08l-.55-.32c.01.16.12.31.24.37.13.07.23.04.23.04l.08.2s-.12.06-.32-.06c-.26-.15-.42-.46-.42-.71,0-.28.16-.37.4-.24Zm.15.44c0-.12-.07-.23-.16-.28-.1-.06-.17-.03-.19.08l.35.2Z"/><path class="cls-3" d="m81.59,86.78l-.1-.06v-.18l.11.06v-.26l.19.11v.26l.18.1v.18l-.18-.1v.35c0,.15.1.23.16.26.02.01.04.02.04.02v.19s-.02,0-.06-.03c-.11-.06-.33-.23-.33-.53v-.37h0Z"/><path class="cls-3" d="m64.84,50.36s.03.1.09.13c.08.05.15,0,.15-.09v-.02l-.03-.02c-.1-.05-.21-.09-.21,0Z"/><path class="cls-3" d="m71.5,53.41l-.12-.07v.81l.12.07c.21.12.34.05.34-.21,0-.26-.13-.48-.34-.6Z"/><path class="cls-3" d="m77.32,56.77c-.12-.07-.15.09-.15.32s.03.43.15.5.16-.09.16-.32c0-.23-.04-.43-.16-.5Z"/><path class="cls-3" d="m64.03,49.43c-.09-.05-.13,0-.14.06l.26.15c0-.08-.05-.17-.12-.21Z"/><path class="cls-3" d="m61.84,46.85v2.73l18.24,10.52v-2.73l-18.24-10.52Zm10.49,6.76l.29.17v.26l-.29-.17v-.26Zm-3.29-1.9l.29.17v.26l-.29-.17v-.26Zm-2.74-1.58l.29.17v.26l-.29-.17v-.26Zm-2.92-.29l-.3-.17v-.55l-.45-.26v.55l-.3-.17v-1.39l.3.17v.56l.45.26v-.56l.3.17v1.39Zm.71.15c.13.07.25.04.25.04l.11.3s-.14.06-.38-.07c-.32-.18-.49-.54-.49-.81,0-.29.18-.42.46-.26.26.15.41.44.41.72,0,.03,0,.1,0,.1l-.56-.32c.02.14.11.25.21.3Zm1.29,1l-.27-.16v-.06s0-.06,0-.06h0s-.07.11-.25,0c-.17-.1-.3-.3-.3-.5,0-.29.38-.11.52-.03h.01s0-.01,0-.01c0-.08-.06-.14-.13-.19-.11-.06-.24-.04-.24-.04l-.1-.3s.15-.04.37.08c.25.14.4.38.4.64v.62Zm.75.43s-.03-.01-.08-.04c-.14-.08-.42-.28-.42-.62v-.35l-.11-.07v-.26l.12.07v-.29l.29.17v.29l.19.11v.26l-.19-.11v.31c0,.11.1.19.16.22.02.01.04.02.04.02v.29Zm.47.27l-.3-.17v-1l.3.17v1Zm.77.44s-.03-.01-.08-.04c-.14-.08-.42-.28-.42-.62v-.35l-.11-.07v-.26l.12.07v-.29l.29.17v.29l.19.11v.26l-.19-.11v.31c0,.11.1.19.16.22.02.01.04.02.04.02v.29Zm1.49.86l-.96-.56v-.21l.48-.49c.05-.06.1-.07.1-.07h0s-.04-.02-.1-.05l-.46-.26v-.29l.93.54v.21l-.48.49c-.05.06-.1.07-.1.07h0s.04.02.1.05l.49.28v.29h0Zm.48.28l-.3-.17v-1l.3.17v1Zm1.09.54c0,.37-.26.35-.5.21-.12-.07-.25-.18-.34-.28l.08-.21s.11.13.25.21c.11.06.21.07.21-.08v-.03s0-.04,0-.04h0c-.05.04-.12.03-.22-.02-.27-.15-.4-.48-.4-.74s.13-.42.4-.26c.16.09.24.24.24.24h0s0,0,0-.02v-.05l.28.16v.91h0Zm1.09.72l-.44-.25v-1.39l.44.25c.39.22.64.62.64,1.06,0,.44-.25.56-.64.33Zm1.12.64l-.3-.17v-1l.3.17v1Zm1.6.92l-.3-.17v-.59c0-.08-.01-.13-.07-.17-.1-.06-.15,0-.16.09,0,.03,0,.07,0,.11v.41l-.3-.17v-.59c0-.08-.01-.13-.07-.17-.09-.05-.14,0-.16.09,0,.03,0,.08,0,.12v.41l-.3-.17v-1l.29.17v.09s0,.06,0,.06h0s.12-.1.26-.02c.11.06.2.17.25.31h0c.05-.05.15-.08.29,0,.16.09.29.27.29.54,0,0,0,.65,0,.65Zm1.45.84l-.86-.49c0-.06-.01-.11-.01-.16,0-.51.53-.3.53-.5,0-.1-.07-.18-.13-.21-.12-.07-.18.04-.18.04l-.22-.3s.11-.23.44-.05c.2.12.42.38.42.67,0,.44-.5.23-.51.4l.52.3v.29Zm.57.35c-.27-.16-.42-.43-.42-.43l.15-.18s.11.19.25.27c.08.05.17.04.17-.07s-.09-.22-.2-.29c-.1-.06-.17-.05-.17-.05l-.16-.16.05-.7.69.4v.29l-.43-.25v.12s-.01.05-.01.05h0s.04.01.09.04c.29.17.44.46.44.71,0,.29-.19.39-.46.23Zm1.08.62c-.35-.2-.47-.59-.47-.99s.11-.65.47-.45.47.59.47.99-.11.66-.47.45Zm1.93,1.09l-.34-.19-.16-.79c-.02-.1-.02-.18-.02-.18h0s0,.07-.02.15l-.16.61-.34-.2-.3-1.57.32.18.16.96c.01.09.01.15.01.15h0s0-.06.02-.13l.19-.76.24.14.19.98c.02.1.02.16.02.16h0s0-.06.02-.13l.17-.77.31.18-.31,1.21Z"/><path class="cls-3" d="m69.96,52.88c-.1-.06-.16,0-.16.11,0,.12.05.27.17.34.08.05.16.05.16-.13,0-.18-.08-.27-.17-.32Z"/><path class="cls-3" d="m62.4,52.39l.49-.51s.08-.07.08-.07h0s-.03-.02-.08-.05l-.46-.27v-.19l.79.46v.14l-.49.51s-.08.07-.08.07h0s.03.02.08.05l.49.28v.19l-.83-.48v-.15h0Z"/><path class="cls-3" d="m63.41,51.88l.2.11v.2l-.2-.11v-.2Zm0,.35l.2.11v.89l-.2-.11v-.89Z"/><path class="cls-3" d="m64.12,53.71c.12.07.22.07.22-.09v-.05s0-.05,0-.05h0c-.05.05-.11.05-.22,0-.23-.13-.36-.41-.36-.66s.12-.37.35-.24c.17.1.23.25.23.25h0s0,0,0-.02v-.07l.18.11v.84c0,.31-.21.3-.42.18-.1-.06-.21-.15-.28-.24l.06-.13s.1.12.22.19Zm.23-.51c0-.2-.09-.31-.2-.37-.12-.07-.19-.01-.19.14s.07.31.2.39c.1.06.18.05.18-.15Z"/><path class="cls-3" d="m64.76,52.66l.2.11v.38s0,.07,0,.07h0s.07-.09.24,0c.21.12.35.39.35.67s-.15.38-.36.26c-.16-.09-.24-.27-.24-.27h0s0,.03,0,.06v.05l-.19-.11v-1.24Zm.39,1.3c.11.06.2.01.2-.16s-.08-.33-.2-.39c-.1-.06-.2-.03-.2.17,0,.14.06.31.2.39Z"/><path class="cls-3" d="m66.05,53.73c.23.13.35.39.35.62,0,.03,0,.08,0,.08l-.55-.32c.01.16.12.31.24.37.13.07.23.04.23.04l.08.2s-.12.06-.32-.06c-.26-.15-.42-.46-.42-.71,0-.27.16-.37.4-.23Zm.15.45c0-.12-.07-.23-.16-.28-.1-.06-.17-.03-.19.08l.35.2Z"/><path class="cls-3" d="m66.91,54.23c.23.13.35.39.35.62,0,.03,0,.08,0,.08l-.55-.32c.01.16.12.31.24.37.13.07.23.04.23.04l.08.2s-.12.06-.32-.06c-.26-.15-.42-.46-.42-.71,0-.27.16-.37.4-.24Zm.15.45c0-.12-.07-.23-.16-.28-.1-.06-.17-.03-.19.08l.35.2Z"/><path class="cls-3" d="m67.83,54.43l.36.21c.12.07.17.11.22.16.11.12.18.28.18.44,0,.15-.07.25-.19.23h0s.02.03.04.09l.23.59-.22-.13-.22-.59-.19-.11v.46l-.2-.12v-1.24h0Zm.38.8c.11.06.17.03.17-.1s-.05-.22-.2-.31l-.15-.09v.39l.18.1Z"/><path class="cls-3" d="m69.18,55.54c.24.14.44.45.44.72s-.19.36-.43.22-.44-.44-.44-.72.19-.36.43-.22Zm0,.75c.13.07.23.02.23-.14s-.11-.34-.23-.41-.24-.02-.24.14c0,.16.11.34.24.41Z"/><path class="cls-3" d="m69.81,56.11l-.1-.06v-.18l.11.06v-.26l.19.11v.26l.18.1v.18l-.18-.1v.35c0,.15.1.23.16.26.02.01.04.02.04.02v.19s-.02,0-.06-.03c-.11-.06-.33-.23-.33-.53v-.37h0Z"/><path class="cls-3" d="m70.77,56.8l.03.02h0c0-.13-.06-.21-.15-.26-.11-.06-.22-.04-.22-.04l-.07-.2s.12-.04.31.07c.21.12.33.32.33.54v.56l-.18-.1v-.07s0-.06,0-.06h0s-.06.12-.24.02c-.14-.08-.27-.25-.27-.43,0-.29.34-.11.47-.03Zm-.15.32c.1.06.18-.02.18-.13v-.02l-.03-.02c-.1-.06-.26-.14-.26-.01,0,.06.04.14.12.18Z"/><path class="cls-3" d="m71.19,56.72l.19.11v.15s0,.06,0,.06h0c.04-.1.13-.15.25-.08.02.01.04.02.04.02v.22s-.02-.01-.05-.03c-.08-.05-.18-.05-.21.06-.01.04-.02.08-.02.14v.35l-.2-.11v-.89h0Z"/><path class="cls-3" d="m71.79,58.1s.04.06.09.09c.05.03.11.02.14-.04l.03-.06-.33-1.07.22.13.17.61c.01.06.03.14.03.14h0s.01-.06.03-.1l.16-.43.21.12-.35.82c-.05.13-.17.13-.29.07-.1-.06-.16-.15-.16-.15l.07-.13Z"/><path class="cls-3" d="m73.05,57.44l.37.22c.34.2.56.55.56.94s-.22.49-.56.3l-.37-.22v-1.24Zm.36,1.25c.22.13.36.06.36-.22s-.15-.51-.36-.64l-.16-.09v.85s.16.09.16.09Z"/><path class="cls-3" d="m74.16,58.09l.2.11v.2l-.2-.11v-.2Zm0,.35l.2.11v.89l-.2-.11v-.89Z"/><path class="cls-3" d="m74.58,58.67l.19.11v.1s0,.06,0,.06h0c.04-.07.13-.11.26-.04s.2.18.23.32h0c.04-.07.15-.1.27-.03.16.09.26.25.26.49v.57l-.2-.11v-.53c0-.1-.02-.19-.11-.24-.1-.06-.17,0-.19.09,0,.03,0,.07,0,.11v.39l-.2-.11v-.53c0-.1-.01-.19-.11-.24-.1-.06-.17,0-.19.09,0,.03,0,.07,0,.11v.39l-.2-.11v-.89h0Z"/><path class="cls-3" d="m75.99,59.49l.19.11v.1s0,.06,0,.06h0c.04-.07.13-.11.26-.04s.2.18.23.32h0c.04-.07.15-.1.27-.03.16.09.26.25.26.49v.57l-.2-.11v-.53c0-.1-.02-.19-.11-.24-.1-.06-.17,0-.19.09,0,.03,0,.07,0,.11v.39l-.2-.11v-.53c0-.1-.01-.19-.11-.24-.1-.06-.17,0-.19.09,0,.03,0,.07,0,.11v.39l-.2-.11v-.89h0Z"/><path class="cls-3" d="m77.75,60.48c.23.13.35.39.35.62,0,.03,0,.08,0,.08l-.55-.32c.01.16.12.31.24.37.13.07.23.04.23.04l.08.2s-.12.06-.32-.06c-.26-.15-.42-.46-.42-.71,0-.27.16-.37.4-.24Zm.15.45c0-.12-.07-.23-.16-.28-.1-.06-.17-.03-.19.08l.35.2Z"/><path class="cls-3" d="m78.27,60.8l.19.11v.15s0,.06,0,.06h0c.04-.1.13-.15.25-.08.02.01.04.02.04.02v.22s-.02-.01-.05-.03c-.08-.05-.18-.05-.21.06-.01.04-.02.08-.02.14v.35l-.2-.11v-.89h0Z"/><path class="cls-3" d="m62.44,54.58c0-.43.56-.16.56-.5,0-.13-.09-.29-.23-.37-.16-.09-.24.03-.24.03l-.08-.11s.1-.17.33-.03c.21.12.33.34.33.54,0,.41-.55.15-.55.48l.57.33v.11l-.68-.39s0-.06,0-.08Z"/><path class="cls-3" d="m63.36,54.94s.11.21.28.31c.13.08.25.04.25-.12,0-.17-.13-.34-.27-.42l-.07-.04-.03-.09.27-.2s.06-.03.06-.03h0s-.03-.02-.09-.05l-.41-.24v-.11l.64.37v.08l-.33.23c.14.09.34.29.34.56,0,.21-.15.3-.36.18s-.35-.37-.35-.37l.07-.06Z"/><path class="cls-3" d="m64.2,55.06c0-.35.09-.58.38-.42s.37.5.37.85-.09.58-.37.42-.38-.5-.38-.85Zm.64.37c0-.29-.06-.55-.26-.67s-.26.08-.26.37.06.55.26.67.26-.08.26-.37Z"/><path class="cls-3" d="m65.08,54.95l.11.07.3,1.11c.02.07.04.18.04.18h0s.02-.08.04-.13l.3-.76.11.07-.41.99-.11-.06-.4-1.46Z"/><path class="cls-3" d="m66.67,56.71l-.44-.25-.12.32-.11-.06.4-1,.11.07.4,1.46-.11-.06-.13-.46Zm-.22-.84s-.02.09-.04.13l-.15.36.37.22-.14-.53c-.02-.07-.04-.18-.04-.18h0Z"/><path class="cls-3" d="m67.55,56.36c.26.15.39.38.39.38l-.06.06s-.13-.21-.33-.33c-.26-.15-.44-.03-.44.26s.18.64.44.79c.22.13.35.04.35.04l.06.12s-.15.11-.42-.05c-.32-.19-.55-.6-.55-.96,0-.36.24-.49.55-.31Z"/><path class="cls-3" d="m68.36,57.44c.17.1.18.28.31.36.09.05.11-.05.11-.11l.09.05c0,.19-.08.22-.2.16-.17-.1-.18-.28-.31-.36-.09-.05-.11.05-.11.11l-.09-.05c0-.19.08-.22.2-.16Z"/><path class="cls-3" d="m69.13,58.28s.08.19.25.28c.15.09.27.04.27-.13s-.12-.36-.28-.45c-.12-.07-.2-.05-.2-.05l-.07-.07.06-.56.53.3v.11l-.43-.25-.03.3s0,.06,0,.06h0s.07,0,.17.05c.22.13.37.39.37.62s-.17.31-.38.18-.32-.36-.32-.36l.07-.04Z"/><path class="cls-3" d="m69.96,58.38c0-.35.09-.58.38-.42s.37.5.37.85-.09.58-.37.42-.38-.5-.38-.85Zm.64.37c0-.29-.06-.55-.26-.67s-.26.08-.26.37.06.55.26.67.26-.08.26-.37Z"/><path class="cls-3" d="m70.97,58.35l.11.06v.56l.63.36v-.56l.11.06v1.23l-.11-.06v-.56l-.63-.36v.56l-.11-.06v-1.23Z"/><path class="cls-3" d="m72.04,60.12l.44-.36s.06-.04.06-.04h0s-.03-.02-.08-.05l-.4-.23v-.1l.62.36v.08l-.44.36s-.06.04-.06.04h0s.03.02.08.05l.44.25v.1l-.66-.38s0-.08,0-.08Z"/><path class="cls-3" d="m75.42,61.91s.08.19.25.28c.15.09.27.04.27-.13s-.12-.36-.28-.45c-.12-.07-.2-.05-.2-.05l-.07-.07.06-.56.53.3v.11l-.43-.25-.03.3s0,.06,0,.06h0s.07,0,.17.05c.22.13.37.39.37.62s-.17.31-.38.18-.32-.36-.32-.36l.07-.04Z"/><path class="cls-3" d="m76.85,61.92s-.02.1-.04.16l-.21.75-.13-.07-.28-1.39.11.06.21,1.07c.01.07.02.15.02.15h0s0-.06.02-.12l.23-.82.1.06.23,1.09c.01.07.02.15.02.15h0s0-.06.02-.11l.22-.83.11.06-.29,1.06-.13-.07-.21-.98c-.02-.09-.04-.2-.04-.2h0Z"/><path class="cls-3" d="m78.15,63.17l.44.25v.11l-.44-.25v-.11Z"/><path class="cls-3" d="m79.26,64.28c0-.43.56-.16.56-.5,0-.13-.09-.29-.23-.37-.16-.09-.24.03-.24.03l-.08-.11s.1-.17.33-.03c.21.12.33.34.33.54,0,.41-.55.15-.55.48l.57.33v.11l-.68-.39s0-.06,0-.08Z"/><path class="cls-3" d="m80.19,64.66s.08.19.25.28c.15.09.27.04.27-.13s-.12-.36-.28-.45c-.12-.07-.2-.05-.2-.05l-.07-.07.06-.56.53.3v.11l-.43-.25-.03.3s0,.06,0,.06h0s.07,0,.17.05c.22.13.37.39.37.62s-.17.31-.38.18-.32-.36-.32-.36l.07-.04Z"/><path class="cls-3" d="m81.02,64.76c0-.35.09-.58.38-.42s.37.5.37.85-.09.58-.37.42-.38-.5-.38-.85Zm.64.37c0-.29-.06-.55-.26-.67s-.26.08-.26.37.06.55.26.67.26-.08.26-.37Z"/><path class="cls-3" d="m82.59,65.23s-.02.1-.04.16l-.21.75-.13-.07-.28-1.39.11.06.21,1.07c.01.07.02.15.02.15h0s0-.06.02-.12l.23-.82.1.06.23,1.09c.01.07.02.15.02.15h0s0-.06.02-.12l.22-.83.11.06-.29,1.06-.13-.07-.21-.98c-.02-.09-.04-.2-.04-.2h0Z"/><path class="cls-3" d="m63.03,56.78l-.39-.22-.09.26-.21-.12.39-1.02.21.12.39,1.46-.21-.12-.09-.37Zm-.19-.82s-.02.11-.05.16l-.1.28.29.17-.1-.39c-.02-.08-.04-.22-.04-.22h0Z"/><path class="cls-3" d="m63.44,56.44l.19.11v.15s0,.06,0,.06h0c.04-.1.13-.15.25-.08.02.01.04.02.04.02v.22s-.02-.01-.05-.03c-.08-.05-.18-.05-.21.06-.01.04-.02.08-.02.14v.35l-.2-.11v-.89h0Z"/><path class="cls-3" d="m64.09,57l-.1-.06v-.18l.11.06v-.26l.19.11v.26l.18.1v.18l-.18-.1v.35c0,.15.1.23.16.26.02.01.04.02.04.02v.19s-.02,0-.06-.03c-.11-.06-.33-.23-.33-.53,0,0,0-.37,0-.37Z"/><path class="cls-3" d="m64.63,57.79l.2.11v.22l-.2-.11v-.22Z"/><path class="cls-3" d="m65.41,57.57l.19.11v.1s0,.06,0,.06h0c.03-.05.12-.11.28-.02.17.1.27.26.27.5v.57l-.2-.11v-.53c0-.11-.02-.2-.13-.26s-.18-.03-.21.06c-.01.03-.01.07-.01.11v.41l-.2-.11v-.89h0Z"/><path class="cls-3" d="m66.74,58.32c.24.14.44.45.44.72s-.19.36-.43.22-.44-.44-.44-.72.19-.36.43-.22Zm0,.75c.13.07.23.02.23-.14s-.11-.34-.23-.41-.24-.02-.24.14.11.34.24.41Z"/><path class="cls-3" d="m67.32,59.35l.2.11v.22l-.2-.11v-.22Z"/><path class="cls-3" d="m68.12,59.92l.25.14v-.9s0-.07,0-.07h0s-.01.02-.05.04l-.12.06-.07-.12.25-.14.1.06v1.12l.24.14v.11l-.59-.34s0-.11,0-.11Z"/><path class="cls-3" d="m68.78,59.99l.54-.5.12.07v.78l.16.09v.11l-.16-.09v.34l-.11-.06v-.34l-.55-.32v-.08Zm.55.29v-.51c0-.05,0-.11,0-.11h0s-.02.03-.05.06l-.36.32h0s.41.24.41.24h0Z"/><path class="cls-3" d="m70.13,60.77l.54-.5.12.07v.78l.16.09v.11l-.16-.09v.34l-.11-.06v-.34l-.55-.32v-.08Zm.55.29v-.51c0-.05,0-.11,0-.11h0s-.02.03-.05.06l-.36.32h0s.41.24.41.24h0Z"/><path class="cls-3" d="m71.05,61.3l.54-.5.12.07v.78l.16.09v.11l-.16-.09v.34l-.11-.06v-.34l-.55-.32v-.08Zm.55.29v-.51c0-.05,0-.11,0-.11h0s-.02.03-.05.06l-.36.32h0s.41.24.41.24h0Z"/><path class="cls-3" d="m71.98,61.84l.54-.5.12.07v.78l.16.09v.11l-.16-.09v.34l-.11-.06v-.34l-.55-.32v-.08Zm.54.29v-.51c0-.05,0-.11,0-.11h0s-.02.03-.05.06l-.36.32h0s.41.24.41.24h0Z"/><path class="cls-3" d="m73.36,62.97c0-.43.56-.16.56-.5,0-.13-.09-.29-.23-.37-.16-.09-.24.03-.24.03l-.08-.11s.1-.17.33-.03c.21.12.33.34.33.54,0,.41-.55.15-.55.48l.57.33v.11l-.68-.39s0-.05,0-.08Z"/><path class="cls-3" d="m74.25,62.95c0-.35.09-.58.38-.42s.37.5.37.85-.09.58-.37.42-.38-.5-.38-.85Zm.64.37c0-.29-.06-.55-.26-.67s-.26.08-.26.37.06.55.26.67.26-.08.26-.37Z"/><path class="cls-3" d="m75.69,63.85l.44.25v.11l-.44-.25v-.11Z"/><path class="cls-3" d="m76.8,64.93l.25.14v-.9s0-.07,0-.07h0s-.01.02-.05.04l-.12.06-.07-.12.25-.14.1.06v1.12l.24.14v.11l-.59-.34v-.11h0Z"/><path class="cls-3" d="m77.46,65l.54-.5.12.07v.78l.16.09v.11l-.16-.09v.34l-.11-.06v-.34l-.55-.32v-.08h0Zm.55.29v-.51c0-.05,0-.11,0-.11h0s-.02.03-.05.06l-.36.32h0s.41.24.41.24h0Z"/><path class="cls-3" d="m78.8,65.77l.54-.5.12.07v.78l.16.09v.11l-.16-.09v.34l-.11-.06v-.34l-.55-.32v-.08h0Zm.55.29v-.51c0-.05,0-.11,0-.11h0s-.02.03-.05.06l-.36.32h0s.41.24.41.24h0Z"/><path class="cls-3" d="m79.73,66.3l.54-.5.12.07v.78l.16.09v.11l-.16-.09v.34l-.11-.06v-.34l-.55-.32v-.08h0Zm.55.29v-.51c0-.05,0-.11,0-.11h0s-.02.03-.05.06l-.36.32h0s.41.24.41.24h0Z"/><path class="cls-3" d="m80.65,66.84l.54-.5.12.07v.78l.16.09v.11l-.16-.09v.34l-.11-.06v-.34l-.55-.32v-.08h0Zm.55.29v-.51c0-.05,0-.11,0-.11h0s-.02.03-.05.06l-.36.32h0s.41.24.41.24h0Z"/><path class="cls-3" d="m82.04,67.98c0-.43.56-.16.56-.5,0-.13-.09-.29-.23-.37-.16-.09-.24.03-.24.03l-.08-.11s.1-.17.33-.03c.21.12.33.34.33.54,0,.41-.55.15-.55.48l.57.33v.11l-.68-.39s0-.05,0-.08Z"/><path class="cls-3" d="m82.92,68.01c0-.31.14-.61.48-.42.12.07.2.17.2.17l-.04.08s-.07-.08-.16-.13c-.23-.13-.34.05-.36.28h0c.05-.06.16-.05.28.02.2.11.34.36.34.59,0,.26-.15.32-.34.21-.24-.14-.39-.48-.39-.81Zm.63.53c0-.17-.1-.35-.25-.43s-.26-.04-.26.06c0,.16.11.44.28.54.15.08.23,0,.23-.16Z"/><path class="cls-3" d="m62.44,57.6l.27.15v.39s0,.08,0,.08h0c.05-.06.14-.06.24,0,.16.09.29.25.29.5v.58l-.27-.15v-.53c0-.08-.03-.13-.09-.17-.08-.05-.14-.02-.16.04-.01.03-.01.06-.01.11v.4l-.27-.15s0-1.25,0-1.25Z"/><path class="cls-3" d="m63.79,58.71c.24.14.37.4.37.65,0,.03,0,.09,0,.09l-.5-.29c.02.12.1.22.19.27.11.07.22.04.22.04l.1.27s-.13.06-.34-.07c-.29-.17-.44-.48-.44-.72,0-.27.16-.38.41-.23Zm.1.41c0-.07-.04-.15-.1-.19-.08-.05-.11,0-.13.05l.23.13Z"/><path class="cls-3" d="m64.71,59.6h.01s0,0,0,0c0-.08-.05-.13-.12-.17-.1-.06-.21-.04-.21-.04l-.09-.27s.14-.04.33.07c.22.13.36.34.36.58v.55l-.25-.14v-.05s0-.06,0-.06h0s-.06.1-.23,0c-.15-.09-.27-.27-.27-.45,0-.26.34-.1.46-.03Zm-.12.28c.07.04.13-.01.13-.08v-.02h-.02c-.09-.06-.18-.09-.18-.02,0,.04.02.09.08.12Z"/><path class="cls-3" d="m65.21,59.8l-.1-.06v-.24l.11.06v-.26l.26.15v.26l.17.1v.24l-.17-.1v.28c0,.1.09.17.14.2.02.01.04.02.04.02v.26s-.03-.01-.07-.04c-.13-.07-.37-.25-.37-.56v-.31h0Z"/><path class="cls-3" d="m65.81,59.9l.27.15v.9l-.27-.15v-.9Zm0-.35l.26.15v.24l-.26-.15v-.24Z"/><path class="cls-3" d="m66.32,60.44l-.1-.06v-.24l.11.06v-.26l.26.15v.26l.17.1v.24l-.17-.1v.28c0,.1.09.17.14.2.02.01.04.02.04.02v.26s-.03-.01-.07-.04c-.13-.07-.37-.25-.37-.56v-.31h0Z"/><path class="cls-3" d="m66.92,61.14l.26.15v.29l-.26-.15v-.29Z"/><path class="cls-3" d="m67.74,60.99c.22.13.32.32.32.32l-.11.14s-.08-.13-.19-.19c-.13-.07-.19,0-.19.1s.06.26.2.34c.11.06.22.02.22.02l.1.27s-.12.08-.34-.05c-.29-.17-.45-.48-.45-.73,0-.24.16-.38.45-.22Z"/><path class="cls-3" d="m68.61,61.48c.25.15.45.45.45.73s-.2.35-.45.21-.45-.45-.45-.73c0-.28.2-.36.45-.21Zm0,.69c.1.06.18.02.18-.11s-.08-.27-.18-.33-.18-.02-.18.12.08.27.18.32Z"/><path class="cls-3" d="m69.2,61.85l.26.15v.08s0,.06,0,.06h0s.11-.09.24-.02c.1.06.18.16.22.28h0s.14-.07.26,0c.15.08.26.24.26.49v.58l-.27-.15v-.53c0-.07,0-.12-.06-.15-.09-.05-.13,0-.15.08,0,.03,0,.06,0,.1v.37l-.27-.15v-.53c0-.07-.01-.12-.06-.15-.08-.05-.13,0-.15.08,0,.03,0,.07,0,.11v.37l-.27-.15v-.9h0Z"/><path class="cls-3" d="m74.46,61.49s-.14.1-.36-.03-.37-.39-.37-.61c0-.27.21-.24.35-.17l-.34-.63v-.08l.66.38v.11l-.42-.24c-.06-.03-.09-.06-.09-.06h0s.03.05.06.11l.28.54-.03.06-.08-.04c-.15-.09-.28-.07-.28.11,0,.16.12.35.26.43.17.1.29.02.29.02l.06.13Z"/><path class="cls-3" d="m81.56,70.08q-.19-.11-.19.11s-.02-.03-.03-.04c-.25-.51-.75-.69-.93-.42-.11.17-.13.41-.07.7.09.44.39.82.73.93.12.04.21.01.3-.03.02.32-.09.46-.29.41-.12-.03-.24-.14-.35-.27-.07-.08-.12-.24-.2-.25-.07,0-.12.07-.18.1-.05.02-.04.07,0,.13.2.32.44.55.71.68.33.16.54.08.64-.23.04-.12.05-.25.05-.4v-1.1q0-.21-.18-.32m-.27.91c-.11.11-.33.01-.47-.22-.15-.25-.16-.58-.02-.67.06-.04.14-.03.22.01.21.12.36.41.34.65,0,.09-.02.17-.08.22"/><path class="cls-3" d="m75.95,68.5c-.16-.11-.3-.26-.36-.49-.02-.09-.02-.14.03-.17.21-.12.42-.25.63-.38.18-.11.37-.22.56-.34-.47-.32-.91-.53-1.36-.72-.04-.02-.06,0-.08.02-.1.12-.16.28-.18.48-.05.54.11,1.1.52,1.66.41.56.84.83,1.29.84.14,0,.25-.04.36-.13-.11-.05-.2-.09-.29-.13-.37-.17-.74-.37-1.12-.63"/><path class="cls-3" d="m76,66.21c-.17-.03-.33,0-.47.08.2.1.38.18.56.27.28.14.57.3.85.52.14.11.26.25.31.45.02.09.02.14-.03.17-.21.12-.42.25-.63.38-.18.11-.37.22-.55.33.04.05.08.07.11.09.42.26.83.47,1.24.65.05.02.09.02.11-.02.25-.37.2-1.05-.14-1.7-.33-.64-.88-1.12-1.37-1.2"/><path class="cls-3" d="m82.84,70.81c-.19-.15-.36-.2-.51-.12,0-.21,0-.4,0-.59,0-.07-.02-.11-.08-.14-.08-.04-.15-.08-.23-.13-.07-.04-.08-.02-.08.05,0,.58,0,1.16,0,1.74,0,.08-.02.17.01.23.04.08.13.09.2.13.16.09.16.09.17-.08.25.45.6.6.82.45.11-.08.17-.22.19-.4.03-.39-.18-.88-.5-1.14m.13.95c-.04.2-.18.25-.35.14-.18-.13-.3-.37-.3-.62,0-.3.2-.38.42-.17.17.15.27.44.23.65"/><path class="cls-3" d="m84.37,71.71c-.29-.26-.56-.34-.76-.18-.18.14-.21.42-.1.77.19.62.76,1.08,1.16.95.06-.02.07-.06,0-.15-.04-.06-.07-.12-.1-.19-.04-.08-.06-.09-.11-.07-.18.07-.39-.06-.54-.32.29.06.57.12.85.18.08.02.09-.02.08-.11-.06-.34-.21-.64-.48-.88m-.54.45c-.03-.17.06-.29.21-.27.17.02.34.17.44.4-.22-.04-.43-.09-.65-.13"/><path class="cls-3" d="m86.34,73.39c-.11-.55-.51-.95-.87-1.05-.38-.1-.6.23-.48.74.14.6.69,1.12,1.11,1.06q.16-.02.03-.25c-.03-.06-.06-.13-.1-.17-.05-.04-.07.02-.11.02-.05,0-.1,0-.16-.02-.13-.05-.24-.14-.32-.31,0-.02.03,0,.04,0,.25.05.5.11.75.16q.15.03.1-.17m-.41-.23c-.2-.05-.4-.08-.6-.13,0-.19.07-.28.21-.27.15.01.3.14.4.32.03.06.04.09-.02.07"/><path class="cls-3" d="m79.56,70.12c-.19-.1-.37-.21-.56-.32-.02-.01-.05-.01-.06-.05.2-.14.4-.29.6-.43.02-.02.05-.03.05-.07,0-.08,0-.16,0-.24,0-.04-.01-.06-.05-.08l-1-.58s-.05-.02-.05.03c0,.08,0,.16,0,.23,0,.06.02.09.07.12.16.09.33.19.52.3-.17.13-.32.25-.49.35-.12.07-.17.19-.15.39,0,.07.02.09.07.12.29.16.57.33.86.49.08.05.19.15.23.12.04-.04,0-.18.01-.27,0-.05-.02-.07-.06-.09"/><path class="cls-3" d="m80.11,69.24c-.09-.05-.17-.1-.26-.15-.05-.03-.07-.02-.07.04,0,.24,0,.47,0,.71s0,.46,0,.69c0,.07.02.09.07.12.09.04.17.1.26.15.04.02.05.01.05-.03,0-.48,0-.95,0-1.43,0-.05-.02-.08-.06-.1"/></g><g id="Outer_cuts"><path class="cls-4" d="m93.97,107.9l-2.83,1.56-2.66-1.54v-1.35"/><line class="cls-4" x1="58.94" y1="81.05" x2="58.08" y2="81.52"/><line class="cls-4" x1="86.07" y1="66.11" x2="85.21" y2="66.58"/><line class="cls-4" x1="86.3" y1="68.43" x2="87.16" y2="67.96"/><line class="cls-4" x1="59.17" y1="83.38" x2="60.02" y2="82.9"/><line class="cls-4" x1="77.74" y1="92.25" x2="77.74" y2="88.77"/><line class="cls-4" x1="92.74" y1="71.95" x2="93.97" y2="72.66"/><line class="cls-4" x1="46.63" y1="45.35" x2="47.86" y2="46.06"/><polyline class="cls-4" points="80.77 102.13 80.77 103.48 59.82 91.4 59.82 90.04"/><line class="cls-4" x1="80.57" y1="58.68" x2="86.3" y2="68.43"/><line class="cls-4" x1="47.86" y1="37.36" x2="46.63" y2="36.65"/><line class="cls-4" x1="93.97" y1="63.96" x2="92.74" y2="63.25"/><line class="cls-4" x1="86.3" y1="91.61" x2="80.57" y2="94.76"/><polyline class="cls-4" points="88.47 56.01 88.47 54.63 91.13 56.16 93.97 60.99 93.97 63.96"/><line class="cls-4" x1="82.58" y1="61.9" x2="84.49" y2="65.16"/><line class="cls-4" x1="85.01" y1="64.95" x2="83.03" y2="61.58"/><line class="cls-4" x1="87.16" y1="67.96" x2="81.43" y2="58.21"/><line class="cls-4" x1="84.49" y1="92.83" x2="82.58" y2="93.88"/><line class="cls-4" x1="85.01" y1="93.64" x2="83.03" y2="94.7"/><line class="cls-4" x1="81.43" y1="96.22" x2="87.16" y2="93.08"/><line class="cls-4" x1="80.77" y1="51.57" x2="88.47" y2="56.01"/><line class="cls-4" x1="52.12" y1="35.04" x2="59.82" y2="39.49"/><line class="cls-4" x1="92.74" y1="95.55" x2="92.74" y2="104.23"/><line class="cls-4" x1="92.74" y1="63.25" x2="92.74" y2="71.95"/><line class="cls-4" x1="93.97" y1="104.94" x2="93.97" y2="107.9"/><polyline class="cls-4" points="93.97 96.26 93.97 72.66 93.97 96.26"/><line class="cls-4" x1="57.56" y1="46.89" x2="58.02" y2="47.73"/><line class="cls-4" x1="84.41" y1="92.68" x2="84.49" y2="92.83"/><line class="cls-4" x1="58.02" y1="47.73" x2="58.11" y2="47.88"/><line class="cls-4" x1="84.44" y1="92.67" x2="85.01" y2="93.64"/><line class="cls-4" x1="57.56" y1="46.89" x2="58.14" y2="47.86"/><line class="cls-4" x1="84.87" y1="92.43" x2="85.72" y2="93.89"/><line class="cls-4" x1="57.71" y1="46.16" x2="58.56" y2="47.63"/><line class="cls-4" x1="84.49" y1="92.83" x2="84.98" y2="93.63"/><line class="cls-4" x1="84.98" y1="64.9" x2="84.49" y2="65.16"/><line class="cls-4" x1="58.11" y1="79.64" x2="58.02" y2="79.72"/><line class="cls-4" x1="84.49" y1="65.16" x2="84.41" y2="65.21"/><line class="cls-4" x1="58.14" y1="79.69" x2="57.56" y2="80"/><line class="cls-4" x1="85.01" y1="64.95" x2="84.44" y2="65.26"/><line class="cls-4" x1="58.56" y1="80.42" x2="57.71" y2="80.89"/><line class="cls-4" x1="85.72" y1="65.49" x2="84.87" y2="65.99"/><line class="cls-4" x1="58.02" y1="79.72" x2="57.56" y2="80"/><line class="cls-4" x1="85.21" y1="92.21" x2="86.07" y2="93.67"/><line class="cls-4" x1="58.08" y1="45.99" x2="58.94" y2="47.45"/><line class="cls-4" x1="60.02" y1="46.82" x2="59.17" y2="45.36"/><line class="cls-4" x1="87.16" y1="93.08" x2="86.3" y2="91.61"/><line class="cls-4" x1="62.86" y1="80.19" x2="62.86" y2="83.67"/><line class="cls-4" x1="80.57" y1="94.76" x2="81.43" y2="96.22"/><line class="cls-4" x1="53.44" y1="48.51" x2="54.3" y2="49.97"/><line class="cls-4" x1="54.3" y1="73.15" x2="53.44" y2="73.62"/><line class="cls-4" x1="81.43" y1="58.21" x2="80.57" y2="58.68"/><line class="cls-4" x1="83.06" y1="94.71" x2="82.58" y2="93.88"/><line class="cls-4" x1="55.39" y1="49.37" x2="54.53" y2="47.91"/><line class="cls-4" x1="82.55" y1="95.64" x2="81.69" y2="94.18"/><line class="cls-4" x1="55.76" y1="49.2" x2="54.9" y2="47.71"/><line class="cls-4" x1="82.89" y1="95.42" x2="82.03" y2="93.96"/><line class="cls-4" x1="83.03" y1="94.7" x2="82.46" y2="93.72"/><line class="cls-4" x1="82.58" y1="93.88" x2="82.49" y2="93.7"/><line class="cls-4" x1="56.19" y1="48.93" x2="55.62" y2="47.96"/><line class="cls-4" x1="55.62" y1="76.68" x2="56.1" y2="76.45"/><line class="cls-4" x1="81.69" y1="60.58" x2="82.55" y2="60.11"/><line class="cls-4" x1="54.53" y1="75.48" x2="55.39" y2="75.01"/><line class="cls-4" x1="82.03" y1="61.17" x2="82.89" y2="60.69"/><line class="cls-4" x1="54.9" y1="76.11" x2="55.76" y2="75.64"/><line class="cls-4" x1="82.46" y1="61.9" x2="83.03" y2="61.58"/><line class="cls-4" x1="55.62" y1="76.68" x2="56.19" y2="76.37"/><line class="cls-4" x1="82.49" y1="61.95" x2="82.58" y2="61.9"/><line class="cls-4" x1="56.1" y1="76.45" x2="56.19" y2="76.4"/><line class="cls-4" x1="82.58" y1="61.9" x2="83.06" y2="61.6"/><polyline class="cls-4" points="46.63 33.68 49.49 32.14 52.12 33.66 52.12 35.04"/><line class="cls-4" x1="59.82" y1="90.04" x2="52.12" y2="85.6"/><line class="cls-4" x1="88.47" y1="106.57" x2="80.77" y2="102.13"/><line class="cls-4" x1="46.63" y1="36.65" x2="46.63" y2="33.68"/><line class="cls-4" x1="46.63" y1="68.95" x2="46.63" y2="45.35"/><line class="cls-4" x1="46.63" y1="80.59" x2="46.63" y2="77.63"/><line class="cls-4" x1="47.86" y1="46.06" x2="47.86" y2="37.36"/><line class="cls-4" x1="47.86" y1="78.34" x2="47.86" y2="69.66"/><line class="cls-4" x1="53.44" y1="73.62" x2="59.17" y2="83.38"/><line class="cls-4" x1="57.56" y1="80" x2="55.62" y2="76.68"/><line class="cls-4" x1="59.17" y1="45.36" x2="53.44" y2="48.51"/><line class="cls-4" x1="55.62" y1="47.96" x2="57.56" y2="46.89"/><line class="cls-4" x1="58.02" y1="79.72" x2="56.1" y2="76.45"/><line class="cls-4" x1="60.02" y1="82.9" x2="54.3" y2="73.15"/><line class="cls-4" x1="92.74" y1="104.23" x2="93.97" y2="104.94"/><line class="cls-4" x1="46.63" y1="77.63" x2="47.86" y2="78.34"/><line class="cls-4" x1="56.1" y1="48.75" x2="58.02" y2="47.73"/><line class="cls-4" x1="54.3" y1="49.97" x2="60.02" y2="46.82"/><polyline class="cls-4" points="52.12 85.6 52.12 86.96 49.49 85.44 46.63 80.59"/><line class="cls-4" x1="63.6" y1="84.94" x2="77" y2="92.66"/><line class="cls-4" x1="77" y1="87.5" x2="63.6" y2="79.78"/><line class="cls-4" x1="47.86" y1="69.66" x2="46.63" y2="68.95"/><line class="cls-4" x1="93.97" y1="96.26" x2="92.74" y2="95.55"/><polyline class="cls-4" points="59.82 39.49 59.82 38.1 80.77 50.19 80.77 51.57"/><polyline class="cls-4" points="72.36 50.84 72.67 51.41 73.05 51.95 73.48 52.36 73.93 52.72 74.39 52.95 74.85 53.06 75.22 53.01 75.56 52.86 75.82 52.58 75.99 52.2 76.05 51.72 75.99 51.17 75.85 50.6 75.62 50.02 75.31 49.45 74.91 48.96 74.48 48.52 74.02 48.19 73.56 47.99 73.13 47.91 72.76 47.98"/><polygon class="cls-4" points="89.56 58.67 89.62 59.12 89.76 59.56 89.96 60 90.25 60.39 90.56 60.73 90.93 61.01 91.28 61.15 91.59 61.17 91.88 61.11 92.08 60.9 92.22 60.63 92.28 60.24 92.22 59.82 92.08 59.38 91.88 58.95 91.59 58.52 91.28 58.21 90.93 57.95 90.56 57.8 90.25 57.75 89.96 57.84 89.76 58.05 89.62 58.32 89.56 58.67"/><polyline class="cls-4" points="91.39 78.49 91.28 78.04 91.05 77.59 90.73 77.15 90.39 76.85 90.02 76.64 89.67 76.57 89.36 76.65 89.16 76.88 89.04 77.21 89.07 77.64"/><polyline class="cls-4" points="72.27 47.86 72.53 47.98 72.76 47.98"/><polyline class="cls-4" points="72.36 50.84 72.16 50.54 71.87 50.27"/><polyline class="cls-4" points="89.04 83.94 88.7 84.1 88.44 84.37 88.27 84.76 88.21 85.24 88.24 85.77 88.39 86.34 88.62 86.92 88.93 87.49 89.3 87.99 89.73 88.4 90.19 88.73 90.65 88.96 91.08 89.05 91.48 89.02 91.82 88.83 92.05 88.55 92.22 88.16 92.28 87.68 92.22 87.13 92.08 86.56 91.82 85.96"/><polygon class="cls-4" points="74.02 88.37 74.08 88.82 74.22 89.29 74.45 89.74 74.73 90.17 75.08 90.52 75.45 90.8 75.82 90.95 76.17 90.99 76.45 90.9 76.68 90.71 76.82 90.4 76.88 90.02 76.82 89.56 76.68 89.1 76.45 88.64 76.17 88.22 75.82 87.86 75.45 87.58 75.08 87.43 74.73 87.39 74.45 87.49 74.22 87.68 74.08 87.98 74.02 88.37"/><polygon class="cls-4" points="70.58 86.38 70.64 86.84 70.79 87.31 71.01 87.76 71.3 88.18 71.64 88.54 72.02 88.82 72.39 88.97 72.73 89.01 73.02 88.92 73.25 88.73 73.39 88.42 73.45 88.04 73.39 87.58 73.25 87.11 73.02 86.66 72.73 86.24 72.39 85.88 72.02 85.6 71.64 85.45 71.3 85.41 71.01 85.5 70.79 85.69 70.64 86 70.58 86.38"/><polygon class="cls-4" points="89.56 105.13 89.62 105.55 89.76 106.02 89.96 106.43 90.25 106.85 90.56 107.2 90.93 107.44 91.28 107.61 91.59 107.63 91.88 107.54 92.08 107.36 92.22 107.06 92.28 106.7 92.22 106.28 92.08 105.81 91.88 105.41 91.59 104.98 91.28 104.64 90.93 104.41 90.56 104.23 90.25 104.21 89.96 104.3 89.76 104.48 89.62 104.78 89.56 105.13"/><polygon class="cls-4" points="74.16 88.45 74.22 88.87 74.33 89.26 74.53 89.69 74.82 90.09 75.11 90.38 75.45 90.64 75.79 90.78 76.11 90.83 76.37 90.75 76.57 90.54 76.68 90.29 76.74 89.93 76.68 89.51 76.57 89.13 76.37 88.69 76.11 88.31 75.79 88 75.45 87.74 75.11 87.61 74.82 87.57 74.53 87.63 74.33 87.84 74.22 88.09 74.16 88.45"/><polygon class="cls-4" points="70.73 86.47 70.79 86.89 70.9 87.28 71.1 87.71 71.39 88.1 71.67 88.4 72.02 88.66 72.36 88.79 72.67 88.85 72.93 88.77 73.13 88.56 73.25 88.31 73.3 87.95 73.25 87.53 73.13 87.14 72.93 86.71 72.67 86.33 72.36 86.02 72.02 85.76 71.67 85.63 71.39 85.59 71.1 85.65 70.9 85.86 70.79 86.11 70.73 86.47"/><polyline class="cls-4" points="74.28 96.87 74.62 96.9 74.91 96.81 75.14 96.62 75.22 96.25 75.22 95.83 75.08 95.36 74.88 94.92 74.56 94.52 74.19 94.17 73.85 93.97"/><polyline class="cls-4" points="77 92.66 77.28 92.76 77.54 92.75 77.68 92.54 77.74 92.25"/><polyline class="cls-4" points="77.74 88.77 77.68 88.42 77.54 88.04 77.28 87.73 77 87.5"/><polyline class="cls-4" points="91.68 85.33 91.71 85.64 91.82 85.96"/><polyline class="cls-4" points="89.04 83.94 89.24 83.83 89.33 83.56"/><polyline class="cls-4" points="66.32 44.75 65.98 44.68 65.69 44.77 65.49 45.01 65.38 45.33 65.38 45.75 65.52 46.22 65.75 46.68 66.03 47.1 66.41 47.41 66.78 47.63"/><polygon class="cls-4" points="48.32 34.88 48.38 35.33 48.52 35.77 48.72 36.21 49.01 36.6 49.32 36.94 49.69 37.22 50.04 37.35 50.35 37.37 50.64 37.31 50.87 37.12 50.98 36.83 51.04 36.45 50.98 36.03 50.87 35.61 50.64 35.15 50.35 34.73 50.04 34.42 49.69 34.16 49.32 34.01 49.01 33.95 48.72 34.05 48.52 34.25 48.38 34.53 48.32 34.88"/><polyline class="cls-4" points="51.55 57.64 51.9 57.51 52.15 57.21 52.33 56.83 52.38 56.38 52.35 55.84 52.21 55.25 51.98 54.66 51.67 54.13 51.29 53.62 50.87 53.18 50.41 52.85 49.95 52.62 49.52 52.53 49.12 52.59 48.81 52.76 48.55 53.04 48.4 53.44 48.35 53.92 48.38 54.45 48.55 55.07 48.78 55.62"/><polyline class="cls-4" points="48.92 56.25 48.89 55.94 48.78 55.62"/><polyline class="cls-4" points="51.55 57.64 51.35 57.78 51.27 58.05"/><polyline class="cls-4" points="48.92 56.25 48.83 57.88 48.86 59.57 48.98 61.31 49.21 63.09"/><polyline class="cls-4" points="72.27 47.86 70.79 46.91 69.3 46.08 67.81 45.35 66.32 44.75"/><polyline class="cls-4" points="91.68 85.33 91.76 83.71 91.73 82.01 91.62 80.27 91.39 78.49"/><polyline class="cls-4" points="68.32 93.72 69.81 94.68 71.3 95.54 72.79 96.23 74.28 96.87"/><polyline class="cls-4" points="51.27 58.05 51.21 59.44 51.24 60.91 51.35 62.42 51.52 63.94"/><polyline class="cls-4" points="71.87 50.27 70.58 49.47 69.33 48.74 68.04 48.13 66.78 47.63"/><polyline class="cls-4" points="89.33 83.56 89.39 82.14 89.36 80.68 89.27 79.21 89.07 77.64"/><polyline class="cls-4" points="68.72 91.34 70.01 92.15 71.3 92.86 72.56 93.46 73.85 93.97"/><polygon class="cls-4" points="67.52 66.88 67.52 71.49 67.92 72.24 68.38 72.89 68.87 73.5 69.44 74.05 70.01 74.51 70.58 74.84 71.16 75.04 71.73 75.15 72.24 75.12 72.67 74.98 73.07 74.7 73.07 70.09 72.67 69.37 72.24 68.71 71.73 68.09 71.16 67.53 70.58 67.1 70.01 66.77 69.44 66.54 68.87 66.44 68.38 66.48 67.92 66.63 67.52 66.88"/><polygon class="cls-4" points="68.95 70.03 68.98 70.43 69.13 70.87 69.35 71.33 69.61 71.73 69.96 72.06 70.3 72.32 70.64 72.46 70.99 72.53 71.27 72.43 71.47 72.23 71.62 71.95 71.64 71.58 71.62 71.15 71.47 70.71 71.27 70.27 70.99 69.88 70.64 69.52 70.3 69.26 69.96 69.13 69.61 69.09 69.35 69.17 69.13 69.36 68.98 69.63 68.95 70.03"/><polyline class="cls-4" points="68.24 90.74 67.92 90.17 67.55 89.66 67.12 89.22 66.66 88.86 66.21 88.66 65.78 88.54 65.38 88.57 65.03 88.73 64.77 89.03 64.63 89.43 64.55 89.9 64.6 90.45 64.75 91.01 64.98 91.6 65.29 92.13 65.69 92.65 66.12 93.06 66.58 93.39 67.04 93.59 67.47 93.68 67.87 93.65"/><polygon class="cls-4" points="67.15 84.4 67.21 84.86 67.35 85.32 67.58 85.78 67.87 86.2 68.21 86.56 68.58 86.84 68.95 86.99 69.3 87.03 69.58 86.94 69.81 86.74 69.96 86.44 70.01 86.05 69.96 85.6 69.81 85.13 69.58 84.68 69.3 84.26 68.95 83.9 68.58 83.62 68.21 83.47 67.87 83.43 67.58 83.52 67.35 83.71 67.21 84.02 67.15 84.4"/><polygon class="cls-4" points="63.72 82.42 63.77 82.87 63.92 83.34 64.15 83.8 64.43 84.22 64.77 84.58 65.15 84.86 65.52 85.01 65.86 85.05 66.15 84.95 66.38 84.76 66.52 84.46 66.58 84.07 66.52 83.62 66.38 83.15 66.15 82.7 65.86 82.27 65.52 81.91 65.15 81.64 64.77 81.49 64.43 81.45 64.15 81.54 63.92 81.73 63.77 82.04 63.72 82.42"/><polygon class="cls-4" points="67.29 84.49 67.35 84.91 67.47 85.29 67.67 85.73 67.95 86.12 68.24 86.42 68.58 86.68 68.92 86.81 69.24 86.87 69.5 86.79 69.7 86.58 69.81 86.33 69.87 85.97 69.81 85.55 69.7 85.16 69.5 84.73 69.24 84.35 68.92 84.04 68.58 83.78 68.24 83.64 67.95 83.61 67.67 83.67 67.47 83.88 67.35 84.13 67.29 84.49"/><polygon class="cls-4" points="63.86 82.5 63.92 82.92 64.03 83.31 64.23 83.75 64.52 84.14 64.8 84.44 65.15 84.7 65.49 84.83 65.81 84.88 66.06 84.81 66.26 84.6 66.38 84.34 66.43 83.99 66.38 83.57 66.26 83.18 66.06 82.74 65.81 82.37 65.49 82.06 65.15 81.8 64.8 81.66 64.52 81.63 64.23 81.69 64.03 81.89 63.92 82.15 63.86 82.5"/><polyline class="cls-4" points="63.6 79.78 63.32 79.68 63.06 79.69 62.91 79.9 62.86 80.19"/><polyline class="cls-4" points="62.86 83.67 62.91 84.02 63.06 84.4 63.32 84.71 63.6 84.94"/><polyline class="cls-4" points="68.32 93.72 68.07 93.6 67.87 93.65"/><polyline class="cls-4" points="68.24 90.74 68.44 91.08 68.72 91.34"/><polyline class="cls-4" points="49.21 63.09 49.32 63.57 49.55 64.03 49.86 64.43 50.21 64.76 50.58 64.94 50.95 65.03 51.24 64.94 51.44 64.7 51.55 64.38 51.52 63.94"/><polygon class="cls-4" points="48.32 81.34 48.38 81.76 48.52 82.23 48.72 82.64 49.01 83.06 49.32 83.4 49.69 83.65 50.04 83.82 50.35 83.84 50.64 83.74 50.87 83.58 50.98 83.26 51.04 82.91 50.98 82.49 50.87 82.04 50.64 81.61 50.35 81.19 50.04 80.85 49.69 80.62 49.32 80.44 49.01 80.42 48.72 80.51 48.52 80.68 48.38 80.99 48.32 81.34"/><line class="cls-4" x1="64.37" y1="76.5" x2="64.35" y2="76.48"/><polyline class="cls-4" points="64.43 76.6 64.8 76.81 66.98 78.07 67.38 78.3"/><polyline class="cls-4" points="64.43 77.37 64.8 77.58 66.98 78.84 67.38 79.07"/><line class="cls-4" x1="64.35" y1="77.38" x2="64.37" y2="77.4"/><polygon class="cls-4" points="65.89 79.66 66.32 79.85 66.72 79.88 67.06 79.79 67.32 79.55 67.47 79.22 67.52 78.77 67.47 78.25 67.32 77.75 67.06 77.21 66.72 76.72 66.32 76.3 65.89 75.99 65.49 75.82 65.09 75.78 64.75 75.87 64.49 76.11 64.35 76.45 64.29 76.9 64.35 77.42 64.49 77.92 64.75 78.45 65.09 78.94 65.49 79.37 65.89 79.66"/><polyline class="cls-4" points="64.35 77.38 64.52 77.93 64.75 78.42 65.09 78.91 65.49 79.33 65.89 79.63 66.32 79.81 66.69 79.87 67.04 79.77 67.29 79.54 67.47 79.18 67.52 78.77 67.47 78.25 67.29 77.73 67.04 77.2 66.69 76.71 66.32 76.33 65.89 76.02 65.49 75.85 65.09 75.78 64.75 75.87 64.52 76.13 64.35 76.48"/><polyline class="cls-4" points="64.37 76.5 64.35 76.93 64.37 77.4"/><polyline class="cls-4" points="67.38 79.07 67.41 78.7 67.38 78.3"/><polyline class="cls-4" points="64.43 76.6 64.37 76.95 64.43 77.37"/><polyline class="cls-4" points="67.38 78.3 67.24 77.79 67.01 77.28 66.69 76.84 66.29 76.41 65.89 76.12 65.49 75.95 65.12 75.93 64.8 76 64.57 76.26 64.43 76.6"/><polyline class="cls-4" points="64.43 77.37 64.57 77.87 64.8 78.36 65.12 78.83 65.49 79.24 65.89 79.53 66.29 79.7 66.69 79.74 67.01 79.63 67.24 79.41 67.38 79.07"/><polyline class="cls-4" points="66.98 78.07 66.84 77.63 66.58 77.19 66.26 76.81 65.89 76.53 65.55 76.4 65.23 76.41 64.98 76.55 64.8 76.81"/><polyline class="cls-4" points="64.8 77.58 64.98 78.04 65.23 78.48 65.55 78.85 65.89 79.11 66.26 79.26 66.58 79.25 66.84 79.11 66.98 78.84"/><polygon class="cls-4" points="70.51 81.49 70.77 81.59 71.03 81.6 71.22 81.5 71.36 81.29 71.41 80.99 71.36 80.67 71.22 80.3 71.03 79.97 70.77 79.69 70.51 79.48 70.22 79.37 69.98 79.37 69.77 79.46 69.65 79.69 69.61 79.95 69.65 80.3 69.77 80.66 69.98 81 70.22 81.27 70.51 81.49"/><polygon class="cls-4" points="75.06 84.16 75.35 84.26 75.63 84.27 75.83 84.16 75.98 83.95 76.01 83.64 75.98 83.27 75.83 82.9 75.63 82.56 75.35 82.23 75.06 82 74.78 81.9 74.52 81.91 74.29 82.01 74.17 82.23 74.12 82.55 74.17 82.91 74.29 83.27 74.52 83.62 74.78 83.93 75.06 84.16"/><polygon class="cls-4" points="75.06 84.07 75.35 84.2 75.58 84.17 75.78 84.09 75.89 83.87 75.95 83.61 75.89 83.26 75.78 82.9 75.58 82.59 75.35 82.3 75.06 82.1 74.8 81.98 74.55 82 74.35 82.07 74.23 82.3 74.17 82.59 74.23 82.91 74.35 83.27 74.55 83.58 74.8 83.89 75.06 84.07"/><polygon class="cls-4" points="75.06 83.94 75.35 84.04 75.61 83.99 75.75 83.82 75.81 83.53 75.75 83.17 75.61 82.8 75.35 82.46 75.06 82.23 74.78 82.13 74.55 82.19 74.37 82.38 74.32 82.67 74.37 83.03 74.55 83.38 74.78 83.71 75.06 83.94"/><polygon class="cls-4" points="75.06 83.71 75.26 83.76 75.46 83.75 75.58 83.62 75.61 83.41 75.58 83.14 75.46 82.88 75.26 82.63 75.06 82.49 74.86 82.4 74.69 82.43 74.57 82.56 74.52 82.79 74.57 83.04 74.69 83.3 74.86 83.53 75.06 83.71"/><path class="cls-4" d="m73.47,82.63l.17.55.23.49.34.49.4.42.4.3.43.18.37.05.34-.09.26-.24.17-.35.06-.42-.06-.52-.17-.52-.26-.54-.34-.49-.37-.38-.43-.31-.4-.17-.4-.07-.34.09-.23.25-.17.35s-.13.49,0,.9Z"/><path class="cls-4" d="m68.97,80.07l.17.55.23.49.34.49.4.42.4.3.43.18.37.05.34-.09.26-.24.17-.35.06-.42-.06-.52-.17-.52-.26-.54-.34-.49-.37-.38-.43-.31-.4-.17-.4-.07-.34.09-.23.25-.17.35s-.08.41,0,.9Z"/><polyline class="cls-4" points="55.63 53.39 59.33 55.52 59.7 55.74"/><line class="cls-4" x1="59.95" y1="58.62" x2="58.52" y2="57.8"/><line class="cls-4" x1="59.95" y1="58.62" x2="59.95" y2="60.91"/><line class="cls-4" x1="59.9" y1="66.59" x2="58.52" y2="65.8"/><line class="cls-4" x1="56.63" y1="61.97" x2="59.7" y2="63.73"/><line class="cls-4" x1="56.63" y1="61.74" x2="59.7" y2="63.51"/><line class="cls-4" x1="59.95" y1="60.91" x2="58.52" y2="60.09"/><polyline class="cls-4" points="59.9 66.59 59.9 68.88 58.52 68.08"/><line class="cls-4" x1="55.63" y1="69.16" x2="55.63" y2="53.39"/><line class="cls-4" x1="56.63" y1="53.97" x2="56.63" y2="69.74"/><line class="cls-4" x1="59.69" y1="71.5" x2="55.63" y2="69.16"/><line class="cls-4" x1="58.52" y1="62.83" x2="58.52" y2="55.06"/><line class="cls-4" x1="58.52" y1="70.83" x2="58.52" y2="63.05"/><line class="cls-4" x1="59.7" y1="58.48" x2="59.7" y2="55.74"/><line class="cls-4" x1="59.7" y1="63.51" x2="59.7" y2="60.77"/><line class="cls-4" x1="59.7" y1="66.47" x2="59.7" y2="63.73"/><line class="cls-4" x1="59.7" y1="71.5" x2="59.7" y2="68.76"/><polygon class="cls-4" points="55.67 53.33 61.38 56.62 61.38 72.47 55.67 69.18 55.67 53.33"/><polygon class="cls-4" points="67.06 66.22 67.06 71.59 67.53 72.46 68.06 73.22 68.63 73.92 69.3 74.57 69.96 75.11 70.63 75.49 71.3 75.73 71.97 75.85 72.57 75.82 73.07 75.66 73.54 75.33 73.54 69.95 73.07 69.12 72.57 68.34 71.97 67.62 71.3 66.97 70.63 66.48 69.96 66.09 69.3 65.82 68.63 65.7 68.06 65.74 67.53 65.92 67.06 66.22"/><polygon class="cls-4" points="75.06 84 75.38 84.12 75.63 84.07 75.81 83.85 75.86 83.56 75.81 83.17 75.63 82.78 75.38 82.41 75.06 82.16 74.75 82.05 74.49 82.12 74.32 82.31 74.26 82.64 74.32 82.99 74.49 83.41 74.75 83.76 75.06 84"/></g><g id="Layer_7"><polygon class="cls-1" points="75.06 84 75.38 84.12 75.63 84.07 75.81 83.85 75.86 83.56 75.81 83.17 75.63 82.78 75.38 82.41 75.06 82.16 74.75 82.05 74.49 82.12 74.32 82.31 74.26 82.64 74.32 82.99 74.49 83.41 74.75 83.76 75.06 84"/></g><circle class="cls-5" cx="75.23" cy="83.14" r="7.66"/></svg>