<?xml version="1.0" encoding="UTF-8"?>
<svg id="Layer_1" data-name="Layer 1" xmlns="http://www.w3.org/2000/svg" width="960" height="960" viewBox="0 0 960 960">
  <defs>
    <style>
      .cls-1 {
        stroke-width: 40px;
      }

      .cls-1, .cls-2, .cls-3 {
        fill: none;
        stroke: #000;
      }

      .cls-1, .cls-3 {
        stroke-linecap: round;
        stroke-linejoin: round;
      }

      .cls-2, .cls-3 {
        stroke-width: 20px;
      }
    </style>
  </defs>
  <path class="cls-3" d="m265.699,866.556c-51.363,0-93.149-41.852-93.149-93.295V186.74c0-51.443,41.786-93.295,93.149-93.295,2.485,0,5.01.1,7.503.297l569.872,45.116c23.464,1.857,45.183,12.401,61.155,29.689,15.974,17.288,24.771,39.771,24.771,63.309v496.288c0,23.537-8.797,46.021-24.771,63.309-15.973,17.288-37.691,27.832-61.155,29.689l-569.872,45.116c-2.493.197-5.018.297-7.503.297Z"/>
  <line class="cls-3" x1="209.373" y1="100.603" x2="84.956" y2="169.141"/>
  <path class="cls-3" d="m84.956,169.141v621.325l-56.591-47.571c-4.669-3.925-7.365-9.713-7.365-15.813V232.58c0-6.096,2.692-11.88,7.356-15.806l56.6-47.633Z"/>
  <ellipse class="cls-2" cx="569.126" cy="480" rx="278.123" ry="297.938"/>
  <polygon class="cls-3" points="477.93 369.851 477.93 430.132 667.972 432.141 667.972 374.216 477.93 369.851"/>
  <polygon class="cls-3" points="477.93 529.836 477.93 590.155 667.972 585.79 667.972 527.861 477.93 529.836"/>
  <line class="cls-3" x1="477.93" y1="414.628" x2="667.972" y2="417.219"/>
  <line class="cls-3" x1="477.93" y1="574.778" x2="667.972" y2="571.022"/>
  <line class="cls-1" x1="211.05" y1="860.34" x2="206.55" y2="857.84"/>
  <path class="cls-1" d="m939,231.86v496.28c0,53.89-41.42,98.72-95.14,102.97l-569.87,45.12c-25.02,1.98-48.52-5.1-67.44-18.39l-121.59-67.37-56.59-47.57c-4.67-3.93-7.37-9.72-7.37-15.82V232.58c0-6.1,2.69-11.88,7.36-15.81l56.6-47.63,121.59-66.98.05-.03c18.91-13.27,42.39-20.34,67.39-18.36l569.87,45.12c53.72,4.25,95.14,49.08,95.14,102.97Z"/>
  <line class="cls-1" x1="209.37" y1="100.6" x2="206.6" y2="102.13"/>
</svg>