<?xml version="1.0" encoding="UTF-8"?><svg id="Layer_1" xmlns="http://www.w3.org/2000/svg" viewBox="0 0 141.73 141.73"><defs><style>.cls-1{fill:none;stroke:#000;stroke-linecap:round;stroke-linejoin:round;stroke-width:.33px;}</style></defs><polyline class="cls-1" points="63.99 80.87 63.62 80.66 63.54 80.54 63.97 79.97"/><line class="cls-1" x1="63.54" y1="80.54" x2="63.99" y2="80.81"/><polyline class="cls-1" points="58.9 77.92 58.8 77.83 59.25 77.24"/><polyline class="cls-1" points="60.54 77.98 60.11 78.57 60.19 78.67 60.66 78.04"/><line class="cls-1" x1="58.9" y1="77.92" x2="60.19" y2="78.67"/><line class="cls-1" x1="58.8" y1="77.83" x2="60.11" y2="78.57"/><polyline class="cls-1" points="63.95 79.95 57.83 76.42 57.83 76.35"/><line class="cls-1" x1="55.55" y1="75.02" x2="55.55" y2="78.39"/><path class="cls-1" d="m55.57,78.37c0,.21.15.46.32.56"/><line class="cls-1" x1="56.04" y1="78.86" x2="59.04" y2="77.13"/><line class="cls-1" x1="63.86" y1="83.37" x2="56.04" y2="78.86"/><line class="cls-1" x1="63.99" y1="83.29" x2="63.86" y2="83.37"/><line class="cls-1" x1="58.4" y1="76.74" x2="55.7" y2="78.3"/><path class="cls-1" d="m55.72,78.29c0,.21.15.46.32.56"/><path class="cls-1" d="m55.75,75.13s-.03.09-.03.14"/><line class="cls-1" x1="55.7" y1="75.29" x2="55.84" y2="75.19"/><path class="cls-1" d="m63.87,83.36s.1.04.14.04"/><line class="cls-1" x1="55.7" y1="78.3" x2="55.7" y2="75.29"/><line class="cls-1" x1="55.88" y1="78.96" x2="63.99" y2="83.64"/><polyline class="cls-1" points="63.97 73.87 63.6 73.65 63.52 73.56 63.95 72.97"/><line class="cls-1" x1="63.52" y1="73.56" x2="63.97" y2="73.81"/><polyline class="cls-1" points="63.93 72.95 57.81 69.42 57.81 69.36"/><line class="cls-1" x1="56.02" y1="71.88" x2="59.04" y2="70.12"/><line class="cls-1" x1="63.84" y1="76.36" x2="56.02" y2="71.88"/><line class="cls-1" x1="63.99" y1="76.29" x2="63.84" y2="76.36"/><line class="cls-1" x1="58.38" y1="69.75" x2="55.7" y2="71.31"/><path class="cls-1" d="m55.7,71.29c0,.21.15.46.32.56"/><path class="cls-1" d="m55.73,68.14s-.03.09-.03.14"/><line class="cls-1" x1="55.68" y1="68.29" x2="55.82" y2="68.21"/><path class="cls-1" d="m63.85,76.36s.1.04.14.04"/><line class="cls-1" x1="55.7" y1="71.31" x2="55.68" y2="68.29"/><line class="cls-1" x1="55.86" y1="71.96" x2="63.99" y2="76.64"/><line class="cls-1" x1="55.53" y1="68.04" x2="55.53" y2="71.39"/><path class="cls-1" d="m55.55,71.39c0,.21.15.46.32.56"/><polyline class="cls-1" points="58.88 70.94 58.79 70.83 59.23 70.24"/><polyline class="cls-1" points="60.54 71 60.09 71.59 60.19 71.68 60.66 71.06"/><line class="cls-1" x1="58.88" y1="70.94" x2="60.19" y2="71.68"/><line class="cls-1" x1="58.79" y1="70.83" x2="60.09" y2="71.59"/><path class="cls-1" d="m88.83,53.68c-.49-.9-1.06-1.77-1.68-2.56"/><line class="cls-1" x1="87.14" y1="51.11" x2="70.82" y2="41.71"/><path class="cls-1" d="m70.82,41.71c-.62.07-1.19.28-1.67.62"/><path class="cls-1" d="m71.02,42.58c-.34.05-.65.15-.94.29"/><line class="cls-1" x1="71.01" y1="42.57" x2="86.96" y2="51.75"/><path class="cls-1" d="m87.91,53.15c-.29-.48-.61-.94-.95-1.38"/><polyline class="cls-1" points="89.68 54.17 100.03 48.17 100.05 52.98 92.95 57.1"/><line class="cls-1" x1="87.41" y1="52.4" x2="87.02" y2="52.63"/><line class="cls-1" x1="73.27" y1="43.9" x2="72.55" y2="44.3"/><line class="cls-1" x1="70.1" y1="42.9" x2="70.35" y2="42.74"/><polyline class="cls-1" points="95.25 66.03 100.07 63.24 100.05 57.12"/><line class="cls-1" x1="81.64" y1="35.45" x2="70.82" y2="41.71"/><path class="cls-1" d="m81.65,35.43c-.52.06-1,.22-1.43.46"/><polyline class="cls-1" points="81.64 35.45 97.96 44.85 87.14 51.11"/><path class="cls-1" d="m99.44,63.71c.23-.13.44-.29.64-.47"/><path class="cls-1" d="m100.02,48.16c-.57-1.18-1.28-2.31-2.08-3.32"/><polyline class="cls-1" points="93.67 58.17 101.34 53.74 100.05 52.98"/><polyline class="cls-1" points="94.65 60.26 101.36 56.38 101.34 53.74"/><line class="cls-1" x1="80.22" y1="35.92" x2="69.39" y2="42.18"/><line class="cls-1" x1="99.43" y1="63.73" x2="95.25" y2="66.15"/><path class="cls-1" d="m107.77,49.16c.6-.35.6-1.48-.01-2.53-.61-1.05-1.59-1.62-2.19-1.27"/><path class="cls-1" d="m107.73,49.18c.81-.32,1.35-1.08,1.39-1.95.04-.87-.43-1.68-1.2-2.07-.77-.4-1.7-.3-2.38.23"/><line class="cls-1" x1="100.03" y1="48.58" x2="105.57" y2="45.38"/><line class="cls-1" x1="100.6" y1="53.31" x2="107.75" y2="49.16"/><path class="cls-1" d="m95.45,42.06c.6-.35.6-1.48-.01-2.53-.61-1.05-1.59-1.62-2.19-1.27"/><path class="cls-1" d="m95.38,42.08c.81-.32,1.35-1.08,1.39-1.95.04-.87-.43-1.68-1.2-2.07-.77-.4-1.7-.3-2.38.23"/><line class="cls-1" x1="89.89" y1="40.21" x2="93.22" y2="38.28"/><line class="cls-1" x1="94.28" y1="42.73" x2="95.43" y2="42.06"/><path class="cls-1" d="m95.31,91.99s.02-.02.02-.03"/><path class="cls-1" d="m93.96,95.25c.87-.61,1.36-1.77,1.35-3.28"/><path class="cls-1" d="m95.23,63.4s.02-.02.02-.03"/><line class="cls-1" x1="95.23" y1="63.4" x2="95.29" y2="91.99"/><path class="cls-1" d="m90.04,54.36s-.02,0-.04,0"/><path class="cls-1" d="m95.24,63.39c0-3.33-2.35-7.37-5.23-9.03"/><path class="cls-1" d="m65.29,40.1s-.02,0-.04,0"/><line class="cls-1" x1="65.24" y1="40.11" x2="89.99" y2="54.37"/><path class="cls-1" d="m65.26,40.1c-1.3-.75-2.55-.91-3.51-.45"/><line class="cls-1" x1="95.29" y1="91.99" x2="86.22" y2="97.99"/><path class="cls-1" d="m84.48,101.83c1.14-.62,1.78-2,1.78-3.84"/><polyline class="cls-1" points="86.2 93.19 86.2 93.21 86.22 93.23 86.22 93.25 86.22 93.27"/><path class="cls-1" d="m86.24,93.27c1.53-1.26,2.67-3.62,2.66-5.52,0-1.9-1.15-2.74-2.68-1.98"/><polyline class="cls-1" points="86.2 85.78 86.2 85.8 86.2 85.82 86.18 85.82 86.18 85.84"/><polyline class="cls-1" points="86.18 85.84 86.24 85.82 86.32 85.78 86.38 85.76 86.46 85.73 86.52 85.71 86.57 85.69 86.65 85.67 86.71 85.65 86.77 85.63 86.83 85.63 86.91 85.61 86.96 85.61 87.02 85.59 87.08 85.59 87.14 85.59 87.2 85.59 87.26 85.59 87.32 85.59 87.37 85.59 87.43 85.61 87.49 85.61 87.55 85.63 87.61 85.63 87.65 85.65 87.71 85.67 87.76 85.69 87.8 85.71 87.86 85.73 87.9 85.76 87.96 85.78 88 85.82 88.04 85.84 88.1 85.88 88.13 85.92 88.17 85.96 88.21 86 88.25 86.04 88.29 86.08 88.33 86.13 88.37 86.17 88.39 86.23 88.43 86.27 88.47 86.33 88.49 86.39 88.52 86.45 88.54 86.51 88.56 86.56 88.6 86.62 88.62 86.68 88.64 86.76 88.66 86.82 88.68 86.88 88.7 86.95 88.72 87.01 88.72 87.09 88.74 87.17 88.76 87.25 88.76 87.32 88.78 87.38 88.78 87.46 88.78 87.56 88.78 87.64 88.8 87.71 88.8 87.79 88.8 87.87 88.8 87.97 88.78 88.05 88.78 88.12 88.78 88.22 88.76 88.3 88.76 88.4 88.74 88.49 88.74 88.57 88.72 88.67 88.7 88.75 88.68 88.85 88.66 88.94 88.64 89.04 88.62 89.12 88.6 89.22 88.58 89.31 88.54 89.41 88.52 89.51 88.51 89.59 88.47 89.68 88.45 89.78 88.41 89.88 88.37 89.98 88.33 90.07 88.31 90.15 88.27 90.25 88.23 90.35 88.19 90.44 88.13 90.52 88.1 90.62 88.06 90.72 88.02 90.82 87.96 90.89 87.92 90.99 87.88 91.09 87.82 91.17 87.76 91.26 87.73 91.34 87.67 91.44 87.61 91.52 87.57 91.61 87.51 91.69 87.45 91.77 87.39 91.85 87.34 91.95 87.28 92.02 87.22 92.1 87.16 92.18 87.1 92.26 87.04 92.34 86.98 92.41 86.93 92.47 86.85 92.55 86.79 92.63 86.73 92.69 86.67 92.77 86.59 92.82 86.54 92.88 86.46 92.96 86.4 93.02 86.34 93.08 86.26 93.14 86.2 93.19"/><line class="cls-1" x1="86.17" y1="69.4" x2="86.2" y2="85.78"/><path class="cls-1" d="m86.17,69.4c0-3.74-2.64-8.29-5.88-10.15"/><line class="cls-1" x1="55.53" y1="44.99" x2="80.28" y2="59.26"/><path class="cls-1" d="m55.54,44.99c-1.59-.91-3.11-1.05-4.21-.37"/><line class="cls-1" x1="86.22" y1="93.27" x2="86.22" y2="97.99"/><polyline class="cls-1" points="86.2 93.19 86.17 93.1 86.13 93.02 86.11 92.92 86.07 92.84 86.03 92.77 86.01 92.67 85.97 92.59 85.95 92.51 85.91 92.45 85.89 92.38 85.85 92.3 85.83 92.24 85.78 92.1 85.74 91.97 85.68 91.85 85.64 91.71 85.58 91.6 85.54 91.5 85.5 91.38 85.46 91.28 85.42 91.19 85.39 91.09 85.35 90.99 85.33 90.91 85.29 90.82 85.25 90.74 85.23 90.66 85.19 90.58 85.17 90.5 85.13 90.43 85.11 90.37 85.07 90.29 85.05 90.23 85.03 90.17 85.01 90.09 84.98 90.04 84.96 89.98 84.94 89.92"/><polyline class="cls-1" points="84.94 87.73 84.94 87.68 84.96 87.64 84.98 87.6 85 87.56 85.01 87.54 85.05 87.5 85.07 87.46 85.09 87.42 85.13 87.38 85.15 87.34 85.19 87.3 85.21 87.25 85.25 87.21 85.27 87.17 85.31 87.11 85.35 87.07 85.39 87.01 85.42 86.95 85.44 86.91 85.5 86.86 85.54 86.8 85.58 86.72 85.62 86.66 85.66 86.6 85.72 86.52 85.76 86.45 85.81 86.39 85.83 86.35 85.87 86.31 85.89 86.25 85.93 86.21 85.95 86.17 85.99 86.13 86.01 86.1 86.05 86.04 86.09 86 86.11 85.94 86.15 85.9 86.18 85.84"/><line class="cls-1" x1="86.17" y1="69.4" x2="95.23" y2="63.4"/><path class="cls-1" d="m85.86,88.26c0-.6-.4-.86-.91-.59"/><line class="cls-1" x1="55.53" y1="44.99" x2="65.24" y2="40.11"/><line class="cls-1" x1="89.99" y1="54.37" x2="80.28" y2="59.26"/><polyline class="cls-1" points="84.72 101.68 93.95 95.26 94.02 95.2 94.1 95.14 94.18 95.09 94.26 95.01 94.34 94.93 94.39 94.87 94.47 94.77 94.53 94.7 94.59 94.62 94.67 94.52 94.73 94.44 94.77 94.34 94.82 94.25 94.88 94.15 94.92 94.05 94.96 93.94 95.02 93.84 95.06 93.72 95.1 93.6 95.12 93.51 95.16 93.39 95.17 93.25 95.21 93.14 95.23 93.02 95.25 92.88 95.27 92.77 95.29 92.63 95.29 92.51 95.31 92.38 95.31 92.24 95.31 92.1 95.31 91.97 95.25 63.38 95.25 63.22 95.23 63.06 95.23 62.91 95.21 62.77 95.21 62.62 95.19 62.46 95.17 62.3 95.16 62.13 95.12 61.97 95.1 61.82 95.06 61.66 95.02 61.49 94.98 61.33 94.94 61.17 94.9 61 94.84 60.84 94.8 60.69 94.75 60.51 94.69 60.35 94.63 60.18 94.57 60.02 94.51 59.85 94.43 59.69 94.36 59.54 94.3 59.36 94.22 59.2 94.14 59.05 94.06 58.87 93.99 58.72 93.89 58.56 93.81 58.4 93.71 58.25 93.63 58.09 93.54 57.94 93.44 57.78 93.34 57.64 93.24 57.49 93.15 57.33 93.03 57.2 92.93 57.06 92.82 56.9 92.72 56.77 92.6 56.63 92.48 56.49 92.39 56.36 92.27 56.24 92.15 56.1 92.04 55.99 91.92 55.85 91.8 55.73 91.66 55.62 91.55 55.5 91.43 55.4 91.31 55.28 91.18 55.19 91.06 55.07 90.92 54.97 90.81 54.87 90.67 54.8 90.55 54.7 90.42 54.62 90.3 54.52 90.16 54.45 90.05 54.37 65.28 40.11 65.16 40.05 65.05 39.98 64.93 39.92 64.79 39.86 64.67 39.8 64.56 39.76 64.44 39.7 64.32 39.66 64.21 39.62 64.09 39.59 63.97 39.55 63.86 39.53 63.74 39.49 63.62 39.47 63.5 39.45 63.39 39.43 63.27 39.43 63.17 39.41 63.06 39.41 62.94 39.41 62.84 39.41 62.72 39.41 62.63 39.41 62.51 39.43 62.41 39.45 62.32 39.47 62.22 39.49 62.12 39.53 62.02 39.55 61.93 39.59 61.83 39.62 61.73 39.66 51.59 44.48"/><path class="cls-1" d="m52.24,60.45c-4.72.75-7.12,5.81-6.05,12.77,1.07,6.97,5.39,14.42,10.9,18.82,5.51,4.39,11.09,4.83,14.09,1.11"/><path class="cls-1" d="m73.37,86.24c-.03-8.94-6.32-19.8-14.06-24.26-7.74-4.46-13.99-.83-13.97,8.11.03,8.94,6.32,19.8,14.06,24.26,7.74,4.46,13.99.83,13.97-8.11"/><line class="cls-1" x1="41.86" y1="82.37" x2="41.78" y2="53.78"/><path class="cls-1" d="m41.86,82.36c0,3.28,2.32,7.28,5.16,8.91"/><line class="cls-1" x1="71.77" y1="105.54" x2="47.03" y2="91.28"/><path class="cls-1" d="m71.8,105.53c2.85,1.64,5.15.3,5.14-2.98"/><line class="cls-1" x1="76.84" y1="73.97" x2="76.92" y2="102.55"/><path class="cls-1" d="m76.86,73.96c0-3.28-2.32-7.28-5.16-8.91"/><line class="cls-1" x1="46.93" y1="50.8" x2="71.68" y2="65.05"/><path class="cls-1" d="m46.95,50.79c-2.85-1.64-5.15-.3-5.14,2.98"/><polyline class="cls-1" points="86.05 85.92 86.07 85.9 86.07 85.88 86.07 85.86"/><path class="cls-1" d="m86.09,85.85c-1.74,1.15-3.01,3.37-3.01,5.24,0,1.87,1.29,2.82,3.03,2.24"/><polyline class="cls-1" points="86.09 93.35 86.09 93.33 86.09 93.31 86.09 93.29 86.07 93.27"/><polyline class="cls-1" points="86.07 93.27 85.99 93.29 85.91 93.31 85.85 93.33 85.78 93.35 85.7 93.37 85.62 93.37 85.54 93.39 85.46 93.39 85.4 93.41 85.33 93.41 85.25 93.41 85.19 93.43 85.11 93.43 85.05 93.41 84.98 93.41 84.92 93.41 84.84 93.39 84.78 93.39 84.7 93.37 84.64 93.37 84.59 93.35 84.53 93.33 84.45 93.31 84.39 93.29 84.33 93.27 84.27 93.23 84.22 93.21 84.18 93.17 84.12 93.16 84.06 93.12 84 93.08 83.96 93.04 83.9 93 83.86 92.96 83.81 92.92 83.77 92.88 83.73 92.84 83.69 92.78 83.63 92.75 83.59 92.69 83.55 92.63 83.53 92.59 83.49 92.53 83.45 92.47 83.42 92.41 83.4 92.36 83.36 92.3 83.34 92.22 83.32 92.16 83.28 92.1 83.26 92.02 83.24 91.97 83.22 91.89 83.2 91.83 83.18 91.75 83.18 91.67 83.16 91.6 83.14 91.52 83.14 91.46 83.12 91.38 83.12 91.28 83.12 91.21 83.12 91.13 83.12 91.05 83.12 90.97 83.12 90.89 83.12 90.8 83.12 90.72 83.14 90.64 83.14 90.54 83.16 90.46 83.16 90.37 83.18 90.29 83.2 90.19 83.22 90.11 83.24 90.02 83.26 89.94 83.28 89.84 83.3 89.74 83.34 89.66 83.36 89.57 83.38 89.49 83.42 89.39 83.45 89.29 83.47 89.22 83.51 89.12 83.55 89.02 83.59 88.94 83.63 88.85 83.67 88.77 83.71 88.67 83.75 88.57 83.81 88.49 83.84 88.4 83.9 88.32 83.94 88.22 84 88.14 84.04 88.05 84.1 87.97 84.16 87.89 84.22 87.79 84.27 87.71 84.33 87.64 84.39 87.56 84.45 87.46 84.51 87.38 84.57 87.3 84.62 87.23 84.7 87.15 84.76 87.07 84.82 87.01 84.9 86.93 84.96 86.86 85.03 86.78 85.09 86.72 85.17 86.64 85.25 86.58 85.31 86.51 85.39 86.45 85.46 86.39 85.52 86.31 85.6 86.25 85.68 86.19 85.76 86.13 85.83 86.08 85.89 86.02 85.97 85.98 86.05 85.92"/><line class="cls-1" x1="86.09" y1="93.35" x2="86.11" y2="98.07"/><path class="cls-1" d="m84.17,101.99c1.24-.57,1.95-2,1.94-3.92"/><path class="cls-1" d="m55.41,45.05c-1.67-.96-3.25-1.05-4.36-.26"/><line class="cls-1" x1="55.39" y1="45.07" x2="80.16" y2="59.32"/><path class="cls-1" d="m86.04,69.47c0-3.74-2.64-8.29-5.88-10.15"/><line class="cls-1" x1="86.03" y1="69.48" x2="86.07" y2="85.86"/><polyline class="cls-1" points="86.05 85.92 86.03 85.98 85.99 86.02 85.95 86.08 85.91 86.12 85.89 86.15 85.85 86.21 85.83 86.25 85.79 86.29 85.78 86.33 85.74 86.37 85.72 86.41 85.68 86.45 85.64 86.52 85.58 86.6 85.54 86.68 85.48 86.74 85.44 86.8 85.4 86.88 85.37 86.93 85.33 86.99 85.29 87.03 85.25 87.09 85.21 87.15 85.17 87.19 85.15 87.25 85.11 87.29 85.09 87.32 85.05 87.38 85.03 87.42 85 87.46 84.98 87.5 84.94 87.54 84.92 87.58 84.9 87.62 84.88 87.64 84.84 87.68 84.82 87.71 84.8 87.73 84.8 87.81"/><polyline class="cls-1" points="86.07 93.27 86.03 93.17 86.01 93.08 85.97 93 85.93 92.92 85.91 92.82 85.87 92.75 85.83 92.67 85.81 92.59 85.78 92.51 85.76 92.45 85.74 92.38 85.7 92.3 85.64 92.16 85.6 92.04 85.54 91.91 85.5 91.79 85.46 91.67 85.4 91.56 85.37 91.46 85.33 91.36 85.29 91.26 85.25 91.17 85.23 91.07 85.19 90.97 85.15 90.89 85.13 90.82 85.09 90.74 85.05 90.66 85.03 90.58 85 90.5 84.98 90.43 84.96 90.37 84.92 90.29 84.9 90.23 84.88 90.17 84.86 90.11 84.82 90.05 84.8 90"/><polyline class="cls-1" points="86.03 69.48 76.98 73.97 77.04 102.57 86.11 98.07"/><path class="cls-1" d="m41.84,82.32s0,.03.03.03"/><path class="cls-1" d="m41.78,53.73s0,.03.03.03"/><path class="cls-1" d="m46.99,50.68s-.06.07-.06.1"/><path class="cls-1" d="m47.01,50.67c-1.48-.85-2.89-.94-3.88-.23"/><path class="cls-1" d="m71.76,64.94s-.06.07-.06.1"/><line class="cls-1" x1="71.73" y1="64.94" x2="46.99" y2="50.68"/><path class="cls-1" d="m76.87,73.95s.08.02.12,0"/><path class="cls-1" d="m76.99,73.96c0-3.33-2.35-7.37-5.23-9.03"/><path class="cls-1" d="m76.93,102.54s.08.02.12,0"/><path class="cls-1" d="m71.8,105.53s0,.03.02.04"/><path class="cls-1" d="m75.34,106.04c1.1-.51,1.73-1.78,1.73-3.49"/><path class="cls-1" d="m47.03,91.27s0,.03.02.04"/><line class="cls-1" x1="55.37" y1="79.06" x2="63.84" y2="83.93"/><path class="cls-1" d="m55.23,78.78c0,.1.07.22.16.27"/><line class="cls-1" x1="55.2" y1="75.02" x2="55.2" y2="78.78"/><path class="cls-1" d="m55.36,74.92c-.09-.05-.16-.01-.16.09"/><line class="cls-1" x1="63.84" y1="79.8" x2="55.35" y2="74.92"/><path class="cls-1" d="m64,80.07c0-.1-.07-.22-.16-.27"/><line class="cls-1" x1="63.99" y1="83.85" x2="63.99" y2="80.09"/><path class="cls-1" d="m63.85,83.93c.09.05.16.01.16-.09"/><line class="cls-1" x1="55.35" y1="72.07" x2="63.82" y2="76.95"/><path class="cls-1" d="m55.21,71.78c0,.1.07.22.16.27"/><line class="cls-1" x1="55.18" y1="68.02" x2="55.2" y2="71.78"/><path class="cls-1" d="m55.34,67.92c-.09-.05-.16-.01-.16.09"/><line class="cls-1" x1="63.82" y1="72.82" x2="55.33" y2="67.94"/><path class="cls-1" d="m63.98,73.07c0-.1-.07-.22-.16-.27"/><line class="cls-1" x1="63.99" y1="76.85" x2="63.97" y2="73.09"/><path class="cls-1" d="m63.83,76.93c.09.05.16.01.16-.09"/><line class="cls-1" x1="55.18" y1="68.02" x2="55.33" y2="67.94"/><line class="cls-1" x1="55.57" y1="71.57" x2="55.2" y2="71.78"/><line class="cls-1" x1="55.2" y1="75.02" x2="55.35" y2="74.92"/><line class="cls-1" x1="55.59" y1="78.57" x2="55.2" y2="78.78"/><line class="cls-1" x1="55.35" y1="72.07" x2="55.72" y2="71.86"/><line class="cls-1" x1="55.37" y1="79.06" x2="55.74" y2="78.84"/><path class="cls-1" d="m84.82,87.74c-.51.34-.9,1.05-.9,1.64s.39.85.9.59"/><line class="cls-1" x1="63.99" y1="76.85" x2="63.82" y2="76.95"/><line class="cls-1" x1="63.99" y1="83.85" x2="63.84" y2="83.93"/><line class="cls-1" x1="80.16" y1="59.32" x2="71.73" y2="64.94"/><line class="cls-1" x1="46.99" y1="50.68" x2="55.39" y2="45.07"/><polyline class="cls-1" points="71.15 93.17 71.23 93.08 71.31 92.98 71.36 92.88 71.44 92.78 71.52 92.69 71.58 92.59 71.64 92.47 71.71 92.38 71.77 92.28 71.83 92.16 71.89 92.04 71.95 91.95 72.01 91.83 72.07 91.71 72.12 91.6 72.18 91.48 72.24 91.36 72.28 91.24 72.34 91.13 72.4 90.99 72.44 90.87 72.48 90.74 72.53 90.62 72.57 90.48 72.61 90.35 72.65 90.23 72.69 90.09 72.73 89.96 72.77 89.82 72.81 89.68 72.85 89.55 72.88 89.39 72.9 89.26 72.94 89.12 72.96 88.96 72.98 88.83 73.02 88.67 73.04 88.53 73.06 88.38 73.08 88.22 73.1 88.07 73.12 87.93 73.14 87.77 73.16 87.62 73.16 87.46 73.18 87.29 73.2 87.13 73.2 86.97 73.2 86.82 73.22 86.64 73.22 86.49 73.22 86.33 73.22 86.15 73.22 86 73.22 85.82 73.22 85.67 73.22 85.49 73.2 85.32 73.2 85.14 73.2 84.98 73.18 84.81 73.16 84.63 73.16 84.46 73.14 84.28 73.12 84.11 73.1 83.93 73.08 83.76 73.06 83.58 73.04 83.4 73 83.21 72.98 83.03 72.96 82.86 72.92 82.68 72.9 82.49 72.87 82.31 72.83 82.14 72.81 81.94 72.77 81.77 72.73 81.59 72.69 81.4 72.65 81.22 72.59 81.03 72.55 80.85 72.51 80.66 72.46 80.48 72.42 80.28 72.36 80.11 72.32 79.91 72.26 79.72 72.2 79.54 72.14 79.35 72.1 79.17 72.05 78.98 71.97 78.78 71.91 78.61 71.85 78.41 71.79 78.22 71.71 78.04 71.66 77.85 71.6 77.65 71.52 77.48 71.44 77.28 71.38 77.11 71.31 76.91 71.23 76.72 71.15 76.54 71.07 76.35 70.99 76.17 70.92 75.97 70.84 75.78 70.76 75.6 70.66 75.41 70.58 75.23 70.51 75.04 70.41 74.86 70.31 74.67 70.23 74.49 70.14 74.3 70.04 74.12 69.96 73.95 69.86 73.75 69.76 73.58 69.67 73.4 69.57 73.21 69.47 73.03 69.37 72.85 69.26 72.68 69.16 72.48 69.06 72.31 68.95 72.13 68.85 71.96 68.73 71.78 68.63 71.61 68.52 71.43 68.42 71.26 68.3 71.08 68.19 70.9 68.07 70.75 67.95 70.57 67.85 70.4 67.74 70.22 67.62 70.07 67.5 69.89 67.37 69.73 67.25 69.56 67.13 69.4 67.01 69.23 66.9 69.07 66.76 68.92 66.64 68.76 66.53 68.58 66.39 68.43 66.27 68.27 66.14 68.12 66.02 67.96 65.88 67.8 65.75 67.67 65.63 67.51 65.49 67.36 65.36 67.2 65.24 67.06 65.1 66.91 64.97 66.77 64.83 66.61 64.69 66.48 64.56 66.34 64.42 66.2 64.28 66.07 64.15 65.93 64.01 65.8 63.88 65.66 63.74 65.52 63.6 65.39 63.47 65.25 63.33 65.13 63.19 65 63.06 64.88 62.9 64.74 62.76 64.63 62.63 64.51 62.49 64.39 62.35 64.27 62.2 64.16 62.06 64.04 61.93 63.92 61.77 63.81 61.63 63.71 61.5 63.59 61.34 63.49 61.2 63.38 61.07 63.28 60.91 63.18 60.77 63.06 60.62 62.97 60.48 62.87 60.35 62.79 60.19 62.69 60.05 62.6 59.9 62.5 59.76 62.42 59.62 62.34 59.47 62.25 59.33 62.17 59.18 62.09 59.04 62.01 58.9 61.93 58.75 61.86 58.61 61.78 58.47 61.7 58.32 61.64 58.18 61.56 58.04 61.5 57.89 61.45 57.75 61.37 57.62 61.31 57.46 61.25 57.32 61.19 57.19 61.13 57.05 61.1 56.91 61.04 56.76 61 56.62 60.94 56.48 60.9 56.35 60.86 56.21 60.8 56.07 60.76 55.94 60.72 55.8 60.71 55.67 60.67 55.53 60.63 55.39 60.61 55.26 60.57 55.12 60.55 54.98 60.53 54.85 60.49 54.73 60.47 54.59 60.45 54.46 60.45 54.32 60.43 54.2 60.41 54.07 60.41 53.93 60.39 53.81 60.39 53.68 60.39 53.56 60.37 53.44 60.37 53.31 60.37 53.19 60.37 53.05 60.39 52.94 60.39 52.82 60.39 52.7 60.41 52.58 60.43 52.47 60.43 52.35 60.45 52.23 60.47"/><polyline class="cls-1" points="41.84 82.33 41.76 53.74 41.76 53.61 41.76 53.47 41.78 53.33 41.78 53.2 41.8 53.08 41.8 52.94 41.82 52.83 41.84 52.69 41.88 52.57 41.9 52.46 41.92 52.34 41.96 52.22 41.99 52.11 42.01 51.99 42.05 51.89 42.11 51.77 42.15 51.68 42.19 51.58 42.25 51.46 42.29 51.38 42.35 51.29 42.4 51.19 42.46 51.11 42.52 51.01 42.6 50.94 42.66 50.86 42.74 50.78 42.79 50.7 42.87 50.64 42.95 50.56 43.03 50.51 43.11 50.45"/><polyline class="cls-1" points="84.16 101.99 75.32 106.05 75.22 106.08 75.13 106.12 75.03 106.16 74.95 106.18 74.83 106.22 74.74 106.24 74.64 106.26 74.54 106.28 74.44 106.28 74.33 106.3 74.23 106.3 74.11 106.3 74.02 106.3 73.9 106.28 73.78 106.28 73.66 106.26 73.57 106.24 73.45 106.22 73.33 106.2 73.22 106.18 73.1 106.14 72.98 106.1 72.87 106.07 72.75 106.03 72.63 105.99 72.51 105.95 72.4 105.89 72.28 105.83 72.16 105.77 72.05 105.71 71.93 105.66 71.79 105.58 47.05 91.32 46.91 91.24 46.79 91.17 46.66 91.09 46.54 91.01 46.4 90.91 46.29 90.82 46.15 90.72 46.03 90.62 45.9 90.52 45.78 90.43 45.66 90.31 45.52 90.19 45.41 90.07 45.29 89.96 45.17 89.84 45.06 89.72 44.94 89.61 44.82 89.47 44.71 89.33 44.59 89.2 44.47 89.08 44.37 88.92 44.26 88.79 44.16 88.65 44.04 88.51 43.94 88.36 43.85 88.22 43.75 88.07 43.65 87.91 43.55 87.75 43.46 87.62 43.36 87.46 43.28 87.3 43.18 87.13 43.11 86.97 43.03 86.82 42.93 86.66 42.85 86.51 42.79 86.33 42.72 86.17 42.64 86.02 42.58 85.84 42.52 85.69 42.44 85.51 42.38 85.35 42.35 85.18 42.29 85.02 42.23 84.87 42.19 84.69 42.13 84.54 42.09 84.36 42.05 84.2 42.01 84.05 41.99 83.89 41.96 83.72 41.94 83.56 41.92 83.4 41.9 83.25 41.88 83.09 41.86 82.94 41.84 82.78 41.84 82.62 41.84 82.49 41.84 82.33"/><line class="cls-1" x1="43.11" y1="50.45" x2="51.04" y2="44.81"/><path class="cls-1" d="m84.94,87.73s-.09.05-.13.08"/><path class="cls-1" d="m84.95,87.79c-.51.29-.92,1-.92,1.59,0,.59.41.82.92.53.51-.29.92-1,.92-1.59,0-.59-.41-.82-.92-.53"/><line class="cls-1" x1="85.52" y1="87.7" x2="85.58" y2="87.73"/><line class="cls-1" x1="84.23" y1="89.96" x2="84.29" y2="90"/><path class="cls-1" d="m84.81,87.8c-.36.24-.66.69-.79,1.15s-.04.85.21.99"/><line class="cls-1" x1="84.94" y1="87.73" x2="84.94" y2="87.73"/><path class="cls-1" d="m85.54,87.69c-.16-.09-.37-.08-.59.03"/></svg>