<?xml version="1.0" encoding="UTF-8"?><svg id="Layer_1" xmlns="http://www.w3.org/2000/svg" viewBox="0 0 141.73 141.73"><defs><style>.cls-1{fill:#00aeef;}.cls-1,.cls-2{stroke:#000;stroke-linecap:round;stroke-linejoin:round;stroke-width:.33px;}.cls-2,.cls-3{fill:none;}.cls-3{stroke:#00aeef;stroke-miterlimit:10;stroke-width:2px;}</style></defs><polyline class="cls-2" points="59.42 80.87 59.05 80.66 58.97 80.54 59.4 79.97"/><line class="cls-2" x1="58.97" y1="80.54" x2="59.42" y2="80.81"/><polyline class="cls-2" points="54.33 77.92 54.23 77.83 54.68 77.24"/><polyline class="cls-2" points="55.97 77.98 55.54 78.57 55.62 78.67 56.08 78.04"/><line class="cls-2" x1="54.33" y1="77.92" x2="55.62" y2="78.67"/><line class="cls-2" x1="54.23" y1="77.83" x2="55.54" y2="78.57"/><polyline class="cls-2" points="59.38 79.95 53.26 76.42 53.26 76.35"/><line class="cls-2" x1="50.97" y1="75.02" x2="50.97" y2="78.39"/><path class="cls-2" d="m50.99,78.37c0,.21.15.46.32.56"/><line class="cls-2" x1="51.46" y1="78.86" x2="54.47" y2="77.13"/><line class="cls-2" x1="59.28" y1="83.37" x2="51.46" y2="78.86"/><line class="cls-2" x1="59.42" y1="83.29" x2="59.28" y2="83.37"/><line class="cls-2" x1="53.82" y1="76.74" x2="51.13" y2="78.3"/><path class="cls-2" d="m51.15,78.29c0,.21.15.46.32.56"/><path class="cls-2" d="m51.18,75.13s-.03.09-.03.14"/><line class="cls-2" x1="51.13" y1="75.29" x2="51.27" y2="75.19"/><path class="cls-2" d="m59.29,83.36s.1.04.14.04"/><line class="cls-2" x1="51.13" y1="78.3" x2="51.13" y2="75.29"/><line class="cls-2" x1="51.31" y1="78.96" x2="59.42" y2="83.64"/><polyline class="cls-2" points="59.4 73.87 59.03 73.65 58.95 73.56 59.38 72.97"/><line class="cls-2" x1="58.95" y1="73.56" x2="59.4" y2="73.81"/><polyline class="cls-2" points="59.36 72.95 53.24 69.42 53.24 69.36"/><line class="cls-2" x1="51.44" y1="71.88" x2="54.47" y2="70.12"/><line class="cls-2" x1="59.26" y1="76.36" x2="51.44" y2="71.88"/><line class="cls-2" x1="59.42" y1="76.29" x2="59.26" y2="76.36"/><line class="cls-2" x1="53.8" y1="69.75" x2="51.13" y2="71.31"/><path class="cls-2" d="m51.13,71.29c0,.21.15.46.32.56"/><path class="cls-2" d="m51.16,68.14s-.03.09-.03.14"/><line class="cls-2" x1="51.11" y1="68.29" x2="51.25" y2="68.21"/><path class="cls-2" d="m59.27,76.36s.1.04.14.04"/><line class="cls-2" x1="51.13" y1="71.31" x2="51.11" y2="68.29"/><line class="cls-2" x1="51.29" y1="71.96" x2="59.42" y2="76.64"/><line class="cls-2" x1="50.96" y1="68.04" x2="50.96" y2="71.39"/><path class="cls-2" d="m50.97,71.39c0,.21.15.46.32.56"/><polyline class="cls-2" points="54.31 70.94 54.21 70.83 54.66 70.24"/><polyline class="cls-2" points="55.97 71 55.52 71.59 55.62 71.68 56.08 71.06"/><line class="cls-2" x1="54.31" y1="70.94" x2="55.62" y2="71.68"/><line class="cls-2" x1="54.21" y1="70.83" x2="55.52" y2="71.59"/><path class="cls-2" d="m84.26,53.68c-.49-.9-1.06-1.77-1.68-2.56"/><line class="cls-2" x1="82.57" y1="51.11" x2="66.24" y2="41.71"/><path class="cls-2" d="m66.25,41.71c-.62.07-1.19.28-1.67.62"/><path class="cls-2" d="m66.44,42.58c-.34.05-.65.15-.94.29"/><line class="cls-2" x1="66.44" y1="42.57" x2="82.39" y2="51.75"/><path class="cls-2" d="m83.34,53.15c-.29-.48-.61-.94-.95-1.38"/><polyline class="cls-2" points="85.1 54.17 95.46 48.17 95.48 52.98 88.38 57.1"/><line class="cls-2" x1="82.84" y1="52.4" x2="82.45" y2="52.63"/><line class="cls-2" x1="68.7" y1="43.9" x2="67.98" y2="44.3"/><line class="cls-2" x1="65.52" y1="42.9" x2="65.78" y2="42.74"/><polyline class="cls-2" points="90.68 66.03 95.5 63.24 95.48 57.12"/><line class="cls-2" x1="77.07" y1="35.45" x2="66.24" y2="41.71"/><path class="cls-2" d="m77.07,35.43c-.52.06-1,.22-1.43.46"/><polyline class="cls-2" points="77.07 35.45 93.39 44.85 82.57 51.11"/><path class="cls-2" d="m94.87,63.71c.23-.13.44-.29.64-.47"/><path class="cls-2" d="m95.45,48.16c-.57-1.18-1.28-2.31-2.08-3.32"/><polyline class="cls-2" points="89.1 58.17 96.76 53.74 95.48 52.98"/><polyline class="cls-2" points="90.07 60.26 96.78 56.38 96.76 53.74"/><line class="cls-2" x1="75.64" y1="35.92" x2="64.82" y2="42.18"/><line class="cls-2" x1="94.85" y1="63.73" x2="90.68" y2="66.15"/><path class="cls-2" d="m103.2,49.16c.6-.35.6-1.48-.01-2.53-.61-1.05-1.59-1.62-2.19-1.27"/><path class="cls-2" d="m103.15,49.18c.81-.32,1.35-1.08,1.39-1.95.04-.87-.43-1.68-1.2-2.07-.77-.4-1.7-.3-2.38.23"/><line class="cls-2" x1="95.46" y1="48.58" x2="101" y2="45.38"/><line class="cls-2" x1="96.02" y1="53.31" x2="103.18" y2="49.16"/><path class="cls-2" d="m90.87,42.06c.6-.35.6-1.48-.01-2.53-.61-1.05-1.59-1.62-2.19-1.27"/><path class="cls-2" d="m90.81,42.08c.81-.32,1.35-1.08,1.39-1.95.04-.87-.43-1.68-1.2-2.07-.77-.4-1.7-.3-2.38.23"/><line class="cls-2" x1="85.32" y1="40.21" x2="88.65" y2="38.28"/><line class="cls-2" x1="89.7" y1="42.73" x2="90.85" y2="42.06"/><path class="cls-2" d="m90.74,91.99s.02-.02.02-.03"/><path class="cls-2" d="m89.39,95.25c.87-.61,1.36-1.77,1.35-3.28"/><path class="cls-2" d="m90.66,63.4s.02-.02.02-.03"/><line class="cls-2" x1="90.66" y1="63.4" x2="90.72" y2="91.99"/><path class="cls-2" d="m85.47,54.36s-.02,0-.04,0"/><path class="cls-2" d="m90.67,63.39c0-3.33-2.35-7.37-5.23-9.03"/><path class="cls-2" d="m60.72,40.1s-.02,0-.04,0"/><line class="cls-2" x1="60.67" y1="40.11" x2="85.41" y2="54.37"/><path class="cls-2" d="m60.69,40.1c-1.3-.75-2.55-.91-3.51-.45"/><line class="cls-2" x1="90.72" y1="91.99" x2="81.65" y2="97.99"/><path class="cls-2" d="m79.9,101.83c1.14-.62,1.78-2,1.78-3.84"/><polyline class="cls-2" points="81.63 93.19 81.63 93.21 81.65 93.23 81.65 93.25 81.65 93.27"/><path class="cls-2" d="m81.67,93.27c1.53-1.26,2.67-3.62,2.66-5.52,0-1.9-1.15-2.74-2.68-1.98"/><polyline class="cls-2" points="81.63 85.78 81.63 85.8 81.63 85.82 81.61 85.82 81.61 85.84"/><polyline class="cls-2" points="81.61 85.84 81.67 85.82 81.75 85.78 81.81 85.76 81.88 85.73 81.94 85.71 82 85.69 82.08 85.67 82.14 85.65 82.2 85.63 82.25 85.63 82.33 85.61 82.39 85.61 82.45 85.59 82.51 85.59 82.57 85.59 82.63 85.59 82.68 85.59 82.74 85.59 82.8 85.59 82.86 85.61 82.92 85.61 82.98 85.63 83.03 85.63 83.07 85.65 83.13 85.67 83.19 85.69 83.23 85.71 83.29 85.73 83.33 85.76 83.39 85.78 83.42 85.82 83.46 85.84 83.52 85.88 83.56 85.92 83.6 85.96 83.64 86 83.68 86.04 83.72 86.08 83.76 86.13 83.8 86.17 83.81 86.23 83.85 86.27 83.89 86.33 83.91 86.39 83.95 86.45 83.97 86.51 83.99 86.56 84.03 86.62 84.05 86.68 84.07 86.76 84.09 86.82 84.11 86.88 84.13 86.95 84.15 87.01 84.15 87.09 84.17 87.17 84.19 87.25 84.19 87.32 84.2 87.38 84.2 87.46 84.2 87.56 84.2 87.64 84.22 87.71 84.22 87.79 84.22 87.87 84.22 87.97 84.2 88.05 84.2 88.12 84.2 88.22 84.19 88.3 84.19 88.4 84.17 88.49 84.17 88.57 84.15 88.67 84.13 88.75 84.11 88.85 84.09 88.94 84.07 89.04 84.05 89.12 84.03 89.22 84.01 89.31 83.97 89.41 83.95 89.51 83.93 89.59 83.89 89.68 83.87 89.78 83.83 89.88 83.8 89.98 83.76 90.07 83.74 90.15 83.7 90.25 83.66 90.35 83.62 90.44 83.56 90.52 83.52 90.62 83.48 90.72 83.44 90.82 83.39 90.89 83.35 90.99 83.31 91.09 83.25 91.17 83.19 91.26 83.15 91.34 83.09 91.44 83.03 91.52 83 91.61 82.94 91.69 82.88 91.77 82.82 91.85 82.76 91.95 82.7 92.02 82.64 92.1 82.59 92.18 82.53 92.26 82.47 92.34 82.41 92.41 82.35 92.47 82.27 92.55 82.22 92.63 82.16 92.69 82.1 92.77 82.02 92.82 81.96 92.88 81.88 92.96 81.83 93.02 81.77 93.08 81.69 93.14 81.63 93.19"/><line class="cls-2" x1="81.59" y1="69.4" x2="81.63" y2="85.78"/><path class="cls-2" d="m81.6,69.4c0-3.74-2.64-8.29-5.88-10.15"/><line class="cls-2" x1="50.96" y1="44.99" x2="75.7" y2="59.26"/><path class="cls-2" d="m50.97,44.99c-1.59-.91-3.11-1.05-4.21-.37"/><line class="cls-2" x1="81.65" y1="93.27" x2="81.65" y2="97.99"/><polyline class="cls-2" points="81.63 93.19 81.59 93.1 81.55 93.02 81.53 92.92 81.49 92.84 81.46 92.77 81.44 92.67 81.4 92.59 81.38 92.51 81.34 92.45 81.32 92.38 81.28 92.3 81.26 92.24 81.2 92.1 81.16 91.97 81.1 91.85 81.07 91.71 81.01 91.6 80.97 91.5 80.93 91.38 80.89 91.28 80.85 91.19 80.81 91.09 80.77 90.99 80.75 90.91 80.71 90.82 80.68 90.74 80.66 90.66 80.62 90.58 80.6 90.5 80.56 90.43 80.54 90.37 80.5 90.29 80.48 90.23 80.46 90.17 80.44 90.09 80.4 90.04 80.38 89.98 80.36 89.92"/><polyline class="cls-2" points="80.36 87.73 80.36 87.68 80.38 87.64 80.4 87.6 80.42 87.56 80.44 87.54 80.48 87.5 80.5 87.46 80.52 87.42 80.56 87.38 80.58 87.34 80.62 87.3 80.64 87.25 80.68 87.21 80.69 87.17 80.73 87.11 80.77 87.07 80.81 87.01 80.85 86.95 80.87 86.91 80.93 86.86 80.97 86.8 81.01 86.72 81.05 86.66 81.08 86.6 81.14 86.52 81.18 86.45 81.24 86.39 81.26 86.35 81.3 86.31 81.32 86.25 81.36 86.21 81.38 86.17 81.42 86.13 81.44 86.1 81.47 86.04 81.51 86 81.53 85.94 81.57 85.9 81.61 85.84"/><line class="cls-2" x1="81.59" y1="69.4" x2="90.66" y2="63.4"/><path class="cls-2" d="m81.28,88.26c0-.6-.4-.86-.91-.59"/><line class="cls-2" x1="50.96" y1="44.99" x2="60.67" y2="40.11"/><line class="cls-2" x1="85.41" y1="54.37" x2="75.7" y2="59.26"/><polyline class="cls-2" points="80.15 101.68 89.37 95.26 89.45 95.2 89.53 95.14 89.61 95.09 89.68 95.01 89.76 94.93 89.82 94.87 89.9 94.77 89.96 94.7 90.02 94.62 90.09 94.52 90.15 94.44 90.19 94.34 90.25 94.25 90.31 94.15 90.35 94.05 90.39 93.94 90.45 93.84 90.48 93.72 90.52 93.6 90.54 93.51 90.58 93.39 90.6 93.25 90.64 93.14 90.66 93.02 90.68 92.88 90.7 92.77 90.72 92.63 90.72 92.51 90.74 92.38 90.74 92.24 90.74 92.1 90.74 91.97 90.68 63.38 90.68 63.22 90.66 63.06 90.66 62.91 90.64 62.77 90.64 62.62 90.62 62.46 90.6 62.3 90.58 62.13 90.54 61.97 90.52 61.82 90.48 61.66 90.45 61.49 90.41 61.33 90.37 61.17 90.33 61 90.27 60.84 90.23 60.69 90.17 60.51 90.11 60.35 90.06 60.18 90 60.02 89.94 59.85 89.86 59.69 89.78 59.54 89.72 59.36 89.65 59.2 89.57 59.05 89.49 58.87 89.41 58.72 89.31 58.56 89.24 58.4 89.14 58.25 89.06 58.09 88.96 57.94 88.87 57.78 88.77 57.64 88.67 57.49 88.57 57.33 88.46 57.2 88.36 57.06 88.24 56.9 88.14 56.77 88.03 56.63 87.91 56.49 87.81 56.36 87.7 56.24 87.58 56.1 87.46 55.99 87.34 55.85 87.23 55.73 87.09 55.62 86.97 55.5 86.86 55.4 86.74 55.28 86.6 55.19 86.49 55.07 86.35 54.97 86.23 54.87 86.1 54.8 85.98 54.7 85.84 54.62 85.73 54.52 85.59 54.45 85.47 54.37 60.71 40.11 60.59 40.05 60.47 39.98 60.35 39.92 60.22 39.86 60.1 39.8 59.98 39.76 59.87 39.7 59.75 39.66 59.63 39.62 59.52 39.59 59.4 39.55 59.28 39.53 59.17 39.49 59.05 39.47 58.93 39.45 58.81 39.43 58.7 39.43 58.6 39.41 58.48 39.41 58.37 39.41 58.27 39.41 58.15 39.41 58.05 39.41 57.94 39.43 57.84 39.45 57.74 39.47 57.64 39.49 57.55 39.53 57.45 39.55 57.35 39.59 57.25 39.62 57.16 39.66 47.02 44.48"/><path class="cls-2" d="m47.66,60.45c-4.72.75-7.12,5.81-6.05,12.77,1.07,6.97,5.39,14.42,10.9,18.82,5.51,4.39,11.09,4.83,14.09,1.11"/><path class="cls-2" d="m68.8,86.24c-.03-8.94-6.32-19.8-14.06-24.26-7.74-4.46-13.99-.83-13.97,8.11.03,8.94,6.32,19.8,14.06,24.26,7.74,4.46,13.99.83,13.97-8.11"/><line class="cls-2" x1="37.28" y1="82.37" x2="37.21" y2="53.78"/><path class="cls-2" d="m37.29,82.36c0,3.28,2.32,7.28,5.16,8.91"/><line class="cls-2" x1="67.2" y1="105.54" x2="42.45" y2="91.28"/><path class="cls-2" d="m67.22,105.53c2.85,1.64,5.15.3,5.14-2.98"/><line class="cls-2" x1="72.27" y1="73.97" x2="72.35" y2="102.55"/><path class="cls-2" d="m72.28,73.96c0-3.28-2.32-7.28-5.16-8.91"/><line class="cls-2" x1="42.36" y1="50.8" x2="67.1" y2="65.05"/><path class="cls-2" d="m42.37,50.79c-2.85-1.64-5.15-.3-5.14,2.98"/><polyline class="cls-2" points="81.47 85.92 81.49 85.9 81.49 85.88 81.49 85.86"/><path class="cls-2" d="m81.51,85.85c-1.74,1.15-3.01,3.37-3.01,5.24,0,1.87,1.29,2.82,3.03,2.24"/><polyline class="cls-2" points="81.51 93.35 81.51 93.33 81.51 93.31 81.51 93.29 81.49 93.27"/><polyline class="cls-2" points="81.49 93.27 81.42 93.29 81.34 93.31 81.28 93.33 81.2 93.35 81.12 93.37 81.05 93.37 80.97 93.39 80.89 93.39 80.83 93.41 80.75 93.41 80.68 93.41 80.62 93.43 80.54 93.43 80.48 93.41 80.4 93.41 80.34 93.41 80.27 93.39 80.21 93.39 80.13 93.37 80.07 93.37 80.01 93.35 79.95 93.33 79.88 93.31 79.82 93.29 79.76 93.27 79.7 93.23 79.64 93.21 79.6 93.17 79.54 93.16 79.49 93.12 79.43 93.08 79.39 93.04 79.33 93 79.29 92.96 79.23 92.92 79.19 92.88 79.15 92.84 79.12 92.78 79.06 92.75 79.02 92.69 78.98 92.63 78.96 92.59 78.92 92.53 78.88 92.47 78.84 92.41 78.82 92.36 78.78 92.3 78.76 92.22 78.74 92.16 78.71 92.1 78.69 92.02 78.67 91.97 78.65 91.89 78.63 91.83 78.61 91.75 78.61 91.67 78.59 91.6 78.57 91.52 78.57 91.46 78.55 91.38 78.55 91.28 78.55 91.21 78.55 91.13 78.55 91.05 78.55 90.97 78.55 90.89 78.55 90.8 78.55 90.72 78.57 90.64 78.57 90.54 78.59 90.46 78.59 90.37 78.61 90.29 78.63 90.19 78.65 90.11 78.67 90.02 78.69 89.94 78.71 89.84 78.73 89.74 78.76 89.66 78.78 89.57 78.8 89.49 78.84 89.39 78.88 89.29 78.9 89.22 78.94 89.12 78.98 89.02 79.02 88.94 79.06 88.85 79.1 88.77 79.13 88.67 79.17 88.57 79.23 88.49 79.27 88.4 79.33 88.32 79.37 88.22 79.43 88.14 79.47 88.05 79.52 87.97 79.58 87.89 79.64 87.79 79.7 87.71 79.76 87.64 79.82 87.56 79.88 87.46 79.93 87.38 79.99 87.3 80.05 87.23 80.13 87.15 80.19 87.07 80.25 87.01 80.32 86.93 80.38 86.86 80.46 86.78 80.52 86.72 80.6 86.64 80.68 86.58 80.73 86.51 80.81 86.45 80.89 86.39 80.95 86.31 81.03 86.25 81.1 86.19 81.18 86.13 81.26 86.08 81.32 86.02 81.4 85.98 81.47 85.92"/><line class="cls-2" x1="81.51" y1="93.35" x2="81.53" y2="98.07"/><path class="cls-2" d="m79.6,101.99c1.24-.57,1.95-2,1.94-3.92"/><path class="cls-2" d="m50.83,45.05c-1.67-.96-3.25-1.05-4.36-.26"/><line class="cls-2" x1="50.82" y1="45.07" x2="75.59" y2="59.32"/><path class="cls-2" d="m81.47,69.47c0-3.74-2.64-8.29-5.88-10.15"/><line class="cls-2" x1="81.46" y1="69.48" x2="81.49" y2="85.86"/><polyline class="cls-2" points="81.47 85.92 81.46 85.98 81.42 86.02 81.38 86.08 81.34 86.12 81.32 86.15 81.28 86.21 81.26 86.25 81.22 86.29 81.2 86.33 81.16 86.37 81.14 86.41 81.1 86.45 81.07 86.52 81.01 86.6 80.97 86.68 80.91 86.74 80.87 86.8 80.83 86.88 80.79 86.93 80.75 86.99 80.71 87.03 80.68 87.09 80.64 87.15 80.6 87.19 80.58 87.25 80.54 87.29 80.52 87.32 80.48 87.38 80.46 87.42 80.42 87.46 80.4 87.5 80.36 87.54 80.34 87.58 80.32 87.62 80.3 87.64 80.27 87.68 80.25 87.71 80.23 87.73 80.23 87.81"/><polyline class="cls-2" points="81.49 93.27 81.46 93.17 81.44 93.08 81.4 93 81.36 92.92 81.34 92.82 81.3 92.75 81.26 92.67 81.24 92.59 81.2 92.51 81.18 92.45 81.16 92.38 81.12 92.3 81.07 92.16 81.03 92.04 80.97 91.91 80.93 91.79 80.89 91.67 80.83 91.56 80.79 91.46 80.75 91.36 80.71 91.26 80.68 91.17 80.66 91.07 80.62 90.97 80.58 90.89 80.56 90.82 80.52 90.74 80.48 90.66 80.46 90.58 80.42 90.5 80.4 90.43 80.38 90.37 80.34 90.29 80.32 90.23 80.3 90.17 80.29 90.11 80.25 90.05 80.23 90"/><polyline class="cls-2" points="81.46 69.48 72.41 73.97 72.47 102.57 81.53 98.07"/><path class="cls-2" d="m37.27,82.32s0,.03.03.03"/><path class="cls-2" d="m37.21,53.73s0,.03.03.03"/><path class="cls-2" d="m42.42,50.68s-.06.07-.06.1"/><path class="cls-2" d="m42.43,50.67c-1.48-.85-2.89-.94-3.88-.23"/><path class="cls-2" d="m67.19,64.94s-.06.07-.06.1"/><line class="cls-2" x1="67.16" y1="64.94" x2="42.41" y2="50.68"/><path class="cls-2" d="m72.3,73.95s.08.02.12,0"/><path class="cls-2" d="m72.41,73.96c0-3.33-2.35-7.37-5.23-9.03"/><path class="cls-2" d="m72.35,102.54s.08.02.12,0"/><path class="cls-2" d="m67.23,105.53s0,.03.02.04"/><path class="cls-2" d="m70.76,106.04c1.1-.51,1.73-1.78,1.73-3.49"/><path class="cls-2" d="m42.46,91.27s0,.03.02.04"/><line class="cls-2" x1="50.8" y1="79.06" x2="59.26" y2="83.93"/><path class="cls-2" d="m50.65,78.78c0,.1.07.22.16.27"/><line class="cls-2" x1="50.62" y1="75.02" x2="50.62" y2="78.78"/><path class="cls-2" d="m50.79,74.92c-.09-.05-.16-.01-.16.09"/><line class="cls-2" x1="59.26" y1="79.8" x2="50.78" y2="74.92"/><path class="cls-2" d="m59.43,80.07c0-.1-.07-.22-.16-.27"/><line class="cls-2" x1="59.42" y1="83.85" x2="59.42" y2="80.09"/><path class="cls-2" d="m59.27,83.93c.09.05.16.01.16-.09"/><line class="cls-2" x1="50.78" y1="72.07" x2="59.24" y2="76.95"/><path class="cls-2" d="m50.63,71.78c0,.1.07.22.16.27"/><line class="cls-2" x1="50.6" y1="68.02" x2="50.62" y2="71.78"/><path class="cls-2" d="m50.77,67.92c-.09-.05-.16-.01-.16.09"/><line class="cls-2" x1="59.24" y1="72.82" x2="50.76" y2="67.94"/><path class="cls-2" d="m59.41,73.07c0-.1-.07-.22-.16-.27"/><line class="cls-2" x1="59.42" y1="76.85" x2="59.4" y2="73.09"/><path class="cls-2" d="m59.26,76.93c.09.05.16.01.16-.09"/><line class="cls-2" x1="50.6" y1="68.02" x2="50.76" y2="67.94"/><line class="cls-2" x1="50.99" y1="71.57" x2="50.62" y2="71.78"/><line class="cls-2" x1="50.62" y1="75.02" x2="50.78" y2="74.92"/><line class="cls-2" x1="51.01" y1="78.57" x2="50.62" y2="78.78"/><line class="cls-2" x1="50.78" y1="72.07" x2="51.15" y2="71.86"/><line class="cls-2" x1="50.8" y1="79.06" x2="51.17" y2="78.84"/><path class="cls-2" d="m80.24,87.74c-.51.34-.9,1.05-.9,1.64s.39.85.9.59"/><line class="cls-2" x1="59.42" y1="76.85" x2="59.24" y2="76.95"/><line class="cls-2" x1="59.42" y1="83.85" x2="59.26" y2="83.93"/><line class="cls-2" x1="75.59" y1="59.32" x2="67.16" y2="64.94"/><line class="cls-2" x1="42.41" y1="50.68" x2="50.82" y2="45.07"/><polyline class="cls-2" points="66.58 93.17 66.65 93.08 66.73 92.98 66.79 92.88 66.87 92.78 66.95 92.69 67 92.59 67.06 92.47 67.14 92.38 67.2 92.28 67.26 92.16 67.32 92.04 67.38 91.95 67.43 91.83 67.49 91.71 67.55 91.6 67.61 91.48 67.67 91.36 67.71 91.24 67.77 91.13 67.82 90.99 67.86 90.87 67.9 90.74 67.96 90.62 68 90.48 68.04 90.35 68.08 90.23 68.12 90.09 68.16 89.96 68.19 89.82 68.23 89.68 68.27 89.55 68.31 89.39 68.33 89.26 68.37 89.12 68.39 88.96 68.41 88.83 68.45 88.67 68.47 88.53 68.49 88.38 68.51 88.22 68.53 88.07 68.55 87.93 68.56 87.77 68.58 87.62 68.58 87.46 68.6 87.29 68.62 87.13 68.62 86.97 68.62 86.82 68.64 86.64 68.64 86.49 68.64 86.33 68.64 86.15 68.64 86 68.64 85.82 68.64 85.67 68.64 85.49 68.62 85.32 68.62 85.14 68.62 84.98 68.6 84.81 68.58 84.63 68.58 84.46 68.56 84.28 68.55 84.11 68.53 83.93 68.51 83.76 68.49 83.58 68.47 83.4 68.43 83.21 68.41 83.03 68.39 82.86 68.35 82.68 68.33 82.49 68.29 82.31 68.25 82.14 68.23 81.94 68.19 81.77 68.16 81.59 68.12 81.4 68.08 81.22 68.02 81.03 67.98 80.85 67.94 80.66 67.88 80.48 67.84 80.28 67.78 80.11 67.75 79.91 67.69 79.72 67.63 79.54 67.57 79.35 67.53 79.17 67.47 78.98 67.39 78.78 67.34 78.61 67.28 78.41 67.22 78.22 67.14 78.04 67.08 77.85 67.02 77.65 66.95 77.48 66.87 77.28 66.81 77.11 66.73 76.91 66.65 76.72 66.58 76.54 66.5 76.35 66.42 76.17 66.34 75.97 66.26 75.78 66.19 75.6 66.09 75.41 66.01 75.23 65.93 75.04 65.83 74.86 65.74 74.67 65.66 74.49 65.56 74.3 65.46 74.12 65.39 73.95 65.29 73.75 65.19 73.58 65.09 73.4 65 73.21 64.9 73.03 64.8 72.85 64.68 72.68 64.59 72.48 64.49 72.31 64.37 72.13 64.27 71.96 64.16 71.78 64.06 71.61 63.94 71.43 63.85 71.26 63.73 71.08 63.61 70.9 63.49 70.75 63.38 70.57 63.28 70.4 63.16 70.22 63.05 70.07 62.93 69.89 62.79 69.73 62.68 69.56 62.56 69.4 62.44 69.23 62.32 69.07 62.19 68.92 62.07 68.76 61.95 68.58 61.82 68.43 61.7 68.27 61.56 68.12 61.45 67.96 61.31 67.8 61.17 67.67 61.06 67.51 60.92 67.36 60.78 67.2 60.67 67.06 60.53 66.91 60.39 66.77 60.26 66.61 60.12 66.48 59.98 66.34 59.85 66.2 59.71 66.07 59.57 65.93 59.44 65.8 59.3 65.66 59.17 65.52 59.03 65.39 58.89 65.25 58.76 65.13 58.62 65 58.48 64.88 58.33 64.74 58.19 64.63 58.05 64.51 57.92 64.39 57.78 64.27 57.62 64.16 57.49 64.04 57.35 63.92 57.2 63.81 57.06 63.71 56.92 63.59 56.77 63.49 56.63 63.38 56.49 63.28 56.34 63.18 56.2 63.06 56.05 62.97 55.91 62.87 55.77 62.79 55.62 62.69 55.48 62.6 55.32 62.5 55.19 62.42 55.05 62.34 54.89 62.25 54.76 62.17 54.6 62.09 54.47 62.01 54.33 61.93 54.17 61.86 54.04 61.78 53.9 61.7 53.74 61.64 53.61 61.56 53.47 61.5 53.31 61.45 53.18 61.37 53.04 61.31 52.89 61.25 52.75 61.19 52.61 61.13 52.48 61.1 52.34 61.04 52.18 61 52.05 60.94 51.91 60.9 51.77 60.86 51.64 60.8 51.5 60.76 51.36 60.72 51.23 60.71 51.09 60.67 50.96 60.63 50.82 60.61 50.68 60.57 50.55 60.55 50.41 60.53 50.27 60.49 50.16 60.47 50.02 60.45 49.88 60.45 49.75 60.43 49.63 60.41 49.49 60.41 49.36 60.39 49.24 60.39 49.1 60.39 48.99 60.37 48.87 60.37 48.73 60.37 48.62 60.37 48.48 60.39 48.36 60.39 48.24 60.39 48.13 60.41 48.01 60.43 47.89 60.43 47.78 60.45 47.66 60.47"/><polyline class="cls-2" points="37.27 82.33 37.19 53.74 37.19 53.61 37.19 53.47 37.21 53.33 37.21 53.2 37.23 53.08 37.23 52.94 37.25 52.83 37.27 52.69 37.3 52.57 37.32 52.46 37.34 52.34 37.38 52.22 37.42 52.11 37.44 51.99 37.48 51.89 37.54 51.77 37.58 51.68 37.62 51.58 37.67 51.46 37.71 51.38 37.77 51.29 37.83 51.19 37.89 51.11 37.95 51.01 38.03 50.94 38.08 50.86 38.16 50.78 38.22 50.7 38.3 50.64 38.38 50.56 38.46 50.51 38.53 50.45"/><polyline class="cls-2" points="79.58 101.99 70.75 106.05 70.65 106.08 70.55 106.12 70.46 106.16 70.38 106.18 70.26 106.22 70.16 106.24 70.07 106.26 69.97 106.28 69.87 106.28 69.75 106.3 69.66 106.3 69.54 106.3 69.44 106.3 69.33 106.28 69.21 106.28 69.09 106.26 68.99 106.24 68.88 106.22 68.76 106.2 68.64 106.18 68.53 106.14 68.41 106.1 68.29 106.07 68.17 106.03 68.06 105.99 67.94 105.95 67.82 105.89 67.71 105.83 67.59 105.77 67.47 105.71 67.36 105.66 67.22 105.58 42.47 91.32 42.34 91.24 42.22 91.17 42.08 91.09 41.97 91.01 41.83 90.91 41.71 90.82 41.58 90.72 41.46 90.62 41.32 90.52 41.2 90.43 41.09 90.31 40.95 90.19 40.83 90.07 40.72 89.96 40.6 89.84 40.48 89.72 40.37 89.61 40.25 89.47 40.13 89.33 40.02 89.2 39.9 89.08 39.8 88.92 39.68 88.79 39.59 88.65 39.47 88.51 39.37 88.36 39.27 88.22 39.18 88.07 39.08 87.91 38.98 87.75 38.88 87.62 38.79 87.46 38.71 87.3 38.61 87.13 38.53 86.97 38.46 86.82 38.36 86.66 38.28 86.51 38.22 86.33 38.14 86.17 38.07 86.02 38.01 85.84 37.95 85.69 37.87 85.51 37.81 85.35 37.77 85.18 37.71 85.02 37.66 84.87 37.62 84.69 37.56 84.54 37.52 84.36 37.48 84.2 37.44 84.05 37.42 83.89 37.38 83.72 37.36 83.56 37.34 83.4 37.32 83.25 37.3 83.09 37.28 82.94 37.27 82.78 37.27 82.62 37.27 82.49 37.27 82.33"/><line class="cls-2" x1="38.53" y1="50.45" x2="46.47" y2="44.81"/><path class="cls-2" d="m80.37,87.73s-.09.05-.13.08"/><path class="cls-1" d="m80.37,87.79c-.51.29-.92,1-.92,1.59,0,.59.41.82.92.53.51-.29.92-1,.92-1.59,0-.59-.41-.82-.92-.53"/><line class="cls-2" x1="80.95" y1="87.7" x2="81.01" y2="87.73"/><line class="cls-2" x1="79.66" y1="89.96" x2="79.72" y2="90"/><path class="cls-2" d="m80.24,87.8c-.36.24-.66.69-.79,1.15s-.04.85.21.99"/><line class="cls-2" x1="80.36" y1="87.73" x2="80.36" y2="87.73"/><path class="cls-2" d="m80.96,87.69c-.16-.09-.37-.08-.59.03"/><circle class="cls-3" cx="80.98" cy="89.48" r="7.66"/></svg>