<?xml version="1.0" encoding="utf-8"?>
<!-- Generator: Adobe Illustrator 24.0.1, SVG Export Plug-In . SVG Version: 6.00 Build 0)  -->
<svg version="1.1" id="Laag_1" xmlns="http://www.w3.org/2000/svg" xmlns:xlink="http://www.w3.org/1999/xlink" x="0px" y="0px"
	 viewBox="0 0 157.1 157.1" style="enable-background:new 0 0 157.1 157.1;" xml:space="preserve">
<style type="text/css">
	.st0{fill:none;stroke:#808080;stroke-miterlimit:22.9256;}
	.st1{fill:none;stroke:#000000;stroke-linejoin:bevel;stroke-miterlimit:22.9256;}
	.st2{fill:none;stroke:#000000;stroke-miterlimit:22.9256;}
</style>
<path class="st0" d="M28.9,47.9"/>
<path class="st0" d="M36.1,35.4"/>
<path class="st0" d="M127.5,109.5"/>
<path class="st0" d="M28.9,109.5"/>
<path class="st1" d="M138,139.3"/>
<path class="st1" d="M139.3,138"/>
<path class="st1" d="M139.3,19.1"/>
<path class="st1" d="M19.1,139.3"/>
<path class="st1" d="M17.8,138"/>
<path class="st1" d="M9.3,0.5C7,0.5,4.7,1.4,3.1,3.1C1.4,4.7,0.5,6.9,0.5,9.3"/>
<path class="st1" d="M0.5,147.8c0,2.3,0.9,4.6,2.6,6.2c1.6,1.6,3.9,2.6,6.2,2.6"/>
<path class="st1" d="M156.6,9.3c0-2.3-0.9-4.6-2.6-6.2c-1.6-1.6-3.9-2.6-6.2-2.6"/>
<path class="st1" d="M17.8,19.1"/>
<line class="st1" x1="147.8" y1="0.5" x2="9.3" y2="0.5"/>
<path class="st1" d="M147.8,156.6c2.3,0,4.6-0.9,6.2-2.6c1.6-1.6,2.6-3.9,2.6-6.2"/>
<line class="st1" x1="0.5" y1="9.3" x2="0.5" y2="147.8"/>
<line class="st1" x1="9.3" y1="156.6" x2="147.8" y2="156.6"/>
<line class="st1" x1="156.6" y1="147.8" x2="156.6" y2="9.3"/>
<path class="st1" d="M103.5,139.4c-0.2,0-0.5,0-0.7,0"/>
<path class="st1" d="M139.4,137.2c0-9.4,0-23.5,0-28.1"/>
<path class="st1" d="M139.4,78.1c0-9.9,0-24.7,0-29.6"/>
<path class="st1" d="M103.5,139.4c11.2,0,28.1,0,33.7,0"/>
<path class="st1" d="M17.7,78.8c12.2,0,30.4,0,36.5,0"/>
<path class="st1" d="M137.3,139.4c0.6,0,1.3-0.4,1.5-0.6c0.4-0.4,0.6-1.2,0.6-1.5"/>
<path class="st1" d="M17.7,78.1c0,0.2,0,0.5,0,0.7"/>
<path class="st1" d="M102.9,17.6c-16.2,0-40.6,0-48.7,0"/>
<path class="st1" d="M17.6,109c0-9.9,0-25.3,0-30.2"/>
<path class="st1" d="M102.9,109c0,9.5,0,23.7,0,28.4"/>
<path class="st1" d="M102.9,138.5c0,0.3,0,0.7,0,0.8"/>
<path class="st1" d="M102.9,137.4c0,0.4,0,0.9,0,1.1"/>
<path class="st1" d="M139.4,19.7c0-0.6-0.4-1.3-0.6-1.5c-0.4-0.4-1.2-0.6-1.5-0.6"/>
<path class="st1" d="M103.5,17.6c-0.2,0-0.5,0-0.7,0"/>
<path class="st1" d="M139.4,48.5c0-9.4,0-24.1,0-28.8"/>
<path class="st1" d="M137.3,17.6c-11.2,0-28.1,0-33.7,0"/>
<path class="st1" d="M54.2,109c0,9.5,0,23.7,0,28.4"/>
<path class="st1" d="M54.2,137.4c0,0.6,0,1.6,0,1.9"/>
<path class="st1" d="M54.4,20.4c16.1,0,40.2,0,48.2,0"/>
<path class="st1" d="M102.9,19.5c0,19.5,0,48.9,0,58.6"/>
<path class="st1" d="M102.6,136.5c-16.1,0-40.2,0-48.2,0"/>
<path class="st1" d="M102.6,20.4c0,38.7,0,96.8,0,116.2"/>
<path class="st1" d="M102.9,17.6c0,0.3,0,0.7,0,0.8"/>
<path class="st1" d="M102.9,18.4c0,0.4,0,0.9,0,1.1"/>
<path class="st1" d="M139.4,78.8c0-0.2,0-0.5,0-0.7"/>
<path class="st1" d="M139.4,109c0-9.9,0-25.3,0-30.2"/>
<path class="st1" d="M17.6,78.1c0-9.9,0-25.3,0-30.2"/>
<path class="st1" d="M17.7,78.1"/>
<path class="st1" d="M54.2,78.1"/>
<path class="st1" d="M54.2,48.5c0,9.9,0,24.7,0,29.6"/>
<path class="st1" d="M53.5,139.4c-11.2,0-28.1,0-33.7,0"/>
<path class="st1" d="M53.5,139.4c0.2,0,0.5,0,0.7,0"/>
<path class="st1" d="M54.4,136.5c0-38.7,0-96.8,0-116.2"/>
<path class="st1" d="M17.6,137.2c0-9.4,0-23.5,0-28.1"/>
<path class="st1" d="M19.8,139.4c-0.6,0-1.3-0.4-1.5-0.6c-0.4-0.4-0.6-1.2-0.6-1.5"/>
<path class="st1" d="M54.2,17.6c0,0.3,0,0.7,0,0.8"/>
<path class="st1" d="M54.2,19.5c0,9.7,0,24.2,0,29"/>
<path class="st1" d="M54.2,18.4c0,0.4,0,0.9,0,1.1"/>
<path class="st1" d="M17.6,47.9c0-9.4,0-23.5,0-28.1"/>
<path class="st1" d="M17.6,19.7c0-0.6,0.4-1.3,0.6-1.5c0.4-0.4,1.2-0.6,1.5-0.6"/>
<path class="st1" d="M53.5,17.6c0.2,0,0.5,0,0.7,0"/>
<path class="st1" d="M102.9,78.8c0,10.1,0,25.2,0,30.2"/>
<path class="st1" d="M139.4,78.8c-12.2,0-30.4,0-36.5,0"/>
<path class="st1" d="M54.2,78.8c0,10.1,0,25.2,0,30.2"/>
<path class="st1" d="M19.8,17.6c11.2,0,28.1,0,33.7,0"/>
<path class="st1" d="M54.2,139.3c16.2,0,40.6,0,48.7,0"/>
<path class="st1" d="M139.4,78.1"/>
<path class="st1" d="M102.9,78.1"/>
<line class="st2" x1="36" y1="44" x2="36" y2="51.7"/>
<rect x="77.5" y="29.8" width="2.1" height="4.2"/>
<line class="st2" x1="36" y1="105.2" x2="36" y2="112.9"/>
<circle class="st2" cx="121.1" cy="109.1" r="3.8"/>
<path class="st0" d="M106.5,99.9"/>
<circle class="st2" cx="121.1" cy="47.8" r="3.8"/>
</svg>
