<?xml version="1.0" encoding="UTF-8"?>
<svg width="960px" height="960px" viewBox="0 0 960 960" version="1.1" xmlns="http://www.w3.org/2000/svg" xmlns:xlink="http://www.w3.org/1999/xlink">
    <title>Scene Controller (4 buttons)/assets/pair</title>
    <g id="Scene-Controller-(4-buttons)" stroke="none" stroke-width="1" fill="none" fill-rule="evenodd">
        <path d="M197.90206,19.5745053 L811.909407,69.6209863 C825.145532,70.6998357 836.859741,76.7676833 845.264918,85.8858234 C853.670096,95.0039635 858.766242,107.172396 858.766242,120.452415 L858.766242,824.88139 C858.766242,837.995753 853.792658,850.040938 845.5563,859.129186 C837.319942,868.217434 825.820809,874.348744 812.769712,875.635358 L205.801963,935.471957 L165.766209,929.656843 C150.280732,927.407608 136.794633,919.64515 127.179902,908.533007 C117.565172,897.420865 111.821811,882.959038 111.821811,867.311065 L111.821811,93.4360823 C111.821811,79.8190412 116.196721,66.972805 123.806583,56.4706049 C131.416445,45.9684048 142.261258,37.8102408 155.201065,33.5693441 L197.90206,19.5745053 Z" id="Path-106" stroke="#000000" stroke-width="40" stroke-linejoin="round"></path>
        <path d="M154.290321,84.3778975 L154.290321,873.903399 C154.290321,902.622206 177.571515,925.903399 206.290321,925.903399 C208.059483,925.903399 209.827491,925.813113 211.587449,925.632892 L810.143736,864.340407 C832.081225,862.093996 848.763419,843.616301 848.763419,821.564095 L848.763419,120.880334 C848.763419,98.3952309 831.44031,79.7065911 809.019774,78.0038123 L210.22824,32.5272196 C181.591901,30.3523673 156.614496,51.8036405 154.439644,80.4399791 C154.340131,81.7502604 154.290321,83.0638428 154.290321,84.3778975 Z" id="Path-3" stroke="#000000" stroke-width="20" stroke-linecap="round" stroke-linejoin="round"></path>
        <path d="M278.766931,773.233362 L278.766931,190.559019 C278.766931,179.688725 286.57114,170.387314 297.276146,168.498895 L312.904863,165.741907 C314.818668,165.404302 316.765312,165.290997 318.705362,165.404289 L764.310774,191.426023 C777.52927,192.197936 787.853348,203.142491 787.853348,216.383506 L787.853348,736.356208 C787.853348,749.540872 777.614122,760.459214 764.456598,761.304747 L307.405489,790.6759 C305.378352,790.806169 303.342894,790.68889 301.344135,790.326657 L291.56019,788.553523 C284.152873,787.211103 278.766931,780.761339 278.766931,773.233362 Z" id="Path" stroke="#000000" stroke-width="20" stroke-linecap="round" stroke-linejoin="round"></path>
        <path d="M304.35345,191.699764 L304.35345,764.213907 C304.35345,778.021025 315.546331,789.213907 329.35345,789.213907 C329.888279,789.213907 330.422971,789.196744 330.9567,789.162446 L764.456598,761.304747 C777.614122,760.459214 787.853348,749.540872 787.853348,736.356208 L787.853348,216.416035 C787.853348,203.161741 777.50923,192.211048 764.276427,191.456571 L330.776529,166.7403 C316.991798,165.954355 305.179931,176.491954 304.393986,190.276685 C304.366967,190.750564 304.35345,191.225116 304.35345,191.699764 Z" id="Path-3" stroke="#000000" stroke-width="20" stroke-linecap="round" stroke-linejoin="round"></path>
        <line x1="472.623966" y1="176.242857" x2="472.623966" y2="775.856198" id="Path-17" stroke="#000000" stroke-width="20" stroke-linecap="round" stroke-linejoin="round"></line>
        <line x1="665.5" y1="188.5" x2="664.747933" y2="763.599055" id="Path-17" stroke="#000000" stroke-width="20" stroke-linecap="round" stroke-linejoin="round"></line>
        <polyline id="Path-23" stroke="#000000" stroke-width="20" stroke-linecap="round" stroke-linejoin="round" points="278.766931 472.889214 304.35345 479.889518 472.623966 477.582724"></polyline>
        <line x1="665.5" y1="476.049528" x2="787.5" y2="476.5" id="Path-24" stroke="#000000" stroke-width="20" stroke-linecap="round" stroke-linejoin="round"></line>
        <rect id="Rectangle" fill="#000000" x="561" y="249" width="18" height="21"></rect>
    </g>
</svg>